<svg xmlns="http://www.w3.org/2000/svg" xmlns:xlink="http://www.w3.org/1999/xlink" width="1129.691" height="959.347" viewBox="0 0 1129.691 959.347">
  <defs>
    <style>
      .cls-1 {
        fill: url(#linear-gradient);
      }

      .cls-2 {
        fill: #341660;
        stroke: #707070;
        opacity: 0.7;
      }

      .cls-3 {
        fill: #fbfbfb;
        opacity: 0.12;
      }

      .cls-4 {
        fill: url(#linear-gradient-2);
      }

      .cls-5 {
        fill: url(#linear-gradient-3);
      }

      .cls-6 {
        fill: #868686;
        opacity: 0.8;
      }

      .cls-7 {
        fill: #0901ef;
      }

      .cls-8 {
        fill: #e8a597;
      }

      .cls-9 {
        fill: #a42a6c;
      }

      .cls-10 {
        fill: #feb4a1;
      }

      .cls-11 {
        fill: #feb7a1;
      }

      .cls-12 {
        fill: #360300;
      }

      .cls-13 {
        fill: #eaeaea;
      }

      .cls-14 {
        fill: #f49d80;
      }

      .cls-15 {
        fill: #383838;
      }

      .cls-16 {
        fill: #581054;
      }

      .cls-17 {
        fill: #6d6db2;
      }

      .cls-18 {
        fill: #8c245d;
      }

      .cls-19 {
        fill: #ea573f;
      }

      .cls-20 {
        fill: #2f2f2f;
      }

      .cls-21 {
        fill: #ff7a00;
      }

      .cls-22 {
        fill: #8f245e;
      }

      .cls-23 {
        fill: #febba8;
      }

      .cls-24 {
        fill: #2c2c2c;
      }

      .cls-25 {
        fill: #fff;
      }

      .cls-26 {
        fill: #ac2a6f;
      }

      .cls-27 {
        fill: #efefef;
        font-size: 24px;
        font-family: Avenir-Medium, Avenir;
        font-weight: 500;
      }

      .cls-28 {
        stroke: none;
      }

      .cls-29 {
        fill: none;
      }
    </style>
    <linearGradient id="linear-gradient" x1="0.5" x2="0.5" y2="1" gradientUnits="objectBoundingBox">
      <stop offset="0" stop-color="#1e2959"/>
      <stop offset="0.286" stop-color="#2b4fcb"/>
      <stop offset="0.645" stop-color="#8d2761"/>
      <stop offset="1" stop-color="#b72c74"/>
    </linearGradient>
    <linearGradient id="linear-gradient-2" x1="0.5" x2="0.5" y2="1" gradientUnits="objectBoundingBox">
      <stop offset="0" stop-color="#4c85f6"/>
      <stop offset="1" stop-color="#90b1fe"/>
    </linearGradient>
    <linearGradient id="linear-gradient-3" x1="0.5" x2="0.5" y2="1" gradientUnits="objectBoundingBox">
      <stop offset="0" stop-color="#1e1340"/>
      <stop offset="0.507" stop-color="#08175a"/>
      <stop offset="1" stop-color="#1e1340"/>
    </linearGradient>
  </defs>
  <g id="Group_65114" data-name="Group 65114" transform="translate(-428.654 -3795)">
    <g id="Group_65113" data-name="Group 65113">
      <g id="Group_607" data-name="Group 607">
        <g id="Group_16" data-name="Group 16" transform="translate(1158 490)">
          <path id="Path_73" data-name="Path 73" class="cls-1" d="M0,0H911V768H0Z" transform="translate(-620 3305)"/>
          <g id="Rectangle_19868" data-name="Rectangle 19868" class="cls-2" transform="translate(-620 3305)">
            <rect class="cls-28" width="911" height="768"/>
            <rect class="cls-29" x="0.5" y="0.5" width="910" height="767"/>
          </g>
        </g>
        <g id="Group_18" data-name="Group 18" transform="translate(1158.264 481.482)">
          <g id="Group_17" data-name="Group 17" transform="translate(-538.264 3621.518)">
            <g id="Group_11" data-name="Group 11" transform="translate(0 139.301)">
              <path id="Path_74" data-name="Path 74" class="cls-3" d="M723.109,222.227,584.768,27.455,0,0,77.724,190.395Z" transform="translate(0 100.636) rotate(-8)"/>
              <g id="Group_10" data-name="Group 10" transform="translate(18.764 65.513)">
                <path id="Path_5" data-name="Path 5" class="cls-4" d="M82,571.552l556.622-63.6L782.435,562.67,178.427,633.051Z" transform="translate(-74.132 -507.948)"/>
                <path id="Path_6" data-name="Path 6" class="cls-5" d="M602,512.451l44.5-4.513,145.5,54.5-61,6.5Z" transform="translate(-82.529 -507.895)"/>
                <path id="Path_7" data-name="Path 7" class="cls-5" d="M82,571.5l49-5.5,96,61-48,6Z" transform="translate(-82 -507.895)"/>
                <path id="Path_8" data-name="Path 8" class="cls-5" d="M178.5,633,82,571.5v16l96.5,68Z" transform="translate(-82 -507.896)"/>
                <path id="Path_9" data-name="Path 9" class="cls-5" d="M790.471,562,178.5,633v22.5L789.972,584Z" transform="translate(-82 -507.895)"/>
                <path id="Path_10" data-name="Path 10" class="cls-6" d="M150.092,588.831,165.5,598.5l-3.408.831-15.5-9.5Z" transform="translate(-85 -502.477)"/>
                <path id="Path_75" data-name="Path 75" class="cls-7" d="M82,571.552l556.622-63.6L782.435,562.67,178.427,633.051Z" transform="translate(-74.132 -507.948)"/>
              </g>
            </g>
            <g id="Group_14" data-name="Group 14" transform="translate(358.773 11.941)">
              <path id="Path_53" data-name="Path 53" class="cls-8" d="M550.789,422.167c-3.917,5.763-7.331,9.032-10.865,15.038-2.54,4.319-9.15,8.994-9.15,8.994s-5.317,1.038-5.8-2.276-1.369-10.095-1.02-10.708a1.126,1.126,0,0,1,.135-.149,39.226,39.226,0,0,1-.925-7.389c.012-5.442,2.686-13.672,2.686-13.672l7.256,12.217-.908,1.6c7.159-6.45,16.794-15.5,19.538-20.346l1.19-4.583-.612-5.616,4.689-.664,4.531,2.117c-1.015,1.493-2.323,4.891-3.15,6.332a7.708,7.708,0,0,0-1.085,2.729S553.833,417.689,550.789,422.167Z" transform="translate(-419.831 -331.902)"/>
              <path id="Path_54" data-name="Path 54" class="cls-9" d="M535.441,421.356c-3.954,4.117-12.048,12.341-12.789,12.3,0,0-7.777-29.326,2.45-26.838C531.871,408.466,535.441,421.356,535.441,421.356Z" transform="translate(-420.093 -330.954)"/>
              <path id="Path_55" data-name="Path 55" class="cls-10" d="M500.53,404.64c-.239-.711.266-12.445.549-18.223,2.347.612,7.191,2.576,7.791,5.536s3.729,10.608,5.218,14.062c-.365,2.593-10.734,2.618-11.846,2.25S500.827,405.528,500.53,404.64Z" transform="translate(-421.615 -332.546)"/>
              <path id="Path_56" data-name="Path 56" class="cls-11" d="M509.736,394.28c6.5-.839,1.61-17.923.341-18.337a8.821,8.821,0,0,0-4.484-.734c-1.9.335-3.805,2.27-4.231,2.542-.745.475-1.327,5.021-1.525,7.235l1.068,2.13C502.689,390.222,503.237,395.118,509.736,394.28Z" transform="translate(-421.664 -333.434)"/>
              <path id="Path_57" data-name="Path 57" class="cls-12" d="M498.631,377.86c-1.239,2.2,1.624,8.267,3.211,11.03-.7-2.32-1.853-6.841-.9-6.368s1.686,3.058,1.936,4.292c.168-1.951.712-5.972,1.54-6.448,1.035-.6,4.59-1.048,5.478-1.346s3.549-2.675,4.5-5.714a4.661,4.661,0,0,0-1.937-5.033c.05.149-.072.815-.958,2.3s-2,1.659-2.441,1.562c.472-.949-1.192-3.059-2.083-4l-1.917,3.856C504.03,374.069,500.18,375.116,498.631,377.86Z" transform="translate(-421.783 -333.983)"/>
              <path id="Path_58" data-name="Path 58" class="cls-13" d="M498.417,578.478l-6.834,3.422-12.637-27.425,15.946-7.986Z" transform="translate(-423.307 -319.964)"/>
              <path id="Path_59" data-name="Path 59" class="cls-14" d="M484.872,558.8c4.145-1.006,8.848-6.4,8.848-6.4s.791-19.653,4.626-31.467c3.53-10.875,13.218-26.126,13.218-26.126-7.365-4.2-23.286-12.01-28.053-9.623-5.957,2.983-9.392,19.6-10.584,33.136-1.423,16.138,3.7,30.732,7.3,40.838A22.634,22.634,0,0,0,484.872,558.8Z" transform="translate(-423.799 -324.818)"/>
              <path id="Path_60" data-name="Path 60" class="cls-15" d="M493.438,583.321l3.943-.879s2.041-1.946,2.364-3.595a9.034,9.034,0,0,0-.353-3.331c-.351-.116-1.472.037-3.154,1.58s-5.959,2.107-5.959,2.107,1.61-3.524,0-3.943c-2.016-.525-11.478,7.282-11.478,7.282s1.136,3.875,3.071,5.256C485.814,590.61,493.438,583.321,493.438,583.321Z" transform="translate(-423.318 -317.704)"/>
              <path id="Path_61" data-name="Path 61" class="cls-13" d="M476.882,559.711c-8.222,10-24.872,30.2-25.7,30.934l-7-1.182,13.52-37.708Z" transform="translate(-426.04 -319.55)"/>
              <path id="Path_62" data-name="Path 62" class="cls-16" d="M497.061,398.879l23.342,7.152L495.787,424.37,489.226,419C491.748,417.222,494.5,403.325,497.061,398.879Z" transform="translate(-422.499 -331.567)"/>
              <path id="Path_63" data-name="Path 63" class="cls-15" d="M430.75,581.189s11.443.124,15.686.3a7,7,0,0,1,3.293.775c1.374.707-.458,2.33-1.547,3.054,0,0,1.974,1.717,3.445,1.569a6.032,6.032,0,0,0,2.425-1.237s.606,3.175-.886,5.25c-1.731,2.409-6.58,1.787-6.58,1.787l-3.965-2.776s-6.143.285-9.544-1.326c-2.533-1.2-6.313-1.721-5.637-4.442C427.859,582.462,430.75,581.189,430.75,581.189Z" transform="translate(-427.362 -317.236)"/>
              <path id="Path_64" data-name="Path 64" class="cls-17" d="M514.329,423.07c-.787-4.257-.517-6.706-.283-7.4l1.149-.008c.062-.094.094-.02-.273,1.021s2.438,16.236,3.886,23.7l-1.4-1.142C516.712,435.628,515.117,427.327,514.329,423.07Z" transform="translate(-420.566 -330.25)"/>
              <path id="Path_65" data-name="Path 65" class="cls-18" d="M499.76,569.05c-8.106-.132-19.734,3.533-19.734,3.533s-9.116-27.378-9.01-54.461c.094-23.7,9.235-46.834,11.421-55.588l29.536,5.815-13.035,49.493Z" transform="translate(-423.93 -326.563)"/>
              <g id="Group_9" data-name="Group 9" transform="translate(30.999 164.514)">
                <path id="Path_66" data-name="Path 66" class="cls-11" d="M484.928,489.188c-3.872,1.822-20.831,46.651-28.826,68.836l19.822,7.011c2.558-3.584,18.569-33.3,21.324-36.873,2.2-2.859,9.116-16.562,12.3-23.055C502.953,499.041,488.8,487.365,484.928,489.188Z" transform="translate(-456.102 -488.997)"/>
              </g>
              <path id="Path_67" data-name="Path 67" class="cls-9" d="M526.45,486.565c4.579-5.729,4.092-18.5,3.894-19.623l-35.142-1.99-24.255,52.364L451.1,568.807l20.749,11.406c3.148-6.333,13.939-26.784,28.027-51.434C511.6,508.266,524.371,489.167,526.45,486.565Z" transform="translate(-425.496 -326.373)"/>
              <path id="Path_68" data-name="Path 68" class="cls-16" d="M516.648,400.889c3.479.04,12.3,5.339,12.734,10.007l-2.973,20.394-.337,5.951c1.4,15.586,3.216,35.234,2.744,37.719s-14.379,2.719-21.274,2.525c-19.232,3.034-24.135-5.488-25.632-8.321s4.01-19.6,6.474-26.525c1.971-5.542,1.788-19.4,1.451-25.633,3.076-10.425,6.8-10.411,9.6-12.215S512.3,400.839,516.648,400.889Z" transform="translate(-423.094 -331.409)"/>
              <path id="Path_69" data-name="Path 69" class="cls-19" d="M538.853,336.472c4.131,16.45,12.471,49.572,12.784,50.46l-6.667,2.349-11.652-27.749-1.131-22.711Z" transform="translate(-419.121 -336.472)"/>
              <rect id="Rectangle_19867" data-name="Rectangle 19867" class="cls-12" width="3.535" height="27.098" transform="translate(127.516 52.219) rotate(-19.411)"/>
              <path id="Path_70" data-name="Path 70" class="cls-11" d="M513.181,411.153c-9.913-7.323-14.708-6.723-16.366-7.308l-8.484,14.125c4.871,8.554,34.428,11.385,37.978,12.519s9.931-3.988,15.01-9.033c4.064-4.037,11.018-16.013,13.986-21.5,2-1.529,5.91-4.814,5.558-5.713-.439-1.124-3.455-3.291-6-3.5s-.683,3.554-1.762,6.216c-.865,2.129-18.2,16.653-26.755,23.647C525.26,419.9,521.111,417.011,513.181,411.153Z" transform="translate(-422.569 -332.207)"/>
              <path id="Path_71" data-name="Path 71" class="cls-9" d="M495.044,398.088c5.26.532,11.686,7.174,11.686,7.174L495.5,424.814s-12.077-2.726-14.489-8.917C477.951,408.038,484.971,397.071,495.044,398.088Z" transform="translate(-423.201 -331.634)"/>
            </g>
            <g id="Group_15" data-name="Group 15" transform="translate(524.128)">
              <ellipse id="Ellipse_1" data-name="Ellipse 1" class="cls-20" cx="11.6" cy="11.6" rx="11.6" ry="11.6" transform="translate(109.699 28.815) rotate(-163.564)"/>
              <path id="Path_11" data-name="Path 11" class="cls-21" d="M662.807,309.134a12.683,12.683,0,0,0,5.31-.946l.95,1.745-9.4,5.115a11.536,11.536,0,0,1-1.008-5.407l.01-.006.012-.007a4.345,4.345,0,0,1,1.753-.455c.541-.044,1.1-.043,1.736-.039Z" transform="translate(-568.392 -295.874)"/>
              <path id="Path_12" data-name="Path 12" class="cls-21" d="M665.481,299.7l3.329,6.117a11.131,11.131,0,0,0,3.055-3.363l.306-.475q.513-.825,1.093-1.6a7.408,7.408,0,0,1,.921-1.01,11.573,11.573,0,0,0-8.7.336Z" transform="translate(-568.392 -295.874)"/>
              <path id="Path_13" data-name="Path 13" class="cls-21" d="M663.952,300.538l3.33,6.116a11.127,11.127,0,0,1-4.481.74h-.565c-.647-.012-1.3,0-1.94.046a7.387,7.387,0,0,0-1.349.227,11.569,11.569,0,0,1,5.005-7.128Z" transform="translate(-568.392 -295.874)"/>
              <path id="Path_14" data-name="Path 14" class="cls-21" d="M675.975,300.216,676,300.2a11.533,11.533,0,0,1,3.994,3.781l-9.4,5.116-.949-1.745a12.666,12.666,0,0,0,3.677-3.948l.342-.531q.457-.738.976-1.437a4.339,4.339,0,0,1,1.334-1.225Z" transform="translate(-568.392 -295.874)"/>
              <path id="Path_15" data-name="Path 15" class="cls-21" d="M681.757,311.727a11.544,11.544,0,0,0-.935-6.213l-9.394,5.116.852,1.569a11.986,11.986,0,0,1,5.815-.6c.244.021.479.044.707.065.715.069,1.351.129,1.95.132a5.631,5.631,0,0,0,1.005-.073Z" transform="translate(-568.392 -295.874)"/>
              <path id="Path_16" data-name="Path 16" class="cls-21" d="M681.385,313.521a11.563,11.563,0,0,1-4.843,6.5l-3.424-6.289a10.588,10.588,0,0,1,4.823-.4c.21.018.424.04.638.06.733.071,1.48.142,2.166.145.213,0,.427-.005.64-.019Z" transform="translate(-568.392 -295.874)"/>
              <path id="Path_17" data-name="Path 17" class="cls-21" d="M671.588,314.564l3.425,6.293a11.568,11.568,0,0,1-8.31.469,7.1,7.1,0,0,0,.714-.915c.36-.54.692-1.157,1.014-1.757.1-.176.188-.35.282-.519a9.969,9.969,0,0,1,2.875-3.571Z" transform="translate(-568.392 -295.874)"/>
              <path id="Path_18" data-name="Path 18" class="cls-21" d="M664.917,320.585a11.525,11.525,0,0,1-4.413-4.008l9.395-5.115.853,1.566a11.465,11.465,0,0,0-3.565,4.271l-.316.583c-.314.583-.591,1.1-.9,1.563a4.024,4.024,0,0,1-1.054,1.14Z" transform="translate(-568.392 -295.874)"/>
              <path id="Path_19" data-name="Path 19" class="cls-14" d="M638,347.889s-16.021,1.654-21.218,1.176l9.556,15.467c12.8,3.717,21.845-2.831,30.5-12.324,9.282-10.178,9.213-25.022,8.966-34.115a3.446,3.446,0,0,0,1.594-2.031c.362-1.184-1.3-1.594-2.6-2.089s-1.546.821-2.523,2.066c-.783.995.64,2.137,1.449,2.584-.261.583-2.373,4.471-8.728,15.35C647.055,347.573,638,347.889,638,347.889Z" transform="translate(-568.392 -295.874)"/>
              <path id="Path_20" data-name="Path 20" class="cls-10" d="M611.927,348.342c-.061-.653,2.716-10.558,4.112-15.428,1.879.991,5.617,3.634,5.536,6.279s1.058,9.79,1.638,13.033c-.829,2.138-9.676.086-10.551-.45S612,349.159,611.927,348.342Z" transform="translate(-568.392 -295.875)"/>
              <path id="Path_21" data-name="Path 21" class="cls-11" d="M621.984,340.583c5.708.584,4.956-14.961,3.956-15.568a7.72,7.72,0,0,0-3.677-1.522c-1.686-.094-3.7,1.175-4.116,1.321-.729.256-2.135,4.016-2.746,5.864l.485,2.03C616.787,335.714,616.275,340,621.984,340.583Z" transform="translate(-568.392 -295.875)"/>
              <path id="Path_22" data-name="Path 22" class="cls-12" d="M615.807,323.87c-1.5,1.624-.268,7.374.532,10.046-.13-2.117-.212-6.2.5-5.611s.826,2.945.793,4.047c.533-1.63,1.8-4.95,2.6-5.19,1-.3,4.123.024,4.94-.053a9.222,9.222,0,0,0,4.984-3.971,4.084,4.084,0,0,0-.646-4.679c.013.137-.225.681-1.276,1.769s-2.034,1.015-2.393.843c.592-.715-.405-2.847-.978-3.823l-2.4,2.9C621.167,321.717,617.676,321.839,615.807,323.87Z" transform="translate(-568.392 -295.874)"/>
              <path id="Path_23" data-name="Path 23" class="cls-13" d="M570.282,506.2l4.626,4.837,18.509-18.889-10.795-11.288Z" transform="translate(-568.392 -295.876)"/>
              <path id="Path_24" data-name="Path 24" class="cls-14" d="M589.092,490.111c-3.121-2.052-5.408-7.89-5.408-7.89s5.143-16.44,5.464-27.314c.295-10.01-3.2-25.443-3.2-25.443,7.313-1.294,22.745-3.038,25.972.336,4.033,4.217,1.964,18.936-1.043,30.447-3.585,13.728-12.113,24.252-18.062,31.525A19.851,19.851,0,0,1,589.092,490.111Z" transform="translate(-568.392 -295.876)"/>
              <path id="Path_25" data-name="Path 25" class="cls-15" d="M572.3,513.531l-2.993-1.887a8,8,0,0,1-.89-3.662,7.9,7.9,0,0,1,1.273-2.642c.324.007,1.2.463,2.136,2.232s4.292,3.495,4.292,3.495-.289-3.381,1.165-3.252c1.817.162,7.317,9.389,7.317,9.389s-2.079,2.862-4.082,3.43C576.441,521.791,572.3,513.531,572.3,513.531Z" transform="translate(-568.392 -295.877)"/>
              <path id="Path_26" data-name="Path 26" class="cls-13" d="M595.708,498.222c3.83,10.674,11.606,32.235,12.071,33.088l6.12,1.09-.029-35.083Z" transform="translate(-568.392 -295.877)"/>
              <path id="Path_27" data-name="Path 27" class="cls-17" d="M627.117,348.688l-21.358-.986,14.892,22.382,6.993-2.492C626.09,365.38,627.917,353.109,627.117,348.688Z" transform="translate(-568.392 -295.875)"/>
              <path id="Path_28" data-name="Path 28" class="cls-15" d="M627.826,531.836s-9.474-3.272-13.025-4.379a6.111,6.111,0,0,0-2.944-.332c-1.341.177-.308,2.057.375,2.974,0,0-2.134.834-3.3.278a5.265,5.265,0,0,1-1.635-1.735s-1.436,2.44-.818,4.591c.718,2.5,4.9,3.413,4.9,3.413l4.088-1.12s4.982,2.046,8.261,1.721c2.443-.242,5.714.442,5.959-2C629.834,533.738,627.826,531.836,627.826,531.836Z" transform="translate(-568.392 -295.877)"/>
              <path id="Path_29" data-name="Path 29" class="cls-17" d="M603.762,364.061c1.9-3.279,2.4-5.378,2.415-6.018l-.945-.345c-.024-.1-.072-.044-.077.923s-6.8,12.67-10.194,18.4l1.489-.53C598.094,373.714,601.857,367.339,603.762,364.061Z" transform="translate(-568.392 -295.875)"/>
              <path id="Path_30" data-name="Path 30" class="cls-22" d="M609.749,441.524c2.589-.525,7.986-21.206,10.361-31.481l-25.026-4.34-8.741,29.632C593.066,437.617,607.161,442.049,609.749,441.524Z" transform="translate(-568.392 -295.876)"/>
              <g id="Group_7" data-name="Group 7" transform="translate(17.163 136.771)">
                <path id="Path_31" data-name="Path 31" class="cls-11" d="M610.55,433.349c2.656,2.645,3.422,44.613,3.473,65.267l-18.413-.064c-1.053-3.71-5.495-32.937-6.712-36.7-.974-3.007-2.634-16.346-3.343-22.639C592.78,436.16,607.894,430.705,610.55,433.349Z" transform="translate(-585.555 -432.647)"/>
              </g>
              <path id="Path_32" data-name="Path 32" class="cls-9" d="M581.659,410.375c-2.086-6.074-1.615-9.335-1.119-10.206l29.566,8.722,2.233,26.514-30.19,6.176C582.855,433.71,583.746,416.449,581.659,410.375Z" transform="translate(-568.392 -295.875)"/>
              <path id="Path_33" data-name="Path 33" class="cls-16" d="M610.816,344.875c-2.88-.993-11.716.776-13.452,4.5L593.8,367.067l-1.477,5.006c-5.747,12.442-13.042,28.107-13.386,30.3s11.056,6.483,16.8,8.356c14.965,8.173,21.522,2.591,23.591.7s2.473-17.344,2.484-23.783c.009-5.151,4.245-16.524,6.362-21.566.537-9.5-2.541-10.592-4.314-12.9S614.416,346.116,610.816,344.875Z" transform="translate(-568.392 -295.875)"/>
              <path id="Path_34" data-name="Path 34" class="cls-11" d="M630.671,349.366c-12.405-2.083-16.5.705-18.276.944l-1.211,16.909c8.382,5.565,36.608-5.642,40.364-6.259s7.206-8.292,9.5-15.289c1.839-5.6,2.648-19.822,2.823-26.234,1.115-2.335,3.162-7.171,2.427-7.832-.919-.825-4.665-1.4-7.085-.408s1.018,3.576,1.262,6.52c.2,2.355-8.892,23.76-13.46,34.168C645.705,351.738,640.6,351.031,630.671,349.366Z" transform="translate(-568.392 -295.874)"/>
              <path id="Path_35" data-name="Path 35" class="cls-9" d="M623.977,346.967s-21.678-8.422-25.642.778c-2.505,5.817-.212,10.6,3.272,15.885,4.456,6.763,18.251,9.847,18.251,9.847l7.923-3.662C625.555,367.279,625.673,352.248,623.977,346.967Z" transform="translate(-568.392 -295.875)"/>
            </g>
            <g id="Group_13" data-name="Group 13" transform="translate(130.191 55.48)">
              <path id="Path_36" data-name="Path 36" class="cls-13" d="M389.914,562.8v7.687l-30.355-.985V551.568Z" transform="translate(-193 -372.002)"/>
              <g id="Group_12" data-name="Group 12">
                <path id="Path_37" data-name="Path 37" class="cls-11" d="M361.53,564.379c.962-4.181-1.774-10.841-1.774-10.841s-17.319-9.562-26.216-18.331C325.349,527.135,316,511.554,316,511.554c-7.1,4.731-21.288,15.533-21.288,20.894,0,6.7,13.4,17.275,25.033,24.442,13.873,8.547,29.3,10.513,40.014,11.827A22.759,22.759,0,0,0,361.53,564.379Z" transform="translate(-193 -372.002)"/>
                <path id="Path_38" data-name="Path 38" class="cls-22" d="M286.036,505.444c-2.68-1.419-1.9-25.953-1.182-38.042l28.975,3.351v35.48C305.682,506.561,288.717,506.863,286.036,505.444Z" transform="translate(-193 -372.001)"/>
                <path id="Path_39" data-name="Path 39" class="cls-11" d="M349.586,428.84c-14.445.194-18.6-3.687-20.579-4.269l1.583-19.4c10.487-4.85,40.564,12.807,44.72,14.165s6.727,10.672,8.112,19.015c1.109,6.675-.461,22.961-1.385,30.27.858,2.846,2.335,8.692,1.385,9.313-1.187.777-5.54.777-8.112-.776s1.78-3.88,2.572-7.179c.633-2.639-5.936-28.523-9.3-41.135C367.065,428.775,361.142,428.684,349.586,428.84Z" transform="translate(-193 -372)"/>
                <path id="Path_40" data-name="Path 40" class="cls-11" d="M264.551,438.427s15.441-10.184,19.711-14.389l2.76,20.7c-8.673,12.615-21.473,13.375-36.071,11.236-15.653-2.294-26.389-15.536-32.783-23.8a3.959,3.959,0,0,1-2.894-.646c-1.183-.789,0-2.366.788-3.745s1.971-.395,3.745,0c1.419.315.986,2.365.591,3.351.657.328,5.362,2.247,18.923,7.293C256.273,444.734,264.551,438.427,264.551,438.427Z" transform="translate(-193 -372.001)"/>
                <path id="Path_41" data-name="Path 41" class="cls-11" d="M311.464,400.581c0-.631-3.548-9.856-5.322-14.389-1.708,1.117-5.046,3.981-4.731,6.5s-.131,9.462-.394,12.616c.985,1.971,9.264-.789,10.053-1.38S311.464,401.369,311.464,400.581Z" transform="translate(-193 -372)"/>
                <path id="Path_42" data-name="Path 42" class="cls-12" d="M305.55,377.519c1.577,1.419.92,7.03.4,9.659-.066-2.037-.355-5.953-.986-5.322s-.526,2.891-.394,3.942c-.657-1.511-2.168-4.573-2.957-4.731-.985-.2-3.942.394-4.73.394a8.854,8.854,0,0,1-5.125-3.351,3.919,3.919,0,0,1,.2-4.533c0,.131.276.631,1.38,1.577a2.143,2.143,0,0,0,2.365.591c-.631-.631.131-2.759.591-3.745l2.563,2.562C300.228,375.942,303.579,375.745,305.55,377.519Z" transform="translate(-193 -372)"/>
                <path id="Path_43" data-name="Path 43" class="cls-23" d="M301.017,394.667c-5.409,1.073-6.087-13.865-5.186-14.536a7.418,7.418,0,0,1,3.381-1.787c1.6-.242,3.643.791,4.056.894.721.178,2.4,3.649,3.155,5.362l-.281,1.986C305.55,389.543,306.426,393.595,301.017,394.667Z" transform="translate(-193 -372)"/>
                <path id="Path_44" data-name="Path 44" class="cls-15" d="M394.053,570.491l.986-3.942s-.831-2.712-2.168-3.745a9.066,9.066,0,0,0-3.154-1.183c-.263.263-.631,1.34,0,3.548s-.789,6.307-.789,6.307-2.444-3.035-3.548-1.774c-1.379,1.577,1.38,13.6,1.38,13.6s4,.725,6.111-.394C397.176,580.629,394.053,570.491,394.053,570.491Z" transform="translate(-193 -372.002)"/>
                <g id="Group_8" data-name="Group 8" transform="translate(69.777 123.926)">
                  <path id="Path_45" data-name="Path 45" class="cls-11" d="M287.81,496.18c-3.784,2.05-18.265,48.028-25.033,70.762l20.3,5.913c2.365-3.745,16.754-34.494,19.317-38.24,2.05-3,8.213-17.148,11.038-23.85C306.47,505.05,291.6,494.13,287.81,496.18Z" transform="translate(-262.777 -495.927)"/>
                </g>
                <path id="Path_46" data-name="Path 46" class="cls-13" d="M283.08,572.462c-7.688,10.512-23.259,31.735-24.048,32.523l-7.1-.788,11.433-38.634Z" transform="translate(-193 -372.002)"/>
                <path id="Path_47" data-name="Path 47" class="cls-9" d="M325.656,484.353c4.257-5.992,4.8-9.724,4.533-10.841H294.906L283.868,501.9l31.144,16.558C316.786,509.584,321.4,490.346,325.656,484.353Z" transform="translate(-193 -372.001)"/>
                <ellipse id="Ellipse_2" data-name="Ellipse 2" class="cls-24" cx="19.182" cy="18.382" rx="19.182" ry="18.382" transform="translate(0 204.601)"/>
                <path id="Path_48" data-name="Path 48" class="cls-25" d="M212.908,575.813c-10.977,0-19.908,8.665-19.908,19.317s8.931,19.317,19.908,19.317,19.908-8.666,19.908-19.317S223.886,575.813,212.908,575.813Zm13.461,27.5h-4.476l-1.617-2.694L221.712,595l2.853-1.174,4.082,3.41A15.015,15.015,0,0,1,226.369,603.31Zm-25.118-9.481,2.852,1.177,1.435,5.613-1.616,2.693h-4.475a15.026,15.026,0,0,1-2.278-6.068Zm23.84-8.587-1.763,4.86-2.978,1.224-5.432-4.419v-3.25l4.2-2.714a15.934,15.934,0,0,1,5.975,4.3Zm-18.391-4.3,4.2,2.714v3.25l-5.431,4.422-2.979-1.224-1.762-4.86A15.958,15.958,0,0,1,206.7,580.939Zm2.531,29.189-1.924-4.7,1.532-2.555h8.135l1.537,2.557-1.914,4.7a16.376,16.376,0,0,1-7.37,0Z" transform="translate(-193 -372.003)"/>
                <path id="Path_49" data-name="Path 49" class="cls-9" d="M280.123,425.417l12.221-16.163.788,32.918-6.5,2.365C286.628,441.225,282.291,430.411,280.123,425.417Z" transform="translate(-193 -372)"/>
                <path id="Path_50" data-name="Path 50" class="cls-16" d="M313.829,400.975c3.312-.158,15.309,1.643,20.894,2.563l-3.745,21.879-6.9-2.957c2.168,15.572,6.426,47.345,6.11,49.868s-13.535,3.548-20.1,3.746c-18.134,4.139-23.259-4.14-24.836-6.9s2.76-19.909,4.731-27c1.577-5.676.657-19.579,0-25.821,2.365-10.644,5.913-10.841,8.475-12.812,2.538-1.952,11.066-2.358,15.252-2.557Z" transform="translate(-193 -372)"/>
                <path id="Path_51" data-name="Path 51" class="cls-26" d="M326.247,409.056c.316-3.626,2.234-5.584,3.154-6.11l2.76.2c.2-.066.236,0-1.183.789s-2.563,13.732-2.957,20.1l-2.759-1.183C325.459,419.766,325.932,412.683,326.247,409.056Z" transform="translate(-193 -372)"/>
                <path id="Path_52" data-name="Path 52" class="cls-15" d="M236.78,599.05s11.5-.525,15.769-.591a7.034,7.034,0,0,1,3.351.591c1.419.631-.328,2.366-1.38,3.154,0,0,2.08,1.613,3.548,1.38a6.065,6.065,0,0,0,2.366-1.38s.788,3.154-.592,5.322c-1.6,2.517-6.5,2.168-6.5,2.168l-4.14-2.562s-6.152.635-9.658-.789c-2.612-1.06-6.438-1.369-5.914-4.139C233.95,600.493,236.78,599.05,236.78,599.05Z" transform="translate(-193 -372.003)"/>
              </g>
            </g>
          </g>
        </g>
        <g id="Group_606" data-name="Group 606" transform="translate(41.563 11.25)">
          <text id="Let_s_Fan-starty_sport_your_Journey" data-name="Let&apos;s Fan-starty sport your Journey" class="cls-27" transform="translate(632.437 3897)"><tspan x="0" y="0">Let&apos;s Fan-starty sport your Journey</tspan></text>
          <g id="Boomer11_White" data-name="Boomer11 White" transform="translate(1036.437 3863.75)">
            <path id="Boomer_logo" data-name="Boomer logo" class="cls-25" d="M255.493,289.581l-19.455-8.3-1.983-.847-.668.5c-.038.022-.075.045-.111.07L205,302.42l-4.97,3.6,8.4,3.64.959.434,18.684-14.081-3.718-1.587,5.185-3.822,3.61,1.54.407.173,3.357,1.433-.014.007s2.321.989-.037,3.239l-20.774,16.1,9.09,3.88,11.169-8.645-3.467-1.48,5.185-3.822,3.307,1.412.452.193,3.276,1.4c.048.02,2.472,1.088-.327,3.5l-13.164,10.189,7.2,3.073a1.76,1.76,0,0,0,1.7-.18l13.875-11.535a4.657,4.657,0,0,0,1.55-2.182,3.984,3.984,0,0,0-1.913-4.932l-4.574-1.953,6.653-4.676h0a5.331,5.331,0,0,0,1.728-2.557A4.331,4.331,0,0,0,255.493,289.581Z" transform="translate(-200.03 -280.43)"/>
            <g id="Group_605" data-name="Group 605" transform="translate(70.283 8)">
              <path id="Path_1054" data-name="Path 1054" class="cls-25" d="M1695.831,523.917a8.482,8.482,0,0,0-4.345-1.375,25.473,25.473,0,0,0-3.4-.038q-6.85.247-9.534,5.824a11.128,11.128,0,0,0-.051,9.049,7.264,7.264,0,0,0,2.349,2.941,9.593,9.593,0,0,0,4.332,1.461,22.205,22.205,0,0,0,3.267.057q7.056-.285,9.719-5.881a11.123,11.123,0,0,0,.051-9.049A7.715,7.715,0,0,0,1695.831,523.917Zm-2.845,8.7a4.6,4.6,0,0,1-1.689,2.713q-1.293,1.044-4.561.968-4.006-.323-3-4.629a4.689,4.689,0,0,1,1.689-2.713,7.034,7.034,0,0,1,4.561-.968q2.176.19,2.806,1.328A4.906,4.906,0,0,1,1692.986,532.615Z" transform="translate(-1650.837 -516.282)"/>
              <path id="Path_1055" data-name="Path 1055" class="cls-25" d="M2083,526.914a7.711,7.711,0,0,0-2.391-2.988,8.482,8.482,0,0,0-4.345-1.375,25.493,25.493,0,0,0-3.4-.038q-6.85.247-9.534,5.824a11.128,11.128,0,0,0-.051,9.049,7.264,7.264,0,0,0,2.349,2.941,9.594,9.594,0,0,0,4.332,1.461,22.205,22.205,0,0,0,3.267.057q7.056-.285,9.719-5.88A11.125,11.125,0,0,0,2083,526.914Zm-5.235,5.71a4.6,4.6,0,0,1-1.689,2.713q-1.293,1.044-4.561.968-4.006-.323-3-4.629a4.691,4.691,0,0,1,1.689-2.713,7.034,7.034,0,0,1,4.561-.968q2.176.19,2.805,1.328A4.909,4.909,0,0,1,2077.767,532.624Z" transform="translate(-2012.435 -516.291)"/>
              <path id="Path_1056" data-name="Path 1056" class="cls-25" d="M3779.93,489.355h6.223l4.231-22.775h-8.308l-1.313,5.981h2.178Z" transform="translate(-3626.54 -463.765)"/>
              <path id="Path_1057" data-name="Path 1057" class="cls-25" d="M3593.69,489.355h6.224l4.231-22.775h-8.308l-1.314,5.981h2.178Z" transform="translate(-3451.521 -463.765)"/>
              <path id="Path_1058" data-name="Path 1058" class="cls-25" d="M2460.836,526.353a5.228,5.228,0,0,0-4.216-1.973h-2.144l-.018.019h-2.144l-.614,3.7q-1.569-3.718-5.211-3.718h-4.268v.019h-5.653l-3.341,19.274h6.241l2.4-13.981h2.693c.011,0,.02,0,.03,0l1.294.014-.214,1.21v.005l-2.3,12.748h6.222l2.317-12.748a5.931,5.931,0,0,0,.084-1.233h2.713c.011,0,.02,0,.031,0l1.29.014-.21,1.189c0,.009,0,.017,0,.027l-2.3,12.748h6.222l2.316-12.748A5.586,5.586,0,0,0,2460.836,526.353Z" transform="translate(-2360.973 -518.083)"/>
              <path id="Path_1059" data-name="Path 1059" class="cls-25" d="M3293.052,524.39a6.247,6.247,0,0,0-5.7,5.331l-2.383,13.962h6.146l2.151-12.387c0-.014.007-.026.01-.04l.242-1.364h4.639l1.02-5.5Z" transform="translate(-3161.399 -518.092)"/>
              <path id="Path_1060" data-name="Path 1060" class="cls-25" d="M1259.614,421.842a5.754,5.754,0,0,0-4.464-1.992h-17.017l-1.909,11.687-.651,3.8q-.688,4.012-1.723,10.1h19.559q3.946,0,5.168-4.23.075-.285.2-1.005t.252-1.413q.123-.692.147-.882l0-.038a5.263,5.263,0,0,0-1.218-4.135,1.739,1.739,0,0,0-.275-.275q-.192-.161-.372-.3a.6.6,0,0,0-.237-.142,6.092,6.092,0,0,0,1.6-.834,4.79,4.79,0,0,0,1.523-1.688,4,4,0,0,0,.323-.948q.155-.645.276-1.347t.19-1.224q.068-.521.065-.56A5.364,5.364,0,0,0,1259.614,421.842Zm-6.874,15.935q-.013.095-.038.266c-.017.114-.04.237-.069.37s-.049.246-.062.342a.47.47,0,0,1-.036.161.549.549,0,0,1-.079.218,1.374,1.374,0,0,1-.216.3.424.424,0,0,1-.322.142h-10.794q.023-.209.132-.825t.229-1.337q.12-.72.312-1.783h9.011a1.867,1.867,0,0,1,1.487.645A1.771,1.771,0,0,1,1252.74,437.777Zm1.884-10.785-.12.579c-.043.2-.1.455-.165.759a1.517,1.517,0,0,1-.578.968,1.771,1.771,0,0,1-1.113.36h-9.865l.527-3.32c.005-.02.013-.037.019-.057l.1-.569h10.465a.775.775,0,0,1,.588.266.783.783,0,0,1,.215.626C1254.684,426.679,1254.661,426.809,1254.624,426.992Z" transform="translate(-1233.85 -419.85)"/>
              <path id="Path_1061" data-name="Path 1061" class="cls-25" d="M2946.913,525.02h-5.861q-6.838.417-9.475,6.128-1.908,5.008-.059,8.935a7.175,7.175,0,0,0,2.336,2.883,8.137,8.137,0,0,0,4.25,1.233l11.426.076.944-5.5h-10.908a2.824,2.824,0,0,1-2.8-1.589h2.63c.022,0,.042.011.064.014h8.026c.207-1.2.673-3.911.907-5.311h-10.453c.11-.11.225-.219.349-.322a5.435,5.435,0,0,1,3.591-1.271h10.054l.936-5.273Z" transform="translate(-2828.386 -518.684)"/>
            </g>
          </g>
        </g>
      </g>
    </g>
  </g>
</svg>
