<svg xmlns="http://www.w3.org/2000/svg" xmlns:xlink="http://www.w3.org/1999/xlink" width="100" height="100" viewBox="0 0 100 100">
  <defs>
    <linearGradient id="linear-gradient" y1="0.5" x2="1" y2="0.5" gradientUnits="objectBoundingBox">
      <stop offset="0" stop-color="#253789"/>
      <stop offset="0.099" stop-color="#2d378a"/>
      <stop offset="0.224" stop-color="#3e378a"/>
      <stop offset="0.363" stop-color="#56378a"/>
      <stop offset="0.512" stop-color="#74368a"/>
      <stop offset="0.669" stop-color="#973389"/>
      <stop offset="0.834" stop-color="#be2d87"/>
      <stop offset="1" stop-color="#e52085"/>
    </linearGradient>
  </defs>
  <g id="splash_logo" data-name="splash logo" transform="translate(-1775.53 4296.18)">
    <path id="Path_120753" data-name="Path 120753" d="M773.969-4196.18H695.09a10.559,10.559,0,0,1-10.56-10.56v-78.881a10.559,10.559,0,0,1,10.56-10.56H773.97a10.559,10.559,0,0,1,10.56,10.56v78.881A10.561,10.561,0,0,1,773.969-4196.18Z" transform="translate(1091)" fill="url(#linear-gradient)"/>
    <path id="Path_120754" data-name="Path 120754" d="M783.394-4146.288,752.9-4159.3l-3.109-1.327-1.047.777c-.059.035-.117.071-.174.111l-44.32,33.579-7.79,5.64,13.166,5.706,1.5.679,29.285-22.072-5.827-2.488,8.126-5.99,5.658,2.416.637.271,5.261,2.246-.022.01s3.637,1.549-.059,5.077l-32.562,25.23,14.248,6.081,17.507-13.551-5.433-2.319,8.126-5.99,5.182,2.212.709.3,5.133,2.191c.075.032,3.876,1.705-.513,5.485l-20.633,15.97,11.284,4.816a2.763,2.763,0,0,0,2.673-.281l21.748-18.079a7.3,7.3,0,0,0,2.43-3.419c1.179-4.1-1.179-7.113-3-7.731l-7.17-3.06,10.428-7.33h0a8.348,8.348,0,0,0,2.708-4.008C788.727-4143.9,783.395-4146.286,783.394-4146.288Z" transform="translate(1080.608 -118.08)" fill="#fff"/>
  </g>
</svg>
