<svg xmlns="http://www.w3.org/2000/svg" width="140.006" height="164.188" viewBox="0 0 140.006 164.188">
  <g id="Group_91357" data-name="Group 91357" transform="translate(-194.937 -63.979)">
    <path id="Path_141491" data-name="Path 141491" d="M199.773,109.2s.091,74.44,1.784,77.193,62.746,30.736,64.954,30.08l-.378-79.641Z" transform="translate(1.25 11.683)" fill="#e54242"/>
    <path id="Path_141492" data-name="Path 141492" d="M218.164,194.818s5.379,8.089,17.255,8.089V127.792l-17.255-7.868Z" transform="translate(6.001 14.453)" fill="#ffae1f"/>
    <path id="Path_141493" data-name="Path 141493" d="M235.418,140.336V127.792l-17.253-7.868v15.493C223.859,137.283,229.6,138.965,235.418,140.336Z" transform="translate(6.001 14.453)" fill="#ffae1f" opacity="0.2" style="mix-blend-mode: multiply;isolation: isolate"/>
    <path id="Path_141494" data-name="Path 141494" d="M252.016,137.747l1,79.336s59.259-28.737,59.827-31.778,2.127-78.469,2.127-78.469Z" transform="translate(14.747 11.072)" fill="#c13838"/>
    <path id="Path_141495" data-name="Path 141495" d="M274.236,200.8s10.417-1.213,15.62-8.042l1.8-74.457-17.68,5.382Z" transform="translate(20.419 14.033)" fill="#ef9926"/>
    <path id="Path_141496" data-name="Path 141496" d="M291.135,139.755l.517-21.457-17.68,5.382.076,22.241C279.8,144,285.507,141.98,291.135,139.755Z" transform="translate(20.419 14.033)" fill="#ef9926" opacity="0.17" style="mix-blend-mode: multiply;isolation: isolate"/>
    <path id="Path_141497" data-name="Path 141497" d="M195.118,100.88s-.5,16.871.157,19.139,73.777,32.411,75.374,33.029c0,0-.464-20.462-.492-21.264C270.124,130.809,195.118,100.88,195.118,100.88Z" transform="translate(0 9.533)" fill="#ef4b4b"/>
    <path id="Path_141498" data-name="Path 141498" d="M254.714,131.158l.492,21.264s62.544-25.411,63.455-28.469c.456-1.526,1.866-20.707-.477-20.647Z" transform="translate(15.444 10.16)" fill="#d33c3c"/>
    <path id="Path_141499" data-name="Path 141499" d="M270.12,136.417l63.47-27.852S266.954,82.88,263.779,82.953c-3.133.073-68.7,22.558-68.7,22.558Z" transform="translate(0.037 4.902)" fill="#e54242"/>
    <path id="Path_141500" data-name="Path 141500" d="M219.862,93.439l73.415,28.518,1.389,21.544s9.7,1.027,14.618-6.357l-1.243-21.665L234.025,88.713S223.674,88.787,219.862,93.439Z" transform="translate(6.44 6.39)" fill="#ffae1f"/>
    <path id="Path_141501" data-name="Path 141501" d="M282.025,89.329s10.4-.133,15.542,5.809L233.52,121.8l-.288,20.789s-14.212-1.555-18.383-7.818l.546-20.436Z" transform="translate(5.145 6.549)" fill="#ffc91f"/>
    <path id="Path_141502" data-name="Path 141502" d="M298.172,71.531c-26.591-28.359-50.749,32.913-44.926,38.858C261.178,118.481,326.3,101.532,298.172,71.531Zm-43.145,37.331c-1.046-1.412,20.666-54.134,37.482-32.028C312.131,102.629,256.663,111.072,255.027,108.862Z" transform="translate(14.838 0.025)" fill="#ffe424"/>
    <path id="Path_141503" data-name="Path 141503" d="M300.954,72.74c-.062.568-.123,1.135-.2,1.7-.673,4.807-2.43,8.718-4.336,12.782a12.666,12.666,0,0,1-2.4,5.188,3.3,3.3,0,0,1-1.093,1.3c-8.634,9.391-29.847,13.326-36.184,13.237a37.768,37.768,0,0,1-4.072.356,2.458,2.458,0,0,0,.5.839C260.792,115.927,321.218,100.575,300.954,72.74Z" transform="translate(14.915 2.263)" fill="#ffbb24" opacity="0.18" style="mix-blend-mode: multiply;isolation: isolate"/>
    <path id="Path_141504" data-name="Path 141504" d="M257.6,105.294c4.051-1.781,4.252-36.809-14.487-28.073C223.289,86.464,252.085,107.72,257.6,105.294ZM244.86,80.96c12.677-7.585,12.961,22.738,12.166,23.229C255.781,104.956,230.069,89.81,244.86,80.96Z" transform="translate(10.671 3.06)" fill="#ffe424"/>
    <path id="Path_141505" data-name="Path 141505" d="M241.019,77.838c-.082.292-.164.585-.237.881a23.087,23.087,0,0,0-.39,7.169,6.741,6.741,0,0,0,.157,3.035,1.736,1.736,0,0,0,.282.859c2.4,6.346,12.1,12.485,15.242,13.7a19.857,19.857,0,0,0,1.94.982,1.293,1.293,0,0,1-.414.315C252.3,107.106,225.508,87.569,241.019,77.838Z" transform="translate(10.672 3.581)" fill="#ffbb24" opacity="0.18" style="mix-blend-mode: multiply;isolation: isolate"/>
    <path id="Path_141506" data-name="Path 141506" d="M264.053,110.29c5.824-5.943-18.334-67.216-44.926-38.857C191,101.435,256.123,118.384,264.053,110.29ZM224.79,76.736c16.817-22.107,38.528,30.617,37.483,32.029C260.638,110.973,205.169,102.531,224.79,76.736Z" transform="translate(4.44 0)" fill="#ffe424"/>
    <path id="Path_141507" data-name="Path 141507" d="M216.266,72.643c.062.568.123,1.135.2,1.7.673,4.807,2.43,8.718,4.336,12.782a12.682,12.682,0,0,0,2.4,5.188,3.313,3.313,0,0,0,1.094,1.3c8.634,9.391,29.847,13.326,36.184,13.237a37.762,37.762,0,0,0,4.073.356,2.466,2.466,0,0,1-.5.838C256.428,115.83,196,100.478,216.266,72.643Z" transform="translate(4.443 2.238)" fill="#ffbb24" opacity="0.18" style="mix-blend-mode: multiply;isolation: isolate"/>
    <path id="Path_141508" data-name="Path 141508" d="M269.663,87.389c-11.381-9.381-17.5,14.846-15.018,16.8C258.02,106.849,281.7,97.312,269.663,87.389Zm-14.423,16.14c-.462-.481,5.15-21.372,12.551-13.87C276.424,98.413,255.963,104.279,255.239,103.528Z" transform="translate(15.285 5.492)" fill="#ffe424"/>
    <path id="Path_141509" data-name="Path 141509" d="M270.841,87.868c.005.216.009.433.006.651a16.442,16.442,0,0,1-1.012,5.02,4.82,4.82,0,0,1-.649,2.069,1.256,1.256,0,0,1-.349.544c-2.794,3.952-10.584,6.462-12.972,6.736a14.276,14.276,0,0,1-1.515.331.917.917,0,0,0,.229.292C257.824,106.066,279.815,97.358,270.841,87.868Z" transform="translate(15.35 6.172)" fill="#ffbb24" opacity="0.18" style="mix-blend-mode: multiply;isolation: isolate"/>
    <path id="Path_141510" data-name="Path 141510" d="M224.575,112.525A86.412,86.412,0,0,1,239.267,107c2.338-.647,1.345-4.29-1-3.64a91.894,91.894,0,0,0-15.592,5.9c-2.186,1.06-.273,4.316,1.905,3.259Z" transform="translate(6.916 10.155)" fill="#ffe424" opacity="0.48"/>
    <path id="Path_141511" data-name="Path 141511" d="M218.419,114.616q-.3,4.019-.594,8.037c-.179,2.422,3.6,2.411,3.775,0q.3-4.019.594-8.037c.179-2.424-3.6-2.412-3.775,0Z" transform="translate(5.912 12.614)" fill="#ffe424" opacity="0.48"/>
    <path id="Path_141512" data-name="Path 141512" d="M269.023,108.2,286,113.886c2.308.774,3.3-2.872,1-3.64l-16.979-5.689c-2.309-.773-3.3,2.872-1,3.64Z" transform="translate(18.803 10.456)" fill="#ffc91f" opacity="0.45"/>
    <path id="Path_141513" data-name="Path 141513" d="M285.025,114.749q.091,4.015-.142,8.023c-.14,2.426,3.635,2.419,3.775,0q.234-4.011.142-8.023c-.055-2.425-3.83-2.434-3.775,0Z" transform="translate(23.237 12.646)" fill="#ffc91f" opacity="0.45"/>
    <path id="Path_141514" data-name="Path 141514" d="M220.894,163.644l.087,9.516c.023,2.429,3.8,2.434,3.775,0q-.043-4.758-.087-9.516c-.023-2.427-3.8-2.434-3.775,0Z" transform="translate(6.706 25.278)" fill="#ffc91f" opacity="0.45"/>
    <path id="Path_141515" data-name="Path 141515" d="M220.907,146.116q.072,7.786.142,15.571c.023,2.427,3.8,2.434,3.775,0q-.072-7.786-.142-15.571c-.023-2.429-3.8-2.434-3.775,0Z" transform="translate(6.71 20.749)" fill="#ffc91f" opacity="0.45"/>
    <path id="Path_141516" data-name="Path 141516" d="M282.45,140.7q-.272,11.221-.205,22.444c.014,2.429,3.789,2.434,3.775,0q-.068-11.223.205-22.444c.059-2.431-3.716-2.43-3.775,0Z" transform="translate(22.553 19.349)" fill="#ffae1f" opacity="0.51"/>
    <path id="Path_141517" data-name="Path 141517" d="M282.349,164.193a47.241,47.241,0,0,0,.225,9.862c.3,2.377,4.083,2.407,3.775,0a47.239,47.239,0,0,1-.225-9.862c.2-2.421-3.579-2.408-3.775,0Z" transform="translate(22.543 25.422)" fill="#ffae1f" opacity="0.51"/>
    <path id="Path_141518" data-name="Path 141518" d="M206.255,104.364q7.386-2.231,14.626-4.889c2.261-.831,1.284-4.481-1-3.64q-7.241,2.66-14.625,4.889c-2.32.7-1.331,4.345,1,3.64Z" transform="translate(2.324 8.198)" fill="#ef4b4b"/>
    <path id="Path_141519" data-name="Path 141519" d="M202.446,126.246q-.427,13.452-.062,26.9c.065,2.424,3.84,2.434,3.775,0q-.366-13.454.062-26.9c.077-2.431-3.7-2.427-3.775,0Z" transform="translate(1.881 15.616)" fill="#ef4b4b"/>
    <path id="Path_141520" data-name="Path 141520" d="M202.571,152.622q-.142,4.562-.052,9.126c.048,2.426,3.824,2.434,3.775,0q-.091-4.564.052-9.126c.076-2.431-3.7-2.427-3.775,0Z" transform="translate(1.95 22.43)" fill="#ef4b4b"/>
  </g>
</svg>
