<svg xmlns="http://www.w3.org/2000/svg" width="130.021" height="130.02" viewBox="0 0 130.021 130.02">
  <g id="Wall" transform="translate(-5.228 -5.051)">
    <rect id="Rectangle_19124" data-name="Rectangle 19124" width="125.122" height="103.362" transform="translate(7.677 26.267)" fill="#241949"/>
    <g id="Group_62734" data-name="Group 62734" transform="translate(5.228 5.051)">
      <path id="Path_184540" data-name="Path 184540" d="M126.927,5.051H13.549a8.346,8.346,0,0,0-8.321,8.321V126.749a8.346,8.346,0,0,0,8.321,8.321H126.927a8.346,8.346,0,0,0,8.321-8.321V13.372A8.346,8.346,0,0,0,126.927,5.051ZM28.013,14.88h97.818a2.376,2.376,0,1,1,0,4.753H28.013a2.376,2.376,0,0,1,0-4.753Zm-9.928-1.719a4.1,4.1,0,1,1-4.1,4.1A4.1,4.1,0,0,1,18.085,13.161ZM126.927,127.847H13.549a1.126,1.126,0,0,1-1.1-1.1V28.275H128.024v98.473A1.126,1.126,0,0,1,126.927,127.847Z" transform="translate(-5.228 -5.051)" fill="#fdc00f"/>
    </g>
    <g id="Group_62735" data-name="Group 62735" transform="translate(36.779 32.533)">
      <path id="Path_184541" data-name="Path 184541" d="M33.409,40.518a6.339,6.339,0,1,0-6.341-6.339,6.338,6.338,0,0,0,6.341,6.339" transform="translate(-27.068 -27.84)" fill="#30b88e"/>
    </g>
    <g id="Group_62736" data-name="Group 62736" transform="translate(27.717 47.228)">
      <path id="Path_184542" data-name="Path 184542" d="M51.6,49.883V43.74c0-4.584-3.732-5.728-8.288-5.728H29.083c-4.556,0-8.288,1.144-8.288,5.728v6.143Z" transform="translate(-20.795 -38.012)" fill="#56bf9d"/>
    </g>
    <g id="Group_62737" data-name="Group 62737" transform="translate(70.041 43.822)">
      <line id="Line_1145" data-name="Line 1145" x2="41.274" transform="translate(1.445 1.445)"/>
      <path id="Path_184543" data-name="Path 184543" d="M92.81,38.543H51.537a1.445,1.445,0,1,1,0-2.889H92.81a1.445,1.445,0,0,1,0,2.889Z" transform="translate(-50.092 -35.654)" fill="#f5500a"/>
    </g>
    <g id="Group_62738" data-name="Group 62738" transform="translate(70.041 52.51)">
      <line id="Line_1146" data-name="Line 1146" x2="41.274" transform="translate(1.445 1.445)"/>
      <path id="Path_184544" data-name="Path 184544" d="M92.81,44.557H51.537a1.445,1.445,0,1,1,0-2.889H92.81a1.445,1.445,0,0,1,0,2.889Z" transform="translate(-50.092 -41.668)" fill="#fff"/>
    </g>
    <g id="Group_62739" data-name="Group 62739" transform="translate(36.779 65.008)">
      <path id="Path_184545" data-name="Path 184545" d="M33.409,63a6.341,6.341,0,1,0-6.341-6.341A6.339,6.339,0,0,0,33.409,63" transform="translate(-27.068 -50.319)" fill="#30b88e"/>
    </g>
    <g id="Group_62740" data-name="Group 62740" transform="translate(27.717 79.704)">
      <path id="Path_184546" data-name="Path 184546" d="M51.6,72.363V66.22c0-4.584-3.732-5.728-8.288-5.728H29.083c-4.556,0-8.288,1.144-8.288,5.728v6.143Z" transform="translate(-20.795 -60.492)" fill="#56bf9d"/>
    </g>
    <g id="Group_62741" data-name="Group 62741" transform="translate(70.041 76.297)">
      <line id="Line_1147" data-name="Line 1147" x2="41.274" transform="translate(1.445 1.445)"/>
      <path id="Path_184547" data-name="Path 184547" d="M92.81,61.023H51.537a1.445,1.445,0,1,1,0-2.889H92.81a1.445,1.445,0,0,1,0,2.889Z" transform="translate(-50.092 -58.134)" fill="#f5500a"/>
    </g>
    <g id="Group_62742" data-name="Group 62742" transform="translate(70.041 84.986)">
      <line id="Line_1148" data-name="Line 1148" x2="41.274" transform="translate(1.445 1.445)"/>
      <path id="Path_184548" data-name="Path 184548" d="M92.81,67.037H51.537a1.445,1.445,0,1,1,0-2.889H92.81a1.445,1.445,0,0,1,0,2.889Z" transform="translate(-50.092 -64.148)" fill="#fff"/>
    </g>
    <g id="Group_62743" data-name="Group 62743" transform="translate(36.779 97.482)">
      <path id="Path_184549" data-name="Path 184549" d="M33.409,85.479a6.341,6.341,0,1,0-6.341-6.341,6.339,6.339,0,0,0,6.341,6.341" transform="translate(-27.068 -72.798)" fill="#30b88e"/>
    </g>
    <g id="Group_62744" data-name="Group 62744" transform="translate(27.717 112.178)">
      <path id="Path_184550" data-name="Path 184550" d="M51.6,94.842V88.7c0-4.584-3.732-5.728-8.288-5.728H29.083c-4.556,0-8.288,1.144-8.288,5.728v6.143Z" transform="translate(-20.795 -82.971)" fill="#56bf9d"/>
    </g>
    <g id="Group_62745" data-name="Group 62745" transform="translate(70.041 108.772)">
      <line id="Line_1149" data-name="Line 1149" x2="41.274" transform="translate(1.445 1.445)"/>
      <path id="Path_184551" data-name="Path 184551" d="M92.81,83.5H51.537a1.445,1.445,0,1,1,0-2.889H92.81a1.445,1.445,0,0,1,0,2.889Z" transform="translate(-50.092 -80.613)" fill="#c94919"/>
    </g>
    <g id="Group_62746" data-name="Group 62746" transform="translate(70.041 117.461)">
      <line id="Line_1150" data-name="Line 1150" x2="41.274" transform="translate(1.445 1.445)"/>
      <path id="Path_184552" data-name="Path 184552" d="M92.81,89.517H51.537a1.445,1.445,0,1,1,0-2.889H92.81a1.445,1.445,0,0,1,0,2.889Z" transform="translate(-50.092 -86.628)" fill="#fff"/>
    </g>
  </g>
</svg>
