<svg xmlns="http://www.w3.org/2000/svg" width="150.002" height="172.627" viewBox="0 0 150.002 172.627">
  <g id="daily_bonus_img" data-name="daily bonus img" transform="translate(-100.308 -110.082)">
    <g id="Group_60552" data-name="Group 60552" transform="translate(100.307 110.082)">
      <g id="Group_60551" data-name="Group 60551" transform="translate(0 0)">
        <g id="Group_60443" data-name="Group 60443" transform="translate(116.954 88.776)">
          <path id="Path_141536" data-name="Path 141536" d="M3014.491,1212.478a1.451,1.451,0,0,1,.194-.31h0a1.569,1.569,0,0,1,.191-.192l.286-.291.076.056c1.466-.718,4.494.043,7.554,2.042,3.7,2.417,6.077,5.743,5.392,7.511l.1.077-.412.41c-.019.021-.04.041-.062.06l-.011.012,0,0a1.662,1.662,0,0,1-.357.248h0c-1.446.758-4.506,0-7.6-2.018C3016.07,1217.626,3013.675,1214.219,3014.491,1212.478Z" transform="translate(-3014.331 -1211.036)" fill="#ffa412"/>
          <path id="Path_141537" data-name="Path 141537" d="M3025.122,1211.456c-3.771-2.461-7.489-3.045-8.3-1.3s1.58,5.148,5.351,7.609,7.486,3.046,8.3,1.305S3028.891,1213.917,3025.122,1211.456Z" transform="translate(-3016.219 -1209.149)" fill="#ffb93e"/>
          <g id="Group_60442" data-name="Group 60442" transform="translate(1.31 0.634)">
            <path id="Path_141538" data-name="Path 141538" d="M3026.106,1219.985a14.877,14.877,0,0,1-3.828-3.507c-.911-1.257-1.226-2.358-.886-3.1a1.434,1.434,0,0,1,.969-.773c1.391-.4,3.856.366,6.28,1.952h0a14.885,14.885,0,0,1,3.829,3.508c.911,1.257,1.227,2.358.887,3.1a1.438,1.438,0,0,1-.97.773,3.008,3.008,0,0,1-.83.105A11.089,11.089,0,0,1,3026.106,1219.985Zm-3.668-7.114a1.177,1.177,0,0,0-.8.623c-.292.637.022,1.665.859,2.821a14.552,14.552,0,0,0,3.757,3.438,10.934,10.934,0,0,0,5.307,2.012,2.7,2.7,0,0,0,.745-.094,1.167,1.167,0,0,0,.794-.623c.293-.637-.021-1.666-.858-2.821a14.582,14.582,0,0,0-3.757-3.438,10.939,10.939,0,0,0-5.307-2.012A2.7,2.7,0,0,0,3022.438,1212.87Z" transform="translate(-3021.258 -1212.5)" fill="#ffa412"/>
          </g>
        </g>
        <g id="Group_60445" data-name="Group 60445" transform="translate(139.771 0.74)">
          <path id="Path_141539" data-name="Path 141539" d="M3135.079,746.066a1.033,1.033,0,0,1,.139-.22h0a1.02,1.02,0,0,1,.135-.136l.2-.206.054.039c1.04-.509,3.19.031,5.364,1.45,2.627,1.716,4.314,4.077,3.827,5.333l.074.055-.292.291-.044.043-.008.008,0,0a1.169,1.169,0,0,1-.253.176h0c-1.027.538-3.2,0-5.4-1.433C3136.2,749.721,3134.5,747.3,3135.079,746.066Z" transform="translate(-3134.966 -745.042)" fill="#ffa412"/>
          <path id="Path_141540" data-name="Path 141540" d="M3142.625,745.34c-2.677-1.747-5.315-2.162-5.894-.926s1.121,3.654,3.8,5.4,5.315,2.162,5.894.926S3145.3,747.088,3142.625,745.34Z" transform="translate(-3136.306 -743.702)" fill="#ffb93e"/>
          <g id="Group_60444" data-name="Group 60444" transform="translate(0.93 0.45)">
            <path id="Path_141541" data-name="Path 141541" d="M3143.325,751.395a10.548,10.548,0,0,1-2.719-2.49c-.647-.893-.871-1.674-.63-2.2a1.022,1.022,0,0,1,.688-.549c.988-.284,2.738.26,4.458,1.387h0a10.528,10.528,0,0,1,2.719,2.49c.647.893.87,1.674.629,2.2a1.019,1.019,0,0,1-.688.549,2.113,2.113,0,0,1-.589.075A7.863,7.863,0,0,1,3143.325,751.395Zm-2.6-5.05a.832.832,0,0,0-.564.442c-.208.452.015,1.182.61,2a10.35,10.35,0,0,0,2.666,2.441,7.762,7.762,0,0,0,3.768,1.428,1.921,1.921,0,0,0,.529-.066.833.833,0,0,0,.564-.442c.207-.453-.014-1.183-.61-2a10.331,10.331,0,0,0-2.667-2.441,7.763,7.763,0,0,0-3.768-1.428A1.9,1.9,0,0,0,3140.72,746.345Z" transform="translate(-3139.882 -746.081)" fill="#ffa412"/>
          </g>
        </g>
        <g id="Group_60447" data-name="Group 60447" transform="translate(139.078 70.829)">
          <path id="Path_141542" data-name="Path 141542" d="M3143.1,1116.695a1.067,1.067,0,0,0-.144-.226h0a1.019,1.019,0,0,0-.138-.14l-.209-.212-.056.041c-1.071-.525-3.282.031-5.521,1.492-2.7,1.766-4.44,4.2-3.939,5.489l-.076.056.3.3c.014.016.029.03.044.045l.009.009,0,0a1.259,1.259,0,0,0,.261.181h0c1.057.554,3.292,0,5.554-1.474C3141.943,1120.457,3143.693,1117.967,3143.1,1116.695Z" transform="translate(-3132.683 -1115.641)" fill="#ffa412"/>
          <path id="Path_141543" data-name="Path 141543" d="M3135.33,1115.948c2.755-1.8,5.471-2.225,6.066-.953s-1.155,3.761-3.909,5.56-5.471,2.226-6.067.953S3132.574,1117.746,3135.33,1115.948Z" transform="translate(-3131.303 -1114.262)" fill="#ffb93e"/>
          <g id="Group_60446" data-name="Group 60446" transform="translate(0.635 0.463)">
            <path id="Path_141544" data-name="Path 141544" d="M3136.075,1123.684a2.2,2.2,0,0,1-.606-.076,1.05,1.05,0,0,1-.709-.565c-.249-.542-.018-1.346.648-2.265a10.829,10.829,0,0,1,2.8-2.563h0c1.771-1.16,3.571-1.72,4.589-1.427a1.049,1.049,0,0,1,.708.565c.249.542.02,1.346-.648,2.264a10.857,10.857,0,0,1-2.8,2.563A8.1,8.1,0,0,1,3136.075,1123.684Zm6.12-6.77a7.988,7.988,0,0,0-3.878,1.47,10.639,10.639,0,0,0-2.745,2.512c-.613.845-.841,1.6-.628,2.062a.858.858,0,0,0,.58.455,2,2,0,0,0,.544.068,7.992,7.992,0,0,0,3.879-1.47,10.657,10.657,0,0,0,2.744-2.512c.613-.844.842-1.6.628-2.062a.858.858,0,0,0-.581-.455A1.954,1.954,0,0,0,3142.195,1116.914Z" transform="translate(-3134.663 -1116.711)" fill="#ffa412"/>
          </g>
        </g>
        <g id="Group_60449" data-name="Group 60449" transform="translate(118.211 21.851)">
          <path id="Path_141545" data-name="Path 141545" d="M3021.052,856.795a.634.634,0,0,1,.086-.137h0a.7.7,0,0,1,.085-.085l.128-.129.033.025c.651-.319,2,.019,3.359.908,1.646,1.074,2.7,2.553,2.4,3.339l.046.034-.182.182-.028.027-.005.005h0a.774.774,0,0,1-.159.11h0c-.644.337-2,0-3.379-.9C3021.754,859.083,3020.689,857.569,3021.052,856.795Z" transform="translate(-3020.981 -856.154)" fill="#ffa412"/>
          <path id="Path_141546" data-name="Path 141546" d="M3025.777,856.34c-1.677-1.094-3.329-1.354-3.691-.58s.7,2.288,2.377,3.382,3.328,1.353,3.691.58S3027.452,857.434,3025.777,856.34Z" transform="translate(-3021.819 -855.315)" fill="#ffb93e"/>
          <g id="Group_60448" data-name="Group 60448" transform="translate(0.582 0.282)">
            <path id="Path_141547" data-name="Path 141547" d="M3026.214,860.131a6.619,6.619,0,0,1-1.7-1.559c-.4-.559-.545-1.048-.394-1.377a.635.635,0,0,1,.43-.344,4.037,4.037,0,0,1,2.792.868h0a6.583,6.583,0,0,1,1.7,1.559c.406.559.546,1.048.395,1.377A.639.639,0,0,1,3029,861a1.35,1.35,0,0,1-.369.046A4.92,4.92,0,0,1,3026.214,860.131Zm-1.631-3.163a.522.522,0,0,0-.354.277c-.13.283.009.74.382,1.254a6.5,6.5,0,0,0,1.669,1.529,4.865,4.865,0,0,0,2.359.894,1.2,1.2,0,0,0,.331-.042.521.521,0,0,0,.354-.277c.129-.283-.01-.74-.382-1.254a6.458,6.458,0,0,0-1.67-1.528,4.857,4.857,0,0,0-2.359-.894A1.208,1.208,0,0,0,3024.583,856.969Z" transform="translate(-3024.058 -856.804)" fill="#ffa412"/>
          </g>
        </g>
        <g id="Group_60451" data-name="Group 60451" transform="translate(32.757 39.207)">
          <path id="Path_141548" data-name="Path 141548" d="M2309.14,1134.409a1.234,1.234,0,0,0-.164-.261h0a1.249,1.249,0,0,0-.16-.161l-.241-.244-.062.047c-1.232-.6-3.776.036-6.349,1.716-3.11,2.031-5.107,4.827-4.531,6.313l-.088.064.346.345.051.05.01.01,0,0a1.349,1.349,0,0,0,.3.208h0c1.217.637,3.787,0,6.389-1.7C2307.812,1138.735,2309.825,1135.872,2309.14,1134.409Z" transform="translate(-2297.163 -1133.197)" fill="#ffa412"/>
          <path id="Path_141549" data-name="Path 141549" d="M2300.206,1133.549c3.168-2.069,6.292-2.559,6.977-1.1s-1.327,4.326-4.5,6.395-6.292,2.559-6.977,1.1S2297.036,1135.618,2300.206,1133.549Z" transform="translate(-2295.575 -1131.61)" fill="#ffb93e"/>
          <g id="Group_60450" data-name="Group 60450" transform="translate(0.731 0.533)">
            <path id="Path_141550" data-name="Path 141550" d="M2301.064,1142.446a2.523,2.523,0,0,1-.7-.088,1.209,1.209,0,0,1-.816-.65c-.286-.623-.021-1.548.746-2.6a12.464,12.464,0,0,1,3.217-2.947h0c2.037-1.334,4.108-1.978,5.278-1.641a1.206,1.206,0,0,1,.813.65c.286.623.022,1.548-.745,2.6a12.508,12.508,0,0,1-3.217,2.948A9.314,9.314,0,0,1,2301.064,1142.446Zm7.038-7.786a9.178,9.178,0,0,0-4.459,1.69,12.246,12.246,0,0,0-3.157,2.89c-.7.971-.969,1.836-.723,2.371a.991.991,0,0,0,.669.524,2.268,2.268,0,0,0,.626.078,9.191,9.191,0,0,0,4.461-1.691,12.219,12.219,0,0,0,3.156-2.89c.7-.971.968-1.835.722-2.371a.986.986,0,0,0-.668-.523A2.3,2.3,0,0,0,2308.1,1134.66Z" transform="translate(-2299.44 -1134.427)" fill="#ffa412"/>
          </g>
        </g>
        <g id="Group_60453" data-name="Group 60453" transform="translate(4.18)">
          <path id="Path_141551" data-name="Path 141551" d="M2152.388,925.955a.676.676,0,0,0-.1-.152h0a.679.679,0,0,0-.093-.094l-.14-.142-.037.027c-.717-.351-2.2.021-3.7,1-1.811,1.182-2.973,2.81-2.638,3.676l-.052.038.2.2.03.03.005.006h0a.808.808,0,0,0,.174.121h0c.708.371,2.206,0,3.721-.987C2151.615,928.474,2152.788,926.807,2152.388,925.955Z" transform="translate(-2145.414 -925.249)" fill="#ffa412"/>
          <path id="Path_141552" data-name="Path 141552" d="M2147.185,925.455c1.846-1.2,3.664-1.49,4.063-.638s-.773,2.519-2.619,3.724-3.664,1.49-4.062.638S2145.341,926.66,2147.185,925.455Z" transform="translate(-2144.489 -924.326)" fill="#ffb93e"/>
          <g id="Group_60452" data-name="Group 60452" transform="translate(0.426 0.31)">
            <path id="Path_141553" data-name="Path 141553" d="M2147.686,930.636a1.457,1.457,0,0,1-.406-.052.7.7,0,0,1-.474-.378c-.167-.363-.013-.9.434-1.516a7.264,7.264,0,0,1,1.874-1.716h0a4.446,4.446,0,0,1,3.073-.956.7.7,0,0,1,.474.379c.167.363.012.9-.434,1.516a7.239,7.239,0,0,1-1.874,1.717A5.421,5.421,0,0,1,2147.686,930.636Zm4.1-4.534a5.352,5.352,0,0,0-2.6.984,7.132,7.132,0,0,0-1.837,1.682c-.411.566-.563,1.069-.42,1.381a.57.57,0,0,0,.389.3,1.3,1.3,0,0,0,.364.046,5.351,5.351,0,0,0,2.6-.984,7.14,7.14,0,0,0,1.838-1.683c.41-.565.563-1.069.42-1.381a.573.573,0,0,0-.389-.305A1.341,1.341,0,0,0,2151.784,926.1Z" transform="translate(-2146.74 -925.966)" fill="#ffa412"/>
          </g>
        </g>
        <g id="Group_60455" data-name="Group 60455" transform="translate(41.365 11.324)">
          <path id="Path_141554" data-name="Path 141554" d="M2341.187,986.277a.9.9,0,0,1,.122-.193h0a.908.908,0,0,1,.118-.12l.179-.181.047.035c.916-.449,2.809.027,4.723,1.276,2.313,1.51,3.8,3.589,3.37,4.695l.065.048-.257.256a.511.511,0,0,1-.038.038l-.007.007,0,0a1.064,1.064,0,0,1-.222.155h0c-.905.474-2.817,0-4.752-1.261C2342.175,989.495,2340.677,987.365,2341.187,986.277Z" transform="translate(-2341.087 -985.376)" fill="#ffa412"/>
          <path id="Path_141555" data-name="Path 141555" d="M2347.83,985.637c-2.357-1.538-4.68-1.9-5.19-.815s.988,3.217,3.344,4.756,4.679,1.9,5.189.815S2350.187,987.176,2347.83,985.637Z" transform="translate(-2342.266 -984.195)" fill="#ffb93e"/>
          <g id="Group_60454" data-name="Group 60454" transform="translate(0.819 0.396)">
            <path id="Path_141556" data-name="Path 141556" d="M2348.447,990.969a9.27,9.27,0,0,1-2.394-2.192c-.57-.786-.767-1.474-.554-1.937a.9.9,0,0,1,.606-.483c.869-.251,2.41.229,3.925,1.221h0a9.26,9.26,0,0,1,2.393,2.192c.57.786.767,1.474.555,1.937a.9.9,0,0,1-.607.483,1.881,1.881,0,0,1-.519.065A6.922,6.922,0,0,1,2348.447,990.969Zm-2.294-4.446a.73.73,0,0,0-.5.389c-.183.4.013,1.041.536,1.763a9.12,9.12,0,0,0,2.348,2.149,6.832,6.832,0,0,0,3.317,1.258,1.7,1.7,0,0,0,.466-.058.73.73,0,0,0,.5-.389c.183-.4-.012-1.041-.537-1.763a9.1,9.1,0,0,0-2.348-2.149,6.828,6.828,0,0,0-3.317-1.257A1.685,1.685,0,0,0,2346.153,986.522Z" transform="translate(-2345.416 -986.29)" fill="#ffa412"/>
          </g>
        </g>
        <g id="Group_60547" data-name="Group 60547" transform="translate(103.743 138.056)">
          <path id="Path_141726" data-name="Path 141726" d="M3172.851,1470.286s-2.867,4.036-5.494,4.092-6.625-1.87-6.625-1.87-2.413-5.377-.776-7.481a3.515,3.515,0,0,1,3.358.552,5.249,5.249,0,0,1,.888.851,2.82,2.82,0,0,0,1.38.936c1.875.57,4.1-.771,4.933.524a8.745,8.745,0,0,0,1.449,1.716A6.641,6.641,0,0,0,3172.851,1470.286Z" transform="translate(-3135.483 -1464.822)" fill="#fff"/>
          <path id="Path_141727" data-name="Path 141727" d="M3033.014,1540.353s10.131-24.547,28.366-25.016c0,0,16.833,1.871,17.768,25.016Z" transform="translate(-3033.014 -1505.783)" fill="#fff"/>
          <path id="Path_141728" data-name="Path 141728" d="M3156.421,1505.681s7.31,1.625,9.565.67c0,0,.341-3.056-2.738-2.627a6.458,6.458,0,0,1-4.286-1.13C3157.82,1502.012,3156.118,1504.4,3156.421,1505.681Z" transform="translate(-3133.051 -1495.377)" fill="#d03f30"/>
          <path id="Path_141729" data-name="Path 141729" d="M3182.048,1473.755c-.468.351-1.9-4.942-1.9-4.942a5.125,5.125,0,0,1,.888.851,2.825,2.825,0,0,0,1.379.936C3182.417,1470.753,3182.5,1473.414,3182.048,1473.755Z" transform="translate(-3152.316 -1468.058)" fill="#efefef"/>
          <path id="Path_141730" data-name="Path 141730" d="M3208.763,1482.741a30.031,30.031,0,0,1-3.941,2.086c-.468,0,2.492-3.8,2.492-3.8A8.779,8.779,0,0,0,3208.763,1482.741Z" transform="translate(-3172.285 -1477.961)" fill="#efefef"/>
          <path id="Path_141731" data-name="Path 141731" d="M3085.325,1564.557c-.186-.161,7.169-10.832,9.2-10.91s6.578,2.338,9.875,2.649,6.49-.623,7.114,1.325,2.338,8.855,1.286,9.961S3089.371,1568.013,3085.325,1564.557Z" transform="translate(-3075.428 -1536.844)" fill="#efefef"/>
        </g>
        <g id="Group_60549" data-name="Group 60549" transform="translate(0 105.386)">
          <path id="Path_141738" data-name="Path 141738" d="M2441.169,1594.312s5.575,7.849,10.687,7.958,12.888-3.638,12.888-3.638,4.692-10.459,1.509-14.552a6.834,6.834,0,0,0-6.53,1.073,10.024,10.024,0,0,0-1.728,1.655,5.479,5.479,0,0,1-2.683,1.819c-3.647,1.11-7.976-1.5-9.6,1.019a17.136,17.136,0,0,1-2.819,3.337A12.891,12.891,0,0,1,2441.169,1594.312Z" transform="translate(-2424.116 -1583.685)" fill="#fff"/>
          <path id="Path_141739" data-name="Path 141739" d="M2440.748,1730.6s-19.706-47.747-55.176-48.657c0,0-32.741,3.638-34.56,48.657Z" transform="translate(-2351.012 -1663.357)" fill="#fff"/>
          <path id="Path_141740" data-name="Path 141740" d="M2505.257,1663.158s-14.218,3.161-18.6,1.3c0,0-.663-5.945,5.325-5.111,4.1.571,6.766-1.4,8.337-2.2C2502.537,1656.022,2505.847,1660.671,2505.257,1663.158Z" transform="translate(-2460.98 -1643.116)" fill="#d03f30"/>
          <path id="Path_141741" data-name="Path 141741" d="M2516.573,1601.061c.91.682,3.7-9.613,3.7-9.613a9.95,9.95,0,0,0-1.728,1.656,5.488,5.488,0,0,1-2.683,1.819C2515.855,1595.222,2515.691,1600.4,2516.573,1601.061Z" transform="translate(-2484.669 -1589.979)" fill="#efefef"/>
          <path id="Path_141742" data-name="Path 141742" d="M2450.306,1618.539c.2.118,6.775,4.056,7.666,4.056.91,0-4.848-7.394-4.848-7.394A17.117,17.117,0,0,1,2450.306,1618.539Z" transform="translate(-2431.525 -1609.24)" fill="#efefef"/>
          <path id="Path_141743" data-name="Path 141743" d="M2491.817,1777.677c.364-.311-13.944-21.07-17.887-21.221s-12.8,4.548-19.205,5.154-12.625-1.212-13.838,2.577-4.547,17.224-2.5,19.374S2483.948,1784.4,2491.817,1777.677Z" transform="translate(-2421.333 -1723.774)" fill="#efefef"/>
        </g>
        <g id="man" transform="translate(13.913 4.925)">
          <path id="Path_141744" data-name="Path 141744" d="M2429.011,1251.568s-.449-2.218,4.657-9.044c1.1-1.472,4.46-7.017,4.46-7.017,1.328-.323,5.462,1.875,6.553,2.544.22.135.346.217.346.217s1.769,7.67-1.99,6.8c-.117-.028-.235-.05-.352-.068-3.635-.567-7.145,3.041-8.739,5.331C2432.907,1251.82,2429.7,1251.629,2429.011,1251.568Z" transform="translate(-2417.811 -1095.732)" fill="#233862"/>
          <path id="Path_141745" data-name="Path 141745" d="M2571.483,1172.756s-.45-2.219,4.656-9.045c1.1-1.472,4.46-7.017,4.46-7.017,1.328-.323,5.463,1.875,6.553,2.544.22.136.347.217.347.217s1.769,7.67-1.99,6.8c-.118-.028-.235-.05-.353-.069-3.635-.566-7.144,3.042-8.74,5.332C2575.378,1173.008,2572.174,1172.816,2571.483,1172.756Z" transform="translate(-2536.779 -1032.688)" fill="#233862"/>
          <path id="Path_141768" data-name="Path 141768" d="M2551.477,1274.567s-26.582-12-42.791-16.842c-2.008-.6-3.854-1.087-5.471-1.432l1.7-6.952s1.588-.028,4.166-.025c10.091.029,35.363.593,39.879,5.547C2554.628,1261.083,2551.477,1274.567,2551.477,1274.567Z" transform="translate(-2454.275 -1122.199)" fill="#ffdbc3"/>
          <path id="Path_141746" data-name="Path 141746" d="M2687.352,973.611c-1.045-4.487-12.659-18.478-18.607-15.238s-2.863,20.839,3.338,41.594q.142.475.289.944c-12.5-2.052-27.371-3.536-27.371-3.536l-1.566,8.088c11.261,3.112,33.139,13.927,42.314,18.584,3.508,1.59,7.628,1.59,8.467-1.5C2697.024,1012.218,2687.352,973.611,2687.352,973.611Z" transform="translate(-2591.686 -870.652)" fill="#ff8d08"/>
          <path id="Path_141747" data-name="Path 141747" d="M2551.477,1274.567s-26.582-12-42.791-16.842c-2.008-.6-3.854-1.087-5.471-1.432l1.7-6.952s1.588-.028,4.166-.025c10.091.029,35.363.593,39.879,5.547C2554.628,1261.083,2551.477,1274.567,2551.477,1274.567Z" transform="translate(-2477.988 -1106.956)" fill="#ffdbc3"/>
          <path id="Path_141748" data-name="Path 141748" d="M2836.227,499.849c.873,2.01,1.57,4.646.979,6.036a5.383,5.383,0,0,0-.486,2.716l-1.429.349-1.708.416s-.09-.146-.228-.4-.318-.6-.5-1.013a1.469,1.469,0,0,0-.806-1.1,3.137,3.137,0,0,1-1.631-2.07c-.138-.848-1.009-2.432-.762-2.6.6-.4,1.5,2.059,2.022,2.169a.526.526,0,0,0,.655-.3.112.112,0,0,1,0-.013c.83-2.013-.7-7.095.511-7.377C2833.3,496.56,2835.855,498.993,2836.227,499.849Z" transform="translate(-2742.65 -496.662)" fill="#ffdbc3"/>
          <path id="Path_141749" data-name="Path 141749" d="M2371.429,706.249c1.486,1.611,3.615,3.314,5.125,3.335a5.378,5.378,0,0,1,2.68.654l.9-1.166,1.07-1.393s-.1-.142-.27-.369-1.383-1.244-1.405-2.049a3.137,3.137,0,0,0-1.234-2.329c-.719-.47-1.817-1.906-2.068-1.747-.612.383,1.279,2.2,1.167,2.726a.525.525,0,0,1-.543.475h-.014c-2.177-.055-6.205-3.509-6.954-2.513C2369.6,702.245,2370.8,705.563,2371.429,706.249Z" transform="translate(-2369.84 -662.491)" fill="#ffdbc3"/>
          <path id="Path_141750" data-name="Path 141750" d="M2564.173,994.649c-6.557,1.7-4.911,9.585-3.932,31.224.111,2.449.339,4.813.662,7.069-9.61-1.93-24.384-2.22-31.536-2.24a13.411,13.411,0,0,0-1.136,4.753,13.69,13.69,0,0,0,2.4,7.468c16.21,4.847,41.125,13.029,41.125,13.029l0-.019c1.661.432,3.225-.4,4.468-2.78,4.956-9.492,13.438-72.661,13.438-72.661C2589.746,975.885,2570.729,992.948,2564.173,994.649Z" transform="translate(-2498.271 -888.341)" fill="#ffc708"/>
          <g id="Group_60550" data-name="Group 60550" transform="translate(43.92 25.075)">
            <path id="Path_141751" data-name="Path 141751" d="M2652.344,741.54s2.305-5.845-2.177-14.181l6.373,1.415,4.33.961a41.363,41.363,0,0,1,1.652,4.22c.247.722,1.161,3.617,1.43,4.512,1.522.065-.673,2.37-3.8,2.824A45.908,45.908,0,0,1,2652.344,741.54Z" transform="translate(-2641.065 -708.8)" fill="#ffdbc3"/>
            <path id="Path_141752" data-name="Path 141752" d="M2669.449,735.8a41.375,41.375,0,0,1,1.653,4.22c-3.72,1.11-10.354-2.506-10.354-2.506a12.187,12.187,0,0,1,4.372-2.675Z" transform="translate(-2649.645 -714.867)" fill="#ffc096"/>
            <path id="Path_141753" data-name="Path 141753" d="M2639.882,672.661s-7.384,8.166-12.4,3.49-9.344-6.771-4.843-12.183,7.347-4.626,9.4-3.472S2641.673,670.416,2639.882,672.661Z" transform="translate(-2617.214 -653.905)" fill="#ffdbc3"/>
            <path id="Path_141754" data-name="Path 141754" d="M2611.9,650.975s.757-.839-.338-1.929-2.341-2.663-1.13-3.146,1.879.261,1.917-.515-1.482-2.707,1.32-5.15,4.788-2.369,5.668-4.037-.674-3.772-.674-3.772a2.971,2.971,0,0,1-.2,1.73s-.194-4.878-4.486-4.919-5.857,3.458-7.3,4.75c-3.17,2.846-5.162,4.754-4.514,7.807S2608.09,650.565,2611.9,650.975Z" transform="translate(-2602.043 -629.235)"/>
            <path id="Path_141755" data-name="Path 141755" d="M2697.49,708.354l2.738-2.577s1.115,1.709.333,2.451S2697.49,708.354,2697.49,708.354Z" transform="translate(-2679.437 -691.3)" fill="#fff"/>
          </g>
          <path id="Path_141756" data-name="Path 141756" d="M2505.39,571.777a73.469,73.469,0,0,0-4.7-15.215l-3.84-.175s.427,9.818.333,16.684a14.6,14.6,0,0,1-1.88,6.809c-1.192,1.595-18.752,18.5-19.341,19.035l-.013.014,0,0c-1.87.318-1.661,3.388-3.582,3.9-3.2.858-8.517-.706-11.363.348h0s-22.8.026-26.271-1.636-17-11.637-17-11.637l-2.507,2.919s9.288,17.879,16.65,21.1c4.007,1.751,12.81,3.858,20,5.415a8.059,8.059,0,0,1,5.983,5.5,92.553,92.553,0,0,1,3.36,40.207,42.4,42.4,0,0,0,14.552-1.515,78.2,78.2,0,0,0,18.159-7.637c2.958-3.585,1.209-16.73,1.209-16.73a12.726,12.726,0,0,1,2.726,5.888c.493,2.653.758,4.121.921,5.053a1.2,1.2,0,0,0,1.892.756c1.516-1.123,3.68-2.871,4.356-4.154,2.362-4.483-2.89-22.742-10.147-35.482a7.127,7.127,0,0,1,.136-7.3c4.464-7.16,11.326-18.516,11.41-20.8A92.936,92.936,0,0,0,2505.39,571.777Z" transform="translate(-2406.646 -545.09)" fill="#b72c74"/>
          <path id="Path_141757" data-name="Path 141757" d="M2612.851,807.861s6.122,8.686,1.633,17.08-22.123,7.235-25.388,17.722l1.986,6.529,7.371-3.993s.616-5.67,7.87-8.132c14.165-4.809,17.576-13.116,14.6-20.549a24.69,24.69,0,0,0-6.15-9.308Z" transform="translate(-2547.625 -748.471)" fill="#ffd238"/>
          <path id="Path_141758" data-name="Path 141758" d="M2658.664,785.385l7.1,2.345.351,1.346-8.854-.21A12.9,12.9,0,0,1,2658.664,785.385Z" transform="translate(-2602.896 -730.775)" fill="#253789"/>
          <path id="Path_141759" data-name="Path 141759" d="M2719.6,775.069l.236,3.67s.93.761.918.66,2-3.149,2-3.149A20.392,20.392,0,0,0,2719.6,775.069Z" transform="translate(-2653.447 -722.41)" fill="#253789"/>
          <path id="Path_141760" data-name="Path 141760" d="M2700.608,792.421l3.618-1.222a.553.553,0,0,1,.726.457l.3,2.432a.553.553,0,0,1-.371.591l-1.593.54a.551.551,0,0,1-.509-.082l-2.324-1.75A.552.552,0,0,1,2700.608,792.421Z" transform="translate(-2637.74 -735.465)" fill="#ffa908"/>
          <path id="Path_141761" data-name="Path 141761" d="M2844.452,553.678l-.319,3.048s3.847.058,3.847,0,.116-1.511.116-1.511l.642,1.686,1.428-.466-1.635-2.757A5.96,5.96,0,0,1,2844.452,553.678Z" transform="translate(-2754.423 -542.894)" fill="#233862"/>
          <path id="Path_141762" data-name="Path 141762" d="M2417.738,733.619l-2.506,2.919.736,2.849,1.02-.7-.5-2.141,1.756,1.441,2.275-3Z" transform="translate(-2406.646 -688.8)" fill="#233862"/>
          <path id="Path_141763" data-name="Path 141763" d="M2425.594,746.78a.233.233,0,1,1,.233.233A.233.233,0,0,1,2425.594,746.78Z" transform="translate(-2415.049 -699.283)" fill="#ebf3fa"/>
          <path id="Path_141764" data-name="Path 141764" d="M2860.705,563.043a.185.185,0,1,1,.185.184A.184.184,0,0,1,2860.705,563.043Z" transform="translate(-2767.861 -550.338)" fill="#ebf3fa"/>
          <path id="Path_141765" data-name="Path 141765" d="M2828.722,936.895a.5.5,0,1,1,.5.5A.5.5,0,0,1,2828.722,936.895Z" transform="translate(-2741.928 -853.225)" fill="#ebf3fa"/>
          <path id="Path_141766" data-name="Path 141766" d="M2807.918,893.554a.5.5,0,1,1,.5.5A.5.5,0,0,1,2807.918,893.554Z" transform="translate(-2725.058 -818.083)" fill="#ebf3fa"/>
          <path id="Path_141767" data-name="Path 141767" d="M2779.256,860.757a.495.495,0,1,1,.495.5A.495.495,0,0,1,2779.256,860.757Z" transform="translate(-2701.817 -791.488)" fill="#ebf3fa"/>
        </g>
        <g id="Group_60548" data-name="Group 60548" transform="translate(79.099 145.292)">
          <path id="Path_141732" data-name="Path 141732" d="M2659.993,1295.2s-2.267,3.19-4.345,3.235-5.239-1.479-5.239-1.479-1.907-4.252-.612-5.915a2.776,2.776,0,0,1,2.653.436,4.105,4.105,0,0,1,.7.673,2.228,2.228,0,0,0,1.09.74c1.482.451,3.242-.611,3.9.414a6.9,6.9,0,0,0,1.146,1.357A5.174,5.174,0,0,0,2659.993,1295.2Z" transform="translate(-2630.447 -1290.882)" fill="#fff"/>
          <path id="Path_141733" data-name="Path 141733" d="M2549.424,1350.605s8.01-19.41,22.43-19.78c0,0,13.309,1.479,14.049,19.78Z" transform="translate(-2549.424 -1323.27)" fill="#fff"/>
          <path id="Path_141734" data-name="Path 141734" d="M2647,1323.19s5.779,1.286,7.563.53a1.785,1.785,0,0,0-2.164-2.078,5.107,5.107,0,0,1-3.39-.894C2648.109,1320.288,2646.762,1322.178,2647,1323.19Z" transform="translate(-2628.523 -1315.042)" fill="#d03f30"/>
          <path id="Path_141735" data-name="Path 141735" d="M2667.265,1297.945c-.369.277-1.5-3.908-1.5-3.908a4.129,4.129,0,0,1,.7.673,2.22,2.22,0,0,0,1.09.739C2667.557,1295.571,2667.623,1297.675,2667.265,1297.945Z" transform="translate(-2643.755 -1293.44)" fill="#efefef"/>
          <path id="Path_141736" data-name="Path 141736" d="M2688.391,1305.05a23.848,23.848,0,0,1-3.117,1.649c-.369,0,1.971-3.006,1.971-3.006A6.936,6.936,0,0,0,2688.391,1305.05Z" transform="translate(-2659.547 -1301.27)" fill="#efefef"/>
          <path id="Path_141737" data-name="Path 141737" d="M2590.785,1369.744c-.147-.126,5.669-8.565,7.271-8.627s5.2,1.849,7.809,2.1,5.132-.493,5.625,1.048,1.848,7,1.017,7.876S2593.985,1372.477,2590.785,1369.744Z" transform="translate(-2582.96 -1347.831)" fill="#efefef"/>
        </g>
      </g>
    </g>
  </g>
</svg>
