<svg xmlns="http://www.w3.org/2000/svg" xmlns:xlink="http://www.w3.org/1999/xlink" width="165.005" height="130.25" viewBox="0 0 165.005 130.25">
  <defs>
    <clipPath id="clip-path">
      <path id="Path_328938" data-name="Path 328938" d="M283,277.02H403.7v58.048H283Zm0,0" transform="translate(-283 -277.02)"/>
    </clipPath>
    <clipPath id="clip-path-2">
      <path id="Path_328953" data-name="Path 328953" d="M414,397h77.921v69.146H414Zm0,0" transform="translate(-414 -397)"/>
    </clipPath>
    <clipPath id="clip-path-3">
      <path id="Path_328955" data-name="Path 328955" d="M484,397h42.271v69.146H484Zm0,0" transform="translate(-484 -397)"/>
    </clipPath>
  </defs>
  <g id="Group_91356" data-name="Group 91356" transform="translate(-243.008 -277.02)">
    <g id="Group_91348" data-name="Group 91348" transform="translate(263.375 277.02)" clip-path="url(#clip-path)">
      <path id="Path_328937" data-name="Path 328937" d="M283.059,315.956V280.115a2.99,2.99,0,0,1,2.984-2.982H400.356a2.99,2.99,0,0,1,2.984,2.982v51.8a2.988,2.988,0,0,1-2.984,2.98H291.762a2.939,2.939,0,0,1-2.809-1.976l-5.72-15.959A2.847,2.847,0,0,1,283.059,315.956Zm0,0" transform="translate(-283.029 -277.075)" fill="#abd641" fill-rule="evenodd"/>
    </g>
    <path id="Path_328939" data-name="Path 328939" d="M263.719,351.7V299.9a2.99,2.99,0,0,1,2.984-2.982H381.016A2.99,2.99,0,0,1,384,299.9v51.8a2.988,2.988,0,0,1-2.984,2.98H266.7A2.988,2.988,0,0,1,263.719,351.7Zm0,0" transform="translate(-10.163 -9.764)" fill="#c2ed56" fill-rule="evenodd"/>
    <path id="Path_328940" data-name="Path 328940" d="M263.719,351.7V299.9a2.99,2.99,0,0,1,2.984-2.982h.746v51.054a2.989,2.989,0,0,0,2.984,2.982H384v.746a2.988,2.988,0,0,1-2.984,2.98H266.7A2.988,2.988,0,0,1,263.719,351.7Zm0,0" transform="translate(-10.163 -9.764)" fill="#b7e546" fill-rule="evenodd"/>
    <path id="Path_328941" data-name="Path 328941" d="M377.73,354.354a6.788,6.788,0,0,1,6.71-6.864V321.453a6.788,6.788,0,0,1-6.71-6.863H291.241a6.788,6.788,0,0,1-6.71,6.863V347.49a6.787,6.787,0,0,1,6.71,6.864Zm0,0" transform="translate(-20.376 -18.436)" fill="#eceff1" fill-rule="evenodd"/>
    <path id="Path_328942" data-name="Path 328942" d="M380.325,348.246a2.742,2.742,0,1,1,0,5.485H369.988a2.742,2.742,0,1,1,0-5.485Zm-53.459,0a2.742,2.742,0,1,1,0,5.485H316.528a2.742,2.742,0,1,1,0-5.485Zm0,0" transform="translate(-34.731 -34.952)" fill="#b7e546" fill-rule="evenodd"/>
    <path id="Path_328943" data-name="Path 328943" d="M381.412,332.19a2.744,2.744,0,0,1-5.061,2.123,3.407,3.407,0,0,0-3.965-1.89c-1.025.2-2.134.843-2.077,2.031.066,1.345,2.282,1.757,3.308,1.926,4.05.665,7.912,2.433,8.467,6.993q.033.277.042.7c.092,3.814-2.773,6.209-6.221,7.036v.322a2.744,2.744,0,0,1-5.489,0v-.378a8.344,8.344,0,0,1-6.149-6.032,2.739,2.739,0,0,1,5.319-1.307c.41,1.649,2.226,2.276,3.764,2.238.147,0,.35-.02.613-.051.871-.105,2.723-.543,2.7-1.7l-.022-.189c-.193-1.584-2.634-2.029-3.9-2.238-3.943-.647-7.681-2.592-7.9-7.068a7.375,7.375,0,0,1,5.574-7.418v-.428a2.744,2.744,0,0,1,5.489,0v.392A8.455,8.455,0,0,1,381.412,332.19Zm0,0" transform="translate(-59.465 -23.113)" fill="#b7e546" fill-rule="evenodd"/>
    <path id="Path_328944" data-name="Path 328944" d="M278.58,473.582H247.89a4.895,4.895,0,0,1-4.882-4.878V465.12a4.9,4.9,0,0,1,4.882-4.88,4.893,4.893,0,0,1-4.882-4.878v-3.581a4.895,4.895,0,0,1,4.882-4.88,4.893,4.893,0,0,1-4.882-4.878v-3.583a4.893,4.893,0,0,1,4.882-4.878h30.69a4.893,4.893,0,0,1,4.882,4.878v3.583a4.893,4.893,0,0,1-4.882,4.878,4.895,4.895,0,0,1,4.882,4.88v3.581a4.893,4.893,0,0,1-4.882,4.878,4.9,4.9,0,0,1,4.882,4.88V468.7A4.895,4.895,0,0,1,278.58,473.582Zm0,0" transform="translate(0 -76.818)" fill="#ffd064" fill-rule="evenodd"/>
    <path id="Path_328945" data-name="Path 328945" d="M309.372,473.582h-3.614a4.9,4.9,0,0,0,4.884-4.878V465.12a4.9,4.9,0,0,0-4.884-4.88,4.9,4.9,0,0,0,4.884-4.878v-3.581a4.9,4.9,0,0,0-4.884-4.88,4.9,4.9,0,0,0,4.884-4.878v-3.583a4.9,4.9,0,0,0-4.884-4.878h3.614a4.893,4.893,0,0,1,4.882,4.878v3.583a4.893,4.893,0,0,1-4.882,4.878,4.895,4.895,0,0,1,4.882,4.88v3.581a4.893,4.893,0,0,1-4.882,4.878,4.9,4.9,0,0,1,4.882,4.88V468.7A4.895,4.895,0,0,1,309.372,473.582Zm0,0" transform="translate(-30.792 -76.818)" fill="#ffc338" fill-rule="evenodd"/>
    <path id="Path_328946" data-name="Path 328946" d="M278.58,459.754H247.89a4.895,4.895,0,0,0-4.882,4.88v3.581a4.893,4.893,0,0,0,4.882,4.878h30.69a4.893,4.893,0,0,0,4.882-4.878v-3.581A4.895,4.895,0,0,0,278.58,459.754Zm0,0" transform="translate(0 -89.67)" fill="#ffc338" fill-rule="evenodd"/>
    <path id="Path_328947" data-name="Path 328947" d="M309.372,459.754h-3.614a4.9,4.9,0,0,1,4.884,4.88v3.581a4.9,4.9,0,0,1-4.884,4.878h3.614a4.893,4.893,0,0,0,4.882-4.878v-3.581A4.895,4.895,0,0,0,309.372,459.754Zm0,0" transform="translate(-30.792 -89.67)" fill="#f5b829" fill-rule="evenodd"/>
    <path id="Path_328948" data-name="Path 328948" d="M327.325,486.434h30.689a4.9,4.9,0,0,0,4.884-4.878v-3.583a4.9,4.9,0,0,0-4.884-4.88,4.895,4.895,0,0,0,4.884-4.878v-3.581a4.9,4.9,0,0,0-4.884-4.88H327.325a4.9,4.9,0,0,0-4.884,4.88v3.581a4.9,4.9,0,0,0,4.884,4.878,4.9,4.9,0,0,0-4.884,4.88v3.583A4.9,4.9,0,0,0,327.325,486.434Zm0,0" transform="translate(-38.979 -89.67)" fill="#ffc338" fill-rule="evenodd"/>
    <path id="Path_328949" data-name="Path 328949" d="M385.2,486.434h3.613a4.9,4.9,0,0,0,4.884-4.878v-3.583a4.9,4.9,0,0,0-4.884-4.88,4.895,4.895,0,0,0,4.884-4.878v-3.581a4.9,4.9,0,0,0-4.884-4.88H385.2a4.895,4.895,0,0,1,4.882,4.88v3.581a4.894,4.894,0,0,1-4.882,4.878,4.9,4.9,0,0,1,4.882,4.88v3.583A4.895,4.895,0,0,1,385.2,486.434Zm0,0" transform="translate(-69.773 -89.67)" fill="#f5b829" fill-rule="evenodd"/>
    <path id="Path_328950" data-name="Path 328950" d="M327.325,499.286h30.689a4.9,4.9,0,0,0,4.884-4.878v-3.583a4.9,4.9,0,0,0-4.884-4.88H327.325a4.9,4.9,0,0,0-4.884,4.88v3.583A4.9,4.9,0,0,0,327.325,499.286Zm0,0" transform="translate(-38.979 -102.522)" fill="#ffd064" fill-rule="evenodd"/>
    <path id="Path_328951" data-name="Path 328951" d="M385.2,499.286h3.613a4.9,4.9,0,0,0,4.884-4.878v-3.583a4.9,4.9,0,0,0-4.884-4.88H385.2a4.9,4.9,0,0,1,4.882,4.88v3.583A4.895,4.895,0,0,1,385.2,499.286Zm0,0" transform="translate(-69.773 -102.522)" fill="#ffc338" fill-rule="evenodd"/>
    <g id="Group_91349" data-name="Group 91349" transform="translate(330.092 338.124)" clip-path="url(#clip-path-2)">
      <path id="Path_328952" data-name="Path 328952" d="M458.972,400.911a7,7,0,0,0-12.126,0L415.134,455.8a7,7,0,0,0,6.064,10.494h63.424a7,7,0,0,0,6.064-10.494Zm0,0" transform="translate(-414.069 -397.203)" fill="#ffd064" fill-rule="evenodd"/>
    </g>
    <g id="Group_91350" data-name="Group 91350" transform="translate(365.742 338.124)" clip-path="url(#clip-path-3)">
      <path id="Path_328954" data-name="Path 328954" d="M493.431,400.911a6.67,6.67,0,0,0-6.064-3.5,7.154,7.154,0,0,0-3,.621,6.813,6.813,0,0,1,3.06,2.876L519.134,455.8a7,7,0,0,1-6.064,10.494h6.01a7,7,0,0,0,6.064-10.494Zm0,0" transform="translate(-484.178 -397.203)" fill="#ffc338" fill-rule="evenodd"/>
    </g>
    <path id="Path_328956" data-name="Path 328956" d="M486.379,462.223a4.032,4.032,0,1,1-4.035,4.03A4.033,4.033,0,0,1,486.379,462.223Zm2.962-8.256a2.975,2.975,0,1,1-5.927,0l-.841-24.414a3.226,3.226,0,0,1,3.064-3.35h1.482a3.226,3.226,0,0,1,3.063,3.35Zm0,0" transform="translate(-117.445 -73.206)" fill="#fe646f" fill-rule="evenodd"/>
    <path id="Path_328957" data-name="Path 328957" d="M489.547,462.223a4.032,4.032,0,1,1,0,8.063,3.973,3.973,0,0,1-.744-.07,4.031,4.031,0,0,0,0-7.926A4.161,4.161,0,0,1,489.547,462.223Zm2.962-8.256a3.12,3.12,0,0,1-2.964,3.241,2.718,2.718,0,0,1-.744-.1,3.217,3.217,0,0,0,2.22-3.137l.842-24.414a3.226,3.226,0,0,0-3.058-3.35h1.482a3.226,3.226,0,0,1,3.063,3.35Zm0,0" transform="translate(-120.614 -73.206)" fill="#fd4755" fill-rule="evenodd"/>
    <path id="Path_328958" data-name="Path 328958" d="M283.462,380.642q0,.991-.1,1.982a19.813,19.813,0,0,1-.29,1.961c-.129.649-.291,1.292-.484,1.924a19.7,19.7,0,0,1-.668,1.868c-.253.611-.535,1.21-.847,1.792s-.652,1.152-1.021,1.7-.764,1.082-1.184,1.594-.864,1-1.333,1.47-.959.911-1.47,1.331-1.044.814-1.6,1.182-1.118.708-1.7,1.021a19.676,19.676,0,0,1-1.794.847,19.294,19.294,0,0,1-1.868.669c-.635.193-1.275.352-1.926.481s-1.305.227-1.964.292-1.321.1-1.983.1-1.323-.034-1.982-.1-1.315-.163-1.963-.292-1.293-.288-1.926-.481a19.592,19.592,0,0,1-1.87-.669q-.916-.379-1.794-.847t-1.7-1.021c-.549-.368-1.082-.762-1.594-1.182s-1-.863-1.47-1.331-.913-.959-1.333-1.47a19.72,19.72,0,0,1-1.184-1.594c-.368-.549-.708-1.118-1.021-1.7s-.595-1.182-.847-1.792-.477-1.236-.67-1.868-.352-1.275-.481-1.924a19.8,19.8,0,0,1-.291-1.961q-.1-.991-.1-1.982t.1-1.981a19.72,19.72,0,0,1,.291-1.962q.193-.976.481-1.926t.67-1.866q.379-.919.847-1.795t1.021-1.7a19.626,19.626,0,0,1,1.184-1.593q.63-.767,1.333-1.468a19.787,19.787,0,0,1,1.47-1.333c.511-.42,1.045-.814,1.594-1.182s1.12-.708,1.7-1.021,1.184-.595,1.794-.847,1.236-.475,1.87-.668,1.275-.352,1.926-.482a19.823,19.823,0,0,1,1.963-.29q.988-.1,1.982-.1c.662,0,1.325.031,1.983.1s1.313.161,1.964.29,1.291.291,1.926.482,1.257.416,1.868.668,1.212.537,1.794.847,1.152.653,1.7,1.021,1.082.762,1.6,1.182a19.8,19.8,0,0,1,1.47,1.333q.7.7,1.333,1.468t1.184,1.593q.552.827,1.021,1.7t.847,1.795a19.471,19.471,0,0,1,.668,1.866q.29.952.484,1.926a19.736,19.736,0,0,1,.29,1.962Q283.463,379.649,283.462,380.642Zm0,0" transform="translate(0 -40.93)" fill="#ffc338"/>
    <path id="Path_328959" data-name="Path 328959" d="M281.657,360.43a20.211,20.211,0,1,1,0,40.423c-.37,0-.74-.01-1.106-.03a20.211,20.211,0,0,0,0-40.363C280.917,360.44,281.287,360.43,281.657,360.43Zm0,0" transform="translate(-18.423 -40.93)" fill="#f5b829" fill-rule="evenodd"/>
    <path id="Path_328960" data-name="Path 328960" d="M282.321,377.918a2.744,2.744,0,0,1-5.061,2.121A3.67,3.67,0,0,0,273,378c-1.128.227-2.322.939-2.26,2.238.072,1.486,2.405,1.932,3.549,2.119,4.166.684,8.158,2.495,8.73,7.192.023.189.038.432.045.722.094,3.955-2.914,6.414-6.489,7.244v.427a2.744,2.744,0,0,1-5.489,0v-.485a8.6,8.6,0,0,1-6.416-6.227,2.739,2.739,0,0,1,5.32-1.307c.442,1.777,2.379,2.463,4.04,2.423q.239-.006.65-.053c.983-.12,2.945-.6,2.915-1.894,0-.01-.008-.079-.024-.207-.209-1.727-2.777-2.206-4.162-2.435-4.054-.664-7.914-2.653-8.138-7.259-.181-3.762,2.342-6.621,5.815-7.645v-.533a2.744,2.744,0,0,1,5.489,0v.5A8.7,8.7,0,0,1,282.321,377.918Zm0,0" transform="translate(-10.589 -45.418)" fill="#ffe177" fill-rule="evenodd"/>
  </g>
</svg>
