<svg xmlns="http://www.w3.org/2000/svg" xmlns:xlink="http://www.w3.org/1999/xlink" width="320.032" height="252.624" viewBox="0 0 320.032 252.624">
  <defs>
    <clipPath id="clip-path">
      <path id="Path_328938" data-name="Path 328938" d="M283,277.02H517.1V389.607H283Zm0,0" transform="translate(-283 -277.02)"/>
    </clipPath>
    <clipPath id="clip-path-2">
      <path id="Path_328953" data-name="Path 328953" d="M414,397H565.13V531.111H414Zm0,0" transform="translate(-414 -397)"/>
    </clipPath>
    <clipPath id="clip-path-3">
      <path id="Path_328955" data-name="Path 328955" d="M484,397h81.986V531.111H484Zm0,0" transform="translate(-484 -397)"/>
    </clipPath>
  </defs>
  <g id="Group_91359" data-name="Group 91359" transform="translate(-243.008 -277.02)">
    <g id="Group_91348" data-name="Group 91348" transform="translate(282.511 277.02)" clip-path="url(#clip-path)">
      <path id="Path_328937" data-name="Path 328937" d="M283.059,352.431V282.916a5.8,5.8,0,0,1,5.788-5.783H510.56a5.8,5.8,0,0,1,5.787,5.783V383.384a5.8,5.8,0,0,1-5.787,5.78H299.939a5.7,5.7,0,0,1-5.448-3.832L283.4,354.38A5.522,5.522,0,0,1,283.059,352.431Zm0,0" transform="translate(-283.001 -277.021)" fill="#abd641" fill-rule="evenodd"/>
    </g>
    <path id="Path_328939" data-name="Path 328939" d="M263.719,403.169V302.7a5.8,5.8,0,0,1,5.787-5.783H491.22a5.8,5.8,0,0,1,5.789,5.783V403.169a5.8,5.8,0,0,1-5.789,5.78H269.506A5.8,5.8,0,0,1,263.719,403.169Zm0,0" transform="translate(-0.253 -0.243)" fill="#c2ed56" fill-rule="evenodd"/>
    <path id="Path_328940" data-name="Path 328940" d="M263.719,403.169V302.7a5.8,5.8,0,0,1,5.787-5.783h1.447v99.021a5.8,5.8,0,0,0,5.787,5.784H497.008v1.446a5.8,5.8,0,0,1-5.789,5.78H269.506A5.8,5.8,0,0,1,263.719,403.169Zm0,0" transform="translate(-0.253 -0.243)" fill="#b7e546" fill-rule="evenodd"/>
    <path id="Path_328941" data-name="Path 328941" d="M465.294,391.714A13.165,13.165,0,0,1,478.309,378.4V327.9a13.166,13.166,0,0,1-13.015-13.311H297.546A13.166,13.166,0,0,1,284.531,327.9v50.5a13.164,13.164,0,0,1,13.015,13.312Zm0,0" transform="translate(-0.507 -0.459)" fill="#eceff1" fill-rule="evenodd"/>
    <path id="Path_328942" data-name="Path 328942" d="M442.841,348.246a5.319,5.319,0,1,1,0,10.638H422.792a5.319,5.319,0,1,1,0-10.638Zm-103.686,0a5.319,5.319,0,1,1,0,10.638H319.106a5.319,5.319,0,1,1,0-10.638Zm0,0" transform="translate(-0.865 -0.871)" fill="#b7e546" fill-rule="evenodd"/>
    <path id="Path_328943" data-name="Path 328943" d="M397.595,339.771a5.323,5.323,0,0,1-9.817,4.117c-1.3-3.087-4.557-4.3-7.69-3.666-1.987.4-4.14,1.636-4.028,3.939.127,2.609,4.426,3.407,6.417,3.735,7.856,1.289,15.345,4.72,16.422,13.563q.064.538.081,1.366c.178,7.4-5.378,12.042-12.066,13.647v.625a5.323,5.323,0,0,1-10.645,0v-.733c-5.846-1.586-10.43-5.7-11.926-11.7a5.312,5.312,0,0,1,10.317-2.535c.8,3.2,4.318,4.413,7.3,4.34.286,0,.679-.038,1.188-.1,1.69-.2,5.282-1.054,5.228-3.3l-.042-.367c-.374-3.072-5.109-3.936-7.559-4.341-7.647-1.255-14.9-5.028-15.318-13.709-.344-7.03,4.329-12.412,10.811-14.388v-.83a5.323,5.323,0,0,1,10.645,0v.759A16.4,16.4,0,0,1,397.595,339.771Zm0,0" transform="translate(-1.481 -0.576)" fill="#b7e546" fill-rule="evenodd"/>
    <path id="Path_328944" data-name="Path 328944" d="M312,511.18H252.477a9.493,9.493,0,0,1-9.469-9.461v-6.95a9.494,9.494,0,0,1,9.469-9.465,9.49,9.49,0,0,1-9.469-9.461V468.9a9.494,9.494,0,0,1,9.469-9.465,9.491,9.491,0,0,1-9.469-9.461v-6.949a9.49,9.49,0,0,1,9.469-9.461H312a9.49,9.49,0,0,1,9.469,9.461v6.949A9.491,9.491,0,0,1,312,459.434a9.494,9.494,0,0,1,9.469,9.465v6.945A9.49,9.49,0,0,1,312,485.3a9.494,9.494,0,0,1,9.469,9.465v6.95A9.493,9.493,0,0,1,312,511.18Zm0,0" transform="translate(0 -1.913)" fill="#ffd064" fill-rule="evenodd"/>
    <path id="Path_328945" data-name="Path 328945" d="M312.768,511.18h-7.01a9.5,9.5,0,0,0,9.473-9.461v-6.95a9.5,9.5,0,0,0-9.473-9.465,9.494,9.494,0,0,0,9.473-9.461V468.9a9.5,9.5,0,0,0-9.473-9.465,9.495,9.495,0,0,0,9.473-9.461v-6.949a9.494,9.494,0,0,0-9.473-9.461h7.01a9.49,9.49,0,0,1,9.469,9.461v6.949a9.491,9.491,0,0,1-9.469,9.461,9.494,9.494,0,0,1,9.469,9.465v6.945a9.49,9.49,0,0,1-9.469,9.461,9.494,9.494,0,0,1,9.469,9.465v6.95A9.494,9.494,0,0,1,312.768,511.18Zm0,0" transform="translate(-0.767 -1.913)" fill="#ffc338" fill-rule="evenodd"/>
    <path id="Path_328946" data-name="Path 328946" d="M312,459.754H252.477a9.494,9.494,0,0,0-9.469,9.465v6.945a9.49,9.49,0,0,0,9.469,9.461H312a9.49,9.49,0,0,0,9.469-9.461v-6.945A9.494,9.494,0,0,0,312,459.754Zm0,0" transform="translate(0 -2.234)" fill="#ffc338" fill-rule="evenodd"/>
    <path id="Path_328947" data-name="Path 328947" d="M312.768,459.754h-7.01a9.5,9.5,0,0,1,9.473,9.465v6.945a9.494,9.494,0,0,1-9.473,9.461h7.01a9.49,9.49,0,0,0,9.469-9.461v-6.945A9.494,9.494,0,0,0,312.768,459.754Zm0,0" transform="translate(-0.767 -2.234)" fill="#f5b829" fill-rule="evenodd"/>
    <path id="Path_328948" data-name="Path 328948" d="M331.914,511.5h59.521a9.5,9.5,0,0,0,9.473-9.461v-6.95a9.5,9.5,0,0,0-9.473-9.465,9.494,9.494,0,0,0,9.473-9.461v-6.945a9.5,9.5,0,0,0-9.473-9.465H331.914a9.5,9.5,0,0,0-9.473,9.465v6.945a9.494,9.494,0,0,0,9.473,9.461,9.5,9.5,0,0,0-9.473,9.465v6.95A9.5,9.5,0,0,0,331.914,511.5Zm0,0" transform="translate(-0.971 -2.234)" fill="#ffc338" fill-rule="evenodd"/>
    <path id="Path_328949" data-name="Path 328949" d="M385.2,511.5H392.2a9.5,9.5,0,0,0,9.473-9.461v-6.95a9.5,9.5,0,0,0-9.473-9.465,9.494,9.494,0,0,0,9.473-9.461v-6.945a9.5,9.5,0,0,0-9.473-9.465H385.2a9.494,9.494,0,0,1,9.469,9.465v6.945a9.493,9.493,0,0,1-9.469,9.461,9.494,9.494,0,0,1,9.469,9.465v6.95A9.493,9.493,0,0,1,385.2,511.5Zm0,0" transform="translate(-1.738 -2.234)" fill="#f5b829" fill-rule="evenodd"/>
    <path id="Path_328950" data-name="Path 328950" d="M331.914,511.821h59.521a9.5,9.5,0,0,0,9.473-9.461v-6.95a9.5,9.5,0,0,0-9.473-9.465H331.914a9.5,9.5,0,0,0-9.473,9.465v6.95A9.5,9.5,0,0,0,331.914,511.821Zm0,0" transform="translate(-0.971 -2.554)" fill="#ffd064" fill-rule="evenodd"/>
    <path id="Path_328951" data-name="Path 328951" d="M385.2,511.821H392.2a9.5,9.5,0,0,0,9.473-9.461v-6.95a9.5,9.5,0,0,0-9.473-9.465H385.2a9.494,9.494,0,0,1,9.469,9.465v6.95A9.493,9.493,0,0,1,385.2,511.821Zm0,0" transform="translate(-1.738 -2.554)" fill="#ffc338" fill-rule="evenodd"/>
    <g id="Group_91349" data-name="Group 91349" transform="translate(411.91 395.533)" clip-path="url(#clip-path-2)">
      <path id="Path_328952" data-name="Path 328952" d="M501.092,404.2a13.584,13.584,0,0,0-23.518,0L416.066,510.65A13.57,13.57,0,0,0,427.827,531H550.839A13.57,13.57,0,0,0,562.6,510.65Zm0,0" transform="translate(-414.002 -397.005)" fill="#ffd064" fill-rule="evenodd"/>
    </g>
    <g id="Group_91350" data-name="Group 91350" transform="translate(481.054 395.533)" clip-path="url(#clip-path-3)">
      <path id="Path_328954" data-name="Path 328954" d="M501.95,404.2a12.937,12.937,0,0,0-11.761-6.783,13.875,13.875,0,0,0-5.827,1.2A13.213,13.213,0,0,1,490.3,404.2L551.8,510.65A13.568,13.568,0,0,1,540.041,531H551.7a13.568,13.568,0,0,0,11.761-20.353Zm0,0" transform="translate(-484.004 -397.005)" fill="#ffc338" fill-rule="evenodd"/>
    </g>
    <path id="Path_328956" data-name="Path 328956" d="M490.169,496.065a7.819,7.819,0,1,1-7.825,7.817A7.821,7.821,0,0,1,490.169,496.065Zm5.745-16.013a5.77,5.77,0,1,1-11.495,0L482.788,432.7a6.257,6.257,0,0,1,5.942-6.5H491.6a6.257,6.257,0,0,1,5.941,6.5Zm0,0" transform="translate(-2.925 -1.823)" fill="#fe646f" fill-rule="evenodd"/>
    <path id="Path_328957" data-name="Path 328957" d="M490.248,496.065a7.819,7.819,0,1,1,0,15.639,7.7,7.7,0,0,1-1.443-.135,7.819,7.819,0,0,0,0-15.372A8.072,8.072,0,0,1,490.248,496.065Zm5.745-16.013a6.051,6.051,0,0,1-5.749,6.285,5.269,5.269,0,0,1-1.443-.2,6.239,6.239,0,0,0,4.306-6.085l1.633-47.352a6.256,6.256,0,0,0-5.93-6.5h2.874a6.257,6.257,0,0,1,5.942,6.5Zm0,0" transform="translate(-3.004 -1.823)" fill="#fd4755" fill-rule="evenodd"/>
    <path id="Path_328958" data-name="Path 328958" d="M321.47,399.632q0,1.922-.189,3.844a38.422,38.422,0,0,1-.563,3.8c-.251,1.258-.564,2.5-.938,3.732a38.2,38.2,0,0,1-1.3,3.623c-.49,1.184-1.038,2.346-1.644,3.476s-1.265,2.234-1.979,3.3-1.482,2.1-2.3,3.091-1.675,1.945-2.585,2.852-1.86,1.767-2.852,2.581-2.026,1.578-3.095,2.292-2.168,1.374-3.3,1.98a38.171,38.171,0,0,1-3.48,1.644,37.426,37.426,0,0,1-3.623,1.3c-1.231.374-2.473.683-3.735.933s-2.532.44-3.809.567-2.562.19-3.846.19-2.566-.066-3.843-.19-2.551-.316-3.808-.567-2.508-.559-3.736-.933a38,38,0,0,1-3.627-1.3q-1.777-.735-3.48-1.644t-3.3-1.98c-1.065-.713-2.1-1.478-3.091-2.292s-1.944-1.674-2.851-2.581-1.771-1.86-2.586-2.852a38.244,38.244,0,0,1-2.3-3.091c-.713-1.065-1.373-2.168-1.98-3.3s-1.154-2.292-1.644-3.476-.926-2.4-1.3-3.623-.684-2.473-.933-3.732a38.393,38.393,0,0,1-.564-3.8q-.191-1.922-.189-3.844t.189-3.842a38.239,38.239,0,0,1,.564-3.8q.375-1.892.933-3.735t1.3-3.619q.735-1.782,1.644-3.481t1.98-3.3a38.067,38.067,0,0,1,2.3-3.09q1.222-1.488,2.586-2.848a38.385,38.385,0,0,1,2.851-2.585c.992-.815,2.026-1.578,3.091-2.293s2.172-1.373,3.3-1.98,2.3-1.154,3.48-1.643,2.4-.922,3.627-1.3,2.473-.684,3.736-.934a38.424,38.424,0,0,1,3.808-.563q1.916-.191,3.843-.189c1.284,0,2.569.061,3.846.189s2.546.313,3.809.563,2.5.564,3.735.934,2.439.806,3.623,1.3,2.35,1.042,3.48,1.643,2.234,1.266,3.3,1.98,2.1,1.478,3.095,2.293a38.4,38.4,0,0,1,2.852,2.585q1.365,1.36,2.585,2.848t2.3,3.09q1.071,1.6,1.979,3.3t1.644,3.481a37.751,37.751,0,0,1,1.3,3.619q.562,1.846.938,3.735a38.268,38.268,0,0,1,.563,3.8Q321.473,397.705,321.47,399.632Zm0,0" transform="translate(0 -1.02)" fill="#ffc338"/>
    <path id="Path_328959" data-name="Path 328959" d="M282.7,360.43a39.2,39.2,0,1,1,0,78.4c-.718,0-1.435-.02-2.146-.058a39.2,39.2,0,0,0,0-78.285C281.261,360.449,281.978,360.43,282.7,360.43Zm0,0" transform="translate(-0.459 -1.02)" fill="#f5b829" fill-rule="evenodd"/>
    <path id="Path_328960" data-name="Path 328960" d="M298.984,385.757a5.321,5.321,0,0,1-9.816,4.113c-1.393-3.318-4.9-4.634-8.273-3.955-2.188.44-4.5,1.821-4.384,4.341.139,2.882,4.665,3.747,6.884,4.109,8.08,1.328,15.823,4.838,16.931,13.948.046.367.073.838.088,1.4.182,7.671-5.652,12.44-12.586,14.049v.829a5.323,5.323,0,0,1-10.645,0v-.941c-6.089-1.593-10.885-5.842-12.444-12.076a5.313,5.313,0,0,1,10.318-2.536c.856,3.446,4.614,4.777,7.836,4.7q.464-.012,1.262-.1c1.906-.232,5.711-1.17,5.653-3.673,0-.02-.016-.154-.046-.4-.4-3.35-5.386-4.279-8.072-4.723-7.864-1.288-15.349-5.146-15.785-14.079-.352-7.3,4.542-12.841,11.278-14.828V374.9a5.323,5.323,0,0,1,10.645,0v.965A16.87,16.87,0,0,1,298.984,385.757Zm0,0" transform="translate(-0.264 -1.131)" fill="#ffe177" fill-rule="evenodd"/>
  </g>
</svg>
