<svg id="Group_91358" data-name="Group 91358" xmlns="http://www.w3.org/2000/svg" width="145.044" height="176.431" viewBox="0 0 145.044 176.431">
  <path id="Path_295834" data-name="Path 295834" d="M76.787,5.583c-1.355,0-3.265-.324-4.471.413a3.071,3.071,0,0,0,0,4.775c1.206.737,3.116.413,4.471.413,0,1.355-.324,3.265.413,4.471a3.071,3.071,0,0,0,4.775,0c.737-1.206.413-3.116.413-4.471,1.355,0,3.265.324,4.471-.413a3.071,3.071,0,0,0,0-4.775c-1.206-.737-3.116-.413-4.471-.413,0-1.355.324-3.265-.413-4.471a3.071,3.071,0,0,0-4.775,0c-.737,1.206-.413,3.116-.413,4.471m-39.2,5.6c-1.355,0-3.265-.324-4.471.413a3.071,3.071,0,0,0,0,4.775c1.206.737,3.116.413,4.471.413,0,1.355-.324,3.265.413,4.471a3.071,3.071,0,0,0,4.775,0c.737-1.206.413-3.116.413-4.471,1.355,0,3.265.324,4.471-.413a3.071,3.071,0,0,0,0-4.775c-1.206-.737-3.116-.413-4.471-.413,0-1.355.325-3.265-.413-4.471a3.071,3.071,0,0,0-4.775,0c-.737,1.206-.413,3.116-.413,4.471m22.053,8.4c-1.785,4.287-4.2,11.276-7.487,14.565s-10.278,5.7-14.565,7.487v.7c4.325,1.8,11.217,4.2,14.569,7.487s5.7,9.931,7.484,14.215h.7c1.718-4.127,4.18-11.456,7.487-14.479,3.43-3.134,9.931-5.44,14.215-7.224v-.7c-4.1-1.708-10.709-4-13.865-7.137-3.477-3.461-5.964-10.416-7.837-14.915Z" transform="translate(-31.972 0.028)" fill="#fed500"/>
  <path id="Path_295835" data-name="Path 295835" d="M89.409,70.458v.7l14,6.651v.7c-4.084,1.177-11.664,4.288-14.565,7.425-2.967,3.208-5.932,10.093-7.137,14.277h-.7l-5.951-12.6h-.7c-2.691,6.245-5.861,11.861-7.535,18.552-4.939,19.75-.477,41.769,12.243,57.757,5.229,6.573,13.033,14.72,21.2,17.567,2.358.823,5.576.285,8.051.285h42.705c3.663,0,8.361.784,11.9-.174,8.357-2.263,17.09-11.777,22.088-18.378,25.934-34.252,12.707-85.437-26.989-102.413C134.85,50.9,109.215,55.789,89.409,70.458Z" transform="translate(-53.345 -36.144)" fill="#6d37a2"/>
  <path id="Path_295836" data-name="Path 295836" d="M190.3,113l-4.687,8.878L177,126.3v.7l8.614,4.423L190.3,140.3h.7l4.687-8.878L204.3,127v-.7l-8.878-4.687L191,113Z" transform="translate(-126.234 -73.436)" fill="#fed500"/>
  <path id="Path_295837" data-name="Path 295837" d="M202.7,121.365a2.716,2.716,0,0,0-.586,4.159c1.431,1.829,3.75,3.034,5.449,4.614a71.638,71.638,0,0,1,7.356,8.354c.982,1.244,2.531,2.287,4.12,1.353,2.607-1.531.69-4.533-.536-6.238a49.442,49.442,0,0,0-10.24-10.456c-1.5-1.137-3.567-2.905-5.563-1.786M133,128.006l.35.35-.35-.35m8.4,15.052.35.35Z" transform="translate(-97.636 -78.64)" fill="#f1effb"/>
  <path id="Path_295838" data-name="Path 295838" d="M141.942,189.942c-1.332,0-2.93-.2-4.126.51a2.674,2.674,0,0,0,.312,4.737,9.42,9.42,0,0,0,3.814.353,9.42,9.42,0,0,0,.353,3.814,2.625,2.625,0,0,0,4.638.349c.821-1.18.61-2.8.61-4.162,1.361,0,2.982.211,4.162-.61a2.625,2.625,0,0,0-.349-4.638,9.42,9.42,0,0,0-3.814-.353c0-1.332.2-2.93-.51-4.126a2.674,2.674,0,0,0-4.737.312A9.42,9.42,0,0,0,141.942,189.942Z" transform="translate(-99.927 -119.923)" fill="#fed500"/>
  <path id="Path_295839" data-name="Path 295839" d="M145.1,184l.35.35-.35-.35m-2.45.35.35.35-.35-.35m3.15,0,.35.35-.35-.35m-3.85.7.35.35-.35-.35m4.55,0,.35.35-.35-.35m-4.9.7.35.35-.35-.35m5.251,0,.35.35-.35-.35m77.725,2.711c-3.566,1.4-.1,9.526.235,12.34a45.516,45.516,0,0,1-2.634,21.353c-1.264,3.267-3.446,6.212-4.617,9.451-.657,1.817.58,4.372,2.8,4.011,2.943-.48,4.578-5.53,5.678-7.861a51.852,51.852,0,0,0,4.219-28.7c-.389-2.732-.968-12.44-5.68-10.59M137.75,189.6l.35.35-.35-.35m12.952,0,.35.35-.35-.35m-13.652.35.35.35-.35-.35m14.352,0,.35.35-.35-.35m-15.052.7.35.35-.35-.35m15.752,0,.35.35-.35-.35m-16.1.7.35.35-.35-.35m16.452,0,.35.35-.35-.35M136,193.1l.35.35-.35-.35m16.452,0,.35.35-.35-.35m-16.1.7.35.35-.35-.35m15.752,0,.35.35-.35-.35m-.35.35.35.35-.35-.35m-14.7.35.35.35-.35-.35m14.352,0,.35.35-.35-.35m-13.652.35.35.35-.35-.35m12.952,0,.35.35-.35-.35m-9.1,3.85.35.35-.35-.35m5.251,0,.35.35-.35-.35m-4.9.7.35.35-.35-.35m4.55,0,.35.35-.35-.35m-.35.35.35.35-.35-.35m-3.5.35.35.35-.35-.35m3.15,0,.35.35-.35-.35m-2.45.35.35.35-.35-.35m1.75,0,.35.35Z" transform="translate(-99.586 -119.583)" fill="#f1effb"/>
  <path id="Path_295840" data-name="Path 295840" d="M79.924,431.7c-1.673,0-3.671-.29-5.25.353-4.743,1.93-3.151,9.578-3.151,13.649H200.338c0-4.07,1.592-11.718-3.151-13.649-1.58-.643-3.578-.353-5.25-.353,0-6.248.462-12.928-6.3-15.979-2.7-1.218-5.868-.824-8.751-.824H108.977c-6.705,0-16.531-1.8-22.753.864C79.428,418.67,79.924,425.527,79.924,431.7Z" transform="translate(-57.511 -269.268)" fill="#fed500"/>
</svg>
