<svg xmlns="http://www.w3.org/2000/svg" width="150.03" height="150.035" viewBox="0 0 150.03 150.035">
  <g id="Quiz" transform="translate(-2.526 -2.525)">
    <path id="Path_184553" data-name="Path 184553" d="M115.206,49.213l-12.6,10.816a5.281,5.281,0,0,1-8.728-4.012V43.066H91.135A11.254,11.254,0,0,1,79.9,31.828V14.373C66.5,9.892,51.86,11.417,38.6,20.4,24.129,30.139,16.692,43.794,16.5,60.944a11.185,11.185,0,0,1-.211,1.83A25.575,25.575,0,0,1,9.771,75.42C8.762,76.5,7.706,77.484,6.556,78.563c-.68.634-1.384,1.267-2.065,1.947-.587.587-2.323,2.323-1.9,4.458.422,2.159,2.7,3.1,3.472,3.425.774.305,1.572.587,2.37.845.892.3,1.807.61,2.7,1.009a1.483,1.483,0,0,1,.821.68,1.894,1.894,0,0,1-.258,1.337c-1.408,2.581-1.056,4.669,1.126,6.663a2.8,2.8,0,0,0-.938,2.44,4.548,4.548,0,0,0,2.111,3.4c.3.258.657.469.985.7.328.211.657.422,1.009.68a3.361,3.361,0,0,1-.352.516,8.124,8.124,0,0,0-1.853,5.584,6.631,6.631,0,0,0,6.663,6.921c1.1.07,2.252.164,3.355.305a15.822,15.822,0,0,1,7.39,2.745c2.768,1.994,4.34,4.927,4.927,9.22.211,1.455.305,2.933.422,4.5.07.774.117,1.548.188,2.346a1.779,1.779,0,0,0,1.76,1.6H89.4a1.773,1.773,0,0,0,1.76-1.76v-.7a77.749,77.749,0,0,1,3.026-26.816A43.471,43.471,0,0,1,104.25,92.969C115.417,81.215,120.461,65.214,115.206,49.213ZM65.421,89.074a4.156,4.156,0,1,1,0-5.865A4.134,4.134,0,0,1,65.421,89.074Zm6.264-23.813c-3.425,2.721-6.03,4.974-6.03,9.033a2.932,2.932,0,0,1-3.073,2.722,2.863,2.863,0,0,1-3.073-2.722c0-6.076,3.167-9.385,7.766-13.068,2.534-2.018,5.162-4.059,5.162-7.132q0-7.637-9.995-7.625a17.457,17.457,0,0,0-8.939,2.3,2.8,2.8,0,0,1-3.707-.282c-1.243-1.22-1.267-3.308.915-4.6A21.25,21.25,0,0,1,63,40.532c8.845,0,15.719,4.528,15.719,13.209C78.724,59.114,75.838,62,71.685,65.261Z" transform="translate(0 12.669)" fill="#fdc00f"/>
    <path id="Path_184554" data-name="Path 184554" d="M98.426,2.525h-53.7A7.74,7.74,0,0,0,37,10.244V44.5a7.74,7.74,0,0,0,7.719,7.719h6.264v16.47A1.782,1.782,0,0,0,52.019,70.3a1.816,1.816,0,0,0,1.877-.282L74.659,52.216H98.426a7.74,7.74,0,0,0,7.719-7.719V10.244A7.74,7.74,0,0,0,98.426,2.525Zm-6.57,35.122H51.3a.88.88,0,0,1,0-1.76H91.856a.88.88,0,1,1,0,1.76Zm0-9.4H51.3a.88.88,0,0,1,0-1.76H91.856a.88.88,0,1,1,0,1.76Zm0-9.4H51.3a.88.88,0,0,1,0-1.76H91.856a.88.88,0,1,1,0,1.76Z" transform="translate(46.412)" fill="#e5811c"/>
  </g>
</svg>
