<svg xmlns="http://www.w3.org/2000/svg" width="92.004" height="246.174" viewBox="0 0 92.004 246.174">
  <g id="select_spot_vector_2" data-name="select spot vector 2" transform="translate(-956.317 -1666.575)">
    <path id="Path_187847" data-name="Path 187847" d="M113.38,285.156c1.543-.617,7.3.848,9.279,5.464,4.895,11.35,5.963,15.384,9.819,22.51l25.624,8.828h-2.468v7.719l-21.708-2.735c0,.51-.012.973-.018,1.4-5.731.119-11.314-4.242-14.589-8.585a39.666,39.666,0,0,1-4.841-9.422c-2.824-8.757-5.049-17.306-5.452-19.5C108.284,286.823,107.661,287.4,113.38,285.156Z" transform="translate(884.767 1420.211)" fill="#4217c6"/>
    <path id="Path_187848" data-name="Path 187848" d="M108.27,315.356s-2.415,5.69,0,7.131c2.444,1.465,2.777,3.085,6.657,2.776,3.91-.338,3.352.967,4.675,2.421,1.359,1.459,15.111,7.475,17.716,4.551,2.6-2.943-4.687-6.348-7.28-8.051s-8.769-8.508-8.947-10.454C120.961,311.785,108.27,315.356,108.27,315.356Z" transform="translate(878.076 1558.962)" fill="#111114"/>
    <path id="Path_187849" data-name="Path 187849" d="M108.263,320.338c2.444,1.465,2.777,3.085,6.657,2.776,3.91-.338,3.352.967,4.675,2.421,1.359,1.459,15.111,7.475,17.716,4.551.9-1.009.629-2.059-.2-3.079-.961.16-2.32.415-4.052.718-4.064.706-9.291-3.975-11.308-5.713-2-1.738-4.568-1.074-8.045-1.644s-3-5.9-3-5.9l-2.587-.878C107.652,314.85,106.228,319.1,108.263,320.338Z" transform="translate(878.083 1561.112)" fill="#0a0a0a"/>
    <path id="Path_187850" data-name="Path 187850" d="M103.4,316.629s-1.032,6.716,1.554,10.347,8.241,9.932,10.7,9.641,2.836-1.388,2.836-1.388a24.69,24.69,0,0,0-.765-10.911,35.4,35.4,0,0,1-1.952-7.689Z" transform="translate(858.357 1576.123)" fill="#111114"/>
    <path id="Path_187851" data-name="Path 187851" d="M104.958,326.976c2.266,3.186,6.936,8.431,9.677,9.457-3.619-4.657,1.827-3.7-2.29-5.921-5.624-3.061-2.029-5.612-4.533-6.342-2.516-.706-.676-6.918-.676-6.918l-1.365-.623H103.4S102.371,323.345,104.958,326.976Z" transform="translate(858.357 1576.123)" fill="#0a0a0a"/>
    <path id="Path_187852" data-name="Path 187852" d="M113.515,306.393s11.6-1.252,15.449-9.831a281.025,281.025,0,0,1-1.276,40.884c-2.344,21.946-4.289,60.575-4.289,60.575s-7.487,7.066-15.224,0c0,0-2.2-25.505,0-39.626,0,0-1.465-24.734.955-37.1S113.515,306.393,113.515,306.393Z" transform="translate(878.088 1477.134)" fill="#ea49bd"/>
    <path id="Path_187853" data-name="Path 187853" d="M117.5,400.408s1.946-38.629,4.289-60.575a349.1,349.1,0,0,0,1.548-43.755c-2.842,6.307-10.074,11.522-13.6,12.329.273,8.377,1.062,33.076.937,41.287-.119,7.82-1.661,40.166-2.284,53.758C113.551,404.128,117.5,400.408,117.5,400.408Z" transform="translate(883.985 1474.747)" fill="#ff61cb"/>
    <path id="Path_187854" data-name="Path 187854" d="M107.859,298s-1.115,12.827-1.335,32.779c-.267,19.953-1.7,27.458-2.2,30.531-.481,3.061-2.171,36.434-1.2,46.182,0,0,6.295,9.742,16.221,0,0,0,1.685-34.221,3.388-42.011s11.178-45.63,15.016-59.216c1.667-5.986,2.076-8.265,2.076-8.265S123.118,310.019,107.859,298Z" transform="translate(856.506 1484.223)" fill="#ea49bd"/>
    <path id="Path_187855" data-name="Path 187855" d="M113.282,409.439s1.685-34.221,3.388-42.011,11.178-45.63,15.016-59.216a31.5,31.5,0,0,1,5.589-10.608s-10.976,7.695-20.463,7.683c-.433,2.919-4.45,30.857-5.4,43.073-.9,12.115-9.208,54.725-6.983,65.41C106.868,413.836,109.846,412.8,113.282,409.439Z" transform="translate(862.563 1482.274)" fill="#ff61cb"/>
    <path id="Path_187856" data-name="Path 187856" d="M121.275,288.654s-17.063,10.3-17.407,11.676c-.356,1.4-4.711,5.007,2.961,20.107,0,0,9.985,16.262,6.764,33.456a105.575,105.575,0,0,1-3.785,15.248s8.68,11.089,30.193,1.412c4.349-1.97,11.415-8.555,13.325-13.628a115.425,115.425,0,0,1-1.513-31.344c1.56-17.069,1.572-39.074-8.205-41.311C143.607,284.269,140.961,281.5,121.275,288.654Z" transform="translate(854 1413.901)" fill="#4619d1"/>
    <g id="Group_67284" data-name="Group 67284" transform="translate(974.246 1666.575)">
      <path id="Path_187857" data-name="Path 187857" d="M107.274,282.067s4.129,8.977-.973,13.824c-2.86,2.7,1.6,10.869,11.243,11.723,0,0,4.444-.368,4.242-1.993-.439-3.649,1.264-5.423,3.2-7.879C126.924,295.315,107.274,282.067,107.274,282.067Z" transform="translate(-104.809 -260.944)" fill="#efb185"/>
      <path id="Path_187858" data-name="Path 187858" d="M106.177,295.333a2.324,2.324,0,0,0-.706,1.186c4.147-3.091,11.059-2.314,11.059-2.314l-7.517-11.415c-.326-.243-.611-.439-.872-.611l-.4.866C108.663,285.805,109.986,291.714,106.177,295.333Z" transform="translate(-104.685 -260.386)" fill="#dd9569"/>
      <g id="Group_67283" data-name="Group 67283" transform="translate(0 0.134)">
        <path id="Path_187859" data-name="Path 187859" d="M105.643,294.408s.67,11.148,7.315,17.176c5.933,5.34,13.118,9.386,15.764,1.768,2.065-6.069,7.582-21.483,2.569-25.505-6.467-5.221-8.276-10.685-16.956-8.935C114.335,278.911,104.3,281.765,105.643,294.408Z" transform="translate(-104.448 -278.289)" fill="#efb185"/>
        <path id="Path_187860" data-name="Path 187860" d="M105.644,291.961a24.477,24.477,0,0,0,7.28,17.318,32.3,32.3,0,0,0,5.707,4.284c-3.067-3.1-3.287-3.928-5.5-7.475-2.2-3.53,4.289-1.3.967-9.979-1.139-2.955,5.933,1.72,7.636,1.946,10.175,1.3,10.294-4.592,10.881-7.019a17.38,17.38,0,0,0-.4-3.127l-.664-1.97a5.766,5.766,0,0,0-.261-.54,31.427,31.427,0,0,0-2.729-4.135c-4.331-.575-16.683-2.219-16.95-2.189-.166,0-2.723,2.569-5.126,4.984A16.873,16.873,0,0,0,105.644,291.961Z" transform="translate(-104.449 -275.842)" fill="#e6a376"/>
        <path id="Path_187861" data-name="Path 187861" d="M109.364,305.772s-7.03-8.786-2.51-19.14a12.726,12.726,0,0,1,12.667-8.092c4.693.166,12.673,2.136,14.737,11.973.647,3.073-.225,8.982-11.172,4.26-1.56-.682-5.8-1.922-7.541-.777-1.75,1.169-2.32,3.738-1.922,6.04.338,2.041-1.388,1.982-1.572,1.531-.154-.457-1.489-6.3-3.886-4.461C106,298.759,109.228,305.369,109.364,305.772Z" transform="translate(-105.338 -278.529)" fill="#341c09"/>
        <path id="Path_187862" data-name="Path 187862" d="M109.364,303.75c-.136-.4-3.364-7.013-1.2-8.668,2.4-1.839,3.732,4,3.886,4.461.184.451,1.91.51,1.572-1.531-.4-2.3.172-4.871,1.922-6.04,1.578-1.026,5.28.184,7.541.777-1.679-1.489-5.4-2.51-6.259-5.874-1.151-4.479-3.352-6.835-5.63-7.938a13.107,13.107,0,0,0-4.343,5.672C102.334,294.964,109.364,303.75,109.364,303.75Z" transform="translate(-105.338 -276.508)" fill="#221101"/>
      </g>
      <path id="Path_187863" data-name="Path 187863" d="M135.259,289.455s-4.568,11.48-17.205,5.69c0,0-6.319-2.788-8.051-9.327-.35-1.388-1.566-3.8-3.755-4.384,0,0,4.3-4.438,13.3-2.385,4.248.973,8.045,5.8,9.024,6.651C129.563,286.554,131.776,289.758,135.259,289.455Z" transform="translate(-100.857 -278.507)" fill="#341c09"/>
    </g>
    <path id="Path_187864" data-name="Path 187864" d="M103.868,291.077c-.356,1.4-4.711,5.007,2.961,20.107,0,0,9.985,16.262,6.764,33.456a105.575,105.575,0,0,1-3.785,15.248s4.337,5.476,14.381,5.351c2.462-14.773-.445-40.86-1.845-58.843-.92-11.575-6.508-17.68-11.059-20.777C107.493,288.081,104.034,290.46,103.868,291.077Z" transform="translate(854 1423.153)" fill="#4118bf"/>
    <path id="Path_187865" data-name="Path 187865" d="M111.48,304.527c-2.266-2.676-1.827-8.17-1.038-9.908a43.7,43.7,0,0,1,6.675-1.709c4.07-.676,8.781-.884,11.29.9,5.328,3.779,4.011,6.194,2.035,8.229C127.451,305.12,115.229,301.246,111.48,304.527Z" transform="translate(890.933 1456.693)" fill="#bd825a"/>
    <path id="Path_187866" data-name="Path 187866" d="M154.307,334.467l-31.83,9.748a8.482,8.482,0,0,1-2.136.148,4.545,4.545,0,0,1-2.878-.724c-3.352-2-6-6.918-7.114-9.054-4.758-9.048-7.731-35.562-7.944-39.632s-.125-7.22,5.814-8.71a3.987,3.987,0,0,1,2.409.356h0a10.039,10.039,0,0,1,4.865,5.233,107.842,107.842,0,0,1,8.615,30.816c.22,1.673.267,4.776,4.218,4.117,9.843-1.673,22.86-4.883,22.86-4.883l.878,3.56Z" transform="translate(854.151 1425.904)" fill="#4619d1"/>
    <g id="Group_67294" data-name="Group 67294" transform="translate(1006.037 1732.901)">
      <path id="Path_187867" data-name="Path 187867" d="M112.352,310.018l33.93-20.077a1.119,1.119,0,0,1,1.187-.142c.57.326,1.133.641,1.7.955a1.188,1.188,0,0,0-1.193.148l-1.762,1.032.125.042h0c.3.184.659.392,1.02.582.225.125.451.267.682.374a.8.8,0,0,1,.3.658l.285,20.813a2.161,2.161,0,0,1-.985,1.738c-.261-.154-.552-.3-.813-.451h0l.813.451-32.572,19.3a.7.7,0,0,1-.736.059c-.54-.3-1.1-.611-1.649-.925l.024,2.047a1.151,1.151,0,0,0,.516,1.068c-.3-.16-.57-.3-.866-.48-.273-.154-.558-.314-.831-.481a1.12,1.12,0,0,1-.516-1.068l-.314-22.717A3.7,3.7,0,0,1,112.352,310.018Z" transform="translate(-110.697 -289.686)" fill="#292b34"/>
      <g id="Group_67293" data-name="Group 67293" transform="translate(4.046 18.263)">
        <g id="Group_67292" data-name="Group 67292" style="mix-blend-mode: normal;isolation: isolate">
          <g id="Group_67286" data-name="Group 67286" transform="translate(2.237 0.366)" style="mix-blend-mode: normal;isolation: isolate">
            <g id="Group_67285" data-name="Group 67285">
              <path id="Path_187868" data-name="Path 187868" d="M111.756,293.081v.338a.287.287,0,0,0,.19-.255v-.338a.281.281,0,0,1-.19.255Z" transform="translate(-111.756 -292.826)" fill="#1b1823"/>
            </g>
          </g>
          <g id="Group_67288" data-name="Group 67288" transform="translate(1.095 0.622)">
            <g id="Group_67287" data-name="Group 67287">
              <path id="Path_187869" data-name="Path 187869" d="M111.564,293.541v.336l1.141-.672v-.336Z" transform="translate(-111.564 -292.869)" fill="#22232c"/>
            </g>
          </g>
          <g id="Group_67290" data-name="Group 67290" transform="translate(0 1.031)" style="mix-blend-mode: normal;isolation: isolate">
            <g id="Group_67289" data-name="Group 67289" style="mix-blend-mode: normal;isolation: isolate">
              <path id="Path_187870" data-name="Path 187870" d="M111.379,292.938l.018.338a.272.272,0,0,0,.059.166V293.1a.27.27,0,0,1-.077-.166Z" transform="translate(-111.379 -292.938)" fill="#1b1823"/>
              <path id="Path_187871" data-name="Path 187871" d="M111.392,292.966v.338a.217.217,0,0,0,.125.095,1.559,1.559,0,0,0,.308.107l-.006-.344a.63.63,0,0,1-.3-.1.217.217,0,0,1-.125-.095Z" transform="translate(-111.315 -292.8)" fill="#1d2027"/>
              <path id="Path_187872" data-name="Path 187872" d="M111.464,293.083l.006.344a.914.914,0,0,0,.587-.107v-.338a1.162,1.162,0,0,1-.593.1Z" transform="translate(-110.96 -292.721)" fill="#1b1823"/>
            </g>
          </g>
          <g id="Group_67291" data-name="Group 67291" transform="translate(0.01)">
            <path id="Path_187873" data-name="Path 187873" d="M111.572,293.54c-.255.148-.255.38,0,.516a1.072,1.072,0,0,0,.9,0l1.139-.67a.269.269,0,0,0,.018-.51.994.994,0,0,0-.914,0Z" transform="translate(-111.381 -292.764)" fill="#1e2129"/>
          </g>
        </g>
      </g>
      <path id="Path_187874" data-name="Path 187874" d="M112.627,310.159l33.936-20.065c.931-.552,1.685-.136,1.691.926l.314,22.723a3.753,3.753,0,0,1-1.638,2.931L113,336.768c-.931.546-1.691.113-1.7-.955l-.314-22.711A3.748,3.748,0,0,1,112.627,310.159Z" transform="translate(-109.286 -288.877)" fill="#23262f"/>
      <path id="Path_187875" data-name="Path 187875" d="M111.438,296.189a3.3,3.3,0,0,1,1.483-2.575c.819-.481,1.471-.089,1.471.86a3.284,3.284,0,0,1-1.471,2.575C112.108,297.518,111.438,297.138,111.438,296.189Z" transform="translate(-107.042 -271.324)" fill="#0b0b0b"/>
      <path id="Path_187876" data-name="Path 187876" d="M111.692,297.648l-.915-.527v-2.955l.915.527Z" transform="translate(-110.305 -267.591)" fill="#0b0b0b"/>
      <path id="Path_187877" data-name="Path 187877" d="M111.692,298.315l-.915-.516v-2.966l.915.539Z" transform="translate(-110.305 -264.296)" fill="#0b0b0b"/>
      <path id="Path_187878" data-name="Path 187878" d="M112.157,292.691a.972.972,0,0,1,.92,0c.273.131.273.374,0,.528a1,1,0,0,1-.92,0C111.878,293.065,111.878,292.822,112.157,292.691Z" transform="translate(-104.527 -275.432)" fill="#0b0b0b"/>
      <path id="Path_187879" data-name="Path 187879" d="M112.513,292.449a1.207,1.207,0,0,1,.932,0c.285.166.285.409,0,.54a1,1,0,0,1-.932,0C112.252,292.858,112.252,292.615,112.513,292.449Z" transform="translate(-102.705 -276.518)" fill="#0b0b0b"/>
      <path id="Path_187880" data-name="Path 187880" d="M112.708,293.035l.829.48,1.831-1.06-.841-.469Z" transform="translate(-100.777 -278.339)" fill="#0b0b0b"/>
    </g>
    <path id="Path_187881" data-name="Path 187881" d="M116.759,295.876c.344-.308.712-.582.92-.819-.463-.006-1.044-.113-1.228-.558a.881.881,0,0,1,.3-.9,2.682,2.682,0,0,1,.872-.439c1.406-.463,3.049-1.287,4.42-1.75,1.507.368,2.48,4.129,2.634,5.007.19,1.228.225,3.174-.777,4.112-.5.095-1.009.178-1.62.3a9.149,9.149,0,0,1-1.222.166c-.208-.113-.409-.451-.445-.475a.952.952,0,0,1,.036-.54.413.413,0,0,0-.368-.534c-.67-.119-2.065.018-1.928-1.216a.323.323,0,0,0-.279-.332C116.8,297.8,116.694,296.831,116.759,295.876Z" transform="translate(923.541 1451.71)" fill="#bd825a"/>
  </g>
</svg>
