<svg xmlns="http://www.w3.org/2000/svg" width="130.103" height="307.916" viewBox="0 0 130.103 307.916">
  <g id="select_spot_vector_1" data-name="select spot vector 1" transform="translate(-538.071 -43.763)">
    <g id="Group_67266" data-name="Group 67266" transform="translate(583.466 43.763)">
      <g id="Group_67265" data-name="Group 67265">
        <path id="Path_187806" data-name="Path 187806" d="M559.674,63.89s-.962-8.661-1.891-10.288c-.929-1.647-4.656-8.687-11-9.774-3.445-.6-1.5,3.016,1.673,7.08,1.456,1.838,2.918,2.891,2.457,6.817a26.145,26.145,0,0,0,1.08,9.214C552.64,68.955,559.674,63.89,559.674,63.89Z" transform="translate(-544.963 -43.763)" fill="#efb185"/>
        <path id="Path_187807" data-name="Path 187807" d="M551.766,66.42c-.646-2.022-.988-6.27-2.661-8.588-1.969-2.8.784-5.236-.672-7.074-2.47-3.155-4.156-6.151-3.188-6.968,1.686,2.542,5.822,1.739,7.976,9.385a50.624,50.624,0,0,1,.882,13.12C552.484,66.848,552.009,67.2,551.766,66.42Z" transform="translate(-544.938 -43.613)" fill="#e6a376"/>
        <path id="Path_187808" data-name="Path 187808" d="M553.752,60.11s-6.007-7.765-7.469-10.38c-1.482-2.628-1.429-5.071-.711-4.861.7.224,5.493,7.719,7.587,5.348C554.305,48.96,553.153,58.806,553.752,60.11Z" transform="translate(-544.29 -37.652)" fill="#efb185"/>
      </g>
      <path id="Path_187809" data-name="Path 187809" d="M608.422,87.51s-.751,10.874-14.476,7.093S555.5,80.753,552.321,74.141c-3.148-6.606-6.382-24.421-6.382-24.421s6.678,2.226,9.187-3.227L565.98,68.556S609.1,79.923,608.422,87.51Z" transform="translate(-539.514 -28.519)" fill="#4619d1"/>
      <path id="Path_187810" data-name="Path 187810" d="M603.981,87.51c.678-7.587-42.441-18.955-42.441-18.955L550.686,46.492a5.882,5.882,0,0,1-3.952,3.405c1.133,5.644,3.385,15.754,5.6,20.4,3.161,6.612,27.886,16.676,41.624,20.463,3.991,1.093,6.856.935,8.944.191A9.843,9.843,0,0,0,603.981,87.51Z" transform="translate(-535.073 -28.519)" fill="#4118bf"/>
    </g>
    <g id="Group_67267" data-name="Group 67267" transform="translate(586.922 176.282)">
      <path id="Path_187811" data-name="Path 187811" d="M562.42,84.887s-13.166-9.372-16.459-4.979,11.618,16.235,14.344,18.105,23.427,14.918,16.169-5.585S562.42,84.887,562.42,84.887Z" transform="translate(-545.488 19.082)" fill="#111114"/>
      <path id="Path_187812" data-name="Path 187812" d="M562.6,85.161s14.154,3.556,9.879,13.943c-4.294,10.38-11.756,20.219-15.5,21.286s-.876-22.274-.876-22.274S553.652,86.4,562.6,85.161Z" transform="translate(-492.035 54.972)" fill="#111114"/>
      <path id="Path_187813" data-name="Path 187813" d="M591.019,63.884s14.549,19.159-1.067,40.1c-9.477,12.7-22.676,70.748-22.676,70.748s-11.644,4.149-19.679-6.138l8.542-51.457,15.576-38.792S576.575,78.459,591.019,63.884Z" transform="translate(-533.714 -63.884)" fill="#ea49bd"/>
      <path id="Path_187814" data-name="Path 187814" d="M576,66.2s12.349,9.57,6.046,41.091l3.985,40.09,25.64,45.234s-9.313.086-12.118,12.092c0,0-28.637-41.881-34.024-55.752s-18.448-79.317-18.448-79.317S563.416,72.138,576,66.2Z" transform="translate(-536.619 -50.924)" fill="#ff61cb"/>
    </g>
    <g id="Group_67268" data-name="Group 67268" transform="translate(598.005 58.05)">
      <path id="Path_187815" data-name="Path 187815" d="M598,52.025s9.451,4.716,4.09,20.779c-5.342,16.05-9.122,26.437-8.8,32.43s2.509,26.127,3.767,30.217c0,0,1.568,13.232-28.649,21.1,0,0-24.876,2.516-20.786-13.851s5.677-42.81,5.032-49.119c-.619-6.29-4.386-18.889,11.348-27.392S587.939,51.4,598,52.025Z" transform="translate(-547.171 -12.135)" fill="#4118bf"/>
      <path id="Path_187816" data-name="Path 187816" d="M591.04,52.093c-7.409,1.824-15.023,6.994-27.036,13.482-15.734,8.5-11.967,21.1-11.348,27.392.645,6.31-.942,32.746-5.032,49.119-3.28,13.146,12.092,14.114,18.283,13.976C593.675,136.784,591.219,86.776,591.04,52.093Z" transform="translate(-547.17 -11.518)" fill="#4619d1"/>
      <path id="Path_187817" data-name="Path 187817" d="M568.722,51.468s-1.087,9.043,2,14.694c2.832,5.131-18.461,9.813-18.961,5.058-.046-.507,4.031-8.285-1.12-17.506C547.955,48.886,568.722,51.468,568.722,51.468Z" transform="translate(-529.119 -18.862)" fill="#efb185"/>
      <path id="Path_187818" data-name="Path 187818" d="M568.478,64.277c-2.305-4.2-2.305-10.268-2.141-13.106l-15.55,7.712.027.04c.553.132,11.051,2.793,13.311,10.34C567.332,67.959,569.505,66.148,568.478,64.277Z" transform="translate(-526.972 -16.668)" fill="#dd9569"/>
      <path id="Path_187819" data-name="Path 187819" d="M552.09,49.987s-3.306,8.213-2.634,15.273c.678,7.6-.441,9.142.039,12.52.2,1.436.309,3.629,1.719,4.986,2.345,2.266,7.179,3.1,13.739.7,7.936-2.9,16.274-13.8,12.889-23.6C574.437,50.079,564.03,42.011,552.09,49.987Z" transform="translate(-534.913 -41.388)" fill="#efb185"/>
      <path id="Path_187820" data-name="Path 187820" d="M576.572,70.447c-3.168-8.819-11.078-19.4-11-19.963.053-.329-2.549-1.976-5.546-3.734a17.993,17.993,0,0,0-8.852,3.214,43.157,43.157,0,0,0-1.647,5.3c1.89,2.1,5.737,4.512,6.316,6.31,1.363,4.222.593,10.61-.652,13.442-1.264,2.832,3.82,6.968,2.753,9.471a.753.753,0,0,0-.027.336,22.46,22.46,0,0,0,6.119-1.37C569.11,81.591,574.332,76.467,576.572,70.447Z" transform="translate(-533.999 -41.364)" fill="#e6a376"/>
      <path id="Path_187821" data-name="Path 187821" d="M548.9,46.056c-2.549-1.561,5.1,12.158,12.027,15.543,4.156,2.035,3.794,8.746,3.6,10-.211,1.245-1.442,6.9-.929,7.62.975,1.39,4.235-2.957,5.789-2.654,3.925.757,2.391,4.439-1.185,8.292-3.794,4.09,6.217,5.769,10.86,2.391,2.444-1.791,3.366-2.865,6.6-9.313,4.7-9.366,6.006-23.262-6.152-26.641C567.882,48.058,555.842,50.337,548.9,46.056Z" transform="translate(-540.312 -45.932)" fill="#131c24"/>
      <path id="Path_187822" data-name="Path 187822" d="M578.668,87.145c2.444-1.791,3.366-2.865,6.6-9.313,4.7-9.366,6.316-20.6-4.775-26.615-11.065-6.007-19.284.31-31.989-5.262-.658-.277,8.318,11.96,21.906,14.542,5.822,1.113,6.441,3.451,6.184,9.767-.244,6.1,1.324,14.081-8.9,17.519C571.49,90.523,576.851,88.455,578.668,87.145Z" transform="translate(-539.915 -45.832)" fill="#1d2833"/>
      <path id="Path_187823" data-name="Path 187823" d="M556.947,58.56l-7.258,4.65s21.912,7.383,28.228-3.2c.883-1.5-.184-6.52-3.952-7.469C573.965,52.54,573.221,61.155,556.947,58.56Z" transform="translate(-533.105 -9.021)" fill="#471bce"/>
    </g>
    <g id="Group_67269" data-name="Group 67269" transform="translate(538.071 114.329)">
      <path id="Path_187824" data-name="Path 187824" d="M556.038,63.333s-8.016-.962-9.26-2.628-3.965-.461-2.292,1.37a12.01,12.01,0,0,0,4.321,2.76s-9.491.125-10.228-2.687c-.718-2.806-1.3,7.35,2.858,9.445,4.182,2.088,8.365,5.144,18.072-1.488C559.509,70.1,559.417,65.513,556.038,63.333Z" transform="translate(-538.071 -24.147)" fill="#f1b287"/>
      <path id="Path_187825" data-name="Path 187825" d="M600.309,54.7s10.287,4.67,1.646,16.676c-8.661,11.98-24.3,31.581-31.9,32.272-7.574.678-28.748.053-28.748.053s3.807-6.336-.593-10.742l27.023-4.867S593.17,51.3,600.309,54.7Z" transform="translate(-523.324 -54.477)" fill="#4118bf"/>
      <path id="Path_187826" data-name="Path 187826" d="M600.309,54.7c-7.139-3.4-32.575,33.392-32.575,33.392l-27.023,4.867a6.863,6.863,0,0,1,1.811,3.089c9.043-.711,25.778-2.213,29.282-3.78,4.268-1.923,26.213-28.953,31.37-35.368A9.791,9.791,0,0,0,600.309,54.7Z" transform="translate(-523.324 -54.477)" fill="#4619d1"/>
    </g>
  </g>
</svg>
