<svg xmlns="http://www.w3.org/2000/svg" width="60.121" height="73.131" viewBox="0 0 60.121 73.131">
  <g id="Group_87474" data-name="Group 87474" transform="translate(-51.953 -271.592)">
    <g id="Group_87473" data-name="Group 87473" transform="translate(51.953 271.592)">
      <path id="Path_295834" data-name="Path 295834" d="M50.548,2.3a3.782,3.782,0,0,0-1.853.171,1.273,1.273,0,0,0,0,1.979,3.782,3.782,0,0,0,1.853.171,3.782,3.782,0,0,0,.171,1.853,1.273,1.273,0,0,0,1.979,0,3.782,3.782,0,0,0,.171-1.853,3.782,3.782,0,0,0,1.853-.171,1.273,1.273,0,0,0,0-1.979A3.782,3.782,0,0,0,52.87,2.3,3.782,3.782,0,0,0,52.7.445a1.273,1.273,0,0,0-1.979,0A3.782,3.782,0,0,0,50.548,2.3M34.3,4.619a3.782,3.782,0,0,0-1.853.171,1.273,1.273,0,0,0,0,1.979,3.782,3.782,0,0,0,1.853.171,3.782,3.782,0,0,0,.171,1.853,1.273,1.273,0,0,0,1.979,0,3.782,3.782,0,0,0,.171-1.853,3.782,3.782,0,0,0,1.853-.171,1.273,1.273,0,0,0,0-1.979,3.782,3.782,0,0,0-1.853-.171,3.782,3.782,0,0,0-.171-1.853,1.273,1.273,0,0,0-1.979,0A3.782,3.782,0,0,0,34.3,4.619M43.439,8.1c-.74,1.777-1.74,4.674-3.1,6.037s-4.26,2.364-6.037,3.1v.29c1.793.746,4.65,1.742,6.039,3.1s2.363,4.116,3.1,5.892h.29c.712-1.711,1.732-4.749,3.1-6,1.422-1.3,4.116-2.255,5.892-2.994v-.29c-1.7-.708-4.439-1.656-5.747-2.958-1.441-1.435-2.472-4.317-3.249-6.182Z" transform="translate(-31.972 0.028)" fill="#fed500"/>
      <path id="Path_295835" data-name="Path 295835" d="M75.033,61.773v.29l5.8,2.757v.29C79.143,65.6,76,66.888,74.8,68.188a17.651,17.651,0,0,0-2.958,5.918h-.29l-2.467-5.223h-.29a49.955,49.955,0,0,0-3.123,7.69,28.079,28.079,0,0,0,5.075,23.94c2.168,2.724,5.4,6.1,8.785,7.282a10.917,10.917,0,0,0,3.337.118h17.7c1.518,0,3.466.325,4.933-.072,3.464-.938,7.084-4.882,9.156-7.618,10.75-14.2,5.267-35.414-11.187-42.45C93.868,53.666,83.242,55.693,75.033,61.773Z" transform="translate(-60.084 -47.55)" fill="#6d37a2"/>
      <path id="Path_295836" data-name="Path 295836" d="M182.514,113l-1.943,3.68L177,118.514v.29l3.571,1.834,1.943,3.68h.29l1.943-3.68,3.571-1.834v-.29l-3.68-1.943L182.8,113Z" transform="translate(-155.957 -96.6)" fill="#fed500"/>
      <path id="Path_295837" data-name="Path 295837" d="M161.889,121.156a1.126,1.126,0,0,0-.243,1.724,19.409,19.409,0,0,0,2.258,1.912,29.693,29.693,0,0,1,3.049,3.463,1.326,1.326,0,0,0,1.708.561c1.081-.635.286-1.879-.222-2.586A20.494,20.494,0,0,0,164.2,121.9c-.62-.471-1.478-1.2-2.306-.74M133,123.909l.145.145-.145-.145m3.482,6.239.145.145Z" transform="translate(-118.342 -103.446)" fill="#f1effb"/>
      <path id="Path_295838" data-name="Path 295838" d="M138.77,186.77a3.364,3.364,0,0,0-1.71.211,1.108,1.108,0,0,0,.129,1.964,3.9,3.9,0,0,0,1.581.146,3.9,3.9,0,0,0,.146,1.581,1.088,1.088,0,0,0,1.922.145,2.98,2.98,0,0,0,.253-1.725,2.98,2.98,0,0,0,1.725-.253,1.088,1.088,0,0,0-.145-1.922,3.9,3.9,0,0,0-1.581-.146,3.366,3.366,0,0,0-.211-1.71,1.108,1.108,0,0,0-1.964.129A3.9,3.9,0,0,0,138.77,186.77Z" transform="translate(-121.355 -157.747)" fill="#fed500"/>
      <path id="Path_295839" data-name="Path 295839" d="M139.772,184l.145.145-.145-.145m-1.016.145.145.145-.145-.145m1.306,0,.145.145-.145-.145m-1.6.29.145.145-.145-.145m1.886,0,.145.145-.145-.145m-2.031.29.145.145-.145-.145m2.176,0,.145.145-.145-.145m32.217,1.124c-1.478.581-.042,3.948.1,5.115a18.867,18.867,0,0,1-1.092,8.851c-.524,1.354-1.429,2.575-1.914,3.918-.272.753.24,1.812,1.161,1.662,1.22-.2,1.9-2.292,2.353-3.259a21.493,21.493,0,0,0,1.749-11.9c-.161-1.133-.4-5.156-2.354-4.39m-35.99.472.145.145-.145-.145m5.368,0,.145.145-.145-.145m-5.659.145.145.145-.145-.145m5.949,0,.145.145-.145-.145m-6.239.29.145.145-.145-.145m6.529,0,.145.145-.145-.145m-6.674.29.145.145-.145-.145m6.819,0,.145.145-.145-.145m-6.819.725.145.145-.145-.145m6.819,0,.145.145-.145-.145m-6.674.29.145.145-.145-.145m6.529,0,.145.145-.145-.145m-.145.145.145.145-.145-.145m-6.094.145.145.145-.145-.145m5.949,0,.145.145-.145-.145m-5.659.145.145.145-.145-.145m5.368,0,.145.145-.145-.145m-3.772,1.6.145.145-.145-.145m2.176,0,.145.145-.145-.145m-2.031.29.145.145-.145-.145m1.886,0,.145.145-.145-.145m-.145.145.145.145-.145-.145m-1.451.145.145.145-.145-.145m1.306,0,.145.145-.145-.145m-1.016.145.145.145-.145-.145m.725,0,.145.145Z" transform="translate(-120.906 -157.299)" fill="#f1effb"/>
      <path id="Path_295840" data-name="Path 295840" d="M74.855,421.511a5.959,5.959,0,0,0-2.176.146c-1.966.8-1.306,3.97-1.306,5.657h53.394c0-1.687.66-4.857-1.306-5.657a5.959,5.959,0,0,0-2.176-.146c0-2.59.191-5.359-2.612-6.623a8.776,8.776,0,0,0-3.627-.341H86.9c-2.779,0-6.852-.747-9.431.358C74.649,416.111,74.855,418.953,74.855,421.511Z" transform="translate(-65.565 -354.183)" fill="#fed500"/>
    </g>
  </g>
</svg>
