<svg xmlns="http://www.w3.org/2000/svg" width="30" height="20.643" viewBox="0 0 30 20.643">
  <g id="more_-_about_us" data-name="more - about us" transform="translate(0 -9.76)">
    <g id="group-70svg" transform="translate(0 9.76)">
      <path id="path-1_66_" d="M32.258,41.437a.719.719,0,0,1-.72-.719,8.327,8.327,0,0,0-16.655,0,.719.719,0,1,1-1.438,0,9.765,9.765,0,0,1,19.531,0A.719.719,0,0,1,32.258,41.437Z" transform="translate(-7 -20.794)" fill="#b72c74"/>
      <path id="path-2_66_" d="M27.666,21.089a5.664,5.664,0,1,1,5.665-5.665A5.671,5.671,0,0,1,27.666,21.089Zm0-9.891a4.226,4.226,0,1,0,4.227,4.226A4.231,4.231,0,0,0,27.666,11.2Z" transform="translate(-11.455 -9.76)" fill="#b72c74"/>
      <path id="path-3_54_" d="M6.253,38.9H.719A.719.719,0,0,1,0,38.184a7.965,7.965,0,0,1,8.161-8.127,8.277,8.277,0,0,1,4.174,1.176.719.719,0,0,1-.72,1.245A6.854,6.854,0,0,0,8.161,31.5a6.542,6.542,0,0,0-6.688,5.97h4.78a.719.719,0,1,1,0,1.438Z" transform="translate(0 -20.327)" fill="#b72c74"/>
      <path id="path-4_33_" d="M11.875,22.372a4.806,4.806,0,1,1,3.4-8.2.719.719,0,0,1-1.017,1.017,3.368,3.368,0,1,0,.388,4.3.719.719,0,1,1,1.182.819A4.812,4.812,0,0,1,11.875,22.372Z" transform="translate(-3.68 -11.322)" fill="#b72c74"/>
      <path id="path-5_16_" d="M51.876,30.1H48.022a.719.719,0,0,1,0-1.438h3.095a6.736,6.736,0,0,0-6.034-5.9.719.719,0,0,1-.065-1.419,3.319,3.319,0,0,0,2.723-3.254,3.7,3.7,0,0,0-3.624-3.5.719.719,0,1,1,0-1.438,5.131,5.131,0,0,1,5.062,4.936,4.693,4.693,0,0,1-1.843,3.748,8.093,8.093,0,0,1,5.259,7.545A.719.719,0,0,1,51.876,30.1Z" transform="translate(-22.595 -11.528)" fill="#b72c74"/>
    </g>
  </g>
</svg>
