<svg xmlns="http://www.w3.org/2000/svg" width="29.961" height="30" viewBox="0 0 29.961 30">
  <path id="Path_295842" data-name="Path 295842" d="M840.7,842.289a10.564,10.564,0,0,1,1.43,4.767l.039.407-.358.2a14.9,14.9,0,0,1-6.785,1.87l-1.615.051,1.159-1.125a36.023,36.023,0,0,0,5.1-6.148l.5-.769Zm-9.37,6.9a14.986,14.986,0,0,1-7.717-4.408l-.571-.61c5.112-2.576,10.45-4.295,15.871-3.216l-.55.827a35.686,35.686,0,0,1-6.491,7.271l-.237.2Zm11.985-3.667a8.754,8.754,0,0,0-2.15-4.779l-.35-.331.23-.423q.512-.941.96-1.914l.29-.627.6.35a16.969,16.969,0,0,1,4.5,3.666l.277.339-.223.376a15.088,15.088,0,0,1-3.1,3.708l-.836.723ZM843,835.66c.245-.667.471-1.34.671-2.022l.164-.559.569.124a12.018,12.018,0,0,0,4.383.053l.69-.109.033.7c.011.24.018.479.018.719a14.928,14.928,0,0,1-.829,4.906l-.332.955-.707-.724a19.738,19.738,0,0,0-4.382-3.282l-.461-.262Zm1.293-4.511a31.639,31.639,0,0,0,.665-5.767l.035-1.674,1.071,1.287a14.958,14.958,0,0,1,3.063,6.136l.154.652-.661.109a10.688,10.688,0,0,1-3.841,0l-.614-.126Zm-4.559-3.16a32.885,32.885,0,0,0-3.4-3.768c-2.095-1.908-3.918-3.337-6.993-3.869l2.092-.442a15.06,15.06,0,0,1,3.113-.327,14.9,14.9,0,0,1,8.719,2.81l.236.169.023.289a28.483,28.483,0,0,1-.442,7.376l-.2,1.07A24.891,24.891,0,0,1,839.737,827.989ZM820.2,830.266a15.044,15.044,0,0,1,6.773-8.62l.181-.107c2.7-.2,5.061,1.164,7.2,2.8a25.83,25.83,0,0,1,4.314,4.508,14.728,14.728,0,0,0,3.881,3.727l-.132.464q-.266.934-.592,1.849l-.228.642-.62-.282c-6.14-2.787-13.534-3.845-20.208-4.178l-.8-.04Zm1.705,12.317a14.9,14.9,0,0,1-2.337-8.019,15.141,15.141,0,0,1,.083-1.579l.061-.587.589.027c6.643.3,14.1,1.329,20.2,4.137l.567.261-.259.567q-.46,1.009-.99,1.983l-.232.425-.47-.118c-5.266-1.32-11.7.635-16.39,3.12l-.51.27Z" transform="translate(-819.57 -819.583)" fill="#ccc" fill-rule="evenodd"/>
</svg>
