<svg width="375" height="379" viewBox="0 0 375 379" fill="none" xmlns="http://www.w3.org/2000/svg">
<path d="M105.801 58.6001C105.801 58.6001 127.501 89.1001 168.101 96.1001" stroke="white" stroke-width="2" stroke-dasharray="10 10"/>
<path d="M133.701 88.2L147.501 91.1L138.501 80L139.301 86.3L133.701 88.2Z" fill="white"/>
<path d="M257.101 120.5C257.101 120.5 326.801 139.4 194.801 169.7" stroke="white" stroke-width="2" stroke-dasharray="10 10"/>
<path d="M246.702 160.4L232.602 160.8L243.402 151.4L241.502 157.5L246.702 160.4Z" fill="white"/>
<path d="M254.5 274.8C254.5 274.8 357.8 298.5 195.1 320.6" stroke="white" stroke-width="2" stroke-dasharray="10 10"/>
<path d="M268.7 307.4L254.6 307.7L265.4 301.4L263.5 305.4L268.7 307.4Z" fill="white"/>
<path d="M91.6004 211.2C91.6004 211.2 67.1004 240.9 169.3 255.2" stroke="white" stroke-width="2" stroke-dasharray="10 10"/>
<path d="M109.5 245.3L123.5 246L112.9 236.4L114.7 242.5L109.5 245.3Z" fill="white"/>
<path d="M175.667 295.333H44.3333C37.5218 295.333 32 300.855 32 307.666V317.333C32 324.145 37.5218 329.666 44.3333 329.666H175.667C182.478 329.666 188 324.145 188 317.333V307.666C188 300.855 182.478 295.333 175.667 295.333Z" fill="white"/>
<path d="M173.667 308.333V309.833H169.334V312H171.334C172.334 312 173.667 313 173.834 314V316.333C173.834 317.333 172.834 318.567 171.501 318.833C169.001 319.333 167.714 318.56 166.834 316.667L168.667 316.167C169.403 317.458 170.575 317.758 171.834 316.667C172.399 316.177 172.587 314.841 171.834 314C171.167 313.167 169.294 313.064 167.667 313.833V308.333H173.667Z" fill="#333333" stroke="#333333" stroke-width="0.333333"/>
<path d="M136.334 318.167V309H140.334C145.667 309.5 145.501 317.667 140.167 318.167H136.334Z" stroke="#333333" stroke-width="1.6"/>
<path d="M147.667 312.82C150.232 311.754 151.172 312.015 151.912 313.437C152.096 313.792 152.167 314.193 152.167 314.592V315.404M152.167 315.404C150.367 314.843 149.213 314.758 148.256 315.213C146.987 315.816 147.038 317.887 148.401 318.228C149.378 318.473 150.491 318.02 152.167 316.82M152.167 315.404V316.82M152.167 318.82V316.82" stroke="#333333" stroke-width="1.6"/>
<path d="M156.667 322.333H154.5H154.333V320.833H156C156.61 320.246 156.852 319.765 157.167 318.667L154 311.667H155.833L158.167 316.667L159.833 311.667H161.667L158.333 320C157.786 321.228 157.417 321.753 156.667 322.333Z" fill="#333333" stroke="#333333" stroke-width="0.333333"/>
<path d="M87.3327 359C107.031 359 122.999 353.702 122.999 347.167C122.999 340.631 107.031 335.333 87.3327 335.333C67.6345 335.333 51.666 340.631 51.666 347.167C51.666 353.702 67.6345 359 87.3327 359Z" fill="url(#paint0_radial_45_14056)"/>
<path d="M51.769 326.538L51.5 318.333C56.5484 327.802 60.8386 331.065 69.8333 335V347C60.5154 342.679 55.6572 339.549 52.4401 330.367C52.0093 329.138 51.8117 327.841 51.769 326.538Z" fill="#838383" stroke="#838383" stroke-width="0.333333"/>
<path d="M122.565 326.705L122.834 318.5C117.786 327.969 113.829 331.065 104.834 335V347C114.151 342.68 118.715 339.696 121.897 330.535C122.324 329.304 122.522 328.007 122.565 326.705Z" fill="#838383" stroke="#838383" stroke-width="0.333333"/>
<path d="M104.667 335C90.6221 339.393 82.9793 339.34 70 335V347C83.4502 351.045 91.0385 351.139 104.667 347V335Z" fill="#636363" stroke="#636363" stroke-width="0.333333"/>
<path d="M51 327.5V315.333L51.5 317.333L51.8333 327.833C54.1667 337.667 59.5 342.833 70 347C80.2571 350.249 85.8164 350.558 95.5 349.333C102.988 347.955 107.164 346.509 114.5 341.667C119 338 122.129 332 122.5 327.5L122.833 317L123.5 315.333L123.167 329.167C120.478 336.948 118.113 340.839 110.667 346C101.401 350.632 95.7084 351.672 85 351.833C75.7579 351.101 70.5398 349.96 61 343.833C55.087 338.715 52.3578 335.475 51 327.5Z" fill="#636363" stroke="#636363" stroke-width="0.333333"/>
<path d="M123.834 311.667C123.834 319.056 119.748 325.761 113.114 330.624C106.48 335.487 97.3067 338.5 87.1671 338.5C77.0276 338.5 67.8546 335.487 61.2206 330.624C54.5864 325.761 50.5005 319.056 50.5005 311.667C50.5005 304.277 54.5864 297.572 61.2206 292.709C67.8546 287.846 77.0276 284.833 87.1671 284.833C97.3067 284.833 106.48 287.846 113.114 292.709C119.748 297.572 123.834 304.277 123.834 311.667Z" fill="#E8E8E8" stroke="#E8E8E8" stroke-width="0.333333"/>
<path d="M87.1673 337C106.957 337 123.001 325.658 123.001 311.667C123.001 297.676 106.957 286.333 87.1673 286.333C67.3771 286.333 51.334 297.676 51.334 311.667C51.334 325.658 67.3771 337 87.1673 337Z" fill="#D6D6D6"/>
<path d="M86.8347 332.333C102.943 332.333 116.001 323.453 116.001 312.5C116.001 301.546 102.943 292.667 86.8347 292.667C70.7263 292.667 57.668 301.546 57.668 312.5C57.668 323.453 70.7263 332.333 86.8347 332.333Z" fill="url(#paint1_linear_45_14056)"/>
<path d="M64.167 300.333C57.8332 305.5 56.6668 314.166 59.8337 320.333C58.4938 318.28 57.7851 316.954 56.8331 313.166C56.4236 308.366 57.181 305.663 60.1665 300.833C64.3047 296.137 66.8919 294.183 71.9998 292.166C79.1334 289.722 83.2647 289.057 90.8331 289.333C96.7606 290.104 100.275 291.198 107 294.5C113.374 299.121 114.92 302.076 116.833 307.5C117.609 310.891 117.626 312.688 116.666 315.666L114.166 320.333C115.729 317.023 116.169 315.414 116 313C115.166 307.166 113.7 303.496 108.166 299.166C103.764 295.728 100.792 294.262 93.8331 293.166C89.1079 292.565 86.3501 292.397 80.8332 293C73.8876 293.892 70.229 295.394 64.167 300.333Z" fill="#868686" stroke="#868686" stroke-width="0.333333"/>
<path d="M64.0013 326C60.9277 323.351 59.4459 321.548 57.668 317.167L59.5013 320.333C62.0454 323.903 63.3664 325.004 65.668 326.5C70.796 329.71 74.1508 331.037 81.168 332.333C89.7504 333.197 94.3702 332.558 102.335 329.667C106.674 327.87 109.004 326.413 112.835 322.5C114.261 320.76 114.914 319.72 116.001 317.833C114.938 320.076 114.355 321.051 113.335 322.5C109.016 327.24 106.194 329.43 100.001 332C94.3725 333.815 90.9993 334.349 84.5013 334.167C76.6652 333.359 69.168 330.833 64.0013 326Z" fill="white" stroke="white" stroke-width="0.333333"/>
<path d="M86.834 340.333C87.6624 340.333 88.334 339.512 88.334 338.5C88.334 337.487 87.6624 336.667 86.834 336.667C86.0056 336.667 85.334 337.487 85.334 338.5C85.334 339.512 86.0056 340.333 86.834 340.333Z" fill="white"/>
<path d="M87.334 287.666C87.8863 287.666 88.334 286.845 88.334 285.833C88.334 284.82 87.8863 284 87.334 284C86.7817 284 86.334 284.82 86.334 285.833C86.334 286.845 86.7817 287.666 87.334 287.666Z" fill="white"/>
<path d="M102.41 295.177H71.9664C64.3133 299.485 61.2612 302.334 58.8469 308.464C57.561 314.76 58.3593 317.194 60.1925 321.247C63.9607 325.489 66.3519 327.227 70.9572 329.489H103.251L107.624 327.302C115.382 321.868 117.354 318.017 115.866 309.473C114.857 303.923 110.405 299.109 102.41 295.177Z" fill="url(#paint2_linear_45_14056)"/>
<path d="M51.4453 318.052C53.7148 323.658 55.7158 325.861 59.5188 329.489H51.9499L51.4453 327.807V318.052Z" fill="#8A8A8A" stroke="#8A8A8A" stroke-width="0.333333"/>
<path d="M50.9997 327.5L50.7734 314.183L51.4462 318.051L51.4997 327.5L52.1663 329.5H51.333L50.9997 327.5Z" fill="#707070" stroke="#707070" stroke-width="0.333333"/>
<path d="M60.1918 295.177H57.6688C53.8988 299.455 52.5763 301.689 51.4455 305.437C50.6551 308.375 50.1645 311.149 50.666 314.333C51.7283 321.072 54.0813 324.172 59.666 329.489H62.042C60.9713 328.837 60.3688 328.458 59.1827 327.302C52.4137 320.244 49.9318 313.174 52.4546 305.437C54.4102 301.126 56.0484 298.865 60.1918 295.177Z" fill="#E8E8E8" stroke="#E8E8E8" stroke-width="0.333333"/>
<path d="M66.0828 295.177H60.1959C53.6329 300.895 50.6696 306.842 51.7845 313.847C52.6255 320.406 58.3443 327.471 62.0446 329.489H68.6043C61.0354 324.443 57.3541 319.844 56.8319 313.342C56.4737 305.472 58.4491 301.484 66.0828 295.177Z" fill="#D6D6D6" stroke="#D6D6D6" stroke-width="0.333333"/>
<path d="M72.1333 295.177H66.0782C63.5455 297.33 62.4275 298.481 60.6972 300.391C57.7434 304.116 56.8038 306.573 56.8286 311.828C57.221 315.614 58.1398 317.605 60.1922 321.079C58.7224 318.031 58.1717 316.333 58.1729 313.342C58.3481 305.453 62.2106 300.391 72.1333 295.177Z" fill="#868686" stroke="#868686" stroke-width="0.333333"/>
<path d="M71.499 329.667L68.9377 329.489C65.0043 327.145 63.0586 325.471 59.8324 321.333C58.3274 318.729 57.7451 317.471 57.332 315.192C58.0269 317.557 58.6692 318.943 59.999 321.167C64.0423 325.736 66.7425 327.66 71.499 329.667Z" fill="white" stroke="white" stroke-width="0.333333"/>
<path d="M123.098 318.052C120.828 323.658 118.827 325.861 115.024 329.489H122.593L123.098 327.807V318.052Z" fill="#868686" stroke="#868686" stroke-width="0.333333"/>
<path d="M123.166 328L123.77 314.183L122.832 318.167L122.499 327.833L122.166 329.5H123.097L123.166 328Z" fill="#707070" stroke="#707070" stroke-width="0.333333"/>
<path d="M114.351 295.177H116.874C120.644 299.455 121.966 301.689 123.097 305.437C123.888 308.375 124.003 310.37 123.77 314.351C122.708 321.09 120.44 324.341 114.855 329.657L112.501 329.489C113.571 328.837 114.174 328.458 115.36 327.302C122.129 320.244 124.611 313.174 122.088 305.437C120.132 301.126 118.494 298.865 114.351 295.177Z" fill="#E8E8E8" stroke="#E8E8E8" stroke-width="0.333333"/>
<path d="M108.46 295.177H114.347C120.91 300.895 123.873 306.842 122.758 313.847C121.917 320.406 116.199 327.471 112.498 329.489H105.939C113.508 324.443 117.189 319.844 117.711 313.342C118.069 305.472 116.094 301.484 108.46 295.177Z" fill="#D6D6D6" stroke="#D6D6D6" stroke-width="0.333333"/>
<path d="M102.41 295.177H108.465C110.997 297.33 112.115 298.481 113.846 300.391C116.8 304.116 117.739 306.573 117.714 311.828C117.322 315.614 116.403 317.605 114.351 321.079C115.821 318.031 116.371 316.333 116.37 313.342C116.195 305.453 112.332 300.391 102.41 295.177Z" fill="#868686" stroke="#868686" stroke-width="0.333333"/>
<path d="M103.25 329.489H105.605C109.539 327.145 111.63 325.553 114.856 321.415C116.361 318.811 116.798 317.471 117.211 315.192C116.516 317.557 115.85 318.855 114.52 321.079C110.476 325.648 108.007 327.483 103.25 329.489Z" fill="white" stroke="white" stroke-width="0.333333"/>
<path d="M312.667 224.333H181.333C174.522 224.333 169 229.855 169 236.666V246.333C169 253.145 174.522 258.666 181.333 258.666H312.667C319.478 258.666 325 253.145 325 246.333V236.666C325 229.855 319.478 224.333 312.667 224.333Z" fill="white"/>
<path d="M273.334 247.167V238H277.334C282.667 238.5 282.501 246.667 277.167 247.167H273.334Z" stroke="#333333" stroke-width="1.6"/>
<path d="M284.667 241.82C287.232 240.754 288.172 241.015 288.912 242.438C289.096 242.792 289.167 243.193 289.167 243.592V244.404M289.167 244.404C287.367 243.844 286.213 243.758 285.256 244.214C283.987 244.817 284.038 246.887 285.401 247.229C286.378 247.474 287.491 247.02 289.167 245.82M289.167 244.404V245.82M289.167 247.82V245.82" stroke="#333333" stroke-width="1.6"/>
<path d="M293.667 251.333H291.5H291.333V249.833H293C293.61 249.246 293.852 248.765 294.167 247.667L291 240.667H292.833L295.167 245.667L296.833 240.667H298.667L295.333 249C294.786 250.228 294.417 250.753 293.667 251.333Z" fill="#333333" stroke="#333333" stroke-width="0.333333"/>
<path d="M224.333 288C244.031 288 260 282.702 260 276.167C260 269.631 244.031 264.333 224.333 264.333C204.635 264.333 188.667 269.631 188.667 276.167C188.667 282.702 204.635 288 224.333 288Z" fill="url(#paint3_radial_45_14056)"/>
<path d="M188.769 255.538L188.5 247.333C193.548 256.802 197.839 260.065 206.833 264V276C197.515 271.679 192.657 268.549 189.44 259.367C189.009 258.138 188.812 256.841 188.769 255.538Z" fill="#838383" stroke="#838383" stroke-width="0.333333"/>
<path d="M259.565 255.705L259.834 247.5C254.786 256.969 250.829 260.065 241.834 264V276C251.151 271.68 255.715 268.696 258.897 259.535C259.324 258.304 259.522 257.007 259.565 255.705Z" fill="#838383" stroke="#838383" stroke-width="0.333333"/>
<path d="M241.667 264C227.622 268.393 219.979 268.34 207 264V276C220.45 280.045 228.038 280.139 241.667 276V264Z" fill="#636363" stroke="#636363" stroke-width="0.333333"/>
<path d="M188 256.5V244.333L188.5 246.333L188.833 256.833C191.167 266.667 196.5 271.833 207 276C217.257 279.249 222.816 279.558 232.5 278.333C239.988 276.955 244.164 275.509 251.5 270.667C256 267 259.129 261 259.5 256.5L259.833 246L260.5 244.333L260.167 258.167C257.478 265.948 255.113 269.839 247.667 275C238.401 279.632 232.708 280.672 222 280.833C212.758 280.101 207.54 278.96 198 272.833C192.087 267.715 189.358 264.475 188 256.5Z" fill="#636363" stroke="#636363" stroke-width="0.333333"/>
<path d="M260.834 240.667C260.834 248.056 256.748 254.761 250.114 259.624C243.48 264.487 234.307 267.5 224.167 267.5C214.028 267.5 204.855 264.487 198.221 259.624C191.587 254.761 187.501 248.056 187.501 240.667C187.501 233.277 191.587 226.572 198.221 221.709C204.855 216.846 214.028 213.833 224.167 213.833C234.307 213.833 243.48 216.846 250.114 221.709C256.748 226.572 260.834 233.277 260.834 240.667Z" fill="#E8E8E8" stroke="#E8E8E8" stroke-width="0.333333"/>
<path d="M224.167 266C243.957 266 260 254.658 260 240.667C260 226.676 243.957 215.333 224.167 215.333C204.377 215.333 188.333 226.676 188.333 240.667C188.333 254.658 204.377 266 224.167 266Z" fill="#D6D6D6"/>
<path d="M223.835 261.333C239.943 261.333 253.002 252.453 253.002 241.5C253.002 230.546 239.943 221.667 223.835 221.667C207.727 221.667 194.668 230.546 194.668 241.5C194.668 252.453 207.727 261.333 223.835 261.333Z" fill="url(#paint4_linear_45_14056)"/>
<path d="M201.167 229.333C194.833 234.5 193.667 243.166 196.834 249.333C195.494 247.28 194.785 245.954 193.833 242.166C193.424 237.366 194.181 234.663 197.166 229.833C201.305 225.137 203.892 223.183 209 221.166C216.133 218.722 220.265 218.057 227.833 218.333C233.761 219.104 237.275 220.198 244 223.5C250.374 228.121 251.92 231.076 253.833 236.5C254.609 239.891 254.626 241.688 253.666 244.666L251.166 249.333C252.729 246.023 253.169 244.414 253 242C252.166 236.166 250.7 232.496 245.166 228.166C240.764 224.728 237.792 223.262 230.833 222.166C226.108 221.565 223.35 221.397 217.833 222C210.888 222.892 207.229 224.394 201.167 229.333Z" fill="#868686" stroke="#868686" stroke-width="0.333333"/>
<path d="M201.001 255C197.928 252.351 196.446 250.548 194.668 246.167L196.501 249.333C199.045 252.903 200.366 254.004 202.668 255.5C207.796 258.71 211.151 260.037 218.168 261.333C226.75 262.197 231.37 261.558 239.335 258.667C243.674 256.87 246.004 255.413 249.835 251.5C251.261 249.76 251.914 248.72 253.001 246.833C251.938 249.076 251.355 250.051 250.335 251.5C246.016 256.24 243.194 258.43 237.001 261C231.373 262.815 227.999 263.349 221.501 263.167C213.665 262.359 206.168 259.833 201.001 255Z" fill="white" stroke="white" stroke-width="0.333333"/>
<path d="M223.834 269.333C224.662 269.333 225.334 268.512 225.334 267.5C225.334 266.487 224.662 265.667 223.834 265.667C223.006 265.667 222.334 266.487 222.334 267.5C222.334 268.512 223.006 269.333 223.834 269.333Z" fill="white"/>
<path d="M224.334 216.666C224.886 216.666 225.334 215.845 225.334 214.833C225.334 213.82 224.886 213 224.334 213C223.782 213 223.334 213.82 223.334 214.833C223.334 215.845 223.782 216.666 224.334 216.666Z" fill="white"/>
<path d="M239.41 224.177H208.966C201.313 228.485 198.261 231.334 195.847 237.464C194.561 243.76 195.359 246.194 197.192 250.247C200.961 254.489 203.352 256.227 207.957 258.489H240.251L244.624 256.302C252.382 250.868 254.354 247.017 252.866 238.473C251.857 232.923 247.405 228.109 239.41 224.177Z" fill="url(#paint5_linear_45_14056)"/>
<path d="M188.445 247.052C190.715 252.658 192.716 254.861 196.519 258.489H188.95L188.445 256.807V247.052Z" fill="#8A8A8A" stroke="#8A8A8A" stroke-width="0.333333"/>
<path d="M188 256.5L187.773 243.183L188.446 247.051L188.5 256.5L189.166 258.5H188.333L188 256.5Z" fill="#707070" stroke="#707070" stroke-width="0.333333"/>
<path d="M197.192 224.177H194.669C190.899 228.455 189.576 230.689 188.445 234.437C187.655 237.375 187.164 240.149 187.666 243.333C188.728 250.072 191.081 253.172 196.666 258.489H199.042C197.971 257.837 197.369 257.458 196.183 256.302C189.414 249.244 186.932 242.174 189.455 234.437C191.41 230.126 193.048 227.865 197.192 224.177Z" fill="#E8E8E8" stroke="#E8E8E8" stroke-width="0.333333"/>
<path d="M203.083 224.177H197.196C190.633 229.895 187.67 235.842 188.785 242.847C189.626 249.406 195.344 256.471 199.045 258.489H205.604C198.035 253.443 194.354 248.844 193.832 242.342C193.474 234.472 195.449 230.484 203.083 224.177Z" fill="#D6D6D6" stroke="#D6D6D6" stroke-width="0.333333"/>
<path d="M209.133 224.177H203.078C200.546 226.33 199.428 227.481 197.697 229.391C194.743 233.116 193.804 235.573 193.829 240.828C194.221 244.614 195.14 246.605 197.192 250.079C195.722 247.031 195.172 245.333 195.173 242.342C195.348 234.453 199.211 229.391 209.133 224.177Z" fill="#868686" stroke="#868686" stroke-width="0.333333"/>
<path d="M208.499 258.667L205.938 258.489C202.004 256.145 200.059 254.471 196.832 250.333C195.327 247.729 194.745 246.471 194.332 244.192C195.027 246.557 195.669 247.943 196.999 250.167C201.042 254.736 203.743 256.66 208.499 258.667Z" fill="white" stroke="white" stroke-width="0.333333"/>
<path d="M260.098 247.052C257.828 252.658 255.827 254.861 252.024 258.489H259.593L260.098 256.807V247.052Z" fill="#868686" stroke="#868686" stroke-width="0.333333"/>
<path d="M260.166 257L260.77 243.183L259.832 247.167L259.499 256.833L259.166 258.5H260.097L260.166 257Z" fill="#707070" stroke="#707070" stroke-width="0.333333"/>
<path d="M251.351 224.177H253.874C257.644 228.455 258.966 230.689 260.097 234.437C260.888 237.375 261.003 239.37 260.77 243.351C259.708 250.09 257.44 253.341 251.855 258.657L249.501 258.489C250.571 257.837 251.174 257.458 252.36 256.302C259.129 249.244 261.611 242.174 259.088 234.437C257.132 230.126 255.494 227.865 251.351 224.177Z" fill="#E8E8E8" stroke="#E8E8E8" stroke-width="0.333333"/>
<path d="M245.46 224.177H251.347C257.91 229.895 260.873 235.842 259.758 242.847C258.917 249.406 253.199 256.471 249.498 258.489H242.939C250.508 253.443 254.189 248.844 254.711 242.342C255.069 234.472 253.094 230.484 245.46 224.177Z" fill="#D6D6D6" stroke="#D6D6D6" stroke-width="0.333333"/>
<path d="M239.41 224.177H245.465C247.997 226.33 249.115 227.481 250.846 229.391C253.8 233.116 254.739 235.573 254.714 240.828C254.322 244.614 253.403 246.605 251.351 250.079C252.821 247.031 253.371 245.333 253.37 242.342C253.195 234.453 249.332 229.391 239.41 224.177Z" fill="#868686" stroke="#868686" stroke-width="0.333333"/>
<path d="M240.25 258.489H242.605C246.539 256.145 248.63 254.553 251.856 250.415C253.361 247.811 253.798 246.471 254.211 244.192C253.516 246.557 252.85 247.855 251.52 250.079C247.476 254.648 245.007 256.483 240.25 258.489Z" fill="white" stroke="white" stroke-width="0.333333"/>
<path d="M175.667 147.333H44.3333C37.5218 147.333 32 152.855 32 159.666V169.333C32 176.145 37.5218 181.666 44.3333 181.666H175.667C182.478 181.666 188 176.145 188 169.333V159.666C188 152.855 182.478 147.333 175.667 147.333Z" fill="#BD3161"/>
<path d="M136.334 170.167V161H140.334C145.667 161.5 145.501 169.667 140.167 170.167H136.334Z" stroke="white" stroke-width="1.6"/>
<path d="M147.667 164.82C150.232 163.754 151.172 164.015 151.912 165.438C152.096 165.792 152.167 166.193 152.167 166.592V167.404M152.167 167.404C150.367 166.844 149.213 166.758 148.256 167.214C146.987 167.817 147.038 169.887 148.401 170.229C149.378 170.474 150.491 170.02 152.167 168.82M152.167 167.404V168.82M152.167 170.82V168.82" stroke="white" stroke-width="1.6"/>
<path d="M156.667 174.333H154.5H154.333V172.833H156C156.61 172.246 156.852 171.765 157.167 170.667L154 163.667H155.833L158.167 168.667L159.833 163.667H161.667L158.333 172C157.786 173.228 157.417 173.753 156.667 174.333Z" fill="white" stroke="white" stroke-width="0.333333"/>
<path d="M87.3327 211C107.031 211 122.999 205.702 122.999 199.167C122.999 192.631 107.031 187.333 87.3327 187.333C67.6345 187.333 51.666 192.631 51.666 199.167C51.666 205.702 67.6345 211 87.3327 211Z" fill="url(#paint6_radial_45_14056)"/>
<path d="M175.667 21.6665H44.3333C37.5218 21.6665 32 27.1883 32 33.9998V43.3332C32 50.1447 37.5218 55.6665 44.3333 55.6665H175.667C182.478 55.6665 188 50.1447 188 43.3332V33.9998C188 27.1883 182.478 21.6665 175.667 21.6665Z" fill="#BD3161"/>
<path d="M134.666 44.1667V35H138.666C143.999 35.5 143.833 43.6667 138.499 44.1667H134.666Z" stroke="white" stroke-width="1.6"/>
<path d="M145.999 38.8202C148.564 37.7537 149.504 38.015 150.244 39.4374C150.428 39.7917 150.499 40.1926 150.499 40.5919V41.4035M150.499 41.4035C148.699 40.8433 147.546 40.758 146.588 41.2134C145.319 41.8164 145.37 43.8868 146.733 44.2284C147.71 44.4734 148.823 44.0202 150.499 42.8202M150.499 41.4035V42.8202M150.499 44.8202V42.8202" stroke="white" stroke-width="1.6"/>
<path d="M154.999 48.3332H152.832H152.665V46.8332H154.332C154.942 46.2456 155.184 45.7647 155.499 44.6665L152.332 37.6665H154.165L156.499 42.6665L158.165 37.6665H159.999L156.665 45.9999C156.118 47.2277 155.749 47.7532 154.999 48.3332Z" fill="white" stroke="white" stroke-width="0.333333"/>
<path d="M85.9987 80.9996C105.697 80.9996 121.665 75.7017 121.665 69.1663C121.665 62.631 105.697 57.333 85.9987 57.333C66.3006 57.333 50.332 62.631 50.332 69.1663C50.332 75.7017 66.3006 80.9996 85.9987 80.9996Z" fill="url(#paint7_radial_45_14056)"/>
<path d="M50.435 48.5381L50.166 40.333C55.2145 49.8016 59.5046 53.0643 68.4993 56.9997V68.9997C59.1814 64.6791 54.3232 61.5483 51.1061 52.3669C50.6753 51.1373 50.4777 49.8403 50.435 48.5381Z" fill="#C57509" stroke="#C57509" stroke-width="0.333333"/>
<path d="M121.231 48.7051L121.5 40.5C116.452 49.9686 112.495 53.0646 103.5 57V69C112.817 64.6799 117.381 61.6961 120.563 52.5347C120.99 51.304 121.188 50.0073 121.231 48.7051Z" fill="#C57509" stroke="#C57509" stroke-width="0.333333"/>
<path d="M103.333 57C89.2881 61.3933 81.6453 61.3402 68.666 57V69C82.1163 73.0449 89.7045 73.1392 103.333 69V57Z" fill="#9B4C01" stroke="#9B4C01" stroke-width="0.333333"/>
<path d="M49.666 49.5001V37.3335L50.166 39.3335L50.4993 49.8335C52.8327 59.6668 58.166 64.8335 68.666 69.0001C78.9231 72.2489 84.4825 72.5584 94.166 71.3335C101.654 69.9553 105.83 68.5089 113.166 63.6668C117.666 60.0001 120.795 54.0001 121.166 49.5001L121.499 39.0001L122.166 37.3335L121.833 51.1668C119.144 58.9477 116.779 62.839 109.333 68.0001C100.067 72.6325 94.3744 73.6724 83.666 73.8335C74.424 73.1017 69.2059 71.9602 59.666 65.8335C53.7531 60.7155 51.0238 57.4752 49.666 49.5001Z" fill="#AB6004" stroke="#AB6004" stroke-width="0.333333"/>
<path d="M122.5 33.6663C122.5 41.0563 118.414 47.7607 111.78 52.6238C105.146 57.4867 95.9727 60.4996 85.8331 60.4996C75.6936 60.4996 66.5206 57.4867 59.8866 52.6238C53.2524 47.7607 49.1665 41.0563 49.1665 33.6663C49.1665 26.2763 53.2524 19.5719 59.8866 14.7088C66.5206 9.8459 75.6936 6.83301 85.8331 6.83301C95.9727 6.83301 105.146 9.8459 111.78 14.7088C118.414 19.5719 122.5 26.2763 122.5 33.6663Z" fill="#FFED8B" stroke="#FFED8B" stroke-width="0.333333"/>
<path d="M85.8333 59.0001C105.623 59.0001 121.667 47.658 121.667 33.6668C121.667 19.6756 105.623 8.3335 85.8333 8.3335C66.0431 8.3335 50 19.6756 50 33.6668C50 47.658 66.0431 59.0001 85.8333 59.0001Z" fill="#FFDD40"/>
<path d="M85.5007 54.3331C101.609 54.3331 114.667 45.4534 114.667 34.4998C114.667 23.5462 101.609 14.6665 85.5007 14.6665C69.3924 14.6665 56.334 23.5462 56.334 34.4998C56.334 45.4534 69.3924 54.3331 85.5007 54.3331Z" fill="url(#paint8_linear_45_14056)"/>
<path d="M62.833 22.3329C56.4992 27.4996 55.3328 36.1662 58.4997 42.3329C57.1598 40.2799 56.4511 38.9534 55.4992 35.1663C55.0896 30.3655 55.847 27.6625 58.8325 22.8329C62.9707 18.1364 65.5579 16.1829 70.6658 14.1663C77.7994 11.7216 81.9307 11.0564 89.4992 11.3329C95.4267 12.1039 98.941 13.1975 105.666 16.4996C112.04 21.1207 113.586 24.0761 115.499 29.4996C116.275 32.891 116.292 34.6874 115.333 37.6663L112.833 42.3329C114.395 39.023 114.835 37.4135 114.666 34.9996C113.833 29.1663 112.366 25.4955 106.833 21.1663C102.43 17.7278 99.4581 16.2617 92.4992 15.1662C87.7739 14.565 85.0161 14.397 79.4992 14.9996C72.5537 15.8916 68.895 17.3939 62.833 22.3329Z" fill="#CA7A11" stroke="#CA7A11" stroke-width="0.333333"/>
<path d="M62.6673 47.9998C59.5937 45.3506 58.1119 43.5475 56.334 39.1665L58.1673 42.3332C60.7114 45.9025 62.0325 47.0043 64.334 48.4998C69.462 51.7096 72.8168 53.0375 79.834 54.3332C88.4164 55.1974 93.0362 54.5583 101.001 51.6665C105.34 49.8704 107.67 48.4134 111.501 44.4998C112.927 42.7596 113.58 41.7199 114.667 39.8332C113.604 42.0755 113.021 43.0505 112.001 44.4998C107.682 49.2395 104.86 51.4305 98.6673 53.9998C93.0385 55.8149 89.6653 56.3493 83.1673 56.1665C75.3312 55.3592 67.834 52.8332 62.6673 47.9998Z" fill="white" stroke="white" stroke-width="0.333333"/>
<path d="M312.667 79.3335H181.333C174.522 79.3335 169 84.8553 169 91.6668V101.333C169 108.145 174.522 113.667 181.333 113.667H312.667C319.478 113.667 325 108.145 325 101.333V91.6668C325 84.8553 319.478 79.3335 312.667 79.3335Z" fill="#BD3161"/>
<path d="M273.334 102.167V93H277.334C282.667 93.5 282.501 101.667 277.167 102.167H273.334Z" stroke="white" stroke-width="1.6"/>
<path d="M284.667 96.8207C287.232 95.7542 288.172 96.0154 288.912 97.4379C289.096 97.7922 289.167 98.193 289.167 98.5923V99.404M289.167 99.404C287.367 98.8437 286.213 98.7584 285.256 99.2138C283.987 99.8168 284.038 101.887 285.401 102.229C286.378 102.474 287.491 102.02 289.167 100.82M289.167 99.404V100.82M289.167 102.82V100.82" stroke="white" stroke-width="1.6"/>
<path d="M293.667 106.333H291.5H291.333V104.833H293C293.61 104.246 293.852 103.765 294.167 102.667L291 95.6665H292.833L295.167 100.667L296.833 95.6665H298.667L295.333 104C294.786 105.228 294.417 105.753 293.667 106.333Z" fill="white" stroke="white" stroke-width="0.333333"/>
<path d="M224.333 143C244.031 143 260 137.702 260 131.167C260 124.631 244.031 119.333 224.333 119.333C204.635 119.333 188.667 124.631 188.667 131.167C188.667 137.702 204.635 143 224.333 143Z" fill="url(#paint9_radial_45_14056)"/>
<path d="M223.999 143.333C243.697 143.333 259.666 138.035 259.666 131.5C259.666 124.964 243.697 119.667 223.999 119.667C204.301 119.667 188.333 124.964 188.333 131.5C188.333 138.035 204.301 143.333 223.999 143.333Z" fill="url(#paint10_radial_45_14056)"/>
<path d="M188.435 110.872L188.166 102.667C193.214 112.135 197.505 115.398 206.499 119.333V131.333C197.181 127.013 192.323 123.882 189.106 114.7C188.675 113.471 188.478 112.174 188.435 110.872Z" fill="#C57509" stroke="#C57509" stroke-width="0.333333"/>
<path d="M259.231 111.039L259.5 102.833C254.452 112.302 250.495 115.398 241.5 119.333V131.333C250.817 127.013 255.381 124.03 258.563 114.868C258.99 113.637 259.188 112.341 259.231 111.039Z" fill="#C57509" stroke="#C57509" stroke-width="0.333333"/>
<path d="M241.333 119.333C227.288 123.727 219.645 123.674 206.666 119.333V131.333C220.116 135.378 227.704 135.473 241.333 131.333V119.333Z" fill="#9B4C01" stroke="#9B4C01" stroke-width="0.333333"/>
<path d="M187.666 111.833V99.6665L188.166 101.667L188.499 112.167C190.833 122 196.166 127.167 206.666 131.333C216.923 134.582 222.482 134.892 232.166 133.667C239.654 132.289 243.83 130.842 251.166 126C255.666 122.333 258.795 116.333 259.166 111.833L259.499 101.333L260.166 99.6665L259.833 113.5C257.144 121.281 254.779 125.172 247.333 130.333C238.067 134.966 232.374 136.006 221.666 136.167C212.424 135.435 207.206 134.293 197.666 128.167C191.753 123.049 189.024 119.809 187.666 111.833Z" fill="#AB6004" stroke="#AB6004" stroke-width="0.333333"/>
<path d="M260.5 95.9998C260.5 103.39 256.414 110.094 249.78 114.957C243.146 119.82 233.973 122.833 223.833 122.833C213.694 122.833 204.521 119.82 197.887 114.957C191.253 110.094 187.167 103.39 187.167 95.9998C187.167 88.6098 191.253 81.9054 197.887 77.0423C204.521 72.1794 213.694 69.1665 223.833 69.1665C233.973 69.1665 243.146 72.1794 249.78 77.0423C256.414 81.9054 260.5 88.6098 260.5 95.9998Z" fill="#FFED8B" stroke="#FFED8B" stroke-width="0.333333"/>
<path d="M223.833 121.334C243.623 121.334 259.666 109.991 259.666 96.0003C259.666 82.0091 243.623 70.667 223.833 70.667C204.043 70.667 188 82.0091 188 96.0003C188 109.991 204.043 121.334 223.833 121.334Z" fill="#FFDD40"/>
<path d="M223.501 116.667C239.609 116.667 252.668 107.787 252.668 96.8333C252.668 85.8797 239.609 77 223.501 77C207.393 77 194.334 85.8797 194.334 96.8333C194.334 107.787 207.393 116.667 223.501 116.667Z" fill="url(#paint11_linear_45_14056)"/>
<path d="M200.833 84.6664C194.499 89.833 193.333 98.4997 196.5 104.667C195.16 102.614 194.451 101.287 193.499 97.4998C193.09 92.699 193.847 89.996 196.832 85.1664C200.971 80.4699 203.558 78.5164 208.666 76.4998C215.799 74.0551 219.931 73.3899 227.499 73.6664C233.427 74.4374 236.941 75.531 243.666 78.8331C250.04 83.4541 251.586 86.4096 253.499 91.8331C254.275 95.2245 254.292 97.0209 253.333 99.9998L250.833 104.667C252.395 101.357 252.835 99.747 252.666 97.3331C251.833 91.4998 250.366 87.829 244.833 83.4998C240.43 80.0613 237.458 78.5952 230.499 77.4997C225.774 76.8985 223.016 76.7305 217.499 77.3331C210.554 78.2251 206.895 79.7274 200.833 84.6664Z" fill="#CA7A11" stroke="#CA7A11" stroke-width="0.333333"/>
<path d="M200.667 110.333C197.594 107.684 196.112 105.881 194.334 101.5L196.167 104.667C198.711 108.236 200.032 109.338 202.334 110.833C207.462 114.043 210.817 115.371 217.834 116.667C226.416 117.531 231.036 116.892 239.001 114C243.34 112.204 245.67 110.747 249.501 106.833C250.927 105.093 251.58 104.053 252.667 102.167C251.604 104.409 251.021 105.384 250.001 106.833C245.682 111.573 242.86 113.764 236.667 116.333C231.039 118.148 227.665 118.683 221.167 118.5C213.331 117.693 205.834 115.167 200.667 110.333Z" fill="white" stroke="white" stroke-width="0.333333"/>
<path d="M86.9987 211.333C106.697 211.333 122.665 206.035 122.665 199.5C122.665 192.964 106.697 187.667 86.9987 187.667C67.3006 187.667 51.332 192.964 51.332 199.5C51.332 206.035 67.3006 211.333 86.9987 211.333Z" fill="url(#paint12_radial_45_14056)"/>
<path d="M51.435 178.872L51.166 170.667C56.2145 180.135 60.5046 183.398 69.4993 187.333V199.333C60.1814 195.013 55.3232 191.882 52.1061 182.7C51.6753 181.471 51.4777 180.174 51.435 178.872Z" fill="#C57509" stroke="#C57509" stroke-width="0.333333"/>
<path d="M122.231 179.039L122.5 170.833C117.452 180.302 113.495 183.398 104.5 187.333V199.333C113.817 195.013 118.381 192.03 121.563 182.868C121.99 181.637 122.188 180.341 122.231 179.039Z" fill="#C57509" stroke="#C57509" stroke-width="0.333333"/>
<path d="M104.333 187.333C90.2881 191.727 82.6453 191.674 69.666 187.333V199.333C83.1163 203.378 90.7045 203.473 104.333 199.333V187.333Z" fill="#9B4C01" stroke="#9B4C01" stroke-width="0.333333"/>
<path d="M50.666 179.833V167.667L51.166 169.667L51.4993 180.167C53.8327 190 59.166 195.167 69.666 199.333C79.9231 202.582 85.4825 202.892 95.166 201.667C102.654 200.289 106.83 198.842 114.166 194C118.666 190.333 121.795 184.333 122.166 179.833L122.499 169.333L123.166 167.667L122.833 181.5C120.144 189.281 117.779 193.172 110.333 198.333C101.067 202.966 95.3744 204.006 84.666 204.167C75.424 203.435 70.2059 202.293 60.666 196.167C54.7531 191.049 52.0238 187.809 50.666 179.833Z" fill="#AB6004" stroke="#AB6004" stroke-width="0.333333"/>
<path d="M123.5 164C123.5 171.39 119.414 178.094 112.78 182.957C106.146 187.82 96.9727 190.833 86.8331 190.833C76.6936 190.833 67.5206 187.82 60.8866 182.957C54.2524 178.094 50.1665 171.39 50.1665 164C50.1665 156.61 54.2524 149.906 60.8866 145.043C67.5206 140.18 76.6936 137.167 86.8331 137.167C96.9727 137.167 106.146 140.18 112.78 145.043C119.414 149.906 123.5 156.61 123.5 164Z" fill="#FFED8B" stroke="#FFED8B" stroke-width="0.333333"/>
<path d="M86.8333 189.333C106.623 189.333 122.667 177.991 122.667 164C122.667 150.009 106.623 138.667 86.8333 138.667C67.0431 138.667 51 150.009 51 164C51 177.991 67.0431 189.333 86.8333 189.333Z" fill="#FFDD40"/>
<path d="M86.5007 184.666C102.609 184.666 115.667 175.786 115.667 164.833C115.667 153.879 102.609 145 86.5007 145C70.3924 145 57.334 153.879 57.334 164.833C57.334 175.786 70.3924 184.666 86.5007 184.666Z" fill="url(#paint13_linear_45_14056)"/>
<path d="M63.833 152.667C57.4992 157.833 56.3328 166.5 59.4997 172.667C58.1598 170.614 57.4511 169.287 56.4992 165.5C56.0896 160.699 56.847 157.996 59.8325 153.167C63.9707 148.47 66.5579 146.517 71.6658 144.5C78.7994 142.055 82.9307 141.39 90.4992 141.667C96.4267 142.438 99.941 143.531 106.666 146.833C113.04 151.454 114.586 154.41 116.499 159.833C117.275 163.225 117.292 165.021 116.333 168L113.833 172.667C115.395 169.357 115.835 167.747 115.666 165.333C114.833 159.5 113.366 155.829 107.833 151.5C103.43 148.061 100.458 146.595 93.4992 145.5C88.7739 144.899 86.0161 144.731 80.4992 145.333C73.5537 146.225 69.895 147.728 63.833 152.667Z" fill="#CA7A11" stroke="#CA7A11" stroke-width="0.333333"/>
<path d="M63.6673 178.333C60.5937 175.684 59.1119 173.881 57.334 169.5L59.1673 172.667C61.7114 176.236 63.0325 177.338 65.334 178.833C70.462 182.043 73.8168 183.371 80.834 184.667C89.4164 185.531 94.0362 184.892 102.001 182C106.34 180.204 108.67 178.747 112.501 174.833C113.927 173.093 114.58 172.053 115.667 170.167C114.604 172.409 114.021 173.384 113.001 174.833C108.682 179.573 105.86 181.764 99.6673 184.333C94.0385 186.148 90.6653 186.683 84.1673 186.5C76.3312 185.693 68.834 183.167 63.6673 178.333Z" fill="white" stroke="white" stroke-width="0.333333"/>
<path d="M85.5 62.3337C86.3284 62.3337 87 61.5128 87 60.5003C87 59.4878 86.3284 58.667 85.5 58.667C84.6716 58.667 84 59.4878 84 60.5003C84 61.5128 84.6716 62.3337 85.5 62.3337Z" fill="white"/>
<path d="M86 9.66666C86.5523 9.66666 87 8.84585 87 7.83333C87 6.82081 86.5523 6 86 6C85.4477 6 85 6.82081 85 7.83333C85 8.84585 85.4477 9.66666 86 9.66666Z" fill="white"/>
<path d="M164.68 38.6531L167.2 36.9388V46H170V34H167.2L163 37.4286L164.68 38.6531Z" fill="white"/>
<path d="M303.222 95.197H305.66C305.66 93.5419 307.211 92.8325 308.097 93.7783C308.435 94.1387 308.762 94.9606 308.097 95.9064L303 100.635V103H310.979V100.635H306.546C308.538 98.6976 310.954 96.6158 310.979 96.1428C311.012 95.4965 311.002 95.1341 310.979 94.4877C310.757 92.596 310.535 91.8867 308.762 91.1773C307.876 90.9409 307.211 90.9409 306.324 91.1773C304.551 91.6502 303.443 92.8325 303.222 95.197Z" fill="white"/>
<path d="M169.259 163.029H166.674C166.889 161.09 169.259 159.366 172.06 160.228C173.137 160.659 173.783 161.09 173.999 161.951V163.675C173.999 164.537 173.561 164.86 172.706 165.183C172.581 165.326 172.557 165.416 172.706 165.614C173.367 165.806 173.959 166.045 173.999 166.476C174.086 167.416 174.109 167.971 173.999 169.061C173.888 170.151 173.137 170.785 172.06 171H169.044C167.751 171 166.674 169.923 166.674 169.276V167.984H169.044C169.044 168.415 169.055 169.175 169.259 169.276C170.121 169.707 170.929 169.556 171.629 169.276C172.706 168.846 172.706 166.907 171.629 166.476H169.259V164.537C171.198 164.537 172.06 164.322 172.06 163.029C172.06 161.736 169.682 161.256 169.259 163.029Z" fill="white"/>
<path d="M307.88 237L302.6 244.44V246.36H308.12V249H310.28V246.36H312.2V244.44H310.52V237H307.88Z" fill="#333333"/>
<path d="M305.48 243.48L307.16 240.84H308.36V244.44H305.48V243.48Z" fill="white"/>
<path d="M223.834 124.333C224.662 124.333 225.334 123.512 225.334 122.5C225.334 121.487 224.662 120.667 223.834 120.667C223.006 120.667 222.334 121.487 222.334 122.5C222.334 123.512 223.006 124.333 223.834 124.333Z" fill="white"/>
<path d="M224.334 71.6667C224.886 71.6667 225.334 70.8458 225.334 69.8333C225.334 68.8208 224.886 68 224.334 68C223.782 68 223.334 68.8208 223.334 69.8333C223.334 70.8458 223.782 71.6667 224.334 71.6667Z" fill="white"/>
<path d="M86.834 192.333C87.6624 192.333 88.334 191.512 88.334 190.5C88.334 189.487 87.6624 188.667 86.834 188.667C86.0056 188.667 85.334 189.487 85.334 190.5C85.334 191.512 86.0056 192.333 86.834 192.333Z" fill="white"/>
<path d="M87.334 139.666C87.8863 139.666 88.334 138.845 88.334 137.833C88.334 136.82 87.8863 136 87.334 136C86.7817 136 86.334 136.82 86.334 137.833C86.334 138.845 86.7817 139.666 87.334 139.666Z" fill="white"/>
<path d="M64.648 29.296V25.48H71.296V43H67.024V29.296H64.648ZM74.2707 34C74.2707 31.248 74.7987 29.08 75.8547 27.496C76.9267 25.912 78.6467 25.12 81.0147 25.12C83.3827 25.12 85.0947 25.912 86.1507 27.496C87.2227 29.08 87.7587 31.248 87.7587 34C87.7587 36.784 87.2227 38.968 86.1507 40.552C85.0947 42.136 83.3827 42.928 81.0147 42.928C78.6467 42.928 76.9267 42.136 75.8547 40.552C74.7987 38.968 74.2707 36.784 74.2707 34ZM83.7267 34C83.7267 32.384 83.5507 31.144 83.1987 30.28C82.8467 29.4 82.1187 28.96 81.0147 28.96C79.9107 28.96 79.1827 29.4 78.8307 30.28C78.4787 31.144 78.3027 32.384 78.3027 34C78.3027 35.088 78.3667 35.992 78.4947 36.712C78.6227 37.416 78.8787 37.992 79.2627 38.44C79.6627 38.872 80.2467 39.088 81.0147 39.088C81.7827 39.088 82.3587 38.872 82.7427 38.44C83.1427 37.992 83.4067 37.416 83.5347 36.712C83.6627 35.992 83.7267 35.088 83.7267 34ZM90.0943 34C90.0943 31.248 90.6223 29.08 91.6783 27.496C92.7503 25.912 94.4703 25.12 96.8383 25.12C99.2063 25.12 100.918 25.912 101.974 27.496C103.046 29.08 103.582 31.248 103.582 34C103.582 36.784 103.046 38.968 101.974 40.552C100.918 42.136 99.2063 42.928 96.8383 42.928C94.4703 42.928 92.7503 42.136 91.6783 40.552C90.6223 38.968 90.0943 36.784 90.0943 34ZM99.5503 34C99.5503 32.384 99.3743 31.144 99.0223 30.28C98.6703 29.4 97.9423 28.96 96.8383 28.96C95.7343 28.96 95.0063 29.4 94.6543 30.28C94.3023 31.144 94.1263 32.384 94.1263 34C94.1263 35.088 94.1903 35.992 94.3183 36.712C94.4463 37.416 94.7023 37.992 95.0863 38.44C95.4863 38.872 96.0703 39.088 96.8383 39.088C97.6063 39.088 98.1823 38.872 98.5663 38.44C98.9663 37.992 99.2303 37.416 99.3583 36.712C99.4863 35.992 99.5503 35.088 99.5503 34Z" fill="white"/>
<path d="M201.224 93.424C201.288 91.712 201.848 90.392 202.904 89.464C203.96 88.536 205.392 88.072 207.2 88.072C208.4 88.072 209.424 88.28 210.272 88.696C211.136 89.112 211.784 89.68 212.216 90.4C212.664 91.12 212.888 91.928 212.888 92.824C212.888 93.88 212.624 94.744 212.096 95.416C211.568 96.072 210.952 96.52 210.248 96.76V96.856C211.16 97.16 211.88 97.664 212.408 98.368C212.936 99.072 213.2 99.976 213.2 101.08C213.2 102.072 212.968 102.952 212.504 103.72C212.056 104.472 211.392 105.064 210.512 105.496C209.648 105.928 208.616 106.144 207.416 106.144C205.496 106.144 203.96 105.672 202.808 104.728C201.672 103.784 201.072 102.36 201.008 100.456H204.992C205.008 101.16 205.208 101.72 205.592 102.136C205.976 102.536 206.536 102.736 207.272 102.736C207.896 102.736 208.376 102.56 208.712 102.208C209.064 101.84 209.24 101.36 209.24 100.768C209.24 100 208.992 99.448 208.496 99.112C208.016 98.76 207.24 98.584 206.168 98.584H205.4V95.248H206.168C206.984 95.248 207.64 95.112 208.136 94.84C208.648 94.552 208.904 94.048 208.904 93.328C208.904 92.752 208.744 92.304 208.424 91.984C208.104 91.664 207.664 91.504 207.104 91.504C206.496 91.504 206.04 91.688 205.736 92.056C205.448 92.424 205.28 92.88 205.232 93.424H201.224ZM215.779 97C215.779 94.248 216.307 92.08 217.363 90.496C218.435 88.912 220.155 88.12 222.523 88.12C224.891 88.12 226.603 88.912 227.659 90.496C228.731 92.08 229.267 94.248 229.267 97C229.267 99.784 228.731 101.968 227.659 103.552C226.603 105.136 224.891 105.928 222.523 105.928C220.155 105.928 218.435 105.136 217.363 103.552C216.307 101.968 215.779 99.784 215.779 97ZM225.235 97C225.235 95.384 225.059 94.144 224.707 93.28C224.355 92.4 223.627 91.96 222.523 91.96C221.419 91.96 220.691 92.4 220.339 93.28C219.987 94.144 219.811 95.384 219.811 97C219.811 98.088 219.875 98.992 220.003 99.712C220.131 100.416 220.387 100.992 220.771 101.44C221.171 101.872 221.755 102.088 222.523 102.088C223.291 102.088 223.867 101.872 224.251 101.44C224.651 100.992 224.915 100.416 225.043 99.712C225.171 98.992 225.235 98.088 225.235 97ZM231.602 97C231.602 94.248 232.13 92.08 233.186 90.496C234.258 88.912 235.978 88.12 238.346 88.12C240.714 88.12 242.426 88.912 243.482 90.496C244.554 92.08 245.09 94.248 245.09 97C245.09 99.784 244.554 101.968 243.482 103.552C242.426 105.136 240.714 105.928 238.346 105.928C235.978 105.928 234.258 105.136 233.186 103.552C232.13 101.968 231.602 99.784 231.602 97ZM241.058 97C241.058 95.384 240.882 94.144 240.53 93.28C240.178 92.4 239.45 91.96 238.346 91.96C237.242 91.96 236.514 92.4 236.162 93.28C235.81 94.144 235.634 95.384 235.634 97C235.634 98.088 235.698 98.992 235.826 99.712C235.954 100.416 236.21 100.992 236.594 101.44C236.994 101.872 237.578 102.088 238.346 102.088C239.114 102.088 239.69 101.872 240.074 101.44C240.474 100.992 240.738 100.416 240.866 99.712C240.994 98.992 241.058 98.088 241.058 97Z" fill="white"/>
<path d="M63.224 161.424C63.288 159.712 63.848 158.392 64.904 157.464C65.96 156.536 67.392 156.072 69.2 156.072C70.4 156.072 71.424 156.28 72.272 156.696C73.136 157.112 73.784 157.68 74.216 158.4C74.664 159.12 74.888 159.928 74.888 160.824C74.888 161.88 74.624 162.744 74.096 163.416C73.568 164.072 72.952 164.52 72.248 164.76V164.856C73.16 165.16 73.88 165.664 74.408 166.368C74.936 167.072 75.2 167.976 75.2 169.08C75.2 170.072 74.968 170.952 74.504 171.72C74.056 172.472 73.392 173.064 72.512 173.496C71.648 173.928 70.616 174.144 69.416 174.144C67.496 174.144 65.96 173.672 64.808 172.728C63.672 171.784 63.072 170.36 63.008 168.456H66.992C67.008 169.16 67.208 169.72 67.592 170.136C67.976 170.536 68.536 170.736 69.272 170.736C69.896 170.736 70.376 170.56 70.712 170.208C71.064 169.84 71.24 169.36 71.24 168.768C71.24 168 70.992 167.448 70.496 167.112C70.016 166.76 69.24 166.584 68.168 166.584H67.4V163.248H68.168C68.984 163.248 69.64 163.112 70.136 162.84C70.648 162.552 70.904 162.048 70.904 161.328C70.904 160.752 70.744 160.304 70.424 159.984C70.104 159.664 69.664 159.504 69.104 159.504C68.496 159.504 68.04 159.688 67.736 160.056C67.448 160.424 67.28 160.88 67.232 161.424H63.224ZM90.1145 160.056H82.6265V163.368C82.9465 163.016 83.3945 162.728 83.9705 162.504C84.5465 162.28 85.1705 162.168 85.8425 162.168C87.0425 162.168 88.0345 162.44 88.8185 162.984C89.6185 163.528 90.2025 164.232 90.5705 165.096C90.9385 165.96 91.1225 166.896 91.1225 167.904C91.1225 169.776 90.5945 171.264 89.5385 172.368C88.4825 173.456 86.9945 174 85.0745 174C83.7945 174 82.6825 173.784 81.7385 173.352C80.7945 172.904 80.0665 172.288 79.5545 171.504C79.0425 170.72 78.7625 169.816 78.7145 168.792H82.7225C82.8185 169.288 83.0505 169.704 83.4185 170.04C83.7865 170.36 84.2905 170.52 84.9305 170.52C85.6825 170.52 86.2425 170.28 86.6105 169.8C86.9785 169.32 87.1625 168.68 87.1625 167.88C87.1625 167.096 86.9705 166.496 86.5865 166.08C86.2025 165.664 85.6425 165.456 84.9065 165.456C84.3625 165.456 83.9145 165.592 83.5625 165.864C83.2105 166.12 82.9785 166.464 82.8665 166.896H78.9065V156.456H90.1145V160.056ZM93.5552 165C93.5552 162.248 94.0832 160.08 95.1392 158.496C96.2112 156.912 97.9312 156.12 100.299 156.12C102.667 156.12 104.379 156.912 105.435 158.496C106.507 160.08 107.043 162.248 107.043 165C107.043 167.784 106.507 169.968 105.435 171.552C104.379 173.136 102.667 173.928 100.299 173.928C97.9312 173.928 96.2112 173.136 95.1392 171.552C94.0832 169.968 93.5552 167.784 93.5552 165ZM103.011 165C103.011 163.384 102.835 162.144 102.483 161.28C102.131 160.4 101.403 159.96 100.299 159.96C99.1952 159.96 98.4672 160.4 98.1152 161.28C97.7632 162.144 97.5872 163.384 97.5872 165C97.5872 166.088 97.6512 166.992 97.7792 167.712C97.9072 168.416 98.1632 168.992 98.5472 169.44C98.9472 169.872 99.5312 170.088 100.299 170.088C101.067 170.088 101.643 169.872 102.027 169.44C102.427 168.992 102.691 168.416 102.819 167.712C102.947 166.992 103.011 166.088 103.011 165Z" fill="white"/>
<path d="M202.176 247.88V244.568L209.76 233.72H214.344V244.328H216.312V247.88H214.344V251H210.24V247.88H202.176ZM210.528 238.232L206.496 244.328H210.528V238.232ZM218.489 242C218.489 239.248 219.017 237.08 220.073 235.496C221.145 233.912 222.865 233.12 225.233 233.12C227.601 233.12 229.313 233.912 230.369 235.496C231.441 237.08 231.977 239.248 231.977 242C231.977 244.784 231.441 246.968 230.369 248.552C229.313 250.136 227.601 250.928 225.233 250.928C222.865 250.928 221.145 250.136 220.073 248.552C219.017 246.968 218.489 244.784 218.489 242ZM227.945 242C227.945 240.384 227.769 239.144 227.417 238.28C227.065 237.4 226.337 236.96 225.233 236.96C224.129 236.96 223.401 237.4 223.049 238.28C222.697 239.144 222.521 240.384 222.521 242C222.521 243.088 222.585 243.992 222.713 244.712C222.841 245.416 223.097 245.992 223.481 246.44C223.881 246.872 224.465 247.088 225.233 247.088C226.001 247.088 226.577 246.872 226.961 246.44C227.361 245.992 227.625 245.416 227.753 244.712C227.881 243.992 227.945 243.088 227.945 242ZM234.313 242C234.313 239.248 234.841 237.08 235.897 235.496C236.969 233.912 238.689 233.12 241.057 233.12C243.425 233.12 245.137 233.912 246.193 235.496C247.265 237.08 247.801 239.248 247.801 242C247.801 244.784 247.265 246.968 246.193 248.552C245.137 250.136 243.425 250.928 241.057 250.928C238.689 250.928 236.969 250.136 235.897 248.552C234.841 246.968 234.313 244.784 234.313 242ZM243.769 242C243.769 240.384 243.593 239.144 243.241 238.28C242.889 237.4 242.161 236.96 241.057 236.96C239.953 236.96 239.225 237.4 238.873 238.28C238.521 239.144 238.345 240.384 238.345 242C238.345 243.088 238.409 243.992 238.537 244.712C238.665 245.416 238.921 245.992 239.305 246.44C239.705 246.872 240.289 247.088 241.057 247.088C241.825 247.088 242.401 246.872 242.785 246.44C243.185 245.992 243.449 245.416 243.577 244.712C243.705 243.992 243.769 243.088 243.769 242Z" fill="white"/>
<path d="M60.648 307.296V303.48H67.296V321H63.024V307.296H60.648ZM70.2707 312C70.2707 309.248 70.7987 307.08 71.8547 305.496C72.9267 303.912 74.6467 303.12 77.0147 303.12C79.3827 303.12 81.0947 303.912 82.1507 305.496C83.2227 307.08 83.7587 309.248 83.7587 312C83.7587 314.784 83.2227 316.968 82.1507 318.552C81.0947 320.136 79.3827 320.928 77.0147 320.928C74.6467 320.928 72.9267 320.136 71.8547 318.552C70.7987 316.968 70.2707 314.784 70.2707 312ZM79.7267 312C79.7267 310.384 79.5507 309.144 79.1987 308.28C78.8467 307.4 78.1187 306.96 77.0147 306.96C75.9107 306.96 75.1827 307.4 74.8307 308.28C74.4787 309.144 74.3027 310.384 74.3027 312C74.3027 313.088 74.3667 313.992 74.4947 314.712C74.6227 315.416 74.8787 315.992 75.2627 316.44C75.6627 316.872 76.2467 317.088 77.0147 317.088C77.7827 317.088 78.3587 316.872 78.7427 316.44C79.1427 315.992 79.4067 315.416 79.5347 314.712C79.6627 313.992 79.7267 313.088 79.7267 312ZM86.0943 312C86.0943 309.248 86.6223 307.08 87.6783 305.496C88.7503 303.912 90.4703 303.12 92.8383 303.12C95.2063 303.12 96.9183 303.912 97.9743 305.496C99.0463 307.08 99.5823 309.248 99.5823 312C99.5823 314.784 99.0463 316.968 97.9743 318.552C96.9183 320.136 95.2063 320.928 92.8383 320.928C90.4703 320.928 88.7503 320.136 87.6783 318.552C86.6223 316.968 86.0943 314.784 86.0943 312ZM95.5503 312C95.5503 310.384 95.3743 309.144 95.0223 308.28C94.6703 307.4 93.9423 306.96 92.8383 306.96C91.7343 306.96 91.0063 307.4 90.6543 308.28C90.3023 309.144 90.1263 310.384 90.1263 312C90.1263 313.088 90.1903 313.992 90.3183 314.712C90.4463 315.416 90.7023 315.992 91.0863 316.44C91.4863 316.872 92.0703 317.088 92.8383 317.088C93.6063 317.088 94.1823 316.872 94.5663 316.44C94.9663 315.992 95.2303 315.416 95.3583 314.712C95.4863 313.992 95.5503 313.088 95.5503 312ZM101.918 312C101.918 309.248 102.446 307.08 103.502 305.496C104.574 303.912 106.294 303.12 108.662 303.12C111.03 303.12 112.742 303.912 113.798 305.496C114.87 307.08 115.406 309.248 115.406 312C115.406 314.784 114.87 316.968 113.798 318.552C112.742 320.136 111.03 320.928 108.662 320.928C106.294 320.928 104.574 320.136 103.502 318.552C102.446 316.968 101.918 314.784 101.918 312ZM111.374 312C111.374 310.384 111.198 309.144 110.846 308.28C110.494 307.4 109.766 306.96 108.662 306.96C107.558 306.96 106.83 307.4 106.478 308.28C106.126 309.144 105.95 310.384 105.95 312C105.95 313.088 106.014 313.992 106.142 314.712C106.27 315.416 106.526 315.992 106.91 316.44C107.31 316.872 107.894 317.088 108.662 317.088C109.43 317.088 110.006 316.872 110.39 316.44C110.79 315.992 111.054 315.416 111.182 314.712C111.31 313.992 111.374 313.088 111.374 312Z" fill="white"/>
<defs>
<radialGradient id="paint0_radial_45_14056" cx="0" cy="0" r="1" gradientUnits="userSpaceOnUse" gradientTransform="translate(87.3327 347.167) rotate(90) scale(11.8333 35.6667)">
<stop/>
<stop offset="1" stop-opacity="0"/>
</radialGradient>
<linearGradient id="paint1_linear_45_14056" x1="86.8347" y1="292.667" x2="86.8347" y2="332.333" gradientUnits="userSpaceOnUse">
<stop stop-color="#B8B8B8"/>
<stop offset="1" stop-color="#D4D4D4"/>
</linearGradient>
<linearGradient id="paint2_linear_45_14056" x1="87.2709" y1="295.177" x2="87.2709" y2="329.489" gradientUnits="userSpaceOnUse">
<stop stop-color="#B7B7B7"/>
<stop offset="1" stop-color="#D6D6D6"/>
</linearGradient>
<radialGradient id="paint3_radial_45_14056" cx="0" cy="0" r="1" gradientUnits="userSpaceOnUse" gradientTransform="translate(224.333 276.167) rotate(90) scale(11.8333 35.6667)">
<stop/>
<stop offset="1" stop-opacity="0"/>
</radialGradient>
<linearGradient id="paint4_linear_45_14056" x1="223.835" y1="221.667" x2="223.835" y2="261.333" gradientUnits="userSpaceOnUse">
<stop stop-color="#B8B8B8"/>
<stop offset="1" stop-color="#D4D4D4"/>
</linearGradient>
<linearGradient id="paint5_linear_45_14056" x1="224.271" y1="224.177" x2="224.271" y2="258.489" gradientUnits="userSpaceOnUse">
<stop stop-color="#B7B7B7"/>
<stop offset="1" stop-color="#D6D6D6"/>
</linearGradient>
<radialGradient id="paint6_radial_45_14056" cx="0" cy="0" r="1" gradientUnits="userSpaceOnUse" gradientTransform="translate(87.3327 199.167) rotate(90) scale(11.8333 35.6667)">
<stop/>
<stop offset="1" stop-opacity="0"/>
</radialGradient>
<radialGradient id="paint7_radial_45_14056" cx="0" cy="0" r="1" gradientUnits="userSpaceOnUse" gradientTransform="translate(85.9987 69.1663) rotate(90) scale(11.8333 35.6667)">
<stop/>
<stop offset="1" stop-opacity="0"/>
</radialGradient>
<linearGradient id="paint8_linear_45_14056" x1="85.5007" y1="14.6665" x2="85.5007" y2="54.3332" gradientUnits="userSpaceOnUse">
<stop stop-color="#EAAC19"/>
<stop offset="1" stop-color="#FFDD40"/>
</linearGradient>
<radialGradient id="paint9_radial_45_14056" cx="0" cy="0" r="1" gradientUnits="userSpaceOnUse" gradientTransform="translate(224.333 131.167) rotate(90) scale(11.8333 35.6667)">
<stop/>
<stop offset="1" stop-opacity="0"/>
</radialGradient>
<radialGradient id="paint10_radial_45_14056" cx="0" cy="0" r="1" gradientUnits="userSpaceOnUse" gradientTransform="translate(223.999 131.5) rotate(90) scale(11.8333 35.6667)">
<stop/>
<stop offset="1" stop-opacity="0"/>
</radialGradient>
<linearGradient id="paint11_linear_45_14056" x1="223.501" y1="77" x2="223.501" y2="116.667" gradientUnits="userSpaceOnUse">
<stop stop-color="#EAAC19"/>
<stop offset="1" stop-color="#FFDD40"/>
</linearGradient>
<radialGradient id="paint12_radial_45_14056" cx="0" cy="0" r="1" gradientUnits="userSpaceOnUse" gradientTransform="translate(86.9987 199.5) rotate(90) scale(11.8333 35.6667)">
<stop/>
<stop offset="1" stop-opacity="0"/>
</radialGradient>
<linearGradient id="paint13_linear_45_14056" x1="86.5007" y1="145" x2="86.5007" y2="184.667" gradientUnits="userSpaceOnUse">
<stop stop-color="#EAAC19"/>
<stop offset="1" stop-color="#FFDD40"/>
</linearGradient>
</defs>
</svg>
