<svg width="375" height="379" viewBox="0 0 375 379" fill="none" xmlns="http://www.w3.org/2000/svg">
<path d="M105.801 58.6001C105.801 58.6001 127.501 89.1001 168.101 96.1001" stroke="white" stroke-width="2" stroke-dasharray="10 10"/>
<path d="M133.701 88.2L147.501 91.1L138.501 80L139.301 86.3L133.701 88.2Z" fill="white"/>
<path d="M257.101 120.5C257.101 120.5 326.801 139.4 194.801 169.7" stroke="white" stroke-width="2" stroke-dasharray="10 10"/>
<path d="M246.702 160.4L232.602 160.8L243.402 151.4L241.502 157.5L246.702 160.4Z" fill="white"/>
<path d="M254.5 274.8C254.5 274.8 357.8 298.5 195.1 320.6" stroke="white" stroke-width="2" stroke-dasharray="10 10"/>
<path d="M268.7 307.4L254.6 307.7L265.4 301.4L263.5 305.4L268.7 307.4Z" fill="white"/>
<path d="M91.6004 211.2C91.6004 211.2 67.1004 240.9 169.3 255.2" stroke="white" stroke-width="2" stroke-dasharray="10 10"/>
<path d="M109.5 245.3L123.5 246L112.9 236.4L114.7 242.5L109.5 245.3Z" fill="white"/>
<rect x="32" y="295.333" width="156" height="34.3333" rx="12.3333" fill="white"/>
<path d="M173.667 308.333V309.833H169.334V312H171.334C172.334 312 173.667 313 173.834 314V316.333C173.834 317.333 172.834 318.567 171.501 318.833C169.001 319.333 167.714 318.56 166.834 316.667L168.667 316.167C169.403 317.458 170.575 317.758 171.834 316.667C172.399 316.177 172.587 314.841 171.834 314C171.167 313.167 169.294 313.064 167.667 313.833V308.333H173.667Z" fill="#333333" stroke="#333333" stroke-width="0.333333"/>
<path d="M136.334 318.167V309H140.334C145.667 309.5 145.501 317.667 140.167 318.167H136.334Z" stroke="#333333" stroke-width="1.6"/>
<path d="M147.667 312.82C150.232 311.754 151.172 312.015 151.912 313.437C152.096 313.792 152.167 314.193 152.167 314.592V315.404M152.167 318.82V316.82M152.167 316.82C150.491 318.02 149.378 318.473 148.401 318.228C147.038 317.887 146.987 315.816 148.256 315.213C149.213 314.758 150.367 314.843 152.167 315.404M152.167 316.82V315.404" stroke="#333333" stroke-width="1.6"/>
<path d="M156.667 322.333H154.5H154.333V320.833H156C156.61 320.246 156.852 319.765 157.167 318.667L154 311.667H155.833L158.167 316.667L159.833 311.667H161.667L158.333 320C157.786 321.228 157.417 321.753 156.667 322.333Z" fill="#333333" stroke="#333333" stroke-width="0.333333"/>
<ellipse cx="87.3327" cy="347.167" rx="35.6667" ry="11.8333" fill="url(#paint0_radial_666_3645)"/>
<path d="M51.769 326.538L51.5 318.333C56.5484 327.802 60.8386 331.065 69.8333 335V347C60.5154 342.679 55.6572 339.549 52.4401 330.367C52.0093 329.138 51.8117 327.841 51.769 326.538Z" fill="#838383" stroke="#838383" stroke-width="0.333333"/>
<path d="M122.565 326.705L122.834 318.5C117.786 327.969 113.829 331.065 104.834 335V347C114.151 342.68 118.715 339.696 121.897 330.535C122.324 329.304 122.522 328.007 122.565 326.705Z" fill="#838383" stroke="#838383" stroke-width="0.333333"/>
<path d="M104.667 335C90.6221 339.393 82.9793 339.34 70 335V347C83.4502 351.045 91.0385 351.139 104.667 347V335Z" fill="#636363" stroke="#636363" stroke-width="0.333333"/>
<path d="M51 327.5V315.333L51.5 317.333L51.8333 327.833C54.1667 337.667 59.5 342.833 70 347C80.2571 350.249 85.8164 350.558 95.5 349.333C102.988 347.955 107.164 346.509 114.5 341.667C119 338 122.129 332 122.5 327.5L122.833 317L123.5 315.333L123.167 329.167C120.478 336.948 118.113 340.839 110.667 346C101.401 350.632 95.7084 351.672 85 351.833C75.7579 351.101 70.5398 349.96 61 343.833C55.087 338.715 52.3578 335.475 51 327.5Z" fill="#636363" stroke="#636363" stroke-width="0.333333"/>
<path d="M123.834 311.667C123.834 319.056 119.748 325.761 113.114 330.624C106.48 335.487 97.3069 338.5 87.1673 338.5C77.0278 338.5 67.8548 335.487 61.2208 330.624C54.5866 325.761 50.5007 319.056 50.5007 311.667C50.5007 304.277 54.5866 297.572 61.2208 292.709C67.8548 287.846 77.0278 284.833 87.1673 284.833C97.3069 284.833 106.48 287.846 113.114 292.709C119.748 297.572 123.834 304.277 123.834 311.667Z" fill="#E8E8E8" stroke="#E8E8E8" stroke-width="0.333333"/>
<ellipse cx="87.1673" cy="311.667" rx="35.8333" ry="25.3333" fill="#D6D6D6"/>
<ellipse cx="86.8346" cy="312.5" rx="29.1667" ry="19.8333" fill="url(#paint1_linear_666_3645)"/>
<path d="M64.167 300.333C57.8332 305.5 56.6668 314.166 59.8337 320.333C58.4938 318.28 57.7851 316.954 56.8331 313.166C56.4236 308.366 57.181 305.663 60.1665 300.833C64.3047 296.137 66.8919 294.183 71.9998 292.166C79.1334 289.722 83.2647 289.057 90.8331 289.333C96.7606 290.104 100.275 291.198 107 294.5C113.374 299.121 114.92 302.076 116.833 307.5C117.609 310.891 117.626 312.688 116.666 315.666L114.166 320.333C115.729 317.023 116.169 315.414 116 313C115.166 307.166 113.7 303.496 108.166 299.166C103.764 295.728 100.792 294.262 93.8331 293.166C89.1079 292.565 86.3501 292.397 80.8332 293C73.8876 293.892 70.229 295.394 64.167 300.333Z" fill="#868686" stroke="#868686" stroke-width="0.333333"/>
<path d="M64.0013 326C60.9277 323.351 59.4459 321.548 57.668 317.167L59.5013 320.333C62.0454 323.903 63.3664 325.004 65.668 326.5C70.796 329.71 74.1508 331.037 81.168 332.333C89.7504 333.197 94.3702 332.558 102.335 329.667C106.674 327.87 109.004 326.413 112.835 322.5C114.261 320.76 114.914 319.72 116.001 317.833C114.938 320.076 114.355 321.051 113.335 322.5C109.016 327.24 106.194 329.43 100.001 332C94.3725 333.815 90.9993 334.349 84.5013 334.167C76.6652 333.359 69.168 330.833 64.0013 326Z" fill="white" stroke="white" stroke-width="0.333333"/>
<ellipse cx="86.834" cy="338.5" rx="1.5" ry="1.83333" fill="white"/>
<ellipse cx="87.334" cy="285.833" rx="1" ry="1.83333" fill="white"/>
<path d="M102.41 295.177H71.9664C64.3133 299.485 61.2612 302.334 58.8469 308.464C57.561 314.76 58.3593 317.194 60.1925 321.247C63.9607 325.489 66.3519 327.227 70.9572 329.489H103.251L107.624 327.302C115.382 321.868 117.354 318.017 115.866 309.473C114.857 303.923 110.405 299.109 102.41 295.177Z" fill="url(#paint2_linear_666_3645)"/>
<path d="M51.4453 318.052C53.7148 323.658 55.7158 325.861 59.5188 329.489H51.9499L51.4453 327.807V318.052Z" fill="#8A8A8A" stroke="#8A8A8A" stroke-width="0.333333"/>
<path d="M50.9997 327.5L50.7734 314.183L51.4462 318.051L51.4997 327.5L52.1663 329.5H51.333L50.9997 327.5Z" fill="#707070" stroke="#707070" stroke-width="0.333333"/>
<path d="M60.1918 295.177H57.6688C53.8988 299.455 52.5763 301.689 51.4455 305.437C50.6551 308.375 50.1645 311.149 50.666 314.333C51.7283 321.072 54.0813 324.172 59.666 329.489H62.042C60.9713 328.837 60.3688 328.458 59.1827 327.302C52.4137 320.244 49.9318 313.174 52.4546 305.437C54.4102 301.126 56.0484 298.865 60.1918 295.177Z" fill="#E8E8E8" stroke="#E8E8E8" stroke-width="0.333333"/>
<path d="M66.0828 295.177H60.1959C53.6329 300.895 50.6696 306.842 51.7845 313.847C52.6255 320.406 58.3443 327.471 62.0446 329.489H68.6043C61.0354 324.443 57.3541 319.844 56.8319 313.342C56.4737 305.472 58.4491 301.484 66.0828 295.177Z" fill="#D6D6D6" stroke="#D6D6D6" stroke-width="0.333333"/>
<path d="M72.1333 295.177H66.0782C63.5455 297.33 62.4275 298.481 60.6972 300.391C57.7434 304.116 56.8038 306.573 56.8286 311.828C57.221 315.614 58.1398 317.605 60.1922 321.079C58.7224 318.031 58.1717 316.333 58.1729 313.342C58.3481 305.453 62.2106 300.391 72.1333 295.177Z" fill="#868686" stroke="#868686" stroke-width="0.333333"/>
<path d="M71.499 329.667L68.9377 329.489C65.0043 327.145 63.0586 325.471 59.8324 321.333C58.3274 318.729 57.7451 317.471 57.332 315.192C58.0269 317.557 58.6692 318.943 59.999 321.167C64.0423 325.736 66.7425 327.66 71.499 329.667Z" fill="white" stroke="white" stroke-width="0.333333"/>
<path d="M123.098 318.052C120.828 323.658 118.827 325.861 115.024 329.489H122.593L123.098 327.807V318.052Z" fill="#868686" stroke="#868686" stroke-width="0.333333"/>
<path d="M123.166 328L123.77 314.183L122.832 318.167L122.499 327.833L122.166 329.5H123.097L123.166 328Z" fill="#707070" stroke="#707070" stroke-width="0.333333"/>
<path d="M114.351 295.177H116.874C120.644 299.455 121.966 301.689 123.097 305.437C123.888 308.375 124.003 310.37 123.77 314.351C122.708 321.09 120.44 324.341 114.855 329.657L112.501 329.489C113.571 328.837 114.174 328.458 115.36 327.302C122.129 320.244 124.611 313.174 122.088 305.437C120.132 301.126 118.494 298.865 114.351 295.177Z" fill="#E8E8E8" stroke="#E8E8E8" stroke-width="0.333333"/>
<path d="M108.46 295.177H114.347C120.91 300.895 123.873 306.842 122.758 313.847C121.917 320.406 116.199 327.471 112.498 329.489H105.939C113.508 324.443 117.189 319.844 117.711 313.342C118.069 305.472 116.094 301.484 108.46 295.177Z" fill="#D6D6D6" stroke="#D6D6D6" stroke-width="0.333333"/>
<path d="M102.41 295.177H108.465C110.997 297.33 112.115 298.481 113.846 300.391C116.8 304.116 117.739 306.573 117.714 311.828C117.322 315.614 116.403 317.605 114.351 321.079C115.821 318.031 116.371 316.333 116.37 313.342C116.195 305.453 112.332 300.391 102.41 295.177Z" fill="#868686" stroke="#868686" stroke-width="0.333333"/>
<path d="M103.25 329.489H105.605C109.539 327.145 111.63 325.553 114.856 321.415C116.361 318.811 116.798 317.471 117.211 315.192C116.516 317.557 115.85 318.855 114.52 321.079C110.476 325.648 108.007 327.483 103.25 329.489Z" fill="white" stroke="white" stroke-width="0.333333"/>
<path d="M72.6535 306.589H67.1917V308.618H69.0643C70.3127 308.618 71.4051 309.086 72.3414 310.334C73.5898 312.207 73.5898 314.08 72.8095 315.64C71.4873 317.779 70.3127 318.761 67.1917 318.605C65.0046 318.174 63.9959 317.502 62.8223 315.016L65.9433 314.08C66.2554 315.796 68.5962 316.42 69.5325 315.484C70.4663 314.432 70.4688 312.519 69.5325 311.895C68.128 311.115 66.3465 311.115 63.9146 311.895V303.78H72.6535V306.589Z" fill="white" stroke="white" stroke-width="0.333333"/>
<path d="M72.6534 308.306V306.745H67.3477V308.306H72.6534Z" fill="#666666" stroke="#666666" stroke-width="0.333333"/>
<path d="M63.9141 313.611V312.051L66.0988 311.427C67.4691 311.101 69.3758 311.427 69.844 312.207C70.3122 312.987 70.4682 314.079 69.844 314.392C69.7065 314.055 69.5589 313.887 69.2198 313.611C67.4493 312.818 66.2564 312.904 63.9141 313.611Z" fill="#666666" stroke="#666666" stroke-width="0.333333"/>
<path d="M66.5673 320.322C64.5607 319.731 63.6737 319.01 62.666 316.888L63.4463 316.42C65.186 318.449 66.4404 318.747 68.9081 318.605C71.0871 318.171 71.9435 317.376 73.2775 315.016V316.108C72.9105 317.437 72.5931 317.998 71.873 318.761C70.3194 320.268 69.1304 320.582 66.5673 320.322Z" fill="#666666" stroke="#666666" stroke-width="0.333333"/>
<path d="M78.7396 318.449C76.7308 317.009 75.9113 315.877 75.1504 313.143C75.168 314.543 75.1981 315.316 75.4625 316.576C76.4131 318.745 77.1351 319.506 78.7396 320.165C81.3519 320.577 82.575 320.342 84.2013 318.761C85.4751 316.74 85.712 315.351 85.7619 312.675C85.1237 315.858 84.2561 316.927 82.3287 318.293C81.0895 318.989 79.9753 318.977 78.7396 318.449Z" fill="#666666" stroke="#666666" stroke-width="0.333333"/>
<path d="M85.9069 310.959C85.9069 313.126 85.2865 315.081 84.292 316.49C83.2971 317.899 81.9384 318.751 80.4557 318.751C78.9731 318.751 77.6143 317.899 76.6195 316.49C75.6249 315.081 75.0046 313.126 75.0046 310.959C75.0046 308.791 75.6249 306.836 76.6195 305.427C77.6143 304.018 78.9731 303.167 80.4557 303.167C81.9384 303.167 83.2971 304.018 84.292 305.427C85.2865 306.836 85.9069 308.791 85.9069 310.959Z" fill="white" stroke="white" stroke-width="0.333333"/>
<path d="M82.6398 308.462C81.8595 305.809 79.0506 305.185 78.2704 308.774C78.0538 310.819 78.0772 311.916 78.4264 313.768C79.3628 316.42 81.8596 316.264 82.6398 313.455C82.8931 311.645 82.8757 310.541 82.6398 308.462Z" fill="#D0D0D0" stroke="white" stroke-width="0.333333"/>
<path d="M82.4853 310.335C81.2369 307.057 79.3643 307.525 78.428 310.335C78.325 309.155 78.2623 308.536 78.7399 307.525C79.3726 306.282 79.8955 306.159 80.9246 306.277C82.3721 307.164 82.3796 308.242 82.4853 310.335Z" fill="#666666" stroke="#666666" stroke-width="0.333333"/>
<path d="M91.5364 318.449C89.5276 317.009 88.7082 315.877 87.9473 313.143C87.9649 314.543 87.995 315.316 88.2594 316.576C89.2099 318.745 89.9319 319.506 91.5364 320.165C94.1488 320.577 95.3719 320.342 96.9982 318.761C98.272 316.74 98.5088 315.351 98.5587 312.675C97.9205 315.858 97.053 316.927 95.1256 318.293C93.8864 318.989 92.7722 318.977 91.5364 318.449Z" fill="#666666" stroke="#666666" stroke-width="0.333333"/>
<path d="M98.7038 310.959C98.7038 313.126 98.0834 315.081 97.0888 316.49C96.094 317.899 94.7352 318.751 93.2526 318.751C91.77 318.751 90.4112 317.899 89.4164 316.49C88.4218 315.081 87.8014 313.126 87.8014 310.959C87.8014 308.791 88.4218 306.836 89.4164 305.427C90.4112 304.018 91.77 303.167 93.2526 303.167C94.7352 303.167 96.094 304.018 97.0888 305.427C98.0834 306.836 98.7038 308.791 98.7038 310.959Z" fill="white" stroke="white" stroke-width="0.333333"/>
<path d="M95.4367 308.462C94.6564 305.809 91.8475 305.185 91.0672 308.774C90.8507 310.819 90.8741 311.916 91.2233 313.768C92.1597 316.42 94.6565 316.264 95.4367 313.455C95.69 311.645 95.6726 310.541 95.4367 308.462Z" fill="#D1D1D1" stroke="white" stroke-width="0.333333"/>
<path d="M95.2802 310.335C94.0318 307.057 92.1592 307.525 91.2229 310.335C91.1199 309.155 91.0572 308.536 91.5348 307.525C92.1675 306.282 92.6904 306.159 93.7196 306.277C95.167 307.164 95.1745 308.242 95.2802 310.335Z" fill="#666666" stroke="#666666" stroke-width="0.333333"/>
<path d="M104.333 318.449C102.325 317.009 101.505 315.877 100.744 313.143C100.762 314.543 100.792 315.316 101.056 316.576C102.007 318.745 102.729 319.506 104.333 320.165C106.946 320.577 108.169 320.342 109.795 318.761C111.069 316.74 111.306 315.351 111.356 312.675C110.717 315.858 109.85 316.927 107.922 318.293C106.683 318.989 105.569 318.977 104.333 318.449Z" fill="#666666" stroke="#666666" stroke-width="0.333333"/>
<path d="M111.501 310.959C111.501 313.126 110.88 315.081 109.886 316.49C108.891 317.899 107.532 318.751 106.049 318.751C104.567 318.751 103.208 317.899 102.213 316.49C101.219 315.081 100.598 313.126 100.598 310.959C100.598 308.791 101.219 306.836 102.213 305.427C103.208 304.018 104.567 303.167 106.049 303.167C107.532 303.167 108.891 304.018 109.886 305.427C110.88 306.836 111.501 308.791 111.501 310.959Z" fill="white" stroke="white" stroke-width="0.333333"/>
<path d="M108.234 308.462C107.453 305.809 104.644 305.185 103.864 308.774C103.648 310.819 103.671 311.916 104.02 313.768C104.957 316.42 107.453 316.264 108.234 313.455C108.487 311.645 108.469 310.541 108.234 308.462Z" fill="#D0D0D0" stroke="white" stroke-width="0.333333"/>
<path d="M108.079 310.335C106.831 307.057 104.958 307.525 104.022 310.335C103.919 309.155 103.856 308.536 104.334 307.525C104.966 306.282 105.489 306.159 106.518 306.277C107.966 307.164 107.973 308.242 108.079 310.335Z" fill="#666666" stroke="#666666" stroke-width="0.333333"/>
<rect x="169" y="224.333" width="156" height="34.3333" rx="12.3333" fill="#BD3161"/>
<path d="M273.334 247.167V238H277.334C282.667 238.5 282.501 246.667 277.167 247.167H273.334Z" stroke="#333333" stroke-width="1.6"/>
<path d="M284.667 241.82C287.232 240.754 288.172 241.015 288.912 242.438C289.096 242.792 289.167 243.193 289.167 243.592V244.404M289.167 247.82V245.82M289.167 245.82C287.491 247.02 286.378 247.474 285.401 247.229C284.038 246.887 283.987 244.817 285.256 244.214C286.213 243.758 287.367 243.844 289.167 244.404M289.167 245.82V244.404" stroke="#333333" stroke-width="1.6"/>
<path d="M293.667 251.333H291.5H291.333V249.833H293C293.61 249.246 293.852 248.765 294.167 247.667L291 240.667H292.833L295.167 245.667L296.833 240.667H298.667L295.333 249C294.786 250.228 294.417 250.753 293.667 251.333Z" fill="#333333" stroke="#333333" stroke-width="0.333333"/>
<ellipse cx="224.333" cy="276.167" rx="35.6667" ry="11.8333" fill="url(#paint3_radial_666_3645)"/>
<rect x="32" y="147.333" width="156" height="34.3333" rx="12.3333" fill="#BD3161"/>
<path d="M136.334 170.167V161H140.334C145.667 161.5 145.501 169.667 140.167 170.167H136.334Z" stroke="#333333" stroke-width="1.6"/>
<path d="M147.667 164.82C150.232 163.754 151.172 164.015 151.912 165.438C152.096 165.792 152.167 166.193 152.167 166.592V167.404M152.167 170.82V168.82M152.167 168.82C150.491 170.02 149.378 170.474 148.401 170.229C147.038 169.887 146.987 167.817 148.256 167.214C149.213 166.758 150.367 166.844 152.167 167.404M152.167 168.82V167.404" stroke="#333333" stroke-width="1.6"/>
<path d="M156.667 174.333H154.5H154.333V172.833H156C156.61 172.246 156.852 171.765 157.167 170.667L154 163.667H155.833L158.167 168.667L159.833 163.667H161.667L158.333 172C157.786 173.228 157.417 173.753 156.667 174.333Z" fill="#333333" stroke="#333333" stroke-width="0.333333"/>
<ellipse cx="87.3327" cy="199.167" rx="35.6667" ry="11.8333" fill="url(#paint4_radial_666_3645)"/>
<rect x="32" y="21.6667" width="156" height="34" rx="12.3333" fill="#BD3161"/>
<path d="M134.666 44.1667V35H138.666C143.999 35.5 143.833 43.6667 138.499 44.1667H134.666Z" stroke="white" stroke-width="1.6"/>
<path d="M145.999 38.8202C148.564 37.7537 149.504 38.015 150.244 39.4374C150.428 39.7917 150.499 40.1926 150.499 40.5919V41.4035M150.499 44.8202V42.8202M150.499 42.8202C148.823 44.0202 147.71 44.4734 146.733 44.2284C145.37 43.8868 145.319 41.8164 146.588 41.2134C147.546 40.758 148.699 40.8433 150.499 41.4035M150.499 42.8202V41.4035" stroke="white" stroke-width="1.6"/>
<path d="M154.999 48.3334H152.832H152.665V46.8334H154.332C154.942 46.2458 155.184 45.7649 155.499 44.6667L152.332 37.6667H154.165L156.499 42.6667L158.165 37.6667H159.999L156.665 46.0001C156.118 47.2279 155.749 47.7534 154.999 48.3334Z" fill="white" stroke="white" stroke-width="0.333333"/>
<ellipse cx="85.9987" cy="69.1663" rx="35.6667" ry="11.8333" fill="url(#paint5_radial_666_3645)"/>
<path d="M50.435 48.5381L50.166 40.333C55.2145 49.8016 59.5046 53.0643 68.4993 56.9997V68.9997C59.1814 64.6791 54.3232 61.5483 51.1061 52.3669C50.6753 51.1373 50.4777 49.8403 50.435 48.5381Z" fill="#C57509" stroke="#C57509" stroke-width="0.333333"/>
<path d="M121.231 48.7051L121.5 40.5C116.452 49.9686 112.495 53.0646 103.5 57V69C112.817 64.6799 117.381 61.6961 120.563 52.5347C120.99 51.304 121.188 50.0073 121.231 48.7051Z" fill="#C57509" stroke="#C57509" stroke-width="0.333333"/>
<path d="M103.333 56.9998C89.2881 61.3931 81.6453 61.34 68.666 56.9998V68.9998C82.1163 73.0447 89.7045 73.139 103.333 68.9998V56.9998Z" fill="#9B4C01" stroke="#9B4C01" stroke-width="0.333333"/>
<path d="M49.666 49.4999V37.3333L50.166 39.3333L50.4993 49.8333C52.8327 59.6666 58.166 64.8333 68.666 68.9999C78.9231 72.2487 84.4825 72.5582 94.166 71.3333C101.654 69.9551 105.83 68.5087 113.166 63.6666C117.666 59.9999 120.795 53.9999 121.166 49.4999L121.499 38.9999L122.166 37.3333L121.833 51.1666C119.144 58.9475 116.779 62.8388 109.333 67.9999C100.067 72.6323 94.3744 73.6722 83.666 73.8333C74.424 73.1015 69.2059 71.96 59.666 65.8333C53.7531 60.7153 51.0238 57.475 49.666 49.4999Z" fill="#AB6004" stroke="#AB6004" stroke-width="0.333333"/>
<path d="M122.5 33.6665C122.5 41.0565 118.414 47.7609 111.78 52.624C105.146 57.4869 95.9729 60.4998 85.8333 60.4998C75.6938 60.4998 66.5208 57.4869 59.8868 52.624C53.2526 47.7609 49.1667 41.0565 49.1667 33.6665C49.1667 26.2765 53.2526 19.5721 59.8868 14.709C66.5208 9.84606 75.6938 6.83317 85.8333 6.83317C95.9729 6.83317 105.146 9.84606 111.78 14.709C118.414 19.5721 122.5 26.2765 122.5 33.6665Z" fill="#FFED8B" stroke="#FFED8B" stroke-width="0.333333"/>
<ellipse cx="85.8333" cy="33.6666" rx="35.8333" ry="25.3333" fill="#FFDD40"/>
<ellipse cx="85.5007" cy="34.4998" rx="29.1667" ry="19.8333" fill="url(#paint6_linear_666_3645)"/>
<path d="M62.833 22.3331C56.4992 27.4998 55.3328 36.1664 58.4997 42.3331C57.1598 40.2801 56.4511 38.9536 55.4992 35.1665C55.0896 30.3657 55.847 27.6627 58.8325 22.8331C62.9707 18.1366 65.5579 16.1831 70.6658 14.1665C77.7994 11.7218 81.9307 11.0566 89.4992 11.3331C95.4267 12.1041 98.941 13.1977 105.666 16.4998C112.04 21.1209 113.586 24.0763 115.499 29.4998C116.275 32.8912 116.292 34.6876 115.333 37.6665L112.833 42.3331C114.395 39.0232 114.835 37.4137 114.666 34.9998C113.833 29.1665 112.366 25.4957 106.833 21.1665C102.43 17.728 99.4581 16.2619 92.4992 15.1664C87.7739 14.5652 85.0161 14.3972 79.4992 14.9998C72.5537 15.8918 68.895 17.3941 62.833 22.3331Z" fill="#CA7A11" stroke="#CA7A11" stroke-width="0.333333"/>
<path d="M62.6673 47.9998C59.5937 45.3506 58.1119 43.5475 56.334 39.1665L58.1673 42.3332C60.7114 45.9025 62.0325 47.0043 64.334 48.4998C69.462 51.7096 72.8168 53.0375 79.834 54.3332C88.4164 55.1974 93.0362 54.5583 101.001 51.6665C105.34 49.8704 107.67 48.4134 111.501 44.4998C112.927 42.7596 113.58 41.7199 114.667 39.8332C113.604 42.0755 113.021 43.0505 112.001 44.4998C107.682 49.2395 104.86 51.4305 98.6673 53.9998C93.0385 55.8149 89.6653 56.3493 83.1673 56.1665C75.3312 55.3592 67.834 52.8332 62.6673 47.9998Z" fill="white" stroke="white" stroke-width="0.333333"/>
<path d="M81.4075 40.4487C79.3987 39.0088 78.5793 37.8764 77.8184 35.143C77.836 36.5427 77.8661 37.3162 78.1305 38.5761C79.081 40.7445 79.803 41.5056 81.4075 42.1652C84.0198 42.5769 85.243 42.3419 86.8693 40.7608C88.1431 38.7401 88.3799 37.3507 88.4298 34.6748C87.7916 37.8577 86.924 38.9269 84.9967 40.2926C83.7575 40.9887 82.6433 40.9771 81.4075 40.4487Z" fill="#666666" stroke="#666666" stroke-width="0.333333"/>
<path d="M88.5749 32.9584C88.5749 35.1258 87.9545 37.0809 86.9599 38.4898C85.9651 39.8992 84.6063 40.7503 83.1237 40.7503C81.6411 40.7503 80.2823 39.8992 79.2874 38.4898C78.2929 37.0809 77.6725 35.1258 77.6725 32.9584C77.6725 30.791 78.2929 28.8358 79.2874 27.4269C80.2823 26.0175 81.6411 25.1664 83.1237 25.1664C84.6063 25.1664 85.9651 26.0175 86.9599 27.4269C87.9545 28.8358 88.5749 30.791 88.5749 32.9584Z" fill="white" stroke="white" stroke-width="0.333333"/>
<path d="M85.3078 30.4615C84.5275 27.8087 81.7186 27.1845 80.9383 30.7736C80.7218 32.8183 80.7452 33.9153 81.0944 35.7673C82.0308 38.4201 84.5276 38.2641 85.3078 35.4552C85.5611 33.6448 85.5437 32.5409 85.3078 30.4615Z" fill="#F4C32B" stroke="white" stroke-width="0.333333"/>
<path d="M85.1533 32.3347C83.9049 29.0572 82.0323 29.5254 81.096 32.3347C80.9929 31.155 80.9303 30.5357 81.4079 29.5254C82.0406 28.2821 82.5634 28.1587 83.5926 28.277C85.0401 29.1645 85.0476 30.2422 85.1533 32.3347Z" fill="#666666" stroke="#666666" stroke-width="0.333333"/>
<path d="M94.2044 40.4487C92.1956 39.0088 91.3762 37.8764 90.6152 35.143C90.6328 36.5427 90.663 37.3162 90.9273 38.5761C91.8779 40.7445 92.5999 41.5056 94.2044 42.1652C96.8167 42.5769 98.0399 42.3419 99.6662 40.7608C100.94 38.7401 101.177 37.3507 101.227 34.6748C100.589 37.8577 99.7209 38.9269 97.7936 40.2926C96.5544 40.9887 95.4402 40.9771 94.2044 40.4487Z" fill="#666666" stroke="#666666" stroke-width="0.333333"/>
<path d="M101.372 32.9584C101.372 35.1258 100.751 37.0809 99.7568 38.4898C98.762 39.8992 97.4032 40.7503 95.9206 40.7503C94.4379 40.7503 93.0792 39.8992 92.0843 38.4898C91.0898 37.0809 90.4694 35.1258 90.4694 32.9584C90.4694 30.791 91.0898 28.8358 92.0843 27.4269C93.0792 26.0175 94.4379 25.1664 95.9206 25.1664C97.4032 25.1664 98.762 26.0175 99.7568 27.4269C100.751 28.8358 101.372 30.791 101.372 32.9584Z" fill="white" stroke="white" stroke-width="0.333333"/>
<path d="M98.1046 30.4615C97.3244 27.8087 94.5155 27.1845 93.7352 30.7736C93.5187 32.8183 93.5421 33.9153 93.8913 35.7673C94.8277 38.4201 97.3245 38.2641 98.1046 35.4552C98.3579 33.6448 98.3405 32.5409 98.1046 30.4615Z" fill="#F4C32B" stroke="white" stroke-width="0.333333"/>
<path d="M97.9482 32.3347C96.6998 29.0572 94.8272 29.5254 93.8909 32.3347C93.7878 31.155 93.7252 30.5357 94.2028 29.5254C94.8355 28.2821 95.3584 28.1587 96.3875 28.277C97.835 29.1645 97.8425 30.2422 97.9482 32.3347Z" fill="#666666" stroke="#666666" stroke-width="0.333333"/>
<rect x="169" y="79.3333" width="156" height="34.3333" rx="12.3333" fill="#BD3161"/>
<path d="M273.334 102.167V93H277.334C282.667 93.5 282.501 101.667 277.167 102.167H273.334Z" stroke="#333333" stroke-width="1.6"/>
<path d="M284.667 96.8205C287.232 95.754 288.172 96.0152 288.912 97.4377C289.096 97.792 289.167 98.1928 289.167 98.5921V99.4038M289.167 102.82V100.82M289.167 100.82C287.491 102.02 286.378 102.474 285.401 102.229C284.038 101.887 283.987 99.8166 285.256 99.2136C286.213 98.7582 287.367 98.8435 289.167 99.4038M289.167 100.82V99.4038" stroke="#333333" stroke-width="1.6"/>
<path d="M293.667 106.333H291.5H291.333V104.833H293C293.61 104.246 293.852 103.765 294.167 102.667L291 95.6667H292.833L295.167 100.667L296.833 95.6667H298.667L295.333 104C294.786 105.228 294.417 105.753 293.667 106.333Z" fill="#333333" stroke="#333333" stroke-width="0.333333"/>
<ellipse cx="224.333" cy="131.167" rx="35.6667" ry="11.8333" fill="url(#paint7_radial_666_3645)"/>
<ellipse cx="223.999" cy="131.5" rx="35.6667" ry="11.8333" fill="url(#paint8_radial_666_3645)"/>
<path d="M188.435 110.872L188.166 102.667C193.214 112.135 197.505 115.398 206.499 119.333V131.333C197.181 127.013 192.323 123.882 189.106 114.7C188.675 113.471 188.478 112.174 188.435 110.872Z" fill="#C57509" stroke="#C57509" stroke-width="0.333333"/>
<path d="M259.231 111.039L259.5 102.833C254.452 112.302 250.495 115.398 241.5 119.333V131.333C250.817 127.013 255.381 124.03 258.563 114.868C258.99 113.637 259.188 112.341 259.231 111.039Z" fill="#C57509" stroke="#C57509" stroke-width="0.333333"/>
<path d="M241.333 119.333C227.288 123.727 219.645 123.674 206.666 119.333V131.333C220.116 135.378 227.704 135.473 241.333 131.333V119.333Z" fill="#9B4C01" stroke="#9B4C01" stroke-width="0.333333"/>
<path d="M187.666 111.833V99.6667L188.166 101.667L188.499 112.167C190.833 122 196.166 127.167 206.666 131.333C216.923 134.582 222.482 134.892 232.166 133.667C239.654 132.289 243.83 130.842 251.166 126C255.666 122.333 258.795 116.333 259.166 111.833L259.499 101.333L260.166 99.6667L259.833 113.5C257.144 121.281 254.779 125.172 247.333 130.333C238.067 134.966 232.374 136.006 221.666 136.167C212.424 135.435 207.206 134.293 197.666 128.167C191.753 123.049 189.024 119.809 187.666 111.833Z" fill="#AB6004" stroke="#AB6004" stroke-width="0.333333"/>
<path d="M260.5 96C260.5 103.39 256.414 110.094 249.78 114.957C243.146 119.82 233.973 122.833 223.833 122.833C213.694 122.833 204.521 119.82 197.887 114.957C191.253 110.094 187.167 103.39 187.167 96C187.167 88.61 191.253 81.9056 197.887 77.0425C204.521 72.1796 213.694 69.1667 223.833 69.1667C233.973 69.1667 243.146 72.1796 249.78 77.0425C256.414 81.9056 260.5 88.61 260.5 96Z" fill="#FFED8B" stroke="#FFED8B" stroke-width="0.333333"/>
<ellipse cx="223.833" cy="96.0001" rx="35.8333" ry="25.3333" fill="#FFDD40"/>
<ellipse cx="223.501" cy="96.8333" rx="29.1667" ry="19.8333" fill="url(#paint9_linear_666_3645)"/>
<path d="M200.833 84.6666C194.499 89.8332 193.333 98.4999 196.5 104.667C195.16 102.614 194.451 101.287 193.499 97.5C193.09 92.6992 193.847 89.9962 196.832 85.1666C200.971 80.4701 203.558 78.5166 208.666 76.5C215.799 74.0553 219.931 73.3901 227.499 73.6666C233.427 74.4376 236.941 75.5312 243.666 78.8333C250.04 83.4543 251.586 86.4098 253.499 91.8333C254.275 95.2247 254.292 97.0211 253.333 100L250.833 104.667C252.395 101.357 252.835 99.7472 252.666 97.3333C251.833 91.5 250.366 87.8292 244.833 83.5C240.43 80.0615 237.458 78.5954 230.499 77.4999C225.774 76.8987 223.016 76.7307 217.499 77.3333C210.554 78.2253 206.895 79.7276 200.833 84.6666Z" fill="#CA7A11" stroke="#CA7A11" stroke-width="0.333333"/>
<path d="M200.667 110.333C197.594 107.684 196.112 105.881 194.334 101.5L196.167 104.667C198.711 108.236 200.032 109.338 202.334 110.833C207.462 114.043 210.817 115.371 217.834 116.667C226.416 117.531 231.036 116.892 239.001 114C243.34 112.204 245.67 110.747 249.501 106.833C250.927 105.093 251.58 104.053 252.667 102.167C251.604 104.409 251.021 105.384 250.001 106.833C245.682 111.573 242.86 113.764 236.667 116.333C231.039 118.148 227.665 118.683 221.167 118.5C213.331 117.693 205.834 115.167 200.667 110.333Z" fill="white" stroke="white" stroke-width="0.333333"/>
<ellipse cx="86.9987" cy="199.5" rx="35.6667" ry="11.8333" fill="url(#paint10_radial_666_3645)"/>
<path d="M51.435 178.872L51.166 170.667C56.2145 180.135 60.5046 183.398 69.4993 187.333V199.333C60.1814 195.013 55.3232 191.882 52.1061 182.7C51.6753 181.471 51.4777 180.174 51.435 178.872Z" fill="#C57509" stroke="#C57509" stroke-width="0.333333"/>
<path d="M122.231 179.039L122.5 170.833C117.452 180.302 113.495 183.398 104.5 187.333V199.333C113.817 195.013 118.381 192.03 121.563 182.868C121.99 181.637 122.188 180.341 122.231 179.039Z" fill="#C57509" stroke="#C57509" stroke-width="0.333333"/>
<path d="M104.333 187.333C90.2881 191.727 82.6453 191.674 69.666 187.333V199.333C83.1163 203.378 90.7045 203.473 104.333 199.333V187.333Z" fill="#9B4C01" stroke="#9B4C01" stroke-width="0.333333"/>
<path d="M50.666 179.833V167.667L51.166 169.667L51.4993 180.167C53.8327 190 59.166 195.167 69.666 199.333C79.9231 202.582 85.4825 202.892 95.166 201.667C102.654 200.289 106.83 198.842 114.166 194C118.666 190.333 121.795 184.333 122.166 179.833L122.499 169.333L123.166 167.667L122.833 181.5C120.144 189.281 117.779 193.172 110.333 198.333C101.067 202.966 95.3744 204.006 84.666 204.167C75.424 203.435 70.2059 202.293 60.666 196.167C54.7531 191.049 52.0238 187.809 50.666 179.833Z" fill="#AB6004" stroke="#AB6004" stroke-width="0.333333"/>
<path d="M123.5 164C123.5 171.39 119.414 178.094 112.78 182.957C106.146 187.82 96.9729 190.833 86.8333 190.833C76.6938 190.833 67.5208 187.82 60.8868 182.957C54.2526 178.094 50.1667 171.39 50.1667 164C50.1667 156.61 54.2526 149.906 60.8868 145.043C67.5208 140.18 76.6938 137.167 86.8333 137.167C96.9729 137.167 106.146 140.18 112.78 145.043C119.414 149.906 123.5 156.61 123.5 164Z" fill="#FFED8B" stroke="#FFED8B" stroke-width="0.333333"/>
<ellipse cx="86.8333" cy="164" rx="35.8333" ry="25.3333" fill="#FFDD40"/>
<ellipse cx="86.5007" cy="164.833" rx="29.1667" ry="19.8333" fill="url(#paint11_linear_666_3645)"/>
<path d="M63.833 152.667C57.4992 157.833 56.3328 166.5 59.4997 172.667C58.1598 170.614 57.4511 169.287 56.4992 165.5C56.0896 160.699 56.847 157.996 59.8325 153.167C63.9707 148.47 66.5579 146.517 71.6658 144.5C78.7994 142.055 82.9307 141.39 90.4992 141.667C96.4267 142.438 99.941 143.531 106.666 146.833C113.04 151.454 114.586 154.41 116.499 159.833C117.275 163.225 117.292 165.021 116.333 168L113.833 172.667C115.395 169.357 115.835 167.747 115.666 165.333C114.833 159.5 113.366 155.829 107.833 151.5C103.43 148.061 100.458 146.595 93.4992 145.5C88.7739 144.899 86.0161 144.731 80.4992 145.333C73.5537 146.225 69.895 147.728 63.833 152.667Z" fill="#CA7A11" stroke="#CA7A11" stroke-width="0.333333"/>
<path d="M63.6673 178.333C60.5937 175.684 59.1119 173.881 57.334 169.5L59.1673 172.667C61.7114 176.236 63.0325 177.338 65.334 178.833C70.462 182.043 73.8168 183.371 80.834 184.667C89.4164 185.531 94.0362 184.892 102.001 182C106.34 180.204 108.67 178.747 112.501 174.833C113.927 173.093 114.58 172.053 115.667 170.167C114.604 172.409 114.021 173.384 113.001 174.833C108.682 179.573 105.86 181.764 99.6673 184.333C94.0385 186.148 90.6653 186.683 84.1673 186.5C76.3312 185.693 68.834 183.167 63.6673 178.333Z" fill="white" stroke="white" stroke-width="0.333333"/>
<ellipse cx="223.999" cy="276.5" rx="35.6667" ry="11.8333" fill="url(#paint12_radial_666_3645)"/>
<path d="M188.435 255.872L188.166 247.667C193.214 257.135 197.505 260.398 206.499 264.333V276.333C197.181 272.013 192.323 268.882 189.106 259.7C188.675 258.471 188.478 257.174 188.435 255.872Z" fill="#C57509" stroke="#C57509" stroke-width="0.333333"/>
<path d="M259.231 256.039L259.5 247.833C254.452 257.302 250.495 260.398 241.5 264.333V276.333C250.817 272.013 255.381 269.03 258.563 259.868C258.99 258.637 259.188 257.341 259.231 256.039Z" fill="#C57509" stroke="#C57509" stroke-width="0.333333"/>
<path d="M241.333 264.333C227.288 268.727 219.645 268.674 206.666 264.333V276.333C220.116 280.378 227.704 280.473 241.333 276.333V264.333Z" fill="#9B4C01" stroke="#9B4C01" stroke-width="0.333333"/>
<path d="M187.666 256.833V244.667L188.166 246.667L188.499 257.167C190.833 267 196.166 272.167 206.666 276.333C216.923 279.582 222.482 279.892 232.166 278.667C239.654 277.289 243.83 275.842 251.166 271C255.666 267.333 258.795 261.333 259.166 256.833L259.499 246.333L260.166 244.667L259.833 258.5C257.144 266.281 254.779 270.172 247.333 275.333C238.067 279.966 232.374 281.006 221.666 281.167C212.424 280.435 207.206 279.293 197.666 273.167C191.753 268.049 189.024 264.809 187.666 256.833Z" fill="#AB6004" stroke="#AB6004" stroke-width="0.333333"/>
<path d="M260.5 241C260.5 248.39 256.414 255.094 249.78 259.957C243.146 264.82 233.973 267.833 223.833 267.833C213.694 267.833 204.521 264.82 197.887 259.957C191.253 255.094 187.167 248.39 187.167 241C187.167 233.61 191.253 226.906 197.887 222.043C204.521 217.18 213.694 214.167 223.833 214.167C233.973 214.167 243.146 217.18 249.78 222.043C256.414 226.906 260.5 233.61 260.5 241Z" fill="#FFED8B" stroke="#FFED8B" stroke-width="0.333333"/>
<ellipse cx="223.833" cy="241" rx="35.8333" ry="25.3333" fill="#FFDD40"/>
<ellipse cx="223.501" cy="241.833" rx="29.1667" ry="19.8333" fill="url(#paint13_linear_666_3645)"/>
<path d="M200.833 229.667C194.499 234.833 193.333 243.5 196.5 249.667C195.16 247.614 194.451 246.287 193.499 242.5C193.09 237.699 193.847 234.996 196.832 230.167C200.971 225.47 203.558 223.517 208.666 221.5C215.799 219.055 219.931 218.39 227.499 218.667C233.427 219.438 236.941 220.531 243.666 223.833C250.04 228.454 251.586 231.41 253.499 236.833C254.275 240.225 254.292 242.021 253.333 245L250.833 249.667C252.395 246.357 252.835 244.747 252.666 242.333C251.833 236.5 250.366 232.829 244.833 228.5C240.43 225.061 237.458 223.595 230.499 222.5C225.774 221.899 223.016 221.731 217.499 222.333C210.554 223.225 206.895 224.728 200.833 229.667Z" fill="#CA7A11" stroke="#CA7A11" stroke-width="0.333333"/>
<path d="M200.667 255.333C197.594 252.684 196.112 250.881 194.334 246.5L196.167 249.667C198.711 253.236 200.032 254.338 202.334 255.833C207.462 259.043 210.817 260.371 217.834 261.667C226.416 262.531 231.036 261.892 239.001 259C243.34 257.204 245.67 255.747 249.501 251.833C250.927 250.093 251.58 249.053 252.667 247.167C251.604 249.409 251.021 250.384 250.001 251.833C245.682 256.573 242.86 258.764 236.667 261.333C231.039 263.148 227.665 263.683 221.167 263.5C213.331 262.693 205.834 260.167 200.667 255.333Z" fill="white" stroke="white" stroke-width="0.333333"/>
<ellipse cx="85.5" cy="60.5001" rx="1.5" ry="1.83333" fill="white"/>
<ellipse cx="86" cy="7.83333" rx="1" ry="1.83333" fill="white"/>
<path d="M69.0344 32.0849L67.6309 30.9983V32.3565L69.0344 33.5789L71.8414 30.9983V29.3684L69.0344 32.0849Z" fill="#666666" stroke="#666666"/>
<path d="M71.8418 41.9999V40.3157H74.3681V41.9999H71.8418Z" fill="#666666" stroke="#666666"/>
<path d="M69.2807 31.3895L67.6309 30.113L71.7555 26H74.3677V39.4737H71.7555V29.1202L69.2807 31.3895Z" fill="white" stroke="white"/>
<path d="M85.0735 171.449C83.0647 170.009 82.2453 168.877 81.4844 166.143C81.502 167.543 81.5321 168.316 81.7965 169.576C82.747 171.745 83.4691 172.506 85.0735 173.165C87.6859 173.577 88.909 173.342 90.5353 171.761C91.8091 169.74 92.0459 168.351 92.0958 165.675C91.4577 168.858 90.5901 169.927 88.6627 171.293C87.4235 171.989 86.3093 171.977 85.0735 171.449Z" fill="#666666" stroke="#666666" stroke-width="0.333333"/>
<path d="M92.2409 163.959C92.2409 166.126 91.6205 168.081 90.626 169.49C89.6311 170.899 88.2723 171.751 86.7897 171.751C85.3071 171.751 83.9483 170.899 82.9535 169.49C81.9589 168.081 81.3385 166.126 81.3385 163.959C81.3385 161.791 81.9589 159.836 82.9535 158.427C83.9483 157.018 85.3071 156.167 86.7897 156.167C88.2723 156.167 89.6311 157.018 90.626 158.427C91.6205 159.836 92.2409 161.791 92.2409 163.959Z" fill="white" stroke="white" stroke-width="0.333333"/>
<path d="M88.9738 161.462C88.1935 158.809 85.3846 158.185 84.6044 161.774C84.3878 163.819 84.4112 164.916 84.7604 166.768C85.6968 169.42 88.1936 169.264 88.9738 166.455C89.2271 164.645 89.2097 163.541 88.9738 161.462Z" fill="#EDB41F" stroke="white" stroke-width="0.333333"/>
<path d="M88.8193 163.335C87.5709 160.057 85.6983 160.525 84.762 163.335C84.6589 162.155 84.5963 161.536 85.0739 160.525C85.7066 159.282 86.2295 159.159 87.2586 159.277C88.7061 160.164 88.7136 161.242 88.8193 163.335Z" fill="#666666" stroke="#666666" stroke-width="0.333333"/>
<path d="M97.8704 171.449C95.8616 170.009 95.0422 168.877 94.2812 166.143C94.2988 167.543 94.329 168.316 94.5934 169.576C95.5439 171.745 96.2659 172.506 97.8704 173.165C100.483 173.577 101.706 173.342 103.332 171.761C104.606 169.74 104.843 168.351 104.893 165.675C104.255 168.858 103.387 169.927 101.46 171.293C100.22 171.989 99.1062 171.977 97.8704 171.449Z" fill="#666666" stroke="#666666" stroke-width="0.333333"/>
<path d="M105.038 163.959C105.038 166.126 104.417 168.081 103.423 169.49C102.428 170.899 101.069 171.751 99.5866 171.751C98.1039 171.751 96.7452 170.899 95.7503 169.49C94.7558 168.081 94.1354 166.126 94.1354 163.959C94.1354 161.791 94.7558 159.836 95.7503 158.427C96.7452 157.018 98.1039 156.167 99.5866 156.167C101.069 156.167 102.428 157.018 103.423 158.427C104.417 159.836 105.038 161.791 105.038 163.959Z" fill="white" stroke="white" stroke-width="0.333333"/>
<path d="M101.771 161.462C100.99 158.809 98.1815 158.185 97.4012 161.774C97.1847 163.819 97.2081 164.916 97.5573 166.768C98.4937 169.42 100.99 169.264 101.771 166.455C102.024 164.645 102.007 163.541 101.771 161.462Z" fill="#ECB11D" stroke="white" stroke-width="0.333333"/>
<path d="M101.614 163.335C100.366 160.057 98.4932 160.525 97.5569 163.335C97.4539 162.155 97.3912 161.536 97.8688 160.525C98.5015 159.282 99.0244 159.159 100.054 159.277C101.501 160.164 101.509 161.242 101.614 163.335Z" fill="#666666" stroke="#666666" stroke-width="0.333333"/>
<path d="M71.3698 163.321L69.3945 161.543L72.3575 161.543C72.5503 160.691 72.902 160.141 73.3451 159.963C74.3328 159.568 75.314 160.161 75.518 160.951C75.7392 161.808 75.0982 162.357 74.1353 163.321H71.3698Z" fill="#666666" stroke="#666666" stroke-width="0.395062"/>
<path d="M71.5674 173L69.3945 171.617H78.876V169.333L80.0612 170.235V173H71.5674Z" fill="#666666" stroke="#666666" stroke-width="0.395062"/>
<path d="M78.4946 159.793L78.482 159.765C78.4863 159.774 78.4905 159.784 78.4946 159.793L79.6672 162.333C80.4573 163.914 77.2041 167.025 75.0312 169H72.0312C76.1667 165.455 79.8421 162.745 78.4946 159.793Z" fill="#666666"/>
<path d="M78.482 159.765L79.6672 162.333C80.4573 163.914 77.2041 167.025 75.0312 169H72.0312C76.1794 165.444 79.8648 162.728 78.482 159.765Z" stroke="#666666" stroke-width="0.395062"/>
<path d="M72.1593 161.214H69C69 158.58 70.0531 157 73.7389 157C76.7659 157.14 78.4779 158.58 78.4779 161.214C78.5134 162.179 78.2958 162.754 77.4248 163.848L72.1593 168.589V169.115H78.4779V171.222H69V168.062C71.908 165.284 76.3957 162.534 75.8451 161.214C75.8451 159.634 72.6858 158.58 72.1593 161.214Z" fill="white" stroke="white" stroke-width="0.395062"/>
<path d="M207.404 95.0849L206 93.9983V95.3565L207.404 96.5789L210.211 93.9983V92.3684L207.404 95.0849Z" fill="#666666" stroke="#666666"/>
<path d="M210.211 105V103.316H212.737V105H210.211Z" fill="#666666" stroke="#666666"/>
<path d="M207.65 94.3895L206 93.113L210.125 89H212.737V102.474H210.125V92.1202L207.65 94.3895Z" fill="white" stroke="white"/>
<path d="M232.902 103.449C230.893 102.009 230.073 100.877 229.312 98.1432C229.33 99.5429 229.36 100.316 229.625 101.576C230.575 103.745 231.297 104.506 232.902 105.165C235.514 105.577 236.737 105.342 238.363 103.761C239.637 101.74 239.874 100.351 239.924 97.675C239.286 100.858 238.418 101.927 236.491 103.293C235.252 103.989 234.137 103.977 232.902 103.449Z" fill="#666666" stroke="#666666" stroke-width="0.333333"/>
<path d="M240.069 95.9586C240.069 98.126 239.449 100.081 238.454 101.49C237.459 102.899 236.1 103.751 234.618 103.751C233.135 103.751 231.776 102.899 230.782 101.49C229.787 100.081 229.167 98.126 229.167 95.9586C229.167 93.7912 229.787 91.8361 230.782 90.4271C231.776 89.0178 233.135 88.1667 234.618 88.1667C236.1 88.1667 237.459 89.0178 238.454 90.4271C239.449 91.8361 240.069 93.7912 240.069 95.9586Z" fill="white" stroke="white" stroke-width="0.333333"/>
<path d="M236.802 93.4618C236.022 90.809 233.213 90.1847 232.432 93.7739C232.216 95.8185 232.239 96.9155 232.589 98.7675C233.525 101.42 236.022 101.264 236.802 98.4554C237.055 96.6451 237.038 95.5412 236.802 93.4618Z" fill="#F5C62D" stroke="white" stroke-width="0.333333"/>
<path d="M236.647 95.3347C235.399 92.0572 233.526 92.5254 232.59 95.3347C232.487 94.155 232.424 93.5357 232.902 92.5254C233.535 91.2821 234.058 91.1587 235.087 91.277C236.534 92.1645 236.542 93.2422 236.647 95.3347Z" fill="#666666" stroke="#666666" stroke-width="0.333333"/>
<path d="M225.987 91.8089H220.526V93.8376H222.398C223.647 93.8376 224.739 94.3057 225.675 95.5541C226.924 97.4268 226.924 99.2994 226.144 100.86C224.821 102.999 223.647 103.981 220.526 103.825C218.339 103.394 217.33 102.722 216.156 100.236L219.277 99.2994C219.589 101.016 221.93 101.64 222.866 100.704C223.8 99.6513 223.803 97.7389 222.866 97.1146C221.462 96.3344 219.681 96.3349 217.249 97.1146V89H225.987V91.8089Z" fill="white" stroke="white" stroke-width="0.333333"/>
<path d="M225.987 93.5254V91.9648H220.682V93.5254H225.987Z" fill="#666666" stroke="#666666" stroke-width="0.333333"/>
<path d="M217.248 98.831V97.2705L219.433 96.6463C220.803 96.3202 222.71 96.6463 223.178 97.4265C223.646 98.2068 223.802 99.2992 223.178 99.6113C223.04 99.2752 222.893 99.1068 222.554 98.831C220.783 98.0375 219.59 98.1233 217.248 98.831Z" fill="#666666" stroke="#666666" stroke-width="0.333333"/>
<path d="M219.901 105.541C217.895 104.95 217.008 104.23 216 102.108L216.78 101.64C218.52 103.669 219.774 103.966 222.242 103.825C224.421 103.39 225.277 102.595 226.611 100.236V101.328C226.245 102.657 225.927 103.218 225.207 103.981C223.653 105.488 222.464 105.801 219.901 105.541Z" fill="#666666" stroke="#666666" stroke-width="0.333333"/>
<path d="M164.68 38.6531L167.2 36.9388V46H170V34H167.2L163 37.4286L164.68 38.6531Z" fill="white"/>
<path d="M303.222 95.197H305.66C305.66 93.5419 307.211 92.8325 308.097 93.7783C308.435 94.1387 308.762 94.9606 308.097 95.9064L303 100.635V103H310.979V100.635H306.546C308.538 98.6976 310.954 96.6158 310.979 96.1428C311.012 95.4965 311.002 95.1341 310.979 94.4877C310.757 92.596 310.535 91.8867 308.762 91.1773C307.876 90.9409 307.211 90.9409 306.324 91.1773C304.551 91.6502 303.443 92.8325 303.222 95.197Z" fill="#333333"/>
<path d="M169.259 163.029H166.674C166.889 161.09 169.259 159.366 172.06 160.228C173.137 160.659 173.783 161.09 173.999 161.951V163.675C173.999 164.537 173.561 164.86 172.706 165.183C172.581 165.326 172.557 165.416 172.706 165.614C173.367 165.806 173.959 166.045 173.999 166.476C174.086 167.416 174.109 167.971 173.999 169.061C173.888 170.151 173.137 170.785 172.06 171H169.044C167.751 171 166.674 169.923 166.674 169.276V167.984H169.044C169.044 168.415 169.055 169.175 169.259 169.276C170.121 169.707 170.929 169.556 171.629 169.276C172.706 168.846 172.706 166.907 171.629 166.476H169.259V164.537C171.198 164.537 172.06 164.322 172.06 163.029C172.06 161.736 169.682 161.256 169.259 163.029Z" fill="#333333"/>
<path d="M307.88 237L302.6 244.44V246.36H308.12V249H310.28V246.36H312.2V244.44H310.52V237H307.88Z" fill="#333333"/>
<path d="M305.48 243.48L307.16 240.84H308.36V244.44H305.48V243.48Z" fill="#BD3161"/>
<path d="M214.001 237.943C213.613 236.391 211.48 236.197 210.704 237.943L207.214 237.943C207.02 234.645 210.704 233.234 214.198 233.869C216.331 234.257 217.107 236.391 217.107 238.719C217.107 239.883 216.358 240.703 214.974 241.241C216.226 241.8 217.107 242.404 217.301 243.374L217.301 245.702C217.301 247.06 215.555 248.806 214.001 249H210.316C208.766 248.806 207.02 247.254 207.212 244.732H210.704C210.687 245.328 210.772 245.57 211.286 245.896C212.072 246.169 212.643 246.09 213.225 245.896C214.001 245.508 214.001 245.12 214.001 244.15C214.001 243.18 213.807 242.792 213.225 242.792H210.316V239.883L213.225 239.883C214.001 239.689 214.105 238.728 214.001 237.943Z" fill="#666666"/>
<path d="M212.837 236.222C212.449 234.67 210.315 234.476 209.54 236.222L206.05 236.222C205.856 232.925 209.54 231.513 213.033 232.148C215.167 232.536 215.943 234.67 215.943 236.998C215.943 238.162 215.194 238.983 213.809 239.52C215.062 240.08 215.943 240.684 216.137 241.654L216.137 243.982C216.137 245.34 214.391 247.086 212.837 247.28H209.152C207.602 247.086 205.856 245.534 206.048 243.012H209.54C209.523 243.607 209.608 243.849 210.121 244.176C210.908 244.448 211.479 244.37 212.061 244.176C212.837 243.788 212.837 243.4 212.837 242.43C212.837 241.46 212.643 241.072 212.061 241.072H209.152V238.162L212.061 238.162C212.837 237.968 212.94 237.007 212.837 236.222Z" fill="white"/>
<ellipse cx="223.834" cy="122.5" rx="1.5" ry="1.83333" fill="white"/>
<ellipse cx="224.334" cy="69.8333" rx="1" ry="1.83333" fill="white"/>
<ellipse cx="86.834" cy="190.5" rx="1.5" ry="1.83333" fill="white"/>
<ellipse cx="87.334" cy="137.833" rx="1" ry="1.83333" fill="white"/>
<ellipse cx="223.834" cy="267.5" rx="1.5" ry="1.83333" fill="white"/>
<ellipse cx="224.334" cy="214.833" rx="1" ry="1.83333" fill="white"/>
<path d="M222.902 247.449C220.893 246.009 220.073 244.877 219.312 242.143C219.33 243.543 219.36 244.316 219.625 245.576C220.575 247.745 221.297 248.506 222.902 249.165C225.514 249.577 226.737 249.342 228.363 247.761C229.637 245.74 229.874 244.351 229.924 241.675C229.286 244.858 228.418 245.927 226.491 247.293C225.252 247.989 224.137 247.977 222.902 247.449Z" fill="#666666" stroke="#666666" stroke-width="0.333333"/>
<path d="M230.069 239.959C230.069 242.126 229.449 244.081 228.454 245.49C227.459 246.899 226.1 247.751 224.618 247.751C223.135 247.751 221.776 246.899 220.782 245.49C219.787 244.081 219.167 242.126 219.167 239.959C219.167 237.791 219.787 235.836 220.782 234.427C221.776 233.018 223.135 232.167 224.618 232.167C226.1 232.167 227.459 233.018 228.454 234.427C229.449 235.836 230.069 237.791 230.069 239.959Z" fill="white" stroke="white" stroke-width="0.333333"/>
<path d="M226.802 237.462C226.022 234.809 223.213 234.185 222.432 237.774C222.216 239.819 222.239 240.916 222.589 242.768C223.525 245.42 226.022 245.264 226.802 242.455C227.055 240.645 227.038 239.541 226.802 237.462Z" fill="#EDB41F" stroke="white" stroke-width="0.333333"/>
<path d="M226.647 239.335C225.399 236.057 223.526 236.525 222.59 239.335C222.487 238.155 222.424 237.536 222.902 236.525C223.535 235.282 224.058 235.159 225.087 235.277C226.534 236.164 226.542 237.242 226.647 239.335Z" fill="#666666" stroke="#666666" stroke-width="0.333333"/>
<path d="M235.699 247.449C233.69 246.009 232.87 244.877 232.109 242.143C232.127 243.543 232.157 244.316 232.421 245.576C233.372 247.745 234.094 248.506 235.699 249.165C238.311 249.577 239.534 249.342 241.16 247.761C242.434 245.74 242.671 244.351 242.721 241.675C242.083 244.858 241.215 245.927 239.288 247.293C238.049 247.989 236.934 247.977 235.699 247.449Z" fill="#666666" stroke="#666666" stroke-width="0.333333"/>
<path d="M242.866 239.959C242.866 242.126 242.245 244.081 241.251 245.49C240.256 246.899 238.897 247.751 237.415 247.751C235.932 247.751 234.573 246.899 233.578 245.49C232.584 244.081 231.964 242.126 231.964 239.959C231.964 237.791 232.584 235.836 233.578 234.427C234.573 233.018 235.932 232.167 237.415 232.167C238.897 232.167 240.256 233.018 241.251 234.427C242.245 235.836 242.866 237.791 242.866 239.959Z" fill="white" stroke="white" stroke-width="0.333333"/>
<path d="M239.599 237.462C238.819 234.809 236.01 234.185 235.229 237.774C235.013 239.819 235.036 240.916 235.385 242.768C236.322 245.42 238.819 245.264 239.599 242.455C239.852 240.645 239.835 239.541 239.599 237.462Z" fill="#EBAF1C" stroke="white" stroke-width="0.333333"/>
<path d="M239.442 239.335C238.194 236.057 236.321 236.525 235.385 239.335C235.282 238.155 235.219 237.536 235.697 236.525C236.33 235.282 236.852 235.159 237.882 235.277C239.329 236.164 239.337 237.242 239.442 239.335Z" fill="#666666" stroke="#666666" stroke-width="0.333333"/>
<defs>
<radialGradient id="paint0_radial_666_3645" cx="0" cy="0" r="1" gradientUnits="userSpaceOnUse" gradientTransform="translate(87.3327 347.167) rotate(90) scale(11.8333 35.6667)">
<stop/>
<stop offset="1" stop-opacity="0"/>
</radialGradient>
<linearGradient id="paint1_linear_666_3645" x1="86.8346" y1="292.667" x2="86.8346" y2="332.333" gradientUnits="userSpaceOnUse">
<stop stop-color="#B8B8B8"/>
<stop offset="1" stop-color="#D4D4D4"/>
</linearGradient>
<linearGradient id="paint2_linear_666_3645" x1="87.2709" y1="295.177" x2="87.2709" y2="329.489" gradientUnits="userSpaceOnUse">
<stop stop-color="#B7B7B7"/>
<stop offset="1" stop-color="#D6D6D6"/>
</linearGradient>
<radialGradient id="paint3_radial_666_3645" cx="0" cy="0" r="1" gradientUnits="userSpaceOnUse" gradientTransform="translate(224.333 276.167) rotate(90) scale(11.8333 35.6667)">
<stop/>
<stop offset="1" stop-opacity="0"/>
</radialGradient>
<radialGradient id="paint4_radial_666_3645" cx="0" cy="0" r="1" gradientUnits="userSpaceOnUse" gradientTransform="translate(87.3327 199.167) rotate(90) scale(11.8333 35.6667)">
<stop/>
<stop offset="1" stop-opacity="0"/>
</radialGradient>
<radialGradient id="paint5_radial_666_3645" cx="0" cy="0" r="1" gradientUnits="userSpaceOnUse" gradientTransform="translate(85.9987 69.1663) rotate(90) scale(11.8333 35.6667)">
<stop/>
<stop offset="1" stop-opacity="0"/>
</radialGradient>
<linearGradient id="paint6_linear_666_3645" x1="85.5007" y1="14.6665" x2="85.5007" y2="54.3332" gradientUnits="userSpaceOnUse">
<stop stop-color="#EAAC19"/>
<stop offset="1" stop-color="#FFDD40"/>
</linearGradient>
<radialGradient id="paint7_radial_666_3645" cx="0" cy="0" r="1" gradientUnits="userSpaceOnUse" gradientTransform="translate(224.333 131.167) rotate(90) scale(11.8333 35.6667)">
<stop/>
<stop offset="1" stop-opacity="0"/>
</radialGradient>
<radialGradient id="paint8_radial_666_3645" cx="0" cy="0" r="1" gradientUnits="userSpaceOnUse" gradientTransform="translate(223.999 131.5) rotate(90) scale(11.8333 35.6667)">
<stop/>
<stop offset="1" stop-opacity="0"/>
</radialGradient>
<linearGradient id="paint9_linear_666_3645" x1="223.501" y1="77" x2="223.501" y2="116.667" gradientUnits="userSpaceOnUse">
<stop stop-color="#EAAC19"/>
<stop offset="1" stop-color="#FFDD40"/>
</linearGradient>
<radialGradient id="paint10_radial_666_3645" cx="0" cy="0" r="1" gradientUnits="userSpaceOnUse" gradientTransform="translate(86.9987 199.5) rotate(90) scale(11.8333 35.6667)">
<stop/>
<stop offset="1" stop-opacity="0"/>
</radialGradient>
<linearGradient id="paint11_linear_666_3645" x1="86.5007" y1="145" x2="86.5007" y2="184.667" gradientUnits="userSpaceOnUse">
<stop stop-color="#EAAC19"/>
<stop offset="1" stop-color="#FFDD40"/>
</linearGradient>
<radialGradient id="paint12_radial_666_3645" cx="0" cy="0" r="1" gradientUnits="userSpaceOnUse" gradientTransform="translate(223.999 276.5) rotate(90) scale(11.8333 35.6667)">
<stop/>
<stop offset="1" stop-opacity="0"/>
</radialGradient>
<linearGradient id="paint13_linear_666_3645" x1="223.501" y1="222" x2="223.501" y2="261.667" gradientUnits="userSpaceOnUse">
<stop stop-color="#EAAC19"/>
<stop offset="1" stop-color="#FFDD40"/>
</linearGradient>
</defs>
</svg>
