<svg width="375" height="379" viewBox="0 0 375 379" fill="none" xmlns="http://www.w3.org/2000/svg">
<path d="M105.801 58.6001C105.801 58.6001 127.501 89.1001 168.101 96.1001" stroke="white" stroke-width="2" stroke-dasharray="10 10"/>
<path d="M133.701 88.2L147.501 91.1L138.501 80L139.301 86.3L133.701 88.2Z" fill="white"/>
<path d="M257.101 120.5C257.101 120.5 326.801 139.4 194.801 169.7" stroke="white" stroke-width="2" stroke-dasharray="10 10"/>
<path d="M246.701 160.4L232.601 160.8L243.401 151.4L241.501 157.5L246.701 160.4Z" fill="white"/>
<path d="M254.501 274.8C254.501 274.8 357.801 298.5 195.101 320.6" stroke="white" stroke-width="2" stroke-dasharray="10 10"/>
<path d="M268.701 307.4L254.601 307.7L265.401 301.4L263.501 305.4L268.701 307.4Z" fill="white"/>
<path d="M91.6004 211.2C91.6004 211.2 67.1004 240.9 169.3 255.2" stroke="white" stroke-width="2" stroke-dasharray="10 10"/>
<path d="M109.5 245.3L123.5 246L112.9 236.4L114.7 242.5L109.5 245.3Z" fill="white"/>
<rect x="169" y="224.333" width="156" height="34.3333" rx="12.3333" fill="#BD3161"/>
<path d="M273.334 247.167V238H277.334C282.667 238.5 282.501 246.667 277.167 247.167H273.334Z" stroke="white" stroke-width="1.6"/>
<path d="M284.668 241.82C287.233 240.754 288.173 241.015 288.913 242.438C289.097 242.792 289.168 243.193 289.168 243.592V244.404M289.168 247.82V245.82M289.168 245.82C287.492 247.02 286.379 247.474 285.402 247.229C284.039 246.887 283.988 244.817 285.257 244.214C286.214 243.758 287.368 243.844 289.168 244.404M289.168 245.82V244.404" stroke="white" stroke-width="1.6"/>
<path d="M293.668 251.333H291.501H291.334V249.833H293.001C293.61 249.246 293.853 248.765 294.168 247.667L291.001 240.667H292.834L295.168 245.667L296.834 240.667H298.668L295.334 249C294.787 250.228 294.418 250.753 293.668 251.333Z" fill="white" stroke="white" stroke-width="0.333333"/>
<ellipse cx="224.334" cy="276.167" rx="35.6667" ry="11.8333" fill="url(#paint0_radial_666_3913)"/>
<rect x="32" y="147.333" width="156" height="34.3333" rx="12.3333" fill="#BD3161"/>
<path d="M136.334 170.167V161H140.334C145.667 161.5 145.501 169.667 140.167 170.167H136.334Z" stroke="white" stroke-width="1.6"/>
<path d="M147.668 164.82C150.233 163.754 151.173 164.015 151.913 165.438C152.097 165.792 152.168 166.193 152.168 166.592V167.404M152.168 170.82V168.82M152.168 168.82C150.492 170.02 149.379 170.474 148.402 170.229C147.039 169.887 146.988 167.817 148.257 167.214C149.214 166.758 150.368 166.844 152.168 167.404M152.168 168.82V167.404" stroke="white" stroke-width="1.6"/>
<path d="M156.668 174.333H154.501H154.334V172.833H156.001C156.61 172.246 156.853 171.765 157.168 170.667L154.001 163.667H155.834L158.168 168.667L159.834 163.667H161.668L158.334 172C157.787 173.228 157.418 173.753 156.668 174.333Z" fill="white" stroke="white" stroke-width="0.333333"/>
<ellipse cx="87.3337" cy="199.167" rx="35.6667" ry="11.8333" fill="url(#paint1_radial_666_3913)"/>
<rect x="32" y="21.6667" width="156" height="34" rx="12.3333" fill="#BD3161"/>
<path d="M134.666 44.1667V35H138.666C143.999 35.5 143.833 43.6667 138.499 44.1667H134.666Z" stroke="white" stroke-width="1.6"/>
<path d="M145.999 38.8202C148.564 37.7537 149.504 38.015 150.244 39.4374C150.428 39.7917 150.499 40.1926 150.499 40.5919V41.4035M150.499 44.8202V42.8202M150.499 42.8202C148.823 44.0202 147.71 44.4734 146.733 44.2284C145.37 43.8868 145.319 41.8164 146.588 41.2134C147.546 40.758 148.699 40.8433 150.499 41.4035M150.499 42.8202V41.4035" stroke="white" stroke-width="1.6"/>
<path d="M155 48.3334H152.833H152.666V46.8334H154.333C154.943 46.2458 155.185 45.7649 155.5 44.6667L152.333 37.6667H154.166L156.5 42.6667L158.166 37.6667H160L156.666 46.0001C156.119 47.2279 155.75 47.7534 155 48.3334Z" fill="white" stroke="white" stroke-width="0.333333"/>
<ellipse cx="85.9997" cy="69.1663" rx="35.6667" ry="11.8333" fill="url(#paint2_radial_666_3913)"/>
<path d="M50.435 48.5381L50.166 40.333C55.2145 49.8016 59.5046 53.0643 68.4993 56.9997V68.9997C59.1814 64.6791 54.3232 61.5483 51.1061 52.3669C50.6753 51.1373 50.4777 49.8403 50.435 48.5381Z" fill="#C57509" stroke="#C57509" stroke-width="0.333333"/>
<path d="M121.23 48.7051L121.499 40.5C116.451 49.9686 112.494 53.0646 103.499 57V69C112.816 64.6799 117.38 61.6961 120.562 52.5347C120.989 51.304 121.187 50.0073 121.23 48.7051Z" fill="#C57509" stroke="#C57509" stroke-width="0.333333"/>
<path d="M103.333 56.9998C89.2881 61.3931 81.6453 61.34 68.666 56.9998V68.9998C82.1163 73.0447 89.7045 73.139 103.333 68.9998V56.9998Z" fill="#9B4C01" stroke="#9B4C01" stroke-width="0.333333"/>
<path d="M49.666 49.4999V37.3333L50.166 39.3333L50.4993 49.8333C52.8327 59.6666 58.166 64.8333 68.666 68.9999C78.9231 72.2487 84.4825 72.5582 94.166 71.3333C101.654 69.9551 105.83 68.5087 113.166 63.6666C117.666 59.9999 120.795 53.9999 121.166 49.4999L121.499 38.9999L122.166 37.3333L121.833 51.1666C119.144 58.9475 116.779 62.8388 109.333 67.9999C100.067 72.6323 94.3744 73.6722 83.666 73.8333C74.424 73.1015 69.2059 71.96 59.666 65.8333C53.7531 60.7153 51.0238 57.475 49.666 49.4999Z" fill="#AB6004" stroke="#AB6004" stroke-width="0.333333"/>
<path d="M122.5 33.6665C122.5 41.0565 118.414 47.7609 111.78 52.624C105.146 57.4869 95.9729 60.4998 85.8333 60.4998C75.6938 60.4998 66.5208 57.4869 59.8868 52.624C53.2526 47.7609 49.1667 41.0565 49.1667 33.6665C49.1667 26.2765 53.2526 19.5721 59.8868 14.709C66.5208 9.84606 75.6938 6.83317 85.8333 6.83317C95.9729 6.83317 105.146 9.84606 111.78 14.709C118.414 19.5721 122.5 26.2765 122.5 33.6665Z" fill="#FFED8B" stroke="#FFED8B" stroke-width="0.333333"/>
<ellipse cx="85.8333" cy="33.6666" rx="35.8333" ry="25.3333" fill="#FFDD40"/>
<ellipse cx="85.5007" cy="34.4998" rx="29.1667" ry="19.8333" fill="url(#paint3_linear_666_3913)"/>
<path d="M62.834 22.3331C56.5002 27.4998 55.3338 36.1664 58.5007 42.3331C57.1608 40.2801 56.4521 38.9536 55.5001 35.1665C55.0905 30.3657 55.848 27.6627 58.8335 22.8331C62.9717 18.1366 65.5589 16.1831 70.6668 14.1665C77.8004 11.7218 81.9317 11.0566 89.5001 11.3331C95.4276 12.1041 98.942 13.1977 105.667 16.4998C112.041 21.1209 113.587 24.0763 115.5 29.4998C116.276 32.8912 116.293 34.6876 115.333 37.6665L112.833 42.3331C114.396 39.0232 114.836 37.4137 114.667 34.9998C113.833 29.1665 112.367 25.4957 106.833 21.1665C102.431 17.728 99.459 16.2619 92.5001 15.1664C87.7749 14.5652 85.0171 14.3972 79.5002 14.9998C72.5546 15.8918 68.8959 17.3941 62.834 22.3331Z" fill="#CA7A11" stroke="#CA7A11" stroke-width="0.333333"/>
<path d="M62.6673 47.9998C59.5937 45.3506 58.1119 43.5475 56.334 39.1665L58.1673 42.3332C60.7114 45.9025 62.0325 47.0043 64.334 48.4998C69.462 51.7096 72.8168 53.0375 79.834 54.3332C88.4164 55.1974 93.0362 54.5583 101.001 51.6665C105.34 49.8704 107.67 48.4134 111.501 44.4998C112.927 42.7596 113.58 41.7199 114.667 39.8332C113.604 42.0755 113.021 43.0505 112.001 44.4998C107.682 49.2395 104.86 51.4305 98.6673 53.9998C93.0385 55.8149 89.6653 56.3493 83.1673 56.1665C75.3312 55.3592 67.834 52.8332 62.6673 47.9998Z" fill="white" stroke="white" stroke-width="0.333333"/>
<path d="M81.4056 40.4487C79.3968 39.0088 78.5773 37.8764 77.8164 35.143C77.834 36.5427 77.8642 37.3162 78.1285 38.5761C79.0791 40.7445 79.8011 41.5056 81.4056 42.1652C84.0179 42.5769 85.2411 42.3419 86.8674 40.7608C88.1411 38.7401 88.378 37.3507 88.4279 34.6748C87.7897 37.8577 86.9221 38.9269 84.9948 40.2926C83.7555 40.9887 82.6413 40.9771 81.4056 40.4487Z" fill="#666666" stroke="#666666" stroke-width="0.333333"/>
<path d="M88.5739 32.9584C88.5739 35.1258 87.9535 37.0809 86.959 38.4898C85.9641 39.8992 84.6054 40.7503 83.1227 40.7503C81.6401 40.7503 80.2813 39.8992 79.2865 38.4898C78.2919 37.0809 77.6715 35.1258 77.6715 32.9584C77.6715 30.791 78.2919 28.8358 79.2865 27.4269C80.2813 26.0175 81.6401 25.1664 83.1227 25.1664C84.6054 25.1664 85.9641 26.0175 86.959 27.4269C87.9535 28.8358 88.5739 30.791 88.5739 32.9584Z" fill="white" stroke="white" stroke-width="0.333333"/>
<path d="M85.3078 30.4615C84.5275 27.8087 81.7186 27.1845 80.9383 30.7736C80.7218 32.8183 80.7452 33.9153 81.0944 35.7673C82.0308 38.4201 84.5276 38.2641 85.3078 35.4552C85.5611 33.6448 85.5437 32.5409 85.3078 30.4615Z" fill="#F4C32B" stroke="white" stroke-width="0.333333"/>
<path d="M85.1513 32.3347C83.9029 29.0572 82.0303 29.5254 81.094 32.3347C80.991 31.155 80.9283 30.5357 81.4059 29.5254C82.0386 28.2821 82.5615 28.1587 83.5906 28.277C85.0381 29.1645 85.0456 30.2422 85.1513 32.3347Z" fill="#666666" stroke="#666666" stroke-width="0.333333"/>
<path d="M94.2025 40.4487C92.1936 39.0088 91.3742 37.8764 90.6133 35.143C90.6309 36.5427 90.661 37.3162 90.9254 38.5761C91.876 40.7445 92.598 41.5056 94.2025 42.1652C96.8148 42.5769 98.0379 42.3419 99.6642 40.7608C100.938 38.7401 101.175 37.3507 101.225 34.6748C100.587 37.8577 99.719 38.9269 97.7916 40.2926C96.5524 40.9887 95.4382 40.9771 94.2025 40.4487Z" fill="#666666" stroke="#666666" stroke-width="0.333333"/>
<path d="M101.371 32.9584C101.371 35.1258 100.75 37.0809 99.7558 38.4898C98.761 39.8992 97.4022 40.7503 95.9196 40.7503C94.437 40.7503 93.0782 39.8992 92.0833 38.4898C91.0888 37.0809 90.4684 35.1258 90.4684 32.9584C90.4684 30.791 91.0888 28.8358 92.0833 27.4269C93.0782 26.0175 94.437 25.1664 95.9196 25.1664C97.4022 25.1664 98.761 26.0175 99.7558 27.4269C100.75 28.8358 101.371 30.791 101.371 32.9584Z" fill="white" stroke="white" stroke-width="0.333333"/>
<path d="M98.1046 30.4615C97.3244 27.8087 94.5155 27.1845 93.7352 30.7736C93.5187 32.8183 93.5421 33.9153 93.8913 35.7673C94.8277 38.4201 97.3245 38.2641 98.1046 35.4552C98.3579 33.6448 98.3405 32.5409 98.1046 30.4615Z" fill="#F4C32B" stroke="white" stroke-width="0.333333"/>
<path d="M97.9472 32.3347C96.6988 29.0572 94.8262 29.5254 93.8899 32.3347C93.7869 31.155 93.7242 30.5357 94.2018 29.5254C94.8345 28.2821 95.3574 28.1587 96.3865 28.277C97.834 29.1645 97.8415 30.2422 97.9472 32.3347Z" fill="#666666" stroke="#666666" stroke-width="0.333333"/>
<rect x="169" y="79.3333" width="156" height="34.3333" rx="12.3333" fill="#BD3161"/>
<path d="M273.334 102.167V93H277.334C282.667 93.5 282.501 101.667 277.167 102.167H273.334Z" stroke="white" stroke-width="1.6"/>
<path d="M284.668 96.8205C287.233 95.754 288.173 96.0152 288.913 97.4377C289.097 97.792 289.168 98.1928 289.168 98.5921V99.4038M289.168 102.82V100.82M289.168 100.82C287.492 102.02 286.379 102.474 285.402 102.229C284.039 101.887 283.988 99.8166 285.257 99.2136C286.214 98.7582 287.368 98.8435 289.168 99.4038M289.168 100.82V99.4038" stroke="white" stroke-width="1.6"/>
<path d="M293.668 106.333H291.501H291.334V104.833H293.001C293.61 104.246 293.853 103.765 294.168 102.667L291.001 95.6667H292.834L295.168 100.667L296.834 95.6667H298.668L295.334 104C294.787 105.228 294.418 105.753 293.668 106.333Z" fill="white" stroke="white" stroke-width="0.333333"/>
<ellipse cx="224.334" cy="131.167" rx="35.6667" ry="11.8333" fill="url(#paint4_radial_666_3913)"/>
<ellipse cx="224" cy="131.5" rx="35.6667" ry="11.8333" fill="url(#paint5_radial_666_3913)"/>
<path d="M188.435 110.872L188.166 102.667C193.214 112.135 197.505 115.398 206.499 119.333V131.333C197.181 127.013 192.323 123.882 189.106 114.7C188.675 113.471 188.478 112.174 188.435 110.872Z" fill="#C57509" stroke="#C57509" stroke-width="0.333333"/>
<path d="M259.23 111.039L259.499 102.833C254.451 112.302 250.494 115.398 241.499 119.333V131.333C250.816 127.013 255.38 124.03 258.562 114.868C258.989 113.637 259.187 112.341 259.23 111.039Z" fill="#C57509" stroke="#C57509" stroke-width="0.333333"/>
<path d="M241.333 119.333C227.288 123.727 219.645 123.674 206.666 119.333V131.333C220.116 135.378 227.704 135.473 241.333 131.333V119.333Z" fill="#9B4C01" stroke="#9B4C01" stroke-width="0.333333"/>
<path d="M187.666 111.833V99.6667L188.166 101.667L188.499 112.167C190.833 122 196.166 127.167 206.666 131.333C216.923 134.582 222.482 134.892 232.166 133.667C239.654 132.289 243.83 130.842 251.166 126C255.666 122.333 258.795 116.333 259.166 111.833L259.499 101.333L260.166 99.6667L259.833 113.5C257.144 121.281 254.779 125.172 247.333 130.333C238.067 134.966 232.374 136.006 221.666 136.167C212.424 135.435 207.206 134.293 197.666 128.167C191.753 123.049 189.024 119.809 187.666 111.833Z" fill="#AB6004" stroke="#AB6004" stroke-width="0.333333"/>
<path d="M260.5 96C260.5 103.39 256.414 110.094 249.78 114.957C243.146 119.82 233.973 122.833 223.833 122.833C213.694 122.833 204.521 119.82 197.887 114.957C191.253 110.094 187.167 103.39 187.167 96C187.167 88.61 191.253 81.9056 197.887 77.0425C204.521 72.1796 213.694 69.1667 223.833 69.1667C233.973 69.1667 243.146 72.1796 249.78 77.0425C256.414 81.9056 260.5 88.61 260.5 96Z" fill="#FFED8B" stroke="#FFED8B" stroke-width="0.333333"/>
<ellipse cx="223.833" cy="96.0001" rx="35.8333" ry="25.3333" fill="#FFDD40"/>
<ellipse cx="223.501" cy="96.8333" rx="29.1667" ry="19.8333" fill="url(#paint6_linear_666_3913)"/>
<path d="M200.834 84.6666C194.5 89.8332 193.334 98.4999 196.501 104.667C195.161 102.614 194.452 101.287 193.5 97.5C193.091 92.6992 193.848 89.9962 196.833 85.1666C200.972 80.4701 203.559 78.5166 208.667 76.5C215.8 74.0553 219.932 73.3901 227.5 73.6666C233.428 74.4376 236.942 75.5312 243.667 78.8333C250.041 83.4543 251.587 86.4098 253.5 91.8333C254.276 95.2247 254.293 97.0211 253.333 100L250.833 104.667C252.396 101.357 252.836 99.7472 252.667 97.3333C251.833 91.5 250.367 87.8292 244.833 83.5C240.431 80.0615 237.459 78.5954 230.5 77.4999C225.775 76.8987 223.017 76.7307 217.5 77.3333C210.555 78.2253 206.896 79.7276 200.834 84.6666Z" fill="#CA7A11" stroke="#CA7A11" stroke-width="0.333333"/>
<path d="M200.667 110.333C197.594 107.684 196.112 105.881 194.334 101.5L196.167 104.667C198.711 108.236 200.032 109.338 202.334 110.833C207.462 114.043 210.817 115.371 217.834 116.667C226.416 117.531 231.036 116.892 239.001 114C243.34 112.204 245.67 110.747 249.501 106.833C250.927 105.093 251.58 104.053 252.667 102.167C251.604 104.409 251.021 105.384 250.001 106.833C245.682 111.573 242.86 113.764 236.667 116.333C231.039 118.148 227.665 118.683 221.167 118.5C213.331 117.693 205.834 115.167 200.667 110.333Z" fill="white" stroke="white" stroke-width="0.333333"/>
<ellipse cx="86.9997" cy="199.5" rx="35.6667" ry="11.8333" fill="url(#paint7_radial_666_3913)"/>
<path d="M51.435 178.872L51.166 170.667C56.2145 180.135 60.5046 183.398 69.4993 187.333V199.333C60.1814 195.013 55.3232 191.882 52.1061 182.7C51.6753 181.471 51.4777 180.174 51.435 178.872Z" fill="#C57509" stroke="#C57509" stroke-width="0.333333"/>
<path d="M122.23 179.039L122.499 170.833C117.451 180.302 113.494 183.398 104.499 187.333V199.333C113.816 195.013 118.38 192.03 121.562 182.868C121.989 181.637 122.187 180.341 122.23 179.039Z" fill="#C57509" stroke="#C57509" stroke-width="0.333333"/>
<path d="M104.333 187.333C90.2881 191.727 82.6453 191.674 69.666 187.333V199.333C83.1163 203.378 90.7045 203.473 104.333 199.333V187.333Z" fill="#9B4C01" stroke="#9B4C01" stroke-width="0.333333"/>
<path d="M50.666 179.833V167.667L51.166 169.667L51.4993 180.167C53.8327 190 59.166 195.167 69.666 199.333C79.9231 202.582 85.4825 202.892 95.166 201.667C102.654 200.289 106.83 198.842 114.166 194C118.666 190.333 121.795 184.333 122.166 179.833L122.499 169.333L123.166 167.667L122.833 181.5C120.144 189.281 117.779 193.172 110.333 198.333C101.067 202.966 95.3744 204.006 84.666 204.167C75.424 203.435 70.2059 202.293 60.666 196.167C54.7531 191.049 52.0238 187.809 50.666 179.833Z" fill="#AB6004" stroke="#AB6004" stroke-width="0.333333"/>
<path d="M123.5 164C123.5 171.39 119.414 178.094 112.78 182.957C106.146 187.82 96.9729 190.833 86.8333 190.833C76.6938 190.833 67.5208 187.82 60.8868 182.957C54.2526 178.094 50.1667 171.39 50.1667 164C50.1667 156.61 54.2526 149.906 60.8868 145.043C67.5208 140.18 76.6938 137.167 86.8333 137.167C96.9729 137.167 106.146 140.18 112.78 145.043C119.414 149.906 123.5 156.61 123.5 164Z" fill="#FFED8B" stroke="#FFED8B" stroke-width="0.333333"/>
<ellipse cx="86.8333" cy="164" rx="35.8333" ry="25.3333" fill="#FFDD40"/>
<ellipse cx="86.5007" cy="164.833" rx="29.1667" ry="19.8333" fill="url(#paint8_linear_666_3913)"/>
<path d="M63.834 152.667C57.5002 157.833 56.3338 166.5 59.5007 172.667C58.1608 170.614 57.4521 169.287 56.5001 165.5C56.0905 160.699 56.848 157.996 59.8335 153.167C63.9717 148.47 66.5589 146.517 71.6668 144.5C78.8004 142.055 82.9317 141.39 90.5001 141.667C96.4276 142.438 99.942 143.531 106.667 146.833C113.041 151.454 114.587 154.41 116.5 159.833C117.276 163.225 117.293 165.021 116.333 168L113.833 172.667C115.396 169.357 115.836 167.747 115.667 165.333C114.833 159.5 113.367 155.829 107.833 151.5C103.431 148.061 100.459 146.595 93.5001 145.5C88.7749 144.899 86.0171 144.731 80.5002 145.333C73.5546 146.225 69.8959 147.728 63.834 152.667Z" fill="#CA7A11" stroke="#CA7A11" stroke-width="0.333333"/>
<path d="M63.6673 178.333C60.5937 175.684 59.1119 173.881 57.334 169.5L59.1673 172.667C61.7114 176.236 63.0325 177.338 65.334 178.833C70.462 182.043 73.8168 183.371 80.834 184.667C89.4164 185.531 94.0362 184.892 102.001 182C106.34 180.204 108.67 178.747 112.501 174.833C113.927 173.093 114.58 172.053 115.667 170.167C114.604 172.409 114.021 173.384 113.001 174.833C108.682 179.573 105.86 181.764 99.6673 184.333C94.0385 186.148 90.6653 186.683 84.1673 186.5C76.3312 185.693 68.834 183.167 63.6673 178.333Z" fill="white" stroke="white" stroke-width="0.333333"/>
<ellipse cx="224" cy="276.5" rx="35.6667" ry="11.8333" fill="url(#paint9_radial_666_3913)"/>
<path d="M188.435 255.872L188.166 247.667C193.214 257.135 197.505 260.398 206.499 264.333V276.333C197.181 272.013 192.323 268.882 189.106 259.7C188.675 258.471 188.478 257.174 188.435 255.872Z" fill="#C57509" stroke="#C57509" stroke-width="0.333333"/>
<path d="M259.23 256.039L259.499 247.833C254.451 257.302 250.494 260.398 241.499 264.333V276.333C250.816 272.013 255.38 269.03 258.562 259.868C258.989 258.637 259.187 257.341 259.23 256.039Z" fill="#C57509" stroke="#C57509" stroke-width="0.333333"/>
<path d="M241.333 264.333C227.288 268.727 219.645 268.674 206.666 264.333V276.333C220.116 280.378 227.704 280.473 241.333 276.333V264.333Z" fill="#9B4C01" stroke="#9B4C01" stroke-width="0.333333"/>
<path d="M187.666 256.833V244.667L188.166 246.667L188.499 257.167C190.833 267 196.166 272.167 206.666 276.333C216.923 279.582 222.482 279.892 232.166 278.667C239.654 277.289 243.83 275.842 251.166 271C255.666 267.333 258.795 261.333 259.166 256.833L259.499 246.333L260.166 244.667L259.833 258.5C257.144 266.281 254.779 270.172 247.333 275.333C238.067 279.966 232.374 281.006 221.666 281.167C212.424 280.435 207.206 279.293 197.666 273.167C191.753 268.049 189.024 264.809 187.666 256.833Z" fill="#AB6004" stroke="#AB6004" stroke-width="0.333333"/>
<path d="M260.5 241C260.5 248.39 256.414 255.094 249.78 259.957C243.146 264.82 233.973 267.833 223.833 267.833C213.694 267.833 204.521 264.82 197.887 259.957C191.253 255.094 187.167 248.39 187.167 241C187.167 233.61 191.253 226.906 197.887 222.043C204.521 217.18 213.694 214.167 223.833 214.167C233.973 214.167 243.146 217.18 249.78 222.043C256.414 226.906 260.5 233.61 260.5 241Z" fill="#FFED8B" stroke="#FFED8B" stroke-width="0.333333"/>
<ellipse cx="223.833" cy="241" rx="35.8333" ry="25.3333" fill="#FFDD40"/>
<ellipse cx="223.501" cy="241.833" rx="29.1667" ry="19.8333" fill="url(#paint10_linear_666_3913)"/>
<path d="M200.834 229.667C194.5 234.833 193.334 243.5 196.501 249.667C195.161 247.614 194.452 246.287 193.5 242.5C193.091 237.699 193.848 234.996 196.833 230.167C200.972 225.47 203.559 223.517 208.667 221.5C215.8 219.055 219.932 218.39 227.5 218.667C233.428 219.438 236.942 220.531 243.667 223.833C250.041 228.454 251.587 231.41 253.5 236.833C254.276 240.225 254.293 242.021 253.333 245L250.833 249.667C252.396 246.357 252.836 244.747 252.667 242.333C251.833 236.5 250.367 232.829 244.833 228.5C240.431 225.061 237.459 223.595 230.5 222.5C225.775 221.899 223.017 221.731 217.5 222.333C210.555 223.225 206.896 224.728 200.834 229.667Z" fill="#CA7A11" stroke="#CA7A11" stroke-width="0.333333"/>
<path d="M200.667 255.333C197.594 252.684 196.112 250.881 194.334 246.5L196.167 249.667C198.711 253.236 200.032 254.338 202.334 255.833C207.462 259.043 210.817 260.371 217.834 261.667C226.416 262.531 231.036 261.892 239.001 259C243.34 257.204 245.67 255.747 249.501 251.833C250.927 250.093 251.58 249.053 252.667 247.167C251.604 249.409 251.021 250.384 250.001 251.833C245.682 256.573 242.86 258.764 236.667 261.333C231.039 263.148 227.665 263.683 221.167 263.5C213.331 262.693 205.834 260.167 200.667 255.333Z" fill="white" stroke="white" stroke-width="0.333333"/>
<ellipse cx="85.5" cy="60.5001" rx="1.5" ry="1.83333" fill="white"/>
<ellipse cx="86" cy="7.83333" rx="1" ry="1.83333" fill="white"/>
<path d="M69.0344 32.0849L67.6309 30.9983V32.3565L69.0344 33.5789L71.8414 30.9983V29.3684L69.0344 32.0849Z" fill="#666666" stroke="#666666"/>
<path d="M71.8418 41.9999V40.3157H74.3681V41.9999H71.8418Z" fill="#666666" stroke="#666666"/>
<path d="M69.2807 31.3895L67.6309 30.113L71.7555 26H74.3677V39.4737H71.7555V29.1202L69.2807 31.3895Z" fill="white" stroke="white"/>
<path d="M85.0735 171.449C83.0647 170.009 82.2453 168.877 81.4844 166.143C81.502 167.543 81.5321 168.316 81.7965 169.576C82.747 171.745 83.4691 172.506 85.0735 173.165C87.6859 173.577 88.909 173.342 90.5353 171.761C91.8091 169.74 92.0459 168.351 92.0958 165.675C91.4577 168.858 90.5901 169.927 88.6627 171.293C87.4235 171.989 86.3093 171.977 85.0735 171.449Z" fill="#666666" stroke="#666666" stroke-width="0.333333"/>
<path d="M92.2409 163.959C92.2409 166.126 91.6205 168.081 90.626 169.49C89.6311 170.899 88.2723 171.751 86.7897 171.751C85.3071 171.751 83.9483 170.899 82.9535 169.49C81.9589 168.081 81.3385 166.126 81.3385 163.959C81.3385 161.791 81.9589 159.836 82.9535 158.427C83.9483 157.018 85.3071 156.167 86.7897 156.167C88.2723 156.167 89.6311 157.018 90.626 158.427C91.6205 159.836 92.2409 161.791 92.2409 163.959Z" fill="white" stroke="white" stroke-width="0.333333"/>
<path d="M88.9748 161.462C88.1945 158.809 85.3856 158.185 84.6053 161.774C84.3888 163.819 84.4122 164.916 84.7614 166.768C85.6978 169.42 88.1946 169.264 88.9748 166.455C89.2281 164.645 89.2107 163.541 88.9748 161.462Z" fill="#EDB41F" stroke="white" stroke-width="0.333333"/>
<path d="M88.8183 163.335C87.5699 160.057 85.6973 160.525 84.761 163.335C84.658 162.155 84.5953 161.536 85.0729 160.525C85.7056 159.282 86.2285 159.159 87.2576 159.277C88.7051 160.164 88.7126 161.242 88.8183 163.335Z" fill="#666666" stroke="#666666" stroke-width="0.333333"/>
<path d="M97.8704 171.449C95.8616 170.009 95.0422 168.877 94.2812 166.143C94.2988 167.543 94.329 168.316 94.5934 169.576C95.5439 171.745 96.2659 172.506 97.8704 173.165C100.483 173.577 101.706 173.342 103.332 171.761C104.606 169.74 104.843 168.351 104.893 165.675C104.255 168.858 103.387 169.927 101.46 171.293C100.22 171.989 99.1062 171.977 97.8704 171.449Z" fill="#666666" stroke="#666666" stroke-width="0.333333"/>
<path d="M105.038 163.959C105.038 166.126 104.417 168.081 103.423 169.49C102.428 170.899 101.069 171.751 99.5866 171.751C98.1039 171.751 96.7452 170.899 95.7503 169.49C94.7558 168.081 94.1354 166.126 94.1354 163.959C94.1354 161.791 94.7558 159.836 95.7503 158.427C96.7452 157.018 98.1039 156.167 99.5866 156.167C101.069 156.167 102.428 157.018 103.423 158.427C104.417 159.836 105.038 161.791 105.038 163.959Z" fill="white" stroke="white" stroke-width="0.333333"/>
<path d="M101.772 161.462C100.991 158.809 98.1825 158.185 97.4022 161.774C97.1857 163.819 97.2091 164.916 97.5583 166.768C98.4946 169.42 100.991 169.264 101.772 166.455C102.025 164.645 102.008 163.541 101.772 161.462Z" fill="#ECB11D" stroke="white" stroke-width="0.333333"/>
<path d="M101.615 163.335C100.367 160.057 98.4942 160.525 97.5579 163.335C97.4548 162.155 97.3922 161.536 97.8698 160.525C98.5025 159.282 99.0253 159.159 100.055 159.277C101.502 160.164 101.51 161.242 101.615 163.335Z" fill="#666666" stroke="#666666" stroke-width="0.333333"/>
<path d="M71.3698 163.321L69.3945 161.543L72.3575 161.543C72.5503 160.691 72.902 160.141 73.3451 159.963C74.3328 159.568 75.314 160.161 75.518 160.951C75.7392 161.808 75.0982 162.357 74.1353 163.321H71.3698Z" fill="#666666" stroke="#666666" stroke-width="0.395062"/>
<path d="M71.5674 173L69.3945 171.617H78.876V169.333L80.0612 170.235V173H71.5674Z" fill="#666666" stroke="#666666" stroke-width="0.395062"/>
<path d="M78.4946 159.793L78.482 159.765C78.4863 159.774 78.4905 159.784 78.4946 159.793L79.6672 162.333C80.4573 163.914 77.2041 167.025 75.0312 169H72.0312C76.1667 165.455 79.8421 162.745 78.4946 159.793Z" fill="#666666"/>
<path d="M78.482 159.765L79.6672 162.333C80.4573 163.914 77.2041 167.025 75.0312 169H72.0312C76.1794 165.444 79.8648 162.728 78.482 159.765Z" stroke="#666666" stroke-width="0.395062"/>
<path d="M72.1593 161.214H69C69 158.58 70.0531 157 73.7389 157C76.7659 157.14 78.4779 158.58 78.4779 161.214C78.5134 162.179 78.2958 162.754 77.4248 163.848L72.1593 168.589V169.115H78.4779V171.222H69V168.062C71.908 165.284 76.3957 162.534 75.8451 161.214C75.8451 159.634 72.6858 158.58 72.1593 161.214Z" fill="white" stroke="white" stroke-width="0.395062"/>
<path d="M207.404 95.0849L206 93.9983V95.3565L207.404 96.5789L210.211 93.9983V92.3684L207.404 95.0849Z" fill="#666666" stroke="#666666"/>
<path d="M210.211 105V103.316H212.737V105H210.211Z" fill="#666666" stroke="#666666"/>
<path d="M207.65 94.3895L206 93.113L210.125 89H212.737V102.474H210.125V92.1202L207.65 94.3895Z" fill="white" stroke="white"/>
<path d="M232.902 103.449C230.893 102.009 230.073 100.877 229.312 98.1432C229.33 99.5429 229.36 100.316 229.625 101.576C230.575 103.745 231.297 104.506 232.902 105.165C235.514 105.577 236.737 105.342 238.363 103.761C239.637 101.74 239.874 100.351 239.924 97.675C239.286 100.858 238.418 101.927 236.491 103.293C235.252 103.989 234.137 103.977 232.902 103.449Z" fill="#666666" stroke="#666666" stroke-width="0.333333"/>
<path d="M240.069 95.9586C240.069 98.126 239.449 100.081 238.454 101.49C237.459 102.899 236.1 103.751 234.618 103.751C233.135 103.751 231.776 102.899 230.782 101.49C229.787 100.081 229.167 98.126 229.167 95.9586C229.167 93.7912 229.787 91.8361 230.782 90.4271C231.776 89.0178 233.135 88.1667 234.618 88.1667C236.1 88.1667 237.459 89.0178 238.454 90.4271C239.449 91.8361 240.069 93.7912 240.069 95.9586Z" fill="white" stroke="white" stroke-width="0.333333"/>
<path d="M236.802 93.4618C236.022 90.809 233.213 90.1847 232.432 93.7739C232.216 95.8185 232.239 96.9155 232.589 98.7675C233.525 101.42 236.022 101.264 236.802 98.4554C237.055 96.6451 237.038 95.5412 236.802 93.4618Z" fill="#F5C62D" stroke="white" stroke-width="0.333333"/>
<path d="M236.647 95.3347C235.399 92.0572 233.526 92.5254 232.59 95.3347C232.487 94.155 232.424 93.5357 232.902 92.5254C233.535 91.2821 234.058 91.1587 235.087 91.277C236.534 92.1645 236.542 93.2422 236.647 95.3347Z" fill="#666666" stroke="#666666" stroke-width="0.333333"/>
<path d="M225.987 91.8089H220.526V93.8376H222.398C223.647 93.8376 224.739 94.3057 225.675 95.5541C226.924 97.4268 226.924 99.2994 226.144 100.86C224.821 102.999 223.647 103.981 220.526 103.825C218.339 103.394 217.33 102.722 216.156 100.236L219.277 99.2994C219.589 101.016 221.93 101.64 222.866 100.704C223.8 99.6513 223.803 97.7389 222.866 97.1146C221.462 96.3344 219.681 96.3349 217.249 97.1146V89H225.987V91.8089Z" fill="white" stroke="white" stroke-width="0.333333"/>
<path d="M225.987 93.5254V91.9648H220.682V93.5254H225.987Z" fill="#666666" stroke="#666666" stroke-width="0.333333"/>
<path d="M217.248 98.831V97.2705L219.433 96.6463C220.803 96.3202 222.71 96.6463 223.178 97.4265C223.646 98.2068 223.802 99.2992 223.178 99.6113C223.04 99.2752 222.893 99.1068 222.554 98.831C220.783 98.0375 219.59 98.1233 217.248 98.831Z" fill="#666666" stroke="#666666" stroke-width="0.333333"/>
<path d="M219.901 105.541C217.895 104.95 217.008 104.23 216 102.108L216.78 101.64C218.52 103.669 219.774 103.966 222.242 103.825C224.421 103.39 225.277 102.595 226.611 100.236V101.328C226.245 102.657 225.927 103.218 225.207 103.981C223.653 105.488 222.464 105.801 219.901 105.541Z" fill="#666666" stroke="#666666" stroke-width="0.333333"/>
<path d="M164.68 38.6531L167.2 36.9388V46H170V34H167.2L163 37.4286L164.68 38.6531Z" fill="white"/>
<path d="M303.222 95.197H305.66C305.66 93.5419 307.211 92.8325 308.097 93.7783C308.435 94.1387 308.762 94.9606 308.097 95.9064L303 100.635V103H310.979V100.635H306.546C308.538 98.6976 310.954 96.6158 310.979 96.1428C311.012 95.4965 311.002 95.1341 310.979 94.4877C310.757 92.596 310.535 91.8867 308.762 91.1773C307.876 90.9409 307.211 90.9409 306.324 91.1773C304.551 91.6502 303.443 92.8325 303.222 95.197Z" fill="white"/>
<path d="M169.259 163.029H166.674C166.889 161.09 169.259 159.366 172.06 160.228C173.137 160.659 173.783 161.09 173.999 161.951V163.675C173.999 164.537 173.561 164.86 172.706 165.183C172.581 165.326 172.557 165.416 172.706 165.614C173.367 165.806 173.959 166.045 173.999 166.476C174.086 167.416 174.109 167.971 173.999 169.061C173.888 170.151 173.137 170.785 172.06 171H169.044C167.751 171 166.674 169.923 166.674 169.276V167.984H169.044C169.044 168.415 169.055 169.175 169.259 169.276C170.121 169.707 170.929 169.556 171.629 169.276C172.706 168.846 172.706 166.907 171.629 166.476H169.259V164.537C171.198 164.537 172.06 164.322 172.06 163.029C172.06 161.736 169.682 161.256 169.259 163.029Z" fill="white"/>
<path d="M307.881 237L302.601 244.44V246.36H308.121V249H310.281V246.36H312.201V244.44H310.521V237H307.881Z" fill="white"/>
<path d="M305.481 243.48L307.161 240.84H308.361V244.44H305.481V243.48Z" fill="#BD3161"/>
<path d="M214.002 237.943C213.614 236.391 211.481 236.197 210.705 237.943L207.215 237.943C207.021 234.645 210.705 233.234 214.199 233.869C216.332 234.257 217.108 236.391 217.108 238.719C217.108 239.883 216.359 240.703 214.974 241.241C216.227 241.8 217.108 242.404 217.302 243.374L217.302 245.702C217.302 247.06 215.556 248.806 214.002 249H210.317C208.767 248.806 207.021 247.254 207.213 244.732H210.705C210.688 245.328 210.773 245.57 211.287 245.896C212.073 246.169 212.644 246.09 213.226 245.896C214.002 245.508 214.002 245.12 214.002 244.15C214.002 243.18 213.808 242.792 213.226 242.792H210.317V239.883L213.226 239.883C214.002 239.689 214.106 238.728 214.002 237.943Z" fill="#666666"/>
<path d="M212.838 236.222C212.45 234.67 210.316 234.476 209.541 236.222L206.051 236.222C205.857 232.925 209.541 231.513 213.034 232.148C215.168 232.536 215.944 234.67 215.944 236.998C215.944 238.162 215.195 238.983 213.81 239.52C215.063 240.08 215.944 240.684 216.138 241.654L216.138 243.982C216.138 245.34 214.392 247.086 212.838 247.28H209.153C207.603 247.086 205.857 245.534 206.049 243.012H209.541C209.524 243.607 209.609 243.849 210.122 244.176C210.909 244.448 211.48 244.37 212.062 244.176C212.838 243.788 212.838 243.4 212.838 242.43C212.838 241.46 212.644 241.072 212.062 241.072H209.153V238.162L212.062 238.162C212.838 237.968 212.941 237.007 212.838 236.222Z" fill="white"/>
<ellipse cx="223.834" cy="122.5" rx="1.5" ry="1.83333" fill="white"/>
<ellipse cx="224.334" cy="69.8333" rx="1" ry="1.83333" fill="white"/>
<ellipse cx="86.834" cy="190.5" rx="1.5" ry="1.83333" fill="white"/>
<ellipse cx="87.334" cy="137.833" rx="1" ry="1.83333" fill="white"/>
<ellipse cx="223.834" cy="267.5" rx="1.5" ry="1.83333" fill="white"/>
<ellipse cx="224.334" cy="214.833" rx="1" ry="1.83333" fill="white"/>
<path d="M222.902 247.449C220.893 246.009 220.073 244.877 219.312 242.143C219.33 243.543 219.36 244.316 219.625 245.576C220.575 247.745 221.297 248.506 222.902 249.165C225.514 249.577 226.737 249.342 228.363 247.761C229.637 245.74 229.874 244.351 229.924 241.675C229.286 244.858 228.418 245.927 226.491 247.293C225.252 247.989 224.137 247.977 222.902 247.449Z" fill="#666666" stroke="#666666" stroke-width="0.333333"/>
<path d="M230.069 239.959C230.069 242.126 229.449 244.081 228.454 245.49C227.459 246.899 226.1 247.751 224.618 247.751C223.135 247.751 221.776 246.899 220.782 245.49C219.787 244.081 219.167 242.126 219.167 239.959C219.167 237.791 219.787 235.836 220.782 234.427C221.776 233.018 223.135 232.167 224.618 232.167C226.1 232.167 227.459 233.018 228.454 234.427C229.449 235.836 230.069 237.791 230.069 239.959Z" fill="white" stroke="white" stroke-width="0.333333"/>
<path d="M226.803 237.462C226.023 234.809 223.214 234.185 222.433 237.774C222.217 239.819 222.24 240.916 222.59 242.768C223.526 245.42 226.023 245.264 226.803 242.455C227.056 240.645 227.039 239.541 226.803 237.462Z" fill="#EDB41F" stroke="white" stroke-width="0.333333"/>
<path d="M226.646 239.335C225.398 236.057 223.525 236.525 222.589 239.335C222.486 238.155 222.423 237.536 222.901 236.525C223.534 235.282 224.057 235.159 225.086 235.277C226.533 236.164 226.541 237.242 226.646 239.335Z" fill="#666666" stroke="#666666" stroke-width="0.333333"/>
<path d="M235.698 247.449C233.689 246.009 232.869 244.877 232.108 242.143C232.126 243.543 232.156 244.316 232.421 245.576C233.371 247.745 234.093 248.506 235.698 249.165C238.31 249.577 239.533 249.342 241.159 247.761C242.433 245.74 242.67 244.351 242.72 241.675C242.082 244.858 241.214 245.927 239.287 247.293C238.048 247.989 236.933 247.977 235.698 247.449Z" fill="#666666" stroke="#666666" stroke-width="0.333333"/>
<path d="M242.865 239.959C242.865 242.126 242.245 244.081 241.25 245.49C240.255 246.899 238.896 247.751 237.414 247.751C235.931 247.751 234.572 246.899 233.577 245.49C232.583 244.081 231.963 242.126 231.963 239.959C231.963 237.791 232.583 235.836 233.577 234.427C234.572 233.018 235.931 232.167 237.414 232.167C238.896 232.167 240.255 233.018 241.25 234.427C242.245 235.836 242.865 237.791 242.865 239.959Z" fill="white" stroke="white" stroke-width="0.333333"/>
<path d="M239.599 237.462C238.819 234.809 236.01 234.185 235.229 237.774C235.013 239.819 235.036 240.916 235.385 242.768C236.322 245.42 238.819 245.264 239.599 242.455C239.852 240.645 239.835 239.541 239.599 237.462Z" fill="#EBAF1C" stroke="white" stroke-width="0.333333"/>
<path d="M239.442 239.335C238.194 236.057 236.321 236.525 235.385 239.335C235.282 238.155 235.219 237.536 235.697 236.525C236.33 235.282 236.852 235.159 237.882 235.277C239.329 236.164 239.337 237.242 239.442 239.335Z" fill="#666666" stroke="#666666" stroke-width="0.333333"/>
<rect x="32" y="299.667" width="156" height="34" rx="12.3333" fill="#BD3161"/>
<path d="M171.999 312.333V313.833H167.666V316H169.666C170.666 316 171.999 317 172.166 318V320.333C172.166 321.333 171.166 322.567 169.833 322.833C167.333 323.333 166.046 322.56 165.166 320.667L166.999 320.167C167.735 321.458 168.907 321.758 170.166 320.667C170.731 320.177 170.919 318.841 170.166 318C169.499 317.167 167.626 317.064 165.999 317.833V312.333H171.999Z" fill="white"/>
<path d="M134.666 322.167V313H138.666C143.999 313.5 143.833 321.667 138.499 322.167H134.666Z" stroke="white" stroke-width="1.6"/>
<path d="M145.999 316.82C148.564 315.754 149.504 316.015 150.244 317.437C150.428 317.792 150.499 318.193 150.499 318.592V319.404M150.499 322.82V320.82M150.499 320.82C148.823 322.02 147.71 322.473 146.733 322.228C145.37 321.887 145.319 319.816 146.588 319.213C147.546 318.758 148.699 318.843 150.499 319.404M150.499 320.82V319.404" stroke="white" stroke-width="1.6"/>
<path d="M155 326.333H152.833H152.666V324.833H154.333C154.943 324.246 155.185 323.765 155.5 322.667L152.333 315.667H154.166L156.5 320.667L158.166 315.667H160L156.666 324C156.119 325.228 155.75 325.753 155 326.333Z" fill="white" stroke="white" stroke-width="0.333333"/>
<ellipse cx="85.9997" cy="347.166" rx="35.6667" ry="11.8333" fill="url(#paint11_radial_666_3913)"/>
<path d="M50.435 326.538L50.166 318.333C55.2145 327.802 59.5046 331.064 68.4993 335V347C59.1814 342.679 54.3232 339.548 51.1061 330.367C50.6753 329.137 50.4777 327.84 50.435 326.538Z" fill="#C57509" stroke="#C57509" stroke-width="0.333333"/>
<path d="M121.23 326.705L121.499 318.5C116.451 327.969 112.494 331.065 103.499 335V347C112.816 342.68 117.38 339.696 120.562 330.535C120.989 329.304 121.187 328.007 121.23 326.705Z" fill="#C57509" stroke="#C57509" stroke-width="0.333333"/>
<path d="M103.333 335C89.2881 339.393 81.6453 339.34 68.666 335V347C82.1163 351.045 89.7045 351.139 103.333 347V335Z" fill="#9B4C01" stroke="#9B4C01" stroke-width="0.333333"/>
<path d="M49.666 327.5V315.333L50.166 317.333L50.4993 327.833C52.8327 337.667 58.166 342.833 68.666 347C78.9231 350.249 84.4825 350.558 94.166 349.333C101.654 347.955 105.83 346.509 113.166 341.667C117.666 338 120.795 332 121.166 327.5L121.499 317L122.166 315.333L121.833 329.167C119.144 336.948 116.779 340.839 109.333 346C100.067 350.632 94.3744 351.672 83.666 351.833C74.424 351.101 69.2059 349.96 59.666 343.833C53.7531 338.715 51.0238 335.475 49.666 327.5Z" fill="#AB6004" stroke="#AB6004" stroke-width="0.333333"/>
<path d="M122.5 311.667C122.5 319.056 118.414 325.761 111.78 330.624C105.146 335.487 95.9729 338.5 85.8333 338.5C75.6938 338.5 66.5208 335.487 59.8868 330.624C53.2526 325.761 49.1667 319.056 49.1667 311.667C49.1667 304.277 53.2526 297.572 59.8868 292.709C66.5208 287.846 75.6938 284.833 85.8333 284.833C95.9729 284.833 105.146 287.846 111.78 292.709C118.414 297.572 122.5 304.277 122.5 311.667Z" fill="#FFED8B" stroke="#FFED8B" stroke-width="0.333333"/>
<ellipse cx="85.8333" cy="311.667" rx="35.8333" ry="25.3333" fill="#FFDD40"/>
<ellipse cx="85.5007" cy="312.5" rx="29.1667" ry="19.8333" fill="url(#paint12_linear_666_3913)"/>
<path d="M62.834 300.333C56.5002 305.5 55.3338 314.166 58.5007 320.333C57.1608 318.28 56.4521 316.954 55.5001 313.166C55.0905 308.366 55.848 305.663 58.8335 300.833C62.9717 296.137 65.5589 294.183 70.6668 292.166C77.8004 289.722 81.9317 289.057 89.5001 289.333C95.4276 290.104 98.942 291.198 105.667 294.5C112.041 299.121 113.587 302.076 115.5 307.5C116.276 310.891 116.293 312.688 115.333 315.666L112.833 320.333C114.396 317.023 114.836 315.414 114.667 313C113.833 307.166 112.367 303.496 106.833 299.166C102.431 295.728 99.459 294.262 92.5001 293.166C87.7749 292.565 85.0171 292.397 79.5002 293C72.5546 293.892 68.8959 295.394 62.834 300.333Z" fill="#CA7A11" stroke="#CA7A11" stroke-width="0.333333"/>
<path d="M62.6673 326C59.5937 323.351 58.1119 321.548 56.334 317.167L58.1673 320.333C60.7114 323.903 62.0325 325.004 64.334 326.5C69.462 329.71 72.8168 331.037 79.834 332.333C88.4164 333.197 93.0362 332.558 101.001 329.667C105.34 327.87 107.67 326.413 111.501 322.5C112.927 320.76 113.58 319.72 114.667 317.833C113.604 320.076 113.021 321.051 112.001 322.5C107.682 327.24 104.86 329.43 98.6673 332C93.0385 333.815 89.6653 334.349 83.1673 334.167C75.3312 333.359 67.834 330.833 62.6673 326Z" fill="white" stroke="white" stroke-width="0.333333"/>
<path d="M71.3214 306.589H65.8597V308.618H67.7323C68.9807 308.618 70.073 309.086 71.0093 310.334C72.2577 312.207 72.2577 314.079 71.4775 315.64C70.1553 317.779 68.9807 318.761 65.8597 318.605C63.6726 318.174 62.6638 317.502 61.4902 315.016L64.6113 314.079C64.9234 315.796 67.2641 316.42 68.2004 315.484C69.1343 314.431 69.1367 312.519 68.2004 311.895C66.796 311.114 65.0145 311.115 62.5826 311.895V303.78H71.3214V306.589Z" fill="white" stroke="white" stroke-width="0.333333"/>
<path d="M71.3214 308.305V306.745H66.0156V308.305H71.3214Z" fill="#666666" stroke="#666666" stroke-width="0.333333"/>
<path d="M62.582 313.611V312.051L64.7667 311.427C66.1371 311.101 68.0438 311.427 68.512 312.207C68.9801 312.987 69.1362 314.079 68.512 314.392C68.3744 314.055 68.2269 313.887 67.8878 313.611C66.1173 312.818 64.9244 312.904 62.582 313.611Z" fill="#666666" stroke="#666666" stroke-width="0.333333"/>
<path d="M65.2353 320.321C63.2287 319.73 62.3416 319.01 61.334 316.888L62.1142 316.42C63.854 318.449 65.1084 318.746 67.576 318.605C69.7551 318.17 70.6114 317.375 71.9454 315.016V316.108C71.5785 317.437 71.2611 317.998 70.541 318.761C68.9874 320.268 67.7983 320.581 65.2353 320.321Z" fill="#666666" stroke="#666666" stroke-width="0.333333"/>
<path d="M77.4066 318.449C75.3977 317.009 74.5783 315.876 73.8174 313.143C73.835 314.543 73.8651 315.316 74.1295 316.576C75.0801 318.744 75.8021 319.506 77.4066 320.165C80.0189 320.577 81.242 320.342 82.8683 318.761C84.1421 316.74 84.379 315.351 84.4288 312.675C83.7907 315.858 82.9231 316.927 80.9957 318.293C79.7565 318.989 78.6423 318.977 77.4066 318.449Z" fill="#666666" stroke="#666666" stroke-width="0.333333"/>
<path d="M84.5749 310.958C84.5749 313.126 83.9545 315.081 82.9599 316.49C81.9651 317.899 80.6063 318.75 79.1237 318.75C77.6411 318.75 76.2823 317.899 75.2874 316.49C74.2929 315.081 73.6725 313.126 73.6725 310.958C73.6725 308.791 74.2929 306.836 75.2874 305.427C76.2823 304.018 77.6411 303.166 79.1237 303.166C80.6063 303.166 81.9651 304.018 82.9599 305.427C83.9545 306.836 84.5749 308.791 84.5749 310.958Z" fill="white" stroke="white" stroke-width="0.333333"/>
<path d="M81.3087 308.462C80.5285 305.809 77.7196 305.184 76.9393 308.774C76.7228 310.818 76.7462 311.915 77.0954 313.767C78.0318 316.42 80.5286 316.264 81.3087 313.455C81.562 311.645 81.5446 310.541 81.3087 308.462Z" fill="#F4C32B" stroke="white" stroke-width="0.333333"/>
<path d="M81.1523 310.335C79.9039 307.057 78.0313 307.525 77.095 310.335C76.9919 309.155 76.9293 308.536 77.4069 307.525C78.0396 306.282 78.5625 306.159 79.5916 306.277C81.0391 307.164 81.0466 308.242 81.1523 310.335Z" fill="#666666" stroke="#666666" stroke-width="0.333333"/>
<path d="M90.2025 318.449C88.1936 317.009 87.3742 315.876 86.6133 313.143C86.6309 314.543 86.661 315.316 86.9254 316.576C87.876 318.744 88.598 319.506 90.2025 320.165C92.8148 320.577 94.0379 320.342 95.6642 318.761C96.938 316.74 97.1749 315.351 97.2247 312.675C96.5866 315.858 95.719 316.927 93.7916 318.293C92.5524 318.989 91.4382 318.977 90.2025 318.449Z" fill="#666666" stroke="#666666" stroke-width="0.333333"/>
<path d="M97.3708 310.958C97.3708 313.126 96.7504 315.081 95.7558 316.49C94.761 317.899 93.4022 318.75 91.9196 318.75C90.437 318.75 89.0782 317.899 88.0833 316.49C87.0888 315.081 86.4684 313.126 86.4684 310.958C86.4684 308.791 87.0888 306.836 88.0833 305.427C89.0782 304.018 90.437 303.166 91.9196 303.166C93.4022 303.166 94.761 304.018 95.7558 305.427C96.7504 306.836 97.3708 308.791 97.3708 310.958Z" fill="white" stroke="white" stroke-width="0.333333"/>
<path d="M94.1046 308.462C93.3244 305.809 90.5155 305.184 89.7352 308.774C89.5187 310.818 89.5421 311.915 89.8913 313.767C90.8277 316.42 93.3245 316.264 94.1046 313.455C94.3579 311.645 94.3405 310.541 94.1046 308.462Z" fill="#F4C32B" stroke="white" stroke-width="0.333333"/>
<path d="M93.9472 310.335C92.6988 307.057 90.8262 307.525 89.8899 310.335C89.7869 309.155 89.7242 308.536 90.2018 307.525C90.8345 306.282 91.3574 306.159 92.3865 306.277C93.834 307.164 93.8415 308.242 93.9472 310.335Z" fill="#666666" stroke="#666666" stroke-width="0.333333"/>
<path d="M102.999 318.449C100.991 317.009 100.171 315.877 99.4102 313.143C99.4278 314.543 99.4579 315.317 99.7223 316.577C100.673 318.745 101.395 319.506 102.999 320.166C105.612 320.577 106.835 320.342 108.461 318.761C109.735 316.741 109.972 315.351 110.022 312.675C109.383 315.858 108.516 316.927 106.589 318.293C105.349 318.989 104.235 318.978 102.999 318.449Z" fill="#666666" stroke="#666666" stroke-width="0.333333"/>
<path d="M110.168 310.959C110.168 313.126 109.547 315.081 108.553 316.49C107.558 317.9 106.199 318.751 104.716 318.751C103.234 318.751 101.875 317.9 100.88 316.49C99.8857 315.081 99.2653 313.126 99.2653 310.959C99.2653 308.791 99.8857 306.836 100.88 305.427C101.875 304.018 103.234 303.167 104.716 303.167C106.199 303.167 107.558 304.018 108.553 305.427C109.547 306.836 110.168 308.791 110.168 310.959Z" fill="white" stroke="white" stroke-width="0.333333"/>
<path d="M106.902 308.462C106.121 305.809 103.312 305.185 102.532 308.774C102.316 310.819 102.339 311.916 102.688 313.768C103.625 316.421 106.121 316.265 106.902 313.456C107.155 311.645 107.137 310.541 106.902 308.462Z" fill="#F4C32B" stroke="white" stroke-width="0.333333"/>
<path d="M106.746 310.335C105.498 307.058 103.625 307.526 102.689 310.335C102.586 309.155 102.523 308.536 103.001 307.526C103.633 306.283 104.156 306.159 105.185 306.277C106.633 307.165 106.64 308.243 106.746 310.335Z" fill="#666666" stroke="#666666" stroke-width="0.333333"/>
<ellipse cx="85.5" cy="338.5" rx="1.5" ry="1.83333" fill="white"/>
<ellipse cx="86" cy="285.833" rx="1" ry="1.83333" fill="white"/>
<defs>
<radialGradient id="paint0_radial_666_3913" cx="0" cy="0" r="1" gradientUnits="userSpaceOnUse" gradientTransform="translate(224.334 276.167) rotate(90) scale(11.8333 35.6667)">
<stop/>
<stop offset="1" stop-opacity="0"/>
</radialGradient>
<radialGradient id="paint1_radial_666_3913" cx="0" cy="0" r="1" gradientUnits="userSpaceOnUse" gradientTransform="translate(87.3337 199.167) rotate(90) scale(11.8333 35.6667)">
<stop/>
<stop offset="1" stop-opacity="0"/>
</radialGradient>
<radialGradient id="paint2_radial_666_3913" cx="0" cy="0" r="1" gradientUnits="userSpaceOnUse" gradientTransform="translate(85.9997 69.1663) rotate(90) scale(11.8333 35.6667)">
<stop/>
<stop offset="1" stop-opacity="0"/>
</radialGradient>
<linearGradient id="paint3_linear_666_3913" x1="85.5007" y1="14.6665" x2="85.5007" y2="54.3332" gradientUnits="userSpaceOnUse">
<stop stop-color="#EAAC19"/>
<stop offset="1" stop-color="#FFDD40"/>
</linearGradient>
<radialGradient id="paint4_radial_666_3913" cx="0" cy="0" r="1" gradientUnits="userSpaceOnUse" gradientTransform="translate(224.334 131.167) rotate(90) scale(11.8333 35.6667)">
<stop/>
<stop offset="1" stop-opacity="0"/>
</radialGradient>
<radialGradient id="paint5_radial_666_3913" cx="0" cy="0" r="1" gradientUnits="userSpaceOnUse" gradientTransform="translate(224 131.5) rotate(90) scale(11.8333 35.6667)">
<stop/>
<stop offset="1" stop-opacity="0"/>
</radialGradient>
<linearGradient id="paint6_linear_666_3913" x1="223.501" y1="77" x2="223.501" y2="116.667" gradientUnits="userSpaceOnUse">
<stop stop-color="#EAAC19"/>
<stop offset="1" stop-color="#FFDD40"/>
</linearGradient>
<radialGradient id="paint7_radial_666_3913" cx="0" cy="0" r="1" gradientUnits="userSpaceOnUse" gradientTransform="translate(86.9997 199.5) rotate(90) scale(11.8333 35.6667)">
<stop/>
<stop offset="1" stop-opacity="0"/>
</radialGradient>
<linearGradient id="paint8_linear_666_3913" x1="86.5007" y1="145" x2="86.5007" y2="184.667" gradientUnits="userSpaceOnUse">
<stop stop-color="#EAAC19"/>
<stop offset="1" stop-color="#FFDD40"/>
</linearGradient>
<radialGradient id="paint9_radial_666_3913" cx="0" cy="0" r="1" gradientUnits="userSpaceOnUse" gradientTransform="translate(224 276.5) rotate(90) scale(11.8333 35.6667)">
<stop/>
<stop offset="1" stop-opacity="0"/>
</radialGradient>
<linearGradient id="paint10_linear_666_3913" x1="223.501" y1="222" x2="223.501" y2="261.667" gradientUnits="userSpaceOnUse">
<stop stop-color="#EAAC19"/>
<stop offset="1" stop-color="#FFDD40"/>
</linearGradient>
<radialGradient id="paint11_radial_666_3913" cx="0" cy="0" r="1" gradientUnits="userSpaceOnUse" gradientTransform="translate(85.9997 347.166) rotate(90) scale(11.8333 35.6667)">
<stop/>
<stop offset="1" stop-opacity="0"/>
</radialGradient>
<linearGradient id="paint12_linear_666_3913" x1="85.5007" y1="292.667" x2="85.5007" y2="332.333" gradientUnits="userSpaceOnUse">
<stop stop-color="#EAAC19"/>
<stop offset="1" stop-color="#FFDD40"/>
</linearGradient>
</defs>
</svg>
