<svg width="375" height="379" viewBox="0 0 375 379" fill="none" xmlns="http://www.w3.org/2000/svg">
<path d="M105.801 58.6001C105.801 58.6001 127.501 89.1001 168.101 96.1001" stroke="white" stroke-width="2" stroke-dasharray="10 10"/>
<path d="M133.701 88.2L147.501 91.1L138.501 80L139.301 86.3L133.701 88.2Z" fill="white"/>
<path d="M257.101 120.5C257.101 120.5 326.801 139.4 194.801 169.7" stroke="white" stroke-width="2" stroke-dasharray="10 10"/>
<path d="M246.702 160.4L232.602 160.8L243.402 151.4L241.502 157.5L246.702 160.4Z" fill="white"/>
<path d="M254.5 274.8C254.5 274.8 357.8 298.5 195.1 320.6" stroke="white" stroke-width="2" stroke-dasharray="10 10"/>
<path d="M268.7 307.4L254.6 307.7L265.4 301.4L263.5 305.4L268.7 307.4Z" fill="white"/>
<path d="M91.6004 211.2C91.6004 211.2 67.1004 240.9 169.3 255.2" stroke="white" stroke-width="2" stroke-dasharray="10 10"/>
<path d="M109.5 245.3L123.5 246L112.9 236.4L114.7 242.5L109.5 245.3Z" fill="white"/>
<path d="M175.667 295.333H44.3333C37.5218 295.333 32 300.855 32 307.666V317.333C32 324.145 37.5218 329.666 44.3333 329.666H175.667C182.478 329.666 188 324.145 188 317.333V307.666C188 300.855 182.478 295.333 175.667 295.333Z" fill="white"/>
<path d="M173.667 308.333V309.833H169.334V312H171.334C172.334 312 173.667 313 173.834 314V316.333C173.834 317.333 172.834 318.567 171.501 318.833C169.001 319.333 167.714 318.56 166.834 316.667L168.667 316.167C169.403 317.458 170.575 317.758 171.834 316.667C172.399 316.177 172.587 314.841 171.834 314C171.167 313.167 169.294 313.064 167.667 313.833V308.333H173.667Z" fill="#333333" stroke="#333333" stroke-width="0.333333"/>
<path d="M136.334 318.167V309H140.334C145.667 309.5 145.501 317.667 140.167 318.167H136.334Z" stroke="#333333" stroke-width="1.6"/>
<path d="M147.667 312.82C150.232 311.754 151.172 312.015 151.912 313.437C152.096 313.792 152.167 314.193 152.167 314.592V315.404M152.167 315.404C150.367 314.843 149.213 314.758 148.256 315.213C146.987 315.816 147.038 317.887 148.401 318.228C149.378 318.473 150.491 318.02 152.167 316.82M152.167 315.404V316.82M152.167 318.82V316.82" stroke="#333333" stroke-width="1.6"/>
<path d="M156.667 322.333H154.5H154.333V320.833H156C156.61 320.246 156.852 319.765 157.167 318.667L154 311.667H155.833L158.167 316.667L159.833 311.667H161.667L158.333 320C157.786 321.228 157.417 321.753 156.667 322.333Z" fill="#333333" stroke="#333333" stroke-width="0.333333"/>
<path d="M87.3327 359C107.031 359 122.999 353.702 122.999 347.167C122.999 340.631 107.031 335.333 87.3327 335.333C67.6345 335.333 51.666 340.631 51.666 347.167C51.666 353.702 67.6345 359 87.3327 359Z" fill="url(#paint0_radial_45_13909)"/>
<path d="M51.769 326.538L51.5 318.333C56.5484 327.802 60.8386 331.065 69.8333 335V347C60.5154 342.679 55.6572 339.549 52.4401 330.367C52.0093 329.138 51.8117 327.841 51.769 326.538Z" fill="#838383" stroke="#838383" stroke-width="0.333333"/>
<path d="M122.565 326.705L122.834 318.5C117.786 327.969 113.829 331.065 104.834 335V347C114.151 342.68 118.715 339.696 121.897 330.535C122.324 329.304 122.522 328.007 122.565 326.705Z" fill="#838383" stroke="#838383" stroke-width="0.333333"/>
<path d="M104.667 335C90.6221 339.393 82.9793 339.34 70 335V347C83.4502 351.045 91.0385 351.139 104.667 347V335Z" fill="#636363" stroke="#636363" stroke-width="0.333333"/>
<path d="M51 327.5V315.333L51.5 317.333L51.8333 327.833C54.1667 337.667 59.5 342.833 70 347C80.2571 350.249 85.8164 350.558 95.5 349.333C102.988 347.955 107.164 346.509 114.5 341.667C119 338 122.129 332 122.5 327.5L122.833 317L123.5 315.333L123.167 329.167C120.478 336.948 118.113 340.839 110.667 346C101.401 350.632 95.7084 351.672 85 351.833C75.7579 351.101 70.5398 349.96 61 343.833C55.087 338.715 52.3578 335.475 51 327.5Z" fill="#636363" stroke="#636363" stroke-width="0.333333"/>
<path d="M123.834 311.667C123.834 319.056 119.748 325.761 113.114 330.624C106.48 335.487 97.3067 338.5 87.1671 338.5C77.0276 338.5 67.8546 335.487 61.2206 330.624C54.5864 325.761 50.5005 319.056 50.5005 311.667C50.5005 304.277 54.5864 297.572 61.2206 292.709C67.8546 287.846 77.0276 284.833 87.1671 284.833C97.3067 284.833 106.48 287.846 113.114 292.709C119.748 297.572 123.834 304.277 123.834 311.667Z" fill="#E8E8E8" stroke="#E8E8E8" stroke-width="0.333333"/>
<path d="M87.1673 337C106.957 337 123.001 325.658 123.001 311.667C123.001 297.676 106.957 286.333 87.1673 286.333C67.3771 286.333 51.334 297.676 51.334 311.667C51.334 325.658 67.3771 337 87.1673 337Z" fill="#D6D6D6"/>
<path d="M86.8347 332.333C102.943 332.333 116.001 323.453 116.001 312.5C116.001 301.546 102.943 292.667 86.8347 292.667C70.7263 292.667 57.668 301.546 57.668 312.5C57.668 323.453 70.7263 332.333 86.8347 332.333Z" fill="url(#paint1_linear_45_13909)"/>
<path d="M64.167 300.333C57.8332 305.5 56.6668 314.166 59.8337 320.333C58.4938 318.28 57.7851 316.954 56.8331 313.166C56.4236 308.366 57.181 305.663 60.1665 300.833C64.3047 296.137 66.8919 294.183 71.9998 292.166C79.1334 289.722 83.2647 289.057 90.8331 289.333C96.7606 290.104 100.275 291.198 107 294.5C113.374 299.121 114.92 302.076 116.833 307.5C117.609 310.891 117.626 312.688 116.666 315.666L114.166 320.333C115.729 317.023 116.169 315.414 116 313C115.166 307.166 113.7 303.496 108.166 299.166C103.764 295.728 100.792 294.262 93.8331 293.166C89.1079 292.565 86.3501 292.397 80.8332 293C73.8876 293.892 70.229 295.394 64.167 300.333Z" fill="#868686" stroke="#868686" stroke-width="0.333333"/>
<path d="M64.0013 326C60.9277 323.351 59.4459 321.548 57.668 317.167L59.5013 320.333C62.0454 323.903 63.3664 325.004 65.668 326.5C70.796 329.71 74.1508 331.037 81.168 332.333C89.7504 333.197 94.3702 332.558 102.335 329.667C106.674 327.87 109.004 326.413 112.835 322.5C114.261 320.76 114.914 319.72 116.001 317.833C114.938 320.076 114.355 321.051 113.335 322.5C109.016 327.24 106.194 329.43 100.001 332C94.3725 333.815 90.9993 334.349 84.5013 334.167C76.6652 333.359 69.168 330.833 64.0013 326Z" fill="white" stroke="white" stroke-width="0.333333"/>
<path d="M86.834 340.333C87.6624 340.333 88.334 339.512 88.334 338.5C88.334 337.487 87.6624 336.667 86.834 336.667C86.0056 336.667 85.334 337.487 85.334 338.5C85.334 339.512 86.0056 340.333 86.834 340.333Z" fill="white"/>
<path d="M87.334 287.666C87.8863 287.666 88.334 286.845 88.334 285.833C88.334 284.82 87.8863 284 87.334 284C86.7817 284 86.334 284.82 86.334 285.833C86.334 286.845 86.7817 287.666 87.334 287.666Z" fill="white"/>
<path d="M102.41 295.177H71.9664C64.3133 299.485 61.2612 302.334 58.8469 308.464C57.561 314.76 58.3593 317.194 60.1925 321.247C63.9607 325.489 66.3519 327.227 70.9572 329.489H103.251L107.624 327.302C115.382 321.868 117.354 318.017 115.866 309.473C114.857 303.923 110.405 299.109 102.41 295.177Z" fill="url(#paint2_linear_45_13909)"/>
<path d="M51.4453 318.052C53.7148 323.658 55.7158 325.861 59.5188 329.489H51.9499L51.4453 327.807V318.052Z" fill="#8A8A8A" stroke="#8A8A8A" stroke-width="0.333333"/>
<path d="M50.9997 327.5L50.7734 314.183L51.4462 318.051L51.4997 327.5L52.1663 329.5H51.333L50.9997 327.5Z" fill="#707070" stroke="#707070" stroke-width="0.333333"/>
<path d="M60.1918 295.177H57.6688C53.8988 299.455 52.5763 301.689 51.4455 305.437C50.6551 308.375 50.1645 311.149 50.666 314.333C51.7283 321.072 54.0813 324.172 59.666 329.489H62.042C60.9713 328.837 60.3688 328.458 59.1827 327.302C52.4137 320.244 49.9318 313.174 52.4546 305.437C54.4102 301.126 56.0484 298.865 60.1918 295.177Z" fill="#E8E8E8" stroke="#E8E8E8" stroke-width="0.333333"/>
<path d="M66.0828 295.177H60.1959C53.6329 300.895 50.6696 306.842 51.7845 313.847C52.6255 320.406 58.3443 327.471 62.0446 329.489H68.6043C61.0354 324.443 57.3541 319.844 56.8319 313.342C56.4737 305.472 58.4491 301.484 66.0828 295.177Z" fill="#D6D6D6" stroke="#D6D6D6" stroke-width="0.333333"/>
<path d="M72.1333 295.177H66.0782C63.5455 297.33 62.4275 298.481 60.6972 300.391C57.7434 304.116 56.8038 306.573 56.8286 311.828C57.221 315.614 58.1398 317.605 60.1922 321.079C58.7224 318.031 58.1717 316.333 58.1729 313.342C58.3481 305.453 62.2106 300.391 72.1333 295.177Z" fill="#868686" stroke="#868686" stroke-width="0.333333"/>
<path d="M71.499 329.667L68.9377 329.489C65.0043 327.145 63.0586 325.471 59.8324 321.333C58.3274 318.729 57.7451 317.471 57.332 315.192C58.0269 317.557 58.6692 318.943 59.999 321.167C64.0423 325.736 66.7425 327.66 71.499 329.667Z" fill="white" stroke="white" stroke-width="0.333333"/>
<path d="M123.098 318.052C120.828 323.658 118.827 325.861 115.024 329.489H122.593L123.098 327.807V318.052Z" fill="#868686" stroke="#868686" stroke-width="0.333333"/>
<path d="M123.166 328L123.77 314.183L122.832 318.167L122.499 327.833L122.166 329.5H123.097L123.166 328Z" fill="#707070" stroke="#707070" stroke-width="0.333333"/>
<path d="M114.351 295.177H116.874C120.644 299.455 121.966 301.689 123.097 305.437C123.888 308.375 124.003 310.37 123.77 314.351C122.708 321.09 120.44 324.341 114.855 329.657L112.501 329.489C113.571 328.837 114.174 328.458 115.36 327.302C122.129 320.244 124.611 313.174 122.088 305.437C120.132 301.126 118.494 298.865 114.351 295.177Z" fill="#E8E8E8" stroke="#E8E8E8" stroke-width="0.333333"/>
<path d="M108.46 295.177H114.347C120.91 300.895 123.873 306.842 122.758 313.847C121.917 320.406 116.199 327.471 112.498 329.489H105.939C113.508 324.443 117.189 319.844 117.711 313.342C118.069 305.472 116.094 301.484 108.46 295.177Z" fill="#D6D6D6" stroke="#D6D6D6" stroke-width="0.333333"/>
<path d="M102.41 295.177H108.465C110.997 297.33 112.115 298.481 113.846 300.391C116.8 304.116 117.739 306.573 117.714 311.828C117.322 315.614 116.403 317.605 114.351 321.079C115.821 318.031 116.371 316.333 116.37 313.342C116.195 305.453 112.332 300.391 102.41 295.177Z" fill="#868686" stroke="#868686" stroke-width="0.333333"/>
<path d="M103.25 329.489H105.605C109.539 327.145 111.63 325.553 114.856 321.415C116.361 318.811 116.798 317.471 117.211 315.192C116.516 317.557 115.85 318.855 114.52 321.079C110.476 325.648 108.007 327.483 103.25 329.489Z" fill="white" stroke="white" stroke-width="0.333333"/>
<path d="M312.667 224.333H181.333C174.522 224.333 169 229.855 169 236.666V246.333C169 253.145 174.522 258.666 181.333 258.666H312.667C319.478 258.666 325 253.145 325 246.333V236.666C325 229.855 319.478 224.333 312.667 224.333Z" fill="white"/>
<path d="M273.334 247.167V238H277.334C282.667 238.5 282.501 246.667 277.167 247.167H273.334Z" stroke="#333333" stroke-width="1.6"/>
<path d="M284.667 241.82C287.232 240.754 288.172 241.015 288.912 242.438C289.096 242.792 289.167 243.193 289.167 243.592V244.404M289.167 244.404C287.367 243.844 286.213 243.758 285.256 244.214C283.987 244.817 284.038 246.887 285.401 247.229C286.378 247.474 287.491 247.02 289.167 245.82M289.167 244.404V245.82M289.167 247.82V245.82" stroke="#333333" stroke-width="1.6"/>
<path d="M293.667 251.333H291.5H291.333V249.833H293C293.61 249.246 293.852 248.765 294.167 247.667L291 240.667H292.833L295.167 245.667L296.833 240.667H298.667L295.333 249C294.786 250.228 294.417 250.753 293.667 251.333Z" fill="#333333" stroke="#333333" stroke-width="0.333333"/>
<path d="M224.333 288C244.031 288 260 282.702 260 276.167C260 269.631 244.031 264.333 224.333 264.333C204.635 264.333 188.667 269.631 188.667 276.167C188.667 282.702 204.635 288 224.333 288Z" fill="url(#paint3_radial_45_13909)"/>
<path d="M188.769 255.538L188.5 247.333C193.548 256.802 197.839 260.065 206.833 264V276C197.515 271.679 192.657 268.549 189.44 259.367C189.009 258.138 188.812 256.841 188.769 255.538Z" fill="#838383" stroke="#838383" stroke-width="0.333333"/>
<path d="M259.565 255.705L259.834 247.5C254.786 256.969 250.829 260.065 241.834 264V276C251.151 271.68 255.715 268.696 258.897 259.535C259.324 258.304 259.522 257.007 259.565 255.705Z" fill="#838383" stroke="#838383" stroke-width="0.333333"/>
<path d="M241.667 264C227.622 268.393 219.979 268.34 207 264V276C220.45 280.045 228.038 280.139 241.667 276V264Z" fill="#636363" stroke="#636363" stroke-width="0.333333"/>
<path d="M188 256.5V244.333L188.5 246.333L188.833 256.833C191.167 266.667 196.5 271.833 207 276C217.257 279.249 222.816 279.558 232.5 278.333C239.988 276.955 244.164 275.509 251.5 270.667C256 267 259.129 261 259.5 256.5L259.833 246L260.5 244.333L260.167 258.167C257.478 265.948 255.113 269.839 247.667 275C238.401 279.632 232.708 280.672 222 280.833C212.758 280.101 207.54 278.96 198 272.833C192.087 267.715 189.358 264.475 188 256.5Z" fill="#636363" stroke="#636363" stroke-width="0.333333"/>
<path d="M260.834 240.667C260.834 248.056 256.748 254.761 250.114 259.624C243.48 264.487 234.307 267.5 224.167 267.5C214.028 267.5 204.855 264.487 198.221 259.624C191.587 254.761 187.501 248.056 187.501 240.667C187.501 233.277 191.587 226.572 198.221 221.709C204.855 216.846 214.028 213.833 224.167 213.833C234.307 213.833 243.48 216.846 250.114 221.709C256.748 226.572 260.834 233.277 260.834 240.667Z" fill="#E8E8E8" stroke="#E8E8E8" stroke-width="0.333333"/>
<path d="M224.167 266C243.957 266 260 254.658 260 240.667C260 226.676 243.957 215.333 224.167 215.333C204.377 215.333 188.333 226.676 188.333 240.667C188.333 254.658 204.377 266 224.167 266Z" fill="#D6D6D6"/>
<path d="M223.835 261.333C239.943 261.333 253.002 252.453 253.002 241.5C253.002 230.546 239.943 221.667 223.835 221.667C207.727 221.667 194.668 230.546 194.668 241.5C194.668 252.453 207.727 261.333 223.835 261.333Z" fill="url(#paint4_linear_45_13909)"/>
<path d="M201.167 229.333C194.833 234.5 193.667 243.166 196.834 249.333C195.494 247.28 194.785 245.954 193.833 242.166C193.424 237.366 194.181 234.663 197.166 229.833C201.305 225.137 203.892 223.183 209 221.166C216.133 218.722 220.265 218.057 227.833 218.333C233.761 219.104 237.275 220.198 244 223.5C250.374 228.121 251.92 231.076 253.833 236.5C254.609 239.891 254.626 241.688 253.666 244.666L251.166 249.333C252.729 246.023 253.169 244.414 253 242C252.166 236.166 250.7 232.496 245.166 228.166C240.764 224.728 237.792 223.262 230.833 222.166C226.108 221.565 223.35 221.397 217.833 222C210.888 222.892 207.229 224.394 201.167 229.333Z" fill="#868686" stroke="#868686" stroke-width="0.333333"/>
<path d="M201.001 255C197.928 252.351 196.446 250.548 194.668 246.167L196.501 249.333C199.045 252.903 200.366 254.004 202.668 255.5C207.796 258.71 211.151 260.037 218.168 261.333C226.75 262.197 231.37 261.558 239.335 258.667C243.674 256.87 246.004 255.413 249.835 251.5C251.261 249.76 251.914 248.72 253.001 246.833C251.938 249.076 251.355 250.051 250.335 251.5C246.016 256.24 243.194 258.43 237.001 261C231.373 262.815 227.999 263.349 221.501 263.167C213.665 262.359 206.168 259.833 201.001 255Z" fill="white" stroke="white" stroke-width="0.333333"/>
<path d="M223.834 269.333C224.662 269.333 225.334 268.512 225.334 267.5C225.334 266.487 224.662 265.667 223.834 265.667C223.006 265.667 222.334 266.487 222.334 267.5C222.334 268.512 223.006 269.333 223.834 269.333Z" fill="white"/>
<path d="M224.334 216.666C224.886 216.666 225.334 215.845 225.334 214.833C225.334 213.82 224.886 213 224.334 213C223.782 213 223.334 213.82 223.334 214.833C223.334 215.845 223.782 216.666 224.334 216.666Z" fill="white"/>
<path d="M239.41 224.177H208.966C201.313 228.485 198.261 231.334 195.847 237.464C194.561 243.76 195.359 246.194 197.192 250.247C200.961 254.489 203.352 256.227 207.957 258.489H240.251L244.624 256.302C252.382 250.868 254.354 247.017 252.866 238.473C251.857 232.923 247.405 228.109 239.41 224.177Z" fill="url(#paint5_linear_45_13909)"/>
<path d="M188.445 247.052C190.715 252.658 192.716 254.861 196.519 258.489H188.95L188.445 256.807V247.052Z" fill="#8A8A8A" stroke="#8A8A8A" stroke-width="0.333333"/>
<path d="M188 256.5L187.773 243.183L188.446 247.051L188.5 256.5L189.166 258.5H188.333L188 256.5Z" fill="#707070" stroke="#707070" stroke-width="0.333333"/>
<path d="M197.192 224.177H194.669C190.899 228.455 189.576 230.689 188.445 234.437C187.655 237.375 187.164 240.149 187.666 243.333C188.728 250.072 191.081 253.172 196.666 258.489H199.042C197.971 257.837 197.369 257.458 196.183 256.302C189.414 249.244 186.932 242.174 189.455 234.437C191.41 230.126 193.048 227.865 197.192 224.177Z" fill="#E8E8E8" stroke="#E8E8E8" stroke-width="0.333333"/>
<path d="M203.083 224.177H197.196C190.633 229.895 187.67 235.842 188.785 242.847C189.626 249.406 195.344 256.471 199.045 258.489H205.604C198.035 253.443 194.354 248.844 193.832 242.342C193.474 234.472 195.449 230.484 203.083 224.177Z" fill="#D6D6D6" stroke="#D6D6D6" stroke-width="0.333333"/>
<path d="M209.133 224.177H203.078C200.546 226.33 199.428 227.481 197.697 229.391C194.743 233.116 193.804 235.573 193.829 240.828C194.221 244.614 195.14 246.605 197.192 250.079C195.722 247.031 195.172 245.333 195.173 242.342C195.348 234.453 199.211 229.391 209.133 224.177Z" fill="#868686" stroke="#868686" stroke-width="0.333333"/>
<path d="M208.499 258.667L205.938 258.489C202.004 256.145 200.059 254.471 196.832 250.333C195.327 247.729 194.745 246.471 194.332 244.192C195.027 246.557 195.669 247.943 196.999 250.167C201.042 254.736 203.743 256.66 208.499 258.667Z" fill="white" stroke="white" stroke-width="0.333333"/>
<path d="M260.098 247.052C257.828 252.658 255.827 254.861 252.024 258.489H259.593L260.098 256.807V247.052Z" fill="#868686" stroke="#868686" stroke-width="0.333333"/>
<path d="M260.166 257L260.77 243.183L259.832 247.167L259.499 256.833L259.166 258.5H260.097L260.166 257Z" fill="#707070" stroke="#707070" stroke-width="0.333333"/>
<path d="M251.351 224.177H253.874C257.644 228.455 258.966 230.689 260.097 234.437C260.888 237.375 261.003 239.37 260.77 243.351C259.708 250.09 257.44 253.341 251.855 258.657L249.501 258.489C250.571 257.837 251.174 257.458 252.36 256.302C259.129 249.244 261.611 242.174 259.088 234.437C257.132 230.126 255.494 227.865 251.351 224.177Z" fill="#E8E8E8" stroke="#E8E8E8" stroke-width="0.333333"/>
<path d="M245.46 224.177H251.347C257.91 229.895 260.873 235.842 259.758 242.847C258.917 249.406 253.199 256.471 249.498 258.489H242.939C250.508 253.443 254.189 248.844 254.711 242.342C255.069 234.472 253.094 230.484 245.46 224.177Z" fill="#D6D6D6" stroke="#D6D6D6" stroke-width="0.333333"/>
<path d="M239.41 224.177H245.465C247.997 226.33 249.115 227.481 250.846 229.391C253.8 233.116 254.739 235.573 254.714 240.828C254.322 244.614 253.403 246.605 251.351 250.079C252.821 247.031 253.371 245.333 253.37 242.342C253.195 234.453 249.332 229.391 239.41 224.177Z" fill="#868686" stroke="#868686" stroke-width="0.333333"/>
<path d="M240.25 258.489H242.605C246.539 256.145 248.63 254.553 251.856 250.415C253.361 247.811 253.798 246.471 254.211 244.192C253.516 246.557 252.85 247.855 251.52 250.079C247.476 254.648 245.007 256.483 240.25 258.489Z" fill="white" stroke="white" stroke-width="0.333333"/>
<path d="M175.667 147.333H44.3333C37.5218 147.333 32 152.855 32 159.666V169.333C32 176.145 37.5218 181.666 44.3333 181.666H175.667C182.478 181.666 188 176.145 188 169.333V159.666C188 152.855 182.478 147.333 175.667 147.333Z" fill="white"/>
<path d="M136.334 170.167V161H140.334C145.667 161.5 145.501 169.667 140.167 170.167H136.334Z" stroke="#333333" stroke-width="1.6"/>
<path d="M147.667 164.82C150.232 163.754 151.172 164.015 151.912 165.438C152.096 165.792 152.167 166.193 152.167 166.592V167.404M152.167 167.404C150.367 166.844 149.213 166.758 148.256 167.214C146.987 167.817 147.038 169.887 148.401 170.229C149.378 170.474 150.491 170.02 152.167 168.82M152.167 167.404V168.82M152.167 170.82V168.82" stroke="#333333" stroke-width="1.6"/>
<path d="M156.667 174.333H154.5H154.333V172.833H156C156.61 172.246 156.852 171.765 157.167 170.667L154 163.667H155.833L158.167 168.667L159.833 163.667H161.667L158.333 172C157.786 173.228 157.417 173.753 156.667 174.333Z" fill="#333333" stroke="#333333" stroke-width="0.333333"/>
<path d="M87.3327 211C107.031 211 122.999 205.702 122.999 199.167C122.999 192.631 107.031 187.333 87.3327 187.333C67.6345 187.333 51.666 192.631 51.666 199.167C51.666 205.702 67.6345 211 87.3327 211Z" fill="url(#paint6_radial_45_13909)"/>
<path d="M51.769 178.538L51.5 170.333C56.5484 179.802 60.8386 183.065 69.8333 187V199C60.5154 194.679 55.6572 191.549 52.4401 182.367C52.0093 181.138 51.8117 179.841 51.769 178.538Z" fill="#838383" stroke="#838383" stroke-width="0.333333"/>
<path d="M122.565 178.705L122.834 170.5C117.786 179.969 113.829 183.065 104.834 187V199C114.151 194.68 118.715 191.696 121.897 182.535C122.324 181.304 122.522 180.007 122.565 178.705Z" fill="#838383" stroke="#838383" stroke-width="0.333333"/>
<path d="M104.667 187C90.6221 191.393 82.9793 191.34 70 187V199C83.4502 203.045 91.0385 203.139 104.667 199V187Z" fill="#636363" stroke="#636363" stroke-width="0.333333"/>
<path d="M51 179.5V167.333L51.5 169.333L51.8333 179.833C54.1667 189.667 59.5 194.833 70 199C80.2571 202.249 85.8164 202.558 95.5 201.333C102.988 199.955 107.164 198.509 114.5 193.667C119 190 122.129 184 122.5 179.5L122.833 169L123.5 167.333L123.167 181.167C120.478 188.948 118.113 192.839 110.667 198C101.401 202.632 95.7084 203.672 85 203.833C75.7579 203.101 70.5398 201.96 61 195.833C55.087 190.715 52.3578 187.475 51 179.5Z" fill="#636363" stroke="#636363" stroke-width="0.333333"/>
<path d="M123.834 163.667C123.834 171.056 119.748 177.761 113.114 182.624C106.48 187.487 97.3067 190.5 87.1671 190.5C77.0276 190.5 67.8546 187.487 61.2206 182.624C54.5864 177.761 50.5005 171.056 50.5005 163.667C50.5005 156.277 54.5864 149.572 61.2206 144.709C67.8546 139.846 77.0276 136.833 87.1671 136.833C97.3067 136.833 106.48 139.846 113.114 144.709C119.748 149.572 123.834 156.277 123.834 163.667Z" fill="#E8E8E8" stroke="#E8E8E8" stroke-width="0.333333"/>
<path d="M87.1673 189C106.957 189 123.001 177.658 123.001 163.667C123.001 149.676 106.957 138.333 87.1673 138.333C67.3771 138.333 51.334 149.676 51.334 163.667C51.334 177.658 67.3771 189 87.1673 189Z" fill="#D6D6D6"/>
<path d="M86.8347 184.333C102.943 184.333 116.001 175.453 116.001 164.5C116.001 153.546 102.943 144.667 86.8347 144.667C70.7263 144.667 57.668 153.546 57.668 164.5C57.668 175.453 70.7263 184.333 86.8347 184.333Z" fill="url(#paint7_linear_45_13909)"/>
<path d="M64.167 152.333C57.8332 157.5 56.6668 166.166 59.8337 172.333C58.4938 170.28 57.7851 168.954 56.8331 165.166C56.4236 160.366 57.181 157.663 60.1665 152.833C64.3047 148.137 66.8919 146.183 71.9998 144.166C79.1334 141.722 83.2647 141.057 90.8331 141.333C96.7606 142.104 100.275 143.198 107 146.5C113.374 151.121 114.92 154.076 116.833 159.5C117.609 162.891 117.626 164.688 116.666 167.666L114.166 172.333C115.729 169.023 116.169 167.414 116 165C115.166 159.166 113.7 155.496 108.166 151.166C103.764 147.728 100.792 146.262 93.8331 145.166C89.1079 144.565 86.3501 144.397 80.8332 145C73.8876 145.892 70.229 147.394 64.167 152.333Z" fill="#868686" stroke="#868686" stroke-width="0.333333"/>
<path d="M64.0013 178C60.9277 175.351 59.4459 173.548 57.668 169.167L59.5013 172.333C62.0454 175.903 63.3664 177.004 65.668 178.5C70.796 181.71 74.1508 183.037 81.168 184.333C89.7504 185.197 94.3702 184.558 102.335 181.667C106.674 179.87 109.004 178.413 112.835 174.5C114.261 172.76 114.914 171.72 116.001 169.833C114.938 172.076 114.355 173.051 113.335 174.5C109.016 179.24 106.194 181.43 100.001 184C94.3725 185.815 90.9993 186.349 84.5013 186.167C76.6652 185.359 69.168 182.833 64.0013 178Z" fill="white" stroke="white" stroke-width="0.333333"/>
<path d="M86.834 192.333C87.6624 192.333 88.334 191.512 88.334 190.5C88.334 189.487 87.6624 188.667 86.834 188.667C86.0056 188.667 85.334 189.487 85.334 190.5C85.334 191.512 86.0056 192.333 86.834 192.333Z" fill="white"/>
<path d="M87.334 139.666C87.8863 139.666 88.334 138.845 88.334 137.833C88.334 136.82 87.8863 136 87.334 136C86.7817 136 86.334 136.82 86.334 137.833C86.334 138.845 86.7817 139.666 87.334 139.666Z" fill="white"/>
<path d="M102.41 147.177H71.9664C64.3133 151.485 61.2612 154.334 58.8469 160.464C57.561 166.76 58.3593 169.194 60.1925 173.247C63.9607 177.489 66.3519 179.227 70.9572 181.489H103.251L107.624 179.302C115.382 173.868 117.354 170.017 115.866 161.473C114.857 155.923 110.405 151.109 102.41 147.177Z" fill="url(#paint8_linear_45_13909)"/>
<path d="M51.4453 170.052C53.7148 175.658 55.7158 177.861 59.5188 181.489H51.9499L51.4453 179.807V170.052Z" fill="#8A8A8A" stroke="#8A8A8A" stroke-width="0.333333"/>
<path d="M50.9997 179.5L50.7734 166.183L51.4462 170.051L51.4997 179.5L52.1663 181.5H51.333L50.9997 179.5Z" fill="#707070" stroke="#707070" stroke-width="0.333333"/>
<path d="M60.1918 147.177H57.6688C53.8988 151.455 52.5763 153.689 51.4455 157.437C50.6551 160.375 50.1645 163.149 50.666 166.333C51.7283 173.072 54.0813 176.172 59.666 181.489H62.042C60.9713 180.837 60.3688 180.458 59.1827 179.302C52.4137 172.244 49.9318 165.174 52.4546 157.437C54.4102 153.126 56.0484 150.865 60.1918 147.177Z" fill="#E8E8E8" stroke="#E8E8E8" stroke-width="0.333333"/>
<path d="M66.0828 147.177H60.1959C53.6329 152.895 50.6696 158.842 51.7845 165.847C52.6255 172.406 58.3443 179.471 62.0446 181.489H68.6043C61.0354 176.443 57.3541 171.844 56.8319 165.342C56.4737 157.472 58.4491 153.484 66.0828 147.177Z" fill="#D6D6D6" stroke="#D6D6D6" stroke-width="0.333333"/>
<path d="M72.1333 147.177H66.0782C63.5455 149.33 62.4275 150.481 60.6972 152.391C57.7434 156.116 56.8038 158.573 56.8286 163.828C57.221 167.614 58.1398 169.605 60.1922 173.079C58.7224 170.031 58.1717 168.333 58.1729 165.342C58.3481 157.453 62.2106 152.391 72.1333 147.177Z" fill="#868686" stroke="#868686" stroke-width="0.333333"/>
<path d="M71.499 181.667L68.9377 181.489C65.0043 179.145 63.0586 177.471 59.8324 173.333C58.3274 170.729 57.7451 169.471 57.332 167.192C58.0269 169.557 58.6692 170.943 59.999 173.167C64.0423 177.736 66.7425 179.66 71.499 181.667Z" fill="white" stroke="white" stroke-width="0.333333"/>
<path d="M123.098 170.052C120.828 175.658 118.827 177.861 115.024 181.489H122.593L123.098 179.807V170.052Z" fill="#868686" stroke="#868686" stroke-width="0.333333"/>
<path d="M123.166 180L123.77 166.183L122.832 170.167L122.499 179.833L122.166 181.5H123.097L123.166 180Z" fill="#707070" stroke="#707070" stroke-width="0.333333"/>
<path d="M114.351 147.177H116.874C120.644 151.455 121.966 153.689 123.097 157.437C123.888 160.375 124.003 162.37 123.77 166.351C122.708 173.09 120.44 176.341 114.855 181.657L112.501 181.489C113.571 180.837 114.174 180.458 115.36 179.302C122.129 172.244 124.611 165.174 122.088 157.437C120.132 153.126 118.494 150.865 114.351 147.177Z" fill="#E8E8E8" stroke="#E8E8E8" stroke-width="0.333333"/>
<path d="M108.46 147.177H114.347C120.91 152.895 123.873 158.842 122.758 165.847C121.917 172.406 116.199 179.471 112.498 181.489H105.939C113.508 176.443 117.189 171.844 117.711 165.342C118.069 157.472 116.094 153.484 108.46 147.177Z" fill="#D6D6D6" stroke="#D6D6D6" stroke-width="0.333333"/>
<path d="M102.41 147.177H108.465C110.997 149.33 112.115 150.481 113.846 152.391C116.8 156.116 117.739 158.573 117.714 163.828C117.322 167.614 116.403 169.605 114.351 173.079C115.821 170.031 116.371 168.333 116.37 165.342C116.195 157.453 112.332 152.391 102.41 147.177Z" fill="#868686" stroke="#868686" stroke-width="0.333333"/>
<path d="M103.25 181.489H105.605C109.539 179.145 111.63 177.553 114.856 173.415C116.361 170.811 116.798 169.471 117.211 167.192C116.516 169.557 115.85 170.855 114.52 173.079C110.476 177.648 108.007 179.483 103.25 181.489Z" fill="white" stroke="white" stroke-width="0.333333"/>
<path d="M312.667 79.3335H181.333C174.522 79.3335 169 84.8553 169 91.6668V101.333C169 108.145 174.522 113.667 181.333 113.667H312.667C319.478 113.667 325 108.145 325 101.333V91.6668C325 84.8553 319.478 79.3335 312.667 79.3335Z" fill="white"/>
<path d="M273.334 102.167V93H277.334C282.667 93.5 282.501 101.667 277.167 102.167H273.334Z" stroke="#333333" stroke-width="1.6"/>
<path d="M284.667 96.8207C287.232 95.7542 288.172 96.0154 288.912 97.4379C289.096 97.7922 289.167 98.193 289.167 98.5923V99.404M289.167 99.404C287.367 98.8437 286.213 98.7584 285.256 99.2138C283.987 99.8168 284.038 101.887 285.401 102.229C286.378 102.474 287.491 102.02 289.167 100.82M289.167 99.404V100.82M289.167 102.82V100.82" stroke="#333333" stroke-width="1.6"/>
<path d="M293.667 106.333H291.5H291.333V104.833H293C293.61 104.246 293.852 103.765 294.167 102.667L291 95.6665H292.833L295.167 100.667L296.833 95.6665H298.667L295.333 104C294.786 105.228 294.417 105.753 293.667 106.333Z" fill="#333333" stroke="#333333" stroke-width="0.333333"/>
<path d="M224.333 143C244.031 143 260 137.702 260 131.167C260 124.631 244.031 119.333 224.333 119.333C204.635 119.333 188.667 124.631 188.667 131.167C188.667 137.702 204.635 143 224.333 143Z" fill="url(#paint9_radial_45_13909)"/>
<path d="M188.769 110.538L188.5 102.333C193.548 111.802 197.839 115.065 206.833 119V131C197.515 126.679 192.657 123.549 189.44 114.367C189.009 113.138 188.812 111.841 188.769 110.538Z" fill="#838383" stroke="#838383" stroke-width="0.333333"/>
<path d="M259.565 110.705L259.834 102.5C254.786 111.969 250.829 115.065 241.834 119V131C251.151 126.68 255.715 123.696 258.897 114.535C259.324 113.304 259.522 112.007 259.565 110.705Z" fill="#838383" stroke="#838383" stroke-width="0.333333"/>
<path d="M241.667 119C227.622 123.393 219.979 123.34 207 119V131C220.45 135.045 228.038 135.139 241.667 131V119Z" fill="#636363" stroke="#636363" stroke-width="0.333333"/>
<path d="M188 111.5V99.3335L188.5 101.333L188.833 111.833C191.167 121.667 196.5 126.833 207 131C217.257 134.249 222.816 134.558 232.5 133.333C239.988 131.955 244.164 130.509 251.5 125.667C256 122 259.129 116 259.5 111.5L259.833 101L260.5 99.3335L260.167 113.167C257.478 120.948 255.113 124.839 247.667 130C238.401 134.632 232.708 135.672 222 135.833C212.758 135.101 207.54 133.96 198 127.833C192.087 122.715 189.358 119.475 188 111.5Z" fill="#636363" stroke="#636363" stroke-width="0.333333"/>
<path d="M260.834 95.6663C260.834 103.056 256.748 109.761 250.114 114.624C243.48 119.487 234.307 122.5 224.167 122.5C214.028 122.5 204.855 119.487 198.221 114.624C191.587 109.761 187.501 103.056 187.501 95.6663C187.501 88.2763 191.587 81.5719 198.221 76.7088C204.855 71.8459 214.028 68.833 224.167 68.833C234.307 68.833 243.48 71.8459 250.114 76.7088C256.748 81.5719 260.834 88.2763 260.834 95.6663Z" fill="#E8E8E8" stroke="#E8E8E8" stroke-width="0.333333"/>
<path d="M224.167 121C243.957 121 260 109.658 260 95.6668C260 81.6756 243.957 70.3335 224.167 70.3335C204.377 70.3335 188.333 81.6756 188.333 95.6668C188.333 109.658 204.377 121 224.167 121Z" fill="#D6D6D6"/>
<path d="M223.835 116.333C239.943 116.333 253.002 107.453 253.002 96.4998C253.002 85.5462 239.943 76.6665 223.835 76.6665C207.727 76.6665 194.668 85.5462 194.668 96.4998C194.668 107.453 207.727 116.333 223.835 116.333Z" fill="url(#paint10_linear_45_13909)"/>
<path d="M201.167 84.3329C194.833 89.4996 193.667 98.1662 196.834 104.333C195.494 102.28 194.785 100.954 193.833 97.1663C193.424 92.3655 194.181 89.6625 197.166 84.8329C201.305 80.1364 203.892 78.1829 209 76.1663C216.133 73.7216 220.265 73.0564 227.833 73.3329C233.761 74.1039 237.275 75.1975 244 78.4996C250.374 83.1207 251.92 86.0761 253.833 91.4996C254.609 94.891 254.626 96.6874 253.666 99.6663L251.166 104.333C252.729 101.023 253.169 99.4135 253 96.9996C252.166 91.1663 250.7 87.4955 245.166 83.1663C240.764 79.7278 237.792 78.2617 230.833 77.1662C226.108 76.565 223.35 76.397 217.833 76.9996C210.888 77.8916 207.229 79.3939 201.167 84.3329Z" fill="#868686" stroke="#868686" stroke-width="0.333333"/>
<path d="M201.001 110C197.928 107.351 196.446 105.548 194.668 101.167L196.501 104.333C199.045 107.903 200.366 109.004 202.668 110.5C207.796 113.71 211.151 115.037 218.168 116.333C226.75 117.197 231.37 116.558 239.335 113.667C243.674 111.87 246.004 110.413 249.835 106.5C251.261 104.76 251.914 103.72 253.001 101.833C251.938 104.076 251.355 105.051 250.335 106.5C246.016 111.24 243.194 113.43 237.001 116C231.373 117.815 227.999 118.349 221.501 118.167C213.665 117.359 206.168 114.833 201.001 110Z" fill="white" stroke="white" stroke-width="0.333333"/>
<path d="M223.834 124.333C224.662 124.333 225.334 123.512 225.334 122.5C225.334 121.487 224.662 120.667 223.834 120.667C223.006 120.667 222.334 121.487 222.334 122.5C222.334 123.512 223.006 124.333 223.834 124.333Z" fill="white"/>
<path d="M224.334 71.6667C224.886 71.6667 225.334 70.8458 225.334 69.8333C225.334 68.8208 224.886 68 224.334 68C223.782 68 223.334 68.8208 223.334 69.8333C223.334 70.8458 223.782 71.6667 224.334 71.6667Z" fill="white"/>
<path d="M239.41 79.1763H208.966C201.313 83.4849 198.261 86.3339 195.847 92.464C194.561 98.7594 195.359 101.194 197.192 105.247C200.961 109.489 203.352 111.227 207.957 113.489H240.251L244.624 111.302C252.382 105.868 254.354 102.017 252.866 93.4732C251.857 87.9226 247.405 83.1089 239.41 79.1763Z" fill="url(#paint11_linear_45_13909)"/>
<path d="M188.445 102.052C190.715 107.658 192.716 109.861 196.519 113.489H188.95L188.445 111.807V102.052Z" fill="#8A8A8A" stroke="#8A8A8A" stroke-width="0.333333"/>
<path d="M188 111.5L187.773 98.1831L188.446 102.051L188.5 111.5L189.166 113.5H188.333L188 111.5Z" fill="#707070" stroke="#707070" stroke-width="0.333333"/>
<path d="M197.192 79.1763H194.669C190.899 83.4552 189.576 85.6884 188.445 89.4364C187.655 92.3751 187.164 95.149 187.666 98.3333C188.728 105.072 191.081 108.172 196.666 113.489H199.042C197.971 112.837 197.369 112.458 196.183 111.302C189.414 104.244 186.932 97.1735 189.455 89.4364C191.41 85.126 193.048 82.8652 197.192 79.1763Z" fill="#E8E8E8" stroke="#E8E8E8" stroke-width="0.333333"/>
<path d="M203.083 79.1763H197.196C190.633 84.8951 187.67 90.8417 188.785 97.8463C189.626 104.406 195.344 111.471 199.045 113.489H205.604C198.035 108.443 194.354 103.844 193.832 97.3417C193.474 89.4714 195.449 85.4843 203.083 79.1763Z" fill="#D6D6D6" stroke="#D6D6D6" stroke-width="0.333333"/>
<path d="M209.133 79.1763H203.078C200.546 81.3295 199.428 82.4806 197.697 84.3905C194.743 88.1163 193.804 90.573 193.829 95.8279C194.221 99.6141 195.14 101.605 197.192 105.079C195.722 102.031 195.172 100.333 195.173 97.3417C195.348 89.4526 199.211 84.3905 209.133 79.1763Z" fill="#868686" stroke="#868686" stroke-width="0.333333"/>
<path d="M208.499 113.667L205.938 113.489C202.004 111.145 200.059 109.471 196.832 105.333C195.327 102.729 194.745 101.471 194.332 99.1919C195.027 101.557 195.669 102.943 196.999 105.167C201.042 109.736 203.743 111.66 208.499 113.667Z" fill="white" stroke="white" stroke-width="0.333333"/>
<path d="M260.098 102.052C257.828 107.658 255.827 109.861 252.024 113.489H259.593L260.098 111.807V102.052Z" fill="#868686" stroke="#868686" stroke-width="0.333333"/>
<path d="M260.166 112L260.77 98.1831L259.832 102.167L259.499 111.833L259.166 113.5H260.097L260.166 112Z" fill="#707070" stroke="#707070" stroke-width="0.333333"/>
<path d="M251.351 79.1763H253.874C257.644 83.4552 258.966 85.6884 260.097 89.4364C260.888 92.3751 261.003 94.3697 260.77 98.3509C259.708 105.09 257.44 108.341 251.855 113.657L249.501 113.489C250.571 112.837 251.174 112.458 252.36 111.302C259.129 104.244 261.611 97.1735 259.088 89.4364C257.132 85.126 255.494 82.8652 251.351 79.1763Z" fill="#E8E8E8" stroke="#E8E8E8" stroke-width="0.333333"/>
<path d="M245.46 79.1763H251.347C257.91 84.8951 260.873 90.8417 259.758 97.8463C258.917 104.406 253.199 111.471 249.498 113.489H242.939C250.508 108.443 254.189 103.844 254.711 97.3417C255.069 89.4714 253.094 85.4843 245.46 79.1763Z" fill="#D6D6D6" stroke="#D6D6D6" stroke-width="0.333333"/>
<path d="M239.41 79.1763H245.465C247.997 81.3295 249.115 82.4806 250.846 84.3905C253.8 88.1163 254.739 90.573 254.714 95.8279C254.322 99.6141 253.403 101.605 251.351 105.079C252.821 102.031 253.371 100.333 253.37 97.3417C253.195 89.4526 249.332 84.3905 239.41 79.1763Z" fill="#868686" stroke="#868686" stroke-width="0.333333"/>
<path d="M240.25 113.489H242.605C246.539 111.145 248.63 109.553 251.856 105.415C253.361 102.811 253.798 101.471 254.211 99.1919C253.516 101.557 252.85 102.855 251.52 105.079C247.476 109.648 245.007 111.483 240.25 113.489Z" fill="white" stroke="white" stroke-width="0.333333"/>
<path d="M175.667 21.6665H44.3333C37.5218 21.6665 32 27.1883 32 33.9998V43.3332C32 50.1447 37.5218 55.6665 44.3333 55.6665H175.667C182.478 55.6665 188 50.1447 188 43.3332V33.9998C188 27.1883 182.478 21.6665 175.667 21.6665Z" fill="#BD3161"/>
<path d="M134.666 44.1667V35H138.666C143.999 35.5 143.833 43.6667 138.499 44.1667H134.666Z" stroke="white" stroke-width="1.6"/>
<path d="M145.999 38.8202C148.564 37.7537 149.504 38.015 150.244 39.4374C150.428 39.7917 150.499 40.1926 150.499 40.5919V41.4035M150.499 41.4035C148.699 40.8433 147.546 40.758 146.588 41.2134C145.319 41.8164 145.37 43.8868 146.733 44.2284C147.71 44.4734 148.823 44.0202 150.499 42.8202M150.499 41.4035V42.8202M150.499 44.8202V42.8202" stroke="white" stroke-width="1.6"/>
<path d="M154.999 48.3332H152.832H152.665V46.8332H154.332C154.942 46.2456 155.184 45.7647 155.499 44.6665L152.332 37.6665H154.165L156.499 42.6665L158.165 37.6665H159.999L156.665 45.9999C156.118 47.2277 155.749 47.7532 154.999 48.3332Z" fill="white" stroke="white" stroke-width="0.333333"/>
<path d="M85.9987 80.9996C105.697 80.9996 121.665 75.7017 121.665 69.1663C121.665 62.631 105.697 57.333 85.9987 57.333C66.3006 57.333 50.332 62.631 50.332 69.1663C50.332 75.7017 66.3006 80.9996 85.9987 80.9996Z" fill="url(#paint12_radial_45_13909)"/>
<path d="M50.435 48.5381L50.166 40.333C55.2145 49.8016 59.5046 53.0643 68.4993 56.9997V68.9997C59.1814 64.6791 54.3232 61.5483 51.1061 52.3669C50.6753 51.1373 50.4777 49.8403 50.435 48.5381Z" fill="#C57509" stroke="#C57509" stroke-width="0.333333"/>
<path d="M121.231 48.7051L121.5 40.5C116.452 49.9686 112.495 53.0646 103.5 57V69C112.817 64.6799 117.381 61.6961 120.563 52.5347C120.99 51.304 121.188 50.0073 121.231 48.7051Z" fill="#C57509" stroke="#C57509" stroke-width="0.333333"/>
<path d="M103.333 57C89.2881 61.3933 81.6453 61.3402 68.666 57V69C82.1163 73.0449 89.7045 73.1392 103.333 69V57Z" fill="#9B4C01" stroke="#9B4C01" stroke-width="0.333333"/>
<path d="M49.666 49.5001V37.3335L50.166 39.3335L50.4993 49.8335C52.8327 59.6668 58.166 64.8335 68.666 69.0001C78.9231 72.2489 84.4825 72.5584 94.166 71.3335C101.654 69.9553 105.83 68.5089 113.166 63.6668C117.666 60.0001 120.795 54.0001 121.166 49.5001L121.499 39.0001L122.166 37.3335L121.833 51.1668C119.144 58.9477 116.779 62.839 109.333 68.0001C100.067 72.6325 94.3744 73.6724 83.666 73.8335C74.424 73.1017 69.2059 71.9602 59.666 65.8335C53.7531 60.7155 51.0238 57.4752 49.666 49.5001Z" fill="#AB6004" stroke="#AB6004" stroke-width="0.333333"/>
<path d="M122.5 33.6663C122.5 41.0563 118.414 47.7607 111.78 52.6238C105.146 57.4867 95.9727 60.4996 85.8331 60.4996C75.6936 60.4996 66.5206 57.4867 59.8866 52.6238C53.2524 47.7607 49.1665 41.0563 49.1665 33.6663C49.1665 26.2763 53.2524 19.5719 59.8866 14.7088C66.5206 9.8459 75.6936 6.83301 85.8331 6.83301C95.9727 6.83301 105.146 9.8459 111.78 14.7088C118.414 19.5719 122.5 26.2763 122.5 33.6663Z" fill="#FFED8B" stroke="#FFED8B" stroke-width="0.333333"/>
<path d="M85.8333 59.0001C105.623 59.0001 121.667 47.658 121.667 33.6668C121.667 19.6756 105.623 8.3335 85.8333 8.3335C66.0431 8.3335 50 19.6756 50 33.6668C50 47.658 66.0431 59.0001 85.8333 59.0001Z" fill="#FFDD40"/>
<path d="M85.5007 54.3331C101.609 54.3331 114.667 45.4534 114.667 34.4998C114.667 23.5462 101.609 14.6665 85.5007 14.6665C69.3924 14.6665 56.334 23.5462 56.334 34.4998C56.334 45.4534 69.3924 54.3331 85.5007 54.3331Z" fill="url(#paint13_linear_45_13909)"/>
<path d="M62.833 22.3329C56.4992 27.4996 55.3328 36.1662 58.4997 42.3329C57.1598 40.2799 56.4511 38.9534 55.4992 35.1663C55.0896 30.3655 55.847 27.6625 58.8325 22.8329C62.9707 18.1364 65.5579 16.1829 70.6658 14.1663C77.7994 11.7216 81.9307 11.0564 89.4992 11.3329C95.4267 12.1039 98.941 13.1975 105.666 16.4996C112.04 21.1207 113.586 24.0761 115.499 29.4996C116.275 32.891 116.292 34.6874 115.333 37.6663L112.833 42.3329C114.395 39.023 114.835 37.4135 114.666 34.9996C113.833 29.1663 112.366 25.4955 106.833 21.1663C102.43 17.7278 99.4581 16.2617 92.4992 15.1662C87.7739 14.565 85.0161 14.397 79.4992 14.9996C72.5537 15.8916 68.895 17.3939 62.833 22.3329Z" fill="#CA7A11" stroke="#CA7A11" stroke-width="0.333333"/>
<path d="M62.6673 47.9998C59.5937 45.3506 58.1119 43.5475 56.334 39.1665L58.1673 42.3332C60.7114 45.9025 62.0325 47.0043 64.334 48.4998C69.462 51.7096 72.8168 53.0375 79.834 54.3332C88.4164 55.1974 93.0362 54.5583 101.001 51.6665C105.34 49.8704 107.67 48.4134 111.501 44.4998C112.927 42.7596 113.58 41.7199 114.667 39.8332C113.604 42.0755 113.021 43.0505 112.001 44.4998C107.682 49.2395 104.86 51.4305 98.6673 53.9998C93.0385 55.8149 89.6653 56.3493 83.1673 56.1665C75.3312 55.3592 67.834 52.8332 62.6673 47.9998Z" fill="white" stroke="white" stroke-width="0.333333"/>
<path d="M85.5 62.3337C86.3284 62.3337 87 61.5128 87 60.5003C87 59.4878 86.3284 58.667 85.5 58.667C84.6716 58.667 84 59.4878 84 60.5003C84 61.5128 84.6716 62.3337 85.5 62.3337Z" fill="white"/>
<path d="M86 9.66666C86.5523 9.66666 87 8.84585 87 7.83333C87 6.82081 86.5523 6 86 6C85.4477 6 85 6.82081 85 7.83333C85 8.84585 85.4477 9.66666 86 9.66666Z" fill="white"/>
<path d="M164.68 38.6531L167.2 36.9388V46H170V34H167.2L163 37.4286L164.68 38.6531Z" fill="white"/>
<path d="M303.222 95.197H305.66C305.66 93.5419 307.211 92.8325 308.097 93.7783C308.435 94.1387 308.762 94.9606 308.097 95.9064L303 100.635V103H310.979V100.635H306.546C308.538 98.6976 310.954 96.6158 310.979 96.1428C311.012 95.4965 311.002 95.1341 310.979 94.4877C310.757 92.596 310.535 91.8867 308.762 91.1773C307.876 90.9409 307.211 90.9409 306.324 91.1773C304.551 91.6502 303.443 92.8325 303.222 95.197Z" fill="#333333"/>
<path d="M169.259 163.029H166.674C166.889 161.09 169.259 159.366 172.06 160.228C173.137 160.659 173.783 161.09 173.999 161.951V163.675C173.999 164.537 173.561 164.86 172.706 165.183C172.581 165.326 172.557 165.416 172.706 165.614C173.367 165.806 173.959 166.045 173.999 166.476C174.086 167.416 174.109 167.971 173.999 169.061C173.888 170.151 173.137 170.785 172.06 171H169.044C167.751 171 166.674 169.923 166.674 169.276V167.984H169.044C169.044 168.415 169.055 169.175 169.259 169.276C170.121 169.707 170.929 169.556 171.629 169.276C172.706 168.846 172.706 166.907 171.629 166.476H169.259V164.537C171.198 164.537 172.06 164.322 172.06 163.029C172.06 161.736 169.682 161.256 169.259 163.029Z" fill="#333333"/>
<path d="M307.88 237L302.6 244.44V246.36H308.12V249H310.28V246.36H312.2V244.44H310.52V237H307.88Z" fill="#333333"/>
<path d="M305.48 243.48L307.16 240.84H308.36V244.44H305.48V243.48Z" fill="white"/>
<path d="M65.648 28.296V24.48H72.296V42H68.024V28.296H65.648ZM75.2707 33C75.2707 30.248 75.7987 28.08 76.8547 26.496C77.9267 24.912 79.6467 24.12 82.0147 24.12C84.3827 24.12 86.0947 24.912 87.1507 26.496C88.2227 28.08 88.7587 30.248 88.7587 33C88.7587 35.784 88.2227 37.968 87.1507 39.552C86.0947 41.136 84.3827 41.928 82.0147 41.928C79.6467 41.928 77.9267 41.136 76.8547 39.552C75.7987 37.968 75.2707 35.784 75.2707 33ZM84.7267 33C84.7267 31.384 84.5507 30.144 84.1987 29.28C83.8467 28.4 83.1187 27.96 82.0147 27.96C80.9107 27.96 80.1827 28.4 79.8307 29.28C79.4787 30.144 79.3027 31.384 79.3027 33C79.3027 34.088 79.3667 34.992 79.4947 35.712C79.6227 36.416 79.8787 36.992 80.2627 37.44C80.6627 37.872 81.2467 38.088 82.0147 38.088C82.7827 38.088 83.3587 37.872 83.7427 37.44C84.1427 36.992 84.4067 36.416 84.5347 35.712C84.6627 34.992 84.7267 34.088 84.7267 33ZM91.0943 33C91.0943 30.248 91.6223 28.08 92.6783 26.496C93.7503 24.912 95.4703 24.12 97.8383 24.12C100.206 24.12 101.918 24.912 102.974 26.496C104.046 28.08 104.582 30.248 104.582 33C104.582 35.784 104.046 37.968 102.974 39.552C101.918 41.136 100.206 41.928 97.8383 41.928C95.4703 41.928 93.7503 41.136 92.6783 39.552C91.6223 37.968 91.0943 35.784 91.0943 33ZM100.55 33C100.55 31.384 100.374 30.144 100.022 29.28C99.6703 28.4 98.9423 27.96 97.8383 27.96C96.7343 27.96 96.0063 28.4 95.6543 29.28C95.3023 30.144 95.1263 31.384 95.1263 33C95.1263 34.088 95.1903 34.992 95.3183 35.712C95.4463 36.416 95.7023 36.992 96.0863 37.44C96.4863 37.872 97.0703 38.088 97.8383 38.088C98.6063 38.088 99.1823 37.872 99.5663 37.44C99.9663 36.992 100.23 36.416 100.358 35.712C100.486 34.992 100.55 34.088 100.55 33Z" fill="white"/>
<path d="M202.224 92.424C202.288 90.712 202.848 89.392 203.904 88.464C204.96 87.536 206.392 87.072 208.2 87.072C209.4 87.072 210.424 87.28 211.272 87.696C212.136 88.112 212.784 88.68 213.216 89.4C213.664 90.12 213.888 90.928 213.888 91.824C213.888 92.88 213.624 93.744 213.096 94.416C212.568 95.072 211.952 95.52 211.248 95.76V95.856C212.16 96.16 212.88 96.664 213.408 97.368C213.936 98.072 214.2 98.976 214.2 100.08C214.2 101.072 213.968 101.952 213.504 102.72C213.056 103.472 212.392 104.064 211.512 104.496C210.648 104.928 209.616 105.144 208.416 105.144C206.496 105.144 204.96 104.672 203.808 103.728C202.672 102.784 202.072 101.36 202.008 99.456H205.992C206.008 100.16 206.208 100.72 206.592 101.136C206.976 101.536 207.536 101.736 208.272 101.736C208.896 101.736 209.376 101.56 209.712 101.208C210.064 100.84 210.24 100.36 210.24 99.768C210.24 99 209.992 98.448 209.496 98.112C209.016 97.76 208.24 97.584 207.168 97.584H206.4V94.248H207.168C207.984 94.248 208.64 94.112 209.136 93.84C209.648 93.552 209.904 93.048 209.904 92.328C209.904 91.752 209.744 91.304 209.424 90.984C209.104 90.664 208.664 90.504 208.104 90.504C207.496 90.504 207.04 90.688 206.736 91.056C206.448 91.424 206.28 91.88 206.232 92.424H202.224ZM216.779 96C216.779 93.248 217.307 91.08 218.363 89.496C219.435 87.912 221.155 87.12 223.523 87.12C225.891 87.12 227.603 87.912 228.659 89.496C229.731 91.08 230.267 93.248 230.267 96C230.267 98.784 229.731 100.968 228.659 102.552C227.603 104.136 225.891 104.928 223.523 104.928C221.155 104.928 219.435 104.136 218.363 102.552C217.307 100.968 216.779 98.784 216.779 96ZM226.235 96C226.235 94.384 226.059 93.144 225.707 92.28C225.355 91.4 224.627 90.96 223.523 90.96C222.419 90.96 221.691 91.4 221.339 92.28C220.987 93.144 220.811 94.384 220.811 96C220.811 97.088 220.875 97.992 221.003 98.712C221.131 99.416 221.387 99.992 221.771 100.44C222.171 100.872 222.755 101.088 223.523 101.088C224.291 101.088 224.867 100.872 225.251 100.44C225.651 99.992 225.915 99.416 226.043 98.712C226.171 97.992 226.235 97.088 226.235 96ZM232.602 96C232.602 93.248 233.13 91.08 234.186 89.496C235.258 87.912 236.978 87.12 239.346 87.12C241.714 87.12 243.426 87.912 244.482 89.496C245.554 91.08 246.09 93.248 246.09 96C246.09 98.784 245.554 100.968 244.482 102.552C243.426 104.136 241.714 104.928 239.346 104.928C236.978 104.928 235.258 104.136 234.186 102.552C233.13 100.968 232.602 98.784 232.602 96ZM242.058 96C242.058 94.384 241.882 93.144 241.53 92.28C241.178 91.4 240.45 90.96 239.346 90.96C238.242 90.96 237.514 91.4 237.162 92.28C236.81 93.144 236.634 94.384 236.634 96C236.634 97.088 236.698 97.992 236.826 98.712C236.954 99.416 237.21 99.992 237.594 100.44C237.994 100.872 238.578 101.088 239.346 101.088C240.114 101.088 240.69 100.872 241.074 100.44C241.474 99.992 241.738 99.416 241.866 98.712C241.994 97.992 242.058 97.088 242.058 96Z" fill="white"/>
<path d="M64.224 160.424C64.288 158.712 64.848 157.392 65.904 156.464C66.96 155.536 68.392 155.072 70.2 155.072C71.4 155.072 72.424 155.28 73.272 155.696C74.136 156.112 74.784 156.68 75.216 157.4C75.664 158.12 75.888 158.928 75.888 159.824C75.888 160.88 75.624 161.744 75.096 162.416C74.568 163.072 73.952 163.52 73.248 163.76V163.856C74.16 164.16 74.88 164.664 75.408 165.368C75.936 166.072 76.2 166.976 76.2 168.08C76.2 169.072 75.968 169.952 75.504 170.72C75.056 171.472 74.392 172.064 73.512 172.496C72.648 172.928 71.616 173.144 70.416 173.144C68.496 173.144 66.96 172.672 65.808 171.728C64.672 170.784 64.072 169.36 64.008 167.456H67.992C68.008 168.16 68.208 168.72 68.592 169.136C68.976 169.536 69.536 169.736 70.272 169.736C70.896 169.736 71.376 169.56 71.712 169.208C72.064 168.84 72.24 168.36 72.24 167.768C72.24 167 71.992 166.448 71.496 166.112C71.016 165.76 70.24 165.584 69.168 165.584H68.4V162.248H69.168C69.984 162.248 70.64 162.112 71.136 161.84C71.648 161.552 71.904 161.048 71.904 160.328C71.904 159.752 71.744 159.304 71.424 158.984C71.104 158.664 70.664 158.504 70.104 158.504C69.496 158.504 69.04 158.688 68.736 159.056C68.448 159.424 68.28 159.88 68.232 160.424H64.224ZM91.1145 159.056H83.6265V162.368C83.9465 162.016 84.3945 161.728 84.9705 161.504C85.5465 161.28 86.1705 161.168 86.8425 161.168C88.0425 161.168 89.0345 161.44 89.8185 161.984C90.6185 162.528 91.2025 163.232 91.5705 164.096C91.9385 164.96 92.1225 165.896 92.1225 166.904C92.1225 168.776 91.5945 170.264 90.5385 171.368C89.4825 172.456 87.9945 173 86.0745 173C84.7945 173 83.6825 172.784 82.7385 172.352C81.7945 171.904 81.0665 171.288 80.5545 170.504C80.0425 169.72 79.7625 168.816 79.7145 167.792H83.7225C83.8185 168.288 84.0505 168.704 84.4185 169.04C84.7865 169.36 85.2905 169.52 85.9305 169.52C86.6825 169.52 87.2425 169.28 87.6105 168.8C87.9785 168.32 88.1625 167.68 88.1625 166.88C88.1625 166.096 87.9705 165.496 87.5865 165.08C87.2025 164.664 86.6425 164.456 85.9065 164.456C85.3625 164.456 84.9145 164.592 84.5625 164.864C84.2105 165.12 83.9785 165.464 83.8665 165.896H79.9065V155.456H91.1145V159.056ZM94.5552 164C94.5552 161.248 95.0832 159.08 96.1392 157.496C97.2112 155.912 98.9312 155.12 101.299 155.12C103.667 155.12 105.379 155.912 106.435 157.496C107.507 159.08 108.043 161.248 108.043 164C108.043 166.784 107.507 168.968 106.435 170.552C105.379 172.136 103.667 172.928 101.299 172.928C98.9312 172.928 97.2112 172.136 96.1392 170.552C95.0832 168.968 94.5552 166.784 94.5552 164ZM104.011 164C104.011 162.384 103.835 161.144 103.483 160.28C103.131 159.4 102.403 158.96 101.299 158.96C100.195 158.96 99.4672 159.4 99.1152 160.28C98.7632 161.144 98.5872 162.384 98.5872 164C98.5872 165.088 98.6512 165.992 98.7792 166.712C98.9072 167.416 99.1632 167.992 99.5472 168.44C99.9472 168.872 100.531 169.088 101.299 169.088C102.067 169.088 102.643 168.872 103.027 168.44C103.427 167.992 103.691 167.416 103.819 166.712C103.947 165.992 104.011 165.088 104.011 164Z" fill="white"/>
<path d="M203.176 246.88V243.568L210.76 232.72H215.344V243.328H217.312V246.88H215.344V250H211.24V246.88H203.176ZM211.528 237.232L207.496 243.328H211.528V237.232ZM219.489 241C219.489 238.248 220.017 236.08 221.073 234.496C222.145 232.912 223.865 232.12 226.233 232.12C228.601 232.12 230.313 232.912 231.369 234.496C232.441 236.08 232.977 238.248 232.977 241C232.977 243.784 232.441 245.968 231.369 247.552C230.313 249.136 228.601 249.928 226.233 249.928C223.865 249.928 222.145 249.136 221.073 247.552C220.017 245.968 219.489 243.784 219.489 241ZM228.945 241C228.945 239.384 228.769 238.144 228.417 237.28C228.065 236.4 227.337 235.96 226.233 235.96C225.129 235.96 224.401 236.4 224.049 237.28C223.697 238.144 223.521 239.384 223.521 241C223.521 242.088 223.585 242.992 223.713 243.712C223.841 244.416 224.097 244.992 224.481 245.44C224.881 245.872 225.465 246.088 226.233 246.088C227.001 246.088 227.577 245.872 227.961 245.44C228.361 244.992 228.625 244.416 228.753 243.712C228.881 242.992 228.945 242.088 228.945 241ZM235.313 241C235.313 238.248 235.841 236.08 236.897 234.496C237.969 232.912 239.689 232.12 242.057 232.12C244.425 232.12 246.137 232.912 247.193 234.496C248.265 236.08 248.801 238.248 248.801 241C248.801 243.784 248.265 245.968 247.193 247.552C246.137 249.136 244.425 249.928 242.057 249.928C239.689 249.928 237.969 249.136 236.897 247.552C235.841 245.968 235.313 243.784 235.313 241ZM244.769 241C244.769 239.384 244.593 238.144 244.241 237.28C243.889 236.4 243.161 235.96 242.057 235.96C240.953 235.96 240.225 236.4 239.873 237.28C239.521 238.144 239.345 239.384 239.345 241C239.345 242.088 239.409 242.992 239.537 243.712C239.665 244.416 239.921 244.992 240.305 245.44C240.705 245.872 241.289 246.088 242.057 246.088C242.825 246.088 243.401 245.872 243.785 245.44C244.185 244.992 244.449 244.416 244.577 243.712C244.705 242.992 244.769 242.088 244.769 241Z" fill="white"/>
<path d="M59.648 307.296V303.48H66.296V321H62.024V307.296H59.648ZM69.2707 312C69.2707 309.248 69.7987 307.08 70.8547 305.496C71.9267 303.912 73.6467 303.12 76.0147 303.12C78.3827 303.12 80.0947 303.912 81.1507 305.496C82.2227 307.08 82.7587 309.248 82.7587 312C82.7587 314.784 82.2227 316.968 81.1507 318.552C80.0947 320.136 78.3827 320.928 76.0147 320.928C73.6467 320.928 71.9267 320.136 70.8547 318.552C69.7987 316.968 69.2707 314.784 69.2707 312ZM78.7267 312C78.7267 310.384 78.5507 309.144 78.1987 308.28C77.8467 307.4 77.1187 306.96 76.0147 306.96C74.9107 306.96 74.1827 307.4 73.8307 308.28C73.4787 309.144 73.3027 310.384 73.3027 312C73.3027 313.088 73.3667 313.992 73.4947 314.712C73.6227 315.416 73.8787 315.992 74.2627 316.44C74.6627 316.872 75.2467 317.088 76.0147 317.088C76.7827 317.088 77.3587 316.872 77.7427 316.44C78.1427 315.992 78.4067 315.416 78.5347 314.712C78.6627 313.992 78.7267 313.088 78.7267 312ZM85.0943 312C85.0943 309.248 85.6223 307.08 86.6783 305.496C87.7503 303.912 89.4703 303.12 91.8383 303.12C94.2063 303.12 95.9183 303.912 96.9743 305.496C98.0463 307.08 98.5823 309.248 98.5823 312C98.5823 314.784 98.0463 316.968 96.9743 318.552C95.9183 320.136 94.2063 320.928 91.8383 320.928C89.4703 320.928 87.7503 320.136 86.6783 318.552C85.6223 316.968 85.0943 314.784 85.0943 312ZM94.5503 312C94.5503 310.384 94.3743 309.144 94.0223 308.28C93.6703 307.4 92.9423 306.96 91.8383 306.96C90.7343 306.96 90.0063 307.4 89.6543 308.28C89.3023 309.144 89.1263 310.384 89.1263 312C89.1263 313.088 89.1903 313.992 89.3183 314.712C89.4463 315.416 89.7023 315.992 90.0863 316.44C90.4863 316.872 91.0703 317.088 91.8383 317.088C92.6063 317.088 93.1823 316.872 93.5663 316.44C93.9663 315.992 94.2303 315.416 94.3583 314.712C94.4863 313.992 94.5503 313.088 94.5503 312ZM100.918 312C100.918 309.248 101.446 307.08 102.502 305.496C103.574 303.912 105.294 303.12 107.662 303.12C110.03 303.12 111.742 303.912 112.798 305.496C113.87 307.08 114.406 309.248 114.406 312C114.406 314.784 113.87 316.968 112.798 318.552C111.742 320.136 110.03 320.928 107.662 320.928C105.294 320.928 103.574 320.136 102.502 318.552C101.446 316.968 100.918 314.784 100.918 312ZM110.374 312C110.374 310.384 110.198 309.144 109.846 308.28C109.494 307.4 108.766 306.96 107.662 306.96C106.558 306.96 105.83 307.4 105.478 308.28C105.126 309.144 104.95 310.384 104.95 312C104.95 313.088 105.014 313.992 105.142 314.712C105.27 315.416 105.526 315.992 105.91 316.44C106.31 316.872 106.894 317.088 107.662 317.088C108.43 317.088 109.006 316.872 109.39 316.44C109.79 315.992 110.054 315.416 110.182 314.712C110.31 313.992 110.374 313.088 110.374 312Z" fill="white"/>
<defs>
<radialGradient id="paint0_radial_45_13909" cx="0" cy="0" r="1" gradientUnits="userSpaceOnUse" gradientTransform="translate(87.3327 347.167) rotate(90) scale(11.8333 35.6667)">
<stop/>
<stop offset="1" stop-opacity="0"/>
</radialGradient>
<linearGradient id="paint1_linear_45_13909" x1="86.8347" y1="292.667" x2="86.8347" y2="332.333" gradientUnits="userSpaceOnUse">
<stop stop-color="#B8B8B8"/>
<stop offset="1" stop-color="#D4D4D4"/>
</linearGradient>
<linearGradient id="paint2_linear_45_13909" x1="87.2709" y1="295.177" x2="87.2709" y2="329.489" gradientUnits="userSpaceOnUse">
<stop stop-color="#B7B7B7"/>
<stop offset="1" stop-color="#D6D6D6"/>
</linearGradient>
<radialGradient id="paint3_radial_45_13909" cx="0" cy="0" r="1" gradientUnits="userSpaceOnUse" gradientTransform="translate(224.333 276.167) rotate(90) scale(11.8333 35.6667)">
<stop/>
<stop offset="1" stop-opacity="0"/>
</radialGradient>
<linearGradient id="paint4_linear_45_13909" x1="223.835" y1="221.667" x2="223.835" y2="261.333" gradientUnits="userSpaceOnUse">
<stop stop-color="#B8B8B8"/>
<stop offset="1" stop-color="#D4D4D4"/>
</linearGradient>
<linearGradient id="paint5_linear_45_13909" x1="224.271" y1="224.177" x2="224.271" y2="258.489" gradientUnits="userSpaceOnUse">
<stop stop-color="#B7B7B7"/>
<stop offset="1" stop-color="#D6D6D6"/>
</linearGradient>
<radialGradient id="paint6_radial_45_13909" cx="0" cy="0" r="1" gradientUnits="userSpaceOnUse" gradientTransform="translate(87.3327 199.167) rotate(90) scale(11.8333 35.6667)">
<stop/>
<stop offset="1" stop-opacity="0"/>
</radialGradient>
<linearGradient id="paint7_linear_45_13909" x1="86.8347" y1="144.667" x2="86.8347" y2="184.333" gradientUnits="userSpaceOnUse">
<stop stop-color="#B8B8B8"/>
<stop offset="1" stop-color="#D4D4D4"/>
</linearGradient>
<linearGradient id="paint8_linear_45_13909" x1="87.2709" y1="147.177" x2="87.2709" y2="181.489" gradientUnits="userSpaceOnUse">
<stop stop-color="#B7B7B7"/>
<stop offset="1" stop-color="#D6D6D6"/>
</linearGradient>
<radialGradient id="paint9_radial_45_13909" cx="0" cy="0" r="1" gradientUnits="userSpaceOnUse" gradientTransform="translate(224.333 131.167) rotate(90) scale(11.8333 35.6667)">
<stop/>
<stop offset="1" stop-opacity="0"/>
</radialGradient>
<linearGradient id="paint10_linear_45_13909" x1="223.835" y1="76.6665" x2="223.835" y2="116.333" gradientUnits="userSpaceOnUse">
<stop stop-color="#B8B8B8"/>
<stop offset="1" stop-color="#D4D4D4"/>
</linearGradient>
<linearGradient id="paint11_linear_45_13909" x1="224.271" y1="79.1763" x2="224.271" y2="113.489" gradientUnits="userSpaceOnUse">
<stop stop-color="#B7B7B7"/>
<stop offset="1" stop-color="#D6D6D6"/>
</linearGradient>
<radialGradient id="paint12_radial_45_13909" cx="0" cy="0" r="1" gradientUnits="userSpaceOnUse" gradientTransform="translate(85.9987 69.1663) rotate(90) scale(11.8333 35.6667)">
<stop/>
<stop offset="1" stop-opacity="0"/>
</radialGradient>
<linearGradient id="paint13_linear_45_13909" x1="85.5007" y1="14.6665" x2="85.5007" y2="54.3332" gradientUnits="userSpaceOnUse">
<stop stop-color="#EAAC19"/>
<stop offset="1" stop-color="#FFDD40"/>
</linearGradient>
</defs>
</svg>
