<svg width="375" height="379" viewBox="0 0 375 379" fill="none" xmlns="http://www.w3.org/2000/svg">
<path d="M105.801 58.6001C105.801 58.6001 127.501 89.1001 168.101 96.1001" stroke="white" stroke-width="2" stroke-dasharray="10 10"/>
<path d="M133.701 88.2L147.501 91.1L138.501 80L139.301 86.3L133.701 88.2Z" fill="white"/>
<path d="M257.101 120.5C257.101 120.5 326.801 139.4 194.801 169.7" stroke="white" stroke-width="2" stroke-dasharray="10 10"/>
<path d="M246.702 160.4L232.602 160.8L243.402 151.4L241.502 157.5L246.702 160.4Z" fill="white"/>
<path d="M254.5 274.8C254.5 274.8 357.8 298.5 195.1 320.6" stroke="white" stroke-width="2" stroke-dasharray="10 10"/>
<path d="M268.7 307.4L254.6 307.7L265.4 301.4L263.5 305.4L268.7 307.4Z" fill="white"/>
<path d="M91.6004 211.2C91.6004 211.2 67.1004 240.9 169.3 255.2" stroke="white" stroke-width="2" stroke-dasharray="10 10"/>
<path d="M109.5 245.3L123.5 246L112.9 236.4L114.7 242.5L109.5 245.3Z" fill="white"/>
<path d="M175.667 295.333H44.3333C37.5218 295.333 32 300.855 32 307.666V317.333C32 324.145 37.5218 329.666 44.3333 329.666H175.667C182.478 329.666 188 324.145 188 317.333V307.666C188 300.855 182.478 295.333 175.667 295.333Z" fill="white"/>
<path d="M173.667 308.333V309.833H169.334V312H171.334C172.334 312 173.667 313 173.834 314V316.333C173.834 317.333 172.834 318.567 171.501 318.833C169.001 319.333 167.714 318.56 166.834 316.667L168.667 316.167C169.403 317.458 170.575 317.758 171.834 316.667C172.399 316.177 172.587 314.841 171.834 314C171.167 313.167 169.294 313.064 167.667 313.833V308.333H173.667Z" fill="#333333" stroke="#333333" stroke-width="0.333333"/>
<path d="M136.334 318.167V309H140.334C145.667 309.5 145.501 317.667 140.167 318.167H136.334Z" stroke="#333333" stroke-width="1.6"/>
<path d="M147.667 312.82C150.232 311.754 151.172 312.015 151.912 313.437C152.096 313.792 152.167 314.193 152.167 314.592V315.404M152.167 315.404C150.367 314.843 149.213 314.758 148.256 315.213C146.987 315.816 147.038 317.887 148.401 318.228C149.378 318.473 150.491 318.02 152.167 316.82M152.167 315.404V316.82M152.167 318.82V316.82" stroke="#333333" stroke-width="1.6"/>
<path d="M156.667 322.333H154.5H154.333V320.833H156C156.61 320.246 156.852 319.765 157.167 318.667L154 311.667H155.833L158.167 316.667L159.833 311.667H161.667L158.333 320C157.786 321.228 157.417 321.753 156.667 322.333Z" fill="#333333" stroke="#333333" stroke-width="0.333333"/>
<path d="M87.3327 359C107.031 359 122.999 353.702 122.999 347.167C122.999 340.631 107.031 335.333 87.3327 335.333C67.6345 335.333 51.666 340.631 51.666 347.167C51.666 353.702 67.6345 359 87.3327 359Z" fill="url(#paint0_radial_45_14179)"/>
<path d="M51.769 326.538L51.5 318.333C56.5484 327.802 60.8386 331.065 69.8333 335V347C60.5154 342.679 55.6572 339.549 52.4401 330.367C52.0093 329.138 51.8117 327.841 51.769 326.538Z" fill="#838383" stroke="#838383" stroke-width="0.333333"/>
<path d="M122.565 326.705L122.834 318.5C117.786 327.969 113.829 331.065 104.834 335V347C114.151 342.68 118.715 339.696 121.897 330.535C122.324 329.304 122.522 328.007 122.565 326.705Z" fill="#838383" stroke="#838383" stroke-width="0.333333"/>
<path d="M104.667 335C90.6221 339.393 82.9793 339.34 70 335V347C83.4502 351.045 91.0385 351.139 104.667 347V335Z" fill="#636363" stroke="#636363" stroke-width="0.333333"/>
<path d="M51 327.5V315.333L51.5 317.333L51.8333 327.833C54.1667 337.667 59.5 342.833 70 347C80.2571 350.249 85.8164 350.558 95.5 349.333C102.988 347.955 107.164 346.509 114.5 341.667C119 338 122.129 332 122.5 327.5L122.833 317L123.5 315.333L123.167 329.167C120.478 336.948 118.113 340.839 110.667 346C101.401 350.632 95.7084 351.672 85 351.833C75.7579 351.101 70.5398 349.96 61 343.833C55.087 338.715 52.3578 335.475 51 327.5Z" fill="#636363" stroke="#636363" stroke-width="0.333333"/>
<path d="M123.834 311.667C123.834 319.056 119.748 325.761 113.114 330.624C106.48 335.487 97.3067 338.5 87.1671 338.5C77.0276 338.5 67.8546 335.487 61.2206 330.624C54.5864 325.761 50.5005 319.056 50.5005 311.667C50.5005 304.277 54.5864 297.572 61.2206 292.709C67.8546 287.846 77.0276 284.833 87.1671 284.833C97.3067 284.833 106.48 287.846 113.114 292.709C119.748 297.572 123.834 304.277 123.834 311.667Z" fill="#E8E8E8" stroke="#E8E8E8" stroke-width="0.333333"/>
<path d="M87.1673 337C106.957 337 123.001 325.658 123.001 311.667C123.001 297.676 106.957 286.333 87.1673 286.333C67.3771 286.333 51.334 297.676 51.334 311.667C51.334 325.658 67.3771 337 87.1673 337Z" fill="#D6D6D6"/>
<path d="M86.8347 332.333C102.943 332.333 116.001 323.453 116.001 312.5C116.001 301.546 102.943 292.667 86.8347 292.667C70.7263 292.667 57.668 301.546 57.668 312.5C57.668 323.453 70.7263 332.333 86.8347 332.333Z" fill="url(#paint1_linear_45_14179)"/>
<path d="M64.167 300.333C57.8332 305.5 56.6668 314.166 59.8337 320.333C58.4938 318.28 57.7851 316.954 56.8331 313.166C56.4236 308.366 57.181 305.663 60.1665 300.833C64.3047 296.137 66.8919 294.183 71.9998 292.166C79.1334 289.722 83.2647 289.057 90.8331 289.333C96.7606 290.104 100.275 291.198 107 294.5C113.374 299.121 114.92 302.076 116.833 307.5C117.609 310.891 117.626 312.688 116.666 315.666L114.166 320.333C115.729 317.023 116.169 315.414 116 313C115.166 307.166 113.7 303.496 108.166 299.166C103.764 295.728 100.792 294.262 93.8331 293.166C89.1079 292.565 86.3501 292.397 80.8332 293C73.8876 293.892 70.229 295.394 64.167 300.333Z" fill="#868686" stroke="#868686" stroke-width="0.333333"/>
<path d="M64.0013 326C60.9277 323.351 59.4459 321.548 57.668 317.167L59.5013 320.333C62.0454 323.903 63.3664 325.004 65.668 326.5C70.796 329.71 74.1508 331.037 81.168 332.333C89.7504 333.197 94.3702 332.558 102.335 329.667C106.674 327.87 109.004 326.413 112.835 322.5C114.261 320.76 114.914 319.72 116.001 317.833C114.938 320.076 114.355 321.051 113.335 322.5C109.016 327.24 106.194 329.43 100.001 332C94.3725 333.815 90.9993 334.349 84.5013 334.167C76.6652 333.359 69.168 330.833 64.0013 326Z" fill="white" stroke="white" stroke-width="0.333333"/>
<path d="M86.834 340.333C87.6624 340.333 88.334 339.512 88.334 338.5C88.334 337.487 87.6624 336.667 86.834 336.667C86.0056 336.667 85.334 337.487 85.334 338.5C85.334 339.512 86.0056 340.333 86.834 340.333Z" fill="white"/>
<path d="M87.334 287.666C87.8863 287.666 88.334 286.845 88.334 285.833C88.334 284.82 87.8863 284 87.334 284C86.7817 284 86.334 284.82 86.334 285.833C86.334 286.845 86.7817 287.666 87.334 287.666Z" fill="white"/>
<path d="M102.41 295.177H71.9664C64.3133 299.485 61.2612 302.334 58.8469 308.464C57.561 314.76 58.3593 317.194 60.1925 321.247C63.9607 325.489 66.3519 327.227 70.9572 329.489H103.251L107.624 327.302C115.382 321.868 117.354 318.017 115.866 309.473C114.857 303.923 110.405 299.109 102.41 295.177Z" fill="url(#paint2_linear_45_14179)"/>
<path d="M51.4453 318.052C53.7148 323.658 55.7158 325.861 59.5188 329.489H51.9499L51.4453 327.807V318.052Z" fill="#8A8A8A" stroke="#8A8A8A" stroke-width="0.333333"/>
<path d="M50.9997 327.5L50.7734 314.183L51.4462 318.051L51.4997 327.5L52.1663 329.5H51.333L50.9997 327.5Z" fill="#707070" stroke="#707070" stroke-width="0.333333"/>
<path d="M60.1918 295.177H57.6688C53.8988 299.455 52.5763 301.689 51.4455 305.437C50.6551 308.375 50.1645 311.149 50.666 314.333C51.7283 321.072 54.0813 324.172 59.666 329.489H62.042C60.9713 328.837 60.3688 328.458 59.1827 327.302C52.4137 320.244 49.9318 313.174 52.4546 305.437C54.4102 301.126 56.0484 298.865 60.1918 295.177Z" fill="#E8E8E8" stroke="#E8E8E8" stroke-width="0.333333"/>
<path d="M66.0828 295.177H60.1959C53.6329 300.895 50.6696 306.842 51.7845 313.847C52.6255 320.406 58.3443 327.471 62.0446 329.489H68.6043C61.0354 324.443 57.3541 319.844 56.8319 313.342C56.4737 305.472 58.4491 301.484 66.0828 295.177Z" fill="#D6D6D6" stroke="#D6D6D6" stroke-width="0.333333"/>
<path d="M72.1333 295.177H66.0782C63.5455 297.33 62.4275 298.481 60.6972 300.391C57.7434 304.116 56.8038 306.573 56.8286 311.828C57.221 315.614 58.1398 317.605 60.1922 321.079C58.7224 318.031 58.1717 316.333 58.1729 313.342C58.3481 305.453 62.2106 300.391 72.1333 295.177Z" fill="#868686" stroke="#868686" stroke-width="0.333333"/>
<path d="M71.499 329.667L68.9377 329.489C65.0043 327.145 63.0586 325.471 59.8324 321.333C58.3274 318.729 57.7451 317.471 57.332 315.192C58.0269 317.557 58.6692 318.943 59.999 321.167C64.0423 325.736 66.7425 327.66 71.499 329.667Z" fill="white" stroke="white" stroke-width="0.333333"/>
<path d="M123.098 318.052C120.828 323.658 118.827 325.861 115.024 329.489H122.593L123.098 327.807V318.052Z" fill="#868686" stroke="#868686" stroke-width="0.333333"/>
<path d="M123.166 328L123.77 314.183L122.832 318.167L122.499 327.833L122.166 329.5H123.097L123.166 328Z" fill="#707070" stroke="#707070" stroke-width="0.333333"/>
<path d="M114.351 295.177H116.874C120.644 299.455 121.966 301.689 123.097 305.437C123.888 308.375 124.003 310.37 123.77 314.351C122.708 321.09 120.44 324.341 114.855 329.657L112.501 329.489C113.571 328.837 114.174 328.458 115.36 327.302C122.129 320.244 124.611 313.174 122.088 305.437C120.132 301.126 118.494 298.865 114.351 295.177Z" fill="#E8E8E8" stroke="#E8E8E8" stroke-width="0.333333"/>
<path d="M108.46 295.177H114.347C120.91 300.895 123.873 306.842 122.758 313.847C121.917 320.406 116.199 327.471 112.498 329.489H105.939C113.508 324.443 117.189 319.844 117.711 313.342C118.069 305.472 116.094 301.484 108.46 295.177Z" fill="#D6D6D6" stroke="#D6D6D6" stroke-width="0.333333"/>
<path d="M102.41 295.177H108.465C110.997 297.33 112.115 298.481 113.846 300.391C116.8 304.116 117.739 306.573 117.714 311.828C117.322 315.614 116.403 317.605 114.351 321.079C115.821 318.031 116.371 316.333 116.37 313.342C116.195 305.453 112.332 300.391 102.41 295.177Z" fill="#868686" stroke="#868686" stroke-width="0.333333"/>
<path d="M103.25 329.489H105.605C109.539 327.145 111.63 325.553 114.856 321.415C116.361 318.811 116.798 317.471 117.211 315.192C116.516 317.557 115.85 318.855 114.52 321.079C110.476 325.648 108.007 327.483 103.25 329.489Z" fill="white" stroke="white" stroke-width="0.333333"/>
<path d="M312.667 224.333H181.333C174.522 224.333 169 229.855 169 236.666V246.333C169 253.145 174.522 258.666 181.333 258.666H312.667C319.478 258.666 325 253.145 325 246.333V236.666C325 229.855 319.478 224.333 312.667 224.333Z" fill="#BD3161"/>
<path d="M273.334 247.167V238H277.334C282.667 238.5 282.501 246.667 277.167 247.167H273.334Z" stroke="white" stroke-width="1.6"/>
<path d="M284.667 241.82C287.232 240.754 288.172 241.015 288.912 242.438C289.096 242.792 289.167 243.193 289.167 243.592V244.404M289.167 244.404C287.367 243.844 286.213 243.758 285.256 244.214C283.987 244.817 284.038 246.887 285.401 247.229C286.378 247.474 287.491 247.02 289.167 245.82M289.167 244.404V245.82M289.167 247.82V245.82" stroke="white" stroke-width="1.6"/>
<path d="M293.667 251.333H291.5H291.333V249.833H293C293.61 249.246 293.852 248.765 294.167 247.667L291 240.667H292.833L295.167 245.667L296.833 240.667H298.667L295.333 249C294.786 250.228 294.417 250.753 293.667 251.333Z" fill="white" stroke="white" stroke-width="0.333333"/>
<path d="M224.333 288C244.031 288 260 282.702 260 276.167C260 269.631 244.031 264.333 224.333 264.333C204.635 264.333 188.667 269.631 188.667 276.167C188.667 282.702 204.635 288 224.333 288Z" fill="url(#paint3_radial_45_14179)"/>
<path d="M175.667 147.333H44.3333C37.5218 147.333 32 152.855 32 159.666V169.333C32 176.145 37.5218 181.666 44.3333 181.666H175.667C182.478 181.666 188 176.145 188 169.333V159.666C188 152.855 182.478 147.333 175.667 147.333Z" fill="#BD3161"/>
<path d="M136.334 170.167V161H140.334C145.667 161.5 145.501 169.667 140.167 170.167H136.334Z" stroke="white" stroke-width="1.6"/>
<path d="M147.667 164.82C150.232 163.754 151.172 164.015 151.912 165.438C152.096 165.792 152.167 166.193 152.167 166.592V167.404M152.167 167.404C150.367 166.844 149.213 166.758 148.256 167.214C146.987 167.817 147.038 169.887 148.401 170.229C149.378 170.474 150.491 170.02 152.167 168.82M152.167 167.404V168.82M152.167 170.82V168.82" stroke="white" stroke-width="1.6"/>
<path d="M156.667 174.333H154.5H154.333V172.833H156C156.61 172.246 156.852 171.765 157.167 170.667L154 163.667H155.833L158.167 168.667L159.833 163.667H161.667L158.333 172C157.786 173.228 157.417 173.753 156.667 174.333Z" fill="white" stroke="white" stroke-width="0.333333"/>
<path d="M87.3327 211C107.031 211 122.999 205.702 122.999 199.167C122.999 192.631 107.031 187.333 87.3327 187.333C67.6345 187.333 51.666 192.631 51.666 199.167C51.666 205.702 67.6345 211 87.3327 211Z" fill="url(#paint4_radial_45_14179)"/>
<path d="M175.667 21.6665H44.3333C37.5218 21.6665 32 27.1883 32 33.9998V43.3332C32 50.1447 37.5218 55.6665 44.3333 55.6665H175.667C182.478 55.6665 188 50.1447 188 43.3332V33.9998C188 27.1883 182.478 21.6665 175.667 21.6665Z" fill="#BD3161"/>
<path d="M134.666 44.1667V35H138.666C143.999 35.5 143.833 43.6667 138.499 44.1667H134.666Z" stroke="white" stroke-width="1.6"/>
<path d="M145.999 38.8202C148.564 37.7537 149.504 38.015 150.244 39.4374C150.428 39.7917 150.499 40.1926 150.499 40.5919V41.4035M150.499 41.4035C148.699 40.8433 147.546 40.758 146.588 41.2134C145.319 41.8164 145.37 43.8868 146.733 44.2284C147.71 44.4734 148.823 44.0202 150.499 42.8202M150.499 41.4035V42.8202M150.499 44.8202V42.8202" stroke="white" stroke-width="1.6"/>
<path d="M154.999 48.3332H152.832H152.665V46.8332H154.332C154.942 46.2456 155.184 45.7647 155.499 44.6665L152.332 37.6665H154.165L156.499 42.6665L158.165 37.6665H159.999L156.665 45.9999C156.118 47.2277 155.749 47.7532 154.999 48.3332Z" fill="white" stroke="white" stroke-width="0.333333"/>
<path d="M85.9987 80.9996C105.697 80.9996 121.665 75.7017 121.665 69.1663C121.665 62.631 105.697 57.333 85.9987 57.333C66.3006 57.333 50.332 62.631 50.332 69.1663C50.332 75.7017 66.3006 80.9996 85.9987 80.9996Z" fill="url(#paint5_radial_45_14179)"/>
<path d="M50.435 48.5381L50.166 40.333C55.2145 49.8016 59.5046 53.0643 68.4993 56.9997V68.9997C59.1814 64.6791 54.3232 61.5483 51.1061 52.3669C50.6753 51.1373 50.4777 49.8403 50.435 48.5381Z" fill="#C57509" stroke="#C57509" stroke-width="0.333333"/>
<path d="M121.231 48.7051L121.5 40.5C116.452 49.9686 112.495 53.0646 103.5 57V69C112.817 64.6799 117.381 61.6961 120.563 52.5347C120.99 51.304 121.188 50.0073 121.231 48.7051Z" fill="#C57509" stroke="#C57509" stroke-width="0.333333"/>
<path d="M103.333 57C89.2881 61.3933 81.6453 61.3402 68.666 57V69C82.1163 73.0449 89.7045 73.1392 103.333 69V57Z" fill="#9B4C01" stroke="#9B4C01" stroke-width="0.333333"/>
<path d="M49.666 49.5001V37.3335L50.166 39.3335L50.4993 49.8335C52.8327 59.6668 58.166 64.8335 68.666 69.0001C78.9231 72.2489 84.4825 72.5584 94.166 71.3335C101.654 69.9553 105.83 68.5089 113.166 63.6668C117.666 60.0001 120.795 54.0001 121.166 49.5001L121.499 39.0001L122.166 37.3335L121.833 51.1668C119.144 58.9477 116.779 62.839 109.333 68.0001C100.067 72.6325 94.3744 73.6724 83.666 73.8335C74.424 73.1017 69.2059 71.9602 59.666 65.8335C53.7531 60.7155 51.0238 57.4752 49.666 49.5001Z" fill="#AB6004" stroke="#AB6004" stroke-width="0.333333"/>
<path d="M122.5 33.6663C122.5 41.0563 118.414 47.7607 111.78 52.6238C105.146 57.4867 95.9727 60.4996 85.8331 60.4996C75.6936 60.4996 66.5206 57.4867 59.8866 52.6238C53.2524 47.7607 49.1665 41.0563 49.1665 33.6663C49.1665 26.2763 53.2524 19.5719 59.8866 14.7088C66.5206 9.8459 75.6936 6.83301 85.8331 6.83301C95.9727 6.83301 105.146 9.8459 111.78 14.7088C118.414 19.5719 122.5 26.2763 122.5 33.6663Z" fill="#FFED8B" stroke="#FFED8B" stroke-width="0.333333"/>
<path d="M85.8333 59.0001C105.623 59.0001 121.667 47.658 121.667 33.6668C121.667 19.6756 105.623 8.3335 85.8333 8.3335C66.0431 8.3335 50 19.6756 50 33.6668C50 47.658 66.0431 59.0001 85.8333 59.0001Z" fill="#FFDD40"/>
<path d="M85.5007 54.3331C101.609 54.3331 114.667 45.4534 114.667 34.4998C114.667 23.5462 101.609 14.6665 85.5007 14.6665C69.3924 14.6665 56.334 23.5462 56.334 34.4998C56.334 45.4534 69.3924 54.3331 85.5007 54.3331Z" fill="url(#paint6_linear_45_14179)"/>
<path d="M62.833 22.3329C56.4992 27.4996 55.3328 36.1662 58.4997 42.3329C57.1598 40.2799 56.4511 38.9534 55.4992 35.1663C55.0896 30.3655 55.847 27.6625 58.8325 22.8329C62.9707 18.1364 65.5579 16.1829 70.6658 14.1663C77.7994 11.7216 81.9307 11.0564 89.4992 11.3329C95.4267 12.1039 98.941 13.1975 105.666 16.4996C112.04 21.1207 113.586 24.0761 115.499 29.4996C116.275 32.891 116.292 34.6874 115.333 37.6663L112.833 42.3329C114.395 39.023 114.835 37.4135 114.666 34.9996C113.833 29.1663 112.366 25.4955 106.833 21.1663C102.43 17.7278 99.4581 16.2617 92.4992 15.1662C87.7739 14.565 85.0161 14.397 79.4992 14.9996C72.5537 15.8916 68.895 17.3939 62.833 22.3329Z" fill="#CA7A11" stroke="#CA7A11" stroke-width="0.333333"/>
<path d="M62.6673 47.9998C59.5937 45.3506 58.1119 43.5475 56.334 39.1665L58.1673 42.3332C60.7114 45.9025 62.0325 47.0043 64.334 48.4998C69.462 51.7096 72.8168 53.0375 79.834 54.3332C88.4164 55.1974 93.0362 54.5583 101.001 51.6665C105.34 49.8704 107.67 48.4134 111.501 44.4998C112.927 42.7596 113.58 41.7199 114.667 39.8332C113.604 42.0755 113.021 43.0505 112.001 44.4998C107.682 49.2395 104.86 51.4305 98.6673 53.9998C93.0385 55.8149 89.6653 56.3493 83.1673 56.1665C75.3312 55.3592 67.834 52.8332 62.6673 47.9998Z" fill="white" stroke="white" stroke-width="0.333333"/>
<path d="M312.667 79.3335H181.333C174.522 79.3335 169 84.8553 169 91.6668V101.333C169 108.145 174.522 113.667 181.333 113.667H312.667C319.478 113.667 325 108.145 325 101.333V91.6668C325 84.8553 319.478 79.3335 312.667 79.3335Z" fill="#BD3161"/>
<path d="M273.334 102.167V93H277.334C282.667 93.5 282.501 101.667 277.167 102.167H273.334Z" stroke="white" stroke-width="1.6"/>
<path d="M284.667 96.8207C287.232 95.7542 288.172 96.0154 288.912 97.4379C289.096 97.7922 289.167 98.193 289.167 98.5923V99.404M289.167 99.404C287.367 98.8437 286.213 98.7584 285.256 99.2138C283.987 99.8168 284.038 101.887 285.401 102.229C286.378 102.474 287.491 102.02 289.167 100.82M289.167 99.404V100.82M289.167 102.82V100.82" stroke="white" stroke-width="1.6"/>
<path d="M293.667 106.333H291.5H291.333V104.833H293C293.61 104.246 293.852 103.765 294.167 102.667L291 95.6665H292.833L295.167 100.667L296.833 95.6665H298.667L295.333 104C294.786 105.228 294.417 105.753 293.667 106.333Z" fill="white" stroke="white" stroke-width="0.333333"/>
<path d="M224.333 143C244.031 143 260 137.702 260 131.167C260 124.631 244.031 119.333 224.333 119.333C204.635 119.333 188.667 124.631 188.667 131.167C188.667 137.702 204.635 143 224.333 143Z" fill="url(#paint7_radial_45_14179)"/>
<path d="M223.999 143.333C243.697 143.333 259.666 138.035 259.666 131.5C259.666 124.964 243.697 119.667 223.999 119.667C204.301 119.667 188.333 124.964 188.333 131.5C188.333 138.035 204.301 143.333 223.999 143.333Z" fill="url(#paint8_radial_45_14179)"/>
<path d="M188.435 110.872L188.166 102.667C193.214 112.135 197.505 115.398 206.499 119.333V131.333C197.181 127.013 192.323 123.882 189.106 114.7C188.675 113.471 188.478 112.174 188.435 110.872Z" fill="#C57509" stroke="#C57509" stroke-width="0.333333"/>
<path d="M259.231 111.039L259.5 102.833C254.452 112.302 250.495 115.398 241.5 119.333V131.333C250.817 127.013 255.381 124.03 258.563 114.868C258.99 113.637 259.188 112.341 259.231 111.039Z" fill="#C57509" stroke="#C57509" stroke-width="0.333333"/>
<path d="M241.333 119.333C227.288 123.727 219.645 123.674 206.666 119.333V131.333C220.116 135.378 227.704 135.473 241.333 131.333V119.333Z" fill="#9B4C01" stroke="#9B4C01" stroke-width="0.333333"/>
<path d="M187.666 111.833V99.6665L188.166 101.667L188.499 112.167C190.833 122 196.166 127.167 206.666 131.333C216.923 134.582 222.482 134.892 232.166 133.667C239.654 132.289 243.83 130.842 251.166 126C255.666 122.333 258.795 116.333 259.166 111.833L259.499 101.333L260.166 99.6665L259.833 113.5C257.144 121.281 254.779 125.172 247.333 130.333C238.067 134.966 232.374 136.006 221.666 136.167C212.424 135.435 207.206 134.293 197.666 128.167C191.753 123.049 189.024 119.809 187.666 111.833Z" fill="#AB6004" stroke="#AB6004" stroke-width="0.333333"/>
<path d="M260.5 95.9998C260.5 103.39 256.414 110.094 249.78 114.957C243.146 119.82 233.973 122.833 223.833 122.833C213.694 122.833 204.521 119.82 197.887 114.957C191.253 110.094 187.167 103.39 187.167 95.9998C187.167 88.6098 191.253 81.9054 197.887 77.0423C204.521 72.1794 213.694 69.1665 223.833 69.1665C233.973 69.1665 243.146 72.1794 249.78 77.0423C256.414 81.9054 260.5 88.6098 260.5 95.9998Z" fill="#FFED8B" stroke="#FFED8B" stroke-width="0.333333"/>
<path d="M223.833 121.334C243.623 121.334 259.666 109.991 259.666 96.0003C259.666 82.0091 243.623 70.667 223.833 70.667C204.043 70.667 188 82.0091 188 96.0003C188 109.991 204.043 121.334 223.833 121.334Z" fill="#FFDD40"/>
<path d="M223.501 116.667C239.609 116.667 252.668 107.787 252.668 96.8333C252.668 85.8797 239.609 77 223.501 77C207.393 77 194.334 85.8797 194.334 96.8333C194.334 107.787 207.393 116.667 223.501 116.667Z" fill="url(#paint9_linear_45_14179)"/>
<path d="M200.833 84.6664C194.499 89.833 193.333 98.4997 196.5 104.667C195.16 102.614 194.451 101.287 193.499 97.4998C193.09 92.699 193.847 89.996 196.832 85.1664C200.971 80.4699 203.558 78.5164 208.666 76.4998C215.799 74.0551 219.931 73.3899 227.499 73.6664C233.427 74.4374 236.941 75.531 243.666 78.8331C250.04 83.4541 251.586 86.4096 253.499 91.8331C254.275 95.2245 254.292 97.0209 253.333 99.9998L250.833 104.667C252.395 101.357 252.835 99.747 252.666 97.3331C251.833 91.4998 250.366 87.829 244.833 83.4998C240.43 80.0613 237.458 78.5952 230.499 77.4997C225.774 76.8985 223.016 76.7305 217.499 77.3331C210.554 78.2251 206.895 79.7274 200.833 84.6664Z" fill="#CA7A11" stroke="#CA7A11" stroke-width="0.333333"/>
<path d="M200.667 110.333C197.594 107.684 196.112 105.881 194.334 101.5L196.167 104.667C198.711 108.236 200.032 109.338 202.334 110.833C207.462 114.043 210.817 115.371 217.834 116.667C226.416 117.531 231.036 116.892 239.001 114C243.34 112.204 245.67 110.747 249.501 106.833C250.927 105.093 251.58 104.053 252.667 102.167C251.604 104.409 251.021 105.384 250.001 106.833C245.682 111.573 242.86 113.764 236.667 116.333C231.039 118.148 227.665 118.683 221.167 118.5C213.331 117.693 205.834 115.167 200.667 110.333Z" fill="white" stroke="white" stroke-width="0.333333"/>
<path d="M86.9987 211.333C106.697 211.333 122.665 206.035 122.665 199.5C122.665 192.964 106.697 187.667 86.9987 187.667C67.3006 187.667 51.332 192.964 51.332 199.5C51.332 206.035 67.3006 211.333 86.9987 211.333Z" fill="url(#paint10_radial_45_14179)"/>
<path d="M51.435 178.872L51.166 170.667C56.2145 180.135 60.5046 183.398 69.4993 187.333V199.333C60.1814 195.013 55.3232 191.882 52.1061 182.7C51.6753 181.471 51.4777 180.174 51.435 178.872Z" fill="#C57509" stroke="#C57509" stroke-width="0.333333"/>
<path d="M122.231 179.039L122.5 170.833C117.452 180.302 113.495 183.398 104.5 187.333V199.333C113.817 195.013 118.381 192.03 121.563 182.868C121.99 181.637 122.188 180.341 122.231 179.039Z" fill="#C57509" stroke="#C57509" stroke-width="0.333333"/>
<path d="M104.333 187.333C90.2881 191.727 82.6453 191.674 69.666 187.333V199.333C83.1163 203.378 90.7045 203.473 104.333 199.333V187.333Z" fill="#9B4C01" stroke="#9B4C01" stroke-width="0.333333"/>
<path d="M50.666 179.833V167.667L51.166 169.667L51.4993 180.167C53.8327 190 59.166 195.167 69.666 199.333C79.9231 202.582 85.4825 202.892 95.166 201.667C102.654 200.289 106.83 198.842 114.166 194C118.666 190.333 121.795 184.333 122.166 179.833L122.499 169.333L123.166 167.667L122.833 181.5C120.144 189.281 117.779 193.172 110.333 198.333C101.067 202.966 95.3744 204.006 84.666 204.167C75.424 203.435 70.2059 202.293 60.666 196.167C54.7531 191.049 52.0238 187.809 50.666 179.833Z" fill="#AB6004" stroke="#AB6004" stroke-width="0.333333"/>
<path d="M123.5 164C123.5 171.39 119.414 178.094 112.78 182.957C106.146 187.82 96.9727 190.833 86.8331 190.833C76.6936 190.833 67.5206 187.82 60.8866 182.957C54.2524 178.094 50.1665 171.39 50.1665 164C50.1665 156.61 54.2524 149.906 60.8866 145.043C67.5206 140.18 76.6936 137.167 86.8331 137.167C96.9727 137.167 106.146 140.18 112.78 145.043C119.414 149.906 123.5 156.61 123.5 164Z" fill="#FFED8B" stroke="#FFED8B" stroke-width="0.333333"/>
<path d="M86.8333 189.333C106.623 189.333 122.667 177.991 122.667 164C122.667 150.009 106.623 138.667 86.8333 138.667C67.0431 138.667 51 150.009 51 164C51 177.991 67.0431 189.333 86.8333 189.333Z" fill="#FFDD40"/>
<path d="M86.5007 184.666C102.609 184.666 115.667 175.786 115.667 164.833C115.667 153.879 102.609 145 86.5007 145C70.3924 145 57.334 153.879 57.334 164.833C57.334 175.786 70.3924 184.666 86.5007 184.666Z" fill="url(#paint11_linear_45_14179)"/>
<path d="M63.833 152.667C57.4992 157.833 56.3328 166.5 59.4997 172.667C58.1598 170.614 57.4511 169.287 56.4992 165.5C56.0896 160.699 56.847 157.996 59.8325 153.167C63.9707 148.47 66.5579 146.517 71.6658 144.5C78.7994 142.055 82.9307 141.39 90.4992 141.667C96.4267 142.438 99.941 143.531 106.666 146.833C113.04 151.454 114.586 154.41 116.499 159.833C117.275 163.225 117.292 165.021 116.333 168L113.833 172.667C115.395 169.357 115.835 167.747 115.666 165.333C114.833 159.5 113.366 155.829 107.833 151.5C103.43 148.061 100.458 146.595 93.4992 145.5C88.7739 144.899 86.0161 144.731 80.4992 145.333C73.5537 146.225 69.895 147.728 63.833 152.667Z" fill="#CA7A11" stroke="#CA7A11" stroke-width="0.333333"/>
<path d="M63.6673 178.333C60.5937 175.684 59.1119 173.881 57.334 169.5L59.1673 172.667C61.7114 176.236 63.0325 177.338 65.334 178.833C70.462 182.043 73.8168 183.371 80.834 184.667C89.4164 185.531 94.0362 184.892 102.001 182C106.34 180.204 108.67 178.747 112.501 174.833C113.927 173.093 114.58 172.053 115.667 170.167C114.604 172.409 114.021 173.384 113.001 174.833C108.682 179.573 105.86 181.764 99.6673 184.333C94.0385 186.148 90.6653 186.683 84.1673 186.5C76.3312 185.693 68.834 183.167 63.6673 178.333Z" fill="white" stroke="white" stroke-width="0.333333"/>
<path d="M223.999 288.333C243.697 288.333 259.666 283.035 259.666 276.5C259.666 269.964 243.697 264.667 223.999 264.667C204.301 264.667 188.333 269.964 188.333 276.5C188.333 283.035 204.301 288.333 223.999 288.333Z" fill="url(#paint12_radial_45_14179)"/>
<path d="M188.435 255.872L188.166 247.667C193.214 257.135 197.505 260.398 206.499 264.333V276.333C197.181 272.013 192.323 268.882 189.106 259.7C188.675 258.471 188.478 257.174 188.435 255.872Z" fill="#C57509" stroke="#C57509" stroke-width="0.333333"/>
<path d="M259.231 256.039L259.5 247.833C254.452 257.302 250.495 260.398 241.5 264.333V276.333C250.817 272.013 255.381 269.03 258.563 259.868C258.99 258.637 259.188 257.341 259.231 256.039Z" fill="#C57509" stroke="#C57509" stroke-width="0.333333"/>
<path d="M241.333 264.333C227.288 268.727 219.645 268.674 206.666 264.333V276.333C220.116 280.378 227.704 280.473 241.333 276.333V264.333Z" fill="#9B4C01" stroke="#9B4C01" stroke-width="0.333333"/>
<path d="M187.666 256.833V244.667L188.166 246.667L188.499 257.167C190.833 267 196.166 272.167 206.666 276.333C216.923 279.582 222.482 279.892 232.166 278.667C239.654 277.289 243.83 275.842 251.166 271C255.666 267.333 258.795 261.333 259.166 256.833L259.499 246.333L260.166 244.667L259.833 258.5C257.144 266.281 254.779 270.172 247.333 275.333C238.067 279.966 232.374 281.006 221.666 281.167C212.424 280.435 207.206 279.293 197.666 273.167C191.753 268.049 189.024 264.809 187.666 256.833Z" fill="#AB6004" stroke="#AB6004" stroke-width="0.333333"/>
<path d="M260.5 241C260.5 248.39 256.414 255.094 249.78 259.957C243.146 264.82 233.973 267.833 223.833 267.833C213.694 267.833 204.521 264.82 197.887 259.957C191.253 255.094 187.167 248.39 187.167 241C187.167 233.61 191.253 226.906 197.887 222.043C204.521 217.18 213.694 214.167 223.833 214.167C233.973 214.167 243.146 217.18 249.78 222.043C256.414 226.906 260.5 233.61 260.5 241Z" fill="#FFED8B" stroke="#FFED8B" stroke-width="0.333333"/>
<path d="M223.833 266.333C243.623 266.333 259.666 254.991 259.666 241C259.666 227.009 243.623 215.667 223.833 215.667C204.043 215.667 188 227.009 188 241C188 254.991 204.043 266.333 223.833 266.333Z" fill="#FFDD40"/>
<path d="M223.501 261.666C239.609 261.666 252.668 252.786 252.668 241.833C252.668 230.879 239.609 222 223.501 222C207.393 222 194.334 230.879 194.334 241.833C194.334 252.786 207.393 261.666 223.501 261.666Z" fill="url(#paint13_linear_45_14179)"/>
<path d="M200.833 229.667C194.499 234.833 193.333 243.5 196.5 249.667C195.16 247.614 194.451 246.287 193.499 242.5C193.09 237.699 193.847 234.996 196.832 230.167C200.971 225.47 203.558 223.517 208.666 221.5C215.799 219.055 219.931 218.39 227.499 218.667C233.427 219.438 236.941 220.531 243.666 223.833C250.04 228.454 251.586 231.41 253.499 236.833C254.275 240.225 254.292 242.021 253.333 245L250.833 249.667C252.395 246.357 252.835 244.747 252.666 242.333C251.833 236.5 250.366 232.829 244.833 228.5C240.43 225.061 237.458 223.595 230.499 222.5C225.774 221.899 223.016 221.731 217.499 222.333C210.554 223.225 206.895 224.728 200.833 229.667Z" fill="#CA7A11" stroke="#CA7A11" stroke-width="0.333333"/>
<path d="M200.667 255.333C197.594 252.684 196.112 250.881 194.334 246.5L196.167 249.667C198.711 253.236 200.032 254.338 202.334 255.833C207.462 259.043 210.817 260.371 217.834 261.667C226.416 262.531 231.036 261.892 239.001 259C243.34 257.204 245.67 255.747 249.501 251.833C250.927 250.093 251.58 249.053 252.667 247.167C251.604 249.409 251.021 250.384 250.001 251.833C245.682 256.573 242.86 258.764 236.667 261.333C231.039 263.148 227.665 263.683 221.167 263.5C213.331 262.693 205.834 260.167 200.667 255.333Z" fill="white" stroke="white" stroke-width="0.333333"/>
<path d="M85.5 62.3337C86.3284 62.3337 87 61.5128 87 60.5003C87 59.4878 86.3284 58.667 85.5 58.667C84.6716 58.667 84 59.4878 84 60.5003C84 61.5128 84.6716 62.3337 85.5 62.3337Z" fill="white"/>
<path d="M86 9.66666C86.5523 9.66666 87 8.84585 87 7.83333C87 6.82081 86.5523 6 86 6C85.4477 6 85 6.82081 85 7.83333C85 8.84585 85.4477 9.66666 86 9.66666Z" fill="white"/>
<path d="M164.68 38.6531L167.2 36.9388V46H170V34H167.2L163 37.4286L164.68 38.6531Z" fill="white"/>
<path d="M303.222 95.197H305.66C305.66 93.5419 307.211 92.8325 308.097 93.7783C308.435 94.1387 308.762 94.9606 308.097 95.9064L303 100.635V103H310.979V100.635H306.546C308.538 98.6976 310.954 96.6158 310.979 96.1428C311.012 95.4965 311.002 95.1341 310.979 94.4877C310.757 92.596 310.535 91.8867 308.762 91.1773C307.876 90.9409 307.211 90.9409 306.324 91.1773C304.551 91.6502 303.443 92.8325 303.222 95.197Z" fill="white"/>
<path d="M169.259 163.029H166.674C166.889 161.09 169.259 159.366 172.06 160.228C173.137 160.659 173.783 161.09 173.999 161.951V163.675C173.999 164.537 173.561 164.86 172.706 165.183C172.581 165.326 172.557 165.416 172.706 165.614C173.367 165.806 173.959 166.045 173.999 166.476C174.086 167.416 174.109 167.971 173.999 169.061C173.888 170.151 173.137 170.785 172.06 171H169.044C167.751 171 166.674 169.923 166.674 169.276V167.984H169.044C169.044 168.415 169.055 169.175 169.259 169.276C170.121 169.707 170.929 169.556 171.629 169.276C172.706 168.846 172.706 166.907 171.629 166.476H169.259V164.537C171.198 164.537 172.06 164.322 172.06 163.029C172.06 161.736 169.682 161.256 169.259 163.029Z" fill="white"/>
<path d="M307.88 237L302.6 244.44V246.36H308.12V249H310.28V246.36H312.2V244.44H310.52V237H307.88Z" fill="white"/>
<path d="M305.48 243.48L307.16 240.84H308.36V244.44H305.48V243.48Z" fill="#BD3161"/>
<path d="M223.834 124.333C224.662 124.333 225.334 123.512 225.334 122.5C225.334 121.487 224.662 120.667 223.834 120.667C223.006 120.667 222.334 121.487 222.334 122.5C222.334 123.512 223.006 124.333 223.834 124.333Z" fill="white"/>
<path d="M224.334 71.6667C224.886 71.6667 225.334 70.8458 225.334 69.8333C225.334 68.8208 224.886 68 224.334 68C223.782 68 223.334 68.8208 223.334 69.8333C223.334 70.8458 223.782 71.6667 224.334 71.6667Z" fill="white"/>
<path d="M86.834 192.333C87.6624 192.333 88.334 191.512 88.334 190.5C88.334 189.487 87.6624 188.667 86.834 188.667C86.0056 188.667 85.334 189.487 85.334 190.5C85.334 191.512 86.0056 192.333 86.834 192.333Z" fill="white"/>
<path d="M87.334 139.666C87.8863 139.666 88.334 138.845 88.334 137.833C88.334 136.82 87.8863 136 87.334 136C86.7817 136 86.334 136.82 86.334 137.833C86.334 138.845 86.7817 139.666 87.334 139.666Z" fill="white"/>
<path d="M223.834 269.333C224.662 269.333 225.334 268.512 225.334 267.5C225.334 266.487 224.662 265.667 223.834 265.667C223.006 265.667 222.334 266.487 222.334 267.5C222.334 268.512 223.006 269.333 223.834 269.333Z" fill="white"/>
<path d="M224.334 216.666C224.886 216.666 225.334 215.845 225.334 214.833C225.334 213.82 224.886 213 224.334 213C223.782 213 223.334 213.82 223.334 214.833C223.334 215.845 223.782 216.666 224.334 216.666Z" fill="white"/>
<path d="M63.648 28.296V24.48H70.296V42H66.024V28.296H63.648ZM73.2707 33C73.2707 30.248 73.7987 28.08 74.8547 26.496C75.9267 24.912 77.6467 24.12 80.0147 24.12C82.3827 24.12 84.0947 24.912 85.1507 26.496C86.2227 28.08 86.7587 30.248 86.7587 33C86.7587 35.784 86.2227 37.968 85.1507 39.552C84.0947 41.136 82.3827 41.928 80.0147 41.928C77.6467 41.928 75.9267 41.136 74.8547 39.552C73.7987 37.968 73.2707 35.784 73.2707 33ZM82.7267 33C82.7267 31.384 82.5507 30.144 82.1987 29.28C81.8467 28.4 81.1187 27.96 80.0147 27.96C78.9107 27.96 78.1827 28.4 77.8307 29.28C77.4787 30.144 77.3027 31.384 77.3027 33C77.3027 34.088 77.3667 34.992 77.4947 35.712C77.6227 36.416 77.8787 36.992 78.2627 37.44C78.6627 37.872 79.2467 38.088 80.0147 38.088C80.7827 38.088 81.3587 37.872 81.7427 37.44C82.1427 36.992 82.4067 36.416 82.5347 35.712C82.6627 34.992 82.7267 34.088 82.7267 33ZM89.0943 33C89.0943 30.248 89.6223 28.08 90.6783 26.496C91.7503 24.912 93.4703 24.12 95.8383 24.12C98.2063 24.12 99.9183 24.912 100.974 26.496C102.046 28.08 102.582 30.248 102.582 33C102.582 35.784 102.046 37.968 100.974 39.552C99.9183 41.136 98.2063 41.928 95.8383 41.928C93.4703 41.928 91.7503 41.136 90.6783 39.552C89.6223 37.968 89.0943 35.784 89.0943 33ZM98.5503 33C98.5503 31.384 98.3743 30.144 98.0223 29.28C97.6703 28.4 96.9423 27.96 95.8383 27.96C94.7343 27.96 94.0063 28.4 93.6543 29.28C93.3023 30.144 93.1263 31.384 93.1263 33C93.1263 34.088 93.1903 34.992 93.3183 35.712C93.4463 36.416 93.7023 36.992 94.0863 37.44C94.4863 37.872 95.0703 38.088 95.8383 38.088C96.6063 38.088 97.1823 37.872 97.5663 37.44C97.9663 36.992 98.2303 36.416 98.3583 35.712C98.4863 34.992 98.5503 34.088 98.5503 33Z" fill="white"/>
<path d="M200.224 92.424C200.288 90.712 200.848 89.392 201.904 88.464C202.96 87.536 204.392 87.072 206.2 87.072C207.4 87.072 208.424 87.28 209.272 87.696C210.136 88.112 210.784 88.68 211.216 89.4C211.664 90.12 211.888 90.928 211.888 91.824C211.888 92.88 211.624 93.744 211.096 94.416C210.568 95.072 209.952 95.52 209.248 95.76V95.856C210.16 96.16 210.88 96.664 211.408 97.368C211.936 98.072 212.2 98.976 212.2 100.08C212.2 101.072 211.968 101.952 211.504 102.72C211.056 103.472 210.392 104.064 209.512 104.496C208.648 104.928 207.616 105.144 206.416 105.144C204.496 105.144 202.96 104.672 201.808 103.728C200.672 102.784 200.072 101.36 200.008 99.456H203.992C204.008 100.16 204.208 100.72 204.592 101.136C204.976 101.536 205.536 101.736 206.272 101.736C206.896 101.736 207.376 101.56 207.712 101.208C208.064 100.84 208.24 100.36 208.24 99.768C208.24 99 207.992 98.448 207.496 98.112C207.016 97.76 206.24 97.584 205.168 97.584H204.4V94.248H205.168C205.984 94.248 206.64 94.112 207.136 93.84C207.648 93.552 207.904 93.048 207.904 92.328C207.904 91.752 207.744 91.304 207.424 90.984C207.104 90.664 206.664 90.504 206.104 90.504C205.496 90.504 205.04 90.688 204.736 91.056C204.448 91.424 204.28 91.88 204.232 92.424H200.224ZM214.779 96C214.779 93.248 215.307 91.08 216.363 89.496C217.435 87.912 219.155 87.12 221.523 87.12C223.891 87.12 225.603 87.912 226.659 89.496C227.731 91.08 228.267 93.248 228.267 96C228.267 98.784 227.731 100.968 226.659 102.552C225.603 104.136 223.891 104.928 221.523 104.928C219.155 104.928 217.435 104.136 216.363 102.552C215.307 100.968 214.779 98.784 214.779 96ZM224.235 96C224.235 94.384 224.059 93.144 223.707 92.28C223.355 91.4 222.627 90.96 221.523 90.96C220.419 90.96 219.691 91.4 219.339 92.28C218.987 93.144 218.811 94.384 218.811 96C218.811 97.088 218.875 97.992 219.003 98.712C219.131 99.416 219.387 99.992 219.771 100.44C220.171 100.872 220.755 101.088 221.523 101.088C222.291 101.088 222.867 100.872 223.251 100.44C223.651 99.992 223.915 99.416 224.043 98.712C224.171 97.992 224.235 97.088 224.235 96ZM230.602 96C230.602 93.248 231.13 91.08 232.186 89.496C233.258 87.912 234.978 87.12 237.346 87.12C239.714 87.12 241.426 87.912 242.482 89.496C243.554 91.08 244.09 93.248 244.09 96C244.09 98.784 243.554 100.968 242.482 102.552C241.426 104.136 239.714 104.928 237.346 104.928C234.978 104.928 233.258 104.136 232.186 102.552C231.13 100.968 230.602 98.784 230.602 96ZM240.058 96C240.058 94.384 239.882 93.144 239.53 92.28C239.178 91.4 238.45 90.96 237.346 90.96C236.242 90.96 235.514 91.4 235.162 92.28C234.81 93.144 234.634 94.384 234.634 96C234.634 97.088 234.698 97.992 234.826 98.712C234.954 99.416 235.21 99.992 235.594 100.44C235.994 100.872 236.578 101.088 237.346 101.088C238.114 101.088 238.69 100.872 239.074 100.44C239.474 99.992 239.738 99.416 239.866 98.712C239.994 97.992 240.058 97.088 240.058 96Z" fill="white"/>
<path d="M62.224 160.424C62.288 158.712 62.848 157.392 63.904 156.464C64.96 155.536 66.392 155.072 68.2 155.072C69.4 155.072 70.424 155.28 71.272 155.696C72.136 156.112 72.784 156.68 73.216 157.4C73.664 158.12 73.888 158.928 73.888 159.824C73.888 160.88 73.624 161.744 73.096 162.416C72.568 163.072 71.952 163.52 71.248 163.76V163.856C72.16 164.16 72.88 164.664 73.408 165.368C73.936 166.072 74.2 166.976 74.2 168.08C74.2 169.072 73.968 169.952 73.504 170.72C73.056 171.472 72.392 172.064 71.512 172.496C70.648 172.928 69.616 173.144 68.416 173.144C66.496 173.144 64.96 172.672 63.808 171.728C62.672 170.784 62.072 169.36 62.008 167.456H65.992C66.008 168.16 66.208 168.72 66.592 169.136C66.976 169.536 67.536 169.736 68.272 169.736C68.896 169.736 69.376 169.56 69.712 169.208C70.064 168.84 70.24 168.36 70.24 167.768C70.24 167 69.992 166.448 69.496 166.112C69.016 165.76 68.24 165.584 67.168 165.584H66.4V162.248H67.168C67.984 162.248 68.64 162.112 69.136 161.84C69.648 161.552 69.904 161.048 69.904 160.328C69.904 159.752 69.744 159.304 69.424 158.984C69.104 158.664 68.664 158.504 68.104 158.504C67.496 158.504 67.04 158.688 66.736 159.056C66.448 159.424 66.28 159.88 66.232 160.424H62.224ZM89.1145 159.056H81.6265V162.368C81.9465 162.016 82.3945 161.728 82.9705 161.504C83.5465 161.28 84.1705 161.168 84.8425 161.168C86.0425 161.168 87.0345 161.44 87.8185 161.984C88.6185 162.528 89.2025 163.232 89.5705 164.096C89.9385 164.96 90.1225 165.896 90.1225 166.904C90.1225 168.776 89.5945 170.264 88.5385 171.368C87.4825 172.456 85.9945 173 84.0745 173C82.7945 173 81.6825 172.784 80.7385 172.352C79.7945 171.904 79.0665 171.288 78.5545 170.504C78.0425 169.72 77.7625 168.816 77.7145 167.792H81.7225C81.8185 168.288 82.0505 168.704 82.4185 169.04C82.7865 169.36 83.2905 169.52 83.9305 169.52C84.6825 169.52 85.2425 169.28 85.6105 168.8C85.9785 168.32 86.1625 167.68 86.1625 166.88C86.1625 166.096 85.9705 165.496 85.5865 165.08C85.2025 164.664 84.6425 164.456 83.9065 164.456C83.3625 164.456 82.9145 164.592 82.5625 164.864C82.2105 165.12 81.9785 165.464 81.8665 165.896H77.9065V155.456H89.1145V159.056ZM92.5552 164C92.5552 161.248 93.0832 159.08 94.1392 157.496C95.2112 155.912 96.9312 155.12 99.2992 155.12C101.667 155.12 103.379 155.912 104.435 157.496C105.507 159.08 106.043 161.248 106.043 164C106.043 166.784 105.507 168.968 104.435 170.552C103.379 172.136 101.667 172.928 99.2992 172.928C96.9312 172.928 95.2112 172.136 94.1392 170.552C93.0832 168.968 92.5552 166.784 92.5552 164ZM102.011 164C102.011 162.384 101.835 161.144 101.483 160.28C101.131 159.4 100.403 158.96 99.2992 158.96C98.1952 158.96 97.4672 159.4 97.1152 160.28C96.7632 161.144 96.5872 162.384 96.5872 164C96.5872 165.088 96.6512 165.992 96.7792 166.712C96.9072 167.416 97.1632 167.992 97.5472 168.44C97.9472 168.872 98.5312 169.088 99.2992 169.088C100.067 169.088 100.643 168.872 101.027 168.44C101.427 167.992 101.691 167.416 101.819 166.712C101.947 165.992 102.011 165.088 102.011 164Z" fill="white"/>
<path d="M201.176 246.88V243.568L208.76 232.72H213.344V243.328H215.312V246.88H213.344V250H209.24V246.88H201.176ZM209.528 237.232L205.496 243.328H209.528V237.232ZM217.489 241C217.489 238.248 218.017 236.08 219.073 234.496C220.145 232.912 221.865 232.12 224.233 232.12C226.601 232.12 228.313 232.912 229.369 234.496C230.441 236.08 230.977 238.248 230.977 241C230.977 243.784 230.441 245.968 229.369 247.552C228.313 249.136 226.601 249.928 224.233 249.928C221.865 249.928 220.145 249.136 219.073 247.552C218.017 245.968 217.489 243.784 217.489 241ZM226.945 241C226.945 239.384 226.769 238.144 226.417 237.28C226.065 236.4 225.337 235.96 224.233 235.96C223.129 235.96 222.401 236.4 222.049 237.28C221.697 238.144 221.521 239.384 221.521 241C221.521 242.088 221.585 242.992 221.713 243.712C221.841 244.416 222.097 244.992 222.481 245.44C222.881 245.872 223.465 246.088 224.233 246.088C225.001 246.088 225.577 245.872 225.961 245.44C226.361 244.992 226.625 244.416 226.753 243.712C226.881 242.992 226.945 242.088 226.945 241ZM233.313 241C233.313 238.248 233.841 236.08 234.897 234.496C235.969 232.912 237.689 232.12 240.057 232.12C242.425 232.12 244.137 232.912 245.193 234.496C246.265 236.08 246.801 238.248 246.801 241C246.801 243.784 246.265 245.968 245.193 247.552C244.137 249.136 242.425 249.928 240.057 249.928C237.689 249.928 235.969 249.136 234.897 247.552C233.841 245.968 233.313 243.784 233.313 241ZM242.769 241C242.769 239.384 242.593 238.144 242.241 237.28C241.889 236.4 241.161 235.96 240.057 235.96C238.953 235.96 238.225 236.4 237.873 237.28C237.521 238.144 237.345 239.384 237.345 241C237.345 242.088 237.409 242.992 237.537 243.712C237.665 244.416 237.921 244.992 238.305 245.44C238.705 245.872 239.289 246.088 240.057 246.088C240.825 246.088 241.401 245.872 241.785 245.44C242.185 244.992 242.449 244.416 242.577 243.712C242.705 242.992 242.769 242.088 242.769 241Z" fill="white"/>
<path d="M59.648 307.296V303.48H66.296V321H62.024V307.296H59.648ZM69.2707 312C69.2707 309.248 69.7987 307.08 70.8547 305.496C71.9267 303.912 73.6467 303.12 76.0147 303.12C78.3827 303.12 80.0947 303.912 81.1507 305.496C82.2227 307.08 82.7587 309.248 82.7587 312C82.7587 314.784 82.2227 316.968 81.1507 318.552C80.0947 320.136 78.3827 320.928 76.0147 320.928C73.6467 320.928 71.9267 320.136 70.8547 318.552C69.7987 316.968 69.2707 314.784 69.2707 312ZM78.7267 312C78.7267 310.384 78.5507 309.144 78.1987 308.28C77.8467 307.4 77.1187 306.96 76.0147 306.96C74.9107 306.96 74.1827 307.4 73.8307 308.28C73.4787 309.144 73.3027 310.384 73.3027 312C73.3027 313.088 73.3667 313.992 73.4947 314.712C73.6227 315.416 73.8787 315.992 74.2627 316.44C74.6627 316.872 75.2467 317.088 76.0147 317.088C76.7827 317.088 77.3587 316.872 77.7427 316.44C78.1427 315.992 78.4067 315.416 78.5347 314.712C78.6627 313.992 78.7267 313.088 78.7267 312ZM85.0943 312C85.0943 309.248 85.6223 307.08 86.6783 305.496C87.7503 303.912 89.4703 303.12 91.8383 303.12C94.2063 303.12 95.9183 303.912 96.9743 305.496C98.0463 307.08 98.5823 309.248 98.5823 312C98.5823 314.784 98.0463 316.968 96.9743 318.552C95.9183 320.136 94.2063 320.928 91.8383 320.928C89.4703 320.928 87.7503 320.136 86.6783 318.552C85.6223 316.968 85.0943 314.784 85.0943 312ZM94.5503 312C94.5503 310.384 94.3743 309.144 94.0223 308.28C93.6703 307.4 92.9423 306.96 91.8383 306.96C90.7343 306.96 90.0063 307.4 89.6543 308.28C89.3023 309.144 89.1263 310.384 89.1263 312C89.1263 313.088 89.1903 313.992 89.3183 314.712C89.4463 315.416 89.7023 315.992 90.0863 316.44C90.4863 316.872 91.0703 317.088 91.8383 317.088C92.6063 317.088 93.1823 316.872 93.5663 316.44C93.9663 315.992 94.2303 315.416 94.3583 314.712C94.4863 313.992 94.5503 313.088 94.5503 312ZM100.918 312C100.918 309.248 101.446 307.08 102.502 305.496C103.574 303.912 105.294 303.12 107.662 303.12C110.03 303.12 111.742 303.912 112.798 305.496C113.87 307.08 114.406 309.248 114.406 312C114.406 314.784 113.87 316.968 112.798 318.552C111.742 320.136 110.03 320.928 107.662 320.928C105.294 320.928 103.574 320.136 102.502 318.552C101.446 316.968 100.918 314.784 100.918 312ZM110.374 312C110.374 310.384 110.198 309.144 109.846 308.28C109.494 307.4 108.766 306.96 107.662 306.96C106.558 306.96 105.83 307.4 105.478 308.28C105.126 309.144 104.95 310.384 104.95 312C104.95 313.088 105.014 313.992 105.142 314.712C105.27 315.416 105.526 315.992 105.91 316.44C106.31 316.872 106.894 317.088 107.662 317.088C108.43 317.088 109.006 316.872 109.39 316.44C109.79 315.992 110.054 315.416 110.182 314.712C110.31 313.992 110.374 313.088 110.374 312Z" fill="white"/>
<defs>
<radialGradient id="paint0_radial_45_14179" cx="0" cy="0" r="1" gradientUnits="userSpaceOnUse" gradientTransform="translate(87.3327 347.167) rotate(90) scale(11.8333 35.6667)">
<stop/>
<stop offset="1" stop-opacity="0"/>
</radialGradient>
<linearGradient id="paint1_linear_45_14179" x1="86.8347" y1="292.667" x2="86.8347" y2="332.333" gradientUnits="userSpaceOnUse">
<stop stop-color="#B8B8B8"/>
<stop offset="1" stop-color="#D4D4D4"/>
</linearGradient>
<linearGradient id="paint2_linear_45_14179" x1="87.2709" y1="295.177" x2="87.2709" y2="329.489" gradientUnits="userSpaceOnUse">
<stop stop-color="#B7B7B7"/>
<stop offset="1" stop-color="#D6D6D6"/>
</linearGradient>
<radialGradient id="paint3_radial_45_14179" cx="0" cy="0" r="1" gradientUnits="userSpaceOnUse" gradientTransform="translate(224.333 276.167) rotate(90) scale(11.8333 35.6667)">
<stop/>
<stop offset="1" stop-opacity="0"/>
</radialGradient>
<radialGradient id="paint4_radial_45_14179" cx="0" cy="0" r="1" gradientUnits="userSpaceOnUse" gradientTransform="translate(87.3327 199.167) rotate(90) scale(11.8333 35.6667)">
<stop/>
<stop offset="1" stop-opacity="0"/>
</radialGradient>
<radialGradient id="paint5_radial_45_14179" cx="0" cy="0" r="1" gradientUnits="userSpaceOnUse" gradientTransform="translate(85.9987 69.1663) rotate(90) scale(11.8333 35.6667)">
<stop/>
<stop offset="1" stop-opacity="0"/>
</radialGradient>
<linearGradient id="paint6_linear_45_14179" x1="85.5007" y1="14.6665" x2="85.5007" y2="54.3332" gradientUnits="userSpaceOnUse">
<stop stop-color="#EAAC19"/>
<stop offset="1" stop-color="#FFDD40"/>
</linearGradient>
<radialGradient id="paint7_radial_45_14179" cx="0" cy="0" r="1" gradientUnits="userSpaceOnUse" gradientTransform="translate(224.333 131.167) rotate(90) scale(11.8333 35.6667)">
<stop/>
<stop offset="1" stop-opacity="0"/>
</radialGradient>
<radialGradient id="paint8_radial_45_14179" cx="0" cy="0" r="1" gradientUnits="userSpaceOnUse" gradientTransform="translate(223.999 131.5) rotate(90) scale(11.8333 35.6667)">
<stop/>
<stop offset="1" stop-opacity="0"/>
</radialGradient>
<linearGradient id="paint9_linear_45_14179" x1="223.501" y1="77" x2="223.501" y2="116.667" gradientUnits="userSpaceOnUse">
<stop stop-color="#EAAC19"/>
<stop offset="1" stop-color="#FFDD40"/>
</linearGradient>
<radialGradient id="paint10_radial_45_14179" cx="0" cy="0" r="1" gradientUnits="userSpaceOnUse" gradientTransform="translate(86.9987 199.5) rotate(90) scale(11.8333 35.6667)">
<stop/>
<stop offset="1" stop-opacity="0"/>
</radialGradient>
<linearGradient id="paint11_linear_45_14179" x1="86.5007" y1="145" x2="86.5007" y2="184.667" gradientUnits="userSpaceOnUse">
<stop stop-color="#EAAC19"/>
<stop offset="1" stop-color="#FFDD40"/>
</linearGradient>
<radialGradient id="paint12_radial_45_14179" cx="0" cy="0" r="1" gradientUnits="userSpaceOnUse" gradientTransform="translate(223.999 276.5) rotate(90) scale(11.8333 35.6667)">
<stop/>
<stop offset="1" stop-opacity="0"/>
</radialGradient>
<linearGradient id="paint13_linear_45_14179" x1="223.501" y1="222" x2="223.501" y2="261.667" gradientUnits="userSpaceOnUse">
<stop stop-color="#EAAC19"/>
<stop offset="1" stop-color="#FFDD40"/>
</linearGradient>
</defs>
</svg>
