<svg width="375" height="379" viewBox="0 0 375 379" fill="none" xmlns="http://www.w3.org/2000/svg">
<path d="M105.801 58.6001C105.801 58.6001 127.501 89.1001 168.101 96.1001" stroke="white" stroke-width="2" stroke-dasharray="10 10"/>
<path d="M133.701 88.2L147.501 91.1L138.501 80L139.301 86.3L133.701 88.2Z" fill="white"/>
<path d="M257.101 120.5C257.101 120.5 326.801 139.4 194.801 169.7" stroke="white" stroke-width="2" stroke-dasharray="10 10"/>
<path d="M246.702 160.4L232.602 160.8L243.402 151.4L241.502 157.5L246.702 160.4Z" fill="white"/>
<path d="M254.5 274.8C254.5 274.8 357.8 298.5 195.1 320.6" stroke="white" stroke-width="2" stroke-dasharray="10 10"/>
<path d="M268.7 307.4L254.6 307.7L265.4 301.4L263.5 305.4L268.7 307.4Z" fill="white"/>
<path d="M91.6004 211.2C91.6004 211.2 67.1004 240.9 169.3 255.2" stroke="white" stroke-width="2" stroke-dasharray="10 10"/>
<path d="M109.5 245.3L123.5 246L112.9 236.4L114.7 242.5L109.5 245.3Z" fill="white"/>
<path d="M312.667 224.333H181.333C174.522 224.333 169 229.855 169 236.666V246.333C169 253.145 174.522 258.666 181.333 258.666H312.667C319.478 258.666 325 253.145 325 246.333V236.666C325 229.855 319.478 224.333 312.667 224.333Z" fill="#BD3161"/>
<path d="M273.334 247.167V238H277.334C282.667 238.5 282.501 246.667 277.167 247.167H273.334Z" stroke="white" stroke-width="1.6"/>
<path d="M284.667 241.82C287.232 240.754 288.172 241.015 288.912 242.438C289.096 242.792 289.167 243.193 289.167 243.592V244.404M289.167 244.404C287.367 243.844 286.213 243.758 285.256 244.214C283.987 244.817 284.038 246.887 285.401 247.229C286.378 247.474 287.491 247.02 289.167 245.82M289.167 244.404V245.82M289.167 247.82V245.82" stroke="white" stroke-width="1.6"/>
<path d="M293.667 251.333H291.5H291.333V249.833H293C293.61 249.246 293.852 248.765 294.167 247.667L291 240.667H292.833L295.167 245.667L296.833 240.667H298.667L295.333 249C294.786 250.228 294.417 250.753 293.667 251.333Z" fill="white" stroke="white" stroke-width="0.333333"/>
<path d="M224.333 288C244.031 288 260 282.702 260 276.167C260 269.631 244.031 264.333 224.333 264.333C204.635 264.333 188.667 269.631 188.667 276.167C188.667 282.702 204.635 288 224.333 288Z" fill="url(#paint0_radial_45_14290)"/>
<path d="M175.667 147.333H44.3333C37.5218 147.333 32 152.855 32 159.666V169.333C32 176.145 37.5218 181.666 44.3333 181.666H175.667C182.478 181.666 188 176.145 188 169.333V159.666C188 152.855 182.478 147.333 175.667 147.333Z" fill="#BD3161"/>
<path d="M136.334 170.167V161H140.334C145.667 161.5 145.501 169.667 140.167 170.167H136.334Z" stroke="white" stroke-width="1.6"/>
<path d="M147.667 164.82C150.232 163.754 151.172 164.015 151.912 165.438C152.096 165.792 152.167 166.193 152.167 166.592V167.404M152.167 167.404C150.367 166.844 149.213 166.758 148.256 167.214C146.987 167.817 147.038 169.887 148.401 170.229C149.378 170.474 150.491 170.02 152.167 168.82M152.167 167.404V168.82M152.167 170.82V168.82" stroke="white" stroke-width="1.6"/>
<path d="M156.667 174.333H154.5H154.333V172.833H156C156.61 172.246 156.852 171.765 157.167 170.667L154 163.667H155.833L158.167 168.667L159.833 163.667H161.667L158.333 172C157.786 173.228 157.417 173.753 156.667 174.333Z" fill="white" stroke="white" stroke-width="0.333333"/>
<path d="M87.3327 211C107.031 211 122.999 205.702 122.999 199.167C122.999 192.631 107.031 187.333 87.3327 187.333C67.6345 187.333 51.666 192.631 51.666 199.167C51.666 205.702 67.6345 211 87.3327 211Z" fill="url(#paint1_radial_45_14290)"/>
<path d="M175.667 21.6665H44.3333C37.5218 21.6665 32 27.1883 32 33.9998V43.3332C32 50.1447 37.5218 55.6665 44.3333 55.6665H175.667C182.478 55.6665 188 50.1447 188 43.3332V33.9998C188 27.1883 182.478 21.6665 175.667 21.6665Z" fill="#BD3161"/>
<path d="M134.666 44.1667V35H138.666C143.999 35.5 143.833 43.6667 138.499 44.1667H134.666Z" stroke="white" stroke-width="1.6"/>
<path d="M145.999 38.8202C148.564 37.7537 149.504 38.015 150.244 39.4374C150.428 39.7917 150.499 40.1926 150.499 40.5919V41.4035M150.499 41.4035C148.699 40.8433 147.546 40.758 146.588 41.2134C145.319 41.8164 145.37 43.8868 146.733 44.2284C147.71 44.4734 148.823 44.0202 150.499 42.8202M150.499 41.4035V42.8202M150.499 44.8202V42.8202" stroke="white" stroke-width="1.6"/>
<path d="M154.999 48.3332H152.832H152.665V46.8332H154.332C154.942 46.2456 155.184 45.7647 155.499 44.6665L152.332 37.6665H154.165L156.499 42.6665L158.165 37.6665H159.999L156.665 45.9999C156.118 47.2277 155.749 47.7532 154.999 48.3332Z" fill="white" stroke="white" stroke-width="0.333333"/>
<path d="M85.9987 80.9996C105.697 80.9996 121.665 75.7017 121.665 69.1663C121.665 62.631 105.697 57.333 85.9987 57.333C66.3006 57.333 50.332 62.631 50.332 69.1663C50.332 75.7017 66.3006 80.9996 85.9987 80.9996Z" fill="url(#paint2_radial_45_14290)"/>
<path d="M50.435 48.5381L50.166 40.333C55.2145 49.8016 59.5046 53.0643 68.4993 56.9997V68.9997C59.1814 64.6791 54.3232 61.5483 51.1061 52.3669C50.6753 51.1373 50.4777 49.8403 50.435 48.5381Z" fill="#C57509" stroke="#C57509" stroke-width="0.333333"/>
<path d="M121.231 48.7051L121.5 40.5C116.452 49.9686 112.495 53.0646 103.5 57V69C112.817 64.6799 117.381 61.6961 120.563 52.5347C120.99 51.304 121.188 50.0073 121.231 48.7051Z" fill="#C57509" stroke="#C57509" stroke-width="0.333333"/>
<path d="M103.333 57C89.2881 61.3933 81.6453 61.3402 68.666 57V69C82.1163 73.0449 89.7045 73.1392 103.333 69V57Z" fill="#9B4C01" stroke="#9B4C01" stroke-width="0.333333"/>
<path d="M49.666 49.5001V37.3335L50.166 39.3335L50.4993 49.8335C52.8327 59.6668 58.166 64.8335 68.666 69.0001C78.9231 72.2489 84.4825 72.5584 94.166 71.3335C101.654 69.9553 105.83 68.5089 113.166 63.6668C117.666 60.0001 120.795 54.0001 121.166 49.5001L121.499 39.0001L122.166 37.3335L121.833 51.1668C119.144 58.9477 116.779 62.839 109.333 68.0001C100.067 72.6325 94.3744 73.6724 83.666 73.8335C74.424 73.1017 69.2059 71.9602 59.666 65.8335C53.7531 60.7155 51.0238 57.4752 49.666 49.5001Z" fill="#AB6004" stroke="#AB6004" stroke-width="0.333333"/>
<path d="M122.5 33.6663C122.5 41.0563 118.414 47.7607 111.78 52.6238C105.146 57.4867 95.9727 60.4996 85.8331 60.4996C75.6936 60.4996 66.5206 57.4867 59.8866 52.6238C53.2524 47.7607 49.1665 41.0563 49.1665 33.6663C49.1665 26.2763 53.2524 19.5719 59.8866 14.7088C66.5206 9.8459 75.6936 6.83301 85.8331 6.83301C95.9727 6.83301 105.146 9.8459 111.78 14.7088C118.414 19.5719 122.5 26.2763 122.5 33.6663Z" fill="#FFED8B" stroke="#FFED8B" stroke-width="0.333333"/>
<path d="M85.8333 59.0001C105.623 59.0001 121.667 47.658 121.667 33.6668C121.667 19.6756 105.623 8.3335 85.8333 8.3335C66.0431 8.3335 50 19.6756 50 33.6668C50 47.658 66.0431 59.0001 85.8333 59.0001Z" fill="#FFDD40"/>
<path d="M85.5007 54.3331C101.609 54.3331 114.667 45.4534 114.667 34.4998C114.667 23.5462 101.609 14.6665 85.5007 14.6665C69.3924 14.6665 56.334 23.5462 56.334 34.4998C56.334 45.4534 69.3924 54.3331 85.5007 54.3331Z" fill="url(#paint3_linear_45_14290)"/>
<path d="M62.833 22.3329C56.4992 27.4996 55.3328 36.1662 58.4997 42.3329C57.1598 40.2799 56.4511 38.9534 55.4992 35.1663C55.0896 30.3655 55.847 27.6625 58.8325 22.8329C62.9707 18.1364 65.5579 16.1829 70.6658 14.1663C77.7994 11.7216 81.9307 11.0564 89.4992 11.3329C95.4267 12.1039 98.941 13.1975 105.666 16.4996C112.04 21.1207 113.586 24.0761 115.499 29.4996C116.275 32.891 116.292 34.6874 115.333 37.6663L112.833 42.3329C114.395 39.023 114.835 37.4135 114.666 34.9996C113.833 29.1663 112.366 25.4955 106.833 21.1663C102.43 17.7278 99.4581 16.2617 92.4992 15.1662C87.7739 14.565 85.0161 14.397 79.4992 14.9996C72.5537 15.8916 68.895 17.3939 62.833 22.3329Z" fill="#CA7A11" stroke="#CA7A11" stroke-width="0.333333"/>
<path d="M62.6673 47.9998C59.5937 45.3506 58.1119 43.5475 56.334 39.1665L58.1673 42.3332C60.7114 45.9025 62.0325 47.0043 64.334 48.4998C69.462 51.7096 72.8168 53.0375 79.834 54.3332C88.4164 55.1974 93.0362 54.5583 101.001 51.6665C105.34 49.8704 107.67 48.4134 111.501 44.4998C112.927 42.7596 113.58 41.7199 114.667 39.8332C113.604 42.0755 113.021 43.0505 112.001 44.4998C107.682 49.2395 104.86 51.4305 98.6673 53.9998C93.0385 55.8149 89.6653 56.3493 83.1673 56.1665C75.3312 55.3592 67.834 52.8332 62.6673 47.9998Z" fill="white" stroke="white" stroke-width="0.333333"/>
<path d="M312.667 79.3335H181.333C174.522 79.3335 169 84.8553 169 91.6668V101.333C169 108.145 174.522 113.667 181.333 113.667H312.667C319.478 113.667 325 108.145 325 101.333V91.6668C325 84.8553 319.478 79.3335 312.667 79.3335Z" fill="#BD3161"/>
<path d="M273.334 102.167V93H277.334C282.667 93.5 282.501 101.667 277.167 102.167H273.334Z" stroke="white" stroke-width="1.6"/>
<path d="M284.667 96.8207C287.232 95.7542 288.172 96.0154 288.912 97.4379C289.096 97.7922 289.167 98.193 289.167 98.5923V99.404M289.167 99.404C287.367 98.8437 286.213 98.7584 285.256 99.2138C283.987 99.8168 284.038 101.887 285.401 102.229C286.378 102.474 287.491 102.02 289.167 100.82M289.167 99.404V100.82M289.167 102.82V100.82" stroke="white" stroke-width="1.6"/>
<path d="M293.667 106.333H291.5H291.333V104.833H293C293.61 104.246 293.852 103.765 294.167 102.667L291 95.6665H292.833L295.167 100.667L296.833 95.6665H298.667L295.333 104C294.786 105.228 294.417 105.753 293.667 106.333Z" fill="white" stroke="white" stroke-width="0.333333"/>
<path d="M224.333 143C244.031 143 260 137.702 260 131.167C260 124.631 244.031 119.333 224.333 119.333C204.635 119.333 188.667 124.631 188.667 131.167C188.667 137.702 204.635 143 224.333 143Z" fill="url(#paint4_radial_45_14290)"/>
<path d="M223.999 143.333C243.697 143.333 259.666 138.035 259.666 131.5C259.666 124.964 243.697 119.667 223.999 119.667C204.301 119.667 188.333 124.964 188.333 131.5C188.333 138.035 204.301 143.333 223.999 143.333Z" fill="url(#paint5_radial_45_14290)"/>
<path d="M188.435 110.872L188.166 102.667C193.214 112.135 197.505 115.398 206.499 119.333V131.333C197.181 127.013 192.323 123.882 189.106 114.7C188.675 113.471 188.478 112.174 188.435 110.872Z" fill="#C57509" stroke="#C57509" stroke-width="0.333333"/>
<path d="M259.231 111.039L259.5 102.833C254.452 112.302 250.495 115.398 241.5 119.333V131.333C250.817 127.013 255.381 124.03 258.563 114.868C258.99 113.637 259.188 112.341 259.231 111.039Z" fill="#C57509" stroke="#C57509" stroke-width="0.333333"/>
<path d="M241.333 119.333C227.288 123.727 219.645 123.674 206.666 119.333V131.333C220.116 135.378 227.704 135.473 241.333 131.333V119.333Z" fill="#9B4C01" stroke="#9B4C01" stroke-width="0.333333"/>
<path d="M187.666 111.833V99.6665L188.166 101.667L188.499 112.167C190.833 122 196.166 127.167 206.666 131.333C216.923 134.582 222.482 134.892 232.166 133.667C239.654 132.289 243.83 130.842 251.166 126C255.666 122.333 258.795 116.333 259.166 111.833L259.499 101.333L260.166 99.6665L259.833 113.5C257.144 121.281 254.779 125.172 247.333 130.333C238.067 134.966 232.374 136.006 221.666 136.167C212.424 135.435 207.206 134.293 197.666 128.167C191.753 123.049 189.024 119.809 187.666 111.833Z" fill="#AB6004" stroke="#AB6004" stroke-width="0.333333"/>
<path d="M260.5 95.9998C260.5 103.39 256.414 110.094 249.78 114.957C243.146 119.82 233.973 122.833 223.833 122.833C213.694 122.833 204.521 119.82 197.887 114.957C191.253 110.094 187.167 103.39 187.167 95.9998C187.167 88.6098 191.253 81.9054 197.887 77.0423C204.521 72.1794 213.694 69.1665 223.833 69.1665C233.973 69.1665 243.146 72.1794 249.78 77.0423C256.414 81.9054 260.5 88.6098 260.5 95.9998Z" fill="#FFED8B" stroke="#FFED8B" stroke-width="0.333333"/>
<path d="M223.833 121.334C243.623 121.334 259.666 109.991 259.666 96.0003C259.666 82.0091 243.623 70.667 223.833 70.667C204.043 70.667 188 82.0091 188 96.0003C188 109.991 204.043 121.334 223.833 121.334Z" fill="#FFDD40"/>
<path d="M223.501 116.667C239.609 116.667 252.668 107.787 252.668 96.8333C252.668 85.8797 239.609 77 223.501 77C207.393 77 194.334 85.8797 194.334 96.8333C194.334 107.787 207.393 116.667 223.501 116.667Z" fill="url(#paint6_linear_45_14290)"/>
<path d="M200.833 84.6664C194.499 89.833 193.333 98.4997 196.5 104.667C195.16 102.614 194.451 101.287 193.499 97.4998C193.09 92.699 193.847 89.996 196.832 85.1664C200.971 80.4699 203.558 78.5164 208.666 76.4998C215.799 74.0551 219.931 73.3899 227.499 73.6664C233.427 74.4374 236.941 75.531 243.666 78.8331C250.04 83.4541 251.586 86.4096 253.499 91.8331C254.275 95.2245 254.292 97.0209 253.333 99.9998L250.833 104.667C252.395 101.357 252.835 99.747 252.666 97.3331C251.833 91.4998 250.366 87.829 244.833 83.4998C240.43 80.0613 237.458 78.5952 230.499 77.4997C225.774 76.8985 223.016 76.7305 217.499 77.3331C210.554 78.2251 206.895 79.7274 200.833 84.6664Z" fill="#CA7A11" stroke="#CA7A11" stroke-width="0.333333"/>
<path d="M200.667 110.333C197.594 107.684 196.112 105.881 194.334 101.5L196.167 104.667C198.711 108.236 200.032 109.338 202.334 110.833C207.462 114.043 210.817 115.371 217.834 116.667C226.416 117.531 231.036 116.892 239.001 114C243.34 112.204 245.67 110.747 249.501 106.833C250.927 105.093 251.58 104.053 252.667 102.167C251.604 104.409 251.021 105.384 250.001 106.833C245.682 111.573 242.86 113.764 236.667 116.333C231.039 118.148 227.665 118.683 221.167 118.5C213.331 117.693 205.834 115.167 200.667 110.333Z" fill="white" stroke="white" stroke-width="0.333333"/>
<path d="M86.9987 211.333C106.697 211.333 122.665 206.035 122.665 199.5C122.665 192.964 106.697 187.667 86.9987 187.667C67.3006 187.667 51.332 192.964 51.332 199.5C51.332 206.035 67.3006 211.333 86.9987 211.333Z" fill="url(#paint7_radial_45_14290)"/>
<path d="M51.435 178.872L51.166 170.667C56.2145 180.135 60.5046 183.398 69.4993 187.333V199.333C60.1814 195.013 55.3232 191.882 52.1061 182.7C51.6753 181.471 51.4777 180.174 51.435 178.872Z" fill="#C57509" stroke="#C57509" stroke-width="0.333333"/>
<path d="M122.231 179.039L122.5 170.833C117.452 180.302 113.495 183.398 104.5 187.333V199.333C113.817 195.013 118.381 192.03 121.563 182.868C121.99 181.637 122.188 180.341 122.231 179.039Z" fill="#C57509" stroke="#C57509" stroke-width="0.333333"/>
<path d="M104.333 187.333C90.2881 191.727 82.6453 191.674 69.666 187.333V199.333C83.1163 203.378 90.7045 203.473 104.333 199.333V187.333Z" fill="#9B4C01" stroke="#9B4C01" stroke-width="0.333333"/>
<path d="M50.666 179.833V167.667L51.166 169.667L51.4993 180.167C53.8327 190 59.166 195.167 69.666 199.333C79.9231 202.582 85.4825 202.892 95.166 201.667C102.654 200.289 106.83 198.842 114.166 194C118.666 190.333 121.795 184.333 122.166 179.833L122.499 169.333L123.166 167.667L122.833 181.5C120.144 189.281 117.779 193.172 110.333 198.333C101.067 202.966 95.3744 204.006 84.666 204.167C75.424 203.435 70.2059 202.293 60.666 196.167C54.7531 191.049 52.0238 187.809 50.666 179.833Z" fill="#AB6004" stroke="#AB6004" stroke-width="0.333333"/>
<path d="M123.5 164C123.5 171.39 119.414 178.094 112.78 182.957C106.146 187.82 96.9727 190.833 86.8331 190.833C76.6936 190.833 67.5206 187.82 60.8866 182.957C54.2524 178.094 50.1665 171.39 50.1665 164C50.1665 156.61 54.2524 149.906 60.8866 145.043C67.5206 140.18 76.6936 137.167 86.8331 137.167C96.9727 137.167 106.146 140.18 112.78 145.043C119.414 149.906 123.5 156.61 123.5 164Z" fill="#FFED8B" stroke="#FFED8B" stroke-width="0.333333"/>
<path d="M86.8333 189.333C106.623 189.333 122.667 177.991 122.667 164C122.667 150.009 106.623 138.667 86.8333 138.667C67.0431 138.667 51 150.009 51 164C51 177.991 67.0431 189.333 86.8333 189.333Z" fill="#FFDD40"/>
<path d="M86.5007 184.666C102.609 184.666 115.667 175.786 115.667 164.833C115.667 153.879 102.609 145 86.5007 145C70.3924 145 57.334 153.879 57.334 164.833C57.334 175.786 70.3924 184.666 86.5007 184.666Z" fill="url(#paint8_linear_45_14290)"/>
<path d="M63.833 152.667C57.4992 157.833 56.3328 166.5 59.4997 172.667C58.1598 170.614 57.4511 169.287 56.4992 165.5C56.0896 160.699 56.847 157.996 59.8325 153.167C63.9707 148.47 66.5579 146.517 71.6658 144.5C78.7994 142.055 82.9307 141.39 90.4992 141.667C96.4267 142.438 99.941 143.531 106.666 146.833C113.04 151.454 114.586 154.41 116.499 159.833C117.275 163.225 117.292 165.021 116.333 168L113.833 172.667C115.395 169.357 115.835 167.747 115.666 165.333C114.833 159.5 113.366 155.829 107.833 151.5C103.43 148.061 100.458 146.595 93.4992 145.5C88.7739 144.899 86.0161 144.731 80.4992 145.333C73.5537 146.225 69.895 147.728 63.833 152.667Z" fill="#CA7A11" stroke="#CA7A11" stroke-width="0.333333"/>
<path d="M63.6673 178.333C60.5937 175.684 59.1119 173.881 57.334 169.5L59.1673 172.667C61.7114 176.236 63.0325 177.338 65.334 178.833C70.462 182.043 73.8168 183.371 80.834 184.667C89.4164 185.531 94.0362 184.892 102.001 182C106.34 180.204 108.67 178.747 112.501 174.833C113.927 173.093 114.58 172.053 115.667 170.167C114.604 172.409 114.021 173.384 113.001 174.833C108.682 179.573 105.86 181.764 99.6673 184.333C94.0385 186.148 90.6653 186.683 84.1673 186.5C76.3312 185.693 68.834 183.167 63.6673 178.333Z" fill="white" stroke="white" stroke-width="0.333333"/>
<path d="M223.999 288.333C243.697 288.333 259.666 283.035 259.666 276.5C259.666 269.964 243.697 264.667 223.999 264.667C204.301 264.667 188.333 269.964 188.333 276.5C188.333 283.035 204.301 288.333 223.999 288.333Z" fill="url(#paint9_radial_45_14290)"/>
<path d="M188.435 255.872L188.166 247.667C193.214 257.135 197.505 260.398 206.499 264.333V276.333C197.181 272.013 192.323 268.882 189.106 259.7C188.675 258.471 188.478 257.174 188.435 255.872Z" fill="#C57509" stroke="#C57509" stroke-width="0.333333"/>
<path d="M259.231 256.039L259.5 247.833C254.452 257.302 250.495 260.398 241.5 264.333V276.333C250.817 272.013 255.381 269.03 258.563 259.868C258.99 258.637 259.188 257.341 259.231 256.039Z" fill="#C57509" stroke="#C57509" stroke-width="0.333333"/>
<path d="M241.333 264.333C227.288 268.727 219.645 268.674 206.666 264.333V276.333C220.116 280.378 227.704 280.473 241.333 276.333V264.333Z" fill="#9B4C01" stroke="#9B4C01" stroke-width="0.333333"/>
<path d="M187.666 256.833V244.667L188.166 246.667L188.499 257.167C190.833 267 196.166 272.167 206.666 276.333C216.923 279.582 222.482 279.892 232.166 278.667C239.654 277.289 243.83 275.842 251.166 271C255.666 267.333 258.795 261.333 259.166 256.833L259.499 246.333L260.166 244.667L259.833 258.5C257.144 266.281 254.779 270.172 247.333 275.333C238.067 279.966 232.374 281.006 221.666 281.167C212.424 280.435 207.206 279.293 197.666 273.167C191.753 268.049 189.024 264.809 187.666 256.833Z" fill="#AB6004" stroke="#AB6004" stroke-width="0.333333"/>
<path d="M260.5 241C260.5 248.39 256.414 255.094 249.78 259.957C243.146 264.82 233.973 267.833 223.833 267.833C213.694 267.833 204.521 264.82 197.887 259.957C191.253 255.094 187.167 248.39 187.167 241C187.167 233.61 191.253 226.906 197.887 222.043C204.521 217.18 213.694 214.167 223.833 214.167C233.973 214.167 243.146 217.18 249.78 222.043C256.414 226.906 260.5 233.61 260.5 241Z" fill="#FFED8B" stroke="#FFED8B" stroke-width="0.333333"/>
<path d="M223.833 266.333C243.623 266.333 259.666 254.991 259.666 241C259.666 227.009 243.623 215.667 223.833 215.667C204.043 215.667 188 227.009 188 241C188 254.991 204.043 266.333 223.833 266.333Z" fill="#FFDD40"/>
<path d="M223.501 261.666C239.609 261.666 252.668 252.786 252.668 241.833C252.668 230.879 239.609 222 223.501 222C207.393 222 194.334 230.879 194.334 241.833C194.334 252.786 207.393 261.666 223.501 261.666Z" fill="url(#paint10_linear_45_14290)"/>
<path d="M200.833 229.667C194.499 234.833 193.333 243.5 196.5 249.667C195.16 247.614 194.451 246.287 193.499 242.5C193.09 237.699 193.847 234.996 196.832 230.167C200.971 225.47 203.558 223.517 208.666 221.5C215.799 219.055 219.931 218.39 227.499 218.667C233.427 219.438 236.941 220.531 243.666 223.833C250.04 228.454 251.586 231.41 253.499 236.833C254.275 240.225 254.292 242.021 253.333 245L250.833 249.667C252.395 246.357 252.835 244.747 252.666 242.333C251.833 236.5 250.366 232.829 244.833 228.5C240.43 225.061 237.458 223.595 230.499 222.5C225.774 221.899 223.016 221.731 217.499 222.333C210.554 223.225 206.895 224.728 200.833 229.667Z" fill="#CA7A11" stroke="#CA7A11" stroke-width="0.333333"/>
<path d="M200.667 255.333C197.594 252.684 196.112 250.881 194.334 246.5L196.167 249.667C198.711 253.236 200.032 254.338 202.334 255.833C207.462 259.043 210.817 260.371 217.834 261.667C226.416 262.531 231.036 261.892 239.001 259C243.34 257.204 245.67 255.747 249.501 251.833C250.927 250.093 251.58 249.053 252.667 247.167C251.604 249.409 251.021 250.384 250.001 251.833C245.682 256.573 242.86 258.764 236.667 261.333C231.039 263.148 227.665 263.683 221.167 263.5C213.331 262.693 205.834 260.167 200.667 255.333Z" fill="white" stroke="white" stroke-width="0.333333"/>
<path d="M85.5 62.3337C86.3284 62.3337 87 61.5128 87 60.5003C87 59.4878 86.3284 58.667 85.5 58.667C84.6716 58.667 84 59.4878 84 60.5003C84 61.5128 84.6716 62.3337 85.5 62.3337Z" fill="white"/>
<path d="M86 9.66666C86.5523 9.66666 87 8.84585 87 7.83333C87 6.82081 86.5523 6 86 6C85.4477 6 85 6.82081 85 7.83333C85 8.84585 85.4477 9.66666 86 9.66666Z" fill="white"/>
<path d="M164.68 38.6531L167.2 36.9388V46H170V34H167.2L163 37.4286L164.68 38.6531Z" fill="white"/>
<path d="M303.222 95.197H305.66C305.66 93.5419 307.211 92.8325 308.097 93.7783C308.435 94.1387 308.762 94.9606 308.097 95.9064L303 100.635V103H310.979V100.635H306.546C308.538 98.6976 310.954 96.6158 310.979 96.1428C311.012 95.4965 311.002 95.1341 310.979 94.4877C310.757 92.596 310.535 91.8867 308.762 91.1773C307.876 90.9409 307.211 90.9409 306.324 91.1773C304.551 91.6502 303.443 92.8325 303.222 95.197Z" fill="white"/>
<path d="M169.259 163.029H166.674C166.889 161.09 169.259 159.366 172.06 160.228C173.137 160.659 173.783 161.09 173.999 161.951V163.675C173.999 164.537 173.561 164.86 172.706 165.183C172.581 165.326 172.557 165.416 172.706 165.614C173.367 165.806 173.959 166.045 173.999 166.476C174.086 167.416 174.109 167.971 173.999 169.061C173.888 170.151 173.137 170.785 172.06 171H169.044C167.751 171 166.674 169.923 166.674 169.276V167.984H169.044C169.044 168.415 169.055 169.175 169.259 169.276C170.121 169.707 170.929 169.556 171.629 169.276C172.706 168.846 172.706 166.907 171.629 166.476H169.259V164.537C171.198 164.537 172.06 164.322 172.06 163.029C172.06 161.736 169.682 161.256 169.259 163.029Z" fill="white"/>
<path d="M307.88 237L302.6 244.44V246.36H308.12V249H310.28V246.36H312.2V244.44H310.52V237H307.88Z" fill="white"/>
<path d="M305.48 243.48L307.16 240.84H308.36V244.44H305.48V243.48Z" fill="#BD3161"/>
<path d="M223.834 124.333C224.662 124.333 225.334 123.512 225.334 122.5C225.334 121.487 224.662 120.667 223.834 120.667C223.006 120.667 222.334 121.487 222.334 122.5C222.334 123.512 223.006 124.333 223.834 124.333Z" fill="white"/>
<path d="M224.334 71.6667C224.886 71.6667 225.334 70.8458 225.334 69.8333C225.334 68.8208 224.886 68 224.334 68C223.782 68 223.334 68.8208 223.334 69.8333C223.334 70.8458 223.782 71.6667 224.334 71.6667Z" fill="white"/>
<path d="M86.834 192.333C87.6624 192.333 88.334 191.512 88.334 190.5C88.334 189.487 87.6624 188.667 86.834 188.667C86.0056 188.667 85.334 189.487 85.334 190.5C85.334 191.512 86.0056 192.333 86.834 192.333Z" fill="white"/>
<path d="M87.334 139.666C87.8863 139.666 88.334 138.845 88.334 137.833C88.334 136.82 87.8863 136 87.334 136C86.7817 136 86.334 136.82 86.334 137.833C86.334 138.845 86.7817 139.666 87.334 139.666Z" fill="white"/>
<path d="M223.834 269.333C224.662 269.333 225.334 268.512 225.334 267.5C225.334 266.487 224.662 265.667 223.834 265.667C223.006 265.667 222.334 266.487 222.334 267.5C222.334 268.512 223.006 269.333 223.834 269.333Z" fill="white"/>
<path d="M224.334 216.666C224.886 216.666 225.334 215.845 225.334 214.833C225.334 213.82 224.886 213 224.334 213C223.782 213 223.334 213.82 223.334 214.833C223.334 215.845 223.782 216.666 224.334 216.666Z" fill="white"/>
<path d="M175.667 299.667H44.3333C37.5218 299.667 32 305.189 32 312V321.334C32 328.145 37.5218 333.667 44.3333 333.667H175.667C182.478 333.667 188 328.145 188 321.334V312C188 305.189 182.478 299.667 175.667 299.667Z" fill="#BD3161"/>
<path d="M171.999 312.333V313.833H167.666V316H169.666C170.666 316 171.999 317 172.166 318V320.333C172.166 321.333 171.166 322.566 169.833 322.833C167.333 323.333 166.046 322.56 165.166 320.666L166.999 320.166C167.735 321.457 168.907 321.758 170.166 320.666C170.731 320.176 170.919 318.841 170.166 318C169.499 317.166 167.626 317.064 165.999 317.833V312.333H171.999Z" fill="white"/>
<path d="M134.666 322.166V313H138.666C143.999 313.5 143.833 321.666 138.499 322.166H134.666Z" stroke="white" stroke-width="1.6"/>
<path d="M145.999 316.82C148.564 315.754 149.504 316.015 150.244 317.437C150.428 317.792 150.499 318.193 150.499 318.592V319.404M150.499 319.404C148.699 318.843 147.546 318.758 146.588 319.213C145.319 319.816 145.37 321.887 146.733 322.228C147.71 322.473 148.823 322.02 150.499 320.82M150.499 319.404V320.82M150.499 322.82V320.82" stroke="white" stroke-width="1.6"/>
<path d="M154.999 326.333H152.832H152.665V324.833H154.332C154.942 324.246 155.184 323.765 155.499 322.667L152.332 315.667H154.165L156.499 320.667L158.165 315.667H159.999L156.665 324C156.118 325.228 155.749 325.753 154.999 326.333Z" fill="white" stroke="white" stroke-width="0.333333"/>
<path d="M85.9987 358.999C105.697 358.999 121.665 353.701 121.665 347.166C121.665 340.63 105.697 335.333 85.9987 335.333C66.3006 335.333 50.332 340.63 50.332 347.166C50.332 353.701 66.3006 358.999 85.9987 358.999Z" fill="url(#paint11_radial_45_14290)"/>
<path d="M50.435 326.538L50.166 318.333C55.2145 327.802 59.5046 331.064 68.4993 335V347C59.1814 342.679 54.3232 339.548 51.1061 330.367C50.6753 329.137 50.4777 327.84 50.435 326.538Z" fill="#C57509" stroke="#C57509" stroke-width="0.333333"/>
<path d="M121.231 326.705L121.5 318.5C116.452 327.968 112.495 331.064 103.5 335V347C112.817 342.679 117.381 339.696 120.563 330.534C120.99 329.303 121.188 328.007 121.231 326.705Z" fill="#C57509" stroke="#C57509" stroke-width="0.333333"/>
<path d="M103.333 335C89.2881 339.393 81.6453 339.34 68.666 335V347C82.1163 351.044 89.7045 351.139 103.333 347V335Z" fill="#9B4C01" stroke="#9B4C01" stroke-width="0.333333"/>
<path d="M49.666 327.5V315.333L50.166 317.333L50.4993 327.833C52.8327 337.666 58.166 342.833 68.666 347C78.9231 350.248 84.4825 350.558 94.166 349.333C101.654 347.955 105.83 346.508 113.166 341.666C117.666 338 120.795 332 121.166 327.5L121.499 317L122.166 315.333L121.833 329.166C119.144 336.947 116.779 340.839 109.333 346C100.067 350.632 94.3744 351.672 83.666 351.833C74.424 351.101 69.2059 349.96 59.666 343.833C53.7531 338.715 51.0238 335.475 49.666 327.5Z" fill="#AB6004" stroke="#AB6004" stroke-width="0.333333"/>
<path d="M122.5 311.667C122.5 319.056 118.414 325.761 111.78 330.624C105.146 335.487 95.9727 338.5 85.8331 338.5C75.6936 338.5 66.5206 335.487 59.8866 330.624C53.2524 325.761 49.1665 319.056 49.1665 311.667C49.1665 304.277 53.2524 297.572 59.8866 292.709C66.5206 287.846 75.6936 284.833 85.8331 284.833C95.9727 284.833 105.146 287.846 111.78 292.709C118.414 297.572 122.5 304.277 122.5 311.667Z" fill="#FFED8B" stroke="#FFED8B" stroke-width="0.333333"/>
<path d="M85.8333 337C105.623 337 121.667 325.658 121.667 311.667C121.667 297.676 105.623 286.333 85.8333 286.333C66.0431 286.333 50 297.676 50 311.667C50 325.658 66.0431 337 85.8333 337Z" fill="#FFDD40"/>
<path d="M85.5007 332.333C101.609 332.333 114.667 323.453 114.667 312.5C114.667 301.546 101.609 292.667 85.5007 292.667C69.3924 292.667 56.334 301.546 56.334 312.5C56.334 323.453 69.3924 332.333 85.5007 332.333Z" fill="url(#paint12_linear_45_14290)"/>
<path d="M62.833 300.333C56.4992 305.5 55.3328 314.166 58.4997 320.333C57.1598 318.28 56.4511 316.954 55.4992 313.166C55.0896 308.366 55.847 305.663 58.8325 300.833C62.9707 296.137 65.5579 294.183 70.6658 292.166C77.7994 289.722 81.9307 289.057 89.4992 289.333C95.4267 290.104 98.941 291.198 105.666 294.5C112.04 299.121 113.586 302.076 115.499 307.5C116.275 310.891 116.292 312.688 115.333 315.666L112.833 320.333C114.395 317.023 114.835 315.414 114.666 313C113.833 307.166 112.366 303.496 106.833 299.166C102.43 295.728 99.4581 294.262 92.4992 293.166C87.7739 292.565 85.0161 292.397 79.4992 293C72.5537 293.892 68.895 295.394 62.833 300.333Z" fill="#CA7A11" stroke="#CA7A11" stroke-width="0.333333"/>
<path d="M62.6673 326C59.5937 323.351 58.1119 321.548 56.334 317.167L58.1673 320.333C60.7114 323.903 62.0325 325.004 64.334 326.5C69.462 329.71 72.8168 331.037 79.834 332.333C88.4164 333.197 93.0362 332.558 101.001 329.667C105.34 327.87 107.67 326.413 111.501 322.5C112.927 320.76 113.58 319.72 114.667 317.833C113.604 320.076 113.021 321.051 112.001 322.5C107.682 327.24 104.86 329.43 98.6673 332C93.0385 333.815 89.6653 334.349 83.1673 334.167C75.3312 333.359 67.834 330.833 62.6673 326Z" fill="white" stroke="white" stroke-width="0.333333"/>
<path d="M85.5 340.333C86.3284 340.333 87 339.512 87 338.5C87 337.487 86.3284 336.667 85.5 336.667C84.6716 336.667 84 337.487 84 338.5C84 339.512 84.6716 340.333 85.5 340.333Z" fill="white"/>
<path d="M86 287.666C86.5523 287.666 87 286.845 87 285.833C87 284.82 86.5523 284 86 284C85.4477 284 85 284.82 85 285.833C85 286.845 85.4477 287.666 86 287.666Z" fill="white"/>
<path d="M64.648 28.296V24.48H71.296V42H67.024V28.296H64.648ZM74.2707 33C74.2707 30.248 74.7987 28.08 75.8547 26.496C76.9267 24.912 78.6467 24.12 81.0147 24.12C83.3827 24.12 85.0947 24.912 86.1507 26.496C87.2227 28.08 87.7587 30.248 87.7587 33C87.7587 35.784 87.2227 37.968 86.1507 39.552C85.0947 41.136 83.3827 41.928 81.0147 41.928C78.6467 41.928 76.9267 41.136 75.8547 39.552C74.7987 37.968 74.2707 35.784 74.2707 33ZM83.7267 33C83.7267 31.384 83.5507 30.144 83.1987 29.28C82.8467 28.4 82.1187 27.96 81.0147 27.96C79.9107 27.96 79.1827 28.4 78.8307 29.28C78.4787 30.144 78.3027 31.384 78.3027 33C78.3027 34.088 78.3667 34.992 78.4947 35.712C78.6227 36.416 78.8787 36.992 79.2627 37.44C79.6627 37.872 80.2467 38.088 81.0147 38.088C81.7827 38.088 82.3587 37.872 82.7427 37.44C83.1427 36.992 83.4067 36.416 83.5347 35.712C83.6627 34.992 83.7267 34.088 83.7267 33ZM90.0943 33C90.0943 30.248 90.6223 28.08 91.6783 26.496C92.7503 24.912 94.4703 24.12 96.8383 24.12C99.2063 24.12 100.918 24.912 101.974 26.496C103.046 28.08 103.582 30.248 103.582 33C103.582 35.784 103.046 37.968 101.974 39.552C100.918 41.136 99.2063 41.928 96.8383 41.928C94.4703 41.928 92.7503 41.136 91.6783 39.552C90.6223 37.968 90.0943 35.784 90.0943 33ZM99.5503 33C99.5503 31.384 99.3743 30.144 99.0223 29.28C98.6703 28.4 97.9423 27.96 96.8383 27.96C95.7343 27.96 95.0063 28.4 94.6543 29.28C94.3023 30.144 94.1263 31.384 94.1263 33C94.1263 34.088 94.1903 34.992 94.3183 35.712C94.4463 36.416 94.7023 36.992 95.0863 37.44C95.4863 37.872 96.0703 38.088 96.8383 38.088C97.6063 38.088 98.1823 37.872 98.5663 37.44C98.9663 36.992 99.2303 36.416 99.3583 35.712C99.4863 34.992 99.5503 34.088 99.5503 33Z" fill="white"/>
<path d="M201.224 92.424C201.288 90.712 201.848 89.392 202.904 88.464C203.96 87.536 205.392 87.072 207.2 87.072C208.4 87.072 209.424 87.28 210.272 87.696C211.136 88.112 211.784 88.68 212.216 89.4C212.664 90.12 212.888 90.928 212.888 91.824C212.888 92.88 212.624 93.744 212.096 94.416C211.568 95.072 210.952 95.52 210.248 95.76V95.856C211.16 96.16 211.88 96.664 212.408 97.368C212.936 98.072 213.2 98.976 213.2 100.08C213.2 101.072 212.968 101.952 212.504 102.72C212.056 103.472 211.392 104.064 210.512 104.496C209.648 104.928 208.616 105.144 207.416 105.144C205.496 105.144 203.96 104.672 202.808 103.728C201.672 102.784 201.072 101.36 201.008 99.456H204.992C205.008 100.16 205.208 100.72 205.592 101.136C205.976 101.536 206.536 101.736 207.272 101.736C207.896 101.736 208.376 101.56 208.712 101.208C209.064 100.84 209.24 100.36 209.24 99.768C209.24 99 208.992 98.448 208.496 98.112C208.016 97.76 207.24 97.584 206.168 97.584H205.4V94.248H206.168C206.984 94.248 207.64 94.112 208.136 93.84C208.648 93.552 208.904 93.048 208.904 92.328C208.904 91.752 208.744 91.304 208.424 90.984C208.104 90.664 207.664 90.504 207.104 90.504C206.496 90.504 206.04 90.688 205.736 91.056C205.448 91.424 205.28 91.88 205.232 92.424H201.224ZM215.779 96C215.779 93.248 216.307 91.08 217.363 89.496C218.435 87.912 220.155 87.12 222.523 87.12C224.891 87.12 226.603 87.912 227.659 89.496C228.731 91.08 229.267 93.248 229.267 96C229.267 98.784 228.731 100.968 227.659 102.552C226.603 104.136 224.891 104.928 222.523 104.928C220.155 104.928 218.435 104.136 217.363 102.552C216.307 100.968 215.779 98.784 215.779 96ZM225.235 96C225.235 94.384 225.059 93.144 224.707 92.28C224.355 91.4 223.627 90.96 222.523 90.96C221.419 90.96 220.691 91.4 220.339 92.28C219.987 93.144 219.811 94.384 219.811 96C219.811 97.088 219.875 97.992 220.003 98.712C220.131 99.416 220.387 99.992 220.771 100.44C221.171 100.872 221.755 101.088 222.523 101.088C223.291 101.088 223.867 100.872 224.251 100.44C224.651 99.992 224.915 99.416 225.043 98.712C225.171 97.992 225.235 97.088 225.235 96ZM231.602 96C231.602 93.248 232.13 91.08 233.186 89.496C234.258 87.912 235.978 87.12 238.346 87.12C240.714 87.12 242.426 87.912 243.482 89.496C244.554 91.08 245.09 93.248 245.09 96C245.09 98.784 244.554 100.968 243.482 102.552C242.426 104.136 240.714 104.928 238.346 104.928C235.978 104.928 234.258 104.136 233.186 102.552C232.13 100.968 231.602 98.784 231.602 96ZM241.058 96C241.058 94.384 240.882 93.144 240.53 92.28C240.178 91.4 239.45 90.96 238.346 90.96C237.242 90.96 236.514 91.4 236.162 92.28C235.81 93.144 235.634 94.384 235.634 96C235.634 97.088 235.698 97.992 235.826 98.712C235.954 99.416 236.21 99.992 236.594 100.44C236.994 100.872 237.578 101.088 238.346 101.088C239.114 101.088 239.69 100.872 240.074 100.44C240.474 99.992 240.738 99.416 240.866 98.712C240.994 97.992 241.058 97.088 241.058 96Z" fill="white"/>
<path d="M65.224 159.424C65.288 157.712 65.848 156.392 66.904 155.464C67.96 154.536 69.392 154.072 71.2 154.072C72.4 154.072 73.424 154.28 74.272 154.696C75.136 155.112 75.784 155.68 76.216 156.4C76.664 157.12 76.888 157.928 76.888 158.824C76.888 159.88 76.624 160.744 76.096 161.416C75.568 162.072 74.952 162.52 74.248 162.76V162.856C75.16 163.16 75.88 163.664 76.408 164.368C76.936 165.072 77.2 165.976 77.2 167.08C77.2 168.072 76.968 168.952 76.504 169.72C76.056 170.472 75.392 171.064 74.512 171.496C73.648 171.928 72.616 172.144 71.416 172.144C69.496 172.144 67.96 171.672 66.808 170.728C65.672 169.784 65.072 168.36 65.008 166.456H68.992C69.008 167.16 69.208 167.72 69.592 168.136C69.976 168.536 70.536 168.736 71.272 168.736C71.896 168.736 72.376 168.56 72.712 168.208C73.064 167.84 73.24 167.36 73.24 166.768C73.24 166 72.992 165.448 72.496 165.112C72.016 164.76 71.24 164.584 70.168 164.584H69.4V161.248H70.168C70.984 161.248 71.64 161.112 72.136 160.84C72.648 160.552 72.904 160.048 72.904 159.328C72.904 158.752 72.744 158.304 72.424 157.984C72.104 157.664 71.664 157.504 71.104 157.504C70.496 157.504 70.04 157.688 69.736 158.056C69.448 158.424 69.28 158.88 69.232 159.424H65.224ZM92.1145 158.056H84.6265V161.368C84.9465 161.016 85.3945 160.728 85.9705 160.504C86.5465 160.28 87.1705 160.168 87.8425 160.168C89.0425 160.168 90.0345 160.44 90.8185 160.984C91.6185 161.528 92.2025 162.232 92.5705 163.096C92.9385 163.96 93.1225 164.896 93.1225 165.904C93.1225 167.776 92.5945 169.264 91.5385 170.368C90.4825 171.456 88.9945 172 87.0745 172C85.7945 172 84.6825 171.784 83.7385 171.352C82.7945 170.904 82.0665 170.288 81.5545 169.504C81.0425 168.72 80.7625 167.816 80.7145 166.792H84.7225C84.8185 167.288 85.0505 167.704 85.4185 168.04C85.7865 168.36 86.2905 168.52 86.9305 168.52C87.6825 168.52 88.2425 168.28 88.6105 167.8C88.9785 167.32 89.1625 166.68 89.1625 165.88C89.1625 165.096 88.9705 164.496 88.5865 164.08C88.2025 163.664 87.6425 163.456 86.9065 163.456C86.3625 163.456 85.9145 163.592 85.5625 163.864C85.2105 164.12 84.9785 164.464 84.8665 164.896H80.9065V154.456H92.1145V158.056ZM95.5552 163C95.5552 160.248 96.0832 158.08 97.1392 156.496C98.2112 154.912 99.9312 154.12 102.299 154.12C104.667 154.12 106.379 154.912 107.435 156.496C108.507 158.08 109.043 160.248 109.043 163C109.043 165.784 108.507 167.968 107.435 169.552C106.379 171.136 104.667 171.928 102.299 171.928C99.9312 171.928 98.2112 171.136 97.1392 169.552C96.0832 167.968 95.5552 165.784 95.5552 163ZM105.011 163C105.011 161.384 104.835 160.144 104.483 159.28C104.131 158.4 103.403 157.96 102.299 157.96C101.195 157.96 100.467 158.4 100.115 159.28C99.7632 160.144 99.5872 161.384 99.5872 163C99.5872 164.088 99.6512 164.992 99.7792 165.712C99.9072 166.416 100.163 166.992 100.547 167.44C100.947 167.872 101.531 168.088 102.299 168.088C103.067 168.088 103.643 167.872 104.027 167.44C104.427 166.992 104.691 166.416 104.819 165.712C104.947 164.992 105.011 164.088 105.011 163Z" fill="white"/>
<path d="M202.176 245.88V242.568L209.76 231.72H214.344V242.328H216.312V245.88H214.344V249H210.24V245.88H202.176ZM210.528 236.232L206.496 242.328H210.528V236.232ZM218.489 240C218.489 237.248 219.017 235.08 220.073 233.496C221.145 231.912 222.865 231.12 225.233 231.12C227.601 231.12 229.313 231.912 230.369 233.496C231.441 235.08 231.977 237.248 231.977 240C231.977 242.784 231.441 244.968 230.369 246.552C229.313 248.136 227.601 248.928 225.233 248.928C222.865 248.928 221.145 248.136 220.073 246.552C219.017 244.968 218.489 242.784 218.489 240ZM227.945 240C227.945 238.384 227.769 237.144 227.417 236.28C227.065 235.4 226.337 234.96 225.233 234.96C224.129 234.96 223.401 235.4 223.049 236.28C222.697 237.144 222.521 238.384 222.521 240C222.521 241.088 222.585 241.992 222.713 242.712C222.841 243.416 223.097 243.992 223.481 244.44C223.881 244.872 224.465 245.088 225.233 245.088C226.001 245.088 226.577 244.872 226.961 244.44C227.361 243.992 227.625 243.416 227.753 242.712C227.881 241.992 227.945 241.088 227.945 240ZM234.313 240C234.313 237.248 234.841 235.08 235.897 233.496C236.969 231.912 238.689 231.12 241.057 231.12C243.425 231.12 245.137 231.912 246.193 233.496C247.265 235.08 247.801 237.248 247.801 240C247.801 242.784 247.265 244.968 246.193 246.552C245.137 248.136 243.425 248.928 241.057 248.928C238.689 248.928 236.969 248.136 235.897 246.552C234.841 244.968 234.313 242.784 234.313 240ZM243.769 240C243.769 238.384 243.593 237.144 243.241 236.28C242.889 235.4 242.161 234.96 241.057 234.96C239.953 234.96 239.225 235.4 238.873 236.28C238.521 237.144 238.345 238.384 238.345 240C238.345 241.088 238.409 241.992 238.537 242.712C238.665 243.416 238.921 243.992 239.305 244.44C239.705 244.872 240.289 245.088 241.057 245.088C241.825 245.088 242.401 244.872 242.785 244.44C243.185 243.992 243.449 243.416 243.577 242.712C243.705 241.992 243.769 241.088 243.769 240Z" fill="white"/>
<path d="M58.648 307.296V303.48H65.296V321H61.024V307.296H58.648ZM68.2707 312C68.2707 309.248 68.7987 307.08 69.8547 305.496C70.9267 303.912 72.6467 303.12 75.0147 303.12C77.3827 303.12 79.0947 303.912 80.1507 305.496C81.2227 307.08 81.7587 309.248 81.7587 312C81.7587 314.784 81.2227 316.968 80.1507 318.552C79.0947 320.136 77.3827 320.928 75.0147 320.928C72.6467 320.928 70.9267 320.136 69.8547 318.552C68.7987 316.968 68.2707 314.784 68.2707 312ZM77.7267 312C77.7267 310.384 77.5507 309.144 77.1987 308.28C76.8467 307.4 76.1187 306.96 75.0147 306.96C73.9107 306.96 73.1827 307.4 72.8307 308.28C72.4787 309.144 72.3027 310.384 72.3027 312C72.3027 313.088 72.3667 313.992 72.4947 314.712C72.6227 315.416 72.8787 315.992 73.2627 316.44C73.6627 316.872 74.2467 317.088 75.0147 317.088C75.7827 317.088 76.3587 316.872 76.7427 316.44C77.1427 315.992 77.4067 315.416 77.5347 314.712C77.6627 313.992 77.7267 313.088 77.7267 312ZM84.0943 312C84.0943 309.248 84.6223 307.08 85.6783 305.496C86.7503 303.912 88.4703 303.12 90.8383 303.12C93.2063 303.12 94.9183 303.912 95.9743 305.496C97.0463 307.08 97.5823 309.248 97.5823 312C97.5823 314.784 97.0463 316.968 95.9743 318.552C94.9183 320.136 93.2063 320.928 90.8383 320.928C88.4703 320.928 86.7503 320.136 85.6783 318.552C84.6223 316.968 84.0943 314.784 84.0943 312ZM93.5503 312C93.5503 310.384 93.3743 309.144 93.0223 308.28C92.6703 307.4 91.9423 306.96 90.8383 306.96C89.7343 306.96 89.0063 307.4 88.6543 308.28C88.3023 309.144 88.1263 310.384 88.1263 312C88.1263 313.088 88.1903 313.992 88.3183 314.712C88.4463 315.416 88.7023 315.992 89.0863 316.44C89.4863 316.872 90.0703 317.088 90.8383 317.088C91.6063 317.088 92.1823 316.872 92.5663 316.44C92.9663 315.992 93.2303 315.416 93.3583 314.712C93.4863 313.992 93.5503 313.088 93.5503 312ZM99.9178 312C99.9178 309.248 100.446 307.08 101.502 305.496C102.574 303.912 104.294 303.12 106.662 303.12C109.03 303.12 110.742 303.912 111.798 305.496C112.87 307.08 113.406 309.248 113.406 312C113.406 314.784 112.87 316.968 111.798 318.552C110.742 320.136 109.03 320.928 106.662 320.928C104.294 320.928 102.574 320.136 101.502 318.552C100.446 316.968 99.9178 314.784 99.9178 312ZM109.374 312C109.374 310.384 109.198 309.144 108.846 308.28C108.494 307.4 107.766 306.96 106.662 306.96C105.558 306.96 104.83 307.4 104.478 308.28C104.126 309.144 103.95 310.384 103.95 312C103.95 313.088 104.014 313.992 104.142 314.712C104.27 315.416 104.526 315.992 104.91 316.44C105.31 316.872 105.894 317.088 106.662 317.088C107.43 317.088 108.006 316.872 108.39 316.44C108.79 315.992 109.054 315.416 109.182 314.712C109.31 313.992 109.374 313.088 109.374 312Z" fill="white"/>
<defs>
<radialGradient id="paint0_radial_45_14290" cx="0" cy="0" r="1" gradientUnits="userSpaceOnUse" gradientTransform="translate(224.333 276.167) rotate(90) scale(11.8333 35.6667)">
<stop/>
<stop offset="1" stop-opacity="0"/>
</radialGradient>
<radialGradient id="paint1_radial_45_14290" cx="0" cy="0" r="1" gradientUnits="userSpaceOnUse" gradientTransform="translate(87.3327 199.167) rotate(90) scale(11.8333 35.6667)">
<stop/>
<stop offset="1" stop-opacity="0"/>
</radialGradient>
<radialGradient id="paint2_radial_45_14290" cx="0" cy="0" r="1" gradientUnits="userSpaceOnUse" gradientTransform="translate(85.9987 69.1663) rotate(90) scale(11.8333 35.6667)">
<stop/>
<stop offset="1" stop-opacity="0"/>
</radialGradient>
<linearGradient id="paint3_linear_45_14290" x1="85.5007" y1="14.6665" x2="85.5007" y2="54.3332" gradientUnits="userSpaceOnUse">
<stop stop-color="#EAAC19"/>
<stop offset="1" stop-color="#FFDD40"/>
</linearGradient>
<radialGradient id="paint4_radial_45_14290" cx="0" cy="0" r="1" gradientUnits="userSpaceOnUse" gradientTransform="translate(224.333 131.167) rotate(90) scale(11.8333 35.6667)">
<stop/>
<stop offset="1" stop-opacity="0"/>
</radialGradient>
<radialGradient id="paint5_radial_45_14290" cx="0" cy="0" r="1" gradientUnits="userSpaceOnUse" gradientTransform="translate(223.999 131.5) rotate(90) scale(11.8333 35.6667)">
<stop/>
<stop offset="1" stop-opacity="0"/>
</radialGradient>
<linearGradient id="paint6_linear_45_14290" x1="223.501" y1="77" x2="223.501" y2="116.667" gradientUnits="userSpaceOnUse">
<stop stop-color="#EAAC19"/>
<stop offset="1" stop-color="#FFDD40"/>
</linearGradient>
<radialGradient id="paint7_radial_45_14290" cx="0" cy="0" r="1" gradientUnits="userSpaceOnUse" gradientTransform="translate(86.9987 199.5) rotate(90) scale(11.8333 35.6667)">
<stop/>
<stop offset="1" stop-opacity="0"/>
</radialGradient>
<linearGradient id="paint8_linear_45_14290" x1="86.5007" y1="145" x2="86.5007" y2="184.667" gradientUnits="userSpaceOnUse">
<stop stop-color="#EAAC19"/>
<stop offset="1" stop-color="#FFDD40"/>
</linearGradient>
<radialGradient id="paint9_radial_45_14290" cx="0" cy="0" r="1" gradientUnits="userSpaceOnUse" gradientTransform="translate(223.999 276.5) rotate(90) scale(11.8333 35.6667)">
<stop/>
<stop offset="1" stop-opacity="0"/>
</radialGradient>
<linearGradient id="paint10_linear_45_14290" x1="223.501" y1="222" x2="223.501" y2="261.667" gradientUnits="userSpaceOnUse">
<stop stop-color="#EAAC19"/>
<stop offset="1" stop-color="#FFDD40"/>
</linearGradient>
<radialGradient id="paint11_radial_45_14290" cx="0" cy="0" r="1" gradientUnits="userSpaceOnUse" gradientTransform="translate(85.9987 347.166) rotate(90) scale(11.8333 35.6667)">
<stop/>
<stop offset="1" stop-opacity="0"/>
</radialGradient>
<linearGradient id="paint12_linear_45_14290" x1="85.5007" y1="292.667" x2="85.5007" y2="332.333" gradientUnits="userSpaceOnUse">
<stop stop-color="#EAAC19"/>
<stop offset="1" stop-color="#FFDD40"/>
</linearGradient>
</defs>
</svg>
