<svg xmlns="http://www.w3.org/2000/svg" width="242.686" height="37.905" viewBox="0 0 242.686 37.905">
  <g id="Group_58305" data-name="Group 58305" transform="translate(-377.925 2760.01)">
    <path id="Path_120755" data-name="Path 120755" d="M521.373-3370.268a12.559,12.559,0,0,0-6.436-2.037,37.957,37.957,0,0,0-5.034-.057q-10.148.366-14.122,8.627-2.881,7.418-.077,13.4a10.743,10.743,0,0,0,3.479,4.355,14.2,14.2,0,0,0,6.416,2.163,32.88,32.88,0,0,0,4.839.084q10.452-.422,14.4-8.71,2.884-7.39.077-13.4A11.4,11.4,0,0,0,521.373-3370.268Zm-4.213,12.884a6.818,6.818,0,0,1-2.5,4.018q-1.916,1.546-6.755,1.433-5.935-.478-4.44-6.856a6.946,6.946,0,0,1,2.5-4.018,10.426,10.426,0,0,1,6.757-1.433q3.224.281,4.155,1.966T517.159-3357.384Z" transform="translate(-76.801 621.567)" fill="#fff"/>
    <path id="Path_120756" data-name="Path 120756" d="M767.123-3365.842a11.43,11.43,0,0,0-3.54-4.426,12.559,12.559,0,0,0-6.436-2.037,37.957,37.957,0,0,0-5.034-.057q-10.146.366-14.122,8.627-2.881,7.418-.077,13.4a10.743,10.743,0,0,0,3.479,4.355,14.2,14.2,0,0,0,6.417,2.163,32.879,32.879,0,0,0,4.839.084q10.452-.422,14.4-8.71Q769.93-3359.828,767.123-3365.842Zm-7.755,8.458a6.817,6.817,0,0,1-2.5,4.018q-1.916,1.546-6.757,1.433-5.935-.478-4.44-6.856a6.947,6.947,0,0,1,2.5-4.018,10.426,10.426,0,0,1,6.757-1.433q3.224.281,4.155,1.966T759.368-3357.384Z" transform="translate(-284.673 621.567)" fill="#fff"/>
    <path id="Path_120757" data-name="Path 120757" d="M1817.65-3373.865h9.218l6.268-33.735H1820.83l-1.945,8.859h3.225Z" transform="translate(-1212.524 651.76)" fill="#fff"/>
    <path id="Path_120758" data-name="Path 120758" d="M1700.43-3373.865h9.218l6.268-33.735H1703.61l-1.947,8.859h3.227Z" transform="translate(-1111.923 651.76)" fill="#fff"/>
    <path id="Path_120759" data-name="Path 120759" d="M1010.87-3368.289a7.744,7.744,0,0,0-6.245-2.922h-3.176l-.026.028H998.25l-.91,5.479q-2.324-5.507-7.718-5.508H983.3v.028h-8.373l-4.948,28.548h9.245l3.556-20.708h3.991c.016,0,.03,0,.044,0l1.917.021-.316,1.792v.009l-3.4,18.882h9.216l3.431-18.882a8.683,8.683,0,0,0,.125-1.826h4.018c.016,0,.03,0,.045,0l1.91.021-.31,1.76c0,.014,0,.027,0,.04l-3.4,18.882h9.216l3.431-18.882A8.271,8.271,0,0,0,1010.87-3368.289Z" transform="translate(-485.027 620.529)" fill="#fff"/>
    <path id="Path_120760" data-name="Path 120760" d="M1518.071-3371.21q-6.983.984-8.441,7.895l-3.53,20.681h9.1l3.187-18.348c0-.02.012-.038.016-.06l.359-2.02h6.87l1.511-8.149Z" transform="translate(-945.142 620.528)" fill="#fff"/>
    <path id="Path_120761" data-name="Path 120761" d="M253.193-3434.06a8.52,8.52,0,0,0-6.612-2.95H221.374l-2.827,17.31-.965,5.631q-1.019,5.941-2.552,14.962H244q5.844,0,7.655-6.266.111-.421.3-1.489t.374-2.094q.181-1.025.218-1.307l0-.055a7.8,7.8,0,0,0-1.8-6.126,2.6,2.6,0,0,0-.408-.407c-.19-.159-.373-.309-.551-.45a.9.9,0,0,0-.352-.211,9,9,0,0,0,2.372-1.236,7.081,7.081,0,0,0,2.256-2.5,5.888,5.888,0,0,0,.478-1.405q.228-.955.408-1.995t.281-1.813q.1-.772.1-.83A7.928,7.928,0,0,0,253.193-3434.06Zm-10.182,23.6c-.013.094-.031.224-.057.393s-.06.352-.1.548-.072.364-.091.506a.69.69,0,0,1-.054.239.8.8,0,0,1-.118.324,2.1,2.1,0,0,1-.32.449.63.63,0,0,1-.478.211H225.8q.034-.309.2-1.223t.339-1.98q.179-1.067.462-2.641h13.345a2.766,2.766,0,0,1,2.2.956A2.611,2.611,0,0,1,243.011-3410.458Zm2.79-15.973c-.057.272-.116.557-.179.858s-.145.675-.245,1.124a2.249,2.249,0,0,1-.855,1.434,2.627,2.627,0,0,1-1.649.534H228.261l.781-4.918c.007-.029.02-.055.028-.083l.14-.843h15.5a1.148,1.148,0,0,1,.87.394,1.163,1.163,0,0,1,.318.928C245.89-3426.9,245.856-3426.7,245.8-3426.432Z" transform="translate(162.895 677)" fill="#fff"/>
    <path id="Path_120762" data-name="Path 120762" d="M1307.208-3370.82h-8.682q-10.128.619-14.034,9.076-2.826,7.417-.088,13.234a10.625,10.625,0,0,0,3.459,4.27,12.053,12.053,0,0,0,6.294,1.827l16.923.112,1.4-8.149h-16.156c-2.145-.076-3.526-.865-4.154-2.353h3.9c.033.006.062.017.1.021h11.887c.307-1.784,1-5.793,1.344-7.867h-15.481c.163-.163.333-.323.516-.478a8.052,8.052,0,0,1,5.319-1.883h14.893l1.386-7.811Z" transform="translate(-753.72 620.194)" fill="#fff"/>
  </g>
</svg>
