<svg width="375" height="379" viewBox="0 0 375 379" fill="none" xmlns="http://www.w3.org/2000/svg">
<path d="M105.801 58.6001C105.801 58.6001 127.501 89.1001 168.101 96.1001" stroke="white" stroke-width="2" stroke-dasharray="10 10"/>
<path d="M133.701 88.2L147.501 91.1L138.501 80L139.301 86.3L133.701 88.2Z" fill="white"/>
<path d="M257.101 120.5C257.101 120.5 326.801 139.4 194.801 169.7" stroke="white" stroke-width="2" stroke-dasharray="10 10"/>
<path d="M246.702 160.4L232.602 160.8L243.402 151.4L241.502 157.5L246.702 160.4Z" fill="white"/>
<path d="M254.5 274.8C254.5 274.8 357.8 298.5 195.1 320.6" stroke="white" stroke-width="2" stroke-dasharray="10 10"/>
<path d="M268.7 307.4L254.6 307.7L265.4 301.4L263.5 305.4L268.7 307.4Z" fill="white"/>
<path d="M91.6004 211.2C91.6004 211.2 67.1004 240.9 169.3 255.2" stroke="white" stroke-width="2" stroke-dasharray="10 10"/>
<path d="M109.5 245.3L123.5 246L112.9 236.4L114.7 242.5L109.5 245.3Z" fill="white"/>
<rect x="32" y="295.333" width="156" height="34.3333" rx="12.3333" fill="white"/>
<path d="M173.667 308.333V309.833H169.334V312H171.334C172.334 312 173.667 313 173.834 314V316.333C173.834 317.333 172.834 318.567 171.501 318.833C169.001 319.333 167.714 318.56 166.834 316.667L168.667 316.167C169.403 317.458 170.575 317.758 171.834 316.667C172.399 316.177 172.587 314.841 171.834 314C171.167 313.167 169.294 313.064 167.667 313.833V308.333H173.667Z" fill="#333333" stroke="#333333" stroke-width="0.333333"/>
<path d="M136.334 318.167V309H140.334C145.667 309.5 145.501 317.667 140.167 318.167H136.334Z" stroke="#333333" stroke-width="1.6"/>
<path d="M147.667 312.82C150.232 311.754 151.172 312.015 151.912 313.437C152.096 313.792 152.167 314.193 152.167 314.592V315.404M152.167 318.82V316.82M152.167 316.82C150.491 318.02 149.378 318.473 148.401 318.228C147.038 317.887 146.987 315.816 148.256 315.213C149.213 314.758 150.367 314.843 152.167 315.404M152.167 316.82V315.404" stroke="#333333" stroke-width="1.6"/>
<path d="M156.667 322.333H154.5H154.333V320.833H156C156.61 320.246 156.852 319.765 157.167 318.667L154 311.667H155.833L158.167 316.667L159.833 311.667H161.667L158.333 320C157.786 321.228 157.417 321.753 156.667 322.333Z" fill="#333333" stroke="#333333" stroke-width="0.333333"/>
<ellipse cx="87.3327" cy="347.167" rx="35.6667" ry="11.8333" fill="url(#paint0_radial_1209_1561)"/>
<path d="M51.769 326.538L51.5 318.333C56.5484 327.802 60.8386 331.065 69.8333 335V347C60.5154 342.679 55.6572 339.549 52.4401 330.367C52.0093 329.138 51.8117 327.841 51.769 326.538Z" fill="#838383" stroke="#838383" stroke-width="0.333333"/>
<path d="M122.565 326.705L122.834 318.5C117.786 327.969 113.829 331.065 104.834 335V347C114.151 342.68 118.715 339.696 121.897 330.535C122.324 329.304 122.522 328.007 122.565 326.705Z" fill="#838383" stroke="#838383" stroke-width="0.333333"/>
<path d="M104.667 335C90.6221 339.393 82.9793 339.34 70 335V347C83.4502 351.045 91.0385 351.139 104.667 347V335Z" fill="#636363" stroke="#636363" stroke-width="0.333333"/>
<path d="M51 327.5V315.333L51.5 317.333L51.8333 327.833C54.1667 337.667 59.5 342.833 70 347C80.2571 350.249 85.8164 350.558 95.5 349.333C102.988 347.955 107.164 346.509 114.5 341.667C119 338 122.129 332 122.5 327.5L122.833 317L123.5 315.333L123.167 329.167C120.478 336.948 118.113 340.839 110.667 346C101.401 350.632 95.7084 351.672 85 351.833C75.7579 351.101 70.5398 349.96 61 343.833C55.087 338.715 52.3578 335.475 51 327.5Z" fill="#636363" stroke="#636363" stroke-width="0.333333"/>
<path d="M123.834 311.667C123.834 319.056 119.748 325.761 113.114 330.624C106.48 335.487 97.3069 338.5 87.1673 338.5C77.0278 338.5 67.8548 335.487 61.2208 330.624C54.5866 325.761 50.5007 319.056 50.5007 311.667C50.5007 304.277 54.5866 297.572 61.2208 292.709C67.8548 287.846 77.0278 284.833 87.1673 284.833C97.3069 284.833 106.48 287.846 113.114 292.709C119.748 297.572 123.834 304.277 123.834 311.667Z" fill="#E8E8E8" stroke="#E8E8E8" stroke-width="0.333333"/>
<ellipse cx="87.1673" cy="311.667" rx="35.8333" ry="25.3333" fill="#D6D6D6"/>
<ellipse cx="86.8346" cy="312.5" rx="29.1667" ry="19.8333" fill="url(#paint1_linear_1209_1561)"/>
<path d="M64.167 300.333C57.8332 305.5 56.6668 314.166 59.8337 320.333C58.4938 318.28 57.7851 316.954 56.8331 313.166C56.4236 308.366 57.181 305.663 60.1665 300.833C64.3047 296.137 66.8919 294.183 71.9998 292.166C79.1334 289.722 83.2647 289.057 90.8331 289.333C96.7606 290.104 100.275 291.198 107 294.5C113.374 299.121 114.92 302.076 116.833 307.5C117.609 310.891 117.626 312.688 116.666 315.666L114.166 320.333C115.729 317.023 116.169 315.414 116 313C115.166 307.166 113.7 303.496 108.166 299.166C103.764 295.728 100.792 294.262 93.8331 293.166C89.1079 292.565 86.3501 292.397 80.8332 293C73.8876 293.892 70.229 295.394 64.167 300.333Z" fill="#868686" stroke="#868686" stroke-width="0.333333"/>
<path d="M64.0013 326C60.9277 323.351 59.4459 321.548 57.668 317.167L59.5013 320.333C62.0454 323.903 63.3664 325.004 65.668 326.5C70.796 329.71 74.1508 331.037 81.168 332.333C89.7504 333.197 94.3702 332.558 102.335 329.667C106.674 327.87 109.004 326.413 112.835 322.5C114.261 320.76 114.914 319.72 116.001 317.833C114.938 320.076 114.355 321.051 113.335 322.5C109.016 327.24 106.194 329.43 100.001 332C94.3725 333.815 90.9993 334.349 84.5013 334.167C76.6652 333.359 69.168 330.833 64.0013 326Z" fill="white" stroke="white" stroke-width="0.333333"/>
<ellipse cx="86.834" cy="338.5" rx="1.5" ry="1.83333" fill="white"/>
<ellipse cx="87.334" cy="285.833" rx="1" ry="1.83333" fill="white"/>
<path d="M102.41 295.177H71.9664C64.3133 299.485 61.2612 302.334 58.8469 308.464C57.561 314.76 58.3593 317.194 60.1925 321.247C63.9607 325.489 66.3519 327.227 70.9572 329.489H103.251L107.624 327.302C115.382 321.868 117.354 318.017 115.866 309.473C114.857 303.923 110.405 299.109 102.41 295.177Z" fill="url(#paint2_linear_1209_1561)"/>
<path d="M51.4453 318.052C53.7148 323.658 55.7158 325.861 59.5188 329.489H51.9499L51.4453 327.807V318.052Z" fill="#8A8A8A" stroke="#8A8A8A" stroke-width="0.333333"/>
<path d="M50.9997 327.5L50.7734 314.183L51.4462 318.051L51.4997 327.5L52.1663 329.5H51.333L50.9997 327.5Z" fill="#707070" stroke="#707070" stroke-width="0.333333"/>
<path d="M60.1918 295.177H57.6688C53.8988 299.455 52.5763 301.689 51.4455 305.437C50.6551 308.375 50.1645 311.149 50.666 314.333C51.7283 321.072 54.0813 324.172 59.666 329.489H62.042C60.9713 328.837 60.3688 328.458 59.1827 327.302C52.4137 320.244 49.9318 313.174 52.4546 305.437C54.4102 301.126 56.0484 298.865 60.1918 295.177Z" fill="#E8E8E8" stroke="#E8E8E8" stroke-width="0.333333"/>
<path d="M66.0828 295.177H60.1959C53.6329 300.895 50.6696 306.842 51.7845 313.847C52.6255 320.406 58.3443 327.471 62.0446 329.489H68.6043C61.0354 324.443 57.3541 319.844 56.8319 313.342C56.4737 305.472 58.4491 301.484 66.0828 295.177Z" fill="#D6D6D6" stroke="#D6D6D6" stroke-width="0.333333"/>
<path d="M72.1333 295.177H66.0782C63.5455 297.33 62.4275 298.481 60.6972 300.391C57.7434 304.116 56.8038 306.573 56.8286 311.828C57.221 315.614 58.1398 317.605 60.1922 321.079C58.7224 318.031 58.1717 316.333 58.1729 313.342C58.3481 305.453 62.2106 300.391 72.1333 295.177Z" fill="#868686" stroke="#868686" stroke-width="0.333333"/>
<path d="M71.499 329.667L68.9377 329.489C65.0043 327.145 63.0586 325.471 59.8324 321.333C58.3274 318.729 57.7451 317.471 57.332 315.192C58.0269 317.557 58.6692 318.943 59.999 321.167C64.0423 325.736 66.7425 327.66 71.499 329.667Z" fill="white" stroke="white" stroke-width="0.333333"/>
<path d="M123.098 318.052C120.828 323.658 118.827 325.861 115.024 329.489H122.593L123.098 327.807V318.052Z" fill="#868686" stroke="#868686" stroke-width="0.333333"/>
<path d="M123.166 328L123.77 314.183L122.832 318.167L122.499 327.833L122.166 329.5H123.097L123.166 328Z" fill="#707070" stroke="#707070" stroke-width="0.333333"/>
<path d="M114.351 295.177H116.874C120.644 299.455 121.966 301.689 123.097 305.437C123.888 308.375 124.003 310.37 123.77 314.351C122.708 321.09 120.44 324.341 114.855 329.657L112.501 329.489C113.571 328.837 114.174 328.458 115.36 327.302C122.129 320.244 124.611 313.174 122.088 305.437C120.132 301.126 118.494 298.865 114.351 295.177Z" fill="#E8E8E8" stroke="#E8E8E8" stroke-width="0.333333"/>
<path d="M108.46 295.177H114.347C120.91 300.895 123.873 306.842 122.758 313.847C121.917 320.406 116.199 327.471 112.498 329.489H105.939C113.508 324.443 117.189 319.844 117.711 313.342C118.069 305.472 116.094 301.484 108.46 295.177Z" fill="#D6D6D6" stroke="#D6D6D6" stroke-width="0.333333"/>
<path d="M102.41 295.177H108.465C110.997 297.33 112.115 298.481 113.846 300.391C116.8 304.116 117.739 306.573 117.714 311.828C117.322 315.614 116.403 317.605 114.351 321.079C115.821 318.031 116.371 316.333 116.37 313.342C116.195 305.453 112.332 300.391 102.41 295.177Z" fill="#868686" stroke="#868686" stroke-width="0.333333"/>
<path d="M103.25 329.489H105.605C109.539 327.145 111.63 325.553 114.856 321.415C116.361 318.811 116.798 317.471 117.211 315.192C116.516 317.557 115.85 318.855 114.52 321.079C110.476 325.648 108.007 327.483 103.25 329.489Z" fill="white" stroke="white" stroke-width="0.333333"/>
<rect x="169" y="224.333" width="156" height="34.3333" rx="12.3333" fill="white"/>
<path d="M273.334 247.167V238H277.334C282.667 238.5 282.501 246.667 277.167 247.167H273.334Z" stroke="#333333" stroke-width="1.6"/>
<path d="M284.667 241.82C287.232 240.754 288.172 241.015 288.912 242.438C289.096 242.792 289.167 243.193 289.167 243.592V244.404M289.167 247.82V245.82M289.167 245.82C287.491 247.02 286.378 247.474 285.401 247.229C284.038 246.887 283.987 244.817 285.256 244.214C286.213 243.758 287.367 243.844 289.167 244.404M289.167 245.82V244.404" stroke="#333333" stroke-width="1.6"/>
<path d="M293.667 251.333H291.5H291.333V249.833H293C293.61 249.246 293.852 248.765 294.167 247.667L291 240.667H292.833L295.167 245.667L296.833 240.667H298.667L295.333 249C294.786 250.228 294.417 250.753 293.667 251.333Z" fill="#333333" stroke="#333333" stroke-width="0.333333"/>
<ellipse cx="224.333" cy="276.167" rx="35.6667" ry="11.8333" fill="url(#paint3_radial_1209_1561)"/>
<path d="M188.769 255.538L188.5 247.333C193.548 256.802 197.839 260.065 206.833 264V276C197.515 271.679 192.657 268.549 189.44 259.367C189.009 258.138 188.812 256.841 188.769 255.538Z" fill="#838383" stroke="#838383" stroke-width="0.333333"/>
<path d="M259.565 255.705L259.834 247.5C254.786 256.969 250.829 260.065 241.834 264V276C251.151 271.68 255.715 268.696 258.897 259.535C259.324 258.304 259.522 257.007 259.565 255.705Z" fill="#838383" stroke="#838383" stroke-width="0.333333"/>
<path d="M241.667 264C227.622 268.393 219.979 268.34 207 264V276C220.45 280.045 228.038 280.139 241.667 276V264Z" fill="#636363" stroke="#636363" stroke-width="0.333333"/>
<path d="M188 256.5V244.333L188.5 246.333L188.833 256.833C191.167 266.667 196.5 271.833 207 276C217.257 279.249 222.816 279.558 232.5 278.333C239.988 276.955 244.164 275.509 251.5 270.667C256 267 259.129 261 259.5 256.5L259.833 246L260.5 244.333L260.167 258.167C257.478 265.948 255.113 269.839 247.667 275C238.401 279.632 232.708 280.672 222 280.833C212.758 280.101 207.54 278.96 198 272.833C192.087 267.715 189.358 264.475 188 256.5Z" fill="#636363" stroke="#636363" stroke-width="0.333333"/>
<path d="M260.834 240.667C260.834 248.056 256.748 254.761 250.114 259.624C243.48 264.487 234.307 267.5 224.167 267.5C214.028 267.5 204.855 264.487 198.221 259.624C191.587 254.761 187.501 248.056 187.501 240.667C187.501 233.277 191.587 226.572 198.221 221.709C204.855 216.846 214.028 213.833 224.167 213.833C234.307 213.833 243.48 216.846 250.114 221.709C256.748 226.572 260.834 233.277 260.834 240.667Z" fill="#E8E8E8" stroke="#E8E8E8" stroke-width="0.333333"/>
<ellipse cx="224.167" cy="240.667" rx="35.8333" ry="25.3333" fill="#D6D6D6"/>
<ellipse cx="223.835" cy="241.5" rx="29.1667" ry="19.8333" fill="url(#paint4_linear_1209_1561)"/>
<path d="M201.167 229.333C194.833 234.5 193.667 243.166 196.834 249.333C195.494 247.28 194.785 245.954 193.833 242.166C193.424 237.366 194.181 234.663 197.166 229.833C201.305 225.137 203.892 223.183 209 221.166C216.133 218.722 220.265 218.057 227.833 218.333C233.761 219.104 237.275 220.198 244 223.5C250.374 228.121 251.92 231.076 253.833 236.5C254.609 239.891 254.626 241.688 253.666 244.666L251.166 249.333C252.729 246.023 253.169 244.414 253 242C252.166 236.166 250.7 232.496 245.166 228.166C240.764 224.728 237.792 223.262 230.833 222.166C226.108 221.565 223.35 221.397 217.833 222C210.888 222.892 207.229 224.394 201.167 229.333Z" fill="#868686" stroke="#868686" stroke-width="0.333333"/>
<path d="M201.001 255C197.928 252.351 196.446 250.548 194.668 246.167L196.501 249.333C199.045 252.903 200.366 254.004 202.668 255.5C207.796 258.71 211.151 260.037 218.168 261.333C226.75 262.197 231.37 261.558 239.335 258.667C243.674 256.87 246.004 255.413 249.835 251.5C251.261 249.76 251.914 248.72 253.001 246.833C251.938 249.076 251.355 250.051 250.335 251.5C246.016 256.24 243.194 258.43 237.001 261C231.373 262.815 227.999 263.349 221.501 263.167C213.665 262.359 206.168 259.833 201.001 255Z" fill="white" stroke="white" stroke-width="0.333333"/>
<ellipse cx="223.834" cy="267.5" rx="1.5" ry="1.83333" fill="white"/>
<ellipse cx="224.334" cy="214.833" rx="1" ry="1.83333" fill="white"/>
<path d="M239.41 224.177H208.966C201.313 228.485 198.261 231.334 195.847 237.464C194.561 243.76 195.359 246.194 197.192 250.247C200.961 254.489 203.352 256.227 207.957 258.489H240.251L244.624 256.302C252.382 250.868 254.354 247.017 252.866 238.473C251.857 232.923 247.405 228.109 239.41 224.177Z" fill="url(#paint5_linear_1209_1561)"/>
<path d="M188.445 247.052C190.715 252.658 192.716 254.861 196.519 258.489H188.95L188.445 256.807V247.052Z" fill="#8A8A8A" stroke="#8A8A8A" stroke-width="0.333333"/>
<path d="M188 256.5L187.773 243.183L188.446 247.051L188.5 256.5L189.166 258.5H188.333L188 256.5Z" fill="#707070" stroke="#707070" stroke-width="0.333333"/>
<path d="M197.192 224.177H194.669C190.899 228.455 189.576 230.689 188.445 234.437C187.655 237.375 187.164 240.149 187.666 243.333C188.728 250.072 191.081 253.172 196.666 258.489H199.042C197.971 257.837 197.369 257.458 196.183 256.302C189.414 249.244 186.932 242.174 189.455 234.437C191.41 230.126 193.048 227.865 197.192 224.177Z" fill="#E8E8E8" stroke="#E8E8E8" stroke-width="0.333333"/>
<path d="M203.083 224.177H197.196C190.633 229.895 187.67 235.842 188.785 242.847C189.626 249.406 195.344 256.471 199.045 258.489H205.604C198.035 253.443 194.354 248.844 193.832 242.342C193.474 234.472 195.449 230.484 203.083 224.177Z" fill="#D6D6D6" stroke="#D6D6D6" stroke-width="0.333333"/>
<path d="M209.133 224.177H203.078C200.546 226.33 199.428 227.481 197.697 229.391C194.743 233.116 193.804 235.573 193.829 240.828C194.221 244.614 195.14 246.605 197.192 250.079C195.722 247.031 195.172 245.333 195.173 242.342C195.348 234.453 199.211 229.391 209.133 224.177Z" fill="#868686" stroke="#868686" stroke-width="0.333333"/>
<path d="M208.499 258.667L205.938 258.489C202.004 256.145 200.059 254.471 196.832 250.333C195.327 247.729 194.745 246.471 194.332 244.192C195.027 246.557 195.669 247.943 196.999 250.167C201.042 254.736 203.743 256.66 208.499 258.667Z" fill="white" stroke="white" stroke-width="0.333333"/>
<path d="M260.098 247.052C257.828 252.658 255.827 254.861 252.024 258.489H259.593L260.098 256.807V247.052Z" fill="#868686" stroke="#868686" stroke-width="0.333333"/>
<path d="M260.166 257L260.77 243.183L259.832 247.167L259.499 256.833L259.166 258.5H260.097L260.166 257Z" fill="#707070" stroke="#707070" stroke-width="0.333333"/>
<path d="M251.351 224.177H253.874C257.644 228.455 258.966 230.689 260.097 234.437C260.888 237.375 261.003 239.37 260.77 243.351C259.708 250.09 257.44 253.341 251.855 258.657L249.501 258.489C250.571 257.837 251.174 257.458 252.36 256.302C259.129 249.244 261.611 242.174 259.088 234.437C257.132 230.126 255.494 227.865 251.351 224.177Z" fill="#E8E8E8" stroke="#E8E8E8" stroke-width="0.333333"/>
<path d="M245.46 224.177H251.347C257.91 229.895 260.873 235.842 259.758 242.847C258.917 249.406 253.199 256.471 249.498 258.489H242.939C250.508 253.443 254.189 248.844 254.711 242.342C255.069 234.472 253.094 230.484 245.46 224.177Z" fill="#D6D6D6" stroke="#D6D6D6" stroke-width="0.333333"/>
<path d="M239.41 224.177H245.465C247.997 226.33 249.115 227.481 250.846 229.391C253.8 233.116 254.739 235.573 254.714 240.828C254.322 244.614 253.403 246.605 251.351 250.079C252.821 247.031 253.371 245.333 253.37 242.342C253.195 234.453 249.332 229.391 239.41 224.177Z" fill="#868686" stroke="#868686" stroke-width="0.333333"/>
<path d="M240.25 258.489H242.605C246.539 256.145 248.63 254.553 251.856 250.415C253.361 247.811 253.798 246.471 254.211 244.192C253.516 246.557 252.85 247.855 251.52 250.079C247.476 254.648 245.007 256.483 240.25 258.489Z" fill="white" stroke="white" stroke-width="0.333333"/>
<rect x="32" y="147.333" width="156" height="34.3333" rx="12.3333" fill="white"/>
<path d="M136.334 170.167V161H140.334C145.667 161.5 145.501 169.667 140.167 170.167H136.334Z" stroke="#333333" stroke-width="1.6"/>
<path d="M147.667 164.82C150.232 163.754 151.172 164.015 151.912 165.438C152.096 165.792 152.167 166.193 152.167 166.592V167.404M152.167 170.82V168.82M152.167 168.82C150.491 170.02 149.378 170.474 148.401 170.229C147.038 169.887 146.987 167.817 148.256 167.214C149.213 166.758 150.367 166.844 152.167 167.404M152.167 168.82V167.404" stroke="#333333" stroke-width="1.6"/>
<path d="M156.667 174.333H154.5H154.333V172.833H156C156.61 172.246 156.852 171.765 157.167 170.667L154 163.667H155.833L158.167 168.667L159.833 163.667H161.667L158.333 172C157.786 173.228 157.417 173.753 156.667 174.333Z" fill="#333333" stroke="#333333" stroke-width="0.333333"/>
<ellipse cx="87.3327" cy="199.167" rx="35.6667" ry="11.8333" fill="url(#paint6_radial_1209_1561)"/>
<path d="M51.769 178.538L51.5 170.333C56.5484 179.802 60.8386 183.065 69.8333 187V199C60.5154 194.679 55.6572 191.549 52.4401 182.367C52.0093 181.138 51.8117 179.841 51.769 178.538Z" fill="#838383" stroke="#838383" stroke-width="0.333333"/>
<path d="M122.565 178.705L122.834 170.5C117.786 179.969 113.829 183.065 104.834 187V199C114.151 194.68 118.715 191.696 121.897 182.535C122.324 181.304 122.522 180.007 122.565 178.705Z" fill="#838383" stroke="#838383" stroke-width="0.333333"/>
<path d="M104.667 187C90.6221 191.393 82.9793 191.34 70 187V199C83.4502 203.045 91.0385 203.139 104.667 199V187Z" fill="#636363" stroke="#636363" stroke-width="0.333333"/>
<path d="M51 179.5V167.333L51.5 169.333L51.8333 179.833C54.1667 189.667 59.5 194.833 70 199C80.2571 202.249 85.8164 202.558 95.5 201.333C102.988 199.955 107.164 198.509 114.5 193.667C119 190 122.129 184 122.5 179.5L122.833 169L123.5 167.333L123.167 181.167C120.478 188.948 118.113 192.839 110.667 198C101.401 202.632 95.7084 203.672 85 203.833C75.7579 203.101 70.5398 201.96 61 195.833C55.087 190.715 52.3578 187.475 51 179.5Z" fill="#636363" stroke="#636363" stroke-width="0.333333"/>
<path d="M123.834 163.667C123.834 171.056 119.748 177.761 113.114 182.624C106.48 187.487 97.3069 190.5 87.1673 190.5C77.0278 190.5 67.8548 187.487 61.2208 182.624C54.5866 177.761 50.5007 171.056 50.5007 163.667C50.5007 156.277 54.5866 149.572 61.2208 144.709C67.8548 139.846 77.0278 136.833 87.1673 136.833C97.3069 136.833 106.48 139.846 113.114 144.709C119.748 149.572 123.834 156.277 123.834 163.667Z" fill="#E8E8E8" stroke="#E8E8E8" stroke-width="0.333333"/>
<ellipse cx="87.1673" cy="163.667" rx="35.8333" ry="25.3333" fill="#D6D6D6"/>
<ellipse cx="86.8346" cy="164.5" rx="29.1667" ry="19.8333" fill="url(#paint7_linear_1209_1561)"/>
<path d="M64.167 152.333C57.8332 157.5 56.6668 166.166 59.8337 172.333C58.4938 170.28 57.7851 168.954 56.8331 165.166C56.4236 160.366 57.181 157.663 60.1665 152.833C64.3047 148.137 66.8919 146.183 71.9998 144.166C79.1334 141.722 83.2647 141.057 90.8331 141.333C96.7606 142.104 100.275 143.198 107 146.5C113.374 151.121 114.92 154.076 116.833 159.5C117.609 162.891 117.626 164.688 116.666 167.666L114.166 172.333C115.729 169.023 116.169 167.414 116 165C115.166 159.166 113.7 155.496 108.166 151.166C103.764 147.728 100.792 146.262 93.8331 145.166C89.1079 144.565 86.3501 144.397 80.8332 145C73.8876 145.892 70.229 147.394 64.167 152.333Z" fill="#868686" stroke="#868686" stroke-width="0.333333"/>
<path d="M64.0013 178C60.9277 175.351 59.4459 173.548 57.668 169.167L59.5013 172.333C62.0454 175.903 63.3664 177.004 65.668 178.5C70.796 181.71 74.1508 183.037 81.168 184.333C89.7504 185.197 94.3702 184.558 102.335 181.667C106.674 179.87 109.004 178.413 112.835 174.5C114.261 172.76 114.914 171.72 116.001 169.833C114.938 172.076 114.355 173.051 113.335 174.5C109.016 179.24 106.194 181.43 100.001 184C94.3725 185.815 90.9993 186.349 84.5013 186.167C76.6652 185.359 69.168 182.833 64.0013 178Z" fill="white" stroke="white" stroke-width="0.333333"/>
<ellipse cx="86.834" cy="190.5" rx="1.5" ry="1.83333" fill="white"/>
<ellipse cx="87.334" cy="137.833" rx="1" ry="1.83333" fill="white"/>
<path d="M102.41 147.177H71.9664C64.3133 151.485 61.2612 154.334 58.8469 160.464C57.561 166.76 58.3593 169.194 60.1925 173.247C63.9607 177.489 66.3519 179.227 70.9572 181.489H103.251L107.624 179.302C115.382 173.868 117.354 170.017 115.866 161.473C114.857 155.923 110.405 151.109 102.41 147.177Z" fill="url(#paint8_linear_1209_1561)"/>
<path d="M51.4453 170.052C53.7148 175.658 55.7158 177.861 59.5188 181.489H51.9499L51.4453 179.807V170.052Z" fill="#8A8A8A" stroke="#8A8A8A" stroke-width="0.333333"/>
<path d="M50.9997 179.5L50.7734 166.183L51.4462 170.051L51.4997 179.5L52.1663 181.5H51.333L50.9997 179.5Z" fill="#707070" stroke="#707070" stroke-width="0.333333"/>
<path d="M60.1918 147.177H57.6688C53.8988 151.455 52.5763 153.689 51.4455 157.437C50.6551 160.375 50.1645 163.149 50.666 166.333C51.7283 173.072 54.0813 176.172 59.666 181.489H62.042C60.9713 180.837 60.3688 180.458 59.1827 179.302C52.4137 172.244 49.9318 165.174 52.4546 157.437C54.4102 153.126 56.0484 150.865 60.1918 147.177Z" fill="#E8E8E8" stroke="#E8E8E8" stroke-width="0.333333"/>
<path d="M66.0828 147.177H60.1959C53.6329 152.895 50.6696 158.842 51.7845 165.847C52.6255 172.406 58.3443 179.471 62.0446 181.489H68.6043C61.0354 176.443 57.3541 171.844 56.8319 165.342C56.4737 157.472 58.4491 153.484 66.0828 147.177Z" fill="#D6D6D6" stroke="#D6D6D6" stroke-width="0.333333"/>
<path d="M72.1333 147.177H66.0782C63.5455 149.33 62.4275 150.481 60.6972 152.391C57.7434 156.116 56.8038 158.573 56.8286 163.828C57.221 167.614 58.1398 169.605 60.1922 173.079C58.7224 170.031 58.1717 168.333 58.1729 165.342C58.3481 157.453 62.2106 152.391 72.1333 147.177Z" fill="#868686" stroke="#868686" stroke-width="0.333333"/>
<path d="M71.499 181.667L68.9377 181.489C65.0043 179.145 63.0586 177.471 59.8324 173.333C58.3274 170.729 57.7451 169.471 57.332 167.192C58.0269 169.557 58.6692 170.943 59.999 173.167C64.0423 177.736 66.7425 179.66 71.499 181.667Z" fill="white" stroke="white" stroke-width="0.333333"/>
<path d="M123.098 170.052C120.828 175.658 118.827 177.861 115.024 181.489H122.593L123.098 179.807V170.052Z" fill="#868686" stroke="#868686" stroke-width="0.333333"/>
<path d="M123.166 180L123.77 166.183L122.832 170.167L122.499 179.833L122.166 181.5H123.097L123.166 180Z" fill="#707070" stroke="#707070" stroke-width="0.333333"/>
<path d="M114.351 147.177H116.874C120.644 151.455 121.966 153.689 123.097 157.437C123.888 160.375 124.003 162.37 123.77 166.351C122.708 173.09 120.44 176.341 114.855 181.657L112.501 181.489C113.571 180.837 114.174 180.458 115.36 179.302C122.129 172.244 124.611 165.174 122.088 157.437C120.132 153.126 118.494 150.865 114.351 147.177Z" fill="#E8E8E8" stroke="#E8E8E8" stroke-width="0.333333"/>
<path d="M108.46 147.177H114.347C120.91 152.895 123.873 158.842 122.758 165.847C121.917 172.406 116.199 179.471 112.498 181.489H105.939C113.508 176.443 117.189 171.844 117.711 165.342C118.069 157.472 116.094 153.484 108.46 147.177Z" fill="#D6D6D6" stroke="#D6D6D6" stroke-width="0.333333"/>
<path d="M102.41 147.177H108.465C110.997 149.33 112.115 150.481 113.846 152.391C116.8 156.116 117.739 158.573 117.714 163.828C117.322 167.614 116.403 169.605 114.351 173.079C115.821 170.031 116.371 168.333 116.37 165.342C116.195 157.453 112.332 152.391 102.41 147.177Z" fill="#868686" stroke="#868686" stroke-width="0.333333"/>
<path d="M103.25 181.489H105.605C109.539 179.145 111.63 177.553 114.856 173.415C116.361 170.811 116.798 169.471 117.211 167.192C116.516 169.557 115.85 170.855 114.52 173.079C110.476 177.648 108.007 179.483 103.25 181.489Z" fill="white" stroke="white" stroke-width="0.333333"/>
<rect x="169" y="79.3333" width="156" height="34.3333" rx="12.3333" fill="white"/>
<path d="M273.334 102.167V93H277.334C282.667 93.5 282.501 101.667 277.167 102.167H273.334Z" stroke="#333333" stroke-width="1.6"/>
<path d="M284.667 96.8205C287.232 95.754 288.172 96.0152 288.912 97.4377C289.096 97.792 289.167 98.1928 289.167 98.5921V99.4038M289.167 102.82V100.82M289.167 100.82C287.491 102.02 286.378 102.474 285.401 102.229C284.038 101.887 283.987 99.8166 285.256 99.2136C286.213 98.7582 287.367 98.8435 289.167 99.4038M289.167 100.82V99.4038" stroke="#333333" stroke-width="1.6"/>
<path d="M293.667 106.333H291.5H291.333V104.833H293C293.61 104.246 293.852 103.765 294.167 102.667L291 95.6667H292.833L295.167 100.667L296.833 95.6667H298.667L295.333 104C294.786 105.228 294.417 105.753 293.667 106.333Z" fill="#333333" stroke="#333333" stroke-width="0.333333"/>
<ellipse cx="224.333" cy="131.167" rx="35.6667" ry="11.8333" fill="url(#paint9_radial_1209_1561)"/>
<path d="M188.769 110.538L188.5 102.333C193.548 111.802 197.839 115.065 206.833 119V131C197.515 126.679 192.657 123.549 189.44 114.367C189.009 113.138 188.812 111.841 188.769 110.538Z" fill="#838383" stroke="#838383" stroke-width="0.333333"/>
<path d="M259.565 110.705L259.834 102.5C254.786 111.969 250.829 115.065 241.834 119V131C251.151 126.68 255.715 123.696 258.897 114.535C259.324 113.304 259.522 112.007 259.565 110.705Z" fill="#838383" stroke="#838383" stroke-width="0.333333"/>
<path d="M241.667 119C227.622 123.393 219.979 123.34 207 119V131C220.45 135.045 228.038 135.139 241.667 131V119Z" fill="#636363" stroke="#636363" stroke-width="0.333333"/>
<path d="M188 111.5V99.3333L188.5 101.333L188.833 111.833C191.167 121.667 196.5 126.833 207 131C217.257 134.249 222.816 134.558 232.5 133.333C239.988 131.955 244.164 130.509 251.5 125.667C256 122 259.129 116 259.5 111.5L259.833 101L260.5 99.3333L260.167 113.167C257.478 120.948 255.113 124.839 247.667 130C238.401 134.632 232.708 135.672 222 135.833C212.758 135.101 207.54 133.96 198 127.833C192.087 122.715 189.358 119.475 188 111.5Z" fill="#636363" stroke="#636363" stroke-width="0.333333"/>
<path d="M260.834 95.6665C260.834 103.056 256.748 109.761 250.114 114.624C243.48 119.487 234.307 122.5 224.167 122.5C214.028 122.5 204.855 119.487 198.221 114.624C191.587 109.761 187.501 103.056 187.501 95.6665C187.501 88.2765 191.587 81.5721 198.221 76.709C204.855 71.8461 214.028 68.8332 224.167 68.8332C234.307 68.8332 243.48 71.8461 250.114 76.709C256.748 81.5721 260.834 88.2765 260.834 95.6665Z" fill="#E8E8E8" stroke="#E8E8E8" stroke-width="0.333333"/>
<ellipse cx="224.167" cy="95.6666" rx="35.8333" ry="25.3333" fill="#D6D6D6"/>
<ellipse cx="223.835" cy="96.4998" rx="29.1667" ry="19.8333" fill="url(#paint10_linear_1209_1561)"/>
<path d="M201.167 84.3331C194.833 89.4998 193.667 98.1664 196.834 104.333C195.494 102.28 194.785 100.954 193.833 97.1665C193.424 92.3657 194.181 89.6627 197.166 84.8331C201.305 80.1366 203.892 78.1831 209 76.1665C216.133 73.7218 220.265 73.0566 227.833 73.3331C233.761 74.1041 237.275 75.1977 244 78.4998C250.374 83.1209 251.92 86.0763 253.833 91.4998C254.609 94.8912 254.626 96.6876 253.666 99.6665L251.166 104.333C252.729 101.023 253.169 99.4137 253 96.9998C252.166 91.1665 250.7 87.4957 245.166 83.1665C240.764 79.728 237.792 78.2619 230.833 77.1664C226.108 76.5652 223.35 76.3972 217.833 76.9998C210.888 77.8918 207.229 79.3941 201.167 84.3331Z" fill="#868686" stroke="#868686" stroke-width="0.333333"/>
<path d="M201.001 110C197.928 107.351 196.446 105.548 194.668 101.167L196.501 104.333C199.045 107.903 200.366 109.004 202.668 110.5C207.796 113.71 211.151 115.037 218.168 116.333C226.75 117.197 231.37 116.558 239.335 113.667C243.674 111.87 246.004 110.413 249.835 106.5C251.261 104.76 251.914 103.72 253.001 101.833C251.938 104.076 251.355 105.051 250.335 106.5C246.016 111.24 243.194 113.43 237.001 116C231.373 117.815 227.999 118.349 221.501 118.167C213.665 117.359 206.168 114.833 201.001 110Z" fill="white" stroke="white" stroke-width="0.333333"/>
<ellipse cx="223.834" cy="122.5" rx="1.5" ry="1.83333" fill="white"/>
<ellipse cx="224.334" cy="69.8333" rx="1" ry="1.83333" fill="white"/>
<path d="M239.41 79.1765H208.966C201.313 83.4851 198.261 86.3341 195.847 92.4642C194.561 98.7596 195.359 101.194 197.192 105.247C200.961 109.489 203.352 111.227 207.957 113.489H240.251L244.624 111.302C252.382 105.868 254.354 102.017 252.866 93.4734C251.857 87.9228 247.405 83.1091 239.41 79.1765Z" fill="url(#paint11_linear_1209_1561)"/>
<path d="M188.445 102.052C190.715 107.658 192.716 109.861 196.519 113.489H188.95L188.445 111.807V102.052Z" fill="#8A8A8A" stroke="#8A8A8A" stroke-width="0.333333"/>
<path d="M188 111.5L187.773 98.1829L188.446 102.051L188.5 111.5L189.166 113.5H188.333L188 111.5Z" fill="#707070" stroke="#707070" stroke-width="0.333333"/>
<path d="M197.192 79.1765H194.669C190.899 83.4554 189.576 85.6886 188.445 89.4366C187.655 92.3753 187.164 95.1492 187.666 98.3335C188.728 105.072 191.081 108.172 196.666 113.489H199.042C197.971 112.837 197.369 112.458 196.183 111.302C189.414 104.244 186.932 97.1737 189.455 89.4366C191.41 85.1262 193.048 82.8654 197.192 79.1765Z" fill="#E8E8E8" stroke="#E8E8E8" stroke-width="0.333333"/>
<path d="M203.083 79.1765H197.196C190.633 84.8953 187.67 90.8419 188.785 97.8465C189.626 104.406 195.344 111.471 199.045 113.489H205.604C198.035 108.443 194.354 103.844 193.832 97.3419C193.474 89.4716 195.449 85.4845 203.083 79.1765Z" fill="#D6D6D6" stroke="#D6D6D6" stroke-width="0.333333"/>
<path d="M209.133 79.1765H203.078C200.546 81.3297 199.428 82.4808 197.697 84.3907C194.743 88.1165 193.804 90.5732 193.829 95.8281C194.221 99.6143 195.14 101.605 197.192 105.079C195.722 102.031 195.172 100.333 195.173 97.3419C195.348 89.4528 199.211 84.3907 209.133 79.1765Z" fill="#868686" stroke="#868686" stroke-width="0.333333"/>
<path d="M208.499 113.667L205.938 113.489C202.004 111.145 200.059 109.471 196.832 105.333C195.327 102.729 194.745 101.471 194.332 99.1921C195.027 101.557 195.669 102.943 196.999 105.167C201.042 109.736 203.743 111.66 208.499 113.667Z" fill="white" stroke="white" stroke-width="0.333333"/>
<path d="M260.098 102.052C257.828 107.658 255.827 109.861 252.024 113.489H259.593L260.098 111.807V102.052Z" fill="#868686" stroke="#868686" stroke-width="0.333333"/>
<path d="M260.166 112L260.77 98.1829L259.832 102.167L259.499 111.833L259.166 113.5H260.097L260.166 112Z" fill="#707070" stroke="#707070" stroke-width="0.333333"/>
<path d="M251.351 79.1765H253.874C257.644 83.4554 258.966 85.6886 260.097 89.4366C260.888 92.3753 261.003 94.3699 260.77 98.3511C259.708 105.09 257.44 108.341 251.855 113.657L249.501 113.489C250.571 112.837 251.174 112.458 252.36 111.302C259.129 104.244 261.611 97.1737 259.088 89.4366C257.132 85.1262 255.494 82.8654 251.351 79.1765Z" fill="#E8E8E8" stroke="#E8E8E8" stroke-width="0.333333"/>
<path d="M245.46 79.1765H251.347C257.91 84.8953 260.873 90.8419 259.758 97.8465C258.917 104.406 253.199 111.471 249.498 113.489H242.939C250.508 108.443 254.189 103.844 254.711 97.3419C255.069 89.4716 253.094 85.4845 245.46 79.1765Z" fill="#D6D6D6" stroke="#D6D6D6" stroke-width="0.333333"/>
<path d="M239.41 79.1765H245.465C247.997 81.3297 249.115 82.4808 250.846 84.3907C253.8 88.1165 254.739 90.5732 254.714 95.8281C254.322 99.6143 253.403 101.605 251.351 105.079C252.821 102.031 253.371 100.333 253.37 97.3419C253.195 89.4528 249.332 84.3907 239.41 79.1765Z" fill="#868686" stroke="#868686" stroke-width="0.333333"/>
<path d="M240.25 113.489H242.605C246.539 111.145 248.63 109.553 251.856 105.415C253.361 102.811 253.798 101.471 254.211 99.1921C253.516 101.557 252.85 102.855 251.52 105.079C247.476 109.648 245.007 111.483 240.25 113.489Z" fill="white" stroke="white" stroke-width="0.333333"/>
<rect x="32" y="21.6667" width="156" height="34" rx="12.3333" fill="#BD3161"/>
<path d="M134.666 44.1667V35H138.666C143.999 35.5 143.833 43.6667 138.499 44.1667H134.666Z" stroke="white" stroke-width="1.6"/>
<path d="M145.999 38.8202C148.564 37.7537 149.504 38.015 150.244 39.4374C150.428 39.7917 150.499 40.1926 150.499 40.5919V41.4035M150.499 44.8202V42.8202M150.499 42.8202C148.823 44.0202 147.71 44.4734 146.733 44.2284C145.37 43.8868 145.319 41.8164 146.588 41.2134C147.546 40.758 148.699 40.8433 150.499 41.4035M150.499 42.8202V41.4035" stroke="white" stroke-width="1.6"/>
<path d="M154.999 48.3334H152.832H152.665V46.8334H154.332C154.942 46.2458 155.184 45.7649 155.499 44.6667L152.332 37.6667H154.165L156.499 42.6667L158.165 37.6667H159.999L156.665 46.0001C156.118 47.2279 155.749 47.7534 154.999 48.3334Z" fill="white" stroke="white" stroke-width="0.333333"/>
<ellipse cx="85.9987" cy="69.1663" rx="35.6667" ry="11.8333" fill="url(#paint12_radial_1209_1561)"/>
<path d="M50.435 48.5381L50.166 40.333C55.2145 49.8016 59.5046 53.0643 68.4993 56.9997V68.9997C59.1814 64.6791 54.3232 61.5483 51.1061 52.3669C50.6753 51.1373 50.4777 49.8403 50.435 48.5381Z" fill="#C57509" stroke="#C57509" stroke-width="0.333333"/>
<path d="M121.231 48.7051L121.5 40.5C116.452 49.9686 112.495 53.0646 103.5 57V69C112.817 64.6799 117.381 61.6961 120.563 52.5347C120.99 51.304 121.188 50.0073 121.231 48.7051Z" fill="#C57509" stroke="#C57509" stroke-width="0.333333"/>
<path d="M103.333 56.9998C89.2881 61.3931 81.6453 61.34 68.666 56.9998V68.9998C82.1163 73.0447 89.7045 73.139 103.333 68.9998V56.9998Z" fill="#9B4C01" stroke="#9B4C01" stroke-width="0.333333"/>
<path d="M49.666 49.4999V37.3333L50.166 39.3333L50.4993 49.8333C52.8327 59.6666 58.166 64.8333 68.666 68.9999C78.9231 72.2487 84.4825 72.5582 94.166 71.3333C101.654 69.9551 105.83 68.5087 113.166 63.6666C117.666 59.9999 120.795 53.9999 121.166 49.4999L121.499 38.9999L122.166 37.3333L121.833 51.1666C119.144 58.9475 116.779 62.8388 109.333 67.9999C100.067 72.6323 94.3744 73.6722 83.666 73.8333C74.424 73.1015 69.2059 71.96 59.666 65.8333C53.7531 60.7153 51.0238 57.475 49.666 49.4999Z" fill="#AB6004" stroke="#AB6004" stroke-width="0.333333"/>
<path d="M122.5 33.6665C122.5 41.0565 118.414 47.7609 111.78 52.624C105.146 57.4869 95.9729 60.4998 85.8333 60.4998C75.6938 60.4998 66.5208 57.4869 59.8868 52.624C53.2526 47.7609 49.1667 41.0565 49.1667 33.6665C49.1667 26.2765 53.2526 19.5721 59.8868 14.709C66.5208 9.84606 75.6938 6.83317 85.8333 6.83317C95.9729 6.83317 105.146 9.84606 111.78 14.709C118.414 19.5721 122.5 26.2765 122.5 33.6665Z" fill="#FFED8B" stroke="#FFED8B" stroke-width="0.333333"/>
<ellipse cx="85.8333" cy="33.6666" rx="35.8333" ry="25.3333" fill="#FFDD40"/>
<ellipse cx="85.5007" cy="34.4998" rx="29.1667" ry="19.8333" fill="url(#paint13_linear_1209_1561)"/>
<path d="M62.833 22.3331C56.4992 27.4998 55.3328 36.1664 58.4997 42.3331C57.1598 40.2801 56.4511 38.9536 55.4992 35.1665C55.0896 30.3657 55.847 27.6627 58.8325 22.8331C62.9707 18.1366 65.5579 16.1831 70.6658 14.1665C77.7994 11.7218 81.9307 11.0566 89.4992 11.3331C95.4267 12.1041 98.941 13.1977 105.666 16.4998C112.04 21.1209 113.586 24.0763 115.499 29.4998C116.275 32.8912 116.292 34.6876 115.333 37.6665L112.833 42.3331C114.395 39.0232 114.835 37.4137 114.666 34.9998C113.833 29.1665 112.366 25.4957 106.833 21.1665C102.43 17.728 99.4581 16.2619 92.4992 15.1664C87.7739 14.5652 85.0161 14.3972 79.4992 14.9998C72.5537 15.8918 68.895 17.3941 62.833 22.3331Z" fill="#CA7A11" stroke="#CA7A11" stroke-width="0.333333"/>
<path d="M62.6673 47.9998C59.5937 45.3506 58.1119 43.5475 56.334 39.1665L58.1673 42.3332C60.7114 45.9025 62.0325 47.0043 64.334 48.4998C69.462 51.7096 72.8168 53.0375 79.834 54.3332C88.4164 55.1974 93.0362 54.5583 101.001 51.6665C105.34 49.8704 107.67 48.4134 111.501 44.4998C112.927 42.7596 113.58 41.7199 114.667 39.8332C113.604 42.0755 113.021 43.0505 112.001 44.4998C107.682 49.2395 104.86 51.4305 98.6673 53.9998C93.0385 55.8149 89.6653 56.3493 83.1673 56.1665C75.3312 55.3592 67.834 52.8332 62.6673 47.9998Z" fill="white" stroke="white" stroke-width="0.333333"/>
<ellipse cx="85.5" cy="60.5001" rx="1.5" ry="1.83333" fill="white"/>
<ellipse cx="86" cy="7.83333" rx="1" ry="1.83333" fill="white"/>
<path d="M164.68 38.6531L167.2 36.9388V46H170V34H167.2L163 37.4286L164.68 38.6531Z" fill="white"/>
<path d="M303.222 95.197H305.66C305.66 93.5419 307.211 92.8325 308.097 93.7783C308.435 94.1387 308.762 94.9606 308.097 95.9064L303 100.635V103H310.979V100.635H306.546C308.538 98.6976 310.954 96.6158 310.979 96.1428C311.012 95.4965 311.002 95.1341 310.979 94.4877C310.757 92.596 310.535 91.8867 308.762 91.1773C307.876 90.9409 307.211 90.9409 306.324 91.1773C304.551 91.6502 303.443 92.8325 303.222 95.197Z" fill="#333333"/>
<path d="M169.259 163.029H166.674C166.889 161.09 169.259 159.366 172.06 160.228C173.137 160.659 173.783 161.09 173.999 161.951V163.675C173.999 164.537 173.561 164.86 172.706 165.183C172.581 165.326 172.557 165.416 172.706 165.614C173.367 165.806 173.959 166.045 173.999 166.476C174.086 167.416 174.109 167.971 173.999 169.061C173.888 170.151 173.137 170.785 172.06 171H169.044C167.751 171 166.674 169.923 166.674 169.276V167.984H169.044C169.044 168.415 169.055 169.175 169.259 169.276C170.121 169.707 170.929 169.556 171.629 169.276C172.706 168.846 172.706 166.907 171.629 166.476H169.259V164.537C171.198 164.537 172.06 164.322 172.06 163.029C172.06 161.736 169.682 161.256 169.259 163.029Z" fill="#333333"/>
<path d="M307.88 237L302.6 244.44V246.36H308.12V249H310.28V246.36H312.2V244.44H310.52V237H307.88Z" fill="#333333"/>
<path d="M305.48 243.48L307.16 240.84H308.36V244.44H305.48V243.48Z" fill="white"/>
<defs>
<radialGradient id="paint0_radial_1209_1561" cx="0" cy="0" r="1" gradientUnits="userSpaceOnUse" gradientTransform="translate(87.3327 347.167) rotate(90) scale(11.8333 35.6667)">
<stop/>
<stop offset="1" stop-opacity="0"/>
</radialGradient>
<linearGradient id="paint1_linear_1209_1561" x1="86.8346" y1="292.667" x2="86.8346" y2="332.333" gradientUnits="userSpaceOnUse">
<stop stop-color="#B8B8B8"/>
<stop offset="1" stop-color="#D4D4D4"/>
</linearGradient>
<linearGradient id="paint2_linear_1209_1561" x1="87.2709" y1="295.177" x2="87.2709" y2="329.489" gradientUnits="userSpaceOnUse">
<stop stop-color="#B7B7B7"/>
<stop offset="1" stop-color="#D6D6D6"/>
</linearGradient>
<radialGradient id="paint3_radial_1209_1561" cx="0" cy="0" r="1" gradientUnits="userSpaceOnUse" gradientTransform="translate(224.333 276.167) rotate(90) scale(11.8333 35.6667)">
<stop/>
<stop offset="1" stop-opacity="0"/>
</radialGradient>
<linearGradient id="paint4_linear_1209_1561" x1="223.835" y1="221.667" x2="223.835" y2="261.333" gradientUnits="userSpaceOnUse">
<stop stop-color="#B8B8B8"/>
<stop offset="1" stop-color="#D4D4D4"/>
</linearGradient>
<linearGradient id="paint5_linear_1209_1561" x1="224.271" y1="224.177" x2="224.271" y2="258.489" gradientUnits="userSpaceOnUse">
<stop stop-color="#B7B7B7"/>
<stop offset="1" stop-color="#D6D6D6"/>
</linearGradient>
<radialGradient id="paint6_radial_1209_1561" cx="0" cy="0" r="1" gradientUnits="userSpaceOnUse" gradientTransform="translate(87.3327 199.167) rotate(90) scale(11.8333 35.6667)">
<stop/>
<stop offset="1" stop-opacity="0"/>
</radialGradient>
<linearGradient id="paint7_linear_1209_1561" x1="86.8346" y1="144.667" x2="86.8346" y2="184.333" gradientUnits="userSpaceOnUse">
<stop stop-color="#B8B8B8"/>
<stop offset="1" stop-color="#D4D4D4"/>
</linearGradient>
<linearGradient id="paint8_linear_1209_1561" x1="87.2709" y1="147.177" x2="87.2709" y2="181.489" gradientUnits="userSpaceOnUse">
<stop stop-color="#B7B7B7"/>
<stop offset="1" stop-color="#D6D6D6"/>
</linearGradient>
<radialGradient id="paint9_radial_1209_1561" cx="0" cy="0" r="1" gradientUnits="userSpaceOnUse" gradientTransform="translate(224.333 131.167) rotate(90) scale(11.8333 35.6667)">
<stop/>
<stop offset="1" stop-opacity="0"/>
</radialGradient>
<linearGradient id="paint10_linear_1209_1561" x1="223.835" y1="76.6665" x2="223.835" y2="116.333" gradientUnits="userSpaceOnUse">
<stop stop-color="#B8B8B8"/>
<stop offset="1" stop-color="#D4D4D4"/>
</linearGradient>
<linearGradient id="paint11_linear_1209_1561" x1="224.271" y1="79.1765" x2="224.271" y2="113.489" gradientUnits="userSpaceOnUse">
<stop stop-color="#B7B7B7"/>
<stop offset="1" stop-color="#D6D6D6"/>
</linearGradient>
<radialGradient id="paint12_radial_1209_1561" cx="0" cy="0" r="1" gradientUnits="userSpaceOnUse" gradientTransform="translate(85.9987 69.1663) rotate(90) scale(11.8333 35.6667)">
<stop/>
<stop offset="1" stop-opacity="0"/>
</radialGradient>
<linearGradient id="paint13_linear_1209_1561" x1="85.5007" y1="14.6665" x2="85.5007" y2="54.3332" gradientUnits="userSpaceOnUse">
<stop stop-color="#EAAC19"/>
<stop offset="1" stop-color="#FFDD40"/>
</linearGradient>
</defs>
</svg>
