<svg width="163" height="163" viewBox="0 0 163 163" fill="none" xmlns="http://www.w3.org/2000/svg">
<path d="M122.25 122.25C144.756 99.7444 144.756 63.2556 122.25 40.75C99.7444 18.2444 63.2556 18.2444 40.75 40.75C18.2444 63.2556 18.2444 99.7444 40.75 122.25C63.2556 144.756 99.7444 144.756 122.25 122.25Z" fill="#FEE475"/>
<path d="M121.214 121.21C143.145 99.2785 143.145 63.7215 121.214 41.7905C99.2835 19.8595 63.7264 19.8595 41.7954 41.7905C19.8645 63.7215 19.8645 99.2785 41.7954 121.21C63.7264 143.14 99.2835 143.14 121.214 121.21Z" fill="#FED425"/>
<g style="mix-blend-mode:soft-light">
<path d="M121.308 41.8828L41.8984 121.292C47.2672 126.629 53.6588 130.827 60.6895 133.633L133.649 60.6737C130.843 53.6428 126.645 47.2514 121.308 41.8828Z" fill="white"/>
</g>
<g style="mix-blend-mode:soft-light">
<path d="M136.245 94L94.0078 136.238C104.306 133.878 113.73 128.664 121.201 121.193C128.671 113.723 133.885 104.298 136.245 94Z" fill="white"/>
</g>
<g style="mix-blend-mode:soft-light">
<path d="M53.92 32.5702L32.586 53.9042C30.2042 58.109 28.3789 62.6057 27.1562 67.281L67.2968 27.1406C62.6215 28.3634 58.1249 30.1885 53.92 32.5702Z" fill="white"/>
</g>
<g style="mix-blend-mode:soft-light">
<path d="M113.904 35.6328L35.6484 113.889C36.5611 115.177 37.5234 116.425 38.5351 117.631L117.647 38.5195C116.444 37.5043 115.196 36.542 113.904 35.6328Z" fill="white"/>
</g>
<g style="mix-blend-mode:soft-light">
<path d="M82.5875 123.222C105.059 123.222 123.277 105.005 123.277 82.5328C123.277 60.0609 105.059 41.8438 82.5875 41.8438C60.1156 41.8438 41.8984 60.0609 41.8984 82.5328C41.8984 105.005 60.1156 123.222 82.5875 123.222Z" fill="white"/>
</g>
<path d="M110.268 110.272C126.158 94.3815 126.158 68.6185 110.268 52.7285C94.3776 36.8384 68.6147 36.8384 52.7247 52.7285C36.8346 68.6185 36.8346 94.3815 52.7247 110.272C68.6147 126.162 94.3776 126.162 110.268 110.272Z" fill="#FEB724"/>
<path d="M43.0112 83.6925C43.0108 75.7784 45.3185 68.0361 49.6519 61.4138C53.9853 54.7915 60.1561 49.5768 67.4084 46.4086C74.6607 43.2404 82.6796 42.2562 90.4828 43.5766C98.286 44.8969 105.535 48.4645 111.341 53.8423C107.623 49.8184 103.132 46.5867 98.1349 44.3411C93.1381 42.0954 87.7394 40.882 82.2622 40.7736C76.7851 40.6652 71.3425 41.6641 66.2609 43.7103C61.1792 45.7566 56.5631 48.8079 52.6894 52.6816C48.8158 56.5553 45.7642 61.1714 43.718 66.253C41.6718 71.3347 40.673 76.7773 40.7814 82.2544C40.8898 87.7316 42.1031 93.1305 44.3487 98.1272C46.5944 103.124 49.8261 107.616 53.8499 111.333C46.8714 103.822 42.9986 93.9452 43.0112 83.6925Z" fill="#FB9D12"/>
<g style="mix-blend-mode:soft-light">
<path d="M81.5093 26.0743C96.599 26.077 111.086 31.9991 121.856 42.568C132.626 53.1369 138.82 67.509 139.108 82.596C139.108 82.2269 139.133 81.8628 139.133 81.4885C139.133 73.9206 137.643 66.4267 134.747 59.4348C131.85 52.4429 127.605 46.0899 122.254 40.7385C116.903 35.3872 110.55 31.1423 103.558 28.2461C96.566 25.35 89.0721 23.8594 81.5042 23.8594C73.9362 23.8594 66.4423 25.35 59.4504 28.2461C52.4585 31.1423 46.1055 35.3872 40.7542 40.7385C35.4028 46.0899 31.1579 52.4429 28.2617 59.4348C25.3656 66.4267 23.875 73.9206 23.875 81.4885C23.875 81.8577 23.875 82.2269 23.9007 82.596C24.188 67.5072 30.3837 53.1336 41.1561 42.5644C51.9286 31.9952 66.4178 26.0743 81.5093 26.0743Z" fill="white"/>
</g>
</svg>
