<svg xmlns="http://www.w3.org/2000/svg" width="30" height="30" viewBox="0 0 30 30">
  <path id="iconmonstr-cricket-1" d="M1.7,21.932c6.565-8.621,19.516-13.466,28.146-9.1A15,15,0,0,1,1.7,21.932ZM4.024,23.3c0,.007,1.084-1.265,1.572-1.778l-.9-.863c-.475.493-1.135,1.288-1.539,1.816l.869.824ZM7.56,18.12l.786.971c-1.14.923-1.491,1.244-1.886,1.6l-.83-.935c1-.885,1.139-.991,1.93-1.632ZM.6,19.221A15,15,0,0,1,29.091,9.85C19.776,6.577,8.012,10.477.6,19.221Zm8.01-1.876.695,1.039c.58-.389.939-.638,2.083-1.33l-.646-1.07Q9.66,16.64,8.613,17.345Zm3.274-1.99.551,1.121c.56-.275.992-.495,2.242-1.034l-.5-1.148s-1.191.516-2.3,1.06ZM.54,15.367l.8.962,1.729-1.55-.785-.956Zm14.87-1.534.385,1.189c.532-.171,1.025-.339,2.365-.693l-.319-1.209C16.911,13.367,16.693,13.42,15.41,13.834Zm13.96.021c-.171-.069-2.22-.849-2.394-.913l-.43,1.175L28.915,15l.455-1.145Zm-10.24-1,.191,1.235c.811-.125,1.626-.223,2.444-.3l-.116-1.245C20.663,12.64,20.421,12.656,19.13,12.856Zm-15.819.1.8.962c.438-.361.851-.711,1.941-1.523l-.746-1s-1.048.781-1.991,1.563Zm22.194-.3c-1.285-.111-1.19-.1-2.527-.149l-.043,1.249c1.042.034,1.135.029,2.461.146l.109-1.246ZM6.382,10.656l.656,1.065c.477-.3.869-.544,2.134-1.249L8.564,9.38c-.9.5-1.016.559-2.181,1.276ZM9.736,8.8l.5,1.145c1.434-.626,1.146-.5,2.284-.946l-.451-1.166c-.786.3-1.564.63-2.335.967Zm3.57-1.385.35,1.2c.481-.141.961-.29,2.387-.634L15.75,6.762C14.745,7.006,14.544,7.047,13.306,7.411ZM26.96,6.632l-2.425-.281L24.39,7.576l2.414.276.156-1.22Zm-9.921-.114.175,1.238c.644-.09,1.135-.166,2.451-.284l-.112-1.245S18.252,6.347,17.039,6.519Zm6.354-.267c-1.3-.077-1.59-.076-2.531-.081l-.006,1.25c.62,0,1.149,0,2.464.08l.074-1.249Z" fill="#ccc" fill-rule="evenodd"/>
</svg>
