<svg xmlns="http://www.w3.org/2000/svg" width="330" height="70" viewBox="0 0 330 70">
  <g id="Group_87494" data-name="Group 87494" transform="translate(-23 -264.863)">
    <rect id="Rectangle_17867" data-name="Rectangle 17867" width="330" height="55" rx="13" transform="translate(23 272)" fill="#161842"/>
    <g id="Group_87493" data-name="Group 87493">
      <text id="Welcome_back" data-name="Welcome back" transform="translate(233 299)" fill="#60dcbb" font-size="20" font-family="Avenir-Black, Avenir" font-weight="800"><tspan x="-98.34" y="0">Daily Check-in Bonus</tspan></text>
      <g id="Group_59091" data-name="Group 59091" transform="translate(-6740 -12150)">
        <text id="Welcome_back-2" data-name="Welcome back" transform="translate(6966 12467)" fill="#fff" font-size="10" font-family="Avenir-Medium, Avenir" font-weight="500"><tspan x="-71.12" y="0">Earn coins by being active daily</tspan></text>
      </g>
      <g id="Daily_check" data-name="Daily check" transform="translate(-312.09 -90.979)">
        <g id="Group_60413" data-name="Group 60413" transform="translate(379.869 355.843)">
          <path id="Path_141399" data-name="Path 141399" d="M420.934,365.77,400.706,363.2l.544-4.476a3.035,3.035,0,0,1,3.188-2.866l14.634,1.856a3.074,3.074,0,0,1,2.406,3.576Z" transform="translate(-380.846 -355.843)" fill="#d03f30"/>
          <path id="Path_141400" data-name="Path 141400" d="M401.2,359.238l-.49,4.032,20.228,2.565.476-3.919C417.45,361.368,403.706,359.567,401.2,359.238Z" transform="translate(-380.846 -355.908)" fill="#a5a7ab" opacity="0.5" style="mix-blend-mode: multiply;isolation: isolate"/>
          <path id="Path_141401" data-name="Path 141401" d="M424.483,424.595l-42.169-5.348a2.348,2.348,0,0,1-1.838-2.732l6.708-55.156a2.32,2.32,0,0,1,2.437-2.19l42.169,5.348a2.35,2.35,0,0,1,1.838,2.732l-6.709,55.156A2.318,2.318,0,0,1,424.483,424.595Z" transform="translate(-380.455 -355.907)" fill="#253789"/>
          <path id="Path_141402" data-name="Path 141402" d="M424.191,420.744,383.661,415.6l6.376-52.428,40.529,5.141Z" transform="translate(-380.517 -355.984)" fill="#f7f1ec"/>
          <path id="Path_141403" data-name="Path 141403" d="M420.216,373.263l-9.172-1.174.206-1.686,9.172,1.174Z" transform="translate(-381.046 -356.124)" fill="#c0b9b2"/>
          <path id="Path_141404" data-name="Path 141404" d="M426.351,377.809l-15.76-2.018.206-1.686,15.761,2.018Z" transform="translate(-381.037 -356.195)" fill="#c0b9b2"/>
          <path id="Path_141405" data-name="Path 141405" d="M417.063,383l-7.241-.927.206-1.686,7.241.927Z" transform="translate(-381.022 -356.317)" fill="#c0b9b2"/>
          <path id="Path_141406" data-name="Path 141406" d="M422.473,387.451l-13.1-1.678.206-1.686,13.1,1.678Z" transform="translate(-381.013 -356.388)" fill="#c0b9b2"/>
          <path id="Path_141407" data-name="Path 141407" d="M419.78,393.483l-11.18-1.431.206-1.686,11.18,1.431Z" transform="translate(-380.999 -356.509)" fill="#c0b9b2"/>
          <path id="Path_141408" data-name="Path 141408" d="M421.873,397.512l-13.725-1.757.206-1.686,13.725,1.757Z" transform="translate(-380.99 -356.581)" fill="#c0b9b2"/>
          <path id="Path_141409" data-name="Path 141409" d="M418.966,403.517l-11.587-1.483.206-1.686,11.587,1.484Z" transform="translate(-380.975 -356.702)" fill="#c0b9b2"/>
          <path id="Path_141410" data-name="Path 141410" d="M421.456,407.6l-14.53-1.86.206-1.686,14.53,1.86Z" transform="translate(-380.966 -356.773)" fill="#c0b9b2"/>
          <path id="Path_141411" data-name="Path 141411" d="M413.4,412.942l-7.241-.927.206-1.686,7.241.927Z" transform="translate(-380.951 -356.895)" fill="#c0b9b2"/>
          <path id="Path_141412" data-name="Path 141412" d="M417.291,417.2,405.7,415.718l.206-1.686,11.587,1.483Z" transform="translate(-380.943 -356.966)" fill="#c0b9b2"/>
          <g id="Group_60392" data-name="Group 60392" transform="translate(5.959 11.177)">
            <g id="Group_60387" data-name="Group 60387" transform="translate(5.194)">
              <path id="Path_141413" data-name="Path 141413" d="M394.768,371.432l1.212.15-.147,1.188-4.005-.5.147-1.189,1.258.156.3-2.4-1.257-.156.111-.9a5.457,5.457,0,0,0,2.38-.55l.517.064Z" transform="translate(-391.828 -367.24)" fill="#383e47"/>
            </g>
            <g id="Group_60388" data-name="Group 60388" transform="translate(3.541 9.66)">
              <path id="Path_141414" data-name="Path 141414" d="M394.951,378.974c-.142,1.15-1.377,1.568-2.57,2.219l2.322.288-.162,1.3-4.4-.545.046-.371a1.823,1.823,0,0,1,.911-1.282c1.337-.923,2.255-1.247,2.317-1.75.036-.293-.124-.587-.594-.645a.7.7,0,0,0-.838.632l-.019.154-1.374-.171a1.3,1.3,0,0,1,.014-.171c.134-1.089.979-1.7,2.5-1.515C394.363,377.279,395.071,378.01,394.951,378.974Z" transform="translate(-390.143 -377.09)" fill="#383e47"/>
            </g>
            <g id="Group_60389" data-name="Group 60389" transform="translate(2.434 19.487)">
              <path id="Path_141415" data-name="Path 141415" d="M393.683,388.838a1.251,1.251,0,0,1-.918,1.077l0,.031a1.3,1.3,0,0,1,.763,1.427c-.143.843-.9,1.447-2.427,1.257-1.551-.192-2.176-.967-2.072-1.808l.021-.162,1.358.169c-.043.347.106.655.724.733.594.073.839-.2.89-.611a.51.51,0,0,0-.471-.622l-.564-.071.118-.948.44.054a.51.51,0,0,0,.609-.488.626.626,0,0,0-.6-.694.619.619,0,0,0-.776.5l-1.289-.16.025-.192c.1-.8.943-1.356,2.3-1.188C393.121,387.3,393.78,388.051,393.683,388.838Z" transform="translate(-389.014 -387.11)" fill="#383e47"/>
            </g>
            <g id="Group_60390" data-name="Group 60390" transform="translate(1.036 29.229)">
              <path id="Path_141416" data-name="Path 141416" d="M391.117,397.232a8.193,8.193,0,0,1-2.332,2.938l1.528.189.137-1.1a6.365,6.365,0,0,0,1-1.465l.656.081-.331,2.669.741.092-.14,1.134-.74-.092-.135,1.089-1.466-.181.135-1.089-2.585-.321.142-1.15a11.937,11.937,0,0,0,1.874-2.979Z" transform="translate(-387.588 -397.044)" fill="#383e47"/>
            </g>
            <g id="Group_60391" data-name="Group 60391" transform="translate(0 39.04)">
              <path id="Path_141417" data-name="Path 141417" d="M390.96,408.815l-2.523-.313-.161.8a1.879,1.879,0,0,1,1.177-.207,1.706,1.706,0,0,1,1.62,2.035,1.96,1.96,0,0,1-2.4,1.558c-1.544-.192-2.256-1.017-2.122-2.1l1.358.169a.744.744,0,0,0,.733.843.8.8,0,1,0,.2-1.582.8.8,0,0,0-.789.294l-1.2-.321.593-2.943,3.673.456Z" transform="translate(-386.532 -407.048)" fill="#383e47"/>
            </g>
          </g>
          <g id="Group_60396" data-name="Group 60396" transform="translate(18.079 9.86)">
            <rect id="Rectangle_17942" data-name="Rectangle 17942" width="8.49" height="7.826" transform="matrix(0.129, -0.992, 0.992, 0.129, 0, 8.419)" fill="#a5a7ab"/>
            <rect id="Rectangle_17943" data-name="Rectangle 17943" width="7.084" height="6.53" transform="translate(0.733 7.805) rotate(-82.565)" fill="#f0f0f1"/>
          </g>
          <g id="Group_60400" data-name="Group 60400" transform="translate(16.73 19.763)">
            <rect id="Rectangle_17944" data-name="Rectangle 17944" width="8.49" height="7.826" transform="matrix(0.129, -0.992, 0.992, 0.129, 0, 8.419)" fill="#a5a7ab"/>
            <rect id="Rectangle_17945" data-name="Rectangle 17945" width="7.084" height="6.53" transform="translate(0.733 7.805) rotate(-82.565)" fill="#f0f0f1"/>
          </g>
          <g id="Group_60404" data-name="Group 60404" transform="translate(15.382 29.665)">
            <rect id="Rectangle_17946" data-name="Rectangle 17946" width="8.49" height="7.826" transform="translate(0 8.419) rotate(-82.564)" fill="#a5a7ab"/>
            <rect id="Rectangle_17947" data-name="Rectangle 17947" width="7.084" height="6.53" transform="translate(0.733 7.806) rotate(-82.565)" fill="#f0f0f1"/>
          </g>
          <g id="Group_60408" data-name="Group 60408" transform="translate(14.033 39.568)">
            <rect id="Rectangle_17948" data-name="Rectangle 17948" width="8.49" height="7.826" transform="translate(0 8.419) rotate(-82.564)" fill="#a5a7ab"/>
            <rect id="Rectangle_17949" data-name="Rectangle 17949" width="7.084" height="6.53" transform="translate(0.733 7.806) rotate(-82.565)" fill="#f0f0f1"/>
          </g>
          <g id="Group_60412" data-name="Group 60412" transform="translate(12.685 49.471)">
            <rect id="Rectangle_17950" data-name="Rectangle 17950" width="8.49" height="7.826" transform="translate(0 8.419) rotate(-82.564)" fill="#a5a7ab"/>
            <rect id="Rectangle_17951" data-name="Rectangle 17951" width="7.084" height="6.53" transform="translate(0.733 7.805) rotate(-82.564)" fill="#f0f0f1"/>
          </g>
        </g>
        <path id="Path_141443" data-name="Path 141443" d="M387.514,360.375a2.751,2.751,0,0,0-.33,1.007l-6.708,55.156a2.349,2.349,0,0,0,1.838,2.732l17.262,2.189c.556-.253,1.372-.627,2.093-.964a1.417,1.417,0,0,0,.779-1.631C400.54,411.249,389.428,367.851,387.514,360.375Z" transform="translate(-0.586 -0.087)" fill="#a2a5a9" opacity="0.55" style="mix-blend-mode: multiply;isolation: isolate"/>
        <g id="Group_60420" data-name="Group 60420" transform="translate(350.09 362.315)">
          <g id="Group_60414" data-name="Group 60414">
            <path id="Path_141444" data-name="Path 141444" d="M380.835,362.466l-30.006,7.062a1.039,1.039,0,0,0-.706,1.285l12.78,54.3a1.038,1.038,0,0,0,1.205.835l30.006-7.062a1.039,1.039,0,0,0,.706-1.285l-12.78-54.3A1.038,1.038,0,0,0,380.835,362.466Z" transform="translate(-350.09 -362.443)" fill="#070707"/>
            <rect id="Rectangle_17952" data-name="Rectangle 17952" width="26.823" height="44.236" transform="translate(4.068 12.492) rotate(-13.244)" fill="#a5a7ab"/>
            <rect id="Rectangle_17953" data-name="Rectangle 17953" width="26.823" height="44.236" transform="translate(4.068 12.492) rotate(-13.244)" fill="#b72c74"/>
            <rect id="Rectangle_17954" data-name="Rectangle 17954" width="16.352" height="2.582" transform="translate(12.622 13.982) rotate(-13.244)" fill="#ffd320"/>
            <path id="Path_141445" data-name="Path 141445" d="M369.528,368.2a.382.382,0,1,0,.459.284A.382.382,0,0,0,369.528,368.2Z" transform="translate(-350.459 -362.554)" fill="#d6d6d6"/>
            <path id="Path_141446" data-name="Path 141446" d="M367.729,368.611l-3.588.844a.391.391,0,1,0,.175.744l3.589-.844a.391.391,0,1,0-.175-.744Z" transform="translate(-350.354 -362.561)" fill="#d6d6d6"/>
            <path id="Path_141447" data-name="Path 141447" d="M379.527,418.421l-2.206.519a.284.284,0,0,0-.164.358l.1.449a.282.282,0,0,0,.307.246l2.206-.519a.282.282,0,0,0,.164-.357l-.1-.449A.284.284,0,0,0,379.527,418.421Z" transform="translate(-350.612 -363.523)" fill="#d6d6d6"/>
            <rect id="Rectangle_17955" data-name="Rectangle 17955" width="5.823" height="2.582" transform="translate(16.871 31.046) rotate(-13.244)" fill="#ffd320"/>
            <rect id="Rectangle_17956" data-name="Rectangle 17956" width="10.109" height="2.582" transform="translate(14.747 22.514) rotate(-13.244)" fill="#ffd320"/>
            <rect id="Rectangle_17957" data-name="Rectangle 17957" width="13.363" height="2.582" transform="matrix(0.973, -0.229, 0.229, 0.973, 18.997, 39.348)" fill="#ffd320"/>
            <rect id="Rectangle_17958" data-name="Rectangle 17958" width="8.54" height="2.582" transform="matrix(0.973, -0.229, 0.229, 0.973, 21.121, 47.881)" fill="#ffd320"/>
          </g>
          <g id="Group_60415" data-name="Group 60415" transform="translate(7.84 14.171)">
            <path id="Path_141448" data-name="Path 141448" d="M360.588,379.8l.855-.2.192.838-2.824.649-.193-.837.887-.2-.389-1.693-.887.2-.145-.63a3.924,3.924,0,0,0,1.47-.957l.365-.083Z" transform="translate(-358.084 -376.893)" fill="#fff"/>
          </g>
          <g id="Group_60416" data-name="Group 60416" transform="translate(9.581 22.726)">
            <path id="Path_141449" data-name="Path 141449" d="M362.913,386.472c.186.811-.544,1.4-1.189,2.13l1.638-.377.212.92-3.1.713-.06-.262a1.307,1.307,0,0,1,.3-1.089c.675-.952,1.215-1.4,1.134-1.75-.048-.207-.228-.366-.56-.289a.5.5,0,0,0-.41.633l.025.109-.969.223a.891.891,0,0,1-.032-.119c-.177-.767.241-1.391,1.314-1.637C362.1,385.473,362.757,385.792,362.913,386.472Z" transform="translate(-359.859 -385.616)" fill="#fff"/>
          </g>
          <g id="Group_60417" data-name="Group 60417" transform="translate(11.551 31.222)">
            <path id="Path_141450" data-name="Path 141450" d="M364.834,395.027a.9.9,0,0,1-.354.952l0,.023a.933.933,0,0,1,.865.775c.111.605-.251,1.2-1.329,1.445-1.094.252-1.706-.118-1.843-.711l-.026-.114.958-.221c.056.245.233.416.669.317.419-.1.517-.342.451-.632a.367.367,0,0,0-.471-.3l-.4.091-.153-.669.31-.072a.366.366,0,0,0,.29-.479.448.448,0,0,0-.578-.32c-.326.075-.451.3-.4.528l-.909.209-.03-.136c-.129-.561.3-1.147,1.261-1.367C364.077,394.13,364.706,394.472,364.834,395.027Z" transform="translate(-361.868 -394.279)" fill="#fff"/>
          </g>
          <g id="Group_60418" data-name="Group 60418" transform="translate(13.608 39.685)">
            <path id="Path_141451" data-name="Path 141451" d="M365.566,402.909a5.879,5.879,0,0,1-.851,2.557l1.078-.247-.179-.779a4.6,4.6,0,0,0,.318-1.236l.462-.107.433,1.883.523-.12.184.8-.523.12.177.768-1.035.237-.176-.768-1.823.42-.186-.811a8.592,8.592,0,0,0,.532-2.472Z" transform="translate(-363.966 -402.909)" fill="#fff"/>
          </g>
          <g id="Group_60419" data-name="Group 60419" transform="translate(15.445 48.062)">
            <path id="Path_141452" data-name="Path 141452" d="M368.642,412.377l-1.78.408.087.577a1.348,1.348,0,0,1,.743-.428,1.225,1.225,0,0,1,1.594.975,1.408,1.408,0,0,1-1.239,1.643c-1.089.25-1.772-.131-1.948-.893l.958-.221a.534.534,0,0,0,.7.389.573.573,0,1,0-.251-1.117.577.577,0,0,0-.46.392l-.888.078-.323-2.132,2.59-.6Z" transform="translate(-365.839 -411.451)" fill="#fff"/>
          </g>
        </g>
        <g id="Group_60421" data-name="Group 60421" transform="translate(400.038 367.577)">
          <path id="Path_141453" data-name="Path 141453" d="M418.257,377.5l-2.684-5.376a.773.773,0,0,1,.3-1.051l.131-.073a.772.772,0,0,1,1.051.3l1.657,3.111a.773.773,0,0,0,1.109.266l7.22-4.741a.773.773,0,0,1,1.074.208l.083.124a.774.774,0,0,1-.207,1.074l-8.626,6.425A.774.774,0,0,1,418.257,377.5Z" transform="translate(-415.476 -369.808)" fill="#3ea425"/>
        </g>
        <g id="Group_60423" data-name="Group 60423" transform="translate(399.057 377.384)">
          <path id="Path_141453-2" data-name="Path 141453" d="M418.257,377.5l-2.684-5.376a.773.773,0,0,1,.3-1.051l.131-.073a.772.772,0,0,1,1.051.3l1.657,3.111a.773.773,0,0,0,1.109.266l7.22-4.741a.773.773,0,0,1,1.074.208l.083.124a.774.774,0,0,1-.207,1.074l-8.626,6.425A.774.774,0,0,1,418.257,377.5Z" transform="translate(-415.476 -369.808)" fill="#3ea425"/>
        </g>
        <g id="Group_60424" data-name="Group 60424" transform="translate(397.096 387.191)">
          <path id="Path_141453-3" data-name="Path 141453" d="M418.257,377.5l-2.684-5.376a.773.773,0,0,1,.3-1.051l.131-.073a.772.772,0,0,1,1.051.3l1.657,3.111a.773.773,0,0,0,1.109.266l7.22-4.741a.773.773,0,0,1,1.074.208l.083.124a.774.774,0,0,1-.207,1.074l-8.626,6.425A.774.774,0,0,1,418.257,377.5Z" transform="translate(-415.476 -369.808)" fill="#3ea425"/>
        </g>
      </g>
    </g>
  </g>
</svg>
