<svg id="Delete" xmlns="http://www.w3.org/2000/svg" width="24.009" height="33.154" viewBox="0 0 24.009 33.154">
  <path id="Path_303391" data-name="Path 303391" d="M10,61.308A.334.334,0,0,1,10.356,61H31.875a.334.334,0,0,1,.356.308V86.8a2.09,2.09,0,0,1-2.223,1.926H12.223A2.09,2.09,0,0,1,10,86.8Z" transform="translate(-9.111 -55.576)" fill="#b72c74"/>
  <path id="Path_303392" data-name="Path 303392" d="M0,25.178A.178.178,0,0,1,.178,25H23.831a.178.178,0,0,1,.178.178v1.956a.178.178,0,0,1-.178.178H.178A.178.178,0,0,1,0,27.134Z" transform="translate(0 -22.777)" fill="#b72c74"/>
  <path id="Path_303393" data-name="Path 303393" d="M85.275.736A.889.889,0,0,1,86.151,0h6.589a.889.889,0,0,1,.876.736l.275,1.576H85Z" transform="translate(-77.442)" fill="#b72c74"/>
</svg>
