<svg width="32" height="31" viewBox="0 0 32 31" fill="none" xmlns="http://www.w3.org/2000/svg">
<path d="M6.37488 8.21062e-07C5.60942 -0.00040451 4.85138 0.149268 4.14411 0.440461C3.43684 0.731655 2.79421 1.15866 2.25295 1.69706C1.71169 2.23546 1.28242 2.8747 0.989676 3.57823C0.696936 4.28177 0.546468 5.03579 0.546876 5.79721V25.039C0.546468 25.8004 0.696936 26.5544 0.989676 27.258C1.28242 27.9615 1.71169 28.6008 2.25295 29.1392C2.79421 29.6776 3.43684 30.1046 4.14411 30.3958C4.85138 30.6869 5.60942 30.8366 6.37488 30.8362H25.7189C26.4843 30.8366 27.2424 30.6869 27.9496 30.3958C28.6569 30.1046 29.2995 29.6776 29.8408 29.1392C30.3821 28.6008 30.8113 27.9615 31.1041 27.258C31.3968 26.5544 31.5473 25.8004 31.5469 25.039V5.79721C31.5473 5.03579 31.3968 4.28177 31.1041 3.57823C30.8113 2.8747 30.3821 2.23546 29.8408 1.69706C29.2995 1.15866 28.6569 0.731655 27.9496 0.440461C27.2424 0.149268 26.4843 -0.00040451 25.7189 8.21062e-07H6.37488ZM9.25012 7.23572H22.8436C23.4779 7.23592 24.1059 7.36039 24.6918 7.60201C25.2777 7.84364 25.81 8.19769 26.2584 8.64395C26.7067 9.09021 27.0623 9.61995 27.3048 10.2029C27.5474 10.7859 27.6721 11.4106 27.6719 12.0415V18.7978C27.6719 20.0717 27.1632 21.2934 26.2578 22.1944C25.3524 23.0953 24.1243 23.6016 22.8436 23.602H9.25012C8.61574 23.6018 7.9876 23.4773 7.4016 23.2356C6.8156 22.9939 6.28321 22.6397 5.83485 22.1933C5.38648 21.7468 5.03092 21.2169 4.78848 20.6338C4.54604 20.0506 4.42147 19.4257 4.42188 18.7947V12.0415C4.42188 10.7676 4.93051 9.54588 5.83594 8.64495C6.74137 7.74401 7.96945 7.23613 9.25012 7.23572ZM13.0941 12.0616C13.0293 12.0651 12.9682 12.093 12.9233 12.1397C12.8784 12.1864 12.853 12.2483 12.8523 12.3129V18.5341C12.8518 18.5774 12.8624 18.6202 12.8832 18.6583C12.904 18.6963 12.9343 18.7284 12.9712 18.7515C13.0081 18.7746 13.0503 18.7878 13.0938 18.79C13.1373 18.7921 13.1807 18.7831 13.2197 18.7638L19.5762 15.7465C19.6189 15.7259 19.6551 15.6939 19.6805 15.6541C19.706 15.6143 19.7198 15.5682 19.7205 15.521C19.7211 15.4738 19.7086 15.4273 19.6842 15.3869C19.6598 15.3464 19.6246 15.3134 19.5824 15.2917L13.2259 12.0878C13.1857 12.0672 13.1408 12.0576 13.0957 12.06L13.0941 12.0616Z" fill="white"/>
</svg>
