<svg width="32" height="31" viewBox="0 0 32 31" fill="none" xmlns="http://www.w3.org/2000/svg">
<path d="M4.97545 0C2.53281 0 0.546875 1.97545 0.546875 4.40517V26.431C0.546875 28.8608 2.53281 30.8362 4.97545 30.8362H27.1183C29.5609 30.8362 31.5469 28.8608 31.5469 26.431V4.40517C31.5469 1.97545 29.5609 0 27.1183 0H4.97545ZM25.5337 5.78179L18.3511 13.9451L26.8 25.0544H20.1848L15.0089 18.3159L9.07879 25.0544H5.79196L13.4728 16.3198L5.36987 5.78179H12.1511L16.8357 11.9422L22.2469 5.78179H25.5337ZM22.9181 23.0996L11.1616 7.63334H9.20335L21.0913 23.0996H22.9112H22.9181Z" fill="white"/>
</svg>
