<svg xmlns="http://www.w3.org/2000/svg" xmlns:xlink="http://www.w3.org/1999/xlink" width="30" height="30" viewBox="0 0 30 30">
  <defs>
    <linearGradient id="linear-gradient" x1="0.238" y1="0.102" x2="0.813" y2="0.845" gradientUnits="objectBoundingBox">
      <stop offset="0" stop-color="#fafa08"/>
      <stop offset="1" stop-color="#e8b652"/>
    </linearGradient>
  </defs>
  <path id="Path_295843" data-name="Path 295843" d="M38.635,18.669c-.006-.015-.015-.031-.021-.049l.031.006ZM34.863,31.526l-4.974.208-2.6-4.569,2.691-4.854,5.21.171,2.222,4.539-2.547,4.505ZM21.492,27.1l-2.611-4.723,2.728-4.551,5.565-.086,2.734,4.533-2.688,4.845Zm.116-9.353-2.057-3.541,2.734-3.333,4.769-.153L29.6,13.87l-2.434,3.8ZM19,31.56l-4.408-.432-2.121-4.245,1.852-4.3,4.482-.171,2.611,4.726L19,31.56ZM34.395,14.411l.422-.839a15.06,15.06,0,0,1,3.8,5.047l-1.58-.251Zm-4.72-.569L27.128,10.69c.064-.077.4-.49.407-.5a15.046,15.046,0,0,0-5.734.138c.009.006.34.425.407.511l-2.734,3.333-4.078.686-.364-1.111-.064.018a14.952,14.952,0,0,1,19.788-.251l-.432.857Zm-16.785,4.9-1.714.4.018.073,1.684-.4,1.387,3.7-1.858,4.322a12.039,12.039,0,0,0-2.2-.092,14.731,14.731,0,0,0,3.3,7.679l1.1-3.223,4.4.428,2.78,4.218-1.919,3.125a14.965,14.965,0,0,1-4.9-25.2l.367,1.132-2.44,3.832Zm14.094,17.28,2.287,3.2.064-.046L27.06,36l2.826-4.19,4.971-.205c.1.223,1.374,3.088,1.365,3.088a14.372,14.372,0,0,0,3.53-7.719l-2.281.009-2.226-4.548,1.794-3.988,1.583.254,0-.034A14.967,14.967,0,0,1,19.94,39.006l1.916-3.119ZM19.921,39.04,19.854,39l.012-.021.073.028ZM14.962,13.772l.012,0-.009.009Zm19.809-.282.067.034-.021.049-.061-.055Z" transform="translate(-10 -9.9)" fill="url(#linear-gradient)"/>
</svg>
