<svg width="31" height="32" viewBox="0 0 31 32" fill="none" xmlns="http://www.w3.org/2000/svg">
<path d="M15.4958 10.6308C12.6497 10.6308 10.3271 12.9412 10.3271 15.7723C10.3271 18.6034 12.6497 20.9138 15.4958 20.9138C18.342 20.9138 20.6646 18.6034 20.6646 15.7723C20.6646 12.9412 18.342 10.6308 15.4958 10.6308ZM30.9983 15.7723C30.9983 13.6432 31.0177 11.5334 30.8975 9.40816C30.7773 6.93964 30.2111 4.74883 28.3964 2.94373C26.5779 1.13477 24.3793 0.575492 21.8977 0.455923C19.7573 0.336354 17.6362 0.355639 15.4997 0.355639C13.3593 0.355639 11.2383 0.336354 9.10176 0.455923C6.62013 0.575492 4.41768 1.13862 2.60299 2.94373C0.784418 4.75269 0.222174 6.93964 0.10197 9.40816C-0.0182344 11.5373 0.00115335 13.6471 0.00115335 15.7723C0.00115335 17.8976 -0.0182344 20.0112 0.10197 22.1365C0.222174 24.605 0.788296 26.7958 2.60299 28.6009C4.42156 30.4099 6.62013 30.9691 9.10176 31.0887C11.2422 31.2083 13.3632 31.189 15.4997 31.189C17.6401 31.189 19.7611 31.2083 21.8977 31.0887C24.3793 30.9691 26.5817 30.406 28.3964 28.6009C30.215 26.7919 30.7773 24.605 30.8975 22.1365C31.0215 20.0112 30.9983 17.9014 30.9983 15.7723ZM15.4958 23.6831C11.0948 23.6831 7.54298 20.1501 7.54298 15.7723C7.54298 11.3945 11.0948 7.86148 15.4958 7.86148C19.8969 7.86148 23.4487 11.3945 23.4487 15.7723C23.4487 20.1501 19.8969 23.6831 15.4958 23.6831ZM23.7744 9.38502C22.7468 9.38502 21.9171 8.55961 21.9171 7.53749C21.9171 6.51537 22.7468 5.68995 23.7744 5.68995C24.8019 5.68995 25.6317 6.51537 25.6317 7.53749C25.6321 7.78019 25.5842 8.02058 25.491 8.24487C25.3978 8.46916 25.261 8.67295 25.0884 8.84457C24.9159 9.01619 24.711 9.15227 24.4855 9.245C24.2601 9.33774 24.0184 9.38532 23.7744 9.38502Z" fill="white"/>
</svg>
