<svg width="32" height="32" viewBox="0 0 32 32" fill="none" xmlns="http://www.w3.org/2000/svg">
<path d="M26.9748 0.242188H5.11662C2.60326 0.242188 0.546875 2.28771 0.546875 4.78779V26.5328C0.546875 29.0329 2.60326 31.0784 5.11662 31.0784H26.9771C29.4905 31.0784 31.5469 29.0329 31.5469 26.5328V4.78779C31.5446 2.28771 29.4905 0.242188 26.9748 0.242188ZM26.6812 16.7007H23.0026V29.9397H17.4983V16.7007H14.7451V12.1369H17.4983V9.39816C17.4983 5.67532 19.0521 3.46047 23.4733 3.46047H27.1485V8.02312H24.8499C23.1317 8.02312 23.0174 8.66291 23.0174 9.85272L23.0026 12.1369H27.1668L26.6812 16.7007Z" fill="white"/>
</svg>
