<svg xmlns="http://www.w3.org/2000/svg" width="234.126" height="42.501" viewBox="0 0 234.126 42.501">
  <g id="Boomer11_White" data-name="Boomer11 White" transform="translate(-796.337 -28)">
    <path id="Boomer_logo" data-name="Boomer logo" d="M255.493,289.581l-19.455-8.3-1.983-.847-.668.5c-.038.022-.075.045-.111.07L205,302.42l-4.97,3.6,8.4,3.64.959.434,18.684-14.081-3.718-1.587,5.185-3.822,3.61,1.54.407.173,3.357,1.433-.014.007s2.321.989-.037,3.239l-20.774,16.1,9.09,3.88,11.169-8.645-3.467-1.48,5.185-3.822,3.307,1.412.452.193,3.276,1.4c.048.02,2.472,1.088-.327,3.5l-13.164,10.189,7.2,3.073a1.76,1.76,0,0,0,1.7-.18l13.875-11.535a4.657,4.657,0,0,0,1.55-2.182,3.984,3.984,0,0,0-1.913-4.932l-4.574-1.953,6.653-4.676h0a5.331,5.331,0,0,0,1.728-2.557A4.331,4.331,0,0,0,255.493,289.581Z" transform="translate(596.307 -252.43)" fill="#fff"/>
    <g id="Group_605" data-name="Group 605" transform="translate(8 -0.149)">
      <path id="Path_1054" data-name="Path 1054" d="M1695.831,523.917a8.482,8.482,0,0,0-4.345-1.375,25.473,25.473,0,0,0-3.4-.038q-6.85.247-9.534,5.824a11.128,11.128,0,0,0-.051,9.049,7.264,7.264,0,0,0,2.349,2.941,9.593,9.593,0,0,0,4.332,1.461,22.205,22.205,0,0,0,3.267.057q7.056-.285,9.719-5.881a11.123,11.123,0,0,0,.051-9.049A7.715,7.715,0,0,0,1695.831,523.917Zm-2.845,8.7a4.6,4.6,0,0,1-1.689,2.713q-1.293,1.044-4.561.968-4.006-.323-3-4.629a4.689,4.689,0,0,1,1.689-2.713,7.034,7.034,0,0,1,4.561-.968q2.176.19,2.806,1.328A4.906,4.906,0,0,1,1692.986,532.615Z" transform="translate(-792.217 -480.133)" fill="#fff"/>
      <path id="Path_1055" data-name="Path 1055" d="M2083,526.914a7.711,7.711,0,0,0-2.391-2.988,8.482,8.482,0,0,0-4.345-1.375,25.493,25.493,0,0,0-3.4-.038q-6.85.247-9.534,5.824a11.128,11.128,0,0,0-.051,9.049,7.264,7.264,0,0,0,2.349,2.941,9.594,9.594,0,0,0,4.332,1.461,22.205,22.205,0,0,0,3.267.057q7.056-.285,9.719-5.88A11.125,11.125,0,0,0,2083,526.914Zm-5.235,5.71a4.6,4.6,0,0,1-1.689,2.713q-1.293,1.044-4.561.968-4.006-.323-3-4.629a4.691,4.691,0,0,1,1.689-2.713,7.034,7.034,0,0,1,4.561-.968q2.176.19,2.805,1.328A4.909,4.909,0,0,1,2077.767,532.624Z" transform="translate(-1153.815 -480.142)" fill="#fff"/>
      <path id="Path_1056" data-name="Path 1056" d="M3779.93,489.355h6.223l4.231-22.775h-8.308l-1.313,5.981h2.178Z" transform="translate(-2767.92 -427.616)" fill="#fff"/>
      <path id="Path_1057" data-name="Path 1057" d="M3593.69,489.355h6.224l4.231-22.775h-8.308l-1.314,5.981h2.178Z" transform="translate(-2592.901 -427.616)" fill="#fff"/>
      <path id="Path_1058" data-name="Path 1058" d="M2460.836,526.353a5.228,5.228,0,0,0-4.216-1.973h-2.144l-.018.019h-2.144l-.614,3.7q-1.569-3.718-5.211-3.718h-4.268v.019h-5.653l-3.341,19.274h6.241l2.4-13.981h2.693c.011,0,.02,0,.03,0l1.294.014-.214,1.21v.005l-2.3,12.748h6.222l2.317-12.748a5.931,5.931,0,0,0,.084-1.233h2.713c.011,0,.02,0,.031,0l1.29.014-.21,1.189c0,.009,0,.017,0,.027l-2.3,12.748h6.222l2.316-12.748A5.586,5.586,0,0,0,2460.836,526.353Z" transform="translate(-1502.353 -481.933)" fill="#fff"/>
      <path id="Path_1059" data-name="Path 1059" d="M3293.052,524.39a6.247,6.247,0,0,0-5.7,5.331l-2.383,13.962h6.146l2.151-12.387c0-.014.007-.026.01-.04l.242-1.364h4.639l1.02-5.5Z" transform="translate(-2302.78 -481.943)" fill="#fff"/>
      <path id="Path_1060" data-name="Path 1060" d="M1259.614,421.842a5.754,5.754,0,0,0-4.464-1.992h-17.017l-1.909,11.687-.651,3.8q-.688,4.012-1.723,10.1h19.559q3.946,0,5.168-4.23.075-.285.2-1.005t.252-1.413q.123-.692.147-.882l0-.038a5.263,5.263,0,0,0-1.218-4.135,1.739,1.739,0,0,0-.275-.275q-.192-.161-.372-.3a.6.6,0,0,0-.237-.142,6.092,6.092,0,0,0,1.6-.834,4.79,4.79,0,0,0,1.523-1.688,4,4,0,0,0,.323-.948q.155-.645.276-1.347t.19-1.224q.068-.521.065-.56A5.364,5.364,0,0,0,1259.614,421.842Zm-6.874,15.935q-.013.095-.038.266c-.017.114-.04.237-.069.37s-.049.246-.062.342a.47.47,0,0,1-.036.161.549.549,0,0,1-.079.218,1.374,1.374,0,0,1-.216.3.424.424,0,0,1-.322.142h-10.794q.023-.209.132-.825t.229-1.337q.12-.72.312-1.783h9.011a1.867,1.867,0,0,1,1.487.645A1.771,1.771,0,0,1,1252.74,437.777Zm1.884-10.785-.12.579c-.043.2-.1.455-.165.759a1.517,1.517,0,0,1-.578.968,1.771,1.771,0,0,1-1.113.36h-9.865l.527-3.32c.005-.02.013-.037.019-.057l.1-.569h10.465a.775.775,0,0,1,.588.266.783.783,0,0,1,.215.626C1254.684,426.679,1254.661,426.809,1254.624,426.992Z" transform="translate(-375.23 -383.701)" fill="#fff"/>
      <path id="Path_1061" data-name="Path 1061" d="M2946.913,525.02h-5.861q-6.838.417-9.475,6.128-1.908,5.008-.059,8.935a7.175,7.175,0,0,0,2.336,2.883,8.137,8.137,0,0,0,4.25,1.233l11.426.076.944-5.5h-10.908a2.824,2.824,0,0,1-2.8-1.589h2.63c.022,0,.042.011.064.014h8.026c.207-1.2.673-3.911.907-5.311h-10.453c.11-.11.225-.219.349-.322a5.435,5.435,0,0,1,3.591-1.271h10.054l.936-5.273Z" transform="translate(-1969.766 -482.535)" fill="#fff"/>
    </g>
  </g>
</svg>
