<svg xmlns="http://www.w3.org/2000/svg" width="30.285" height="27.767" viewBox="0 0 30.285 27.767">
  <g id="more_-_fantasy_points" data-name="more - fantasy points" transform="translate(0.104 -20.692)">
    <g id="Group_24455" data-name="Group 24455" transform="translate(12.543 26.345)">
      <g id="Group_24454" data-name="Group 24454">
        <path id="Path_35969" data-name="Path 35969" d="M215.525,117.3v-.91a.974.974,0,0,1,.38.106c.1.05.3.187.439-.05a.316.316,0,0,0-.026-.412,1.344,1.344,0,0,0-.794-.215v-.136c0-.077-.1-.131-.176-.131s-.176.053-.176.129v.145c-.606.08-1,.407-1,1.008,0,.631.467.835,1,1.039v1.029a1.24,1.24,0,0,1-.662-.333.226.226,0,0,0-.349.073.351.351,0,0,0,0,.456,1.313,1.313,0,0,0,1.013.417v.146c0,.075.085.13.176.13s.176-.053.176-.129v-.16a1.053,1.053,0,0,0,.977-1.1C216.5,117.783,216.107,117.516,215.525,117.3Zm-.31-.114c-.311-.124-.414-.225-.414-.419,0-.225.19-.327.414-.362Zm.269,1.711V118c.322.141.388.294.388.476A.423.423,0,0,1,215.483,118.9Z" transform="translate(-214.077 -115.557)" fill="#b72c74" stroke="#b72c74" stroke-width="0.2"/>
      </g>
    </g>
    <g id="Group_24457" data-name="Group 24457" transform="translate(17.278 22.243)">
      <g id="Group_24456" data-name="Group 24456" transform="translate(0 0)">
        <path id="Path_35970" data-name="Path 35970" d="M298.414,45.552a3.53,3.53,0,1,0,3.53,3.53A3.534,3.534,0,0,0,298.414,45.552Zm0,6.182a2.651,2.651,0,1,1,2.651-2.651A2.654,2.654,0,0,1,298.414,51.734Z" transform="translate(-294.884 -45.552)" fill="#b72c74" stroke="#b72c74" stroke-width="0.2"/>
      </g>
    </g>
    <g id="Group_24459" data-name="Group 24459" transform="translate(8.785 20.792)">
      <g id="Group_24458" data-name="Group 24458" transform="translate(0 0)">
        <path id="Path_35971" data-name="Path 35971" d="M166.48,26.37a.44.44,0,0,0-.527.329,4.1,4.1,0,0,1-7.567,1.087,3.508,3.508,0,0,0-.443-1.173,4.1,4.1,0,0,1,8.01-1.767.439.439,0,0,0,.856-.2,4.981,4.981,0,0,0-9.524-.6,4.981,4.981,0,1,0,2.3,6.107,4.977,4.977,0,0,0,5.492-.5,5,5,0,0,0,1.73-2.757A.439.439,0,0,0,166.48,26.37Zm-8.938,1.7a2.653,2.653,0,1,1-.423-1.121A4.952,4.952,0,0,0,157.543,28.075Zm-2.627,4.453a4.1,4.1,0,1,1,2.135-7.6,5.519,5.519,0,0,0-.069.642,3.529,3.529,0,1,0,1.375,3.645,4.98,4.98,0,0,0,.475.438A4.085,4.085,0,0,1,154.915,32.528Z" transform="translate(-149.934 -20.792)" fill="#b72c74" stroke="#b72c74" stroke-width="0.2"/>
      </g>
    </g>
    <g id="Group_24461" data-name="Group 24461" transform="translate(19.586 23.692)">
      <g id="Group_24460" data-name="Group 24460" transform="translate(0 0)">
        <path id="Path_35972" data-name="Path 35972" d="M335.716,72.024v-.91a1.181,1.181,0,0,1,.5.165.232.232,0,0,0,.318-.109.316.316,0,0,0-.026-.412,1.332,1.332,0,0,0-.794-.215v-.136c0-.077-.1-.131-.176-.131s-.176.053-.176.129v.145c-.606.08-1,.407-1,1.008,0,.651.5.848,1,1.039v1.029a1.247,1.247,0,0,1-.662-.333c-.243-.182-.434.139-.434.309a.37.37,0,0,0,.083.22,1.32,1.32,0,0,0,1.013.417v.146c0,.075.085.13.176.13s.176-.053.176-.129v-.16a1.053,1.053,0,0,0,.977-1.1C336.693,72.487,336.276,72.227,335.716,72.024Zm-.31-.114c-.311-.124-.414-.225-.414-.419,0-.225.19-.327.414-.362Zm.269,1.711v-.9c.322.141.388.294.388.476A.423.423,0,0,1,335.675,73.622Z" transform="translate(-334.269 -70.277)" fill="#b72c74" stroke="#b72c74" stroke-width="0.2"/>
      </g>
    </g>
    <g id="Group_24463" data-name="Group 24463" transform="translate(0 30.725)">
      <g id="Group_24462" data-name="Group 24462" transform="translate(0 0)">
        <path id="Path_35973" data-name="Path 35973" d="M29.355,190.9l-.01-.01a2.235,2.235,0,0,0-3.188.232l-4.694,3.892a1.941,1.941,0,0,0-1.892-1.152c-4.372,0-4.961-.079-6,.317l-.012,0-2.978,1.232-.041-.11a.989.989,0,0,0-1.275-.577L7,195.576H7l-6.315,2.38a1.062,1.062,0,0,0-.62,1.369l2.987,7.927a1.062,1.062,0,0,0,1.369.62l6.207-2.339h0L13,204.64a.989.989,0,0,0,.577-1.275l-.039-.1a5.671,5.671,0,0,1,3.2-.745.439.439,0,0,0,0-.879h0a6.386,6.386,0,0,0-3.51.8l-2.339-6.206,3-1.24c.865-.328,1.381-.258,5.683-.258a1.086,1.086,0,0,1,1.016.5,1.434,1.434,0,0,1,.188.553,1.156,1.156,0,0,1-.9,1.108c-1.2.2-3.8.576-3.827.58a.439.439,0,0,0,.062.875.446.446,0,0,0,.063,0c.026,0,2.634-.377,3.85-.583a2,2,0,0,0,1.617-1.757l5.087-4.218.015-.013.02-.019c.506-.473,1.261-.9,1.987-.232a1.432,1.432,0,0,1-.106,1.984l-6.421,6.9-.009.011a3.748,3.748,0,0,1-2.61,1.228h-.807a.439.439,0,0,0,0,.879h.84A4.637,4.637,0,0,0,22.865,201l6.427-6.9,0-.005A2.273,2.273,0,0,0,29.355,190.9ZM4.115,207.05a.184.184,0,0,1-.237-.107L.891,199.016A.184.184,0,0,1,1,198.779l5.8-2.185,3.117,8.271Zm8.64-3.374a.11.11,0,0,1-.065.142l-1.955.737-3.117-8.271,1.955-.737h0a.11.11,0,0,1,.142.064Z" transform="translate(0 -190.31)" fill="#b72c74" stroke="#b72c74" stroke-width="0.2"/>
      </g>
    </g>
  </g>
</svg>
