<svg xmlns="http://www.w3.org/2000/svg" width="20" height="22.186" viewBox="0 0 20 22.186">
  <g id="How_to_Earn_Coins" data-name="How to Earn Coins" transform="translate(-43 -615.814)">
    <path id="Path_140983" data-name="Path 140983" d="M156.215,179.27c-1.111.571-1.739-.489-3.717-.2s-1.545,1.223-6.854,1.141-5.069-1.386-6.42-1.141c-1,.18-1.443.317-1.841.1a1.112,1.112,0,0,1-.178-.123l0,0a2.122,2.122,0,0,1-.248-.256c-.579-.693.628-1.02.483-2.446s.1-3.507,2.655-6.28c2.408-2.61,3.534-3.378,3.938-5.569.025-.136.048-.277.068-.425a3.715,3.715,0,0,0,.031-.4c0-.1,0-.2,0-.293q0-.094-.015-.185a.446.446,0,0,0-.006-.053q0-.035-.009-.069c-.225-1.571-1.437-2.585-1.638-3.606A2.672,2.672,0,0,1,142.4,159c-.022-.855.541-1.079,1.5-.938.06.009.124.02.19.033,1.166.223,3.315,1.005,5.553.619l.077-.014c2.3-.407,2.92-1,3.3-.312a.923.923,0,0,1,.1.321,4.014,4.014,0,0,1-1.648,3.023,2.253,2.253,0,0,0-.859,1.47,2.113,2.113,0,0,0,.167,1.007,3.4,3.4,0,0,0,.214.431,5.231,5.231,0,0,0,.381.558c.821,1.06,3.813,3.629,4.393,6.565s.725,3.1.725,4.4S157.325,178.7,156.215,179.27Z" transform="translate(-93.796 457.787)" fill="#e8b652"/>
    <path id="Path_140987" data-name="Path 140987" d="M204.227,215.543a.236.236,0,0,1-.236-.162.207.207,0,0,1,.187-.241,21.424,21.424,0,0,1,7.03-.053.2.2,0,0,1,.171.25.249.249,0,0,1-.3.144,21.27,21.27,0,0,0-6.807.058A.287.287,0,0,1,204.227,215.543Z" transform="translate(-154.182 405.87)" fill="#4d0874"/>
    <path id="Path_140988" data-name="Path 140988" d="M204.227,219.88a.235.235,0,0,1-.236-.162.207.207,0,0,1,.187-.241,21.424,21.424,0,0,1,7.03-.053.2.2,0,0,1,.171.25.248.248,0,0,1-.3.144,21.271,21.271,0,0,0-6.807.058A.287.287,0,0,1,204.227,219.88Z" transform="translate(-154.182 401.904)" fill="#4d0874"/>
    <path id="Path_140989" data-name="Path 140989" d="M204.227,224.216a.235.235,0,0,1-.236-.162.207.207,0,0,1,.187-.241,21.422,21.422,0,0,1,7.03-.053.2.2,0,0,1,.171.25.248.248,0,0,1-.3.144,21.269,21.269,0,0,0-6.807.058A.287.287,0,0,1,204.227,224.216Z" transform="translate(-154.182 397.938)" fill="#4d0874"/>
    <path id="Path_140990" data-name="Path 140990" d="M252.758,214.616a.223.223,0,0,1-.045,0,.164.164,0,0,1-.143-.2,1.147,1.147,0,0,0-.065-1.022.148.148,0,0,1,.041-.227.216.216,0,0,1,.267.03,1.37,1.37,0,0,1,.132,1.295A.19.19,0,0,1,252.758,214.616Z" transform="translate(-197.755 407.395)" fill="#4d0874"/>
    <path id="Path_140991" data-name="Path 140991" d="M260.581,214.616a.223.223,0,0,1-.045,0,.164.164,0,0,1-.143-.2,1.146,1.146,0,0,0-.065-1.022.148.148,0,0,1,.041-.227.216.216,0,0,1,.267.03,1.37,1.37,0,0,1,.132,1.295A.19.19,0,0,1,260.581,214.616Z" transform="translate(-204.786 407.395)" fill="#4d0874"/>
    <path id="Path_140992" data-name="Path 140992" d="M255.365,229.724a.192.192,0,0,1-.184-.115,4.672,4.672,0,0,1-.234-2.074,2.387,2.387,0,0,0-.154-1.307,1.665,1.665,0,0,1-.192-1.551.21.21,0,0,1,.258-.075.153.153,0,0,1,.089.217,1.463,1.463,0,0,0,.2,1.278,2.63,2.63,0,0,1,.187,1.455,4.437,4.437,0,0,0,.217,1.961.16.16,0,0,1-.128.2A.225.225,0,0,1,255.365,229.724Z" transform="translate(-199.579 396.922)" fill="#4d0874"/>
    <path id="Path_140993" data-name="Path 140993" d="M262.668,231.192a.207.207,0,0,1-.154-.065,4.91,4.91,0,0,1-1.07-3.243,3.994,3.994,0,0,0-.333-1.677c-.666-1.152-.477-1.486-.365-1.576a.219.219,0,0,1,.273.006.145.145,0,0,1,.014.211c-.013.031-.1.306.426,1.216a4.172,4.172,0,0,1,.371,1.8,4.673,4.673,0,0,0,.993,3.064.147.147,0,0,1-.038.228A.216.216,0,0,1,262.668,231.192Zm-1.656-6.325h0Zm0,0h0Z" transform="translate(-205.093 396.921)" fill="#4d0874"/>
    <path id="Path_140994" data-name="Path 140994" d="M276.874,296.291a.62.62,0,1,1-.611-.517A.57.57,0,0,1,276.874,296.291Z" transform="translate(-218.591 331.823)" fill="#4d0874"/>
    <ellipse id="Ellipse_6012" data-name="Ellipse 6012" cx="0.611" cy="0.517" rx="0.611" ry="0.517" transform="translate(55.275 626.129)" fill="#4d0874"/>
    <path id="Path_140995" data-name="Path 140995" d="M256.669,214.616a.224.224,0,0,1-.045,0,.164.164,0,0,1-.143-.2,1.146,1.146,0,0,0-.065-1.022.148.148,0,0,1,.041-.227.216.216,0,0,1,.267.03,1.37,1.37,0,0,1,.132,1.295A.19.19,0,0,1,256.669,214.616Z" transform="translate(-201.271 407.395)" fill="#4d0874"/>
    <path id="Path_140996" data-name="Path 140996" d="M181.4,174.743a9.339,9.339,0,0,0-1.957-1.978c-1.357-1.045-1-1.616-.13-1.875,0,0-.778.435.083,1.162A5.769,5.769,0,0,1,181.4,174.743Z" transform="translate(-131.308 446.024)" fill="#4d0874" opacity="0.29"/>
  </g>
</svg>
