<svg xmlns="http://www.w3.org/2000/svg" xmlns:xlink="http://www.w3.org/1999/xlink" width="180" height="99" viewBox="0 0 180 99">
  <defs>
    <linearGradient id="linear-gradient" x1="-0.164" y1="0.379" x2="-0.007" y2="0.414" gradientUnits="objectBoundingBox">
      <stop offset="0" stop-color="#aa80f9"/>
      <stop offset="0.996" stop-color="#6165d7"/>
    </linearGradient>
    <linearGradient id="linear-gradient-2" x1="0.409" y1="0.374" x2="1.055" y2="1.45" xlink:href="#linear-gradient"/>
    <linearGradient id="linear-gradient-3" x1="0.244" y1="0.028" x2="1.092" y2="1.589" gradientUnits="objectBoundingBox">
      <stop offset="0" stop-color="#444b8c"/>
      <stop offset="0.996" stop-color="#26264f"/>
    </linearGradient>
    <linearGradient id="linear-gradient-4" x1="0.358" y1="-0.161" x2="1.035" y2="0.997" xlink:href="#linear-gradient"/>
    <linearGradient id="linear-gradient-5" x1="0" y1="0.5" x2="1" y2="0.5" xlink:href="#linear-gradient"/>
    <linearGradient id="linear-gradient-6" x1="-0.085" y1="0.5" x2="1.065" y2="0.5" gradientUnits="objectBoundingBox">
      <stop offset="0" stop-color="#fcb148"/>
      <stop offset="0.052" stop-color="#fdb946"/>
      <stop offset="0.142" stop-color="#fec144"/>
      <stop offset="0.318" stop-color="#ffc444"/>
      <stop offset="0.485" stop-color="#fdb946"/>
      <stop offset="0.775" stop-color="#f99c4c"/>
      <stop offset="0.866" stop-color="#f8924f"/>
      <stop offset="1" stop-color="#f8924f"/>
    </linearGradient>
    <linearGradient id="linear-gradient-7" x1="0.495" y1="0.179" x2="0.556" y2="4.091" gradientUnits="objectBoundingBox">
      <stop offset="0" stop-color="#ffdb44"/>
      <stop offset="1" stop-color="#feef06"/>
    </linearGradient>
    <linearGradient id="linear-gradient-8" x1="0.492" y1="-0.777" x2="0.511" y2="1.295" xlink:href="#linear-gradient-7"/>
    <linearGradient id="linear-gradient-9" x1="0.034" y1="-71.649" x2="0.053" y2="-69.217" gradientUnits="objectBoundingBox">
      <stop offset="0.004" stop-color="#f36f56"/>
      <stop offset="0.306" stop-color="#f99c4c"/>
      <stop offset="0.545" stop-color="#fdb946"/>
      <stop offset="0.682" stop-color="#ffc444"/>
      <stop offset="0.804" stop-color="#fec144"/>
      <stop offset="0.867" stop-color="#fdb946"/>
      <stop offset="0.916" stop-color="#fbac49"/>
      <stop offset="0.958" stop-color="#f8994d"/>
      <stop offset="0.995" stop-color="#f58152"/>
      <stop offset="1" stop-color="#f57e53"/>
    </linearGradient>
    <linearGradient id="linear-gradient-11" x1="0.495" y1="0.179" x2="0.556" y2="4.091" xlink:href="#linear-gradient-7"/>
    <linearGradient id="linear-gradient-13" x1="0.316" y1="-68.003" x2="0.335" y2="-65.571" xlink:href="#linear-gradient-9"/>
    <linearGradient id="linear-gradient-17" x1="0.072" y1="-64.368" x2="0.091" y2="-61.936" xlink:href="#linear-gradient-9"/>
    <linearGradient id="linear-gradient-21" x1="-0.075" y1="-60.722" x2="-0.056" y2="-58.29" xlink:href="#linear-gradient-9"/>
    <linearGradient id="linear-gradient-25" x1="0.034" y1="-56.788" x2="0.053" y2="-54.356" xlink:href="#linear-gradient-9"/>
    <linearGradient id="linear-gradient-29" x1="0.316" y1="-53.142" x2="0.335" y2="-50.71" xlink:href="#linear-gradient-9"/>
    <linearGradient id="linear-gradient-33" x1="0.072" y1="-49.507" x2="0.091" y2="-47.075" xlink:href="#linear-gradient-9"/>
    <linearGradient id="linear-gradient-37" x1="0.199" y1="-45.861" x2="0.218" y2="-43.429" xlink:href="#linear-gradient-9"/>
    <linearGradient id="linear-gradient-38" x1="2.083" y1="-0.464" x2="3.787" y2="-0.464" xlink:href="#linear-gradient-6"/>
    <linearGradient id="linear-gradient-39" x1="3.217" y1="-0.656" x2="3.32" y2="-0.036" xlink:href="#linear-gradient-7"/>
    <linearGradient id="linear-gradient-40" x1="3.211" y1="-0.682" x2="3.243" y2="-0.492" xlink:href="#linear-gradient-7"/>
    <linearGradient id="linear-gradient-41" x1="-6.079" y1="-3.298" x2="-6.046" y2="-3.105" xlink:href="#linear-gradient-9"/>
  </defs>
  <g id="Group_65176" data-name="Group 65176" transform="translate(-98 -88)">
    <text id="Welcome_back" data-name="Welcome back" transform="translate(188 180)" fill="#60dcbb" font-size="20" font-family="Avenir-Black, Avenir" font-weight="800"><tspan x="-89.44" y="0">Invite to Challenge</tspan></text>
    <g id="Invite_to_challenge_vector" data-name="Invite to challenge vector" transform="translate(-7369.027 -12043)">
      <g id="invite_to_challenge_img" data-name="invite to challenge img" transform="translate(6877.304 9870.338)">
        <g id="Group_60238" data-name="Group 60238" transform="translate(634.907 2260.662)">
          <g id="Group_60234" data-name="Group 60234" transform="translate(0 0)">
            <path id="Path_141118" data-name="Path 141118" d="M803.931,2316.226a2.436,2.436,0,0,1-2.132,2.5l-82.743,4.9c-1.568.09-3.337-1.2-3.337-2.718v-56.2c0-1.521,1.812-2.8,3.38-2.737l82.7,3.436a2.384,2.384,0,0,1,2.132,2.463Z" transform="translate(-715.719 -2261.893)" fill="url(#linear-gradient)"/>
            <path id="Path_141119" data-name="Path 141119" d="M821.211,2315.083a2.448,2.448,0,0,1-2.142,2.513l-83.628,4.811a2.647,2.647,0,0,1-2.87-2.614v-56.468a2.7,2.7,0,0,1,2.87-2.663l83.628,3.366a2.4,2.4,0,0,1,2.142,2.477Z" transform="translate(-731.465 -2260.661)" fill="url(#linear-gradient-2)"/>
            <g id="Group_60230" data-name="Group 60230" transform="translate(1.107 41.184)">
              <path id="Path_141120" data-name="Path 141120" d="M821.211,2906.557l-88.639,4.412v10.342l88.639-5.05Z" transform="translate(-732.571 -2906.557)" fill="url(#linear-gradient-3)"/>
            </g>
            <path id="Path_141123" data-name="Path 141123" d="M873.573,2264.634l-82.664-3.327c3.731,10.723,9.075,15.526,13.663,17.876,8.737,4.476,15,.2,22.493,6,7.683,5.947,4.759,13.285,12.853,18.231,6.083,3.717,10,.957,16.314,4.318,4.673,2.489,7.592,6.7,9.46,10.925l7.881-.454a2.446,2.446,0,0,0,2.142-2.512V2267.11A2.4,2.4,0,0,0,873.573,2264.634Z" transform="translate(-785.969 -2261.264)" opacity="0.3" fill="url(#linear-gradient-4)" style="mix-blend-mode: multiply;isolation: isolate"/>
            <path id="Path_141124" data-name="Path 141124" d="M1548.861,2689.257l-2.017-1.858-1.914,1.957-2.017-1.857-1.914,1.958-2.017-1.857-1.914,1.957-2.017-1.857-1.914,1.957-2.017-1.857-1.914,1.957-2.017-1.857-1.914,1.958-2.017-1.858-1.914,1.958-2.017-1.857-1.914,1.957-2.577-2.373V2717a2.5,2.5,0,0,1-2.2,2.121l35.673-2.538a2.953,2.953,0,0,0,1.131-.313,2.67,2.67,0,0,0,.582-1.664v-26.545Z" transform="translate(-1460.28 -2660.189)" opacity="0.3" fill="url(#linear-gradient-5)" style="mix-blend-mode: multiply;isolation: isolate"/>
          </g>
          <g id="Group_60237" data-name="Group 60237" transform="translate(55.799 28.095)">
            <path id="Path_141125" data-name="Path 141125" d="M1603.623,2701.276v26.709a2.915,2.915,0,0,1-2.754,2.838l-11.312.8-24.442,1.734a2.4,2.4,0,0,0,2.137-2.121V2701.92l2.628,2.374,1.377-1.382.575-.576,2.024,1.857,1.917-1.957,2.018,1.857,1.915-1.958,2.018,1.857,1.914-1.957,2.017,1.857,1.914-1.958,2.017,1.857,1.914-1.957,2.017,1.857,1.913-1.958,2.017,1.859,1.914-1.959,2.055,1.858Z" transform="translate(-1565.105 -2701.276)" fill="#fff"/>
            <g id="Group_60235" data-name="Group 60235" transform="translate(29.458 6.011)">
              <path id="Path_141126" data-name="Path 141126" d="M2018.254,2944.544l-4.412.193a.545.545,0,0,0-.53.539v1.965a.549.549,0,0,0,.587.539l4.411-.242a.546.546,0,0,0,.524-.538v-1.917A.548.548,0,0,0,2018.254,2944.544Z" transform="translate(-2013.312 -2935.044)" fill="#d8dee8"/>
              <path id="Path_141127" data-name="Path 141127" d="M2018.247,3004.1l-4.411.241a.547.547,0,0,0-.524.538v2.052a.547.547,0,0,0,.59.537l4.412-.273a.546.546,0,0,0,.519-.539v-2.019A.547.547,0,0,0,2018.247,3004.1Z" transform="translate(-2013.312 -2990.796)" fill="#d8dee8"/>
              <path id="Path_141128" data-name="Path 141128" d="M2018.833,2799.6v-3.516a.548.548,0,0,0-.575-.538l-4.411.155a.546.546,0,0,0-.536.538v3.555a.548.548,0,0,0,.58.538l4.412-.193A.546.546,0,0,0,2018.833,2799.6Z" transform="translate(-2013.312 -2795.541)" fill="#d8dee8"/>
            </g>
            <g id="Group_60236" data-name="Group 60236" transform="translate(6.74 6.331)">
              <path id="Path_141129" data-name="Path 141129" d="M1686.044,2950.833l-17.963.786a.546.546,0,0,0-.531.538v2.213a.549.549,0,0,0,.587.539l17.963-.983a.546.546,0,0,0,.524-.539v-2.016A.548.548,0,0,0,1686.044,2950.833Z" transform="translate(-1667.551 -2941.248)" fill="#d8dee8"/>
              <path id="Path_141130" data-name="Path 141130" d="M1686.038,3011.961l-17.963.984a.545.545,0,0,0-.524.537v2.216a.549.549,0,0,0,.591.539l17.964-1.113a.545.545,0,0,0,.52-.537V3012.5A.55.55,0,0,0,1686.038,3011.961Z" transform="translate(-1667.551 -2998.482)" fill="#d8dee8"/>
              <path id="Path_141131" data-name="Path 141131" d="M1686.625,2804.7v-3.6a.549.549,0,0,0-.575-.539l-17.963.628a.547.547,0,0,0-.536.538v3.756a.548.548,0,0,0,.58.538l17.963-.786A.545.545,0,0,0,1686.625,2804.7Z" transform="translate(-1667.551 -2800.562)" fill="#d8dee8"/>
            </g>
            <path id="Path_141132" data-name="Path 141132" d="M1589.4,2741.08l-24.432,1.735a2.414,2.414,0,0,0,2.147-2.121v-29.321l2.629,2.374,1.377-1.382a7.575,7.575,0,0,1,2.327,5.193c.854,8.542,4.977,7.979,9.845,8.3s7.108,5.787,5.138,10.01A4.326,4.326,0,0,0,1589.4,2741.08Z" transform="translate(-1564.97 -2710.729)" fill="#f4f7fa" opacity="0.4" style="mix-blend-mode: multiply;isolation: isolate"/>
          </g>
        </g>
        <g id="Group_60257" data-name="Group 60257" transform="translate(629.224 2292.054)">
          <g id="Group_60240" data-name="Group 60240" transform="translate(4.522 26.012)">
            <path id="Path_141133" data-name="Path 141133" d="M698.188,3193.029v3.5c0,1.13,7.282,2.048,16.265,2.048s16.266-.918,16.266-2.048v-3.5Z" transform="translate(-698.177 -3190.981)" fill="url(#linear-gradient-6)"/>
            <path id="Path_141134" data-name="Path 141134" d="M730.719,3162.95c0,1.132-7.282,2.048-16.266,2.048s-16.265-.917-16.265-2.048,7.282-2.048,16.265-2.048S730.719,3161.819,730.719,3162.95Z" transform="translate(-698.177 -3160.902)" fill="url(#linear-gradient-7)"/>
            <path id="Path_141135" data-name="Path 141135" d="M714.319,3192.5c-7.956,0-16.275-.738-16.275-2.16,0-.078.029-.216.109-.216s.046.107.046.186c0,.9,6.62,1.907,16.12,1.907s16.12-1.006,16.12-1.907c0-.078.014-.152.094-.152s.061.1.061.183C730.594,3191.759,722.274,3192.5,714.319,3192.5Z" transform="translate(-698.044 -3188.258)" fill="url(#linear-gradient-8)"/>
            <g id="Group_60239" data-name="Group 60239" transform="translate(6.029 1.272)">
              <path id="Path_141136" data-name="Path 141136" d="M798.508,3181.747c.16-.107.33-.213.511-.316a3.2,3.2,0,0,1,.7-.282,6.794,6.794,0,0,1,1.072-.207,14.3,14.3,0,0,1,1.606-.084q.943,0,1.77.058a12.568,12.568,0,0,1,1.456.188,4.612,4.612,0,0,1,1.022.308.8.8,0,0,1,.467.42l1.832.018a1.936,1.936,0,0,1,.351.031c.1.02.152.046.152.078v.146l-2.355-.023a1.18,1.18,0,0,1-.631.493,6.594,6.594,0,0,1-1.291.386l-.857-.116a1.023,1.023,0,0,1-.189-.043c-.049-.018-.073-.036-.074-.057s.066-.06.2-.1.283-.082.449-.135a4.5,4.5,0,0,0,.491-.188.666.666,0,0,0,.322-.26l-5.557-.055a5.088,5.088,0,0,1-.491.308,3.3,3.3,0,0,1-.721.272,7.664,7.664,0,0,1-1.118.2,15.973,15.973,0,0,1-1.686.08c-.509,0-1.005-.016-1.491-.055a10.576,10.576,0,0,1-1.294-.18,4.084,4.084,0,0,1-.928-.294c-.241-.117-.376-.253-.4-.4l-1.508-.016a2.1,2.1,0,0,1-.356-.03c-.1-.02-.157-.046-.157-.079v-.146l2.062.019a1.1,1.1,0,0,1,.563-.4,6.577,6.577,0,0,1,1.046-.305l.691.092c.209.028.313.062.314.1,0,.021-.042.046-.129.078s-.191.067-.31.109a2.852,2.852,0,0,0-.343.151.722.722,0,0,0-.251.195Zm-5.086.2a.54.54,0,0,0,.274.249,2.23,2.23,0,0,0,.524.17,5.289,5.289,0,0,0,.706.1c.262.02.537.031.823.03a8.7,8.7,0,0,0,.874-.042,5.2,5.2,0,0,0,.654-.109,3.058,3.058,0,0,0,.492-.156,2.761,2.761,0,0,0,.375-.195Zm12.1-.13a.566.566,0,0,0-.3-.256,2.732,2.732,0,0,0-.6-.184,6.727,6.727,0,0,0-.854-.111c-.324-.024-.682-.036-1.073-.034a8.5,8.5,0,0,0-.9.044,4.867,4.867,0,0,0-.653.116,2.463,2.463,0,0,0-.47.168,3.751,3.751,0,0,0-.36.207Z" transform="translate(-789.799 -3180.857)" fill="#fcb048"/>
            </g>
            <path id="Path_141137" data-name="Path 141137" d="M718.095,3164.381c-7.253,0-14.8.619-16.012,1.818a1.421,1.421,0,0,1,.132.136c1.018-.833,7.253-1.671,15.88-1.671,8.848,0,15.183.882,15.95,1.735a1.412,1.412,0,0,1,.122-.134C733.169,3165.024,725.476,3164.381,718.095,3164.381Z" transform="translate(-701.818 -3164.161)" fill="url(#linear-gradient-9)"/>
          </g>
          <g id="Group_60242" data-name="Group 60242" transform="translate(0 22.334)">
            <path id="Path_141138" data-name="Path 141138" d="M629.369,3135.353v3.5c0,1.131,7.282,2.049,16.265,2.049s16.266-.917,16.266-2.049v-3.5Z" transform="translate(-629.358 -3133.305)" fill="url(#linear-gradient-6)"/>
            <path id="Path_141139" data-name="Path 141139" d="M661.9,3105.276c0,1.131-7.282,2.048-16.266,2.048s-16.265-.917-16.265-2.048,7.282-2.049,16.265-2.049S661.9,3104.145,661.9,3105.276Z" transform="translate(-629.358 -3103.227)" fill="url(#linear-gradient-11)"/>
            <path id="Path_141140" data-name="Path 141140" d="M645.5,3134.819c-7.955,0-16.274-.738-16.274-2.16,0-.078.029-.215.109-.215s.046.107.046.185c0,.9,6.62,1.907,16.12,1.907s16.12-1.005,16.12-1.907c0-.078.014-.151.095-.151s.061.1.061.182C661.774,3134.082,653.455,3134.819,645.5,3134.819Z" transform="translate(-629.224 -3130.582)" fill="url(#linear-gradient-8)"/>
            <g id="Group_60241" data-name="Group 60241" transform="translate(6.029 1.272)">
              <path id="Path_141141" data-name="Path 141141" d="M729.688,3124.071c.16-.107.329-.213.511-.317a3.152,3.152,0,0,1,.7-.282,6.716,6.716,0,0,1,1.072-.207,14.248,14.248,0,0,1,1.606-.083q.943-.005,1.77.057a12.506,12.506,0,0,1,1.456.188,4.563,4.563,0,0,1,1.022.307.8.8,0,0,1,.467.421l1.831.017a1.885,1.885,0,0,1,.351.032c.1.02.152.046.152.077v.146l-2.355-.023a1.178,1.178,0,0,1-.631.493,6.6,6.6,0,0,1-1.291.386l-.857-.116a.951.951,0,0,1-.189-.044c-.049-.017-.073-.035-.073-.056s.066-.061.2-.1.283-.082.449-.135a4.36,4.36,0,0,0,.491-.188.654.654,0,0,0,.322-.26l-5.557-.053a5.1,5.1,0,0,1-.491.308,3.3,3.3,0,0,1-.721.272,7.729,7.729,0,0,1-1.118.2,16.19,16.19,0,0,1-1.686.079c-.51,0-1.005-.017-1.491-.055a10.381,10.381,0,0,1-1.294-.18,4.017,4.017,0,0,1-.928-.294c-.241-.117-.376-.253-.4-.4l-1.508-.016a1.916,1.916,0,0,1-.356-.03c-.1-.02-.157-.045-.157-.078v-.147l2.061.019a1.1,1.1,0,0,1,.564-.4,6.578,6.578,0,0,1,1.046-.305l.69.092c.21.029.314.062.314.1,0,.021-.042.046-.129.077s-.19.068-.31.11a2.757,2.757,0,0,0-.343.151.711.711,0,0,0-.251.195Zm-5.086.2a.541.541,0,0,0,.274.249,2.244,2.244,0,0,0,.524.171,5.411,5.411,0,0,0,.706.1c.262.021.537.031.823.03q.5,0,.874-.04a5.3,5.3,0,0,0,.654-.109,3.16,3.16,0,0,0,.491-.157,2.884,2.884,0,0,0,.375-.2Zm12.1-.13a.564.564,0,0,0-.3-.257,2.838,2.838,0,0,0-.6-.184,6.78,6.78,0,0,0-.854-.11q-.486-.037-1.073-.034a8.41,8.41,0,0,0-.9.045,4.833,4.833,0,0,0-.654.115,2.473,2.473,0,0,0-.469.168,3.514,3.514,0,0,0-.36.207Z" transform="translate(-720.979 -3123.181)" fill="#fcb048"/>
            </g>
            <path id="Path_141142" data-name="Path 141142" d="M649.274,3106.7c-7.253,0-14.8.619-16.012,1.818a1.519,1.519,0,0,1,.132.135c1.018-.832,7.254-1.671,15.88-1.671,8.848,0,15.183.882,15.95,1.734a1.6,1.6,0,0,1,.122-.133C664.348,3107.347,656.655,3106.7,649.274,3106.7Z" transform="translate(-632.997 -3106.484)" fill="url(#linear-gradient-13)"/>
          </g>
          <g id="Group_60244" data-name="Group 60244" transform="translate(3.902 18.667)">
            <path id="Path_141143" data-name="Path 141143" d="M688.75,3077.845v3.5c0,1.132,7.283,2.049,16.265,2.049s16.266-.917,16.266-2.049v-3.5Z" transform="translate(-688.739 -3075.797)" fill="url(#linear-gradient-6)"/>
            <path id="Path_141144" data-name="Path 141144" d="M721.281,3047.767c0,1.131-7.282,2.049-16.266,2.049s-16.265-.917-16.265-2.049,7.283-2.049,16.265-2.049S721.281,3046.636,721.281,3047.767Z" transform="translate(-688.739 -3045.718)" fill="url(#linear-gradient-11)"/>
            <path id="Path_141145" data-name="Path 141145" d="M704.882,3077.313c-7.956,0-16.275-.737-16.275-2.161,0-.078.029-.215.109-.215s.046.107.046.187c0,.9,6.62,1.906,16.12,1.906s16.12-1,16.12-1.906c0-.079.014-.152.094-.152s.061.1.061.182C721.157,3076.576,712.837,3077.313,704.882,3077.313Z" transform="translate(-688.607 -3073.075)" fill="url(#linear-gradient-8)"/>
            <g id="Group_60243" data-name="Group 60243" transform="translate(6.029 1.272)">
              <path id="Path_141146" data-name="Path 141146" d="M789.071,3066.564c.16-.107.329-.212.511-.317a3.327,3.327,0,0,1,.7-.283,7.045,7.045,0,0,1,1.072-.205,13.679,13.679,0,0,1,1.606-.084q.943,0,1.771.058a12.609,12.609,0,0,1,1.456.186,4.706,4.706,0,0,1,1.022.308.8.8,0,0,1,.467.421l1.831.018a1.789,1.789,0,0,1,.351.032c.1.02.152.046.152.076v.145l-2.354-.021a1.174,1.174,0,0,1-.631.491,6.519,6.519,0,0,1-1.291.386l-.858-.115a.976.976,0,0,1-.189-.045c-.049-.016-.073-.035-.073-.057s.066-.059.2-.1.282-.08.449-.134a4.6,4.6,0,0,0,.491-.189.664.664,0,0,0,.322-.258l-5.557-.054a5.128,5.128,0,0,1-.491.306,3.306,3.306,0,0,1-.721.273,7.878,7.878,0,0,1-1.118.2,16.331,16.331,0,0,1-1.686.079c-.509,0-1.005-.016-1.491-.055a10.532,10.532,0,0,1-1.294-.179,4.126,4.126,0,0,1-.928-.295c-.241-.118-.376-.252-.4-.4l-1.508-.015a1.957,1.957,0,0,1-.356-.031c-.1-.019-.157-.046-.157-.077v-.146l2.061.018a1.108,1.108,0,0,1,.564-.4,6.549,6.549,0,0,1,1.046-.305l.69.092c.21.029.314.06.314.1,0,.021-.042.047-.129.076l-.31.111a2.778,2.778,0,0,0-.343.15.729.729,0,0,0-.251.194Zm-5.086.2a.54.54,0,0,0,.274.247,2.214,2.214,0,0,0,.524.172,5.59,5.59,0,0,0,.706.1q.394.031.823.03.5,0,.874-.042a5.128,5.128,0,0,0,.654-.108,3.311,3.311,0,0,0,.492-.157,2.969,2.969,0,0,0,.375-.195Zm12.1-.132a.559.559,0,0,0-.3-.255,2.762,2.762,0,0,0-.6-.184,6.668,6.668,0,0,0-.854-.112q-.486-.037-1.073-.034a8.756,8.756,0,0,0-.9.045,4.992,4.992,0,0,0-.654.115,2.468,2.468,0,0,0-.469.169,3.331,3.331,0,0,0-.36.206Z" transform="translate(-780.362 -3065.674)" fill="#fcb048"/>
            </g>
            <path id="Path_141147" data-name="Path 141147" d="M708.656,3049.2c-7.252,0-14.8.619-16.012,1.817a1.523,1.523,0,0,1,.132.136c1.018-.833,7.253-1.671,15.88-1.671,8.848,0,15.183.882,15.951,1.735a1.51,1.51,0,0,1,.122-.134C723.731,3049.84,716.038,3049.2,708.656,3049.2Z" transform="translate(-692.38 -3048.978)" fill="url(#linear-gradient-17)"/>
          </g>
          <g id="Group_60246" data-name="Group 60246" transform="translate(6.269 14.99)">
            <path id="Path_141148" data-name="Path 141148" d="M724.786,3020.169v3.5c0,1.131,7.282,2.049,16.265,2.049s16.265-.917,16.265-2.049v-3.5Z" transform="translate(-724.776 -3018.121)" fill="url(#linear-gradient-6)"/>
            <ellipse id="Ellipse_6019" data-name="Ellipse 6019" cx="16.265" cy="2.048" rx="16.265" ry="2.048" transform="translate(0.01)" fill="url(#linear-gradient-11)"/>
            <path id="Path_141149" data-name="Path 141149" d="M740.916,3019.636c-7.956,0-16.275-.737-16.275-2.16,0-.078.029-.215.109-.215s.046.108.046.186c0,.9,6.62,1.907,16.12,1.907s16.12-1.005,16.12-1.907c0-.078.013-.151.094-.151s.061.1.061.182C757.191,3018.9,748.871,3019.636,740.916,3019.636Z" transform="translate(-724.641 -3015.399)" fill="url(#linear-gradient-8)"/>
            <g id="Group_60245" data-name="Group 60245" transform="translate(6.029 1.272)">
              <path id="Path_141150" data-name="Path 141150" d="M825.106,3008.888c.159-.106.329-.213.511-.317a3.246,3.246,0,0,1,.7-.282,6.838,6.838,0,0,1,1.072-.205,13.709,13.709,0,0,1,1.606-.085q.943,0,1.77.058a12.513,12.513,0,0,1,1.456.188,4.627,4.627,0,0,1,1.022.307.8.8,0,0,1,.467.421l1.831.017a1.913,1.913,0,0,1,.351.031c.1.021.152.047.152.077v.146l-2.355-.022a1.175,1.175,0,0,1-.631.491,6.482,6.482,0,0,1-1.291.387l-.857-.115a1.013,1.013,0,0,1-.189-.043c-.049-.017-.073-.037-.073-.057s.066-.06.2-.1.282-.081.449-.134a4.877,4.877,0,0,0,.491-.189.661.661,0,0,0,.322-.26l-5.557-.054a5.076,5.076,0,0,1-.491.307,3.276,3.276,0,0,1-.721.272,7.708,7.708,0,0,1-1.118.2,16.287,16.287,0,0,1-1.686.08c-.51,0-1.005-.016-1.491-.056a10.44,10.44,0,0,1-1.294-.179,4.145,4.145,0,0,1-.928-.294c-.241-.118-.376-.252-.4-.4l-1.508-.015a2.139,2.139,0,0,1-.356-.031c-.1-.02-.157-.046-.157-.078v-.146l2.061.019a1.11,1.11,0,0,1,.564-.4,6.691,6.691,0,0,1,1.046-.3l.691.092c.21.029.314.062.314.1,0,.021-.042.047-.129.077l-.31.11a2.794,2.794,0,0,0-.343.151.725.725,0,0,0-.251.194Zm-5.086.2a.539.539,0,0,0,.274.248,2.2,2.2,0,0,0,.524.171,5.591,5.591,0,0,0,.706.1c.263.021.537.031.823.029a8.7,8.7,0,0,0,.873-.042,5.227,5.227,0,0,0,.654-.107,3.064,3.064,0,0,0,.491-.157,2.709,2.709,0,0,0,.376-.2Zm12.1-.131a.564.564,0,0,0-.3-.255,2.712,2.712,0,0,0-.6-.184,6.587,6.587,0,0,0-.854-.112q-.486-.037-1.073-.034a8.532,8.532,0,0,0-.9.045,4.789,4.789,0,0,0-.654.115,2.416,2.416,0,0,0-.469.168,3.2,3.2,0,0,0-.36.206Z" transform="translate(-816.397 -3007.998)" fill="#fcb048"/>
            </g>
            <path id="Path_141151" data-name="Path 141151" d="M744.691,2991.522c-7.253,0-14.8.62-16.012,1.818a1.52,1.52,0,0,1,.132.136c1.018-.833,7.253-1.671,15.88-1.671,8.848,0,15.183.882,15.951,1.735a1.438,1.438,0,0,1,.122-.134C759.765,2992.165,752.072,2991.522,744.691,2991.522Z" transform="translate(-728.414 -2991.302)" fill="url(#linear-gradient-21)"/>
          </g>
          <g id="Group_60248" data-name="Group 60248" transform="translate(4.522 11.022)">
            <path id="Path_141152" data-name="Path 141152" d="M698.188,2957.945v3.5c0,1.131,7.282,2.048,16.265,2.048s16.266-.918,16.266-2.048v-3.5Z" transform="translate(-698.177 -2955.896)" fill="url(#linear-gradient-6)"/>
            <path id="Path_141153" data-name="Path 141153" d="M730.719,2927.867c0,1.131-7.282,2.049-16.266,2.049s-16.265-.918-16.265-2.049,7.282-2.049,16.265-2.049S730.719,2926.735,730.719,2927.867Z" transform="translate(-698.177 -2925.818)" fill="url(#linear-gradient-7)"/>
            <path id="Path_141154" data-name="Path 141154" d="M714.319,2957.411c-7.956,0-16.275-.738-16.275-2.161,0-.077.029-.216.109-.216s.046.108.046.186c0,.9,6.62,1.907,16.12,1.907s16.12-1,16.12-1.907c0-.078.014-.152.094-.152s.061.1.061.182C730.594,2956.674,722.274,2957.411,714.319,2957.411Z" transform="translate(-698.044 -2953.174)" fill="url(#linear-gradient-8)"/>
            <g id="Group_60247" data-name="Group 60247" transform="translate(6.029 1.272)">
              <path id="Path_141155" data-name="Path 141155" d="M798.508,2946.663c.16-.107.33-.213.511-.316a3.173,3.173,0,0,1,.7-.283,6.783,6.783,0,0,1,1.072-.206,13.951,13.951,0,0,1,1.606-.084q.943,0,1.77.058a12.75,12.75,0,0,1,1.456.187,4.661,4.661,0,0,1,1.022.309.8.8,0,0,1,.467.421l1.832.017a1.887,1.887,0,0,1,.351.032c.1.021.152.046.152.077v.146l-2.355-.022a1.178,1.178,0,0,1-.631.492,6.529,6.529,0,0,1-1.291.386l-.857-.115a.992.992,0,0,1-.189-.044c-.049-.016-.073-.035-.074-.057s.066-.061.2-.1.283-.081.449-.135a4.713,4.713,0,0,0,.491-.189.657.657,0,0,0,.322-.26l-5.557-.053a5.087,5.087,0,0,1-.491.307,3.271,3.271,0,0,1-.721.272,7.764,7.764,0,0,1-1.118.2,16.174,16.174,0,0,1-1.686.08c-.509,0-1.005-.016-1.491-.056a10.349,10.349,0,0,1-1.294-.179,4.12,4.12,0,0,1-.928-.294c-.241-.117-.376-.252-.4-.4l-1.508-.016a1.958,1.958,0,0,1-.356-.03c-.1-.02-.157-.045-.157-.078v-.146l2.062.018a1.109,1.109,0,0,1,.563-.4,6.581,6.581,0,0,1,1.046-.3l.691.092c.209.029.313.062.314.1,0,.021-.042.047-.129.077s-.191.067-.31.111a2.571,2.571,0,0,0-.343.15.718.718,0,0,0-.251.194Zm-5.086.2a.54.54,0,0,0,.274.248,2.206,2.206,0,0,0,.524.171,5.5,5.5,0,0,0,.706.1q.393.032.823.031c.334,0,.625-.016.874-.042a5.16,5.16,0,0,0,.654-.108,3.105,3.105,0,0,0,.492-.157,2.818,2.818,0,0,0,.375-.2Zm12.1-.132a.563.563,0,0,0-.3-.256,2.785,2.785,0,0,0-.6-.184,6.686,6.686,0,0,0-.854-.111q-.486-.037-1.073-.035a8.6,8.6,0,0,0-.9.046,4.834,4.834,0,0,0-.653.115,2.478,2.478,0,0,0-.47.168,3.464,3.464,0,0,0-.36.207Z" transform="translate(-789.799 -2945.773)" fill="#fcb048"/>
            </g>
            <path id="Path_141156" data-name="Path 141156" d="M718.095,2929.295c-7.253,0-14.8.619-16.012,1.819a1.47,1.47,0,0,1,.132.135c1.018-.833,7.253-1.67,15.88-1.67,8.848,0,15.183.882,15.95,1.734a1.585,1.585,0,0,1,.122-.134C733.169,2929.937,725.476,2929.295,718.095,2929.295Z" transform="translate(-701.818 -2929.075)" fill="url(#linear-gradient-25)"/>
          </g>
          <g id="Group_60250" data-name="Group 60250" transform="translate(0 7.344)">
            <path id="Path_141157" data-name="Path 141157" d="M629.369,2900.268v3.5c0,1.132,7.282,2.049,16.265,2.049s16.266-.916,16.266-2.049v-3.5Z" transform="translate(-629.358 -2898.22)" fill="url(#linear-gradient-6)"/>
            <ellipse id="Ellipse_6020" data-name="Ellipse 6020" cx="16.265" cy="2.048" rx="16.265" ry="2.048" transform="translate(0.01)" fill="url(#linear-gradient-11)"/>
            <path id="Path_141158" data-name="Path 141158" d="M645.5,2899.735c-7.955,0-16.274-.738-16.274-2.161,0-.078.029-.215.109-.215s.046.108.046.186c0,.9,6.62,1.907,16.12,1.907s16.12-1,16.12-1.907c0-.079.014-.152.095-.152s.061.1.061.182C661.774,2899,653.455,2899.735,645.5,2899.735Z" transform="translate(-629.224 -2895.498)" fill="url(#linear-gradient-8)"/>
            <g id="Group_60249" data-name="Group 60249" transform="translate(6.029 1.272)">
              <path id="Path_141159" data-name="Path 141159" d="M729.688,2888.988c.16-.106.329-.213.511-.318a3.34,3.34,0,0,1,.7-.282,6.959,6.959,0,0,1,1.072-.206,13.726,13.726,0,0,1,1.606-.084q.943,0,1.77.058a12.69,12.69,0,0,1,1.456.187,4.675,4.675,0,0,1,1.022.308.8.8,0,0,1,.467.421l1.831.018a1.85,1.85,0,0,1,.351.031c.1.021.152.046.152.076v.146l-2.355-.022a1.171,1.171,0,0,1-.631.492,6.463,6.463,0,0,1-1.291.386l-.857-.115a.994.994,0,0,1-.189-.043c-.049-.017-.073-.036-.073-.057s.066-.06.2-.1.283-.081.449-.134a4.609,4.609,0,0,0,.491-.188.661.661,0,0,0,.322-.259l-5.557-.054a4.872,4.872,0,0,1-.491.307,3.242,3.242,0,0,1-.721.273,7.713,7.713,0,0,1-1.118.2,16.038,16.038,0,0,1-1.686.08c-.51,0-1.005-.015-1.491-.055a10.344,10.344,0,0,1-1.294-.179,4.113,4.113,0,0,1-.928-.294c-.241-.117-.376-.252-.4-.4l-1.508-.016a2.025,2.025,0,0,1-.356-.03c-.1-.02-.157-.046-.157-.077v-.146l2.061.018a1.1,1.1,0,0,1,.564-.4,6.523,6.523,0,0,1,1.046-.306l.69.093c.21.028.314.061.314.1,0,.021-.042.047-.129.077s-.19.067-.31.111a2.9,2.9,0,0,0-.343.15.728.728,0,0,0-.251.195Zm-5.086.2a.541.541,0,0,0,.274.248,2.242,2.242,0,0,0,.524.172,5.58,5.58,0,0,0,.706.1c.262.021.537.031.823.03q.5,0,.874-.042a5.054,5.054,0,0,0,.654-.108,3.215,3.215,0,0,0,.491-.156,2.977,2.977,0,0,0,.375-.195Zm12.1-.132a.564.564,0,0,0-.3-.256,2.785,2.785,0,0,0-.6-.184,6.8,6.8,0,0,0-.854-.111q-.486-.037-1.073-.033a8.423,8.423,0,0,0-.9.045,4.911,4.911,0,0,0-.654.115,2.528,2.528,0,0,0-.469.168,3.426,3.426,0,0,0-.36.207Z" transform="translate(-720.979 -2888.098)" fill="#fcb048"/>
            </g>
            <path id="Path_141160" data-name="Path 141160" d="M649.274,2871.621c-7.253,0-14.8.619-16.012,1.817a1.461,1.461,0,0,1,.132.135c1.018-.833,7.254-1.671,15.88-1.671,8.848,0,15.183.882,15.95,1.734a1.486,1.486,0,0,1,.122-.133C664.348,2872.262,656.655,2871.621,649.274,2871.621Z" transform="translate(-632.997 -2871.401)" fill="url(#linear-gradient-29)"/>
          </g>
          <g id="Group_60252" data-name="Group 60252" transform="translate(3.902 3.678)">
            <path id="Path_141161" data-name="Path 141161" d="M688.75,2842.762v3.5c0,1.133,7.283,2.049,16.265,2.049s16.266-.916,16.266-2.049v-3.5Z" transform="translate(-688.739 -2840.714)" fill="url(#linear-gradient-6)"/>
            <ellipse id="Ellipse_6021" data-name="Ellipse 6021" cx="16.265" cy="2.048" rx="16.265" ry="2.048" transform="translate(0.009)" fill="url(#linear-gradient-11)"/>
            <path id="Path_141162" data-name="Path 141162" d="M704.882,2842.227c-7.956,0-16.275-.737-16.275-2.161,0-.077.029-.215.109-.215s.046.108.046.186c0,.9,6.62,1.907,16.12,1.907s16.12-1,16.12-1.907c0-.078.014-.152.094-.152s.061.1.061.182C721.157,2841.491,712.837,2842.227,704.882,2842.227Z" transform="translate(-688.607 -2837.99)" fill="url(#linear-gradient-8)"/>
            <g id="Group_60251" data-name="Group 60251" transform="translate(6.029 1.272)">
              <path id="Path_141163" data-name="Path 141163" d="M789.071,2831.481c.16-.108.329-.213.511-.318a3.291,3.291,0,0,1,.7-.282,6.829,6.829,0,0,1,1.072-.206,14.335,14.335,0,0,1,1.606-.084q.943,0,1.771.058a12.408,12.408,0,0,1,1.456.189,4.566,4.566,0,0,1,1.022.307.8.8,0,0,1,.467.42l1.831.018a1.958,1.958,0,0,1,.351.031c.1.021.152.046.152.077v.147l-2.354-.023a1.18,1.18,0,0,1-.631.492,6.5,6.5,0,0,1-1.291.387l-.858-.117a1,1,0,0,1-.189-.043c-.049-.017-.073-.036-.073-.057s.066-.06.2-.1.282-.081.449-.135a4.3,4.3,0,0,0,.491-.188.667.667,0,0,0,.322-.259l-5.557-.055a5.08,5.08,0,0,1-.491.308,3.3,3.3,0,0,1-.721.272,7.767,7.767,0,0,1-1.118.2,16.226,16.226,0,0,1-1.686.08c-.509,0-1.005-.016-1.491-.056a10.251,10.251,0,0,1-1.294-.18,4.132,4.132,0,0,1-.928-.293c-.241-.118-.376-.253-.4-.4l-1.508-.016a1.96,1.96,0,0,1-.356-.03c-.1-.02-.157-.045-.157-.078v-.146l2.061.019a1.1,1.1,0,0,1,.564-.4,6.5,6.5,0,0,1,1.046-.306l.69.092c.21.029.314.062.314.1,0,.021-.042.047-.129.078s-.191.067-.31.11a2.749,2.749,0,0,0-.343.151.71.71,0,0,0-.251.195Zm-5.086.2a.543.543,0,0,0,.274.248,2.226,2.226,0,0,0,.524.171,5.5,5.5,0,0,0,.706.1q.394.031.823.029a8.48,8.48,0,0,0,.874-.042,5.083,5.083,0,0,0,.654-.108,3.122,3.122,0,0,0,.492-.157,2.788,2.788,0,0,0,.375-.194Zm12.1-.131a.565.565,0,0,0-.3-.256,2.761,2.761,0,0,0-.6-.184,6.9,6.9,0,0,0-.854-.111q-.486-.037-1.073-.034a8.756,8.756,0,0,0-.9.045,4.876,4.876,0,0,0-.654.115,2.437,2.437,0,0,0-.469.168,3.461,3.461,0,0,0-.36.207Z" transform="translate(-780.362 -2830.591)" fill="#fcb048"/>
            </g>
            <path id="Path_141164" data-name="Path 141164" d="M708.656,2814.113c-7.252,0-14.8.619-16.012,1.817a1.553,1.553,0,0,1,.132.136c1.018-.833,7.253-1.671,15.88-1.671,8.848,0,15.183.882,15.951,1.734a1.465,1.465,0,0,1,.122-.133C723.731,2814.756,716.038,2814.113,708.656,2814.113Z" transform="translate(-692.38 -2813.893)" fill="url(#linear-gradient-33)"/>
          </g>
          <g id="Group_60254" data-name="Group 60254" transform="translate(1.872 0)">
            <path id="Path_141165" data-name="Path 141165" d="M657.864,2785.086v3.5c0,1.132,7.282,2.049,16.266,2.049s16.265-.917,16.265-2.049v-3.5Z" transform="translate(-657.854 -2783.038)" fill="url(#linear-gradient-6)"/>
            <ellipse id="Ellipse_6022" data-name="Ellipse 6022" cx="16.265" cy="2.048" rx="16.265" ry="2.048" transform="translate(0.009)" fill="url(#linear-gradient-11)"/>
            <path id="Path_141166" data-name="Path 141166" d="M673.995,2784.552c-7.956,0-16.275-.738-16.275-2.16,0-.078.029-.215.109-.215s.046.108.046.185c0,.9,6.62,1.907,16.12,1.907s16.12-1,16.12-1.907c0-.077.013-.151.094-.151s.061.1.061.182C690.27,2783.815,681.95,2784.552,673.995,2784.552Z" transform="translate(-657.72 -2780.316)" fill="url(#linear-gradient-8)"/>
            <g id="Group_60253" data-name="Group 60253" transform="translate(6.029 1.272)">
              <path id="Path_141167" data-name="Path 141167" d="M758.183,2773.805c.16-.108.329-.213.511-.318a3.247,3.247,0,0,1,.7-.282,6.829,6.829,0,0,1,1.072-.206,14.1,14.1,0,0,1,1.606-.085q.943,0,1.77.059a12.356,12.356,0,0,1,1.456.188,4.542,4.542,0,0,1,1.022.307.8.8,0,0,1,.467.42l1.831.018a1.816,1.816,0,0,1,.351.031c.1.021.152.045.152.078v.146l-2.354-.022a1.178,1.178,0,0,1-.631.491,6.437,6.437,0,0,1-1.291.388l-.858-.116a1.041,1.041,0,0,1-.189-.044c-.05-.018-.073-.037-.074-.057s.066-.061.2-.1.282-.082.449-.135a4.559,4.559,0,0,0,.491-.188.666.666,0,0,0,.323-.26l-5.558-.054a5.4,5.4,0,0,1-.491.308,3.266,3.266,0,0,1-.721.272,7.817,7.817,0,0,1-1.118.2,16.27,16.27,0,0,1-1.687.081c-.509,0-1-.017-1.491-.057a10.316,10.316,0,0,1-1.294-.179,4.077,4.077,0,0,1-.928-.3c-.241-.116-.376-.251-.4-.4l-1.508-.015a2.075,2.075,0,0,1-.357-.031c-.1-.019-.157-.045-.157-.078v-.146l2.061.019a1.1,1.1,0,0,1,.564-.4,6.64,6.64,0,0,1,1.046-.306l.69.093c.21.028.314.062.314.1,0,.021-.042.046-.129.077l-.309.11a2.864,2.864,0,0,0-.344.15.738.738,0,0,0-.251.2Zm-5.086.2a.539.539,0,0,0,.274.248,2.262,2.262,0,0,0,.524.172,5.545,5.545,0,0,0,.706.1q.394.032.823.03.5,0,.874-.043a5,5,0,0,0,.654-.107,3.012,3.012,0,0,0,.491-.157,2.742,2.742,0,0,0,.376-.2Zm12.1-.131a.561.561,0,0,0-.3-.256,2.738,2.738,0,0,0-.6-.184,6.715,6.715,0,0,0-.854-.112c-.324-.025-.682-.035-1.073-.034a8.732,8.732,0,0,0-.9.046,4.81,4.81,0,0,0-.654.115,2.434,2.434,0,0,0-.469.168,3.355,3.355,0,0,0-.36.206Z" transform="translate(-749.474 -2772.914)" fill="#fcb048"/>
            </g>
            <path id="Path_141168" data-name="Path 141168" d="M677.769,2756.438c-7.253,0-14.8.619-16.012,1.818a1.517,1.517,0,0,1,.132.135c1.018-.832,7.253-1.67,15.88-1.67,8.848,0,15.183.881,15.95,1.734a1.58,1.58,0,0,1,.122-.134C692.843,2757.08,685.15,2756.438,677.769,2756.438Z" transform="translate(-661.492 -2756.218)" fill="url(#linear-gradient-37)"/>
          </g>
          <g id="Group_60256" data-name="Group 60256" transform="translate(35.942 4.46)">
            <path id="Path_141169" data-name="Path 141169" d="M1179.356,2823.795l-2.94,2.03c-.95.656,2.5,6.946,7.708,14.05s10.2,12.331,11.148,11.676l2.94-2.029Z" transform="translate(-1176.259 -2823.74)" fill="url(#linear-gradient-38)"/>
            <path id="Path_141170" data-name="Path 141170" d="M1240.017,2848.7c-.949.657-5.941-4.571-11.148-11.675s-8.658-13.395-7.708-14.05,5.941,4.571,11.148,11.675S1240.967,2848.049,1240.017,2848.7Z" transform="translate(-1218.064 -2822.923)" fill="url(#linear-gradient-39)"/>
            <path id="Path_141171" data-name="Path 141171" d="M1227.628,2837.089c-4.611-6.291-8.814-13.3-7.62-14.122.066-.046.2-.1.244-.038s-.063.1-.129.144c-.758.523,2.236,6.341,7.742,13.853s10.187,12.165,10.944,11.642c.067-.045.135-.078.182-.013s-.052.109-.117.154C1237.68,2849.533,1232.239,2843.381,1227.628,2837.089Z" transform="translate(-1216.943 -2822.9)" fill="url(#linear-gradient-40)"/>
            <g id="Group_60255" data-name="Group 60255" transform="translate(6.424 4.834)">
              <path id="Path_141172" data-name="Path 141172" d="M1279.14,2905.649c.182.064.37.137.563.22a3.216,3.216,0,0,1,.643.389,6.557,6.557,0,0,1,.794.728,13.157,13.157,0,0,1,1,1.222q.55.742.977,1.433a11.6,11.6,0,0,1,.687,1.26,4.3,4.3,0,0,1,.334.986.768.768,0,0,1-.082.613l1.047,1.458a1.746,1.746,0,0,1,.177.3c.042.092.049.146.023.165l-.123.085-1.346-1.875a1.215,1.215,0,0,1-.779-.214,6.394,6.394,0,0,1-1.073-.8l-.4-.744a.978.978,0,0,1-.073-.176c-.014-.049-.012-.079.006-.092s.089.018.2.1.232.176.373.277a4.307,4.307,0,0,0,.443.279.68.68,0,0,0,.405.1l-3.176-4.426a5.735,5.735,0,0,1-.543-.21,3.218,3.218,0,0,1-.646-.413,7.394,7.394,0,0,1-.812-.771,15.412,15.412,0,0,1-1.045-1.287q-.445-.6-.817-1.211a9.876,9.876,0,0,1-.6-1.127,3.877,3.877,0,0,1-.29-.905.617.617,0,0,1,.1-.554l-.861-1.2a1.862,1.862,0,0,1-.181-.3c-.044-.094-.053-.151-.026-.17l.122-.085,1.179,1.641a1.127,1.127,0,0,1,.665.212,6.4,6.4,0,0,1,.863.65l.323.6c.1.183.13.284.1.306s-.064-.006-.14-.056-.167-.112-.272-.182a2.918,2.918,0,0,0-.325-.184.743.743,0,0,0-.309-.085Zm-3.115-3.906a.517.517,0,0,0-.05.36,2.077,2.077,0,0,0,.159.514,5.182,5.182,0,0,0,.327.615c.135.22.285.442.452.668a8.326,8.326,0,0,0,.541.667,5.023,5.023,0,0,0,.469.455,3.09,3.09,0,0,0,.417.3,2.811,2.811,0,0,0,.381.184Zm7.122,9.492a.536.536,0,0,0,.042-.385,2.6,2.6,0,0,0-.194-.584,6.391,6.391,0,0,0-.4-.74q-.251-.4-.594-.868a7.915,7.915,0,0,0-.559-.685,4.533,4.533,0,0,0-.475-.45,2.4,2.4,0,0,0-.413-.274,3.481,3.481,0,0,0-.382-.166Z" transform="translate(-1274.025 -2898.713)" fill="#fcb048"/>
            </g>
            <path id="Path_141173" data-name="Path 141173" d="M1236.048,2838.5c-4.2-5.736-9.1-11.348-10.808-11.608a1.382,1.382,0,0,1-.037.183c1.289.323,5.607,4.767,10.607,11.589,5.129,7,8.06,12.518,7.789,13.62a1.7,1.7,0,0,1,.183.019C1244.246,2850.793,1240.327,2844.336,1236.048,2838.5Z" transform="translate(-1221.989 -2826.635)" fill="url(#linear-gradient-41)"/>
          </g>
        </g>
      </g>
    </g>
  </g>
</svg>
