<svg width="330" height="72" viewBox="0 0 330 72" fill="none" xmlns="http://www.w3.org/2000/svg">
<g clip-path="url(#clip0_1218_3344)">
<path opacity="0.75" d="M317 8.43701H13C5.8203 8.43701 0 14.2573 0 21.437V50.437C0 57.6167 5.8203 63.437 13 63.437H317C324.18 63.437 330 57.6167 330 50.437V21.437C330 14.2573 324.18 8.43701 317 8.43701Z" fill="#161842"/>
<path d="M113.679 21.277H116.799V35.437H113.679V21.277ZM119.257 25.717H122.137V27.037H122.177C122.271 26.8503 122.404 26.6637 122.577 26.477C122.751 26.2903 122.957 26.1237 123.197 25.977C123.437 25.8303 123.711 25.7103 124.017 25.617C124.324 25.5237 124.657 25.477 125.017 25.477C125.777 25.477 126.391 25.597 126.857 25.837C127.324 26.0637 127.684 26.3837 127.937 26.797C128.204 27.2103 128.384 27.697 128.477 28.257C128.571 28.817 128.617 29.4237 128.617 30.077V35.437H125.617V30.677C125.617 30.397 125.604 30.1103 125.577 29.817C125.564 29.5103 125.504 29.2303 125.397 28.977C125.304 28.7237 125.151 28.517 124.937 28.357C124.737 28.197 124.444 28.117 124.057 28.117C123.671 28.117 123.357 28.1903 123.117 28.337C122.877 28.4703 122.691 28.657 122.557 28.897C122.437 29.1237 122.357 29.3837 122.317 29.677C122.277 29.9703 122.257 30.277 122.257 30.597V35.437H119.257V25.717ZM129.722 25.717H132.962L135.422 32.317H135.462L137.742 25.717H140.762L136.922 35.437H133.742L129.722 25.717ZM141.895 25.717H144.895V35.437H141.895V25.717ZM141.655 22.657C141.655 22.177 141.822 21.7703 142.155 21.437C142.502 21.0903 142.915 20.917 143.395 20.917C143.875 20.917 144.282 21.0903 144.615 21.437C144.962 21.7703 145.135 22.177 145.135 22.657C145.135 23.137 144.962 23.5503 144.615 23.897C144.282 24.2303 143.875 24.397 143.395 24.397C142.915 24.397 142.502 24.2303 142.155 23.897C141.822 23.5503 141.655 23.137 141.655 22.657ZM153.67 28.117H151.03V31.357C151.03 31.6237 151.044 31.8703 151.07 32.097C151.097 32.3103 151.157 32.497 151.25 32.657C151.344 32.817 151.484 32.9437 151.67 33.037C151.87 33.117 152.13 33.157 152.45 33.157C152.61 33.157 152.817 33.1437 153.07 33.117C153.337 33.077 153.537 32.997 153.67 32.877V35.377C153.337 35.497 152.99 35.577 152.63 35.617C152.27 35.657 151.917 35.677 151.57 35.677C151.064 35.677 150.597 35.6237 150.17 35.517C149.744 35.4103 149.37 35.2437 149.05 35.017C148.73 34.777 148.477 34.4703 148.29 34.097C148.117 33.7237 148.03 33.2703 148.03 32.737V28.117H146.11V25.717H148.03V22.837H151.03V25.717H153.67V28.117ZM164.395 33.757C163.915 34.3703 163.308 34.8437 162.575 35.177C161.841 35.5103 161.081 35.677 160.295 35.677C159.548 35.677 158.841 35.557 158.175 35.317C157.521 35.077 156.948 34.737 156.455 34.297C155.975 33.8437 155.595 33.3037 155.315 32.677C155.035 32.0503 154.895 31.3503 154.895 30.577C154.895 29.8037 155.035 29.1037 155.315 28.477C155.595 27.8503 155.975 27.317 156.455 26.877C156.948 26.4237 157.521 26.077 158.175 25.837C158.841 25.597 159.548 25.477 160.295 25.477C160.988 25.477 161.615 25.597 162.175 25.837C162.748 26.077 163.228 26.4237 163.615 26.877C164.015 27.317 164.321 27.8503 164.535 28.477C164.748 29.1037 164.855 29.8037 164.855 30.577V31.517H157.895C158.015 32.0903 158.275 32.5503 158.675 32.897C159.075 33.2303 159.568 33.397 160.155 33.397C160.648 33.397 161.061 33.2903 161.395 33.077C161.741 32.8503 162.041 32.5637 162.295 32.217L164.395 33.757ZM161.855 29.477C161.868 28.9703 161.701 28.537 161.355 28.177C161.008 27.817 160.561 27.637 160.015 27.637C159.681 27.637 159.388 27.6903 159.135 27.797C158.881 27.9037 158.661 28.0437 158.475 28.217C158.301 28.377 158.161 28.5703 158.055 28.797C157.961 29.0103 157.908 29.237 157.895 29.477H161.855ZM183.437 32.097L186.597 35.437H182.737L181.557 34.097C180.97 34.697 180.337 35.1303 179.657 35.397C178.99 35.6637 178.237 35.797 177.397 35.797C176.757 35.797 176.137 35.7103 175.537 35.537C174.937 35.3637 174.397 35.1037 173.917 34.757C173.45 34.397 173.077 33.9503 172.797 33.417C172.517 32.8837 172.377 32.2637 172.377 31.557C172.377 31.1037 172.45 30.677 172.597 30.277C172.757 29.8637 172.97 29.4903 173.237 29.157C173.517 28.8237 173.837 28.537 174.197 28.297C174.557 28.0437 174.95 27.8437 175.377 27.697C175.15 27.4437 174.937 27.2037 174.737 26.977C174.55 26.7503 174.384 26.5103 174.237 26.257C174.104 26.0037 173.997 25.737 173.917 25.457C173.85 25.177 173.817 24.8637 173.817 24.517C173.817 23.877 173.937 23.3303 174.177 22.877C174.43 22.4237 174.764 22.0503 175.177 21.757C175.59 21.4637 176.064 21.2503 176.597 21.117C177.13 20.9837 177.677 20.917 178.237 20.917C178.784 20.917 179.304 20.9903 179.797 21.137C180.29 21.2703 180.724 21.4837 181.097 21.777C181.484 22.057 181.79 22.417 182.017 22.857C182.244 23.2837 182.357 23.797 182.357 24.397C182.357 24.8237 182.284 25.217 182.137 25.577C182.004 25.937 181.817 26.277 181.577 26.597C181.337 26.9037 181.057 27.1837 180.737 27.437C180.43 27.677 180.097 27.8903 179.737 28.077L181.557 30.017L182.937 28.137H186.417L183.437 32.097ZM178.197 23.317C177.81 23.317 177.484 23.437 177.217 23.677C176.95 23.917 176.817 24.237 176.817 24.637C176.817 24.8103 176.857 24.9837 176.937 25.157C177.017 25.317 177.11 25.477 177.217 25.637C177.337 25.7837 177.464 25.9237 177.597 26.057C177.744 26.1903 177.877 26.3103 177.997 26.417C178.157 26.3237 178.33 26.217 178.517 26.097C178.704 25.9637 178.877 25.8237 179.037 25.677C179.197 25.517 179.33 25.3503 179.437 25.177C179.544 24.9903 179.597 24.797 179.597 24.597C179.597 24.1837 179.457 23.8703 179.177 23.657C178.91 23.4303 178.584 23.317 178.197 23.317ZM177.237 29.397C177.037 29.517 176.837 29.6437 176.637 29.777C176.45 29.897 176.277 30.037 176.117 30.197C175.97 30.3437 175.85 30.517 175.757 30.717C175.664 30.917 175.617 31.1503 175.617 31.417C175.617 31.6837 175.67 31.9237 175.777 32.137C175.884 32.3503 176.024 32.5303 176.197 32.677C176.37 32.8237 176.57 32.9437 176.797 33.037C177.037 33.117 177.277 33.157 177.517 33.157C177.984 33.157 178.384 33.057 178.717 32.857C179.064 32.657 179.404 32.4103 179.737 32.117L177.237 29.397ZM194.191 21.277H203.811V24.157H197.311V26.797H203.451V29.677H197.311V32.557H204.171V35.437H194.191V21.277ZM212.389 34.217H212.349C212.015 34.737 211.569 35.1103 211.009 35.337C210.462 35.5637 209.882 35.677 209.269 35.677C208.815 35.677 208.375 35.6103 207.949 35.477C207.535 35.357 207.169 35.1703 206.849 34.917C206.529 34.6637 206.275 34.3503 206.089 33.977C205.902 33.6037 205.809 33.1703 205.809 32.677C205.809 32.117 205.909 31.6437 206.109 31.257C206.322 30.8703 206.602 30.5503 206.949 30.297C207.309 30.0437 207.715 29.8503 208.169 29.717C208.622 29.5703 209.089 29.4637 209.569 29.397C210.062 29.3303 210.549 29.2903 211.029 29.277C211.522 29.2637 211.975 29.257 212.389 29.257C212.389 28.7237 212.195 28.3037 211.809 27.997C211.435 27.677 210.989 27.517 210.469 27.517C209.975 27.517 209.522 27.6237 209.109 27.837C208.709 28.037 208.349 28.317 208.029 28.677L206.429 27.037C206.989 26.517 207.642 26.1303 208.389 25.877C209.135 25.6103 209.909 25.477 210.709 25.477C211.589 25.477 212.309 25.5903 212.869 25.817C213.442 26.0303 213.895 26.3503 214.229 26.777C214.575 27.2037 214.815 27.7303 214.949 28.357C215.082 28.9703 215.149 29.6837 215.149 30.497V35.437H212.389V34.217ZM211.649 31.177C211.422 31.177 211.135 31.1903 210.789 31.217C210.455 31.2303 210.129 31.2837 209.809 31.377C209.502 31.4703 209.235 31.6103 209.009 31.797C208.795 31.9837 208.689 32.2437 208.689 32.577C208.689 32.937 208.842 33.2037 209.149 33.377C209.455 33.5503 209.775 33.637 210.109 33.637C210.402 33.637 210.682 33.597 210.949 33.517C211.229 33.437 211.475 33.3237 211.689 33.177C211.902 33.0303 212.069 32.8437 212.189 32.617C212.322 32.3903 212.389 32.1237 212.389 31.817V31.177H211.649ZM217.031 25.717H220.031V27.277H220.071C220.391 26.677 220.771 26.2303 221.211 25.937C221.651 25.6303 222.204 25.477 222.871 25.477C223.044 25.477 223.217 25.4837 223.391 25.497C223.564 25.5103 223.724 25.537 223.871 25.577V28.317C223.657 28.2503 223.444 28.2037 223.231 28.177C223.031 28.137 222.817 28.117 222.591 28.117C222.017 28.117 221.564 28.197 221.231 28.357C220.897 28.517 220.637 28.7437 220.451 29.037C220.277 29.317 220.164 29.657 220.111 30.057C220.057 30.457 220.031 30.897 220.031 31.377V35.437H217.031V25.717ZM225.527 25.717H228.407V27.037H228.447C228.54 26.8503 228.673 26.6637 228.847 26.477C229.02 26.2903 229.227 26.1237 229.467 25.977C229.707 25.8303 229.98 25.7103 230.287 25.617C230.593 25.5237 230.927 25.477 231.287 25.477C232.047 25.477 232.66 25.597 233.127 25.837C233.593 26.0637 233.953 26.3837 234.207 26.797C234.473 27.2103 234.653 27.697 234.747 28.257C234.84 28.817 234.887 29.4237 234.887 30.077V35.437H231.887V30.677C231.887 30.397 231.873 30.1103 231.847 29.817C231.833 29.5103 231.773 29.2303 231.667 28.977C231.573 28.7237 231.42 28.517 231.207 28.357C231.007 28.197 230.713 28.117 230.327 28.117C229.94 28.117 229.627 28.1903 229.387 28.337C229.147 28.4703 228.96 28.657 228.827 28.897C228.707 29.1237 228.627 29.3837 228.587 29.677C228.547 29.9703 228.527 30.277 228.527 30.597V35.437H225.527V25.717ZM252.569 24.957C252.262 24.5837 251.882 24.297 251.429 24.097C250.989 23.897 250.476 23.797 249.889 23.797C249.302 23.797 248.756 23.9103 248.249 24.137C247.756 24.3637 247.322 24.6837 246.949 25.097C246.589 25.497 246.302 25.977 246.089 26.537C245.889 27.097 245.789 27.7037 245.789 28.357C245.789 29.0237 245.889 29.637 246.089 30.197C246.302 30.7437 246.589 31.2237 246.949 31.637C247.309 32.037 247.729 32.3503 248.209 32.577C248.702 32.8037 249.229 32.917 249.789 32.917C250.429 32.917 250.996 32.7837 251.489 32.517C251.982 32.2503 252.389 31.877 252.709 31.397L255.309 33.337C254.709 34.177 253.949 34.797 253.029 35.197C252.109 35.597 251.162 35.797 250.189 35.797C249.082 35.797 248.062 35.6237 247.129 35.277C246.196 34.9303 245.389 34.437 244.709 33.797C244.029 33.1437 243.496 32.357 243.109 31.437C242.736 30.517 242.549 29.4903 242.549 28.357C242.549 27.2237 242.736 26.197 243.109 25.277C243.496 24.357 244.029 23.577 244.709 22.937C245.389 22.2837 246.196 21.7837 247.129 21.437C248.062 21.0903 249.082 20.917 250.189 20.917C250.589 20.917 251.002 20.957 251.429 21.037C251.869 21.1037 252.296 21.217 252.709 21.377C253.136 21.537 253.542 21.7503 253.929 22.017C254.316 22.2837 254.662 22.6103 254.969 22.997L252.569 24.957ZM256.261 30.577C256.261 29.8037 256.401 29.1037 256.681 28.477C256.961 27.8503 257.341 27.317 257.821 26.877C258.314 26.4237 258.887 26.077 259.541 25.837C260.207 25.597 260.914 25.477 261.661 25.477C262.407 25.477 263.107 25.597 263.761 25.837C264.427 26.077 265.001 26.4237 265.481 26.877C265.974 27.317 266.361 27.8503 266.641 28.477C266.921 29.1037 267.061 29.8037 267.061 30.577C267.061 31.3503 266.921 32.0503 266.641 32.677C266.361 33.3037 265.974 33.8437 265.481 34.297C265.001 34.737 264.427 35.077 263.761 35.317C263.107 35.557 262.407 35.677 261.661 35.677C260.914 35.677 260.207 35.557 259.541 35.317C258.887 35.077 258.314 34.737 257.821 34.297C257.341 33.8437 256.961 33.3037 256.681 32.677C256.401 32.0503 256.261 31.3503 256.261 30.577ZM259.261 30.577C259.261 31.3103 259.467 31.9037 259.881 32.357C260.307 32.8103 260.901 33.037 261.661 33.037C262.421 33.037 263.007 32.8103 263.421 32.357C263.847 31.9037 264.061 31.3103 264.061 30.577C264.061 29.8437 263.847 29.2503 263.421 28.797C263.007 28.3437 262.421 28.117 261.661 28.117C260.901 28.117 260.307 28.3437 259.881 28.797C259.467 29.2503 259.261 29.8437 259.261 30.577ZM268.868 25.717H271.868V35.437H268.868V25.717ZM268.628 22.657C268.628 22.177 268.794 21.7703 269.128 21.437C269.474 21.0903 269.888 20.917 270.368 20.917C270.848 20.917 271.254 21.0903 271.588 21.437C271.934 21.7703 272.108 22.177 272.108 22.657C272.108 23.137 271.934 23.5503 271.588 23.897C271.254 24.2303 270.848 24.397 270.368 24.397C269.888 24.397 269.474 24.2303 269.128 23.897C268.794 23.5503 268.628 23.137 268.628 22.657ZM274.023 25.717H276.903V27.037H276.943C277.036 26.8503 277.17 26.6637 277.343 26.477C277.516 26.2903 277.723 26.1237 277.963 25.977C278.203 25.8303 278.476 25.7103 278.783 25.617C279.09 25.5237 279.423 25.477 279.783 25.477C280.543 25.477 281.156 25.597 281.623 25.837C282.09 26.0637 282.45 26.3837 282.703 26.797C282.97 27.2103 283.15 27.697 283.243 28.257C283.336 28.817 283.383 29.4237 283.383 30.077V35.437H280.383V30.677C280.383 30.397 280.37 30.1103 280.343 29.817C280.33 29.5103 280.27 29.2303 280.163 28.977C280.07 28.7237 279.916 28.517 279.703 28.357C279.503 28.197 279.21 28.117 278.823 28.117C278.436 28.117 278.123 28.1903 277.883 28.337C277.643 28.4703 277.456 28.657 277.323 28.897C277.203 29.1237 277.123 29.3837 277.083 29.677C277.043 29.9703 277.023 30.277 277.023 30.597V35.437H274.023V25.717ZM291.007 28.577C290.567 28.0303 289.987 27.757 289.267 27.757C289.014 27.757 288.767 27.817 288.527 27.937C288.287 28.057 288.167 28.2637 288.167 28.557C288.167 28.797 288.287 28.977 288.527 29.097C288.781 29.2037 289.094 29.3037 289.467 29.397C289.854 29.477 290.261 29.5703 290.687 29.677C291.127 29.7703 291.534 29.9237 291.907 30.137C292.294 30.3503 292.607 30.6437 292.847 31.017C293.101 31.377 293.227 31.8637 293.227 32.477C293.227 33.1037 293.087 33.6237 292.807 34.037C292.541 34.437 292.194 34.7637 291.767 35.017C291.341 35.257 290.861 35.4237 290.327 35.517C289.794 35.6237 289.267 35.677 288.747 35.677C288.067 35.677 287.381 35.5837 286.687 35.397C285.994 35.197 285.407 34.8503 284.927 34.357L286.747 32.337C287.027 32.6837 287.334 32.9503 287.667 33.137C288.014 33.3103 288.414 33.397 288.867 33.397C289.214 33.397 289.527 33.3503 289.807 33.257C290.087 33.1503 290.227 32.9637 290.227 32.697C290.227 32.4437 290.101 32.257 289.847 32.137C289.607 32.0037 289.294 31.897 288.907 31.817C288.534 31.7237 288.127 31.6303 287.687 31.537C287.261 31.4303 286.854 31.277 286.467 31.077C286.094 30.877 285.781 30.597 285.527 30.237C285.287 29.8637 285.167 29.3703 285.167 28.757C285.167 28.1837 285.281 27.6903 285.507 27.277C285.747 26.8637 286.054 26.5237 286.427 26.257C286.814 25.9903 287.254 25.797 287.747 25.677C288.241 25.5437 288.741 25.477 289.247 25.477C289.887 25.477 290.534 25.5703 291.187 25.757C291.841 25.9437 292.394 26.277 292.847 26.757L291.007 28.577Z" fill="#60DCBB"/>
<path d="M67.0287 45.2076C68.9565 45.0756 69.3148 46.7159 68.9977 49.3078C68.6807 51.8998 66.0471 67.0425 66.0471 67.0425L61.9289 65.0474C61.9289 65.0474 64.1387 50.9031 64.5062 48.98C64.8852 46.9942 65.8233 45.2915 67.0287 45.2076Z" fill="#FFD0BE"/>
<path d="M64.4477 68.6653C65.4987 69.1573 68.9277 69.2813 72.2687 69.6073C75.0647 69.8351 77.875 69.8217 80.6687 69.5673C81.3527 64.0253 81.4837 47.6043 79.8887 44.9353C79.5411 44.4585 79.0577 44.0978 78.5017 43.9003C77.4606 43.6009 76.3623 43.5597 75.3017 43.7803C74.4217 43.8803 73.4367 44.0353 72.3757 44.1743C71.5297 44.2853 70.1627 44.2663 68.9197 44.3803C68.0897 44.3979 67.2759 44.6143 66.5467 45.0113C66.0707 45.3533 66.0467 46.8343 65.3967 49.2763C64.6967 51.8933 64.2967 63.1233 64.4477 68.6653Z" fill="#FF9650"/>
<path opacity="0.5" d="M80.8157 61.717C80.7677 62.148 80.7157 62.534 80.6597 62.868C77.8632 63.0567 75.0575 63.0668 72.2597 62.898C68.9187 62.656 65.4897 62.5651 64.4387 62.1981C64.4247 61.8441 64.4067 61.4981 64.3867 61.1641C66.2227 61.3741 69.2027 61.481 72.1267 61.682C75.0204 61.8484 77.9208 61.86 80.8157 61.717Z" fill="#6F3149"/>
<path d="M69.4972 46.9455C70.0846 47.2114 70.7369 47.3002 71.3741 47.2009C72.0112 47.1016 72.6055 46.8186 73.0842 46.3865C73.9841 45.6575 74.7354 44.7622 75.2972 43.7495C74.4172 43.8245 73.4312 43.9385 72.3712 44.0415C71.5252 44.1235 70.1582 44.1095 68.9152 44.1945C68.6664 44.6467 68.5882 45.1732 68.6951 45.6781C68.8019 46.1831 69.0865 46.6329 69.4972 46.9455Z" fill="#FFD0BE"/>
<path d="M93.2638 49.683C93.7108 48.396 94.3777 46.666 94.7797 45.683C95.2067 44.64 94.9797 44.366 94.3797 45.072C93.8417 45.698 93.4797 46.396 93.3387 46.348C93.4708 45.8568 93.669 45.3858 93.9278 44.948C94.3188 44.118 94.5467 43.495 94.2467 43.276C93.9467 43.057 92.7167 45.176 92.4467 45.803C92.6429 44.8574 92.9062 43.9271 93.2348 43.019C93.5448 42.046 93.0227 41.839 92.4247 43.007C91.8267 44.175 91.4947 45.286 91.2647 45.55C91.248 44.8607 91.3457 44.1733 91.5537 43.516C91.7747 42.491 91.2977 42.432 90.8537 43.402C90.3257 44.567 90.1057 46.458 89.7097 46.537C89.4097 46.451 89.5097 45.969 89.0097 44.969C88.5097 43.969 88.4858 45.401 88.6098 46.535C88.7408 47.708 88.5917 49.035 88.7387 49.983C88.9387 51.265 89.3168 52.112 90.3578 52.307C91.3988 52.502 92.3608 52.284 93.2638 49.683Z" fill="#FFD0BE"/>
<path opacity="0.5" d="M90.375 47.6109C90.4062 47.6317 90.432 47.6598 90.45 47.6929C90.4765 47.7294 90.5002 47.7678 90.521 47.8078C90.555 47.8868 90.582 47.9678 90.608 48.0498C90.659 48.2128 90.7 48.3808 90.735 48.5498C90.77 48.7188 90.801 48.8808 90.82 49.0498C90.8503 49.2218 90.8571 49.3971 90.84 49.5708C90.8413 49.5974 90.832 49.6233 90.8142 49.643C90.7964 49.6627 90.7715 49.6745 90.7449 49.6759C90.7184 49.6772 90.6925 49.6679 90.6728 49.6501C90.6531 49.6323 90.6413 49.6074 90.64 49.5809C90.6034 49.4211 90.5774 49.259 90.562 49.0958C90.535 48.9298 90.508 48.7638 90.471 48.5958C90.434 48.4278 90.392 48.2768 90.347 48.1188C90.324 48.0408 90.302 47.9619 90.281 47.8829C90.271 47.8419 90.274 47.8029 90.267 47.7619C90.2574 47.7224 90.2574 47.6813 90.267 47.6419C90.2698 47.6308 90.2754 47.6207 90.2833 47.6126C90.2912 47.6044 90.3012 47.5984 90.3121 47.5953C90.323 47.5922 90.3346 47.5919 90.3456 47.5947C90.3566 47.5974 90.3667 47.603 90.375 47.6109Z" fill="#BC4A60"/>
<path d="M78.0063 44.1252C76.2863 44.8452 76.1583 47.0152 77.3393 50.2702C78.2783 52.8572 82.5013 65.5252 86.1053 65.4232C88.6363 65.3512 92.1264 52.4632 92.3774 50.6872C91.3562 50.661 90.3584 50.3761 89.4773 49.8592C88.9993 50.9142 85.8863 56.4842 85.5193 58.0502C84.9693 56.5552 83.3004 50.6172 81.9064 47.8052C80.9234 45.8242 79.6973 43.4182 78.0063 44.1252Z" fill="#FFD0BE"/>
<path d="M62.1332 23.0082C60.8632 23.8652 60.3542 26.2322 60.6432 27.7392C60.9322 29.2462 61.5121 29.7902 62.3811 29.7902C63.2501 29.7902 64.4922 21.4172 62.1332 23.0082Z" fill="#B26167"/>
<path d="M69.5918 40.4129L69.6438 40.7849L69.9438 42.9849L70.2098 44.9069C70.2098 44.9069 70.1168 45.6649 71.6218 45.3749C72.3345 45.2608 73.007 44.9695 73.5778 44.5279C73.6301 44.4853 73.6707 44.4301 73.6956 44.3674C73.7204 44.3047 73.7287 44.2367 73.7198 44.1699L73.4538 42.2569L73.1808 40.2869L73.1248 39.8809L69.5918 40.4129Z" fill="#FFD0BE"/>
<path opacity="0.3" d="M69.6426 40.7846L69.9426 42.9846C70.2601 43.0145 70.5803 43.0021 70.8946 42.9476C71.3643 42.8872 71.8298 42.798 72.2886 42.6806C72.6884 42.5741 73.0779 42.4323 73.4526 42.2566L73.1796 40.2866L69.6426 40.7846Z" fill="#BC4A60"/>
<path d="M79.3088 30.2783C78.6208 33.3603 78.1088 36.1903 76.6448 38.3523C75.929 39.3621 75.0143 40.2149 73.9569 40.8582C72.8994 41.5016 71.7216 41.9219 70.4957 42.0933L70.2747 42.1373C68.3637 42.4633 65.4928 42.1873 64.6528 41.4773C64.3581 41.228 64.087 40.9521 63.8428 40.6533C62.6922 39.077 61.9924 37.2171 61.8187 35.2733C61.6254 33.8059 61.5299 32.3273 61.5328 30.8473C60.9008 22.9033 64.2328 18.6233 71.1788 18.8993C77.1838 19.1393 80.5608 24.6633 79.3088 30.2783Z" fill="#FFD0BE"/>
<path d="M67.9927 39.1904C67.6783 40.4094 67.6783 41.6883 67.9927 42.9074C68.4927 45.1974 66.7977 41.8894 66.7977 41.8894V43.2444C66.1016 42.6595 65.5859 41.8889 65.3107 41.0224C65.1881 40.3277 65.1881 39.617 65.3107 38.9224L67.9927 39.1904Z" fill="#B26167"/>
<path d="M73.0568 23.5571C73.0568 23.5571 69.1568 25.7261 67.2298 25.1701C65.3028 24.6141 68.5488 24.2241 70.1428 22.8341C70.1428 22.8341 66.0748 24.8921 62.9968 24.7811C59.9188 24.6701 59.6968 24.1691 61.5128 22.4451C63.3288 20.7211 66.0748 17.2161 72.5618 17.6051C79.0488 17.9941 78.5539 20.8871 78.5539 20.8871C78.5539 20.8871 78.5538 19.0521 79.2678 18.9961C79.9818 18.9401 79.5979 21.7221 79.5979 21.7221C79.5979 21.7221 81.7418 21.7221 81.8518 22.4451C81.9618 23.1681 80.2578 22.9451 80.2578 22.9451C80.2578 22.9451 82.7868 25.3931 82.8968 26.7281C83.0068 28.0631 81.9968 31.2481 80.7368 31.5281C79.4768 31.8081 77.7108 31.0691 77.6008 31.8481C77.4908 32.6271 77.2158 34.4621 76.2818 34.4071C75.3478 34.3521 76.1718 32.7941 76.1718 32.7941C76.1718 32.7941 75.6218 34.0741 75.1828 33.4061C74.7438 32.7381 76.3368 30.3461 76.3368 30.3461C75.5304 29.4316 74.8356 28.4245 74.2669 27.3461C73.6727 26.1522 73.2647 24.8744 73.0568 23.5571Z" fill="#B26167"/>
<path d="M66.6207 35.9708C67.5627 35.9828 68.0597 35.2788 68.7207 35.9598C69.2507 36.5028 68.6097 37.7098 66.6907 37.6378C64.8277 37.5678 64.7107 36.2468 65.1237 35.8858C65.5367 35.5248 65.6727 35.9638 66.6207 35.9708Z" fill="#BC4A60"/>
<path d="M68.5184 36.4878C67.9953 36.4445 67.4731 36.5814 67.0385 36.8758C66.8985 36.9548 66.7767 37.0623 66.6809 37.1913C66.5851 37.3204 66.5175 37.468 66.4824 37.6248C66.5514 37.6318 66.6195 37.6398 66.6945 37.6428C68.0235 37.6928 68.7384 37.1288 68.8774 36.5968C68.7656 36.5385 68.6438 36.5015 68.5184 36.4878Z" fill="#FC6B7F"/>
<path d="M70.0015 33.058C70.0387 32.9209 70.0996 32.7912 70.1815 32.675C70.2681 32.5618 70.377 32.4676 70.5015 32.398C70.7614 32.2573 71.066 32.2236 71.3505 32.304C71.6402 32.3921 71.8876 32.583 72.0462 32.8409C72.2048 33.0988 72.2636 33.4058 72.2115 33.704C72.2078 33.7164 72.2006 33.7273 72.1908 33.7357C72.1809 33.744 72.1689 33.7494 72.1561 33.751C72.1434 33.7527 72.1304 33.7507 72.1187 33.7452C72.1071 33.7397 72.0973 33.731 72.0905 33.72C71.8335 33.348 71.7725 32.82 71.2905 32.657C71.0887 32.5869 70.8673 32.5991 70.6745 32.691C70.473 32.7859 70.3091 32.9454 70.2085 33.144C70.1555 33.261 69.9615 33.178 70.0015 33.058Z" fill="#2C1F30"/>
<path d="M64.2036 32.5739C64.1929 32.4559 64.1632 32.3404 64.1156 32.2319C64.0678 32.1293 63.9998 32.0375 63.9156 31.9619C63.8301 31.8895 63.7301 31.8364 63.6222 31.8062C63.5144 31.776 63.4012 31.7694 63.2906 31.7869C63.0498 31.8438 62.8362 31.9829 62.6868 32.1802C62.5373 32.3774 62.4613 32.6206 62.4716 32.8679C62.4719 32.8782 62.4754 32.8881 62.4816 32.8963C62.4879 32.9045 62.4965 32.9105 62.5064 32.9135C62.5162 32.9165 62.5268 32.9163 62.5365 32.913C62.5463 32.9096 62.5547 32.9033 62.5606 32.8949C62.7986 32.6109 62.9106 32.1719 63.2946 32.0949C63.3735 32.0772 63.4553 32.077 63.5342 32.0943C63.6131 32.1116 63.6873 32.1459 63.7516 32.1949C63.8949 32.3029 63.998 32.4556 64.0446 32.6289C64.0616 32.7229 64.2186 32.6739 64.2036 32.5739Z" fill="#2C1F30"/>
<path d="M69.5791 28.9811C69.7148 28.7552 69.91 28.571 70.1433 28.4486C70.3767 28.3262 70.6392 28.2703 70.9021 28.2871C71.2612 28.3131 71.6025 28.4533 71.8761 28.6871C72.0931 28.8751 72.4151 29.3621 72.3381 29.5301C72.2611 29.6981 72.0381 29.3191 71.8761 29.1811C71.6167 28.9775 71.3044 28.8522 70.9761 28.8201C70.8225 28.802 70.6667 28.8147 70.518 28.8575C70.3694 28.9002 70.2307 28.9722 70.1101 29.0691C70.0428 29.1325 69.9671 29.1863 69.8851 29.2291C69.7831 29.2741 69.5111 29.1501 69.5791 28.9811Z" fill="#B26167"/>
<path d="M64.4174 28.5449C64.3071 28.3518 64.1437 28.1943 63.9466 28.0912C63.7495 27.9881 63.527 27.9435 63.3054 27.9629C63.0099 28.0008 62.7367 28.1401 62.5324 28.3569C62.3654 28.5339 62.1274 28.9839 62.1984 29.1329C62.2694 29.2819 62.4314 28.9329 62.5564 28.8029C62.7515 28.6141 63.0002 28.4902 63.2684 28.4479C63.3955 28.428 63.5253 28.4356 63.6491 28.4701C63.773 28.5046 63.8879 28.5652 63.9864 28.6479C64.0434 28.7023 64.1077 28.7484 64.1774 28.7849C64.2654 28.8159 64.4854 28.6959 64.4174 28.5449Z" fill="#B26167"/>
<path opacity="0.5" d="M64.7526 33.4838C64.7986 33.2628 64.9946 33.2058 65.1826 33.1508C65.2698 33.1249 65.3481 33.0753 65.4086 33.0075C65.4692 32.9397 65.5097 32.8563 65.5256 32.7668C65.5736 32.5496 65.6001 32.3282 65.6046 32.1058L65.6706 31.1958C65.6916 30.9118 65.7086 30.6268 65.7336 30.3428C65.737 30.0475 65.776 29.7538 65.8496 29.4678C65.8736 29.3998 65.9866 29.3838 66.0026 29.4678C66.0339 29.7397 66.0318 30.0144 65.9966 30.2858C65.9796 30.5708 65.9566 30.8548 65.9356 31.1388C65.8976 31.6458 65.8926 32.1678 65.8106 32.6688C65.7881 32.8444 65.7239 33.012 65.6236 33.1578C65.5103 33.2955 65.352 33.3887 65.1766 33.4208C65.0686 33.4508 64.9906 33.4818 65.0046 33.6078C65.031 33.7397 65.0765 33.867 65.1396 33.9858C65.2396 34.2198 65.3796 34.4338 65.4986 34.6588C65.5087 34.6775 65.5117 34.6992 65.5073 34.72C65.5029 34.7407 65.4914 34.7593 65.4746 34.7724C65.4579 34.7854 65.437 34.7921 65.4158 34.7913C65.3946 34.7904 65.3743 34.7821 65.3586 34.7678C65.1787 34.5752 65.0323 34.3538 64.9256 34.1128C64.8051 33.9257 64.7447 33.7062 64.7526 33.4838Z" fill="#BC4A60"/>
<path d="M77.5781 34.781C77.6381 35.669 78.7882 36.268 79.9562 35.773C81.1242 35.278 82.3842 33.217 81.9462 31.817C81.5082 30.417 79.6311 30.526 78.6161 31.81C77.9553 32.6606 77.5907 33.7039 77.5781 34.781Z" fill="#FFD0BE"/>
<path opacity="0.5" d="M81.095 32.3541C81.1074 32.3462 81.1176 32.3354 81.1247 32.3225C81.1317 32.3097 81.1355 32.2952 81.1355 32.2806C81.1355 32.2659 81.1317 32.2515 81.1247 32.2386C81.1176 32.2258 81.1074 32.2149 81.095 32.2071C80.8258 32.117 80.5326 32.132 80.274 32.2491C79.9983 32.3346 79.7381 32.4636 79.503 32.6311C79.0147 32.972 78.6662 33.4782 78.522 34.0561C78.498 34.1641 78.656 34.2361 78.707 34.1301C78.9188 33.6399 79.2553 33.2138 79.683 32.8941C79.743 32.8521 79.807 32.8191 79.869 32.7831C79.883 32.8141 79.901 32.8441 79.916 32.8731C79.943 32.9261 79.971 32.9781 79.997 33.0311C80.0485 33.1397 80.0919 33.252 80.127 33.3671C80.201 33.6001 80.219 33.8481 80.31 34.0761C80.327 34.1181 80.398 34.1421 80.42 34.0881C80.5031 33.8259 80.4918 33.5428 80.388 33.2881C80.346 33.1581 80.2928 33.0319 80.229 32.9111C80.2 32.8523 80.1666 32.7958 80.129 32.7421C80.111 32.7181 80.094 32.6931 80.075 32.6711C80.169 32.6255 80.2659 32.5861 80.365 32.5531C80.615 32.5139 80.8598 32.4472 81.095 32.3541Z" fill="#BC4A60"/>
<path d="M54.125 50.9916C54.687 49.7306 55.4586 48.5739 56.407 47.5707C57.193 46.7497 57.091 46.4827 56.214 46.9497C55.449 47.3747 54.908 47.9496 54.784 47.8776C54.724 47.8436 55.136 47.3686 55.804 46.7486C56.491 46.1126 57.01 45.6757 56.798 45.4307C56.549 45.1537 54.447 46.6417 54.065 47.2037C53.595 47.7037 55.136 45.5627 55.877 44.9887C56.65 44.3077 56.198 44.0117 55.051 44.7887C54.3137 45.3865 53.6202 46.0365 52.976 46.7336C53.025 46.4616 53.123 46.1126 53.953 45.0086C54.603 44.2166 54.137 44.0556 53.294 44.7586C52.27 45.5996 51.608 47.3496 51.237 47.3586C50.973 47.2226 51.145 46.7667 50.937 45.7477C50.747 44.7387 50.266 46.0186 50.191 47.1536C50.0079 48.3198 49.9536 49.5026 50.029 50.6807C50.24 52.0667 50.723 53.0527 51.637 53.4197C52.617 53.8147 53.155 53.5166 54.125 50.9916Z" fill="#E29A8F"/>
<path opacity="0.5" d="M53.0844 48.9126C53.0465 48.912 53.0091 48.9205 52.9754 48.9376C52.9323 48.9523 52.8905 48.9704 52.8504 48.9916C52.7778 49.038 52.7077 49.0881 52.6404 49.1416C52.5044 49.2466 52.3754 49.3626 52.2504 49.4806C52.1254 49.5986 52.0064 49.7166 51.8954 49.8436C51.7719 49.9689 51.6663 50.1106 51.5814 50.2646C51.5673 50.2856 51.5617 50.3111 51.5657 50.336C51.5697 50.3609 51.5829 50.3834 51.6028 50.399C51.6226 50.4146 51.6477 50.422 51.6728 50.4199C51.6979 50.4178 51.7214 50.4063 51.7384 50.3876C51.8598 50.2763 51.9737 50.157 52.0794 50.0306C52.1964 49.9086 52.3134 49.7866 52.4384 49.6716C52.5634 49.5566 52.6854 49.4536 52.8134 49.3486C52.8764 49.2966 52.9404 49.2486 53.0024 49.1906C53.0344 49.1626 53.0533 49.1286 53.0823 49.0986C53.1113 49.0709 53.1333 49.0366 53.1464 48.9986C53.1493 48.9888 53.1499 48.9785 53.1482 48.9684C53.1465 48.9583 53.1425 48.9487 53.1365 48.9404C53.1305 48.9321 53.1227 48.9253 53.1136 48.9205C53.1046 48.9157 53.0946 48.913 53.0844 48.9126Z" fill="#BC4A60"/>
<path d="M39.195 47.6209C37.395 48.6009 37.283 50.6749 38.574 54.2489C39.6 57.0889 42.816 69.1969 46.774 69.0909C49.551 69.0159 53.174 54.0399 53.451 52.0909C52.3305 52.0606 51.236 51.7465 50.27 51.1779C49.743 52.3349 47.38 62.1949 46.683 61.6029C45.838 60.8839 45.116 54.6379 43.591 51.5509C42.512 49.3759 40.993 46.6399 39.195 47.6209Z" fill="#E29A8F"/>
<path d="M39.2318 46.0187C39.9048 46.0257 42.5929 47.8187 44.1319 51.7487C44.9938 53.9139 45.7392 56.1237 46.3649 58.3687C46.3649 58.3687 44.4928 60.7887 40.0938 61.2907C39.0608 58.6172 38.2905 55.8494 37.7938 53.0267L37.5008 50.0367C37.5008 50.0367 36.9098 45.9957 39.2318 46.0187Z" fill="#658EE5"/>
<path d="M25.1921 46.4549C27.2711 44.4549 38.23 44.0759 40.792 46.9229C43.354 49.7699 41.03 57.6829 41.184 63.7439C41.338 69.8049 42.404 70.0349 41.069 70.5089C39.734 70.9829 32.4951 72.5989 26.4891 71.4919C20.4831 70.3849 21.5101 69.1199 21.5101 67.8019C21.5101 66.4839 22.0101 49.5129 25.1921 46.4549Z" fill="#72CFE8"/>
<path d="M31.5598 45.5288C30.6998 46.2218 32.6918 48.1838 35.4448 48.0678C38.1978 47.9518 37.0608 46.4968 36.5448 46.1158C36.0288 45.7348 32.7998 44.5288 31.5598 45.5288Z" fill="#658EE5"/>
<path d="M43.7007 30.9518C43.7007 30.9518 45.5516 29.6518 44.8676 26.4728C44.7173 25.5944 44.3807 24.7584 43.8805 24.0209C43.3803 23.2833 42.7281 22.6614 41.9677 22.1968C41.9677 22.1968 40.5997 22.2778 41.6057 25.1698C42.6117 28.0618 43.7007 30.9518 43.7007 30.9518Z" fill="#6F3149"/>
<path d="M32.562 46.5117C33.2069 46.9902 33.9598 47.3024 34.754 47.4207C36.435 47.7267 36.331 46.9047 36.331 46.9047L36.606 44.9207L37.006 42.0307L33.047 41.4688L32.711 43.9017L32.402 46.1247C32.3925 46.1976 32.4022 46.2717 32.4303 46.3396C32.4584 46.4075 32.5038 46.4669 32.562 46.5117Z" fill="#E29A8F"/>
<path opacity="0.4" d="M32.7129 43.9026C33.129 44.1231 33.5641 44.3059 34.0129 44.4487C34.5787 44.625 35.157 44.7587 35.7429 44.8486C36.0278 44.9014 36.3171 44.9268 36.6069 44.9247L37.0069 42.0347L33.0479 41.4727L32.7129 43.9026Z" fill="#BC4A60"/>
<path d="M44.5999 32.991C45.1689 39.115 42.8729 44.372 35.6999 43.749C28.5269 43.126 26.9589 37.549 25.9059 31.893C24.8529 26.237 28.4229 20.838 34.4319 20.816C41.3829 20.79 44.0119 25.019 44.5999 32.991Z" fill="#E29A8F"/>
<path d="M29.1883 33.445C29.2816 34.2795 29.5595 35.0828 30.0017 35.7967C30.444 36.5105 31.0396 37.1169 31.7453 37.572C34.0453 38.85 36.2713 36.909 39.3993 36.957C42.3343 37.002 42.6183 37.846 43.2993 37.207C43.9803 36.568 43.9313 36.02 44.5173 36.34C45.1033 36.66 45.7353 38.44 44.8783 40.997C44.0213 43.554 40.7273 44.33 36.4413 44.01C32.1553 43.69 28.9783 41.683 28.0803 39.587C27.0253 37.123 28.5393 37.556 27.5483 34.009C27.2093 32.809 29.0073 32.395 29.1883 33.445Z" fill="#6F3149"/>
<path d="M28.8085 33.8288C27.7465 34.5448 24.5675 33.9658 23.8905 31.5458C23.2135 29.1258 22.6275 23.6458 27.0485 21.6388C31.4695 19.6318 38.9145 20.6388 38.9145 20.6388C38.9145 20.6388 37.4255 18.6298 38.2825 18.2188C39.1395 17.8078 40.6285 19.6798 40.6285 19.6798C40.6285 19.6798 39.7715 17.6708 40.8095 17.5798C41.8475 17.4888 44.7345 22.5558 42.7495 24.1998C40.7645 25.8438 38.2825 24.1548 38.2825 24.1548C37.6398 25.1092 36.6543 25.7796 35.5305 26.0268C34.2279 26.3317 32.8604 26.1869 31.6505 25.6158C32.0373 26.8767 31.9074 28.2396 31.2895 29.4048C30.8227 30.4553 30.0924 31.3674 29.1695 32.0528C29.3297 32.3436 29.3813 32.6818 29.3152 33.0071C29.249 33.3324 29.0695 33.6236 28.8085 33.8288Z" fill="#6F3149"/>
<path d="M27.802 36.9487C27.502 37.8147 26.1079 38.1257 24.9789 37.3487C23.8499 36.5717 23.0289 34.2147 23.8669 32.9337C24.7049 31.6527 26.701 32.2227 27.46 33.7477C27.9486 34.7408 28.0698 35.8748 27.802 36.9487Z" fill="#E29A8F"/>
<path opacity="0.5" d="M24.5991 33.8428C24.5886 33.8322 24.5811 33.8191 24.5772 33.8047C24.5733 33.7903 24.5732 33.7752 24.577 33.7608C24.5807 33.7464 24.5881 33.7332 24.5984 33.7225C24.6088 33.7118 24.6218 33.7039 24.6361 33.6998C24.9195 33.6775 25.2008 33.7628 25.4241 33.9388C25.6718 34.0884 25.8942 34.2765 26.0831 34.4958C26.4772 34.9443 26.6966 35.5197 26.7011 36.1168C26.7011 36.2278 26.5281 36.2598 26.5011 36.1438C26.4105 35.6165 26.184 35.1219 25.8441 34.7088C25.7961 34.6538 25.7441 34.6088 25.6891 34.5558C25.6681 34.5828 25.6431 34.6068 25.6221 34.6318C25.5841 34.6768 25.5441 34.7208 25.5061 34.7658C25.4299 34.8604 25.3611 34.9607 25.3001 35.0658C25.1741 35.2748 25.1001 35.5108 24.9561 35.7098C24.9301 35.7468 24.8561 35.7528 24.8461 35.6948C24.827 35.4207 24.9045 35.1487 25.0651 34.9258C25.1367 34.8099 25.2184 34.7005 25.3091 34.5988C25.3515 34.5487 25.3976 34.5019 25.4471 34.4588C25.4701 34.4398 25.4931 34.4198 25.5161 34.4028C25.4354 34.3358 25.3506 34.274 25.2621 34.2178C25.0278 34.1178 24.8055 33.992 24.5991 33.8428Z" fill="#BC4A60"/>
<path d="M39.5861 37.956C38.8161 37.999 38.3021 37.256 37.6071 37.843C37.0531 38.308 38.0071 39.61 39.4181 39.598C40.8291 39.586 41.4341 38.46 41.0681 38.084C40.7021 37.708 40.4951 37.905 39.5861 37.956Z" fill="#BC4A60"/>
<path d="M38.0918 38.412C38.3603 38.4561 38.6209 38.5386 38.8658 38.657C39.1178 38.7803 39.3431 38.9519 39.5288 39.162C39.6386 39.282 39.7312 39.4166 39.8038 39.562C39.6757 39.5844 39.5459 39.5964 39.4158 39.598C39.0255 39.6119 38.6391 39.515 38.3015 39.3186C37.9639 39.1222 37.6887 38.8342 37.5078 38.488C37.5951 38.4368 37.6917 38.4036 37.7921 38.3906C37.8924 38.3775 37.9944 38.3848 38.0918 38.412Z" fill="#FC6B7F"/>
<path d="M33.3505 34.7658C33.4554 34.6526 33.5669 34.5458 33.6844 34.4458C33.9233 34.2309 34.1955 34.0563 34.4904 33.9288C34.7782 33.798 35.1003 33.7629 35.4094 33.8288C35.5551 33.8588 35.6835 33.9442 35.7676 34.0669C35.8517 34.1896 35.885 34.3401 35.8604 34.4868C35.8384 34.5868 35.6884 34.5608 35.6834 34.4628C35.6674 34.1558 35.3194 34.0868 35.0774 34.1058C34.8298 34.1308 34.5907 34.2104 34.3774 34.3388C34.1632 34.4653 33.9643 34.6159 33.7844 34.7878C33.624 34.9869 33.4224 35.1489 33.1934 35.2628C33.1797 35.2655 33.1655 35.2649 33.1522 35.2608C33.1388 35.2567 33.1266 35.2494 33.1167 35.2396C33.1068 35.2297 33.0995 35.2175 33.0955 35.2041C33.0914 35.1907 33.0907 35.1765 33.0934 35.1628C33.143 35.0103 33.2316 34.8734 33.3505 34.7658Z" fill="#2C1F30"/>
<path d="M41.1884 34.1546C41.3796 33.7728 41.6718 33.4508 42.0334 33.2236C42.1531 33.1386 42.2923 33.0854 42.4382 33.0689C42.5841 33.0525 42.7318 33.0734 42.8674 33.1296C42.9816 33.1843 43.0724 33.2782 43.1234 33.3941C43.1744 33.51 43.1822 33.6404 43.1454 33.7616C43.139 33.7844 43.1238 33.8037 43.1032 33.8153C43.0826 33.827 43.0582 33.8299 43.0354 33.8236C43.0125 33.8172 42.9932 33.802 42.9816 33.7814C42.97 33.7608 42.967 33.7364 42.9734 33.7136C42.98 33.6197 42.949 33.527 42.8873 33.456C42.8256 33.3849 42.7382 33.3412 42.6444 33.3346C42.4122 33.3344 42.189 33.424 42.0213 33.5846C41.8549 33.717 41.7105 33.875 41.5934 34.0526C41.5348 34.1431 41.482 34.2373 41.4353 34.3346C41.3959 34.4412 41.3298 34.5358 41.2434 34.6096C41.2315 34.6163 41.2182 34.6202 41.2046 34.6211C41.191 34.6219 41.1773 34.6197 41.1647 34.6145C41.1521 34.6093 41.1408 34.6013 41.1318 34.5911C41.1227 34.5809 41.116 34.5687 41.1123 34.5556C41.0842 34.4171 41.1116 34.2731 41.1884 34.1546Z" fill="#2C1F30"/>
<path d="M35.419 29.5837C35.4272 29.6121 35.4279 29.6422 35.4211 29.671C35.4142 29.6998 35.4 29.7264 35.3799 29.7481C35.3598 29.7698 35.3344 29.786 35.3063 29.795C35.2781 29.804 35.248 29.8057 35.219 29.7997C35.184 29.7947 35.15 29.7927 35.119 29.7897C35.1375 29.8047 35.1527 29.8234 35.1634 29.8447C35.1742 29.8659 35.1804 29.8892 35.1815 29.913C35.1826 29.9368 35.1787 29.9606 35.17 29.9827C35.1613 30.0049 35.148 30.025 35.131 30.0417L35.202 30.0547C35.236 30.0649 35.2658 30.0858 35.2869 30.1142C35.3081 30.1427 35.3195 30.1772 35.3195 30.2127C35.3195 30.2481 35.3081 30.2827 35.2869 30.3111C35.2658 30.3396 35.236 30.3605 35.202 30.3707C35.2217 30.3903 35.236 30.4147 35.2435 30.4414C35.2511 30.4682 35.2516 30.4964 35.2451 30.5235C35.2386 30.5505 35.2252 30.5753 35.2063 30.5957C35.1874 30.6161 35.1635 30.6312 35.137 30.6397C34.1931 30.7032 33.3036 31.1043 32.631 31.7697C32.619 31.7818 32.6044 31.7909 32.5882 31.7963C32.5721 31.8017 32.5549 31.8034 32.538 31.801C32.5212 31.7987 32.5051 31.7925 32.491 31.7829C32.477 31.7733 32.4653 31.7606 32.457 31.7457C32.4219 31.7241 32.3965 31.6898 32.3859 31.65C32.3753 31.6102 32.3804 31.5679 32.4 31.5317C32.425 31.4897 32.453 31.4487 32.481 31.4077C32.481 31.4077 32.472 31.4077 32.468 31.3987C32.168 31.0277 32.534 30.6637 32.794 30.4067C33.0893 30.1054 33.4236 29.8451 33.788 29.6327C34.1592 29.4188 34.5717 29.2865 34.998 29.2447C35.155 29.2307 35.426 29.1937 35.481 29.4007C35.4904 29.4339 35.4894 29.4691 35.4783 29.5018C35.4673 29.5344 35.4466 29.563 35.419 29.5837Z" fill="#6F3149"/>
<path d="M40.6386 28.5717C40.6856 28.3717 40.9197 28.4077 41.0557 28.4207C41.4284 28.4627 41.7862 28.5912 42.1006 28.7957C42.4194 29.0044 42.7081 29.2557 42.9586 29.5427C43.1826 29.7907 43.4987 30.1427 43.2397 30.5007C43.2397 30.5007 43.2317 30.5007 43.2287 30.5087C43.2527 30.5477 43.2757 30.5877 43.2977 30.6277C43.315 30.6625 43.3196 30.7023 43.3107 30.7401C43.3017 30.778 43.2798 30.8114 43.2487 30.8347C43.2426 30.8486 43.233 30.8607 43.221 30.8699C43.209 30.8791 43.1949 30.8851 43.18 30.8874C43.165 30.8897 43.1497 30.8881 43.1355 30.883C43.1213 30.8778 43.1086 30.8691 43.0987 30.8577C42.545 30.2293 41.7702 29.8388 40.9357 29.7677C40.8357 29.7517 40.8076 29.5777 40.8796 29.5087C40.7536 29.4777 40.7336 29.2387 40.8796 29.2037L40.9406 29.1917C40.9108 29.1574 40.8953 29.113 40.8973 29.0675C40.8994 29.0221 40.9188 28.9792 40.9517 28.9477C40.9217 28.9477 40.8926 28.9477 40.8626 28.9577C40.8362 28.9605 40.8094 28.9566 40.7849 28.9465C40.7603 28.9363 40.7386 28.9202 40.7218 28.8995C40.7051 28.8789 40.6937 28.8543 40.6888 28.8282C40.6839 28.802 40.6855 28.7751 40.6937 28.7497C40.6688 28.7282 40.6504 28.7001 40.6407 28.6686C40.6309 28.6372 40.6302 28.6036 40.6386 28.5717Z" fill="#6F3149"/>
<path opacity="0.5" d="M41.3678 36.6615C41.1038 35.7015 40.8268 34.7465 40.5558 33.7885C40.4218 33.3145 40.2878 32.8405 40.1558 32.3665C40.0514 31.8847 39.8959 31.4154 39.6918 30.9665C39.6795 30.9513 39.6631 30.94 39.6445 30.934C39.6259 30.928 39.606 30.9276 39.5872 30.9328C39.5683 30.938 39.5514 30.9486 39.5386 30.9633C39.5257 30.978 39.5174 30.9962 39.5148 31.0155C39.576 31.4958 39.6883 31.9681 39.8498 32.4245C39.9831 32.9079 40.1208 33.3909 40.2628 33.8735C40.5168 34.7635 40.7678 35.6545 41.0278 36.5425C40.4008 36.5109 39.7774 36.4283 39.1638 36.2955C39.1372 36.2884 39.109 36.292 39.0852 36.3057C39.0613 36.3194 39.0439 36.342 39.0368 36.3685C39.0296 36.3951 39.0333 36.4233 39.047 36.4472C39.0607 36.471 39.0833 36.4884 39.1098 36.4955C39.7932 36.726 40.5086 36.8475 41.2298 36.8555C41.2526 36.8543 41.2749 36.848 41.295 36.837C41.3151 36.8259 41.3324 36.8105 41.3456 36.7919C41.3589 36.7732 41.3678 36.7518 41.3716 36.7292C41.3754 36.7067 41.3741 36.6835 41.3678 36.6615Z" fill="#BC4A60"/>
<path d="M25.4959 48.3708C23.4539 48.3908 22.3959 50.1708 21.8959 53.9438C21.4959 56.9438 18.7739 69.1718 22.3209 70.9438C24.8129 72.1858 36.4849 60.4968 37.6279 58.9038C36.6469 58.3485 35.8215 57.5551 35.2279 56.5968C34.2279 57.3728 26.0279 65.1268 25.6809 64.2738C25.2639 63.2398 27.4979 57.3738 27.5689 53.9208C27.6239 51.4858 27.5379 48.3458 25.4959 48.3708Z" fill="#E29A8F"/>
<path d="M26.2669 46.9717C26.8599 47.2947 28.4119 50.1507 27.9669 54.3487C27.7339 56.6698 27.3771 58.9767 26.8979 61.2597C26.8979 61.2597 24.1279 62.5197 20.0039 60.8917C20.3184 58.0411 20.9095 55.2278 21.7689 52.4917L22.8849 49.7067C22.8849 49.7067 24.2209 45.8567 26.2669 46.9717Z" fill="#658EE5"/>
<path d="M38.707 58.3715C39.692 57.5015 41.074 56.3625 41.879 55.7265C42.733 55.0525 42.6729 54.7125 41.8269 55.0155C41.0769 55.2835 40.4409 55.6985 40.3439 55.5895C40.2969 55.5355 40.798 55.1895 41.501 54.6955C42.224 54.1835 42.711 53.7675 42.561 53.4385C42.411 53.1095 40.37 54.3025 39.85 54.7035C40.4624 54 41.1248 53.3416 41.832 52.7335C42.554 52.0625 42.2109 51.6335 41.1529 52.3335C40.0949 53.0335 39.29 53.8075 38.97 53.9195C39.2814 53.3304 39.689 52.7974 40.1759 52.3425C40.8479 51.5835 40.476 51.3025 39.642 51.9095C38.642 52.6375 37.566 54.1275 37.194 54.0035C36.984 53.7875 37.2939 53.4255 37.3479 52.3435C37.4019 51.2615 36.7009 52.4545 36.2709 53.4725C35.8269 54.5265 35.071 55.5725 34.75 56.4475C34.312 57.6265 34.231 58.5245 35.018 59.1935C35.805 59.8625 36.715 60.1305 38.707 58.3715Z" fill="#E29A8F"/>
<path d="M33.0433 59.2981L34.7651 61.1368C34.8319 61.2087 34.9124 61.2666 35.0018 61.3071C35.0912 61.3476 35.1877 61.37 35.2858 61.3729C35.3839 61.3758 35.4817 61.3592 35.5733 61.324C35.6649 61.2888 35.7487 61.2358 35.8196 61.168C35.9636 61.029 36.0472 60.839 36.0525 60.639C36.0577 60.4389 35.9842 60.2448 35.8477 60.0985L34.1258 58.2598C34.0588 58.1877 33.9781 58.1297 33.8885 58.0892C33.7988 58.0486 33.7019 58.0263 33.6036 58.0236C33.5052 58.0209 33.4073 58.0378 33.3155 58.0734C33.2238 58.1089 33.14 58.1624 33.0691 58.2307C32.926 58.3698 32.8432 58.5596 32.8384 58.7591C32.8335 58.9586 32.9071 59.1521 33.0433 59.2981Z" fill="#B26167"/>
<path d="M35.3488 60.666C35.2243 60.7866 35.077 60.8811 34.9156 60.9439C34.7541 61.0067 34.5817 61.0366 34.4085 61.0319C34.2353 61.0271 34.0648 60.9878 33.9071 60.9162C33.7493 60.8446 33.6074 60.7422 33.4898 60.615C33.2495 60.3575 33.12 60.0159 33.1294 59.6638C33.1387 59.3117 33.2861 58.9774 33.5398 58.733C33.6642 58.6125 33.8115 58.518 33.9729 58.4552C34.1344 58.3923 34.3068 58.3624 34.48 58.3672C34.6532 58.3719 34.8237 58.4113 34.9815 58.4828C35.1392 58.5544 35.2811 58.6568 35.3988 58.784C35.6391 59.0415 35.7685 59.3832 35.7591 59.7353C35.7498 60.0873 35.6024 60.4217 35.3488 60.666Z" fill="#FFD0BE"/>
<path d="M83.8758 18.595C83.8758 18.595 88.3418 15.87 85.1698 11.746C79.8048 12.494 66.8948 14.087 65.4068 10.589C63.9188 7.09105 64.1298 2.72905 66.0428 1.30405C67.9558 -0.120952 85.3238 -1.01695 87.3788 2.09205C89.4338 5.20105 88.9869 9.42605 87.4869 10.465C88.9149 16.479 86.3418 17.348 83.8758 18.595Z" fill="#658EE5"/>
<path d="M33.8583 17.5749C33.8583 17.5749 32.8033 13.3279 36.9923 12.7749C42.0753 13.5599 54.2983 15.1888 54.9433 8.66685C55.5943 2.08785 53.4513 1.37785 49.5313 0.941851C44.2233 0.351851 36.1103 -1.57315 33.8953 2.72885C32.8053 4.84585 32.9473 10.3999 34.3693 11.4899C32.5063 13.6669 32.2753 15.1089 33.8583 17.5749Z" fill="#FF9650"/>
<path d="M110.91 46.357H115.48V47.257H111.87V49.367H115.23V50.267H111.87V52.537H115.66V53.437H110.91V46.357ZM116.813 49.277C117.067 49.0437 117.36 48.8703 117.693 48.757C118.027 48.637 118.36 48.577 118.693 48.577C119.04 48.577 119.337 48.6203 119.583 48.707C119.837 48.7937 120.043 48.9103 120.203 49.057C120.363 49.2037 120.48 49.3737 120.553 49.567C120.633 49.7537 120.673 49.9503 120.673 50.157V52.577C120.673 52.7437 120.677 52.897 120.683 53.037C120.69 53.177 120.7 53.3103 120.713 53.437H119.913C119.893 53.197 119.883 52.957 119.883 52.717H119.863C119.663 53.0237 119.427 53.2403 119.153 53.367C118.88 53.4937 118.563 53.557 118.203 53.557C117.983 53.557 117.773 53.527 117.573 53.467C117.373 53.407 117.197 53.317 117.043 53.197C116.897 53.077 116.78 52.9303 116.693 52.757C116.607 52.577 116.563 52.3703 116.563 52.137C116.563 51.8303 116.63 51.5737 116.763 51.367C116.903 51.1603 117.09 50.9937 117.323 50.867C117.563 50.7337 117.84 50.6403 118.153 50.587C118.473 50.527 118.813 50.497 119.173 50.497H119.833V50.297C119.833 50.177 119.81 50.057 119.763 49.937C119.717 49.817 119.647 49.7103 119.553 49.617C119.46 49.517 119.343 49.4403 119.203 49.387C119.063 49.327 118.897 49.297 118.703 49.297C118.53 49.297 118.377 49.3137 118.243 49.347C118.117 49.3803 118 49.4237 117.893 49.477C117.787 49.5237 117.69 49.5803 117.603 49.647C117.517 49.7137 117.433 49.777 117.353 49.837L116.813 49.277ZM119.353 51.157C119.14 51.157 118.92 51.1703 118.693 51.197C118.473 51.217 118.27 51.2603 118.083 51.327C117.903 51.3937 117.753 51.487 117.633 51.607C117.52 51.727 117.463 51.8803 117.463 52.067C117.463 52.3403 117.553 52.537 117.733 52.657C117.92 52.777 118.17 52.837 118.483 52.837C118.73 52.837 118.94 52.797 119.113 52.717C119.287 52.6303 119.427 52.5203 119.533 52.387C119.64 52.2537 119.717 52.107 119.763 51.947C119.81 51.7803 119.833 51.617 119.833 51.457V51.157H119.353ZM121.979 48.697H122.879V49.427H122.899C122.959 49.3003 123.039 49.187 123.139 49.087C123.239 48.9803 123.349 48.8903 123.469 48.817C123.595 48.7437 123.732 48.687 123.879 48.647C124.025 48.6003 124.172 48.577 124.319 48.577C124.465 48.577 124.599 48.597 124.719 48.637L124.679 49.607C124.605 49.587 124.532 49.5703 124.459 49.557C124.385 49.5437 124.312 49.537 124.239 49.537C123.799 49.537 123.462 49.6603 123.229 49.907C122.995 50.1537 122.879 50.537 122.879 51.057V53.437H121.979V48.697ZM125.68 48.697H126.58V49.427H126.6C126.713 49.1737 126.91 48.9703 127.19 48.817C127.47 48.657 127.793 48.577 128.16 48.577C128.387 48.577 128.603 48.6137 128.81 48.687C129.023 48.7537 129.207 48.8603 129.36 49.007C129.52 49.1537 129.647 49.3437 129.74 49.577C129.833 49.8037 129.88 50.0737 129.88 50.387V53.437H128.98V50.637C128.98 50.417 128.95 50.2303 128.89 50.077C128.83 49.917 128.75 49.7903 128.65 49.697C128.55 49.597 128.433 49.527 128.3 49.487C128.173 49.4403 128.04 49.417 127.9 49.417C127.713 49.417 127.54 49.447 127.38 49.507C127.22 49.567 127.08 49.6637 126.96 49.797C126.84 49.9237 126.747 50.087 126.68 50.287C126.613 50.487 126.58 50.7237 126.58 50.997V53.437H125.68V48.697ZM151.326 49.957C151.159 49.7837 150.983 49.6537 150.796 49.567C150.616 49.4737 150.399 49.427 150.146 49.427C149.899 49.427 149.683 49.4737 149.496 49.567C149.316 49.6537 149.163 49.777 149.036 49.937C148.916 50.0903 148.823 50.2703 148.756 50.477C148.696 50.677 148.666 50.887 148.666 51.107C148.666 51.327 148.703 51.537 148.776 51.737C148.849 51.9303 148.953 52.1003 149.086 52.247C149.219 52.3937 149.379 52.5103 149.566 52.597C149.753 52.677 149.963 52.717 150.196 52.717C150.449 52.717 150.666 52.6737 150.846 52.587C151.026 52.4937 151.193 52.3603 151.346 52.187L151.986 52.827C151.753 53.087 151.479 53.2737 151.166 53.387C150.859 53.5003 150.533 53.557 150.186 53.557C149.819 53.557 149.483 53.497 149.176 53.377C148.876 53.257 148.616 53.0903 148.396 52.877C148.176 52.657 148.006 52.397 147.886 52.097C147.766 51.7903 147.706 51.4537 147.706 51.087C147.706 50.7203 147.766 50.3837 147.886 50.077C148.006 49.7703 148.173 49.507 148.386 49.287C148.606 49.067 148.866 48.897 149.166 48.777C149.473 48.6503 149.813 48.587 150.186 48.587C150.533 48.587 150.863 48.6503 151.176 48.777C151.496 48.897 151.773 49.0837 152.006 49.337L151.326 49.957ZM153.49 51.067C153.49 51.307 153.527 51.5303 153.6 51.737C153.673 51.937 153.777 52.1103 153.91 52.257C154.043 52.397 154.207 52.5103 154.4 52.597C154.593 52.677 154.81 52.717 155.05 52.717C155.29 52.717 155.507 52.677 155.7 52.597C155.893 52.5103 156.057 52.397 156.19 52.257C156.323 52.1103 156.427 51.937 156.5 51.737C156.573 51.5303 156.61 51.307 156.61 51.067C156.61 50.827 156.573 50.607 156.5 50.407C156.427 50.2003 156.323 50.027 156.19 49.887C156.057 49.7403 155.893 49.627 155.7 49.547C155.507 49.4603 155.29 49.417 155.05 49.417C154.81 49.417 154.593 49.4603 154.4 49.547C154.207 49.627 154.043 49.7403 153.91 49.887C153.777 50.027 153.673 50.2003 153.6 50.407C153.527 50.607 153.49 50.827 153.49 51.067ZM152.53 51.067C152.53 50.7203 152.593 50.397 152.72 50.097C152.853 49.797 153.033 49.5337 153.26 49.307C153.487 49.0803 153.753 48.9037 154.06 48.777C154.367 48.6437 154.697 48.577 155.05 48.577C155.403 48.577 155.733 48.6437 156.04 48.777C156.347 48.9037 156.613 49.0803 156.84 49.307C157.067 49.5337 157.243 49.797 157.37 50.097C157.503 50.397 157.57 50.7203 157.57 51.067C157.57 51.4137 157.503 51.7403 157.37 52.047C157.243 52.347 157.067 52.6103 156.84 52.837C156.613 53.057 156.347 53.2337 156.04 53.367C155.733 53.4937 155.403 53.557 155.05 53.557C154.697 53.557 154.367 53.4937 154.06 53.367C153.753 53.2337 153.487 53.057 153.26 52.837C153.033 52.6103 152.853 52.347 152.72 52.047C152.593 51.7403 152.53 51.4137 152.53 51.067ZM158.768 48.697H159.668V53.437H158.768V48.697ZM158.558 46.997C158.558 46.817 158.621 46.6637 158.748 46.537C158.881 46.4037 159.038 46.337 159.218 46.337C159.398 46.337 159.551 46.4037 159.678 46.537C159.811 46.6637 159.878 46.817 159.878 46.997C159.878 47.177 159.811 47.3337 159.678 47.467C159.551 47.5937 159.398 47.657 159.218 47.657C159.038 47.657 158.881 47.5937 158.748 47.467C158.621 47.3337 158.558 47.177 158.558 46.997ZM161.1 48.697H162V49.427H162.02C162.133 49.1737 162.33 48.9703 162.61 48.817C162.89 48.657 163.213 48.577 163.58 48.577C163.807 48.577 164.023 48.6137 164.23 48.687C164.443 48.7537 164.627 48.8603 164.78 49.007C164.94 49.1537 165.067 49.3437 165.16 49.577C165.253 49.8037 165.3 50.0737 165.3 50.387V53.437H164.4V50.637C164.4 50.417 164.37 50.2303 164.31 50.077C164.25 49.917 164.17 49.7903 164.07 49.697C163.97 49.597 163.853 49.527 163.72 49.487C163.593 49.4403 163.46 49.417 163.32 49.417C163.133 49.417 162.96 49.447 162.8 49.507C162.64 49.567 162.5 49.6637 162.38 49.797C162.26 49.9237 162.167 50.087 162.1 50.287C162.033 50.487 162 50.7237 162 50.997V53.437H161.1V48.697ZM169.177 49.887C169.07 49.7537 168.937 49.6437 168.777 49.557C168.623 49.4637 168.433 49.417 168.207 49.417C167.993 49.417 167.807 49.4637 167.647 49.557C167.493 49.6437 167.417 49.7737 167.417 49.947C167.417 50.087 167.46 50.2003 167.547 50.287C167.64 50.3737 167.747 50.4437 167.867 50.497C167.993 50.5503 168.127 50.5903 168.267 50.617C168.407 50.6437 168.527 50.667 168.627 50.687C168.82 50.7337 169 50.7903 169.167 50.857C169.34 50.9237 169.487 51.0103 169.607 51.117C169.733 51.2237 169.83 51.3537 169.897 51.507C169.97 51.6603 170.007 51.847 170.007 52.067C170.007 52.3337 169.95 52.5637 169.837 52.757C169.723 52.9437 169.577 53.097 169.397 53.217C169.217 53.337 169.01 53.4237 168.777 53.477C168.55 53.5303 168.32 53.557 168.087 53.557C167.693 53.557 167.347 53.497 167.047 53.377C166.753 53.257 166.49 53.037 166.257 52.717L166.937 52.157C167.083 52.3037 167.247 52.4337 167.427 52.547C167.607 52.6603 167.827 52.717 168.087 52.717C168.2 52.717 168.313 52.707 168.427 52.687C168.547 52.6603 168.65 52.6237 168.737 52.577C168.83 52.5237 168.903 52.4603 168.957 52.387C169.017 52.307 169.047 52.217 169.047 52.117C169.047 51.9837 169.003 51.8737 168.917 51.787C168.837 51.7003 168.737 51.6337 168.617 51.587C168.503 51.5337 168.38 51.4937 168.247 51.467C168.12 51.4337 168.007 51.407 167.907 51.387C167.713 51.3403 167.53 51.287 167.357 51.227C167.183 51.167 167.03 51.087 166.897 50.987C166.763 50.887 166.657 50.7603 166.577 50.607C166.497 50.4537 166.457 50.2637 166.457 50.037C166.457 49.7903 166.507 49.577 166.607 49.397C166.713 49.2103 166.85 49.057 167.017 48.937C167.19 48.817 167.383 48.727 167.597 48.667C167.817 48.607 168.037 48.577 168.257 48.577C168.577 48.577 168.883 48.637 169.177 48.757C169.47 48.877 169.703 49.077 169.877 49.357L169.177 49.887ZM174.233 49.477H173.213V48.697H174.233V47.637C174.233 47.0037 174.353 46.5337 174.593 46.227C174.84 45.9137 175.26 45.757 175.853 45.757C175.953 45.757 176.056 45.7603 176.163 45.767C176.276 45.7737 176.396 45.7937 176.523 45.827L176.423 46.627C176.336 46.5937 176.253 46.5703 176.173 46.557C176.093 46.5437 176.006 46.537 175.913 46.537C175.746 46.537 175.613 46.5637 175.513 46.617C175.413 46.6637 175.333 46.7337 175.273 46.827C175.22 46.9203 175.183 47.0337 175.163 47.167C175.15 47.2937 175.143 47.4403 175.143 47.607V48.697H176.213V49.477H175.133V53.437H174.233V49.477ZM177.943 51.067C177.943 51.307 177.98 51.5303 178.053 51.737C178.127 51.937 178.23 52.1103 178.363 52.257C178.497 52.397 178.66 52.5103 178.853 52.597C179.047 52.677 179.263 52.717 179.503 52.717C179.743 52.717 179.96 52.677 180.153 52.597C180.347 52.5103 180.51 52.397 180.643 52.257C180.777 52.1103 180.88 51.937 180.953 51.737C181.027 51.5303 181.063 51.307 181.063 51.067C181.063 50.827 181.027 50.607 180.953 50.407C180.88 50.2003 180.777 50.027 180.643 49.887C180.51 49.7403 180.347 49.627 180.153 49.547C179.96 49.4603 179.743 49.417 179.503 49.417C179.263 49.417 179.047 49.4603 178.853 49.547C178.66 49.627 178.497 49.7403 178.363 49.887C178.23 50.027 178.127 50.2003 178.053 50.407C177.98 50.607 177.943 50.827 177.943 51.067ZM176.983 51.067C176.983 50.7203 177.047 50.397 177.173 50.097C177.307 49.797 177.487 49.5337 177.713 49.307C177.94 49.0803 178.207 48.9037 178.513 48.777C178.82 48.6437 179.15 48.577 179.503 48.577C179.857 48.577 180.187 48.6437 180.493 48.777C180.8 48.9037 181.067 49.0803 181.293 49.307C181.52 49.5337 181.697 49.797 181.823 50.097C181.957 50.397 182.023 50.7203 182.023 51.067C182.023 51.4137 181.957 51.7403 181.823 52.047C181.697 52.347 181.52 52.6103 181.293 52.837C181.067 53.057 180.8 53.2337 180.493 53.367C180.187 53.4937 179.857 53.557 179.503 53.557C179.15 53.557 178.82 53.4937 178.513 53.367C178.207 53.2337 177.94 53.057 177.713 52.837C177.487 52.6103 177.307 52.347 177.173 52.047C177.047 51.7403 176.983 51.4137 176.983 51.067ZM183.151 48.697H184.051V49.427H184.071C184.131 49.3003 184.211 49.187 184.311 49.087C184.411 48.9803 184.521 48.8903 184.641 48.817C184.767 48.7437 184.904 48.687 185.051 48.647C185.197 48.6003 185.344 48.577 185.491 48.577C185.637 48.577 185.771 48.597 185.891 48.637L185.851 49.607C185.777 49.587 185.704 49.5703 185.631 49.557C185.557 49.5437 185.484 49.537 185.411 49.537C184.971 49.537 184.634 49.6603 184.401 49.907C184.167 50.1537 184.051 50.537 184.051 51.057V53.437H183.151V48.697ZM190.315 51.397C190.315 51.6037 190.358 51.7937 190.445 51.967C190.538 52.1337 190.658 52.277 190.805 52.397C190.952 52.517 191.122 52.6103 191.315 52.677C191.508 52.7437 191.708 52.777 191.915 52.777C192.195 52.777 192.438 52.7137 192.645 52.587C192.852 52.4537 193.042 52.2803 193.215 52.067L193.895 52.587C193.395 53.2337 192.695 53.557 191.795 53.557C191.422 53.557 191.082 53.4937 190.775 53.367C190.475 53.2403 190.218 53.067 190.005 52.847C189.798 52.6203 189.638 52.357 189.525 52.057C189.412 51.7503 189.355 51.4203 189.355 51.067C189.355 50.7137 189.415 50.387 189.535 50.087C189.662 49.7803 189.832 49.517 190.045 49.297C190.265 49.0703 190.525 48.8937 190.825 48.767C191.125 48.6403 191.452 48.577 191.805 48.577C192.225 48.577 192.578 48.6503 192.865 48.797C193.158 48.9437 193.398 49.137 193.585 49.377C193.772 49.6103 193.905 49.877 193.985 50.177C194.072 50.4703 194.115 50.7703 194.115 51.077V51.397H190.315ZM193.155 50.677C193.148 50.477 193.115 50.2937 193.055 50.127C193.002 49.9603 192.918 49.817 192.805 49.697C192.692 49.5703 192.548 49.4737 192.375 49.407C192.208 49.3337 192.012 49.297 191.785 49.297C191.565 49.297 191.362 49.3403 191.175 49.427C190.995 49.507 190.842 49.6137 190.715 49.747C190.588 49.8803 190.488 50.0303 190.415 50.197C190.348 50.357 190.315 50.517 190.315 50.677H193.155ZM194.622 48.697H195.662L197.082 52.327L198.442 48.697H199.402L197.542 53.437H196.552L194.622 48.697ZM200.872 51.397C200.872 51.6037 200.915 51.7937 201.002 51.967C201.095 52.1337 201.215 52.277 201.362 52.397C201.508 52.517 201.678 52.6103 201.872 52.677C202.065 52.7437 202.265 52.777 202.472 52.777C202.752 52.777 202.995 52.7137 203.202 52.587C203.408 52.4537 203.598 52.2803 203.772 52.067L204.452 52.587C203.952 53.2337 203.252 53.557 202.352 53.557C201.978 53.557 201.638 53.4937 201.332 53.367C201.032 53.2403 200.775 53.067 200.562 52.847C200.355 52.6203 200.195 52.357 200.082 52.057C199.968 51.7503 199.912 51.4203 199.912 51.067C199.912 50.7137 199.972 50.387 200.092 50.087C200.218 49.7803 200.388 49.517 200.602 49.297C200.822 49.0703 201.082 48.8937 201.382 48.767C201.682 48.6403 202.008 48.577 202.362 48.577C202.782 48.577 203.135 48.6503 203.422 48.797C203.715 48.9437 203.955 49.137 204.142 49.377C204.328 49.6103 204.462 49.877 204.542 50.177C204.628 50.4703 204.672 50.7703 204.672 51.077V51.397H200.872ZM203.712 50.677C203.705 50.477 203.672 50.2937 203.612 50.127C203.558 49.9603 203.475 49.817 203.362 49.697C203.248 49.5703 203.105 49.4737 202.932 49.407C202.765 49.3337 202.568 49.297 202.342 49.297C202.122 49.297 201.918 49.3403 201.732 49.427C201.552 49.507 201.398 49.6137 201.272 49.747C201.145 49.8803 201.045 50.0303 200.972 50.197C200.905 50.357 200.872 50.517 200.872 50.677H203.712ZM205.748 48.697H206.648V49.427H206.668C206.728 49.3003 206.808 49.187 206.908 49.087C207.008 48.9803 207.118 48.8903 207.238 48.817C207.365 48.7437 207.502 48.687 207.648 48.647C207.795 48.6003 207.942 48.577 208.088 48.577C208.235 48.577 208.368 48.597 208.488 48.637L208.448 49.607C208.375 49.587 208.302 49.5703 208.228 49.557C208.155 49.5437 208.082 49.537 208.008 49.537C207.568 49.537 207.232 49.6603 206.998 49.907C206.765 50.1537 206.648 50.537 206.648 51.057V53.437H205.748V48.697ZM208.88 48.697H209.92L211.33 52.397H211.35L212.69 48.697H213.66L211.41 54.457C211.33 54.6637 211.246 54.8503 211.16 55.017C211.073 55.1903 210.97 55.337 210.85 55.457C210.73 55.577 210.583 55.6703 210.41 55.737C210.243 55.8037 210.036 55.837 209.79 55.837C209.656 55.837 209.52 55.827 209.38 55.807C209.246 55.7937 209.116 55.7603 208.99 55.707L209.1 54.887C209.28 54.9603 209.46 54.997 209.64 54.997C209.78 54.997 209.896 54.977 209.99 54.937C210.09 54.9037 210.173 54.8503 210.24 54.777C210.313 54.7103 210.373 54.6303 210.42 54.537C210.466 54.4437 210.513 54.337 210.56 54.217L210.85 53.467L208.88 48.697ZM217.583 49.477H216.563V48.697H217.583V47.637C217.583 47.0037 217.703 46.5337 217.943 46.227C218.189 45.9137 218.609 45.757 219.203 45.757C219.303 45.757 219.406 45.7603 219.513 45.767C219.626 45.7737 219.746 45.7937 219.873 45.827L219.773 46.627C219.686 46.5937 219.603 46.5703 219.523 46.557C219.443 46.5437 219.356 46.537 219.263 46.537C219.096 46.537 218.963 46.5637 218.863 46.617C218.763 46.6637 218.683 46.7337 218.623 46.827C218.569 46.9203 218.533 47.0337 218.513 47.167C218.499 47.2937 218.493 47.4403 218.493 47.607V48.697H219.563V49.477H218.483V53.437H217.583V49.477ZM220.563 48.697H221.463V49.427H221.483C221.543 49.3003 221.623 49.187 221.723 49.087C221.823 48.9803 221.933 48.8903 222.053 48.817C222.179 48.7437 222.316 48.687 222.463 48.647C222.609 48.6003 222.756 48.577 222.903 48.577C223.049 48.577 223.183 48.597 223.303 48.637L223.263 49.607C223.189 49.587 223.116 49.5703 223.043 49.557C222.969 49.5437 222.896 49.537 222.823 49.537C222.383 49.537 222.046 49.6603 221.813 49.907C221.579 50.1537 221.463 50.537 221.463 51.057V53.437H220.563V48.697ZM224.334 48.697H225.234V53.437H224.334V48.697ZM224.124 46.997C224.124 46.817 224.187 46.6637 224.314 46.537C224.447 46.4037 224.604 46.337 224.784 46.337C224.964 46.337 225.117 46.4037 225.244 46.537C225.377 46.6637 225.444 46.817 225.444 46.997C225.444 47.177 225.377 47.3337 225.244 47.467C225.117 47.5937 224.964 47.657 224.784 47.657C224.604 47.657 224.447 47.5937 224.314 47.467C224.187 47.3337 224.124 47.177 224.124 46.997ZM227.346 51.397C227.346 51.6037 227.39 51.7937 227.476 51.967C227.57 52.1337 227.69 52.277 227.836 52.397C227.983 52.517 228.153 52.6103 228.346 52.677C228.54 52.7437 228.74 52.777 228.946 52.777C229.226 52.777 229.47 52.7137 229.676 52.587C229.883 52.4537 230.073 52.2803 230.246 52.067L230.926 52.587C230.426 53.2337 229.726 53.557 228.826 53.557C228.453 53.557 228.113 53.4937 227.806 53.367C227.506 53.2403 227.25 53.067 227.036 52.847C226.83 52.6203 226.67 52.357 226.556 52.057C226.443 51.7503 226.386 51.4203 226.386 51.067C226.386 50.7137 226.446 50.387 226.566 50.087C226.693 49.7803 226.863 49.517 227.076 49.297C227.296 49.0703 227.556 48.8937 227.856 48.767C228.156 48.6403 228.483 48.577 228.836 48.577C229.256 48.577 229.61 48.6503 229.896 48.797C230.19 48.9437 230.43 49.137 230.616 49.377C230.803 49.6103 230.936 49.877 231.016 50.177C231.103 50.4703 231.146 50.7703 231.146 51.077V51.397H227.346ZM230.186 50.677C230.18 50.477 230.146 50.2937 230.086 50.127C230.033 49.9603 229.95 49.817 229.836 49.697C229.723 49.5703 229.58 49.4737 229.406 49.407C229.24 49.3337 229.043 49.297 228.816 49.297C228.596 49.297 228.393 49.3403 228.206 49.427C228.026 49.507 227.873 49.6137 227.746 49.747C227.62 49.8803 227.52 50.0303 227.446 50.197C227.38 50.357 227.346 50.517 227.346 50.677H230.186ZM232.223 48.697H233.123V49.427H233.143C233.256 49.1737 233.453 48.9703 233.733 48.817C234.013 48.657 234.336 48.577 234.703 48.577C234.93 48.577 235.146 48.6137 235.353 48.687C235.566 48.7537 235.75 48.8603 235.903 49.007C236.063 49.1537 236.19 49.3437 236.283 49.577C236.376 49.8037 236.423 50.0737 236.423 50.387V53.437H235.523V50.637C235.523 50.417 235.493 50.2303 235.433 50.077C235.373 49.917 235.293 49.7903 235.193 49.697C235.093 49.597 234.976 49.527 234.843 49.487C234.716 49.4403 234.583 49.417 234.443 49.417C234.256 49.417 234.083 49.447 233.923 49.507C233.763 49.567 233.623 49.6637 233.503 49.797C233.383 49.9237 233.29 50.087 233.223 50.287C233.156 50.487 233.123 50.7237 233.123 50.997V53.437H232.223V48.697ZM242.53 53.437H241.63V52.757H241.61C241.436 53.0103 241.196 53.207 240.89 53.347C240.59 53.487 240.28 53.557 239.96 53.557C239.593 53.557 239.26 53.4937 238.96 53.367C238.666 53.2403 238.413 53.0637 238.2 52.837C237.993 52.6103 237.833 52.347 237.72 52.047C237.606 51.747 237.55 51.4203 237.55 51.067C237.55 50.7137 237.606 50.387 237.72 50.087C237.833 49.7803 237.993 49.517 238.2 49.297C238.413 49.0703 238.666 48.8937 238.96 48.767C239.26 48.6403 239.593 48.577 239.96 48.577C240.3 48.577 240.62 48.6503 240.92 48.797C241.22 48.937 241.45 49.1303 241.61 49.377H241.63V45.877H242.53V53.437ZM240.07 52.717C240.31 52.717 240.526 52.677 240.72 52.597C240.913 52.5103 241.076 52.397 241.21 52.257C241.343 52.1103 241.446 51.937 241.52 51.737C241.593 51.5303 241.63 51.307 241.63 51.067C241.63 50.827 241.593 50.607 241.52 50.407C241.446 50.2003 241.343 50.027 241.21 49.887C241.076 49.7403 240.913 49.627 240.72 49.547C240.526 49.4603 240.31 49.417 240.07 49.417C239.83 49.417 239.613 49.4603 239.42 49.547C239.226 49.627 239.063 49.7403 238.93 49.887C238.796 50.027 238.693 50.2003 238.62 50.407C238.546 50.607 238.51 50.827 238.51 51.067C238.51 51.307 238.546 51.5303 238.62 51.737C238.693 51.937 238.796 52.1103 238.93 52.257C239.063 52.397 239.226 52.5103 239.42 52.597C239.613 52.677 239.83 52.717 240.07 52.717ZM246.106 48.697H247.146L248.556 52.397H248.576L249.916 48.697H250.886L248.636 54.457C248.556 54.6637 248.473 54.8503 248.386 55.017C248.299 55.1903 248.196 55.337 248.076 55.457C247.956 55.577 247.809 55.6703 247.636 55.737C247.469 55.8037 247.263 55.837 247.016 55.837C246.883 55.837 246.746 55.827 246.606 55.807C246.473 55.7937 246.343 55.7603 246.216 55.707L246.326 54.887C246.506 54.9603 246.686 54.997 246.866 54.997C247.006 54.997 247.123 54.977 247.216 54.937C247.316 54.9037 247.399 54.8503 247.466 54.777C247.539 54.7103 247.599 54.6303 247.646 54.537C247.693 54.4437 247.739 54.337 247.786 54.217L248.076 53.467L246.106 48.697ZM252.406 51.067C252.406 51.307 252.443 51.5303 252.516 51.737C252.589 51.937 252.693 52.1103 252.826 52.257C252.959 52.397 253.123 52.5103 253.316 52.597C253.509 52.677 253.726 52.717 253.966 52.717C254.206 52.717 254.423 52.677 254.616 52.597C254.809 52.5103 254.973 52.397 255.106 52.257C255.239 52.1103 255.343 51.937 255.416 51.737C255.489 51.5303 255.526 51.307 255.526 51.067C255.526 50.827 255.489 50.607 255.416 50.407C255.343 50.2003 255.239 50.027 255.106 49.887C254.973 49.7403 254.809 49.627 254.616 49.547C254.423 49.4603 254.206 49.417 253.966 49.417C253.726 49.417 253.509 49.4603 253.316 49.547C253.123 49.627 252.959 49.7403 252.826 49.887C252.693 50.027 252.589 50.2003 252.516 50.407C252.443 50.607 252.406 50.827 252.406 51.067ZM251.446 51.067C251.446 50.7203 251.509 50.397 251.636 50.097C251.769 49.797 251.949 49.5337 252.176 49.307C252.403 49.0803 252.669 48.9037 252.976 48.777C253.283 48.6437 253.613 48.577 253.966 48.577C254.319 48.577 254.649 48.6437 254.956 48.777C255.263 48.9037 255.529 49.0803 255.756 49.307C255.983 49.5337 256.159 49.797 256.286 50.097C256.419 50.397 256.486 50.7203 256.486 51.067C256.486 51.4137 256.419 51.7403 256.286 52.047C256.159 52.347 255.983 52.6103 255.756 52.837C255.529 53.057 255.263 53.2337 254.956 53.367C254.649 53.4937 254.319 53.557 253.966 53.557C253.613 53.557 253.283 53.4937 252.976 53.367C252.669 53.2337 252.403 53.057 252.176 52.837C251.949 52.6103 251.769 52.347 251.636 52.047C251.509 51.7403 251.446 51.4137 251.446 51.067ZM261.814 53.437H260.914V52.707H260.894C260.78 52.9603 260.584 53.167 260.304 53.327C260.024 53.4803 259.7 53.557 259.334 53.557C259.1 53.557 258.88 53.5203 258.674 53.447C258.467 53.3803 258.284 53.2737 258.124 53.127C257.97 52.9803 257.847 52.7937 257.754 52.567C257.66 52.3337 257.614 52.0603 257.614 51.747V48.697H258.514V51.497C258.514 51.717 258.544 51.907 258.604 52.067C258.664 52.2203 258.744 52.347 258.844 52.447C258.944 52.5403 259.057 52.6103 259.184 52.657C259.317 52.697 259.454 52.717 259.594 52.717C259.78 52.717 259.954 52.687 260.114 52.627C260.274 52.567 260.414 52.4737 260.534 52.347C260.654 52.2137 260.747 52.047 260.814 51.847C260.88 51.647 260.914 51.4103 260.914 51.137V48.697H261.814V53.437ZM266.023 48.697H266.923V53.437H266.023V48.697ZM265.813 46.997C265.813 46.817 265.877 46.6637 266.003 46.537C266.137 46.4037 266.293 46.337 266.473 46.337C266.653 46.337 266.807 46.4037 266.933 46.537C267.067 46.6637 267.133 46.817 267.133 46.997C267.133 47.177 267.067 47.3337 266.933 47.467C266.807 47.5937 266.653 47.657 266.473 47.657C266.293 47.657 266.137 47.5937 266.003 47.467C265.877 47.3337 265.813 47.177 265.813 46.997ZM268.356 48.697H269.256V49.427H269.276C269.389 49.1737 269.586 48.9703 269.866 48.817C270.146 48.657 270.469 48.577 270.836 48.577C271.062 48.577 271.279 48.6137 271.486 48.687C271.699 48.7537 271.882 48.8603 272.036 49.007C272.196 49.1537 272.322 49.3437 272.416 49.577C272.509 49.8037 272.556 50.0737 272.556 50.387V53.437H271.656V50.637C271.656 50.417 271.626 50.2303 271.566 50.077C271.506 49.917 271.426 49.7903 271.326 49.697C271.226 49.597 271.109 49.527 270.976 49.487C270.849 49.4403 270.716 49.417 270.576 49.417C270.389 49.417 270.216 49.447 270.056 49.507C269.896 49.567 269.756 49.6637 269.636 49.797C269.516 49.9237 269.422 50.087 269.356 50.287C269.289 50.487 269.256 50.7237 269.256 50.997V53.437H268.356V48.697ZM273.342 48.697H274.382L275.802 52.327L277.162 48.697H278.122L276.262 53.437H275.272L273.342 48.697ZM278.982 48.697H279.882V53.437H278.982V48.697ZM278.772 46.997C278.772 46.817 278.836 46.6637 278.962 46.537C279.096 46.4037 279.252 46.337 279.432 46.337C279.612 46.337 279.766 46.4037 279.892 46.537C280.026 46.6637 280.092 46.817 280.092 46.997C280.092 47.177 280.026 47.3337 279.892 47.467C279.766 47.5937 279.612 47.657 279.432 47.657C279.252 47.657 279.096 47.5937 278.962 47.467C278.836 47.3337 278.772 47.177 278.772 46.997ZM283.855 49.477H282.565V51.627C282.565 51.7603 282.568 51.8937 282.575 52.027C282.581 52.1537 282.605 52.2703 282.645 52.377C282.691 52.477 282.758 52.5603 282.845 52.627C282.938 52.687 283.071 52.717 283.245 52.717C283.351 52.717 283.461 52.707 283.575 52.687C283.688 52.667 283.791 52.6303 283.885 52.577V53.397C283.778 53.457 283.638 53.497 283.465 53.517C283.298 53.5437 283.168 53.557 283.075 53.557C282.728 53.557 282.458 53.5103 282.265 53.417C282.078 53.317 281.938 53.1903 281.845 53.037C281.758 52.8837 281.705 52.7137 281.685 52.527C281.671 52.3337 281.665 52.1403 281.665 51.947V49.477H280.625V48.697H281.665V47.367H282.565V48.697H283.855V49.477ZM285.696 51.397C285.696 51.6037 285.739 51.7937 285.826 51.967C285.919 52.1337 286.039 52.277 286.186 52.397C286.333 52.517 286.503 52.6103 286.696 52.677C286.889 52.7437 287.089 52.777 287.296 52.777C287.576 52.777 287.819 52.7137 288.026 52.587C288.233 52.4537 288.423 52.2803 288.596 52.067L289.276 52.587C288.776 53.2337 288.076 53.557 287.176 53.557C286.803 53.557 286.463 53.4937 286.156 53.367C285.856 53.2403 285.599 53.067 285.386 52.847C285.179 52.6203 285.019 52.357 284.906 52.057C284.793 51.7503 284.736 51.4203 284.736 51.067C284.736 50.7137 284.796 50.387 284.916 50.087C285.043 49.7803 285.213 49.517 285.426 49.297C285.646 49.0703 285.906 48.8937 286.206 48.767C286.506 48.6403 286.833 48.577 287.186 48.577C287.606 48.577 287.959 48.6503 288.246 48.797C288.539 48.9437 288.779 49.137 288.966 49.377C289.153 49.6103 289.286 49.877 289.366 50.177C289.453 50.4703 289.496 50.7703 289.496 51.077V51.397H285.696ZM288.536 50.677C288.529 50.477 288.496 50.2937 288.436 50.127C288.383 49.9603 288.299 49.817 288.186 49.697C288.073 49.5703 287.929 49.4737 287.756 49.407C287.589 49.3337 287.393 49.297 287.166 49.297C286.946 49.297 286.743 49.3403 286.556 49.427C286.376 49.507 286.223 49.6137 286.096 49.747C285.969 49.8803 285.869 50.0303 285.796 50.197C285.729 50.357 285.696 50.517 285.696 50.677H288.536Z" fill="white"/>
</g>
<defs>
<clipPath id="clip0_1218_3344">
<rect width="330" height="71.875" fill="white"/>
</clipPath>
</defs>
</svg>
