<svg xmlns="http://www.w3.org/2000/svg" width="330" height="71.875" viewBox="0 0 330 71.875">
  <g id="Group_63315" data-name="Group 63315" transform="translate(-23 -133.563)">
    <rect id="Rectangle_17867" data-name="Rectangle 17867" width="330" height="55" rx="13" transform="translate(23 142)" fill="#161842" opacity="0.75"/>
    <text id="Welcome_back" data-name="Welcome back" transform="translate(226 169)" fill="#60dcbb" font-size="20" font-family="Avenir-Black, Avenir" font-weight="800"><tspan x="-90.72" y="0">Invite &amp; Earn Coins</tspan></text>
    <g id="Invite_vector" data-name="Invite vector" transform="translate(-7305.027 -12062.438)">
      <g id="Group_60357" data-name="Group 60357" transform="translate(7348.027 12196)">
        <g id="Group_60340" data-name="Group 60340" transform="translate(39.929 17.576)">
          <g id="Group_60329" data-name="Group 60329" transform="matrix(-0.995, 0.105, -0.105, -0.995, 11.18, 48.934)">
            <path id="Path_141251" data-name="Path 141251" d="M1.822,21.6c-1.93-.071-2.114-1.739-1.527-4.282S5.088,0,5.088,0L8.972,2.415s-3.68,13.827-4.247,15.7C4.14,20.049,3.029,21.643,1.822,21.6Z" transform="translate(0 0)" fill="#ffd0be"/>
          </g>
          <g id="Group_60330" data-name="Group 60330" transform="translate(4.467 26.083)">
            <path id="Path_141255" data-name="Path 141255" d="M588.551,275.027c1.051.492,4.48.616,7.821.942a48.862,48.862,0,0,0,8.4-.04c.684-5.542.815-21.963-.78-24.632a2.93,2.93,0,0,0-1.387-1.035,6.667,6.667,0,0,0-3.2-.12c-.88.1-1.865.255-2.926.394-.846.111-2.213.092-3.456.206a5.194,5.194,0,0,0-2.373.631c-.476.342-.5,1.823-1.15,4.265C588.8,258.255,588.4,269.485,588.551,275.027Z" transform="translate(-588.499 -250.019)" fill="#ff9650"/>
            <path id="Path_141256" data-name="Path 141256" d="M608.9,331.033c-.048.431-.1.817-.156,1.151a65.871,65.871,0,0,1-8.4.03c-3.341-.242-6.77-.333-7.821-.7-.014-.354-.032-.7-.052-1.034,1.836.21,4.816.317,7.74.518A81.416,81.416,0,0,0,608.9,331.033Z" transform="translate(-592.48 -312.973)" fill="#6f3149" opacity="0.5"/>
            <path id="Path_141257" data-name="Path 141257" d="M613.1,253.636a3.314,3.314,0,0,0,3.587-.559,9.034,9.034,0,0,0,2.213-2.637c-.88.075-1.866.189-2.926.292-.846.082-2.213.068-3.456.153A2.153,2.153,0,0,0,613.1,253.636Z" transform="translate(-607.999 -250.348)" fill="#ffd0be"/>
          </g>
          <g id="Group_60332" data-name="Group 60332" transform="translate(16.635 24.637)">
            <g id="Group_60331" data-name="Group 60331" transform="translate(11.994)">
              <path id="Path_141259" data-name="Path 141259" d="M709.559,250.845c.447-1.287,1.114-3.017,1.516-4,.427-1.043.2-1.317-.4-.611-.538.626-.9,1.324-1.041,1.276a5.621,5.621,0,0,1,.589-1.4c.391-.83.619-1.453.319-1.672s-1.53,1.9-1.8,2.527a20.309,20.309,0,0,1,.788-2.784c.31-.973-.212-1.18-.81-.012s-.93,2.279-1.16,2.543a6.24,6.24,0,0,1,.289-2.034c.221-1.025-.256-1.084-.7-.114-.528,1.165-.748,3.056-1.144,3.135-.3-.086-.2-.568-.7-1.568s-.524.432-.4,1.566c.131,1.173-.018,2.5.129,3.448.2,1.282.578,2.129,1.619,2.324S708.656,253.446,709.559,250.845Z" transform="translate(-704.854 -243.373)" fill="#ffd0be"/>
              <path id="Path_141260" data-name="Path 141260" d="M712.915,268.151a.232.232,0,0,1,.075.082.9.9,0,0,1,.071.115c.034.079.061.16.087.242.051.163.092.331.127.5s.066.331.085.5a1.916,1.916,0,0,1,.02.521.1.1,0,0,1-.2.01,3.762,3.762,0,0,1-.078-.485c-.027-.166-.054-.332-.091-.5s-.079-.319-.124-.477c-.023-.078-.045-.157-.066-.236-.01-.041-.007-.08-.014-.121a.253.253,0,0,1,0-.12A.065.065,0,0,1,712.915,268.151Z" transform="translate(-711.098 -262.751)" fill="#bc4a60" opacity="0.5"/>
            </g>
            <path id="Path_141261" data-name="Path 141261" d="M650.514,251.716c-1.72.72-1.848,2.89-.667,6.145.939,2.587,5.162,15.255,8.766,15.153,2.531-.072,6.021-12.96,6.272-14.736a6.037,6.037,0,0,1-2.9-.828c-.478,1.055-3.591,6.625-3.958,8.191-.55-1.495-2.219-7.433-3.613-10.245C653.431,253.415,652.205,251.009,650.514,251.716Z" transform="translate(-649.072 -249.802)" fill="#ffd0be"/>
          </g>
          <g id="Group_60339" data-name="Group 60339" transform="translate(0.434 0)">
            <path id="Path_141263" data-name="Path 141263" d="M576.226,154.391c-1.27.857-1.779,3.224-1.49,4.731s.869,2.051,1.738,2.051S578.585,152.8,576.226,154.391Z" transform="translate(-574.457 -148.957)" fill="#b26167"/>
            <g id="Group_60333" data-name="Group 60333" transform="translate(9.228 22.303)">
              <path id="Path_141264" data-name="Path 141264" d="M616.644,233.182l.052.372.3,2.2.266,1.922s-.093.758,1.412.468a4.309,4.309,0,0,0,1.956-.847.394.394,0,0,0,.142-.358l-.266-1.913-.273-1.97-.056-.406Z" transform="translate(-616.644 -232.646)" fill="#ffd0be"/>
              <path id="Path_141265" data-name="Path 141265" d="M616.885,235.015l.3,2.2a3.6,3.6,0,0,0,.952-.037,11.577,11.577,0,0,0,1.394-.267,6.963,6.963,0,0,0,1.164-.424l-.273-1.97Z" transform="translate(-616.834 -234.107)" fill="#bc4a60" opacity="0.3"/>
            </g>
            <g id="Group_60335" data-name="Group 60335" transform="translate(1.092 1.312)">
              <path id="Path_141266" data-name="Path 141266" d="M596.655,147.562c-.688,3.082-1.2,5.912-2.664,8.074a9.078,9.078,0,0,1-6.149,3.741l-.221.044c-1.911.326-4.782.05-5.622-.66a6.309,6.309,0,0,1-.81-.824,10.748,10.748,0,0,1-2.024-5.38,33.379,33.379,0,0,1-.286-4.426c-.632-7.944,2.7-12.224,9.646-11.948C594.53,136.423,597.907,141.947,596.655,147.562Z" transform="translate(-578.803 -136.17)" fill="#ffd0be"/>
              <path id="Path_141308" data-name="Path 141308" d="M56.182,92.359a7.442,7.442,0,0,0,0,3.717c.5,2.29-1.195-1.018-1.195-1.018v1.355A4.8,4.8,0,0,1,53.5,94.191a6.041,6.041,0,0,1,0-2.1Z" transform="translate(-49.646 -72.055)" fill="#b26167"/>
            </g>
            <path id="Path_141269" data-name="Path 141269" d="M586.419,136.122s-3.9,2.169-5.827,1.613,1.319-.946,2.913-2.336c0,0-4.068,2.058-7.146,1.947s-3.3-.612-1.484-2.336,4.562-5.229,11.049-4.84,5.992,3.282,5.992,3.282,0-1.835.714-1.891.33,2.726.33,2.726,2.144,0,2.254.723-1.594.5-1.594.5,2.529,2.448,2.639,3.783-.9,4.52-2.16,4.8-3.026-.459-3.136.32-.385,2.614-1.319,2.559-.11-1.613-.11-1.613-.55,1.28-.989.612,1.154-3.06,1.154-3.06a15.393,15.393,0,0,1-2.07-3A13.08,13.08,0,0,1,586.419,136.122Z" transform="translate(-573.726 -130.139)" fill="#b26167"/>
            <g id="Group_60337" data-name="Group 60337" transform="translate(1.822 10.386)">
              <g id="Group_60336" data-name="Group 60336" transform="translate(2.746 7.708)">
                <path id="Path_141270" data-name="Path 141270" d="M596.662,213.6c.942.012,1.439-.692,2.1-.011.53.543-.111,1.75-2.03,1.678-1.863-.07-1.98-1.391-1.567-1.752S595.714,213.593,596.662,213.6Z" transform="translate(-594.973 -213.297)" fill="#bc4a60"/>
                <path id="Path_141271" data-name="Path 141271" d="M604.224,217.023a2.3,2.3,0,0,0-1.48.388,1.148,1.148,0,0,0-.556.749c.069.007.137.015.212.018,1.329.05,2.044-.514,2.183-1.046A1.013,1.013,0,0,0,604.224,217.023Z" transform="translate(-600.637 -216.203)" fill="#fc6b7f"/>
              </g>
              <path id="Path_141272" data-name="Path 141272" d="M618.534,198.438a1.219,1.219,0,0,1,.18-.383,1.044,1.044,0,0,1,.32-.277,1.135,1.135,0,0,1,.849-.094,1.24,1.24,0,0,1,.861,1.4.067.067,0,0,1-.121.016c-.257-.372-.318-.9-.8-1.063a.812.812,0,0,0-.616.034,1,1,0,0,0-.466.453C618.688,198.641,618.494,198.558,618.534,198.438Z" transform="translate(-610.718 -193.34)" fill="#2c1f30"/>
              <path id="Path_141273" data-name="Path 141273" d="M585.242,196.2a1.1,1.1,0,0,0-.088-.342.839.839,0,0,0-.2-.27.779.779,0,0,0-.625-.175,1.065,1.065,0,0,0-.819,1.081.049.049,0,0,0,.089.027c.238-.284.35-.723.734-.8a.554.554,0,0,1,.457.1.806.806,0,0,1,.293.434C585.1,196.349,585.257,196.3,585.242,196.2Z" transform="translate(-583.223 -191.586)" fill="#2c1f30"/>
              <path id="Path_141274" data-name="Path 141274" d="M616.543,180.068a1.437,1.437,0,0,1,1.323-.694,1.687,1.687,0,0,1,.974.4c.217.188.539.675.462.843s-.3-.211-.462-.349a1.731,1.731,0,0,0-.9-.361,1.165,1.165,0,0,0-.866.249,1.01,1.01,0,0,1-.225.16C616.747,180.361,616.475,180.237,616.543,180.068Z" transform="translate(-609.15 -179.047)" fill="#b26167"/>
              <path id="Path_141275" data-name="Path 141275" d="M584.432,178.457a1.164,1.164,0,0,0-1.112-.582,1.287,1.287,0,0,0-.773.394c-.167.177-.405.627-.334.776s.233-.2.358-.33a1.319,1.319,0,0,1,.712-.355.9.9,0,0,1,.718.2.845.845,0,0,0,.191.137C584.28,178.728,584.5,178.608,584.432,178.457Z" transform="translate(-582.2 -177.872)" fill="#b26167"/>
              <path id="Path_141276" data-name="Path 141276" d="M594.111,188.611c.046-.221.242-.278.43-.333a.49.49,0,0,0,.343-.384,3.385,3.385,0,0,0,.079-.661l.066-.91c.021-.284.038-.569.063-.853a3.68,3.68,0,0,1,.116-.875c.024-.068.137-.084.153,0a3.368,3.368,0,0,1-.006.818c-.017.285-.04.569-.061.853-.038.507-.043,1.029-.125,1.53a1.113,1.113,0,0,1-.187.489.755.755,0,0,1-.447.263c-.108.03-.186.061-.172.187a1.387,1.387,0,0,0,.135.378c.1.234.24.448.359.673a.09.09,0,0,1-.14.109,2.359,2.359,0,0,1-.433-.655A1.09,1.09,0,0,1,594.111,188.611Z" transform="translate(-591.543 -183.087)" fill="#bc4a60" opacity="0.5"/>
            </g>
            <g id="Group_60338" data-name="Group 60338" transform="translate(17.21 13.233)">
              <path id="Path_141277" data-name="Path 141277" d="M653.772,194.934c.06.888,1.21,1.487,2.378.992s2.428-2.556,1.99-3.956-2.315-1.291-3.33-.007A4.936,4.936,0,0,0,653.772,194.934Z" transform="translate(-653.768 -190.96)" fill="#ffd0be"/>
              <path id="Path_141278" data-name="Path 141278" d="M660.732,197.308a.087.087,0,0,0,0-.147,1.125,1.125,0,0,0-.821.042,2.714,2.714,0,0,0-.771.382,2.466,2.466,0,0,0-.981,1.425c-.024.108.134.18.185.074a3.057,3.057,0,0,1,.976-1.236c.06-.042.124-.075.186-.111.014.031.032.061.047.09.027.053.055.105.081.158a2.454,2.454,0,0,1,.13.336c.074.233.092.481.183.709.017.042.088.066.11.012a1.178,1.178,0,0,0-.032-.8,2.367,2.367,0,0,0-.159-.377,1.287,1.287,0,0,0-.1-.169c-.018-.024-.035-.049-.054-.071a2.413,2.413,0,0,1,.29-.118A3.422,3.422,0,0,0,660.732,197.308Z" transform="translate(-657.211 -195.761)" fill="#bc4a60" opacity="0.5"/>
            </g>
          </g>
        </g>
        <g id="Group_60352" data-name="Group 60352" transform="translate(0 17.576)">
          <g id="Group_60342" data-name="Group 60342" transform="translate(17.431 26.74)">
            <g id="Group_60341" data-name="Group 60341" transform="translate(12.544)">
              <path id="Path_141280" data-name="Path 141280" d="M202.857,243.357a12.219,12.219,0,0,1,2.282-3.421c.786-.821.684-1.088-.193-.621-.765.425-1.306,1-1.43.928-.06-.034.352-.509,1.02-1.129.687-.636,1.206-1.073.994-1.318-.249-.277-2.351,1.211-2.733,1.773-.47.5,1.071-1.641,1.812-2.215.773-.681.321-.977-.826-.2a19.82,19.82,0,0,0-2.075,1.945c.049-.272.147-.621.977-1.725.65-.792.184-.953-.659-.25-1.024.841-1.686,2.591-2.057,2.6-.264-.136-.092-.592-.3-1.611-.19-1.009-.671.271-.746,1.406a16.1,16.1,0,0,0-.162,3.527c.211,1.386.694,2.372,1.608,2.739C201.349,246.18,201.887,245.882,202.857,243.357Z" transform="translate(-198.707 -236.679)" fill="#e29a8f"/>
              <path id="Path_141281" data-name="Path 141281" d="M217.848,257.816a.232.232,0,0,0-.109.025.871.871,0,0,0-.125.054,2.509,2.509,0,0,0-.21.15c-.136.105-.265.221-.39.339s-.244.236-.355.363a1.921,1.921,0,0,0-.314.421.1.1,0,0,0,.157.123,3.74,3.74,0,0,0,.341-.357c.117-.122.234-.244.359-.359s.247-.218.375-.323c.063-.052.127-.1.189-.158.032-.028.051-.062.08-.092a.253.253,0,0,0,.064-.1A.067.067,0,0,0,217.848,257.816Z" transform="translate(-214.739 -253.217)" fill="#bc4a60" opacity="0.5"/>
            </g>
            <path id="Path_141282" data-name="Path 141282" d="M216.44,251.138c-1.8.98-1.912,3.054-.621,6.628,1.026,2.84,4.242,14.948,8.2,14.842,2.777-.075,6.4-15.051,6.677-17a6.623,6.623,0,0,1-3.181-.913c-.527,1.157-2.89,11.017-3.587,10.425-.845-.719-1.567-6.965-3.092-10.052C219.757,252.893,218.238,250.157,216.44,251.138Z" transform="translate(-214.676 -247.831)" fill="#e29a8f"/>
            <path id="Path_141283" data-name="Path 141283" d="M249.7,244.512c.673.007,3.361,1.8,4.9,5.73a65.266,65.266,0,0,1,2.233,6.62s-1.872,2.42-6.271,2.922a44.156,44.156,0,0,1-2.3-8.264l-.293-2.99S247.378,244.489,249.7,244.512Z" transform="translate(-247.899 -242.807)" fill="#658ee5"/>
          </g>
          <g id="Group_60343" data-name="Group 60343" transform="translate(1.448 27.299)">
            <path id="Path_141285" data-name="Path 141285" d="M269.256,240.829c2.079-2,13.038-2.379,15.6.468s.238,10.76.392,16.821,1.22,6.291-.115,6.765-8.574,2.09-14.58.983-4.979-2.372-4.979-3.69S266.074,243.887,269.256,240.829Z" transform="translate(-265.512 -239.247)" fill="#72cfe8"/>
            <path id="Path_141286" data-name="Path 141286" d="M290.615,240.868c-.86.693,1.132,2.655,3.885,2.539s1.616-1.571,1.1-1.952S291.855,239.868,290.615,240.868Z" transform="translate(-280.503 -240.212)" fill="#658ee5"/>
          </g>
          <g id="Group_60349" data-name="Group 60349" transform="translate(3.428 0)">
            <path id="Path_141287" data-name="Path 141287" d="M256.6,143.782s1.851-1.3,1.167-4.479a6.246,6.246,0,0,0-2.9-4.276s-1.368.081-.362,2.973S256.6,143.782,256.6,143.782Z" transform="translate(-236.327 -130.404)" fill="#6f3149"/>
            <g id="Group_60344" data-name="Group 60344" transform="translate(8.972 23.895)">
              <path id="Path_141288" data-name="Path 141288" d="M291.568,228.645a4.888,4.888,0,0,0,2.192.909c1.681.306,1.577-.516,1.577-.516l.275-1.984.4-2.89-3.959-.562-.336,2.433-.309,2.223A.42.42,0,0,0,291.568,228.645Z" transform="translate(-291.406 -223.602)" fill="#e29a8f"/>
              <path id="Path_141289" data-name="Path 141289" d="M291.406,226.036a7.88,7.88,0,0,0,1.3.546,11.859,11.859,0,0,0,1.73.4,4.564,4.564,0,0,0,.864.076l.4-2.89-3.959-.562Z" transform="translate(-291.093 -223.602)" fill="#bc4a60" opacity="0.4"/>
            </g>
            <path id="Path_141290" data-name="Path 141290" d="M274.594,140.853c.569,6.124-1.727,11.381-8.9,10.758s-8.741-6.2-9.794-11.856,2.517-11.055,8.526-11.077C271.377,128.652,274.006,132.881,274.594,140.853Z" transform="translate(-253.423 -125.436)" fill="#e29a8f"/>
            <path id="Path_141291" data-name="Path 141291" d="M254.562,184.565a5.659,5.659,0,0,0,2.557,4.127c2.3,1.278,4.526-.663,7.654-.615,2.935.045,3.219.889,3.9.25s.632-1.187,1.218-.867,1.218,2.1.361,4.657-4.151,3.333-8.437,3.013-7.463-2.327-8.361-4.423c-1.055-2.464.459-2.031-.532-5.578C252.583,183.929,254.381,183.515,254.562,184.565Z" transform="translate(-248.802 -168.694)" fill="#6f3149"/>
            <path id="Path_141292" data-name="Path 141292" d="M266.9,130.036c-1.062.716-4.241.137-4.918-2.283s-1.263-7.9,3.158-9.907,11.866-1,11.866-1-1.489-2.009-.632-2.42,2.346,1.461,2.346,1.461-.857-2.009.181-2.1,3.925,4.976,1.94,6.62-4.467-.045-4.467-.045a4.478,4.478,0,0,1-2.752,1.872,5.926,5.926,0,0,1-3.88-.411,4.974,4.974,0,0,1-.361,3.789,6.675,6.675,0,0,1-2.12,2.648A1.4,1.4,0,0,1,266.9,130.036Z" transform="translate(-261.52 -113.781)" fill="#6f3149"/>
            <g id="Group_60345" data-name="Group 60345" transform="translate(0.094 14.651)">
              <path id="Path_141293" data-name="Path 141293" d="M337.834,185.843c-.3.866-1.694,1.177-2.823.4s-1.95-3.134-1.112-4.415,2.834-.711,3.593.814A4.683,4.683,0,0,1,337.834,185.843Z" transform="translate(-333.555 -181.119)" fill="#e29a8f"/>
              <path id="Path_141294" data-name="Path 141294" d="M339.4,187.987a.086.086,0,0,1,.037-.143,1.13,1.13,0,0,1,.788.239,2.739,2.739,0,0,1,.659.557,2.484,2.484,0,0,1,.618,1.621c0,.111-.173.143-.2.027a3.078,3.078,0,0,0-.657-1.435c-.048-.055-.1-.1-.155-.153-.021.027-.046.051-.067.076-.038.045-.078.089-.116.134a2.4,2.4,0,0,0-.206.3c-.126.209-.2.445-.344.644-.026.037-.1.043-.11-.015a1.176,1.176,0,0,1,.219-.769,2.346,2.346,0,0,1,.244-.327,1.313,1.313,0,0,1,.138-.14c.023-.019.046-.039.069-.056a2.467,2.467,0,0,0-.254-.185A3.433,3.433,0,0,1,339.4,187.987Z" transform="translate(-338.324 -186.369)" fill="#bc4a60" opacity="0.5"/>
            </g>
            <g id="Group_60348" data-name="Group 60348" transform="translate(8.926 10.837)">
              <g id="Group_60346" data-name="Group 60346" transform="translate(5.088 9.206)">
                <path id="Path_141295" data-name="Path 141295" d="M274.2,206.238c-.77.043-1.284-.7-1.979-.113-.554.465.4,1.767,1.811,1.755s2.016-1.138,1.65-1.514S275.109,206.187,274.2,206.238Z" transform="translate(-272.056 -205.899)" fill="#bc4a60"/>
                <path id="Path_141296" data-name="Path 141296" d="M279,209.471a2.831,2.831,0,0,1,.774.245,2.14,2.14,0,0,1,.663.505,1.752,1.752,0,0,1,.275.4,2.442,2.442,0,0,1-.388.036,2.07,2.07,0,0,1-1.908-1.11A.753.753,0,0,1,279,209.471Z" transform="translate(-278.35 -208.676)" fill="#fc6b7f"/>
              </g>
              <g id="Group_60347" data-name="Group 60347" transform="translate(0.737 4.647)">
                <path id="Path_141297" data-name="Path 141297" d="M296.941,189.288a3.912,3.912,0,0,1,.334-.32,2.965,2.965,0,0,1,.806-.517,1.477,1.477,0,0,1,.919-.1.575.575,0,0,1,.451.658c-.022.1-.172.074-.177-.024-.016-.307-.364-.376-.606-.357a1.686,1.686,0,0,0-.7.233,3.249,3.249,0,0,0-.593.449,1.775,1.775,0,0,1-.591.475.085.085,0,0,1-.1-.1A.918.918,0,0,1,296.941,189.288Z" transform="translate(-296.681 -187.58)" fill="#2c1f30"/>
                <path id="Path_141298" data-name="Path 141298" d="M262.816,186.04a2.334,2.334,0,0,1,.845-.931.867.867,0,0,1,.834-.094.53.53,0,0,1,.278.632.089.089,0,0,1-.172-.048.355.355,0,0,0-.329-.379.9.9,0,0,0-.623.25,2.018,2.018,0,0,0-.428.468,2.535,2.535,0,0,0-.158.282.664.664,0,0,1-.192.275.09.09,0,0,1-.131-.054A.54.54,0,0,1,262.816,186.04Z" transform="translate(-254.718 -184.943)" fill="#2c1f30"/>
              </g>
              <path id="Path_141299" data-name="Path 141299" d="M301.551,167.715a.172.172,0,0,1-.2.216c-.035-.005-.069-.007-.1-.01a.169.169,0,0,1,.012.252l.071.013a.165.165,0,0,1,0,.316.162.162,0,0,1-.065.269,3.939,3.939,0,0,0-2.506,1.13.11.11,0,0,1-.174-.024.161.161,0,0,1-.057-.214c.025-.042.053-.083.081-.124,0,0-.009,0-.013-.009-.3-.371.066-.735.326-.992a4.719,4.719,0,0,1,.994-.774,3.011,3.011,0,0,1,1.21-.388c.157-.014.428-.051.483.156A.171.171,0,0,1,301.551,167.715Z" transform="translate(-298.486 -166.542)" fill="#6f3149"/>
              <path id="Path_141300" data-name="Path 141300" d="M261.981,163.748c.047-.2.281-.164.417-.151a2.411,2.411,0,0,1,1.045.375,4.174,4.174,0,0,1,.858.747c.224.248.54.6.281.958,0,0-.008,0-.011.008.024.039.047.079.069.119a.166.166,0,0,1-.049.207.09.09,0,0,1-.15.023,3.25,3.25,0,0,0-2.163-1.09c-.1-.016-.128-.19-.056-.259-.126-.031-.146-.27,0-.305l.061-.012a.177.177,0,0,1,.011-.244c-.03,0-.059,0-.089.01a.16.16,0,0,1-.169-.208A.176.176,0,0,1,261.981,163.748Z" transform="translate(-253.696 -163.587)" fill="#6f3149"/>
              <path id="Path_141301" data-name="Path 141301" d="M273.444,180.864c-.264-.96-.541-1.915-.812-2.873-.134-.474-.268-.948-.4-1.422a6.924,6.924,0,0,0-.464-1.4.1.1,0,0,0-.177.049,6.8,6.8,0,0,0,.335,1.409q.2.725.413,1.449c.254.89.505,1.781.765,2.669a11.58,11.58,0,0,1-1.864-.247.1.1,0,0,0-.054.2,6.876,6.876,0,0,0,2.12.36A.152.152,0,0,0,273.444,180.864Z" transform="translate(-264.431 -172.613)" fill="#bc4a60" opacity="0.5"/>
            </g>
          </g>
          <g id="Group_60351" data-name="Group 60351" transform="translate(0 29.195)">
            <path id="Path_141302" data-name="Path 141302" d="M293.495,255.325c-2.042.02-3.1,1.8-3.6,5.573-.4,3-3.122,15.228.425,17,2.492,1.242,14.164-10.447,15.307-12.04a6.713,6.713,0,0,1-2.4-2.307c-1,.776-9.2,8.53-9.547,7.677-.417-1.034,1.817-6.9,1.888-10.353C295.623,258.44,295.537,255.3,293.495,255.325Z" transform="translate(-288 -253.723)" fill="#e29a8f"/>
            <path id="Path_141303" data-name="Path 141303" d="M339.366,248.165c.593.323,2.145,3.179,1.7,7.377a65.48,65.48,0,0,1-1.069,6.911s-2.77,1.26-6.894-.368a44.21,44.21,0,0,1,1.765-8.4l1.116-2.785S337.32,247.05,339.366,248.165Z" transform="translate(-333.099 -247.962)" fill="#658ee5"/>
            <path id="Path_141304" data-name="Path 141304" d="M269.729,276.857c.985-.87,2.367-2.009,3.172-2.645.854-.674.794-1.014-.052-.711-.75.268-1.386.683-1.483.574-.047-.054.454-.4,1.157-.894.723-.512,1.21-.928,1.06-1.257s-2.191.864-2.711,1.265a19.4,19.4,0,0,1,1.982-1.97c.722-.671.379-1.1-.679-.4s-1.863,1.474-2.183,1.586a5.988,5.988,0,0,1,1.206-1.577c.672-.759.3-1.04-.534-.433-1,.728-2.076,2.218-2.448,2.094-.21-.216.1-.578.154-1.66s-.647.111-1.077,1.129c-.444,1.054-1.2,2.1-1.521,2.975-.438,1.179-.519,2.077.268,2.746S267.737,278.616,269.729,276.857Z" transform="translate(-251.021 -265.254)" fill="#e29a8f"/>
            <g id="Group_60350" data-name="Group 60350" transform="translate(12.509 10.948)">
              <path id="Path_141309" data-name="Path 141309" d="M.757,1.5l2.519.015A.741.741,0,0,0,4.024.771h0A.763.763,0,0,0,3.267.015L.748,0A.741.741,0,0,0,0,.747.763.763,0,0,0,.757,1.5Z" transform="matrix(0.688, 0.726, -0.726, 0.688, 1.102, 0)" fill="#b26167"/>
              <path id="Path_141305" data-name="Path 141305" d="M299.432,303.571a1.3,1.3,0,0,1-1.859-.051,1.342,1.342,0,0,1,.05-1.882,1.3,1.3,0,0,1,1.859.051A1.342,1.342,0,0,1,299.432,303.571Z" transform="translate(-296.592 -300.622)" fill="#ffd0be"/>
            </g>
          </g>
        </g>
        <g id="Group_60355" data-name="Group 60355" transform="translate(44.429 0)">
          <g id="Group_60353" data-name="Group 60353" transform="translate(0)">
            <path id="Path_141306" data-name="Path 141306" d="M578.485,70.307s4.466-2.725,1.294-6.849c-5.365.748-18.275,2.341-19.763-1.157s-1.277-7.86.636-9.285,19.281-2.321,21.336.788,1.608,7.334.108,8.373C583.524,68.191,580.951,69.06,578.485,70.307Z" transform="translate(-559.039 -51.71)" fill="#658ee5"/>
            <text id="Game_on_" data-name="Game on!" transform="translate(11.134 7.125)" fill="#fff" font-size="4" font-family="Avenir-Light, Avenir" font-weight="300"><tspan x="-8.97" y="0">Game on!</tspan></text>
          </g>
        </g>
        <g id="Group_60356" data-name="Group 60356" transform="translate(12.807)">
          <path id="Path_141307" data-name="Path 141307" d="M88.875,66.466s-1.055-4.247,3.134-4.8c5.083.785,17.306,2.414,17.951-4.108.651-6.579-1.492-7.289-5.412-7.725-5.308-.59-13.421-2.515-15.636,1.787-1.09,2.117-.948,7.671.474,8.761C87.523,62.558,87.292,64,88.875,66.466Z" transform="translate(-87.823 -48.889)" fill="#ff9650"/>
          <text id="Join_Me_" data-name="Join Me!" transform="translate(10.505 7.75)" fill="#fff" font-size="4" font-family="Avenir-Light, Avenir" font-weight="300"><tspan x="-7.894" y="0">Join Me!</tspan></text>
        </g>
      </g>
    </g>
    <g id="Group_59091" data-name="Group 59091" transform="translate(-6740 -12280)">
      <text id="Welcome_back-2"  data-name="Welcome back" transform="translate(6873 12467)" fill="#fff" font-size="10" font-family="Avenir-Medium, Avenir" font-weight="500"><tspan x="0" y="0">Earn <tspan x="0" y="0">    </tspan>coins for every friend you invite</tspan></text>
    </g>
  </g>
</svg>
