<svg xmlns="http://www.w3.org/2000/svg" width="330" height="78.056" viewBox="0 0 330 78.056">
  <g id="Group_87497" data-name="Group 87497" transform="translate(-23 -390.472)">
    <rect id="Rectangle_17867" data-name="Rectangle 17867" width="330" height="55" rx="13" transform="translate(23 402)" fill="#161842"/>
    <g id="Group_87496" data-name="Group 87496">
      <g id="Group_87495" data-name="Group 87495">
        <text id="Welcome_back" data-name="Welcome back" transform="translate(223 429)" fill="#60dcbb" font-size="20" font-family="Avenir-Black, Avenir" font-weight="800"><tspan x="-105.56" y="0">Join Challenges &amp; Win</tspan></text>
        <g id="Group_59091" data-name="Group 59091" transform="translate(-6740 -12020)">
          <text id="Welcome_back-2" data-name="Welcome back" transform="translate(6966 12467)" fill="#fff" font-size="10" font-family="Avenir-Medium, Avenir" font-weight="500"><tspan x="-108.525" y="0">Participate in all Challenges &amp; wins lots of Coins</tspan></text>
        </g>
      </g>
      <g id="Join_challenge" data-name="Join challenge" transform="translate(-208.301 38.928)">
        <g id="Group_60426" data-name="Group 60426" transform="translate(249.524 351.544)">
          <path id="Path_141454" data-name="Path 141454" d="M250.093,356.994a8.212,8.212,0,0,1,1,.255c.633.188,1.321.429,1.375.437s.121-.016.07-.063a.151.151,0,0,0-.054-.026c-.261-.084-.521-.169-.783-.249-.281-.087-.563-.169-.845-.256a2.876,2.876,0,0,1-1.235-.6.33.33,0,0,1,.016-.485c.161-.169.771.052,1.434.325.72.3,1.438.527,1.543.553a.224.224,0,0,0,.091.014.044.044,0,0,0,.036-.049.065.065,0,0,0-.034-.034c-.008,0-.375-.137-.547-.2l-.456-.158c-.227-.078-.452-.155-.678-.234-.143-.05-.285-.1-.425-.158a1.336,1.336,0,0,1-.243-.124.346.346,0,0,1-.143-.378c.124-.4.708-.207,1.081-.072a16.658,16.658,0,0,0,3.077.893c.51-.051.184-.632.184-.632-1.332-1.894-.141-2.313,0-1.951.117.3.472,1.021.581,1.239a.337.337,0,0,0,.087.111c.861.727.752.641,1.037,1.395a6.109,6.109,0,0,0,1.127,1.343,20.537,20.537,0,0,0,5.344,3.836,12.74,12.74,0,0,1,4.712,3.5c3.418-.13,6.5,2.367,6.5,2.367,3.508.011,4.768.926,5.2,1.429a13.187,13.187,0,0,1,2.14-.2c.492-.619.54-1.611.1-4.128,0,0,3.45,1.2,5.007,0a13.037,13.037,0,0,0-.008,4.46c.659.072,1.365.151,2.017.229.705-.525,3.123-.625,5.372-.991,0,0,2.7-2.956,6.1-3.367a13.081,13.081,0,0,1,4.17-4.209,21.091,21.091,0,0,0,4.75-4.636,6.258,6.258,0,0,0,.927-1.506c.177-.791.081-.689.83-1.544a.35.35,0,0,0,.071-.123c.078-.233.329-1,.4-1.317.087-.38,1.322-.154.27,1.93,0,0-.242.626.27.6a16.881,16.881,0,0,0,2.919-1.368c.349-.193.9-.475,1.079-.1a.352.352,0,0,1-.089.4,1.348,1.348,0,0,1-.223.161c-.13.079-.263.151-.4.223-.212.114-.425.225-.638.338l-.429.229c-.163.087-.506.277-.514.282a.062.062,0,0,0-.029.039.044.044,0,0,0,.041.043.219.219,0,0,0,.088-.028c.1-.043.779-.383,1.45-.79.617-.375,1.19-.69,1.372-.548a.328.328,0,0,1,.084.477,2.966,2.966,0,0,1-1.137.789c-.266.13-.534.256-.8.386-.247.121-.494.246-.739.37a.149.149,0,0,0-.05.035c-.045.054.02.069.078.051s.7-.363,1.3-.649a8.3,8.3,0,0,1,.954-.411c.239-.075.4-.072.484.013.131.13.193.367-.121.632a3.258,3.258,0,0,1-.86.458c-.558.235-1.1.477-1.667.685-.021.008-.1.034-.1.076,0,.057.036.082.089.065.129-.041,2.008-.931,2.221-.7.193.212.082.645-1.887,1.311a6.825,6.825,0,0,0-1.115.489,5.2,5.2,0,0,1-2.073.623,1.528,1.528,0,0,0-.747.241c-.039.025-5.321,5.894-7.174,7.646s-1.03,1.505-2.651,2.244-2.42,2.656-3.81,3.34-5.123,1.341-5.586,2.053a13.3,13.3,0,0,0-.64,1.326c-.622,4.525-1.944,10.849-1.691,13.546,0,0-6.493,2.323-11.437-.633a29.539,29.539,0,0,0,.141-4.945,42.022,42.022,0,0,0-1.055-7.748c-.234-1.014-.452-1.989-.609-2.693a39.078,39.078,0,0,0-3.919-1.311c-1.47-.458-2.527-2.227-4.234-2.7s-.858-.361-2.935-1.8-8.119-6.411-8.162-6.429a1.51,1.51,0,0,0-.772-.12,5.158,5.158,0,0,1-2.137-.29,6.812,6.812,0,0,0-1.17-.308c-2.04-.347-2.21-.758-2.048-1,.178-.263,2.16.32,2.293.34.055.009.088-.022.079-.078s-.086-.055-.107-.059c-.591-.116-1.159-.271-1.744-.415a3.223,3.223,0,0,1-.914-.317c-.347-.212-.319-.457-.208-.606C249.689,356.986,249.847,356.958,250.093,356.994Z" transform="translate(-249.524 -351.544)" fill="#f8ae65"/>
          <path id="Path_141455" data-name="Path 141455" d="M284.524,367.049c-.286-.506-.75-1.093-1.013-1.687-.035-.208-.074-.428-.118-.662,0,0,3.668,1.2,5.324,0a14.668,14.668,0,0,0-.188,3.431c-.1.121-.206.24-.3.364a2.276,2.276,0,0,1-1.721,1.04h-.012a1.5,1.5,0,0,1-1.359-1.079A7.117,7.117,0,0,0,284.524,367.049Z" transform="translate(-251.701 -352.291)" fill="#df803d" opacity="0.55"/>
          <path id="Path_141456" data-name="Path 141456" d="M290.7,388.373s-5.408.785-6.924.876h0a30.134,30.134,0,0,1-5.367-.572,85.206,85.206,0,0,1-1.381,10.094c-.756,2.647,1.8,7.843,1.841,9.4a48.624,48.624,0,0,1-.21,5.892c-.221,2.142,2.277,7.965,2.315,9.472a16.056,16.056,0,0,1-.678,2.594l.36,0c.806.005,2.3.233,3.008-.273.218-.155.221-.213.292-.583a3.825,3.825,0,0,0,.077-1,5.937,5.937,0,0,0-.256-1.432,1.9,1.9,0,0,0-.8-.124,31.092,31.092,0,0,1,.546-6.695c.686-3.248-.633-2.9-.384-4.467.209-1.317.5-10.066,1.247-13.81a19.407,19.407,0,0,1,.185,5.273,8.32,8.32,0,0,0,.889,2.729c.731,1.338,2.219,5.256,2.093,7.163,0,0-.317,4.882-.52,7.735s1.663,4.283,2.692,3.82c.976-.44,2.364-2.941.046-10.348a4.458,4.458,0,0,1-.066-2.432,16.253,16.253,0,0,0,.422-6.546c-.666-3.68.932-5.485,1.667-9S292.76,390.252,290.7,388.373Z" transform="translate(-251.602 -355.95)" fill="#f8ae65"/>
          <path id="Path_141457" data-name="Path 141457" d="M284.958,404.593c.459-1.877,1.294-1.543,1.878-4.855.422-2.388-.085-3.7,1.234-5.718-.021-1.03-.3-2.02-1.329-2.273a18.216,18.216,0,0,0-2.829-.325l.178,7.19c.082-.665.2-.369.3-.862a19.407,19.407,0,0,1,.185,5.273A8.367,8.367,0,0,0,284.958,404.593Z" transform="translate(-251.696 -354.08)" fill="#df803d" opacity="0.55"/>
          <path id="Path_141458" data-name="Path 141458" d="M289.708,411.689a16.247,16.247,0,0,0,.422-6.545c-.007-.038-.012-.074-.019-.112a5.926,5.926,0,0,1-4.881.251c.07.156.147.313.233.469.731,1.338,2.219,5.256,2.093,7.163,0,0-.317,4.882-.52,7.735s1.663,4.283,2.692,3.82c.976-.44,2.364-2.941.046-10.347A4.465,4.465,0,0,1,289.708,411.689Z" transform="translate(-251.836 -355.95)" fill="#df803d"/>
          <path id="Path_141459" data-name="Path 141459" d="M290.395,416.251a1.979,1.979,0,0,1-.551-.386c-.2-.176-1.964-.166-2.227.377a1.455,1.455,0,0,1-.313.491c-.089,1.337-.188,2.786-.268,3.917-.2,2.853,1.663,4.283,2.692,3.82a3.293,3.293,0,0,0,1.518-2.769A18.429,18.429,0,0,0,290.395,416.251Z" transform="translate(-251.894 -355.95)" fill="#85878d"/>
          <path id="Path_141460" data-name="Path 141460" d="M288.628,420.78a35.753,35.753,0,0,1,.119-5c-.5.049-1,.187-1.13.458a1.455,1.455,0,0,1-.313.491c-.089,1.337-.188,2.786-.268,3.917-.2,2.728,1.511,4.182,2.552,3.87A8.309,8.309,0,0,1,288.628,420.78Z" transform="translate(-251.837 -355.95)" fill="#73757c"/>
          <path id="Path_141461" data-name="Path 141461" d="M278.659,414.066c-.221,2.142,2.277,7.965,2.315,9.472a16.978,16.978,0,0,1-.7,2.672,2.411,2.411,0,0,0,1.3.579,2.92,2.92,0,0,0,1.48-.253c.956-.585.852-1.666.753-2.672-.035-.351-.074-.7-.109-1.047a1.917,1.917,0,0,0-.72-.1,31.092,31.092,0,0,1,.546-6.695c.686-3.248-.633-2.9-.384-4.467.209-1.317.5-10.066,1.247-13.81.007.049.013.1.019.148l-.222-8.682c-.156.015-.294.026-.409.033h0a30.134,30.134,0,0,1-5.367-.572s-.75,7.106-1.381,10.094c-.57,2.693,1.8,7.843,1.841,9.4A48.624,48.624,0,0,1,278.659,414.066Z" transform="translate(-251.345 -355.95)" fill="#df803d" opacity="0.55"/>
          <path id="Path_141462" data-name="Path 141462" d="M283.142,411.56c.124-.781.267-4.488.519-8.158-.159.331-.323.658-.5.979a17.686,17.686,0,0,1-4.281,5.184c0,.567-.014,1.175-.038,1.806,1.435.34,2.876.758,4.334,1.041A1.853,1.853,0,0,1,283.142,411.56Z" transform="translate(-251.394 -354.655)" fill="#df803d"/>
          <path id="Path_141463" data-name="Path 141463" d="M290.7,388.373s-5.408.785-6.924.876h0a30.134,30.134,0,0,1-5.367-.572s-1.482,10.571-1.492,10.83a3.75,3.75,0,0,0,1.133.674c.688.248,4.189,1.164,5.453.565a1.624,1.624,0,0,1,.48-.152c.213-1.288.216-1.885.406-2.844.17,1.256.17,1.371.278,3.026a1.4,1.4,0,0,1,.378-.219,6.206,6.206,0,0,1,5.3.364c.407-1.47,1.055-2.872,1.453-4.772C292.531,392.64,292.76,390.252,290.7,388.373Z" transform="translate(-251.603 -353.866)" fill="#6078a6"/>
          <path id="Path_141464" data-name="Path 141464" d="M285.882,396.6a4.692,4.692,0,0,1-3.05-.134,3.684,3.684,0,0,1-.415-.1,3.414,3.414,0,0,1-1.119-.553c-.105-.077-.453-.217-.176-.149-.256-.063-.527-.123-.793-.2.234.213.47.423.723.612.622.465,1.292.862,1.912,1.332a3.176,3.176,0,0,0,.961.611c.31.134.933-.241,1.153-.326.379-.147.742-.529,1.124-.67a10.51,10.51,0,0,0,2.139-1.037c.115-.075.227-.155.337-.235A12.759,12.759,0,0,1,285.882,396.6Z" transform="translate(-251.599 -353.967)" fill="#384a6d"/>
          <path id="Path_141465" data-name="Path 141465" d="M287.652,390.446c-.391-.513-.836-.982-1.235-1.486-1.091.139-2.107.257-2.64.289h0a30.134,30.134,0,0,1-5.367-.572s-1.482,10.571-1.492,10.83a3.75,3.75,0,0,0,1.133.674,17.818,17.818,0,0,0,3.349.714l0-.033a8.146,8.146,0,0,1,1.213-1.763c.347-.232,1.638-.663,1.774-1.349a18.846,18.846,0,0,1,.278,3.026,1.4,1.4,0,0,1,.378-.219,6.33,6.33,0,0,1,1.968-.411c.042-.264.056-.536.079-.795.054-.619.141-1.234.211-1.852.146-1.285.366-2.537.617-3.8C288.143,392.566,288.394,391.422,287.652,390.446Z" transform="translate(-251.458 -353.873)" fill="#2a3054" opacity="0.21" style="mix-blend-mode: multiply;isolation: isolate"/>
          <path id="Path_141466" data-name="Path 141466" d="M283.214,392.727c.01-.011.525-.264.485-.244a7.923,7.923,0,0,1,.832-.384,7.146,7.146,0,0,1,1.343-.348,6.943,6.943,0,0,1,2.711.158c1.233.3,2.456.806,3.71,1.09a5.193,5.193,0,0,0-1.594-4.626s-5.408.785-6.925.876a30.134,30.134,0,0,1-5.367-.572s-.271,1.731-.575,3.608A6,6,0,0,0,283.214,392.727Z" transform="translate(-251.638 -353.633)" fill="#494e6d" opacity="0.35" style="mix-blend-mode: multiply;isolation: isolate"/>
          <path id="Path_141467" data-name="Path 141467" d="M289.732,363.332c-.1-.342-.569-.216-.913-.068q.014-.351.012-.726c-.014-2.642-1.136-3.586-2.669-3.354a3.734,3.734,0,0,1-1.465.124c-.629-.124-1.648,1.323-1.587,3.627,0,.112.007.221.011.33-.344-.148-.814-.276-.916.067-.159.537.029,2.616,1.181,1.772a2.39,2.39,0,0,0,2.557,1.718,2.318,2.318,0,0,0,2.6-1.722C289.7,365.955,289.892,363.87,289.732,363.332Z" transform="translate(-251.697 -351.544)" fill="#f8ae65"/>
          <path id="Path_141468" data-name="Path 141468" d="M288.491,362.629a5.89,5.89,0,0,0,.063.8c.008.06.009.148.011.245a2.195,2.195,0,0,1,.5-.445,1.95,1.95,0,0,1,.362-.116,1.19,1.19,0,0,0,.132-.706c-.081-.369-.216-.76-.272-1.145a3.342,3.342,0,0,1-.061-1.442c.093-.363.188-1.059-.261-1.216-.229-.081-.477-.085-.715-.18-.223-.089-.4-.23-.62-.323-.546-.237-.886.015-1.433.036a10.961,10.961,0,0,0-1.4-.078c-.48.078-1.163.126-1.332.587-.181.493-1,.729-1.053,1.268-.022.248.234.669.254.912a1.833,1.833,0,0,1-.1.74c-.078.252-.192.493-.256.749a1.417,1.417,0,0,0-.045.389c0,.1.215.326.273.409.271.119.4.26.621.753a18.785,18.785,0,0,1,.3-2.281,6.489,6.489,0,0,0,.3-1.046,1.766,1.766,0,0,1,.878-1.012,1.088,1.088,0,0,1,.981-.093,4.156,4.156,0,0,0,1.01.016,1.674,1.674,0,0,1,1.7,1.253A7.122,7.122,0,0,1,288.491,362.629Z" transform="translate(-251.693 -351.544)" fill="#6f6d6a"/>
          <path id="Path_141469" data-name="Path 141469" d="M279.013,382.619a39.581,39.581,0,0,0-1.065-7.5,5.412,5.412,0,0,0,2.51-2.458,6.619,6.619,0,0,0,.312-3.585A12.124,12.124,0,0,1,282,368.9c.114.52.228,1.04.357,1.556a9.921,9.921,0,0,0,.585,2.053c.573,1.118,1.884,1.241,3.017,1.182,1.218-.064,2.444-.4,2.818-1.714.179-.629.265-1.274.488-1.891.1-.275.2-.554.272-.837.468.05.94.1,1.386.151a15.385,15.385,0,0,0-.145,3.409c.079,1.034.648,2.7,1.937,2.551-.546,3.511-1.074,6.231-.718,9.023.107.839,1.669,1.6-.48,3.464-.364.316.565,1.377.565,1.377-.89.24-2.164,2.684-6.669.82-2.225-.921-4.379,1.567-8.033-1.944a1.78,1.78,0,0,0,.766-2.525C277.446,384.125,279.074,384.036,279.013,382.619Z" transform="translate(-251.635 -352.805)" fill="#f65138"/>
          <path id="Path_141470" data-name="Path 141470" d="M281.9,390.041a1.121,1.121,0,0,0,.1-.316,7.951,7.951,0,0,1,.164-1.424,3.521,3.521,0,0,1,1.537-1.887c.058-.036.23-.151.362-.234a10.292,10.292,0,0,0-.853-1.187c-.951-1.21-1.825-2.639-1.132-4.2a3.409,3.409,0,0,1,1.4-1.468,5.293,5.293,0,0,1-.493-.279,6.194,6.194,0,0,1-2.219-2.386c-.437-.867-.871-1.751-1.276-2.651a5.922,5.922,0,0,1-1.55,1.11,39.581,39.581,0,0,1,1.065,7.5c.061,1.417-1.567,1.506-.868,2.953a1.78,1.78,0,0,1-.766,2.525A5.7,5.7,0,0,0,281.9,390.041Z" transform="translate(-251.352 -353.034)" fill="#e43e22"/>
          <path id="Path_141471" data-name="Path 141471" d="M282.989,422.721c.209.6.68,2.227-.747,3.043a1.3,1.3,0,0,0-1.8-.13c-.735,2.467-1.487,5.31-.439,7.592a1.116,1.116,0,0,0,1.293.78c.82.006,2.914-3.328,2.862-5.126-.053-1.837.313-1.674.708-2.221a8.5,8.5,0,0,0,.559-1.95A2.2,2.2,0,0,0,282.989,422.721Z" transform="translate(-251.468 -355.95)" fill="#85878d"/>
          <path id="Path_141472" data-name="Path 141472" d="M281.473,429.82a15.13,15.13,0,0,0,.983-3.457c.033-.265.056-.529.073-.8a2.254,2.254,0,0,1-.287.2,1.3,1.3,0,0,0-1.8-.13c-.735,2.467-1.487,5.31-.439,7.592.212.461.429.648.678.725A10.8,10.8,0,0,1,281.473,429.82Z" transform="translate(-251.385 -355.95)" fill="#73757c"/>
        </g>
        <g id="Group_60429" data-name="Group 60429" transform="translate(246.301 376.359)">
          <g id="Group_60427" data-name="Group 60427">
            <path id="Path_141473" data-name="Path 141473" d="M321.3,380.438c-1.548,1.216-4.918,3.036-6.589,3.1a13.591,13.591,0,0,1-7.967-1.92c-6.869-3.9-13.837-2.256-20.385-.243-3.581,1.1-6.625,1.1-9.048.012-.435-.2-.874-.4-1.317-.605-2.841-1.318-6.059-2.81-9.42-2.81h-.037c-.642,0-1.289,0-1.94-.01-4.663-.04-9.489-.088-13.785,2.655a26.955,26.955,0,0,0-3.042,2.229l-1.469,4.685c.6-1.172,3.774-2.541,6.147-4.056,3.528-2.253,7.9-2.213,12.122-2.173.663.006,1.321.013,1.976.01,2.707-.032,5.487,1.28,8.177,2.528.452.209.9.418,1.346.618,3.113,1.4,6.872,1.444,11.171.123,6.167-1.9,12.184-3.323,18.009-.02a16.769,16.769,0,0,0,9.582,2.315,9.175,9.175,0,0,0,4.7-1.767Z" transform="translate(-246.301 -377.955)" fill="#ee3e22"/>
          </g>
          <g id="Group_60428" data-name="Group 60428" transform="translate(0 1.669)" opacity="0.55" style="mix-blend-mode: multiply;isolation: isolate">
            <path id="Path_141474" data-name="Path 141474" d="M253.018,379.624a15.95,15.95,0,0,0-1.951,1,28.454,28.454,0,0,0-3.214,2.229l-1.552,4.685c.631-1.172,3.987-2.541,6.494-4.056a13.681,13.681,0,0,1,4.133-1.6C255.614,381.2,254.357,380.414,253.018,379.624Z" transform="translate(-246.301 -379.624)" fill="#c32a0b"/>
            <path id="Path_141475" data-name="Path 141475" d="M293.7,380.059c-1.716.37-3.414.832-5.085,1.319-3.783,1.1-7,1.1-9.559.012-.46-.2-.923-.4-1.391-.605l-.372-.163c-1.7.6-3.4,1.042-5.15,1.524,1.4.475,2.8,1.092,4.18,1.7.478.209.952.418,1.422.618,3.289,1.4,7.26,1.444,11.8.123a40.6,40.6,0,0,1,10.639-1.99A21.976,21.976,0,0,1,293.7,380.059Z" transform="translate(-248.438 -379.624)" fill="#c32a0b"/>
            <path id="Path_141476" data-name="Path 141476" d="M313.214,382.929a19.292,19.292,0,0,1-6.335.571c-.324-.021-.649-.045-.973-.071a16.309,16.309,0,0,1,2.671,1.135,18.515,18.515,0,0,0,10.123,2.315,10.026,10.026,0,0,0,4.963-1.767l1.871-4.674c-1.635,1.216-5.2,3.036-6.961,3.1A15.559,15.559,0,0,1,313.214,382.929Z" transform="translate(-250.534 -379.624)" fill="#c32a0b"/>
          </g>
        </g>
      </g>
    </g>
  </g>
</svg>
