<svg width="85" height="63" viewBox="0 0 85 63" fill="none" xmlns="http://www.w3.org/2000/svg">
<rect x="11" y="3" width="72" height="49" rx="5" fill="#FFC708"/>
<path d="M12.6953 30.5V4.57278C12.6953 2.49796 14.2722 2.00001 17.9239 2C22.1565 1.99999 60.7206 2.33197 79.5877 2C81.4966 1.99999 83.0734 2.74693 83.0734 6.48162C83.0734 10.155 83.2394 35.5015 83.0734 47.7292C83.0543 49.1401 83.0734 50.7999 78.3428 51.0489C73.6545 51.2956 44.1549 51.3255 34.5 51.0489" stroke="#F65008" stroke-width="3"/>
<rect x="10.7891" y="9.55273" width="74.0298" height="11.2871" fill="#530C54"/>
<circle cx="55.2681" cy="34.2837" r="8.29931" fill="#530C54"/>
<circle cx="66.229" cy="34.2837" r="8.29931" fill="#530C54"/>
<circle cx="18.5075" cy="44.4918" r="17.0075" fill="#FFC708" stroke="#F65008" stroke-width="3"/>
<path d="M8.63281 45.5702L13.8745 51.2146L28.5512 38.5996" stroke="#530C54" stroke-width="3"/>
</svg>
