<svg xmlns="http://www.w3.org/2000/svg" xmlns:xlink="http://www.w3.org/1999/xlink" width="26.979" height="14.922" viewBox="0 0 26.979 14.922">
  <defs>
    <clipPath id="clip-path">
      <path id="Path_295865" data-name="Path 295865" d="M322,412h3.258v3.263H322Zm0,0" transform="translate(-322 -412)"/>
    </clipPath>
    <linearGradient id="linear-gradient" x1="0.5" x2="0.5" y2="1" gradientUnits="objectBoundingBox">
      <stop offset="0" stop-color="#f7d561"/>
      <stop offset="0.552" stop-color="#ed687d"/>
      <stop offset="1" stop-color="#e8318c"/>
    </linearGradient>
  </defs>
  <g id="Group_87489" data-name="Group 87489" transform="translate(-45.777 -412)">
    <path id="Path_295860" data-name="Path 295860" d="M57.44,451.131c0,1.63,4.923,2.95,10.995,2.95s10.995-1.321,10.995-2.95c0,0-.364-6.087,1.146-9.217l-.609-.2-3.178,5s-1.8,4.1-4.44,1.419a25.486,25.486,0,0,1-2.975-5.833h-.939s-1.045,4.233-3.5,6.453c0,0-2.457,1.882-4.71-2.714,0,0-2.411-3.964-3.155-4.324l-.293.338a12.375,12.375,0,0,1,.765,5.421s.125-.123.188-1.016a13.3,13.3,0,0,0-.372-3.122c-.353-1.189-.678-1-.84-1.138l-.466-.151C57.2,442.829,57.44,451.131,57.44,451.131Zm0,0" transform="translate(-9.391 -27.159)" fill="#e6aa2f"/>
    <path id="Path_295863" data-name="Path 295863" d="M188.408,418.005q0,.086-.009.172a1.75,1.75,0,0,1-.125.5c-.022.053-.047.1-.074.156a1.686,1.686,0,0,1-.089.148c-.032.048-.066.094-.1.138s-.075.087-.116.128a1.671,1.671,0,0,1-.128.115,1.7,1.7,0,0,1-.138.1,1.676,1.676,0,0,1-.148.089q-.076.041-.156.074c-.053.022-.107.041-.162.058s-.111.031-.167.042-.113.019-.17.025-.115.008-.172.008a1.718,1.718,0,0,1-.172-.008c-.057-.006-.114-.014-.171-.025s-.112-.025-.167-.042-.109-.036-.162-.058-.105-.047-.156-.074a1.581,1.581,0,0,1-.148-.089c-.048-.032-.094-.066-.139-.1s-.087-.075-.128-.115-.079-.083-.116-.128-.07-.091-.1-.138-.061-.1-.089-.148a1.67,1.67,0,0,1-.074-.156q-.033-.079-.058-.162c-.016-.055-.03-.111-.042-.167s-.02-.113-.026-.17-.008-.115-.008-.172,0-.115.008-.172a1.718,1.718,0,0,1,.026-.17c.011-.056.025-.112.042-.167s.036-.109.058-.162a1.648,1.648,0,0,1,.074-.156q.041-.076.089-.148t.1-.138q.055-.067.116-.128t.128-.116c.045-.036.091-.07.139-.1s.1-.061.148-.089.1-.052.156-.073.107-.041.162-.058.111-.031.167-.042.113-.02.171-.025a1.718,1.718,0,0,1,.172-.008c.057,0,.115,0,.172.008s.114.014.17.025.112.025.167.042a1.7,1.7,0,0,1,.162.058c.053.022.105.047.156.073s.1.057.148.089.094.066.138.1.087.075.128.116.079.083.116.128a1.671,1.671,0,0,1,.1.138,1.61,1.61,0,0,1,.089.148c.027.051.052.1.074.156a1.77,1.77,0,0,1,.134.672Zm0,0" transform="translate(-127.171 -3.885)" fill="#e6aa2f"/>
    <g id="Group_87488" data-name="Group 87488" transform="translate(69.499 412)" clip-path="url(#clip-path)">
      <path id="Path_295864" data-name="Path 295864" d="M325.955,413.931a1.548,1.548,0,0,1-.008.156q-.008.078-.023.155t-.038.152a1.509,1.509,0,0,1-.053.147c-.02.048-.042.1-.067.141a1.523,1.523,0,0,1-.08.134c-.029.043-.06.085-.093.126a1.56,1.56,0,0,1-.105.116,1.5,1.5,0,0,1-.116.105,1.534,1.534,0,0,1-.126.093c-.043.029-.088.056-.134.081s-.094.047-.142.067-.1.038-.147.053-.1.028-.152.038-.1.018-.155.023a1.59,1.59,0,0,1-.313,0c-.052,0-.1-.013-.155-.023s-.1-.023-.152-.038-.1-.033-.148-.053a1.558,1.558,0,0,1-.142-.067c-.046-.025-.091-.052-.135-.081s-.085-.06-.126-.093a1.544,1.544,0,0,1-.116-.105,1.562,1.562,0,0,1-.105-.116c-.033-.041-.064-.083-.094-.126s-.056-.088-.081-.134-.047-.093-.067-.141-.038-.1-.053-.147a1.562,1.562,0,0,1-.038-.152c-.01-.051-.018-.1-.023-.155s-.008-.1-.008-.156,0-.1.008-.156.013-.1.023-.155a1.561,1.561,0,0,1,.038-.152c.015-.05.033-.1.053-.147a1.553,1.553,0,0,1,.067-.142c.025-.046.052-.091.081-.134a1.558,1.558,0,0,1,.094-.126,1.5,1.5,0,0,1,.105-.116c.037-.037.076-.072.116-.105s.083-.064.126-.093.088-.056.135-.08a1.571,1.571,0,0,1,.289-.12q.075-.023.152-.038c.051-.01.1-.018.155-.023s.1-.008.156-.008.1,0,.157.008.1.013.155.023.1.023.152.038a1.545,1.545,0,0,1,.147.053c.048.02.1.042.142.067s.091.051.134.08.086.06.126.093.079.068.116.105a1.589,1.589,0,0,1,.2.242,1.607,1.607,0,0,1,.147.276,1.507,1.507,0,0,1,.053.147q.023.075.038.152t.023.155A1.542,1.542,0,0,1,325.955,413.931Zm0,0" transform="translate(-322.697 -412.307)" fill="#e6aa2f"/>
    </g>
    <path id="Path_295866" data-name="Path 295866" d="M48.97,415.794c0,.052,0,.1-.008.156a1.51,1.51,0,0,1-.023.155c-.01.051-.023.1-.038.152a1.558,1.558,0,0,1-.053.147c-.02.048-.042.1-.067.142s-.052.091-.081.134-.06.086-.094.126a1.523,1.523,0,0,1-.1.116,1.561,1.561,0,0,1-.116.105q-.061.05-.126.093a1.515,1.515,0,0,1-.135.08c-.046.025-.093.047-.142.067a1.551,1.551,0,0,1-.148.053q-.075.023-.152.038t-.155.023c-.052,0-.1.008-.156.008s-.1,0-.157-.008-.1-.013-.155-.023-.1-.023-.152-.038a1.545,1.545,0,0,1-.147-.053c-.048-.02-.1-.042-.142-.067a1.6,1.6,0,0,1-.376-.279q-.055-.055-.105-.116a1.5,1.5,0,0,1-.093-.126,1.527,1.527,0,0,1-.081-.134c-.025-.046-.047-.093-.067-.142a1.554,1.554,0,0,1-.053-.147q-.023-.075-.038-.152c-.01-.051-.018-.1-.023-.155s-.008-.1-.008-.156,0-.1.008-.156.013-.1.023-.155.023-.1.038-.152a1.555,1.555,0,0,1,.053-.148c.02-.048.042-.1.067-.142a1.554,1.554,0,0,1,.081-.134q.043-.065.093-.126c.033-.04.068-.079.105-.116a1.5,1.5,0,0,1,.116-.105c.04-.033.082-.064.126-.093s.088-.056.134-.08.094-.047.142-.067.1-.038.147-.053.1-.028.152-.038.1-.018.155-.023a1.6,1.6,0,0,1,.313,0c.052.005.1.013.155.023a1.544,1.544,0,0,1,.152.038c.05.015.1.033.148.053a1.539,1.539,0,0,1,.142.067c.046.025.091.052.135.08s.085.06.126.093a1.625,1.625,0,0,1,.221.221q.05.061.094.126c.029.044.056.088.081.134s.047.093.067.142a1.559,1.559,0,0,1,.053.148c.015.05.028.1.038.152a1.52,1.52,0,0,1,.023.155C48.968,415.69,48.97,415.742,48.97,415.794Zm0,0" transform="translate(0 -2.01)" fill="#efbc56"/>
    <path id="Path_295867" data-name="Path 295867" d="M91,530.158c0,1.659-5.029,3.009-11.233,3.009s-11.32-1.35-11.32-3.009a.975.975,0,0,1,.235-.619c.032,1.62,5.039,2.937,11.085,2.937s10.925-1.318,10.956-2.937A1.037,1.037,0,0,1,91,530.158Zm0,0" transform="translate(-20.725 -107.445)" fill="#efbc56"/>
    <path id="Path_295870" data-name="Path 295870" d="M186.287,502.926a2.2,2.2,0,0,1-.011.221,2.178,2.178,0,0,1-.033.219q-.022.109-.054.215t-.074.208a2.159,2.159,0,0,1-.095.2q-.052.1-.114.19t-.132.177q-.07.086-.149.164c-.052.052-.107.1-.164.148a2.178,2.178,0,0,1-.178.132q-.092.061-.19.114t-.2.095c-.068.028-.138.053-.208.074s-.142.039-.215.054-.146.025-.219.033-.147.011-.221.011-.148,0-.221-.011-.147-.018-.219-.033-.144-.032-.215-.054-.14-.046-.208-.074-.135-.06-.2-.095-.128-.073-.19-.114a2.175,2.175,0,0,1-.178-.132c-.057-.047-.112-.1-.164-.148s-.1-.107-.149-.164-.091-.116-.132-.177-.079-.125-.114-.19-.066-.132-.095-.2-.053-.137-.074-.208-.039-.142-.054-.215-.025-.145-.033-.219a2.279,2.279,0,0,1,0-.442c.007-.074.018-.146.033-.219s.032-.144.054-.214.046-.14.074-.208.06-.135.095-.2.073-.128.114-.189.085-.121.132-.178.1-.112.149-.164.107-.1.164-.149.116-.091.178-.131a2.142,2.142,0,0,1,.19-.114q.1-.052.2-.095t.208-.074a2.163,2.163,0,0,1,.215-.054,2.25,2.25,0,0,1,.88,0,2.163,2.163,0,0,1,.215.054c.071.022.14.046.208.074s.135.06.2.095a2.137,2.137,0,0,1,.19.114q.092.061.178.131c.057.047.112.1.164.149s.1.107.149.164.091.116.132.178.079.124.114.189a2.2,2.2,0,0,1,.095.2q.042.1.074.208c.021.07.039.142.054.214a2.228,2.228,0,0,1,.043.44Zm0,0" transform="translate(-124.32 -81.057)" fill="#efbc56"/>
    <path id="Path_295871" data-name="Path 295871" d="M192.787,510.1c0,.052,0,.1-.008.155s-.013.1-.023.153a1.53,1.53,0,0,1-.038.151q-.023.074-.052.146c-.02.048-.042.095-.066.14s-.051.09-.08.133-.06.084-.093.124-.067.079-.1.115-.075.071-.115.1a1.5,1.5,0,0,1-.124.092q-.065.043-.133.08a1.53,1.53,0,0,1-.14.066q-.072.03-.146.052a1.524,1.524,0,0,1-.15.038c-.051.01-.1.018-.154.023s-.1.008-.155.008-.1,0-.155-.008-.1-.013-.154-.023a1.538,1.538,0,0,1-.15-.038c-.05-.015-.1-.033-.146-.052s-.095-.042-.14-.066a1.529,1.529,0,0,1-.133-.08,1.453,1.453,0,0,1-.125-.092c-.04-.033-.078-.067-.115-.1s-.071-.075-.1-.115-.064-.081-.093-.124-.055-.087-.08-.133-.047-.093-.066-.14-.037-.1-.052-.146a1.552,1.552,0,0,1-.038-.151c-.01-.051-.018-.1-.023-.153s-.008-.1-.008-.155,0-.1.008-.155.013-.1.023-.153a1.545,1.545,0,0,1,.038-.15q.023-.074.052-.146a1.606,1.606,0,0,1,.146-.273c.029-.043.06-.085.093-.125s.067-.078.1-.115.075-.071.115-.1.082-.064.125-.093.087-.055.133-.08.093-.047.14-.066a1.509,1.509,0,0,1,.146-.052,1.54,1.54,0,0,1,.15-.038c.051-.01.1-.017.154-.023s.1-.007.155-.007.1,0,.155.007.1.013.154.023a1.526,1.526,0,0,1,.15.038,1.5,1.5,0,0,1,.146.052,1.549,1.549,0,0,1,.14.066c.046.024.09.051.133.08s.085.06.124.093.078.067.115.1.071.075.1.115.064.082.093.125.055.087.08.133a1.52,1.52,0,0,1,.066.14q.03.072.052.146a1.523,1.523,0,0,1,.038.15c.01.051.018.1.023.153S192.787,510.048,192.787,510.1Zm0,0" transform="translate(-131.494 -88.231)" fill="url(#linear-gradient)"/>
    <path id="Path_295872" data-name="Path 295872" d="M196.556,514.24a.283.283,0,0,1,.053.072.342.342,0,0,1,.031.089.447.447,0,0,1,.008.1.6.6,0,0,1-.016.112.762.762,0,0,1-.038.118.931.931,0,0,1-.059.119,1.039,1.039,0,0,1-.079.115,1.2,1.2,0,0,1-.094.107,1.256,1.256,0,0,1-.107.094,1.067,1.067,0,0,1-.115.078.961.961,0,0,1-.118.06.767.767,0,0,1-.118.038.585.585,0,0,1-.112.015.451.451,0,0,1-.1-.008.335.335,0,0,1-.09-.031.282.282,0,0,1-.072-.052.29.29,0,0,1-.053-.072.347.347,0,0,1-.031-.089.446.446,0,0,1-.008-.1.586.586,0,0,1,.016-.112.757.757,0,0,1,.038-.118.934.934,0,0,1,.059-.119,1.039,1.039,0,0,1,.078-.115,1.17,1.17,0,0,1,.094-.107,1.226,1.226,0,0,1,.107-.094,1.1,1.1,0,0,1,.115-.078.911.911,0,0,1,.118-.06.773.773,0,0,1,.118-.038.6.6,0,0,1,.112-.015.452.452,0,0,1,.1.008.343.343,0,0,1,.09.031A.282.282,0,0,1,196.556,514.24Zm0,0" transform="translate(-136.805 -93.376)" fill="rgba(255,255,255,0.3)"/>
    <path id="Path_295873" data-name="Path 295873" d="M77.212,502.766a1.537,1.537,0,1,0,1.537,1.537A1.537,1.537,0,0,0,77.212,502.766Zm0,0" transform="translate(-27.34 -82.971)" fill="#efbc56"/>
    <path id="Path_295874" data-name="Path 295874" d="M83.058,509.19a1.056,1.056,0,0,1-.021.21,1.1,1.1,0,0,1-.061.2,1.073,1.073,0,0,1-.234.349,1.066,1.066,0,0,1-.163.134,1.077,1.077,0,0,1-.388.161,1.09,1.09,0,0,1-.42,0,1.076,1.076,0,0,1-.388-.161,1.075,1.075,0,0,1-.458-1.105,1.065,1.065,0,0,1,.061-.2,1.078,1.078,0,0,1,1.408-.583,1.077,1.077,0,0,1,.35.233,1.079,1.079,0,0,1,.234.349,1.09,1.09,0,0,1,.061.2A1.054,1.054,0,0,1,83.058,509.19Zm0,0" transform="translate(-32.109 -87.859)" fill="url(#linear-gradient)"/>
    <path id="Path_295875" data-name="Path 295875" d="M85.615,512.012a.2.2,0,0,1,.036.049.232.232,0,0,1,.021.061.279.279,0,0,1,.005.07.394.394,0,0,1-.01.077.52.52,0,0,1-.026.08.623.623,0,0,1-.041.081.74.74,0,0,1-.053.079.769.769,0,0,1-.064.072.782.782,0,0,1-.073.065.708.708,0,0,1-.078.053.627.627,0,0,1-.081.041.554.554,0,0,1-.081.026.429.429,0,0,1-.077.01.3.3,0,0,1-.07-.005.23.23,0,0,1-.061-.021.2.2,0,0,1-.049-.036.193.193,0,0,1-.036-.049.222.222,0,0,1-.021-.061.316.316,0,0,1-.005-.07.427.427,0,0,1,.011-.077.486.486,0,0,1,.026-.08.607.607,0,0,1,.04-.081.81.81,0,0,1,.054-.078.767.767,0,0,1,.064-.072.754.754,0,0,1,.072-.064.724.724,0,0,1,.078-.053.612.612,0,0,1,.081-.041.554.554,0,0,1,.081-.026.394.394,0,0,1,.077-.01.278.278,0,0,1,.07.005.235.235,0,0,1,.061.021A.2.2,0,0,1,85.615,512.012Zm0,0" transform="translate(-35.717 -91.366)" fill="rgba(255,255,255,0.3)"/>
    <path id="Path_295876" data-name="Path 295876" d="M297.9,502.664a1.33,1.33,0,0,1-.025.258,1.321,1.321,0,0,1-.2.477,1.335,1.335,0,0,1-.366.365,1.316,1.316,0,0,1-.229.122,1.324,1.324,0,0,1-1.014,0,1.3,1.3,0,0,1-.229-.122,1.29,1.29,0,0,1-.2-.165,1.324,1.324,0,0,1,.43-2.16,1.326,1.326,0,0,1,1.243.122,1.335,1.335,0,0,1,.366.365,1.32,1.32,0,0,1,.2.477A1.329,1.329,0,0,1,297.9,502.664Zm0,0" transform="translate(-228.049 -81.668)" fill="#efbc56"/>
    <path id="Path_295877" data-name="Path 295877" d="M301.717,506.878a.933.933,0,0,1-.018.181.928.928,0,0,1-.254.475.934.934,0,0,1-.476.254.936.936,0,0,1-.363,0,.926.926,0,0,1-.174-.053.949.949,0,0,1-.161-.086.946.946,0,0,1-.256-.256.936.936,0,0,1-.139-.335.931.931,0,0,1,0-.362.935.935,0,0,1,.139-.335.943.943,0,0,1,.256-.256.925.925,0,0,1,.161-.086.9.9,0,0,1,.174-.053.93.93,0,0,1,.363,0,.94.94,0,0,1,.335.139.926.926,0,0,1,.141.116.909.909,0,0,1,.115.141.933.933,0,0,1,.139.335A.935.935,0,0,1,301.717,506.878Zm0,0" transform="translate(-232.262 -85.881)" fill="url(#linear-gradient)"/>
    <path id="Path_295878" data-name="Path 295878" d="M303.933,509.322a.173.173,0,0,1,.031.042.2.2,0,0,1,.018.053.254.254,0,0,1,0,.06.335.335,0,0,1-.009.066.43.43,0,0,1-.022.069.5.5,0,0,1-.035.07.584.584,0,0,1-.046.067.7.7,0,0,1-.055.062.564.564,0,0,1-.063.055.638.638,0,0,1-.067.046.586.586,0,0,1-.07.035.423.423,0,0,1-.069.022.367.367,0,0,1-.066.009.275.275,0,0,1-.06,0,.19.19,0,0,1-.053-.018.165.165,0,0,1-.043-.031.184.184,0,0,1-.031-.043.211.211,0,0,1-.018-.052.255.255,0,0,1,0-.06.33.33,0,0,1,.009-.066.432.432,0,0,1,.023-.069.541.541,0,0,1,.035-.07.59.59,0,0,1,.046-.067.732.732,0,0,1,.055-.063.663.663,0,0,1,.13-.1.6.6,0,0,1,.07-.035.48.48,0,0,1,.069-.022.383.383,0,0,1,.066-.009.267.267,0,0,1,.061,0,.194.194,0,0,1,.052.018A.161.161,0,0,1,303.933,509.322Zm0,0" transform="translate(-235.384 -88.915)" fill="rgba(255,255,255,0.3)"/>
    <path id="Path_295879" data-name="Path 295879" d="M51.489,419.21a.238.238,0,0,1,.049.069.3.3,0,0,1,.026.088.445.445,0,0,1,0,.1.623.623,0,0,1-.021.113.826.826,0,0,1-.044.119,1.054,1.054,0,0,1-.065.121,1.271,1.271,0,0,1-.084.118,1.418,1.418,0,0,1-.1.111,1.363,1.363,0,0,1-.111.1,1.262,1.262,0,0,1-.119.084,1.045,1.045,0,0,1-.121.065.837.837,0,0,1-.119.044.626.626,0,0,1-.113.021.439.439,0,0,1-.1,0,.3.3,0,0,1-.088-.026.237.237,0,0,1-.069-.049.255.255,0,0,1-.049-.069.312.312,0,0,1-.026-.088.43.43,0,0,1,0-.1.593.593,0,0,1,.021-.113.807.807,0,0,1,.044-.12,1.074,1.074,0,0,1,.065-.121,1.253,1.253,0,0,1,.084-.119,1.332,1.332,0,0,1,.1-.111,1.3,1.3,0,0,1,.111-.1,1.258,1.258,0,0,1,.118-.084A1.084,1.084,0,0,1,51,419.2a.85.85,0,0,1,.12-.044.626.626,0,0,1,.113-.021.446.446,0,0,1,.1,0,.312.312,0,0,1,.088.026A.254.254,0,0,1,51.489,419.21Zm0,0" transform="translate(-4.16 -6.518)" fill="rgba(255,255,255,0.2)"/>
    <path id="Path_295880" data-name="Path 295880" d="M189.786,420.032a.321.321,0,0,1,.062.089.4.4,0,0,1,.033.112.543.543,0,0,1,0,.131.756.756,0,0,1-.028.145,1.043,1.043,0,0,1-.057.153,1.367,1.367,0,0,1-.084.156,1.674,1.674,0,0,1-.108.152,1.778,1.778,0,0,1-.271.271,1.558,1.558,0,0,1-.152.108,1.273,1.273,0,0,1-.156.084,1.086,1.086,0,0,1-.153.057.787.787,0,0,1-.145.028.564.564,0,0,1-.131,0,.388.388,0,0,1-.112-.033.311.311,0,0,1-.151-.151.4.4,0,0,1-.033-.112.545.545,0,0,1,0-.131.768.768,0,0,1,.028-.145,1.056,1.056,0,0,1,.057-.153,1.4,1.4,0,0,1,.084-.156,1.642,1.642,0,0,1,.108-.152,1.754,1.754,0,0,1,.128-.143,1.774,1.774,0,0,1,.143-.128A1.621,1.621,0,0,1,189,420.1a1.379,1.379,0,0,1,.156-.085,1.1,1.1,0,0,1,.153-.057.787.787,0,0,1,.145-.028.566.566,0,0,1,.131,0,.4.4,0,0,1,.112.033A.315.315,0,0,1,189.786,420.032Zm0,0" transform="translate(-130.28 -7.25)" fill="rgba(255,255,255,0.2)"/>
    <path id="Path_295881" data-name="Path 295881" d="M327.743,416.874a.318.318,0,0,1,.062.088.386.386,0,0,1,.034.111.547.547,0,0,1,.005.129.738.738,0,0,1-.025.142.97.97,0,0,1-.054.15,1.3,1.3,0,0,1-.08.152,1.558,1.558,0,0,1-.1.148,1.625,1.625,0,0,1-.262.262,1.529,1.529,0,0,1-.148.1,1.254,1.254,0,0,1-.152.081,1.084,1.084,0,0,1-.15.054.77.77,0,0,1-.142.025.563.563,0,0,1-.129,0,.412.412,0,0,1-.111-.034.328.328,0,0,1-.088-.063.313.313,0,0,1-.062-.088.393.393,0,0,1-.034-.11.561.561,0,0,1,0-.129.784.784,0,0,1,.025-.142,1.076,1.076,0,0,1,.054-.15,1.368,1.368,0,0,1,.081-.152,1.524,1.524,0,0,1,.1-.148,1.666,1.666,0,0,1,.123-.138,1.644,1.644,0,0,1,.139-.123,1.433,1.433,0,0,1,.148-.1,1.293,1.293,0,0,1,.152-.08,1.023,1.023,0,0,1,.15-.054.744.744,0,0,1,.142-.025.529.529,0,0,1,.129,0,.39.39,0,0,1,.111.034A.332.332,0,0,1,327.743,416.874Zm0,0" transform="translate(-256.429 -4.361)" fill="rgba(255,255,255,0.2)"/>
  </g>
</svg>
