<svg width="71" height="55" viewBox="0 0 71 55" fill="none" xmlns="http://www.w3.org/2000/svg">
<rect x="1.5" y="1.5" width="68" height="51.5472" rx="2.5" fill="#FFC708" stroke="#F65008" stroke-width="3"/>
<path d="M26.7859 14C21.6001 14 17.3572 18.2429 17.3572 23.4287C17.3572 26.0522 18.4815 28.4188 20.2306 30.1325C18.6268 31.216 17.312 32.6748 16.4004 34.3821C15.4888 36.0894 15.0081 37.9935 15 39.9289H19.7143C19.7143 38.0534 20.4594 36.2548 21.7856 34.9286C23.1117 33.6024 24.9104 32.8574 26.7859 32.8574C28.6614 32.8574 30.46 33.6024 31.7862 34.9286C33.1124 36.2548 33.8574 38.0534 33.8574 39.9289H38.5717C38.5636 37.9935 38.0829 36.0894 37.1713 34.3821C36.2597 32.6748 34.9449 31.216 33.3412 30.1325C35.0902 28.4188 36.2146 26.0546 36.2146 23.4287C36.2146 18.2429 31.9717 14 26.7859 14ZM26.7859 18.7143C29.4188 18.7143 31.5002 20.7957 31.5002 23.4287C31.5002 26.0617 29.4188 28.143 26.7859 28.143C24.1529 28.143 22.0715 26.0617 22.0715 23.4287C22.0715 20.7957 24.1529 18.7143 26.7859 18.7143ZM43.2861 21.0715V25.7859H57.4291V21.0715H43.2861ZM43.2861 30.5002V35.2146H57.4291V30.5002H43.2861Z" fill="#530C54"/>
</svg>
