<svg width="50" height="71" viewBox="0 0 50 71" fill="none" xmlns="http://www.w3.org/2000/svg">
<rect x="1.5" y="1.5" width="47" height="68" rx="1.5" fill="#FFC708" stroke="#F65008" stroke-width="3"/>
<path d="M18.1313 32.7183C17.7108 32.7183 17.343 32.5704 17.0277 32.2746C16.7123 31.9787 16.5547 31.6336 16.5547 31.2392V18.4197C16.5547 18.0253 16.7123 17.6801 17.0277 17.3843C17.343 17.0885 17.7108 16.9405 18.1313 16.9405H21.0217V16.694C21.0217 15.6586 21.4027 14.7834 22.1647 14.0685C22.9267 13.3536 23.8595 12.9961 24.9631 12.9961C26.0667 12.9961 26.9995 13.3536 27.7615 14.0685C28.5235 14.7834 28.9045 15.6586 28.9045 16.694V16.9405H31.7949C32.2153 16.9405 32.5832 17.0885 32.8985 17.3843C33.2138 17.6801 33.3715 18.0253 33.3715 18.4197V31.2392C33.3715 31.6336 33.2138 31.9787 32.8985 32.2746C32.5832 32.5704 32.2153 32.7183 31.7949 32.7183H18.1313ZM18.1313 31.2392H31.7949V18.4197H28.9045V20.6385C28.9045 20.848 28.8286 21.0237 28.6766 21.1654C28.5246 21.3072 28.3363 21.378 28.1117 21.378C27.887 21.378 27.7002 21.3072 27.5513 21.1654C27.4024 21.0237 27.328 20.848 27.328 20.6385V18.4197H22.5982V20.6385C22.5982 20.848 22.5222 21.0237 22.3703 21.1654C22.2183 21.3072 22.03 21.378 21.8053 21.378C21.5807 21.378 21.3939 21.3072 21.245 21.1654C21.0961 21.0237 21.0217 20.848 21.0217 20.6385V18.4197H18.1313V31.2392ZM22.5982 16.9405H27.328V16.694C27.328 16.0695 27.1002 15.5435 26.6448 15.1162C26.1893 14.6889 25.6288 14.4753 24.9631 14.4753C24.2974 14.4753 23.7369 14.6889 23.2814 15.1162C22.826 15.5435 22.5982 16.0695 22.5982 16.694V16.9405Z" fill="#530C54"/>
<rect x="7.88281" y="37.4023" width="34.2342" height="1.26786" fill="#530C54"/>
<rect x="7.88281" y="41.417" width="34.2342" height="1.26786" fill="#530C54"/>
<rect x="7.88281" y="45.4316" width="34.2342" height="1.26786" fill="#530C54"/>
<rect x="7.88281" y="49.4473" width="34.2342" height="1.26786" fill="#530C54"/>
</svg>
