<svg xmlns="http://www.w3.org/2000/svg" width="18" height="25" viewBox="0 0 18 25">
  <g id="My_transactions" data-name="My transactions" transform="translate(-40 -362)">
    <rect id="Rectangle_17910" data-name="Rectangle 17910" width="18" height="25" rx="3" transform="translate(40 362)" fill="#e8b652"/>
    <path id="Path_141177" data-name="Path 141177" d="M2243.719,1042.448l-11.243-.021a.594.594,0,0,1-.591-.593h0a.594.594,0,0,1,.593-.591l11.243.021a.594.594,0,0,1,.591.593h0A.593.593,0,0,1,2243.719,1042.448Z" transform="translate(-2188.934 -671.926)" fill="#4d0874"/>
    <path id="Path_141178" data-name="Path 141178" d="M2243.581,1116.2l-11.243-.021a.594.594,0,0,1-.591-.593h0a.594.594,0,0,1,.593-.591l11.243.021a.593.593,0,0,1,.59.593h0A.593.593,0,0,1,2243.581,1116.2Z" transform="translate(-2188.802 -742.618)" fill="#4d0874"/>
    <path id="Path_141179" data-name="Path 141179" d="M2243.431,1197.086l-11.243-.021a.593.593,0,0,1-.591-.593h0a.594.594,0,0,1,.593-.591l11.243.021a.593.593,0,0,1,.591.593h0A.593.593,0,0,1,2243.431,1197.086Z" transform="translate(-2188.658 -820.153)" fill="#4d0874"/>
    <path id="Path_141180" data-name="Path 141180" d="M2234.437,1339.812l-2.515,0a.594.594,0,0,1-.591-.593h0a.594.594,0,0,1,.593-.591l2.515,0a.594.594,0,0,1,.591.593h0A.594.594,0,0,1,2234.437,1339.812Z" transform="translate(-2188.403 -956.978)" fill="#4d0874"/>
    <path id="Path_141181" data-name="Path 141181" d="M2444.981,1340.206l-2.515,0a.593.593,0,0,1-.591-.593h0a.593.593,0,0,1,.593-.591l2.515,0a.594.594,0,0,1,.591.593h0A.593.593,0,0,1,2444.981,1340.206Z" transform="translate(-2390.219 -957.355)" fill="#4d0874"/>
  </g>
</svg>
