<svg xmlns="http://www.w3.org/2000/svg" width="24" height="25" viewBox="0 0 24 25">
  <g id="My_wallet" data-name="My wallet" transform="translate(-39 -425)">
    <path id="Path_141182" data-name="Path 141182" d="M766.723,2619.4l-17.013,5.042h17.476v-4.716C767.186,2619.431,767,2619.316,766.723,2619.4Z" transform="translate(-706.032 -2194.374)" fill="#e8b652" fill-rule="evenodd"/>
    <path id="Path_141184" data-name="Path 141184" d="M662.589,2784.518H640.473c-.838,0-.961.239-.961.961v16.252a.914.914,0,0,0,.923.906h22.154a.914.914,0,0,0,.923-.906v-4.53H658.9a.914.914,0,0,1-.923-.906v-3.624a.915.915,0,0,1,.923-.906h4.615v-6.342A.915.915,0,0,0,662.589,2784.518Z" transform="translate(-600.512 -2352.639)" fill="#e8b652" fill-rule="evenodd"/>
  </g>
</svg>
