<svg width="26" height="23" viewBox="0 0 26 23" fill="none" xmlns="http://www.w3.org/2000/svg">
<path d="M23.92 4.18182H3.12C2.84417 4.18182 2.57965 4.07167 2.38461 3.87561C2.18957 3.67955 2.08 3.41364 2.08 3.13636C2.08 2.85909 2.18957 2.59318 2.38461 2.39712C2.57965 2.20105 2.84417 2.09091 3.12 2.09091H20.8C21.0758 2.09091 21.3404 1.98076 21.5354 1.7847C21.7304 1.58864 21.84 1.32273 21.84 1.04545C21.84 0.768183 21.7304 0.502267 21.5354 0.306207C21.3404 0.110146 21.0758 0 20.8 0H3.12C2.29252 0 1.49894 0.330437 0.913827 0.91862C0.328713 1.5068 0 2.30455 0 3.13636V19.8636C0 20.6955 0.328713 21.4932 0.913827 22.0814C1.49894 22.6696 2.29252 23 3.12 23H23.92C24.4716 23 25.0007 22.7797 25.3908 22.3876C25.7809 21.9955 26 21.4636 26 20.9091V6.27273C26 5.71818 25.7809 5.18635 25.3908 4.79423C25.0007 4.40211 24.4716 4.18182 23.92 4.18182ZM19.24 14.6364C18.9315 14.6364 18.6299 14.5444 18.3733 14.3721C18.1168 14.1998 17.9168 13.9548 17.7987 13.6683C17.6807 13.3817 17.6498 13.0664 17.71 12.7622C17.7702 12.458 17.9187 12.1786 18.1369 11.9593C18.3551 11.74 18.633 11.5906 18.9357 11.5301C19.2383 11.4696 19.5519 11.5007 19.837 11.6194C20.122 11.7381 20.3657 11.9391 20.5371 12.1969C20.7085 12.4548 20.8 12.758 20.8 13.0682C20.8 13.4841 20.6356 13.883 20.3431 14.1771C20.0505 14.4711 19.6537 14.6364 19.24 14.6364Z" fill="#EEEEEE"/>
</svg>
