<svg xmlns="http://www.w3.org/2000/svg" xmlns:xlink="http://www.w3.org/1999/xlink" width="322" height="208" viewBox="0 0 322 208">
  <defs>
    <radialGradient id="radial-gradient" cx="0.5" cy="0.421" r="0.5" gradientUnits="objectBoundingBox">
      <stop offset="0" stop-color="#5dadec"/>
      <stop offset="0.523" stop-color="#fff"/>
      <stop offset="1" stop-color="#2b5677"/>
    </radialGradient>
    <linearGradient id="linear-gradient" x1="0.5" x2="0.5" y2="1" gradientUnits="objectBoundingBox">
      <stop offset="0" stop-color="#e8b652"/>
      <stop offset="1" stop-color="#bf335c"/>
    </linearGradient>
  </defs>
  <g id="Group_65160" data-name="Group 65160" transform="translate(-6510 902)">
    <text id="Welcome_back" data-name="Welcome back" transform="translate(6671 -703)" fill="#f2db2b" font-size="20" font-family="Avenir-Medium, Avenir" font-weight="500"><tspan x="-160.78" y="0">Play predictor to climb leaderboard</tspan></text>
    <g id="Scorecard_up_soon" transform="translate(6483.712 -1074)">
      <g id="Group_60342" data-name="Group 60342" transform="translate(246.433 323.517) rotate(173)">
        <g id="Group_60341" data-name="Group 60341" transform="translate(0 47.508)">
          <path id="Path_141280" data-name="Path 141280" d="M8.613,7.881A37.4,37.4,0,0,1,1.629,18.35c-2.406,2.513-2.094,3.33.591,1.9,2.342-1.3,4-3.062,4.376-2.841.182.1-1.077,1.559-3.12,3.455C1.372,22.813-.217,24.149.432,24.9c.763.848,7.194-3.707,8.363-5.426,1.439-1.531-3.278,5.021-5.546,6.779-2.366,2.084-.981,2.991,2.527.609,3.444-2.446,5.441-5.353,6.35-5.953-.151.834-.451,1.9-2.99,5.279-1.989,2.423-.563,2.916,2.018.766,3.133-2.575,5.158-7.93,6.3-7.971.807.416.28,1.811.909,4.929.582,3.089,2.053-.829,2.282-4.3.311-3.553,1-7.639.5-10.8-.646-4.24-2.125-7.258-4.92-8.384C13.229-.759,11.582.151,8.613,7.881Z" transform="translate(0 0)" fill="#e29a8f"/>
          <path id="Path_141281" data-name="Path 141281" d="M.2,4.593a.709.709,0,0,0,.334-.076,2.649,2.649,0,0,0,.383-.164,7.686,7.686,0,0,0,.644-.46c.416-.323.811-.676,1.194-1.038S3.5,2.134,3.84,1.744A5.879,5.879,0,0,0,4.8.456.31.31,0,0,0,4.32.08,11.449,11.449,0,0,0,3.276,1.173c-.359.374-.717.746-1.1,1.1s-.757.667-1.148.988c-.194.159-.389.317-.578.483-.1.085-.157.19-.246.282a.774.774,0,0,0-.2.313A.2.2,0,0,0,.2,4.593Z" transform="translate(11.599 9.648)" fill="#bc4a60" opacity="0.5"/>
        </g>
        <path id="Path_141282" data-name="Path 141282" d="M43.614,65.707c5.5-3,5.851-9.348,1.9-20.283C42.377,36.732,32.533-.323,20.435,0,11.937.231.852,46.065,0,52.026c2.424.37,4.878.029,9.734,2.794,1.612-3.54,8.843-33.718,10.977-31.9,2.586,2.2,4.8,21.315,9.464,30.763C33.463,60.336,38.113,68.706,43.614,65.707Z" transform="translate(10.692 0)" fill="#e29a8f"/>
        <path id="Path_141283" data-name="Path 141283" d="M21.816,46.738c-2.059-.02-10.287-5.519-14.981-17.535A199.738,199.738,0,0,1,0,8.943S5.73,1.537,19.193,0c0,0,6.144,16.138,7.041,25.29l.9,9.152S28.927,46.808,21.816,46.738Z" transform="translate(32.37 23.872)" fill="#e58421"/>
      </g>
      <g id="Group_60343" data-name="Group 60343" transform="translate(130.313 255.546)">
        <path id="Path_141285" data-name="Path 141285" d="M276.97,244.09c6.363-6.111,39.9-7.279,47.755,1.431s.73,32.93,1.2,51.481,3.734,19.253-.351,20.7-26.241,6.4-44.621,3.01-15.238-7.259-15.238-11.292S267.231,253.446,276.97,244.09Z" transform="translate(-265.512 -239.247)" fill="#db5225"/>
        <path id="Path_141286" data-name="Path 141286" d="M291.032,241.666c-2.631,2.122,3.465,8.126,11.891,7.771s4.947-4.809,3.379-5.973S294.827,238.606,291.032,241.666Z" transform="translate(-260.086 -239.659)" fill="#658ee5"/>
      </g>
      <path id="Path_141287" data-name="Path 141287" d="M261.674,161.822s5.665-3.988,3.571-13.709-8.867-13.086-8.867-13.086-4.187.249-1.108,9.1S261.674,161.822,261.674,161.822Z" transform="translate(-63.254 51.12)"/>
      <g id="Group_60344" data-name="Group 60344" transform="translate(163.83 245.128)">
        <path id="Path_141288" data-name="Path 141288" d="M291.9,239.035a14.957,14.957,0,0,0,6.71,2.781c5.144.936,4.826-1.579,4.826-1.579l.843-6.071,1.229-8.845L293.393,223.6l-1.029,7.447-.946,6.8A1.286,1.286,0,0,0,291.9,239.035Z" transform="translate(-291.406 -223.602)" fill="#e29a8f"/>
        <path id="Path_141289" data-name="Path 141289" d="M291.406,231.049a24.118,24.118,0,0,0,3.977,1.67,36.3,36.3,0,0,0,5.3,1.215,13.968,13.968,0,0,0,2.644.231l1.229-8.845L292.435,223.6Z" transform="translate(-290.448 -223.602)" fill="#bc4a60" opacity="0.4"/>
      </g>
      <path id="Path_141290" data-name="Path 141290" d="M313.489,165.938c1.74,18.742-5.285,34.831-27.238,32.924s-26.75-18.973-29.973-36.285,7.7-33.832,26.092-33.9C303.643,128.6,311.689,141.541,313.489,165.938Z" transform="translate(-112.325 53.241)" fill="#e29a8f"/>
      <path id="Path_141291" data-name="Path 141291" d="M258.034,185.8s.783,8.718,7.825,12.63,13.853-2.029,23.425-1.883c8.983.137,9.851,2.722,11.923.765s1.933-3.632,3.728-2.654,3.728,6.427,1.1,14.251-12.7,10.2-25.821,9.222-22.841-7.122-25.588-13.537c-3.23-7.541,1.405-6.215-1.628-17.072C251.978,183.856,257.482,182.59,258.034,185.8Z" transform="translate(-104.034 34.769)"/>
      <path id="Path_141292" data-name="Path 141292" d="M278,163.527c-3.25,2.192-12.98.419-15.051-6.986s-3.866-24.172,9.665-30.32,36.314-3.074,36.314-3.074-4.557-6.147-1.933-7.405,7.18,4.471,7.18,4.471-2.623-6.148.553-6.427,12.013,15.23,5.938,20.26-13.67-.139-13.67-.139-2.209,4.052-8.423,5.729a18.135,18.135,0,0,1-11.874-1.258,15.222,15.222,0,0,1-1.1,11.6c-3.176,6.148-6.489,8.1-6.489,8.1S280.9,161.571,278,163.527Z" transform="translate(-125.149 58.219)"/>
      <g id="Group_60345" data-name="Group 60345" transform="translate(136.659 216.839)">
        <path id="Path_141293" data-name="Path 141293" d="M346.65,195.578c-.906,2.65-5.184,3.6-8.64,1.219s-5.969-9.592-3.4-13.512,8.673-2.177,11,2.49A14.332,14.332,0,0,1,346.65,195.578Z" transform="translate(-333.555 -181.119)" fill="#e29a8f"/>
        <path id="Path_141294" data-name="Path 141294" d="M339.445,188.312a.264.264,0,0,1,.113-.436,3.459,3.459,0,0,1,2.41.73,8.383,8.383,0,0,1,2.017,1.705,7.6,7.6,0,0,1,1.89,4.961c-.007.338-.529.437-.6.083a9.422,9.422,0,0,0-2.01-4.393c-.147-.169-.314-.314-.474-.468-.064.082-.14.157-.206.234-.117.138-.239.271-.355.411a7.334,7.334,0,0,0-.629.9c-.386.639-.62,1.362-1.054,1.971-.08.113-.31.13-.336-.045a3.6,3.6,0,0,1,.67-2.353,7.187,7.187,0,0,1,.745-1,4.037,4.037,0,0,1,.423-.427c.07-.059.139-.118.212-.171a7.552,7.552,0,0,0-.778-.565A10.506,10.506,0,0,1,339.445,188.312Z" transform="translate(-336.166 -183.361)" fill="#bc4a60" opacity="0.5"/>
      </g>
      <g id="Group_60346" data-name="Group 60346" transform="translate(173.344 233.34)">
        <path id="Path_141295" data-name="Path 141295" d="M9.078,9.394c4.4-.247,7.346,3.988,11.326.647C23.575,7.379,18.14-.07,10.042,0S-1.495,6.513.6,8.662,3.852,9.685,9.078,9.394Z" transform="translate(0 0)" fill="#bc4a60"/>
        <path id="Path_141296" data-name="Path 141296" d="M281.435,209.566a14.643,14.643,0,0,1,4,1.267,11.067,11.067,0,0,1,3.427,2.614,9.065,9.065,0,0,1,1.425,2.061,12.633,12.633,0,0,1-2.007.187c-4.944.044-8.777-3.01-9.871-5.74C279.151,209.272,280.566,209.431,281.435,209.566Z" transform="translate(-274.728 -207.085)" fill="#fc6b7f"/>
      </g>
      <g id="Group_60347" data-name="Group 60347" transform="translate(164.946 216.385)">
        <path id="Path_141297" data-name="Path 141297" d="M297.478,191.3a11.967,11.967,0,0,1,1.023-.979,9.074,9.074,0,0,1,2.466-1.582,4.52,4.52,0,0,1,2.813-.307,1.759,1.759,0,0,1,1.381,2.012c-.068.32-.526.228-.543-.075-.049-.939-1.113-1.149-1.854-1.093a5.161,5.161,0,0,0-2.139.714,9.945,9.945,0,0,0-1.814,1.374A5.433,5.433,0,0,1,297,192.811a.259.259,0,0,1-.313-.317A2.811,2.811,0,0,1,297.478,191.3Z" transform="translate(-295.681 -186.069)" fill="#2c1f30"/>
        <path id="Path_141298" data-name="Path 141298" d="M263.005,188.3a7.141,7.141,0,0,1,2.586-2.851,2.655,2.655,0,0,1,2.553-.287,1.622,1.622,0,0,1,.849,1.934.273.273,0,0,1-.526-.146,1.088,1.088,0,0,0-1.006-1.16,2.764,2.764,0,0,0-1.906.766,6.179,6.179,0,0,0-1.311,1.431,7.775,7.775,0,0,0-.483.864,2.032,2.032,0,0,1-.587.843.275.275,0,0,1-.4-.165A1.652,1.652,0,0,1,263.005,188.3Z" transform="translate(-237.221 -184.943)" fill="#2c1f30"/>
      </g>
      <path id="Path_141299" data-name="Path 141299" d="M307.866,168.44a.526.526,0,0,1-.6.66c-.107-.016-.211-.021-.317-.031a.518.518,0,0,1,.037.772c.073.013.145.023.218.039a.506.506,0,0,1-.013.968.5.5,0,0,1-.2.822c-2.818.406-5.716,1.225-7.669,3.457a.337.337,0,0,1-.532-.073.493.493,0,0,1-.173-.656c.078-.129.162-.254.247-.378-.012-.011-.028-.013-.039-.026-.917-1.134.2-2.248,1-3.036a14.434,14.434,0,0,1,3.042-2.37,9.215,9.215,0,0,1,3.7-1.188c.481-.042,1.31-.155,1.477.477A.522.522,0,0,1,307.866,168.44Z" transform="translate(-134.796 40.316)"/>
      <path id="Path_141300" data-name="Path 141300" d="M261.993,164.082c.144-.61.859-.5,1.275-.461a7.377,7.377,0,0,1,3.2,1.147,12.771,12.771,0,0,1,2.626,2.287c.686.76,1.652,1.836.86,2.931-.009.012-.024.014-.034.025.072.12.145.24.212.365a.508.508,0,0,1-.149.633.274.274,0,0,1-.459.071c-1.686-2.154-4.187-2.945-6.619-3.337-.307-.05-.392-.581-.172-.794-.385-.1-.446-.828-.01-.934.062-.015.125-.025.187-.038a.542.542,0,0,1,.032-.746c-.091.01-.181.015-.273.031a.489.489,0,0,1-.516-.637A.537.537,0,0,1,261.993,164.082Z" transform="translate(-72.948 41.578)"/>
      <path id="Path_141301" data-name="Path 141301" d="M278.254,192.695c-.807-2.937-1.654-5.862-2.485-8.792-.411-1.451-.82-2.9-1.238-4.351a21.188,21.188,0,0,0-1.421-4.289.293.293,0,0,0-.543.148,20.793,20.793,0,0,0,1.025,4.312q.625,2.219,1.263,4.435c.778,2.724,1.546,5.451,2.34,8.17a35.436,35.436,0,0,1-5.7-.755.314.314,0,0,0-.165.605,21.044,21.044,0,0,0,6.487,1.1A.464.464,0,0,0,278.254,192.695Z" transform="translate(-86.981 37.723)" fill="#bc4a60" opacity="0.91"/>
      <g id="Group_65020" data-name="Group 65020" transform="matrix(0.998, 0.07, -0.07, 0.998, 490.712, -9840.261)">
        <path id="Path_292142" data-name="Path 292142" d="M463.055,10122.2c1.958.561-.309-2.309-.98-3.919a22.844,22.844,0,0,1-1.476-14.562c2.1-10.353,11.272-21.61,10.853-21.471s-23.592,0-23.592,0,9.78,17.628,9.92,20.146,4.639,19.17,4.639,19.17S461.1,10121.639,463.055,10122.2Z" transform="translate(-18.142 -35.207)" fill="#e58421"/>
        <path id="Path_292141" data-name="Path 292141" d="M424.516,10044h36.373l-16.648,28.8,16.648,27.98H424.516l15.249-27.98Z" transform="translate(-1.106 -7.299)" opacity="0.2" fill="url(#radial-gradient)"/>
        <rect id="Rectangle_19823" data-name="Rectangle 19823" width="36.929" height="2.547" transform="translate(423 10034)" fill="url(#linear-gradient)"/>
        <rect id="Rectangle_19824" data-name="Rectangle 19824" width="36.929" height="2.547" transform="translate(423 10093.426)" fill="url(#linear-gradient)"/>
        <path id="Path_292144" data-name="Path 292144" d="M14.976-2.919c6.519,0,8.63,1.394,8.63,2.14S15.274,2.462,8.755,2.462,0-.033,0-.779,8.457-2.919,14.976-2.919Z" transform="translate(429.718 10047.75)" fill="#db5225"/>
        <path id="Path_292143" data-name="Path 292143" d="M20.275-.181c8.283,0,11.515,4.475,11.515,6.564s-7.3,1.051-15.582,1.051S1.658,8.473,1.658,6.384,11.992-.181,20.275-.181Z" transform="translate(425.303 10086.016)" fill="#e58421"/>
      </g>
      <g id="Group_60351" data-name="Group 60351" transform="translate(214.841 328.599) rotate(169)">
        <path id="Path_141302" data-name="Path 141302" d="M40.536,75.709c6.822-.068,10.348-6.021,12.024-18.618C53.892,47.08,62.991,6.215,51.14.308,42.814-3.842,3.817,35.21,0,40.532c2.156,1.6,4.7,2.536,8,7.706,3.334-2.591,30.747-28.5,31.9-25.649,1.394,3.454-6.07,23.06-6.307,34.59C33.426,65.3,33.715,75.778,40.536,75.709Z" transform="translate(16.577 0)" fill="#e29a8f"/>
        <path id="Path_141303" data-name="Path 141303" d="M5.936,49.289C3.956,48.21-1.231,38.666.268,24.642A218.752,218.752,0,0,1,3.84,1.553S13.1-2.655,26.874,2.784c0,0-2.168,18.752-5.9,28.056l-3.729,9.3S12.771,53.014,5.936,49.289Z" transform="translate(48.599 31.096)" fill="#e58421"/>
        <path id="Path_141304" data-name="Path 141304" d="M12.97,4.45c-3.292,2.908-7.908,6.712-10.6,8.835-2.853,2.251-2.652,3.387.173,2.377,2.506-.9,4.631-2.282,4.953-1.916.159.18-1.517,1.321-3.866,2.986-2.415,1.71-4.041,3.1-3.541,4.2s7.32-2.888,9.058-4.225-4.47,4.58-6.621,6.582C.116,25.532,1.26,26.962,4.8,24.632s6.226-4.926,7.292-5.3c-.335.912-1.005,1.853-4.029,5.27-2.244,2.535-.991,3.473,1.784,1.446,3.33-2.433,6.936-7.411,8.179-6.995.7.72-.322,1.932-.515,5.547s2.162-.37,3.6-3.773c1.485-3.521,3.993-7.012,5.082-9.939,1.465-3.938,1.733-6.941-.9-9.175S19.625-1.428,12.97,4.45Z" transform="translate(0 37.845)" fill="#e29a8f"/>
        <g id="Group_60350" data-name="Group 60350" transform="translate(20.749 31.236)">
          <path id="Path_141309" data-name="Path 141309" d="M2.529,5.024l8.415.05a2.477,2.477,0,0,0,2.5-2.5h0A2.549,2.549,0,0,0,10.914.05L2.5,0A2.477,2.477,0,0,0,0,2.5,2.549,2.549,0,0,0,2.529,5.024Z" transform="matrix(-0.688, -0.726, 0.726, -0.688, 9.246, 13.248)" fill="#b26167"/>
          <path id="Path_141305" data-name="Path 141305" d="M1.372,1.219a4.357,4.357,0,0,1,6.212.169,4.484,4.484,0,0,1-.167,6.286A4.357,4.357,0,0,1,1.2,7.506,4.484,4.484,0,0,1,1.372,1.219Z" transform="translate(2.07 2.177)" fill="#ffd0be"/>
        </g>
      </g>
    </g>
  </g>
</svg>
