<svg xmlns="http://www.w3.org/2000/svg" xmlns:xlink="http://www.w3.org/1999/xlink" width="143.19" height="170.467" viewBox="0 0 143.19 170.467">
  <defs>
    <linearGradient id="linear-gradient" x1="0.445" y1="1" x2="0.463" y2="0.102" gradientUnits="objectBoundingBox">
      <stop offset="0" stop-color="#8f0000"/>
      <stop offset="0.557" stop-color="#4e0d0d"/>
      <stop offset="1" stop-color="#3a0000"/>
    </linearGradient>
  </defs>
  <g id="Group_65095" data-name="Group 65095" transform="translate(-4499.435 -3802.234)">
    <g id="Group_65094" data-name="Group 65094">
      <g id="Group_65035" data-name="Group 65035" transform="translate(4801.455 6615.52) rotate(-13)">
        <g id="Group_60341" data-name="Group 60341" transform="matrix(0.995, 0.105, -0.105, 0.995, 345.858, -2716.654)">
          <path id="Path_141280" data-name="Path 141280" d="M8.613,20.436A37.4,37.4,0,0,0,1.629,9.967c-2.406-2.513-2.094-3.33.591-1.9,2.342,1.3,4,3.062,4.376,2.841.182-.1-1.077-1.559-3.12-3.455C1.372,5.5-.217,4.168.432,3.418,1.2,2.57,7.626,7.125,8.795,8.844c1.439,1.531-3.278-5.021-5.546-6.779C.882-.019,2.267-.926,5.776,1.456,9.22,3.9,11.217,6.809,12.126,7.409c-.151-.834-.451-1.9-2.99-5.279C7.147-.293,8.573-.786,11.154,1.364c3.133,2.575,5.158,7.93,6.3,7.971.807-.416.28-1.811.909-4.929.582-3.089,2.053.829,2.282,4.3.311,3.553,1,7.639.5,10.8-.646,4.24-2.125,7.258-4.92,8.384C13.229,29.077,11.582,28.166,8.613,20.436Z" fill="#e29a8f"/>
          <path id="Path_141281" data-name="Path 141281" d="M.2,0A.709.709,0,0,1,.535.077,2.649,2.649,0,0,1,.918.241,7.686,7.686,0,0,1,1.561.7c.416.323.811.676,1.194,1.038S3.5,2.46,3.84,2.85A5.879,5.879,0,0,1,4.8,4.138a.31.31,0,0,1-.482.376A11.449,11.449,0,0,1,3.276,3.422c-.359-.374-.717-.746-1.1-1.1s-.757-.667-1.148-.988C.836,1.176.642,1.017.452.852.354.767.295.661.206.569a.774.774,0,0,1-.2-.313A.2.2,0,0,1,.2,0Z" transform="translate(11.599 14.075)" fill="#bc4a60" opacity="0.5"/>
        </g>
        <path id="Path_141282" data-name="Path 141282" d="M43.614.628c5.5,3,5.851,9.348,1.9,20.283C42.377,29.6,32.533,66.658,20.435,66.332,11.937,66.1.852,20.269,0,14.308c2.424-.37,4.878-.029,9.734-2.794,1.612,3.54,8.843,33.718,10.977,31.9,2.586-2.2,4.8-21.315,9.464-30.763C33.463,6,38.113-2.372,43.614.628Z" transform="matrix(0.995, 0.105, -0.105, 0.995, 355.499, -2706.097)" fill="#e29a8f"/>
        <path id="Path_141283" data-name="Path 141283" d="M21.816,0C19.757.02,11.529,5.519,6.835,17.536A199.738,199.738,0,0,0,0,37.8S5.73,45.2,19.193,46.738c0,0,6.144-16.138,7.041-25.29l.9-9.152S28.927-.07,21.816,0Z" transform="matrix(0.995, 0.105, -0.105, 0.995, 377.506, -2708.083)" fill="#e58421"/>
      </g>
      <g id="Group_65093" data-name="Group 65093" transform="translate(280.729 53.615)">
        <path id="Path_141491" data-name="Path 141491" d="M199.773,150.519s.035-28.67.687-29.73,24.166-11.838,25.016-11.585l-.145,30.673Z" transform="translate(4044.71 3714.643)" fill="#e54242"/>
        <path id="Path_141492" data-name="Path 141492" d="M218.164,123.2a8.016,8.016,0,0,1,6.645-3.277l.018,30.634-6.663,2.986Z" transform="translate(4035.232 3708.081)" fill="#ffae1f"/>
        <path id="Path_141493" data-name="Path 141493" d="M224.81,119.924l.018,6.546-6.663,2.976v-7.227A70.266,70.266,0,0,1,224.81,119.924Z" transform="translate(4035.231 3732.179)" fill="#ffae1f" opacity="0.2" style="mix-blend-mode: multiply;isolation: isolate"/>
        <path id="Path_141494" data-name="Path 141494" d="M252.016,137.391l.384-30.555s22.823,11.068,23.042,12.239.819,30.222.819,30.222Z" transform="translate(4017.786 3717.011)" fill="#c13838"/>
        <path id="Path_141495" data-name="Path 141495" d="M273.906,118.3s4.012.467,6.016,3.1l.615,30.823-6.89-3.37Z" transform="translate(4006.638 3710.681)" fill="#ef9926"/>
        <path id="Path_141496" data-name="Path 141496" d="M280.474,120.673l.233,10.387-6.945-3.374.131-9.388C276.108,119.036,278.307,119.816,280.474,120.673Z" transform="translate(4006.579 3731.816)" fill="#ef9926" opacity="0.17" style="mix-blend-mode: multiply;isolation: isolate"/>
        <path id="Path_141514" data-name="Path 141514" d="M220.894,166.188l.033-3.665a.727.727,0,0,1,1.454,0l-.033,3.665a.727.727,0,0,1-1.454,0Z" transform="translate(4033.825 3672.769)" fill="#ffc91f" opacity="0.45"/>
        <path id="Path_141515" data-name="Path 141515" d="M220.907,150.992q.028-3,.055-6a.727.727,0,0,1,1.454,0q-.028,3-.055,6a.727.727,0,0,1-1.454,0Z" transform="translate(4033.818 3696.46)" fill="#ffc91f" opacity="0.45"/>
        <path id="Path_141516" data-name="Path 141516" d="M282.315,148.219q-.1-4.322-.079-8.644a.727.727,0,0,1,1.454,0q-.026,4.322.079,8.644a.727.727,0,0,1-1.454,0Z" transform="translate(4002.214 3701.861)" fill="#ffae1f" opacity="0.51"/>
        <path id="Path_141517" data-name="Path 141517" d="M282.252,166.871a18.192,18.192,0,0,1,.087-3.8c.117-.915,1.573-.927,1.454,0a18.193,18.193,0,0,0-.087,3.8c.076.932-1.378.928-1.454,0Z" transform="translate(4002.234 3671.82)" fill="#ffae1f" opacity="0.51"/>
        <path id="Path_141519" data-name="Path 141519" d="M202.3,135.487q-.164-5.181-.024-10.361a.727.727,0,0,1,1.454,0q-.141,5.182.024,10.361c.03.936-1.424.935-1.454,0Z" transform="translate(4043.451 3721.595)" fill="#ef4b4b"/>
        <path id="Path_141520" data-name="Path 141520" d="M202.517,155.017q-.055-1.757-.02-3.515a.727.727,0,0,1,1.454,0q-.035,1.758.02,3.515c.029.936-1.425.935-1.454,0Z" transform="translate(4043.313 3689.282)" fill="#ef4b4b"/>
        <path id="Path_292200" data-name="Path 292200" d="M4280.167,3895.914l21.122-8.8,24.035,11.8-21.054,7.9Z" transform="translate(-31.277 -32.605)" fill="url(#linear-gradient)"/>
        <g id="Group_65092" data-name="Group 65092" transform="translate(4218.706 3862.899)">
          <path id="Path_141497" data-name="Path 141497" d="M195.006,120.972a73.008,73.008,0,0,1,.061-7.371c.253-.873,28.414-12.483,29.029-12.721,0,0-.179,7.881-.189,8.189C223.894,109.445,195.006,120.972,195.006,120.972Z" transform="translate(-194.936 -100.88)" fill="#ef4b4b"/>
          <path id="Path_141498" data-name="Path 141498" d="M254.714,111.5l.189-8.189s24.088,9.787,24.439,10.964c.175.588.719,7.975-.184,7.952Z" transform="translate(-225.743 -103.306)" fill="#d33c3c"/>
          <path id="Path_141499" data-name="Path 141499" d="M223.981,82.953,248.426,93.68s-25.664,9.892-26.887,9.864c-1.207-.028-26.458-8.688-26.458-8.688Z" transform="translate(-195.011 -74.763)" fill="#e54242"/>
          <path id="Path_141500" data-name="Path 141500" d="M219.862,108.013l28.275-10.983.535-8.3s3.736-.4,5.63,2.448l-.479,8.344-28.506,10.309S221.33,109.8,219.862,108.013Z" transform="translate(-207.782 -83.844)" fill="#ffae1f"/>
          <path id="Path_141501" data-name="Path 141501" d="M240.721,109.841s4.007.051,5.986-2.237L222.04,97.336l-.111-8.007s-5.473.6-7.08,3.011l.21,7.871Z" transform="translate(-205.198 -84.15)" fill="#ffc91f"/>
          <path id="Path_141502" data-name="Path 141502" d="M270.011,79.818c-10.241,10.922-19.545-12.676-17.3-14.966C255.763,61.735,280.846,68.263,270.011,79.818ZM253.394,65.44c-.4.544,7.959,20.849,14.436,12.335C275.387,67.84,254.024,64.589,253.394,65.44Z" transform="translate(-224.536 -44.76)" fill="#ffe424"/>
          <path id="Path_141503" data-name="Path 141503" d="M271.266,87.154c-.024-.219-.047-.437-.078-.656a16.728,16.728,0,0,0-1.67-4.923,4.878,4.878,0,0,0-.923-2,1.272,1.272,0,0,0-.421-.5c-3.325-3.617-11.5-5.132-13.936-5.1a14.549,14.549,0,0,0-1.568-.137.947.947,0,0,1,.193-.323C255.8,70.521,279.07,76.434,271.266,87.154Z" transform="translate(-224.689 -53.424)" fill="#ffbb24" opacity="0.18" style="mix-blend-mode: multiply;isolation: isolate"/>
          <path id="Path_141504" data-name="Path 141504" d="M244.467,75.9c1.56.686,1.638,14.177-5.58,10.812C231.251,83.151,242.342,74.964,244.467,75.9Zm-4.907,9.372c4.882,2.921,4.992-8.757,4.685-8.946C243.765,76.029,233.863,81.862,239.559,85.271Z" transform="translate(-216.222 -55.014)" fill="#ffe424"/>
          <path id="Path_141505" data-name="Path 141505" d="M238.084,88.286c-.032-.112-.063-.225-.091-.339a8.892,8.892,0,0,1-.15-2.761,2.6,2.6,0,0,1,.061-1.169.669.669,0,0,1,.109-.331c.926-2.444,4.659-4.809,5.87-5.275a7.65,7.65,0,0,1,.747-.378.5.5,0,0,0-.159-.121C242.428,77.014,232.109,84.538,238.084,88.286Z" transform="translate(-216.225 -57.027)" fill="#ffbb24" opacity="0.18" style="mix-blend-mode: multiply;isolation: isolate"/>
          <path id="Path_141506" data-name="Path 141506" d="M232.122,64.755c2.243,2.289-7.061,25.887-17.3,14.965C203.985,68.166,229.068,61.638,232.122,64.755ZM217,77.678c6.477,8.514,14.839-11.792,14.436-12.335C230.806,64.492,209.443,67.743,217,77.678Z" transform="translate(-203.792 -44.615)" fill="#ffe424"/>
          <path id="Path_141507" data-name="Path 141507" d="M213.724,87.056c.024-.219.047-.437.078-.656a16.729,16.729,0,0,1,1.67-4.923,4.884,4.884,0,0,1,.923-2,1.276,1.276,0,0,1,.421-.5c3.325-3.617,11.5-5.132,13.936-5.1a14.547,14.547,0,0,1,1.569-.137.95.95,0,0,0-.193-.323C229.193,70.424,205.921,76.336,213.724,87.056Z" transform="translate(-203.799 -53.28)" fill="#ffbb24" opacity="0.18" style="mix-blend-mode: multiply;isolation: isolate"/>
          <path id="Path_141508" data-name="Path 141508" d="M260.092,91.882c-4.383,3.613-6.739-5.718-5.784-6.47C255.608,84.387,264.729,88.06,260.092,91.882Zm-5.555-6.216c-.178.185,1.984,8.231,4.834,5.342C262.7,87.636,254.816,85.377,254.537,85.666Z" transform="translate(-225.426 -65.038)" fill="#ffe424"/>
          <path id="Path_141509" data-name="Path 141509" d="M260.7,94.066c0-.083,0-.167,0-.251a6.332,6.332,0,0,0-.39-1.933,1.857,1.857,0,0,0-.25-.8.484.484,0,0,0-.134-.209c-1.076-1.522-4.076-2.489-5-2.594a5.5,5.5,0,0,0-.584-.127.353.353,0,0,1,.088-.112C255.688,87.057,264.158,90.411,260.7,94.066Z" transform="translate(-225.556 -67.668)" fill="#ffbb24" opacity="0.18" style="mix-blend-mode: multiply;isolation: isolate"/>
          <path id="Path_141510" data-name="Path 141510" d="M222.81,103.366a33.28,33.28,0,0,0,5.658,2.127.728.728,0,0,1-.387,1.4,35.392,35.392,0,0,1-6.005-2.273c-.842-.408-.105-1.662.734-1.255Z" transform="translate(-208.732 -87.998)" fill="#ffe424" opacity="0.48"/>
          <path id="Path_141512" data-name="Path 141512" d="M268.221,106.682l6.539-2.191c.889-.3,1.27,1.106.386,1.4l-6.539,2.191c-.889.3-1.271-1.106-.386-1.4Z" transform="translate(-232.445 -89.764)" fill="#ffc91f" opacity="0.45"/>
          <path id="Path_141518" data-name="Path 141518" d="M204.826,95.744q2.845.859,5.633,1.883c.871.32.494,1.726-.387,1.4q-2.789-1.024-5.632-1.883a.728.728,0,0,1,.386-1.4Z" transform="translate(-199.572 -76.48)" fill="#ef4b4b"/>
        </g>
      </g>
      <path id="Path_141285" data-name="Path 141285" d="M316.98,244.09c-6.363-6.111-39.9-7.279-47.755,1.431s-.73,32.93-1.2,51.481-3.734,19.253.351,20.7,26.241,6.4,44.621,3.01,15.238-7.259,15.238-11.292S326.719,253.446,316.98,244.09Z" transform="translate(4309.264 3646.533)" fill="#db5225"/>
      <path id="Path_141286" data-name="Path 141286" d="M307.74,241.666c2.631,2.122-3.465,8.126-11.891,7.771s-4.947-4.809-3.379-5.973S303.945,238.606,307.74,241.666Z" transform="translate(4299.016 3646.121)" fill="#658ee5"/>
      <path id="Path_141287" data-name="Path 141287" d="M258.175,161.822s-5.665-3.988-3.571-13.709,8.867-13.086,8.867-13.086,4.187.249,1.108,9.1S258.175,161.822,258.175,161.822Z" transform="translate(4311.419 3681.354)"/>
      <g id="Group_60344" data-name="Group 60344" transform="translate(4590.082 3875.362)">
        <path id="Path_141288" data-name="Path 141288" d="M305.013,239.035a14.957,14.957,0,0,1-6.71,2.781c-5.144.936-4.826-1.579-4.826-1.579l-.843-6.071-1.229-8.845,12.116-1.719,1.029,7.447.946,6.8A1.286,1.286,0,0,1,305.013,239.035Z" transform="translate(-291.406 -223.602)" fill="#e29a8f"/>
        <path id="Path_141289" data-name="Path 141289" d="M304.551,231.049a24.118,24.118,0,0,1-3.977,1.67,36.3,36.3,0,0,1-5.3,1.215,13.968,13.968,0,0,1-2.644.231l-1.229-8.845,12.116-1.719Z" transform="translate(-291.406 -223.602)" fill="#bc4a60" opacity="0.4"/>
      </g>
      <path id="Path_141290" data-name="Path 141290" d="M255.97,165.938c-1.74,18.742,5.285,34.831,27.239,32.924s26.75-18.973,29.973-36.285-7.7-33.832-26.092-33.9C265.816,128.6,257.771,141.541,255.97,165.938Z" transform="translate(4310.88 3683.476)" fill="#e29a8f"/>
      <path id="Path_141291" data-name="Path 141291" d="M302.163,185.8s-.783,8.718-7.825,12.63-13.853-2.029-23.425-1.883c-8.983.137-9.851,2.722-11.923.765s-1.933-3.632-3.728-2.654-3.728,6.427-1.1,14.251,12.7,10.2,25.821,9.222,22.841-7.122,25.588-13.537c3.23-7.541-1.405-6.215,1.628-17.072C308.219,183.856,302.715,182.59,302.163,185.8Z" transform="translate(4311.852 3665.003)"/>
      <path id="Path_141292" data-name="Path 141292" d="M306.268,163.527c3.25,2.192,12.98.419,15.051-6.986s3.866-24.172-9.665-30.32-36.314-3.074-36.314-3.074,4.557-6.147,1.933-7.405-7.18,4.471-7.18,4.471,2.623-6.148-.553-6.427-12.013,15.23-5.938,20.26,13.67-.139,13.67-.139,2.209,4.052,8.423,5.729a18.135,18.135,0,0,0,11.874-1.258,15.222,15.222,0,0,0,1.1,11.6c3.176,6.148,6.489,8.1,6.489,8.1S303.369,161.571,306.268,163.527Z" transform="translate(4308.896 3688.452)"/>
      <g id="Group_60345" data-name="Group 60345" transform="translate(4617.817 3847.073)">
        <path id="Path_141293" data-name="Path 141293" d="M334,195.578c.906,2.65,5.184,3.6,8.64,1.219s5.969-9.592,3.4-13.512-8.673-2.177-11,2.49A14.332,14.332,0,0,0,334,195.578Z" transform="translate(-333.555 -181.119)" fill="#e29a8f"/>
        <path id="Path_141294" data-name="Path 141294" d="M345.8,188.312a.264.264,0,0,0-.113-.436,3.459,3.459,0,0,0-2.41.73,8.383,8.383,0,0,0-2.017,1.705,7.6,7.6,0,0,0-1.89,4.961c.007.338.529.437.6.083a9.422,9.422,0,0,1,2.01-4.393c.147-.169.314-.314.474-.468.064.082.14.157.206.234.117.138.239.271.355.411a7.334,7.334,0,0,1,.629.9c.386.639.62,1.362,1.054,1.971.08.113.31.13.336-.045a3.6,3.6,0,0,0-.67-2.353,7.187,7.187,0,0,0-.745-1,4.037,4.037,0,0,0-.423-.427c-.07-.059-.139-.118-.212-.171a7.552,7.552,0,0,1,.778-.565A10.506,10.506,0,0,0,345.8,188.312Z" transform="translate(-335.544 -183.361)" fill="#bc4a60" opacity="0.5"/>
      </g>
      <g id="Group_60348" data-name="Group 60348" transform="translate(4570.715 3835.399)">
        <g id="Group_60346" data-name="Group 60346" transform="translate(6.634 28.175)">
          <path id="Path_141295" data-name="Path 141295" d="M4.856,1.036C7.211,1.168,8.785-1.1,10.914.69,12.609,2.113,9.7,6.1,5.371,6.06S-.8,2.577.322,1.427,2.06.88,4.856,1.036Z" transform="translate(11.404 6.06) rotate(180)" fill="#bc4a60"/>
          <path id="Path_141296" data-name="Path 141296" d="M283.653,209.518a8.664,8.664,0,0,0-2.37.75,6.548,6.548,0,0,0-2.028,1.547,5.363,5.363,0,0,0-.843,1.219,7.473,7.473,0,0,0,1.188.11,6.334,6.334,0,0,0,5.841-3.4A2.306,2.306,0,0,0,283.653,209.518Z" transform="translate(-274.23 -207.085)" fill="#fc6b7f"/>
        </g>
        <g id="Group_60347" data-name="Group 60347" transform="translate(0.493 14.221)">
          <path id="Path_141297" data-name="Path 141297" d="M304.4,191.3a11.967,11.967,0,0,0-1.023-.979,9.074,9.074,0,0,0-2.466-1.582,4.52,4.52,0,0,0-2.813-.307,1.759,1.759,0,0,0-1.381,2.012c.068.32.526.228.543-.075.049-.939,1.113-1.149,1.854-1.093a5.161,5.161,0,0,1,2.139.714,9.945,9.945,0,0,1,1.814,1.374,5.433,5.433,0,0,0,1.809,1.452.259.259,0,0,0,.313-.317A2.811,2.811,0,0,0,304.4,191.3Z" transform="translate(-274.336 -186.069)" fill="#2c1f30"/>
          <path id="Path_141298" data-name="Path 141298" d="M268.8,188.3a7.141,7.141,0,0,0-2.586-2.851,2.655,2.655,0,0,0-2.553-.287,1.622,1.622,0,0,0-.849,1.934.273.273,0,0,0,.526-.146,1.088,1.088,0,0,1,1.006-1.16,2.764,2.764,0,0,1,1.906.766,6.179,6.179,0,0,1,1.311,1.431,7.775,7.775,0,0,1,.483.864,2.032,2.032,0,0,0,.587.843.275.275,0,0,0,.4-.165A1.652,1.652,0,0,0,268.8,188.3Z" transform="translate(-262.724 -184.943)" fill="#2c1f30"/>
        </g>
        <path id="Path_141299" data-name="Path 141299" d="M298.69,168.44a.526.526,0,0,0,.6.66c.107-.016.211-.021.317-.031a.518.518,0,0,0-.037.772c-.073.013-.145.023-.218.039a.506.506,0,0,0,.013.968.5.5,0,0,0,.2.822c2.818.406,5.716,1.225,7.669,3.457a.337.337,0,0,0,.532-.073.493.493,0,0,0,.173-.656c-.078-.129-.162-.254-.247-.378.012-.011.028-.013.039-.026.917-1.134-.2-2.248-1-3.036a14.434,14.434,0,0,0-3.042-2.37,9.215,9.215,0,0,0-3.7-1.188c-.481-.042-1.31-.155-1.477.477A.522.522,0,0,0,298.69,168.44Z" transform="translate(-274.46 -164.849)"/>
        <path id="Path_141300" data-name="Path 141300" d="M270.23,164.082c-.144-.61-.859-.5-1.275-.461a7.377,7.377,0,0,0-3.2,1.147,12.771,12.771,0,0,0-2.626,2.287c-.686.76-1.652,1.836-.86,2.931.009.012.024.014.034.025-.072.12-.145.24-.212.365a.508.508,0,0,0,.149.633.274.274,0,0,0,.459.071c1.686-2.154,4.187-2.945,6.619-3.337.307-.05.392-.581.172-.794.385-.1.446-.828.01-.934-.062-.015-.125-.025-.187-.038a.542.542,0,0,0-.032-.746c.091.01.181.015.273.031a.489.489,0,0,0,.516-.637A.537.537,0,0,0,270.23,164.082Z" transform="translate(-261.975 -163.587)"/>
        <path id="Path_141301" data-name="Path 141301" d="M271.126,192.695c.807-2.937,1.654-5.862,2.485-8.792.411-1.451.82-2.9,1.238-4.351a21.188,21.188,0,0,1,1.421-4.289.293.293,0,0,1,.543.148,20.793,20.793,0,0,1-1.025,4.312q-.625,2.219-1.263,4.435c-.778,2.724-1.546,5.451-2.34,8.17a35.436,35.436,0,0,0,5.7-.755.314.314,0,0,1,.165.605,21.044,21.044,0,0,1-6.487,1.1A.464.464,0,0,1,271.126,192.695Z" transform="translate(-265.099 -167.441)" fill="#bc4a60" opacity="0.5"/>
      </g>
      <path id="Path_141285-2" data-name="Path 141285" d="M316.98,244.09c-6.363-6.111-39.9-7.279-47.755,1.431s-.73,32.93-1.2,51.481-3.734,19.253.351,20.7,26.241,6.4,44.621,3.01,15.238-7.259,15.238-11.292S326.719,253.446,316.98,244.09Z" transform="translate(4309.264 3646.533)" fill="#db5225"/>
      <path id="Path_141286-2" data-name="Path 141286" d="M307.74,241.666c2.631,2.122-3.465,8.126-11.891,7.771s-4.947-4.809-3.379-5.973S303.945,238.606,307.74,241.666Z" transform="translate(4299.016 3646.121)" fill="#658ee5"/>
      <path id="Path_141287-2" data-name="Path 141287" d="M258.175,161.822s-5.665-3.988-3.571-13.709,8.867-13.086,8.867-13.086,4.187.249,1.108,9.1S258.175,161.822,258.175,161.822Z" transform="translate(4311.419 3681.354)"/>
      <g id="Group_60344-2" data-name="Group 60344" transform="translate(4590.082 3875.362)">
        <path id="Path_141288-2" data-name="Path 141288" d="M305.013,239.035a14.957,14.957,0,0,1-6.71,2.781c-5.144.936-4.826-1.579-4.826-1.579l-.843-6.071-1.229-8.845,12.116-1.719,1.029,7.447.946,6.8A1.286,1.286,0,0,1,305.013,239.035Z" transform="translate(-291.406 -223.602)" fill="#e29a8f"/>
        <path id="Path_141289-2" data-name="Path 141289" d="M304.551,231.049a24.118,24.118,0,0,1-3.977,1.67,36.3,36.3,0,0,1-5.3,1.215,13.968,13.968,0,0,1-2.644.231l-1.229-8.845,12.116-1.719Z" transform="translate(-291.406 -223.602)" fill="#bc4a60" opacity="0.4"/>
      </g>
      <path id="Path_141290-2" data-name="Path 141290" d="M255.97,165.938c-1.74,18.742,5.285,34.831,27.239,32.924s26.75-18.973,29.973-36.285-7.7-33.832-26.092-33.9C265.816,128.6,257.771,141.541,255.97,165.938Z" transform="translate(4310.88 3683.476)" fill="#e29a8f"/>
      <path id="Path_141291-2" data-name="Path 141291" d="M302.163,185.8s-.783,8.718-7.825,12.63-13.853-2.029-23.425-1.883c-8.983.137-9.851,2.722-11.923.765s-1.933-3.632-3.728-2.654-3.728,6.427-1.1,14.251,12.7,10.2,25.821,9.222,22.841-7.122,25.588-13.537c3.23-7.541-1.405-6.215,1.628-17.072C308.219,183.856,302.715,182.59,302.163,185.8Z" transform="translate(4311.852 3665.003)"/>
      <path id="Path_141292-2" data-name="Path 141292" d="M306.268,163.527c3.25,2.192,12.98.419,15.051-6.986s3.866-24.172-9.665-30.32-36.314-3.074-36.314-3.074,4.557-6.147,1.933-7.405-7.18,4.471-7.18,4.471,2.623-6.148-.553-6.427-12.013,15.23-5.938,20.26,13.67-.139,13.67-.139,2.209,4.052,8.423,5.729a18.135,18.135,0,0,0,11.874-1.258,15.222,15.222,0,0,0,1.1,11.6c3.176,6.148,6.489,8.1,6.489,8.1S303.369,161.571,306.268,163.527Z" transform="translate(4308.896 3688.452)"/>
      <g id="Group_60345-2" data-name="Group 60345" transform="translate(4617.817 3847.073)">
        <path id="Path_141293-2" data-name="Path 141293" d="M334,195.578c.906,2.65,5.184,3.6,8.64,1.219s5.969-9.592,3.4-13.512-8.673-2.177-11,2.49A14.332,14.332,0,0,0,334,195.578Z" transform="translate(-333.555 -181.119)" fill="#e29a8f"/>
        <path id="Path_141294-2" data-name="Path 141294" d="M345.8,188.312a.264.264,0,0,0-.113-.436,3.459,3.459,0,0,0-2.41.73,8.383,8.383,0,0,0-2.017,1.705,7.6,7.6,0,0,0-1.89,4.961c.007.338.529.437.6.083a9.422,9.422,0,0,1,2.01-4.393c.147-.169.314-.314.474-.468.064.082.14.157.206.234.117.138.239.271.355.411a7.334,7.334,0,0,1,.629.9c.386.639.62,1.362,1.054,1.971.08.113.31.13.336-.045a3.6,3.6,0,0,0-.67-2.353,7.187,7.187,0,0,0-.745-1,4.037,4.037,0,0,0-.423-.427c-.07-.059-.139-.118-.212-.171a7.552,7.552,0,0,1,.778-.565A10.506,10.506,0,0,0,345.8,188.312Z" transform="translate(-335.544 -183.361)" fill="#bc4a60" opacity="0.5"/>
      </g>
      <g id="Group_60348-2" data-name="Group 60348" transform="translate(4570.715 3835.399)">
        <g id="Group_60346-2" data-name="Group 60346" transform="translate(6.634 28.175)">
          <path id="Path_141295-2" data-name="Path 141295" d="M12.3,2.625c5.968.334,9.957-5.4,15.352-.877,4.3,3.608-3.069,13.705-14.046,13.609S-2.026,6.53.815,3.617,5.221,2.23,12.3,2.625Z" transform="translate(22.802 16.315) rotate(180)" fill="#bc4a60"/>
          <path id="Path_141296-2" data-name="Path 141296" d="M293.821,209.619a24.713,24.713,0,0,0-6.967,2.3,19.367,19.367,0,0,0-5.963,4.747,16.492,16.492,0,0,0-2.478,3.741,21.075,21.075,0,0,0,3.492.339c8.6.08,15.018-4.266,16.922-9.223A6.783,6.783,0,0,0,293.821,209.619Z" transform="translate(-206.682 -277.747) rotate(16)" fill="#fc6b7f"/>
        </g>
        <g id="Group_60347-2" data-name="Group 60347" transform="translate(0.493 14.221)">
          <path id="Path_141297-2" data-name="Path 141297" d="M304.4,191.3a11.967,11.967,0,0,0-1.023-.979,9.074,9.074,0,0,0-2.466-1.582,4.52,4.52,0,0,0-2.813-.307,1.759,1.759,0,0,0-1.381,2.012c.068.32.526.228.543-.075.049-.939,1.113-1.149,1.854-1.093a5.161,5.161,0,0,1,2.139.714,9.945,9.945,0,0,1,1.814,1.374,5.433,5.433,0,0,0,1.809,1.452.259.259,0,0,0,.313-.317A2.811,2.811,0,0,0,304.4,191.3Z" transform="translate(-274.336 -186.069)" fill="#2c1f30"/>
          <path id="Path_141298-2" data-name="Path 141298" d="M268.8,188.3a7.141,7.141,0,0,0-2.586-2.851,2.655,2.655,0,0,0-2.553-.287,1.622,1.622,0,0,0-.849,1.934.273.273,0,0,0,.526-.146,1.088,1.088,0,0,1,1.006-1.16,2.764,2.764,0,0,1,1.906.766,6.179,6.179,0,0,1,1.311,1.431,7.775,7.775,0,0,1,.483.864,2.032,2.032,0,0,0,.587.843.275.275,0,0,0,.4-.165A1.652,1.652,0,0,0,268.8,188.3Z" transform="translate(-262.724 -184.943)" fill="#2c1f30"/>
          <path id="Path_292181" data-name="Path 292181" d="M268.8,188.3a7.141,7.141,0,0,0-2.586-2.851,2.655,2.655,0,0,0-2.553-.287,1.622,1.622,0,0,0-.849,1.934.273.273,0,0,0,.526-.146,1.088,1.088,0,0,1,1.006-1.16,2.764,2.764,0,0,1,1.906.766,6.179,6.179,0,0,1,1.311,1.431,7.775,7.775,0,0,1,.483.864,2.032,2.032,0,0,0,.587.843.275.275,0,0,0,.4-.165A1.652,1.652,0,0,0,268.8,188.3Z" transform="translate(-262.724 -184.943)" fill="#2c1f30"/>
        </g>
        <path id="Path_141299-2" data-name="Path 141299" d="M298.69,168.44a.526.526,0,0,0,.6.66c.107-.016.211-.021.317-.031a.518.518,0,0,0-.037.772c-.073.013-.145.023-.218.039a.506.506,0,0,0,.013.968.5.5,0,0,0,.2.822c2.818.406,5.716,1.225,7.669,3.457a.337.337,0,0,0,.532-.073.493.493,0,0,0,.173-.656c-.078-.129-.162-.254-.247-.378.012-.011.028-.013.039-.026.917-1.134-.2-2.248-1-3.036a14.434,14.434,0,0,0-3.042-2.37,9.215,9.215,0,0,0-3.7-1.188c-.481-.042-1.31-.155-1.477.477A.522.522,0,0,0,298.69,168.44Z" transform="translate(-274.46 -164.849)"/>
        <path id="Path_141300-2" data-name="Path 141300" d="M270.23,164.082c-.144-.61-.859-.5-1.275-.461a7.377,7.377,0,0,0-3.2,1.147,12.771,12.771,0,0,0-2.626,2.287c-.686.76-1.652,1.836-.86,2.931.009.012.024.014.034.025-.072.12-.145.24-.212.365a.508.508,0,0,0,.149.633.274.274,0,0,0,.459.071c1.686-2.154,4.187-2.945,6.619-3.337.307-.05.392-.581.172-.794.385-.1.446-.828.01-.934-.062-.015-.125-.025-.187-.038a.542.542,0,0,0-.032-.746c.091.01.181.015.273.031a.489.489,0,0,0,.516-.637A.537.537,0,0,0,270.23,164.082Z" transform="translate(-261.975 -163.587)"/>
        <path id="Path_141301-2" data-name="Path 141301" d="M271.126,192.695c.807-2.937,1.654-5.862,2.485-8.792.411-1.451.82-2.9,1.238-4.351a21.188,21.188,0,0,1,1.421-4.289.293.293,0,0,1,.543.148,20.793,20.793,0,0,1-1.025,4.312q-.625,2.219-1.263,4.435c-.778,2.724-1.546,5.451-2.34,8.17a35.436,35.436,0,0,0,5.7-.755.314.314,0,0,1,.165.605,21.044,21.044,0,0,1-6.487,1.1A.464.464,0,0,1,271.126,192.695Z" transform="translate(-265.099 -167.441)" fill="#bc4a60" opacity="0.5"/>
      </g>
      <g id="Group_65034" data-name="Group 65034" transform="matrix(0.899, 0.438, -0.438, 0.899, 3044.841, 6131.143)">
        <g id="Group_65033" data-name="Group 65033">
          <path id="Path_141302" data-name="Path 141302" d="M40.536,0C47.358.068,50.884,6.021,52.56,18.618,53.892,28.63,62.991,69.494,51.14,75.4,42.814,79.551,3.817,40.5,0,35.177c2.156-1.6,4.7-2.536,8-7.706,3.334,2.591,30.747,28.5,31.9,25.649,1.394-3.454-6.07-23.06-6.307-34.59C33.426,10.41,33.715-.069,40.536,0Z" transform="translate(398.788 -2695.133) rotate(-9)" fill="#e29a8f"/>
          <path id="Path_141303" data-name="Path 141303" d="M5.936.677C3.956,1.755-1.231,11.3.268,25.323A218.751,218.751,0,0,0,3.84,48.413s9.255,4.208,23.034-1.231c0,0-2.168-18.752-5.9-28.056l-3.729-9.3S12.771-3.048,5.936.677Z" transform="translate(429.578 -2705.428) rotate(-9)" fill="#e58421"/>
          <path id="Path_141304" data-name="Path 141304" d="M12.97,22.7c-3.292-2.908-7.908-6.712-10.6-8.835-2.853-2.251-2.652-3.387.173-2.377,2.506.9,4.631,2.282,4.953,1.916.159-.18-1.517-1.321-3.866-2.986C1.216,8.709-.41,7.321.091,6.219s7.32,2.888,9.058,4.225-4.47-4.58-6.621-6.581C.116,1.62,1.26.19,4.8,2.519s6.226,4.926,7.292,5.3c-.335-.912-1.005-1.853-4.029-5.27C5.815.013,7.068-.926,9.842,1.1c3.33,2.433,6.936,7.411,8.179,6.995.7-.72-.322-1.932-.515-5.547s2.162.37,3.6,3.773c1.485,3.521,3.993,7.012,5.082,9.939,1.465,3.938,1.733,6.941-.9,9.175S19.625,28.579,12.97,22.7Z" transform="translate(384.09 -2681.958) rotate(-9)" fill="#e29a8f"/>
        </g>
        <g id="Group_60350" data-name="Group 60350" transform="translate(407.793 -2664.945) rotate(-9)">
          <path id="Path_141309" data-name="Path 141309" d="M2.529.05,10.944,0a2.477,2.477,0,0,1,2.5,2.5h0a2.549,2.549,0,0,1-2.529,2.527L2.5,5.074A2.477,2.477,0,0,1,0,2.577,2.549,2.549,0,0,1,2.529.05Z" transform="matrix(-0.688, 0.726, -0.726, -0.688, 12.929, 3.49)" fill="#b26167"/>
          <path id="Path_141305" data-name="Path 141305" d="M1.372,7.675a4.357,4.357,0,0,0,6.212-.169,4.484,4.484,0,0,0-.167-6.286,4.357,4.357,0,0,0-6.212.17A4.484,4.484,0,0,0,1.372,7.675Z" transform="translate(2.07 2.177)" fill="#ffd0be"/>
        </g>
      </g>
    </g>
  </g>
</svg>
