<svg xmlns="http://www.w3.org/2000/svg" width="330" height="64.815" viewBox="0 0 330 64.815">
  <g id="Group_87500" data-name="Group 87500" transform="translate(-23 -524.186)">
    <rect id="Rectangle_19709" data-name="Rectangle 19709" width="330" height="55" rx="13" transform="translate(23 534)" fill="#161842"/>
    <g id="Group_87499" data-name="Group 87499">
      <g id="Group_87498" data-name="Group 87498">
        <text id="Welcome_back" data-name="Welcome back" transform="translate(162 561)" fill="#60dcbb" font-size="20" font-family="Avenir-Black, Avenir" font-weight="800"><tspan x="-44.65" y="0">Play Quiz</tspan></text>
        <g id="Group_63316" data-name="Group 63316" transform="translate(-6740 -11888)">
          <text id="Welcome_back-2" data-name="Welcome back" transform="translate(6966 12467)" fill="#fff" font-size="10" font-family="Avenir-Medium, Avenir" font-weight="500"><tspan x="-108.525" y="0">Participate in all Challenges &amp; wins lots of Coins</tspan></text>
        </g>
      </g>
      <g id="Quiz" transform="translate(40.294 521.661)">
        <path id="Path_184553" data-name="Path 184553" d="M51.2,28.04l-5.443,4.672a2.281,2.281,0,0,1-3.77-1.733V25.384H40.8A4.862,4.862,0,0,1,35.95,20.53V12.989a19.852,19.852,0,0,0-17.838,2.6A20.38,20.38,0,0,0,8.564,33.107a4.832,4.832,0,0,1-.091.791,11.048,11.048,0,0,1-2.818,5.463c-.436.466-.892.892-1.389,1.358-.294.274-.6.547-.892.841a2.277,2.277,0,0,0-.821,1.926c.182.932,1.166,1.338,1.5,1.48s.679.253,1.024.365c.385.132.78.264,1.166.436a.641.641,0,0,1,.355.294.818.818,0,0,1-.111.578,2.1,2.1,0,0,0,.486,2.878,1.211,1.211,0,0,0-.405,1.054,1.965,1.965,0,0,0,.912,1.47c.132.112.284.2.426.3s.284.182.436.294a1.452,1.452,0,0,1-.152.223,3.51,3.51,0,0,0-.8,2.412,2.864,2.864,0,0,0,2.878,2.99c.476.03.973.071,1.449.132a6.835,6.835,0,0,1,3.193,1.186,5.451,5.451,0,0,1,2.128,3.983c.091.628.132,1.267.182,1.946.03.334.051.669.081,1.014a.768.768,0,0,0,.76.689H40.054a.766.766,0,0,0,.76-.76v-.3a33.587,33.587,0,0,1,1.307-11.584,18.779,18.779,0,0,1,4.348-7.622C51.294,41.864,53.473,34.952,51.2,28.04ZM29.7,45.259a1.8,1.8,0,1,1,0-2.534A1.786,1.786,0,0,1,29.7,45.259ZM32.4,34.972c-1.48,1.176-2.6,2.149-2.6,3.9A1.266,1.266,0,0,1,28.47,40.05a1.237,1.237,0,0,1-1.328-1.176c0-2.625,1.368-4.054,3.355-5.645,1.095-.872,2.23-1.753,2.23-3.081q0-3.3-4.318-3.294a7.541,7.541,0,0,0-3.862.993,1.223,1.223,0,1,1-1.206-2.108,9.18,9.18,0,0,1,5.311-1.449c3.821,0,6.791,1.956,6.791,5.706C35.443,32.317,34.2,33.563,32.4,34.972Z" transform="translate(0 0.127)" fill="#f8ae65"/>
        <path id="Path_184554" data-name="Path 184554" d="M63.538,2.525h-23.2A3.344,3.344,0,0,0,37,5.859v14.8a3.344,3.344,0,0,0,3.334,3.334h2.706v7.115a.77.77,0,0,0,.446.7.785.785,0,0,0,.811-.122l8.97-7.693H63.538a3.344,3.344,0,0,0,3.334-3.334V5.859A3.344,3.344,0,0,0,63.538,2.525ZM60.7,17.7H43.18a.38.38,0,0,1,0-.76H60.7a.38.38,0,1,1,0,.76Zm0-4.059H43.18a.38.38,0,0,1,0-.76H60.7a.38.38,0,1,1,0,.76Zm0-4.059H43.18a.38.38,0,0,1,0-.76H60.7a.38.38,0,1,1,0,.76Z" transform="translate(0.466)" fill="#ff9650"/>
      </g>
    </g>
  </g>
</svg>
