<svg width="54" height="60" viewBox="0 0 54 60" fill="none" xmlns="http://www.w3.org/2000/svg">
<path d="M24.4003 2.51993L2 11.7487V34.4957C2 46.6851 27 58.3258 27 58.3258C27 58.3258 52 46.6851 52 34.4957V11.7487L29.5996 2.51993C28.7759 2.17671 27.8924 2 27 2C26.1076 2 25.2241 2.17671 24.4003 2.51993Z" fill="#FFC708" stroke="#F65008" stroke-width="3" stroke-linecap="round" stroke-linejoin="round"/>
<path d="M23.0703 26.7497C23.0707 26.0393 23.2617 25.3421 23.6235 24.7307C23.9852 24.1194 24.5045 23.6163 25.127 23.2741C25.7495 22.9319 26.4524 22.763 27.1624 22.7851C27.8724 22.8072 28.5635 23.0195 29.1635 23.3998C29.7635 23.7801 30.2504 24.3145 30.5734 24.9471C30.8965 25.5798 31.0437 26.2876 30.9999 26.9966C30.9561 27.7056 30.7228 28.3899 30.3243 28.9779C29.9258 29.566 29.3768 30.0364 28.7346 30.3399L30.651 37.5706H23.574L25.4078 30.3683C24.7112 30.0541 24.1202 29.5455 23.7055 28.9036C23.2909 28.2617 23.0703 27.5138 23.0703 26.7497Z" stroke="#530C54" stroke-width="2" stroke-linecap="round" stroke-linejoin="round"/>
</svg>
