<svg xmlns="http://www.w3.org/2000/svg" width="24.464" height="30" viewBox="0 0 24.464 30">
  <g id="more_-_privacy_policy" data-name="more - privacy policy" transform="translate(1386.024 1427)">
    <path id="Path_293656" data-name="Path 293656" d="M149.2,36.871,147.032,38.1q-1.723.976-3.443,1.955l-.785.446h.617c-.5-.29-1-.584-1.5-.874l-2.872-1.671-1.8-1.051c-.2-.116-.4-.241-.6-.37-.177-.119-.348-.244-.519-.373-.055-.04.031.024.034.027a.621.621,0,0,1-.07-.055l-.125-.1c-.083-.067-.162-.134-.241-.2a10.594,10.594,0,0,1-.917-.9c-.141-.156-.275-.315-.406-.477-.018-.021-.11-.141-.064-.079s-.049-.067-.061-.079c-.061-.082-.125-.168-.183-.254a10.662,10.662,0,0,1-.669-1.085c-.1-.183-.192-.37-.278-.559-.043-.095-.086-.189-.128-.287-.027-.064.018.04.018.043a.665.665,0,0,1-.034-.082c-.018-.049-.04-.1-.058-.147a10.487,10.487,0,0,1-.391-1.219c-.052-.2-.1-.409-.137-.617q-.032-.156-.055-.312c-.006-.046-.015-.089-.021-.134,0-.031-.012-.061-.012-.089,0,.04.012.107,0,.027a16.413,16.413,0,0,1-.082-2.013V16.786l-.611.611a17.345,17.345,0,0,0,5.939-1.045,18.075,18.075,0,0,0,4.949-2.78l1.158-.907h-.865a31.824,31.824,0,0,0,2.97,2.181,17.419,17.419,0,0,0,5.643,2.209,17.737,17.737,0,0,0,3.434.342l-.611-.611V28.169a11.373,11.373,0,0,1-.082,1.329c-.018.156.021-.137,0,.018,0,.031-.009.061-.012.089-.012.073-.024.15-.037.223-.024.147-.055.3-.086.44q-.092.426-.22.843c-.086.278-.18.55-.287.819-.012.034-.027.07-.043.1-.021.049-.073.1,0,0a1.217,1.217,0,0,0-.089.2c-.061.134-.125.269-.192.4a10.521,10.521,0,0,1-.9,1.476c-.043.061-.089.119-.131.177-.067.089,0,0,.015-.018-.021.031-.046.058-.07.089-.1.122-.2.241-.3.357-.186.214-.382.419-.584.617s-.437.409-.669.6c-.058.049-.116.095-.177.141-.024.018-.089.073.015-.012-.031.024-.061.046-.089.067-.128.095-.257.186-.388.278-.238.168-.483.321-.736.464a.612.612,0,1,0,.617,1.057,11.34,11.34,0,0,0,4.83-5.5,11.142,11.142,0,0,0,.816-3.556c.024-.367.021-.736.021-1.106V19.511c0-.892.015-1.787,0-2.683v-.04a.621.621,0,0,0-.611-.611c-.483,0-.962-.021-1.442-.061-.238-.021-.477-.046-.715-.076-.027,0-.119-.009.009,0a.662.662,0,0,1-.076-.012L152.467,16c-.125-.018-.254-.04-.379-.064a16.888,16.888,0,0,1-2.811-.755c-.232-.086-.461-.174-.69-.269-.024-.009-.107-.046.006,0-.024-.009-.046-.021-.07-.031-.055-.024-.11-.049-.165-.07-.116-.052-.232-.1-.348-.159q-.66-.312-1.292-.678c-.422-.244-.834-.51-1.234-.791l-.293-.211-.144-.107c-.031-.021-.177-.137-.083-.061-.046-.037-.092-.073-.141-.11l-1.14-.892a.639.639,0,0,0-.865,0q-.513.4-1.027.8l-.186.147a.439.439,0,0,1-.046.034c-.073.058.073-.055,0,0l-.061.046c-.055.043-.11.082-.165.125q-.591.435-1.216.822c-.422.26-.855.5-1.3.721-.214.107-.431.208-.648.306l-.165.073c-.031.012-.061.027-.095.04.006,0,.095-.04.027-.012-.119.049-.235.1-.354.144a16.725,16.725,0,0,1-2.817.825c-.269.055-.538.1-.807.141a.661.661,0,0,0-.076.012l-.07.009c.076-.012-.009,0-.021,0-.043.006-.086.012-.128.015l-.409.046c-.538.052-1.082.079-1.622.079a.621.621,0,0,0-.611.611V27.018a20.643,20.643,0,0,0,.128,2.915,11.194,11.194,0,0,0,3.016,6.12,11.351,11.351,0,0,0,2.438,1.91c.29.171.584.339.874.51l3.654,2.126,1.387.807c.089.052.177.11.269.156a.716.716,0,0,0,.721-.049l2.954-1.677,3.162-1.8.177-.1a.62.62,0,0,0,.22-.837.6.6,0,0,0-.828-.229Z" transform="translate(-1517.047 -1438.637)" fill="#b72c74"/>
    <path id="Path_293657" data-name="Path 293657" d="M301.382,196.178c0,.061,0,.123-.006.184,0,.031-.006.061-.009.089.012-.089.012-.1,0-.031a2.522,2.522,0,0,1-.071.3.507.507,0,0,1-.058.166c.009-.021.018-.043.028-.068-.012.028-.025.052-.037.08a2.141,2.141,0,0,1-.16.282.586.586,0,0,1-.086.123c.123-.11-.012.012-.04.04a2.3,2.3,0,0,1-.215.209l-.064.055c.068-.052.077-.058.021-.018l-.107.074a2.91,2.91,0,0,1-.3.166.626.626,0,0,0-.282.693q.258,1.726.512,3.454l.074.491.592-.776h-3.148l.592.776q.258-1.726.512-3.454l.074-.491a.632.632,0,0,0-.282-.693,3,3,0,0,1-.408-.236c-.123-.083.1.089-.012-.009-.031-.028-.064-.055-.1-.086a2.521,2.521,0,0,1-.178-.184c-.028-.031-.126-.107-.012-.009a.363.363,0,0,1-.049-.071,2.31,2.31,0,0,1-.135-.218,1.025,1.025,0,0,1-.1-.193c.043.156.009.018,0-.015s-.028-.083-.04-.126a2.6,2.6,0,0,1-.058-.258c-.025-.117,0,.018,0,.031a.5.5,0,0,1-.012-.135,1.631,1.631,0,0,1,0-.245c0-.037,0-.071.006-.107l.009-.083c-.012.1-.015.107,0,.04a4.359,4.359,0,0,1,.12-.436c.031-.089-.018.028-.015.034a.509.509,0,0,1,.052-.11c.037-.071.077-.141.12-.209.021-.034.046-.067.067-.1.077-.117-.089.1,0,0,.043-.049.086-.1.132-.15s.1-.1.16-.15c.015-.012.058-.064.077-.064-.071.055-.08.061-.028.025.021-.015.043-.031.067-.046.055-.037.114-.071.172-.1l.107-.055c.012-.006.132-.064.037-.018s.028-.009.04-.015c.04-.015.077-.028.117-.04.08-.025.16-.043.239-.061a.18.18,0,0,1,.04-.006c.067-.012.055-.009-.04,0,.018-.015.1-.009.126-.012.071-.006.141-.006.215-.006s.141.006.212.012c.147.012-.138-.031,0,0l.163.034c.068.015.132.037.2.058.015.006.107.028.114.043-.012-.031-.117-.058-.015-.006.064.034.132.067.2.1.018.012.2.107.2.132l-.061-.046c.021.015.043.034.061.049.037.031.071.061.1.092a2.565,2.565,0,0,1,.178.187s.052.052.049.061c-.055-.071-.061-.08-.025-.028.015.021.031.043.046.067a2.315,2.315,0,0,1,.123.209c.018.037.037.074.055.107.028.061.021.049-.012-.034.009.025.018.049.028.077a2.09,2.09,0,0,1,.071.236l.028.12a.178.178,0,0,1,.006.04c.012.068.009.055,0-.04.046.052.025.239.025.3a.614.614,0,1,0,1.227,0,3,3,0,0,0-5.317-1.914,3.064,3.064,0,0,0-.644,2.442,2.988,2.988,0,0,0,1.66,2.184c-.1-.23-.187-.463-.282-.693q-.258,1.726-.512,3.454c-.025.163-.049.328-.074.491a.636.636,0,0,0,.11.534.606.606,0,0,0,.482.242h3.148a.6.6,0,0,0,.482-.242.636.636,0,0,0,.11-.534q-.258-1.726-.512-3.454c-.025-.163-.049-.328-.074-.491-.1.23-.187.463-.282.693a3.036,3.036,0,0,0,1.709-2.709.615.615,0,0,0-1.23,0Z" transform="translate(-1673.393 -1610.051)" fill="#b72c74"/>
  </g>
</svg>
