<svg xmlns="http://www.w3.org/2000/svg" width="150.082" height="310.939" viewBox="0 0 150.082 310.939">
  <g id="Group_65167" data-name="Group 65167" transform="translate(-113 -179)">
    <text id="Welcome_back" data-name="Welcome back" transform="translate(188 474.939)" fill="#f2db2b" font-size="40" font-family="Avenir-Black, Avenir" font-weight="800"><tspan x="-70.7" y="0">Hmm..!</tspan></text>
    <g id="empty_leaderboard_illustration_" data-name="empty_leaderboard_illustration " transform="translate(-20.542 -85.866)">
      <g id="Group_64999" data-name="Group 64999" transform="translate(134 265)">
        <text id="_" data-name="?" transform="translate(31.542 114.866)" fill="#f2db2b" font-size="115" font-family="Avenir-Black, Avenir" font-weight="800"><tspan x="-31.97" y="0">?</tspan></text>
        <g id="Group_64998" data-name="Group 64998" transform="translate(14.722 76.627)">
          <g id="Group_60342" data-name="Group 60342" transform="matrix(0.588, 0.809, -0.809, 0.588, 61.344, 42.914)">
            <g id="Group_60341" data-name="Group 60341" transform="translate(0 0)">
              <path id="Path_141280" data-name="Path 141280" d="M8.613,20.436A37.4,37.4,0,0,0,1.629,9.967c-2.406-2.513-2.094-3.33.591-1.9,2.342,1.3,4,3.062,4.376,2.841.182-.1-1.077-1.559-3.12-3.455C1.372,5.5-.217,4.168.432,3.418,1.2,2.57,7.626,7.125,8.795,8.844c1.439,1.531-3.278-5.021-5.546-6.779C.882-.019,2.267-.926,5.776,1.456,9.22,3.9,11.217,6.809,12.126,7.409c-.151-.834-.451-1.9-2.99-5.279C7.147-.293,8.573-.786,11.154,1.364c3.133,2.575,5.158,7.93,6.3,7.971.807-.416.28-1.811.909-4.929.582-3.089,2.053.829,2.282,4.3.311,3.553,1,7.639.5,10.8-.646,4.24-2.125,7.258-4.92,8.384C13.229,29.077,11.582,28.166,8.613,20.436Z" fill="#e29a8f"/>
              <path id="Path_141281" data-name="Path 141281" d="M.2,0A.709.709,0,0,1,.535.077,2.649,2.649,0,0,1,.918.241,7.686,7.686,0,0,1,1.561.7c.416.323.811.676,1.194,1.038S3.5,2.46,3.84,2.85A5.879,5.879,0,0,1,4.8,4.138a.31.31,0,0,1-.482.376A11.449,11.449,0,0,1,3.276,3.422c-.359-.374-.717-.746-1.1-1.1s-.757-.667-1.148-.988C.836,1.176.642,1.017.452.852.354.767.295.661.206.569a.774.774,0,0,1-.2-.313A.2.2,0,0,1,.2,0Z" transform="translate(11.599 14.075)" fill="#bc4a60" opacity="0.5"/>
            </g>
            <path id="Path_141282" data-name="Path 141282" d="M43.614.628c5.5,3,5.851,9.348,1.9,20.283C42.377,29.6,32.533,66.658,20.435,66.332,11.937,66.1.852,20.269,0,14.308c2.424-.37,4.878-.029,9.734-2.794,1.612,3.54,8.843,33.718,10.977,31.9,2.586-2.2,4.8-21.315,9.464-30.763C33.463,6,38.113-2.372,43.614.628Z" transform="translate(10.692 9.491)" fill="#e29a8f"/>
            <path id="Path_141283" data-name="Path 141283" d="M21.816,0C19.757.02,11.529,5.519,6.835,17.536A199.738,199.738,0,0,0,0,37.8S5.73,45.2,19.193,46.738c0,0,6.144-16.138,7.041-25.29l.9-9.152S28.927-.07,21.816,0Z" transform="translate(32.37 5.216)" fill="#e58421"/>
          </g>
          <g id="Group_60343" data-name="Group 60343" transform="translate(64.445 83.546)">
            <path id="Path_141285" data-name="Path 141285" d="M316.98,244.09c-6.363-6.111-39.9-7.279-47.755,1.431s-.73,32.93-1.2,51.481-3.734,19.253.351,20.7,26.241,6.4,44.621,3.01,15.238-7.259,15.238-11.292S326.719,253.446,316.98,244.09Z" transform="translate(-265.512 -239.247)" fill="#db5225"/>
            <path id="Path_141286" data-name="Path 141286" d="M307.74,241.666c2.631,2.122-3.465,8.126-11.891,7.771s-4.947-4.809-3.379-5.973S303.945,238.606,307.74,241.666Z" transform="translate(-275.761 -239.659)" fill="#658ee5"/>
          </g>
          <g id="Group_60349" data-name="Group 60349" transform="translate(54.397 0)">
            <path id="Path_141287" data-name="Path 141287" d="M258.175,161.822s-5.665-3.988-3.571-13.709,8.867-13.086,8.867-13.086,4.187.249,1.108,9.1S258.175,161.822,258.175,161.822Z" transform="translate(-253.308 -120.88)"/>
            <g id="Group_60344" data-name="Group 60344" transform="translate(25.354 73.128)">
              <path id="Path_141288" data-name="Path 141288" d="M305.013,239.035a14.957,14.957,0,0,1-6.71,2.781c-5.144.936-4.826-1.579-4.826-1.579l-.843-6.071-1.229-8.845,12.116-1.719,1.029,7.447.946,6.8A1.286,1.286,0,0,1,305.013,239.035Z" transform="translate(-291.406 -223.602)" fill="#e29a8f"/>
              <path id="Path_141289" data-name="Path 141289" d="M304.551,231.049a24.118,24.118,0,0,1-3.977,1.67,36.3,36.3,0,0,1-5.3,1.215,13.968,13.968,0,0,1-2.644.231l-1.229-8.845,12.116-1.719Z" transform="translate(-291.406 -223.602)" fill="#bc4a60" opacity="0.4"/>
            </g>
            <path id="Path_141290" data-name="Path 141290" d="M255.97,165.938c-1.74,18.742,5.285,34.831,27.239,32.924s26.75-18.973,29.973-36.285-7.7-33.832-26.092-33.9C265.816,128.6,257.771,141.541,255.97,165.938Z" transform="translate(-253.848 -118.758)" fill="#e29a8f"/>
            <path id="Path_141291" data-name="Path 141291" d="M302.163,185.8s-.783,8.718-7.825,12.63-13.853-2.029-23.425-1.883c-8.983.137-9.851,2.722-11.923.765s-1.933-3.632-3.728-2.654-3.728,6.427-1.1,14.251,12.7,10.2,25.821,9.222,22.841-7.122,25.588-13.537c3.23-7.541-1.405-6.215,1.628-17.072C308.219,183.856,302.715,182.59,302.163,185.8Z" transform="translate(-252.876 -137.23)"/>
            <path id="Path_141292" data-name="Path 141292" d="M306.268,163.527c3.25,2.192,12.98.419,15.051-6.986s3.866-24.172-9.665-30.32-36.314-3.074-36.314-3.074,4.557-6.147,1.933-7.405-7.18,4.471-7.18,4.471,2.623-6.148-.553-6.427-12.013,15.23-5.938,20.26,13.67-.139,13.67-.139,2.209,4.052,8.423,5.729a18.135,18.135,0,0,0,11.874-1.258,15.222,15.222,0,0,0,1.1,11.6c3.176,6.148,6.489,8.1,6.489,8.1S303.369,161.571,306.268,163.527Z" transform="translate(-255.832 -113.781)"/>
            <g id="Group_60345" data-name="Group 60345" transform="translate(53.089 44.839)">
              <path id="Path_141293" data-name="Path 141293" d="M334,195.578c.906,2.65,5.184,3.6,8.64,1.219s5.969-9.592,3.4-13.512-8.673-2.177-11,2.49A14.332,14.332,0,0,0,334,195.578Z" transform="translate(-333.555 -181.119)" fill="#e29a8f"/>
              <path id="Path_141294" data-name="Path 141294" d="M345.8,188.312a.264.264,0,0,0-.113-.436,3.459,3.459,0,0,0-2.41.73,8.383,8.383,0,0,0-2.017,1.705,7.6,7.6,0,0,0-1.89,4.961c.007.338.529.437.6.083a9.422,9.422,0,0,1,2.01-4.393c.147-.169.314-.314.474-.468.064.082.14.157.206.234.117.138.239.271.355.411a7.334,7.334,0,0,1,.629.9c.386.639.62,1.362,1.054,1.971.08.113.31.13.336-.045a3.6,3.6,0,0,0-.67-2.353,7.187,7.187,0,0,0-.745-1,4.037,4.037,0,0,0-.423-.427c-.07-.059-.139-.118-.212-.171a7.552,7.552,0,0,1,.778-.565A10.506,10.506,0,0,0,345.8,188.312Z" transform="translate(-335.544 -183.361)" fill="#bc4a60" opacity="0.5"/>
            </g>
            <g id="Group_60348" data-name="Group 60348" transform="translate(5.987 33.165)">
              <g id="Group_60346" data-name="Group 60346" transform="translate(6.634 28.175)">
                <path id="Path_141295" data-name="Path 141295" d="M4.856,1.036C7.211,1.168,8.785-1.1,10.914.69,12.609,2.113,9.7,6.1,5.371,6.06S-.8,2.577.322,1.427,2.06.88,4.856,1.036Z" transform="translate(11.404 6.06) rotate(180)" fill="#bc4a60"/>
                <path id="Path_141296" data-name="Path 141296" d="M283.653,209.518a8.664,8.664,0,0,0-2.37.75,6.548,6.548,0,0,0-2.028,1.547,5.363,5.363,0,0,0-.843,1.219,7.473,7.473,0,0,0,1.188.11,6.334,6.334,0,0,0,5.841-3.4A2.306,2.306,0,0,0,283.653,209.518Z" transform="translate(-274.23 -207.085)" fill="#fc6b7f"/>
              </g>
              <g id="Group_60347" data-name="Group 60347" transform="translate(0.493 14.221)">
                <path id="Path_141297" data-name="Path 141297" d="M304.4,191.3a11.967,11.967,0,0,0-1.023-.979,9.074,9.074,0,0,0-2.466-1.582,4.52,4.52,0,0,0-2.813-.307,1.759,1.759,0,0,0-1.381,2.012c.068.32.526.228.543-.075.049-.939,1.113-1.149,1.854-1.093a5.161,5.161,0,0,1,2.139.714,9.945,9.945,0,0,1,1.814,1.374,5.433,5.433,0,0,0,1.809,1.452.259.259,0,0,0,.313-.317A2.811,2.811,0,0,0,304.4,191.3Z" transform="translate(-274.336 -186.069)" fill="#2c1f30"/>
                <path id="Path_141298" data-name="Path 141298" d="M268.8,188.3a7.141,7.141,0,0,0-2.586-2.851,2.655,2.655,0,0,0-2.553-.287,1.622,1.622,0,0,0-.849,1.934.273.273,0,0,0,.526-.146,1.088,1.088,0,0,1,1.006-1.16,2.764,2.764,0,0,1,1.906.766,6.179,6.179,0,0,1,1.311,1.431,7.775,7.775,0,0,1,.483.864,2.032,2.032,0,0,0,.587.843.275.275,0,0,0,.4-.165A1.652,1.652,0,0,0,268.8,188.3Z" transform="translate(-262.724 -184.943)" fill="#2c1f30"/>
              </g>
              <path id="Path_141299" data-name="Path 141299" d="M298.69,168.44a.526.526,0,0,0,.6.66c.107-.016.211-.021.317-.031a.518.518,0,0,0-.037.772c-.073.013-.145.023-.218.039a.506.506,0,0,0,.013.968.5.5,0,0,0,.2.822c2.818.406,5.716,1.225,7.669,3.457a.337.337,0,0,0,.532-.073.493.493,0,0,0,.173-.656c-.078-.129-.162-.254-.247-.378.012-.011.028-.013.039-.026.917-1.134-.2-2.248-1-3.036a14.434,14.434,0,0,0-3.042-2.37,9.215,9.215,0,0,0-3.7-1.188c-.481-.042-1.31-.155-1.477.477A.522.522,0,0,0,298.69,168.44Z" transform="translate(-274.46 -164.849)"/>
              <path id="Path_141300" data-name="Path 141300" d="M270.23,164.082c-.144-.61-.859-.5-1.275-.461a7.377,7.377,0,0,0-3.2,1.147,12.771,12.771,0,0,0-2.626,2.287c-.686.76-1.652,1.836-.86,2.931.009.012.024.014.034.025-.072.12-.145.24-.212.365a.508.508,0,0,0,.149.633.274.274,0,0,0,.459.071c1.686-2.154,4.187-2.945,6.619-3.337.307-.05.392-.581.172-.794.385-.1.446-.828.01-.934-.062-.015-.125-.025-.187-.038a.542.542,0,0,0-.032-.746c.091.01.181.015.273.031a.489.489,0,0,0,.516-.637A.537.537,0,0,0,270.23,164.082Z" transform="translate(-261.975 -163.587)"/>
              <path id="Path_141301" data-name="Path 141301" d="M271.126,192.695c.807-2.937,1.654-5.862,2.485-8.792.411-1.451.82-2.9,1.238-4.351a21.188,21.188,0,0,1,1.421-4.289.293.293,0,0,1,.543.148,20.793,20.793,0,0,1-1.025,4.312q-.625,2.219-1.263,4.435c-.778,2.724-1.546,5.451-2.34,8.17a35.436,35.436,0,0,0,5.7-.755.314.314,0,0,1,.165.605,21.044,21.044,0,0,1-6.487,1.1A.464.464,0,0,1,271.126,192.695Z" transform="translate(-265.099 -167.441)" fill="#bc4a60" opacity="0.5"/>
            </g>
          </g>
          <g id="Group_60351" data-name="Group 60351" transform="matrix(0.799, 0.602, -0.602, 0.799, 74.626, 56.019)">
            <path id="Path_141302" data-name="Path 141302" d="M40.536,0C47.358.068,50.884,6.021,52.56,18.618,53.892,28.63,62.991,69.494,51.14,75.4,42.814,79.551,3.817,40.5,0,35.177c2.156-1.6,4.7-2.536,8-7.706,3.334,2.591,30.747,28.5,31.9,25.649,1.394-3.454-6.07-23.06-6.307-34.59C33.426,10.41,33.715-.069,40.536,0Z" transform="translate(16.577 5.352)" fill="#e29a8f"/>
            <path id="Path_141303" data-name="Path 141303" d="M5.936.677C3.956,1.755-1.231,11.3.268,25.323A218.751,218.751,0,0,0,3.84,48.413s9.255,4.208,23.034-1.231c0,0-2.168-18.752-5.9-28.056l-3.729-9.3S12.771-3.048,5.936.677Z" transform="translate(48.599)" fill="#e58421"/>
            <path id="Path_141304" data-name="Path 141304" d="M12.97,22.7c-3.292-2.908-7.908-6.712-10.6-8.835-2.853-2.251-2.652-3.387.173-2.377,2.506.9,4.631,2.282,4.953,1.916.159-.18-1.517-1.321-3.866-2.986C1.216,8.709-.41,7.321.091,6.219s7.32,2.888,9.058,4.225-4.47-4.58-6.621-6.581C.116,1.62,1.26.19,4.8,2.519s6.226,4.926,7.292,5.3c-.335-.912-1.005-1.853-4.029-5.27C5.815.013,7.068-.926,9.842,1.1c3.33,2.433,6.936,7.411,8.179,6.995.7-.72-.322-1.932-.515-5.547s2.162.37,3.6,3.773c1.485,3.521,3.993,7.012,5.082,9.939,1.465,3.938,1.733,6.941-.9,9.175S19.625,28.579,12.97,22.7Z" transform="translate(0 16.065)" fill="#e29a8f"/>
            <g id="Group_60350" data-name="Group 60350" transform="translate(20.749 36.577)">
              <path id="Path_141309" data-name="Path 141309" d="M2.529.05,10.944,0a2.477,2.477,0,0,1,2.5,2.5h0a2.549,2.549,0,0,1-2.529,2.527L2.5,5.074A2.477,2.477,0,0,1,0,2.577,2.549,2.549,0,0,1,2.529.05Z" transform="matrix(-0.688, 0.726, -0.726, -0.688, 12.929, 3.49)" fill="#b26167"/>
              <path id="Path_141305" data-name="Path 141305" d="M1.372,7.675a4.357,4.357,0,0,0,6.212-.169,4.484,4.484,0,0,0-.167-6.286,4.357,4.357,0,0,0-6.212.17A4.484,4.484,0,0,0,1.372,7.675Z" transform="translate(2.07 2.177)" fill="#ffd0be"/>
            </g>
          </g>
        </g>
        <g id="Group_65029" data-name="Group 65029" transform="translate(14.722 76.626)">
          <g id="Group_60342-2" data-name="Group 60342" transform="matrix(0.588, 0.809, -0.809, 0.588, 61.344, 42.914)">
            <g id="Group_60341-2" data-name="Group 60341" transform="translate(0 0)">
              <path id="Path_141280-2" data-name="Path 141280" d="M8.613,20.436A37.4,37.4,0,0,0,1.629,9.967c-2.406-2.513-2.094-3.33.591-1.9,2.342,1.3,4,3.062,4.376,2.841.182-.1-1.077-1.559-3.12-3.455C1.372,5.5-.217,4.168.432,3.418,1.2,2.57,7.626,7.125,8.795,8.844c1.439,1.531-3.278-5.021-5.546-6.779C.882-.019,2.267-.926,5.776,1.456,9.22,3.9,11.217,6.809,12.126,7.409c-.151-.834-.451-1.9-2.99-5.279C7.147-.293,8.573-.786,11.154,1.364c3.133,2.575,5.158,7.93,6.3,7.971.807-.416.28-1.811.909-4.929.582-3.089,2.053.829,2.282,4.3.311,3.553,1,7.639.5,10.8-.646,4.24-2.125,7.258-4.92,8.384C13.229,29.077,11.582,28.166,8.613,20.436Z" fill="#e29a8f"/>
              <path id="Path_141281-2" data-name="Path 141281" d="M.2,0A.709.709,0,0,1,.535.077,2.649,2.649,0,0,1,.918.241,7.686,7.686,0,0,1,1.561.7c.416.323.811.676,1.194,1.038S3.5,2.46,3.84,2.85A5.879,5.879,0,0,1,4.8,4.138a.31.31,0,0,1-.482.376A11.449,11.449,0,0,1,3.276,3.422c-.359-.374-.717-.746-1.1-1.1s-.757-.667-1.148-.988C.836,1.176.642,1.017.452.852.354.767.295.661.206.569a.774.774,0,0,1-.2-.313A.2.2,0,0,1,.2,0Z" transform="translate(11.599 14.075)" fill="#bc4a60" opacity="0.5"/>
            </g>
            <path id="Path_141282-2" data-name="Path 141282" d="M43.614.628c5.5,3,5.851,9.348,1.9,20.283C42.377,29.6,32.533,66.658,20.435,66.332,11.937,66.1.852,20.269,0,14.308c2.424-.37,4.878-.029,9.734-2.794,1.612,3.54,8.843,33.718,10.977,31.9,2.586-2.2,4.8-21.315,9.464-30.763C33.463,6,38.113-2.372,43.614.628Z" transform="translate(10.692 9.491)" fill="#e29a8f"/>
            <path id="Path_141283-2" data-name="Path 141283" d="M21.816,0C19.757.02,11.529,5.519,6.835,17.536A199.738,199.738,0,0,0,0,37.8S5.73,45.2,19.193,46.738c0,0,6.144-16.138,7.041-25.29l.9-9.152S28.927-.07,21.816,0Z" transform="translate(32.37 5.216)" fill="#e58421"/>
          </g>
          <g id="Group_60343-2" data-name="Group 60343" transform="translate(64.445 83.546)">
            <path id="Path_141285-2" data-name="Path 141285" d="M316.98,244.09c-6.363-6.111-39.9-7.279-47.755,1.431s-.73,32.93-1.2,51.481-3.734,19.253.351,20.7,26.241,6.4,44.621,3.01,15.238-7.259,15.238-11.292S326.719,253.446,316.98,244.09Z" transform="translate(-265.512 -239.247)" fill="#db5225"/>
            <path id="Path_141286-2" data-name="Path 141286" d="M307.74,241.666c2.631,2.122-3.465,8.126-11.891,7.771s-4.947-4.809-3.379-5.973S303.945,238.606,307.74,241.666Z" transform="translate(-275.761 -239.659)" fill="#658ee5"/>
          </g>
          <g id="Group_60349-2" data-name="Group 60349" transform="translate(54.397 0)">
            <path id="Path_141287-2" data-name="Path 141287" d="M258.175,161.822s-5.665-3.988-3.571-13.709,8.867-13.086,8.867-13.086,4.187.249,1.108,9.1S258.175,161.822,258.175,161.822Z" transform="translate(-253.308 -120.88)"/>
            <g id="Group_60344-2" data-name="Group 60344" transform="translate(25.354 73.128)">
              <path id="Path_141288-2" data-name="Path 141288" d="M305.013,239.035a14.957,14.957,0,0,1-6.71,2.781c-5.144.936-4.826-1.579-4.826-1.579l-.843-6.071-1.229-8.845,12.116-1.719,1.029,7.447.946,6.8A1.286,1.286,0,0,1,305.013,239.035Z" transform="translate(-291.406 -223.602)" fill="#e29a8f"/>
              <path id="Path_141289-2" data-name="Path 141289" d="M304.551,231.049a24.118,24.118,0,0,1-3.977,1.67,36.3,36.3,0,0,1-5.3,1.215,13.968,13.968,0,0,1-2.644.231l-1.229-8.845,12.116-1.719Z" transform="translate(-291.406 -223.602)" fill="#bc4a60" opacity="0.4"/>
            </g>
            <path id="Path_141290-2" data-name="Path 141290" d="M255.97,165.938c-1.74,18.742,5.285,34.831,27.239,32.924s26.75-18.973,29.973-36.285-7.7-33.832-26.092-33.9C265.816,128.6,257.771,141.541,255.97,165.938Z" transform="translate(-253.848 -118.758)" fill="#e29a8f"/>
            <path id="Path_141291-2" data-name="Path 141291" d="M302.163,185.8s-.783,8.718-7.825,12.63-13.853-2.029-23.425-1.883c-8.983.137-9.851,2.722-11.923.765s-1.933-3.632-3.728-2.654-3.728,6.427-1.1,14.251,12.7,10.2,25.821,9.222,22.841-7.122,25.588-13.537c3.23-7.541-1.405-6.215,1.628-17.072C308.219,183.856,302.715,182.59,302.163,185.8Z" transform="translate(-252.876 -137.23)"/>
            <path id="Path_141292-2" data-name="Path 141292" d="M306.268,163.527c3.25,2.192,12.98.419,15.051-6.986s3.866-24.172-9.665-30.32-36.314-3.074-36.314-3.074,4.557-6.147,1.933-7.405-7.18,4.471-7.18,4.471,2.623-6.148-.553-6.427-12.013,15.23-5.938,20.26,13.67-.139,13.67-.139,2.209,4.052,8.423,5.729a18.135,18.135,0,0,0,11.874-1.258,15.222,15.222,0,0,0,1.1,11.6c3.176,6.148,6.489,8.1,6.489,8.1S303.369,161.571,306.268,163.527Z" transform="translate(-255.832 -113.781)"/>
            <g id="Group_60345-2" data-name="Group 60345" transform="translate(53.089 44.839)">
              <path id="Path_141293-2" data-name="Path 141293" d="M334,195.578c.906,2.65,5.184,3.6,8.64,1.219s5.969-9.592,3.4-13.512-8.673-2.177-11,2.49A14.332,14.332,0,0,0,334,195.578Z" transform="translate(-333.555 -181.119)" fill="#e29a8f"/>
              <path id="Path_141294-2" data-name="Path 141294" d="M345.8,188.312a.264.264,0,0,0-.113-.436,3.459,3.459,0,0,0-2.41.73,8.383,8.383,0,0,0-2.017,1.705,7.6,7.6,0,0,0-1.89,4.961c.007.338.529.437.6.083a9.422,9.422,0,0,1,2.01-4.393c.147-.169.314-.314.474-.468.064.082.14.157.206.234.117.138.239.271.355.411a7.334,7.334,0,0,1,.629.9c.386.639.62,1.362,1.054,1.971.08.113.31.13.336-.045a3.6,3.6,0,0,0-.67-2.353,7.187,7.187,0,0,0-.745-1,4.037,4.037,0,0,0-.423-.427c-.07-.059-.139-.118-.212-.171a7.552,7.552,0,0,1,.778-.565A10.506,10.506,0,0,0,345.8,188.312Z" transform="translate(-335.544 -183.361)" fill="#bc4a60" opacity="0.5"/>
            </g>
            <g id="Group_60348-2" data-name="Group 60348" transform="translate(5.987 33.165)">
              <g id="Group_60346-2" data-name="Group 60346" transform="translate(6.634 28.175)">
                <path id="Path_141295-2" data-name="Path 141295" d="M4.856,1.036C7.211,1.168,8.785-1.1,10.914.69,12.609,2.113,9.7,6.1,5.371,6.06S-.8,2.577.322,1.427,2.06.88,4.856,1.036Z" transform="translate(11.404 6.06) rotate(180)" fill="#bc4a60"/>
                <path id="Path_141296-2" data-name="Path 141296" d="M283.653,209.518a8.664,8.664,0,0,0-2.37.75,6.548,6.548,0,0,0-2.028,1.547,5.363,5.363,0,0,0-.843,1.219,7.473,7.473,0,0,0,1.188.11,6.334,6.334,0,0,0,5.841-3.4A2.306,2.306,0,0,0,283.653,209.518Z" transform="translate(-274.23 -207.085)" fill="#fc6b7f"/>
              </g>
              <g id="Group_60347-2" data-name="Group 60347" transform="translate(0.493 14.221)">
                <path id="Path_141297-2" data-name="Path 141297" d="M304.4,191.3a11.967,11.967,0,0,0-1.023-.979,9.074,9.074,0,0,0-2.466-1.582,4.52,4.52,0,0,0-2.813-.307,1.759,1.759,0,0,0-1.381,2.012c.068.32.526.228.543-.075.049-.939,1.113-1.149,1.854-1.093a5.161,5.161,0,0,1,2.139.714,9.945,9.945,0,0,1,1.814,1.374,5.433,5.433,0,0,0,1.809,1.452.259.259,0,0,0,.313-.317A2.811,2.811,0,0,0,304.4,191.3Z" transform="translate(-274.336 -186.069)" fill="#2c1f30"/>
                <path id="Path_141298-2" data-name="Path 141298" d="M268.8,188.3a7.141,7.141,0,0,0-2.586-2.851,2.655,2.655,0,0,0-2.553-.287,1.622,1.622,0,0,0-.849,1.934.273.273,0,0,0,.526-.146,1.088,1.088,0,0,1,1.006-1.16,2.764,2.764,0,0,1,1.906.766,6.179,6.179,0,0,1,1.311,1.431,7.775,7.775,0,0,1,.483.864,2.032,2.032,0,0,0,.587.843.275.275,0,0,0,.4-.165A1.652,1.652,0,0,0,268.8,188.3Z" transform="translate(-262.724 -184.943)" fill="#2c1f30"/>
              </g>
              <path id="Path_141299-2" data-name="Path 141299" d="M298.69,168.44a.526.526,0,0,0,.6.66c.107-.016.211-.021.317-.031a.518.518,0,0,0-.037.772c-.073.013-.145.023-.218.039a.506.506,0,0,0,.013.968.5.5,0,0,0,.2.822c2.818.406,5.716,1.225,7.669,3.457a.337.337,0,0,0,.532-.073.493.493,0,0,0,.173-.656c-.078-.129-.162-.254-.247-.378.012-.011.028-.013.039-.026.917-1.134-.2-2.248-1-3.036a14.434,14.434,0,0,0-3.042-2.37,9.215,9.215,0,0,0-3.7-1.188c-.481-.042-1.31-.155-1.477.477A.522.522,0,0,0,298.69,168.44Z" transform="translate(-274.46 -164.849)"/>
              <path id="Path_141300-2" data-name="Path 141300" d="M270.23,164.082c-.144-.61-.859-.5-1.275-.461a7.377,7.377,0,0,0-3.2,1.147,12.771,12.771,0,0,0-2.626,2.287c-.686.76-1.652,1.836-.86,2.931.009.012.024.014.034.025-.072.12-.145.24-.212.365a.508.508,0,0,0,.149.633.274.274,0,0,0,.459.071c1.686-2.154,4.187-2.945,6.619-3.337.307-.05.392-.581.172-.794.385-.1.446-.828.01-.934-.062-.015-.125-.025-.187-.038a.542.542,0,0,0-.032-.746c.091.01.181.015.273.031a.489.489,0,0,0,.516-.637A.537.537,0,0,0,270.23,164.082Z" transform="translate(-261.975 -163.587)"/>
              <path id="Path_141301-2" data-name="Path 141301" d="M271.126,192.695c.807-2.937,1.654-5.862,2.485-8.792.411-1.451.82-2.9,1.238-4.351a21.188,21.188,0,0,1,1.421-4.289.293.293,0,0,1,.543.148,20.793,20.793,0,0,1-1.025,4.312q-.625,2.219-1.263,4.435c-.778,2.724-1.546,5.451-2.34,8.17a35.436,35.436,0,0,0,5.7-.755.314.314,0,0,1,.165.605,21.044,21.044,0,0,1-6.487,1.1A.464.464,0,0,1,271.126,192.695Z" transform="translate(-265.099 -167.441)" fill="#bc4a60" opacity="0.5"/>
            </g>
          </g>
          <g id="Group_60351-2" data-name="Group 60351" transform="matrix(0.799, 0.602, -0.602, 0.799, 74.626, 56.019)">
            <path id="Path_141302-2" data-name="Path 141302" d="M40.536,0C47.358.068,50.884,6.021,52.56,18.618,53.892,28.63,62.991,69.494,51.14,75.4,42.814,79.551,3.817,40.5,0,35.177c2.156-1.6,4.7-2.536,8-7.706,3.334,2.591,30.747,28.5,31.9,25.649,1.394-3.454-6.07-23.06-6.307-34.59C33.426,10.41,33.715-.069,40.536,0Z" transform="translate(16.577 5.352)" fill="#e29a8f"/>
            <path id="Path_141303-2" data-name="Path 141303" d="M5.936.677C3.956,1.755-1.231,11.3.268,25.323A218.751,218.751,0,0,0,3.84,48.413s9.255,4.208,23.034-1.231c0,0-2.168-18.752-5.9-28.056l-3.729-9.3S12.771-3.048,5.936.677Z" transform="translate(48.599)" fill="#e58421"/>
            <path id="Path_141304-2" data-name="Path 141304" d="M12.97,22.7c-3.292-2.908-7.908-6.712-10.6-8.835-2.853-2.251-2.652-3.387.173-2.377,2.506.9,4.631,2.282,4.953,1.916.159-.18-1.517-1.321-3.866-2.986C1.216,8.709-.41,7.321.091,6.219s7.32,2.888,9.058,4.225-4.47-4.58-6.621-6.581C.116,1.62,1.26.19,4.8,2.519s6.226,4.926,7.292,5.3c-.335-.912-1.005-1.853-4.029-5.27C5.815.013,7.068-.926,9.842,1.1c3.33,2.433,6.936,7.411,8.179,6.995.7-.72-.322-1.932-.515-5.547s2.162.37,3.6,3.773c1.485,3.521,3.993,7.012,5.082,9.939,1.465,3.938,1.733,6.941-.9,9.175S19.625,28.579,12.97,22.7Z" transform="translate(0 16.065)" fill="#e29a8f"/>
            <g id="Group_60350-2" data-name="Group 60350" transform="translate(20.749 36.577)">
              <path id="Path_141309-2" data-name="Path 141309" d="M2.529.05,10.944,0a2.477,2.477,0,0,1,2.5,2.5h0a2.549,2.549,0,0,1-2.529,2.527L2.5,5.074A2.477,2.477,0,0,1,0,2.577,2.549,2.549,0,0,1,2.529.05Z" transform="matrix(-0.688, 0.726, -0.726, -0.688, 12.929, 3.49)" fill="#b26167"/>
              <path id="Path_141305-2" data-name="Path 141305" d="M1.372,7.675a4.357,4.357,0,0,0,6.212-.169,4.484,4.484,0,0,0-.167-6.286,4.357,4.357,0,0,0-6.212.17A4.484,4.484,0,0,0,1.372,7.675Z" transform="translate(2.07 2.177)" fill="#ffd0be"/>
            </g>
          </g>
        </g>
      </g>
    </g>
  </g>
</svg>
