<svg xmlns="http://www.w3.org/2000/svg" xmlns:xlink="http://www.w3.org/1999/xlink" width="28.283" height="38.96" viewBox="0 0 28.283 38.96">
  <defs>
    <linearGradient id="linear-gradient" x1="0.5" y1="-0.294" x2="0.459" y2="1.279" gradientUnits="objectBoundingBox">
      <stop offset="0" stop-color="#ffcc2e"/>
      <stop offset="0.218" stop-color="#ffcc2e"/>
      <stop offset="0.385" stop-color="#efb912"/>
      <stop offset="0.556" stop-color="#f6d790"/>
      <stop offset="0.707" stop-color="#ffcc2e"/>
      <stop offset="0.803" stop-color="#ffcc2e"/>
      <stop offset="1" stop-color="#f9c31a"/>
    </linearGradient>
    <linearGradient id="linear-gradient-2" x1="0.47" y1="-0.077" x2="0.5" y2="1.091" gradientUnits="objectBoundingBox">
      <stop offset="0" stop-color="#919191"/>
      <stop offset="0.301" stop-color="#a1a1a1"/>
      <stop offset="0.523" stop-color="#e9e9e9"/>
      <stop offset="0.761" stop-color="#b9b9b9"/>
      <stop offset="1" stop-color="#c5c5c5"/>
    </linearGradient>
    <clipPath id="clip-path">
      <path id="Path_310022" data-name="Path 310022" d="M81,81h28.283v28.2H81Zm0,0" transform="translate(-81 -81)" fill="url(#linear-gradient)"/>
    </clipPath>
    <linearGradient id="linear-gradient-3" x1="0.5" y1="-0.294" x2="0.459" y2="1.279" xlink:href="#linear-gradient-2"/>
  </defs>
  <g id="Group_92577" data-name="Group 92577" transform="translate(-315 -335.541)">
    <g id="Group_90181" data-name="Group 90181" transform="translate(-9860 6378.541)">
      <path id="Path_310019" data-name="Path 310019" d="M133.256,159.956a3.58,3.58,0,0,0-1.57-.348c-.325.085-.753.593-1.136,1.045l-.26.31,4.382,10.846,1.669-4.355a.669.669,0,0,1,.883-.374l4.233,2.007q-3.973-9.821-4.415-10.911a2.743,2.743,0,0,1-1.084,2A3.248,3.248,0,0,1,133.256,159.956Zm0,0" transform="translate(10060.874 -6175.868)" fill="#6d37a2"/>
      <path id="Path_310020" data-name="Path 310020" d="M92.08,159.956a3.272,3.272,0,0,1-2.7.219,2.744,2.744,0,0,1-1.084-2q-.444,1.091-4.415,10.93l4.234-2.007a.669.669,0,0,1,.883.374q.167.436,1.669,4.355l4.382-10.846c-.156-.187-.242-.289-.259-.31-.384-.471-.812-.98-1.131-1.064A3.588,3.588,0,0,0,92.08,159.956Zm0,0" transform="translate(10092.065 -6175.868)" fill="#6d37a2"/>
      <g id="Group_90178" data-name="Group 90178" transform="translate(10175 -6043)">
        <g id="Group_90184" data-name="Group 90184">
          <path id="Path_310017" data-name="Path 310017" d="M0,9.049A9.107,9.107,0,1,0,9.107,0,9.078,9.078,0,0,0,0,9.049Zm12.743,1.174q.568,3.271.632,3.634a.668.668,0,0,1-.272.673.661.661,0,0,1-.4.129.735.735,0,0,1-.32-.074q-.325-.173-3.276-1.732L5.83,14.573a.686.686,0,0,1-.72-.053.673.673,0,0,1-.272-.675q.064-.363.632-3.634L2.808,7.653A.675.675,0,0,1,3.189,6.5l3.672-.533Q8.33,2.994,8.5,2.664a.681.681,0,0,1,1.222,0q.162.33,1.634,3.3l3.672.526a.675.675,0,0,1,.38,1.154S14.516,8.506,12.743,10.223Zm0,0" transform="translate(23.244 23.109) rotate(180)" fill="url(#linear-gradient-2)"/>
          <g id="Group_90149" data-name="Group 90149" clip-path="url(#clip-path)">
            <path id="Path_310021" data-name="Path 310021" d="M106.726,92.114a4.1,4.1,0,0,1,.383-2.336c.215-.587.48-1.291.319-1.6s-.954-.426-1.578-.542a2.839,2.839,0,0,1-3.019-3.008c-.11-.646-.252-1.406-.546-1.574s-1.018.1-1.61.316a4.151,4.151,0,0,1-2.349.38,3.955,3.955,0,0,1-1.8-1.465c-.416-.5-.935-1.109-1.3-1.109s-.877.646-1.3,1.109a3.973,3.973,0,0,1-1.792,1.465,4.153,4.153,0,0,1-2.351-.38c-.591-.213-1.331-.478-1.61-.316s-.435.948-.546,1.574a2.858,2.858,0,0,1-3.045,3.008c-.649.115-1.409.251-1.578.542s.1,1.013.318,1.6a4.042,4.042,0,0,1,.378,2.342,3.883,3.883,0,0,1-1.462,1.775c-.493.413-1.111.929-1.111,1.291s.617.87,1.111,1.29a4.015,4.015,0,0,1,1.481,1.781,4.1,4.1,0,0,1-.383,2.336c-.215.587-.48,1.322-.319,1.6s.954.433,1.578.542a4.081,4.081,0,0,1,2.188.813,1.871,1.871,0,0,1,.351.491.8.8,0,0,1,.046.1,6.6,6.6,0,0,1,.434,1.6c.11.644.254,1.4.546,1.568s1.019-.1,1.61-.31a5.729,5.729,0,0,1,1.837-.446,1.916,1.916,0,0,1,.513.065,3.96,3.96,0,0,1,1.806,1.464c.415.491.935,1.1,1.3,1.1.227,0,.525-.251.817-.56.163-.175.326-.369.474-.543a3.97,3.97,0,0,1,1.792-1.464,4.1,4.1,0,0,1,2.351.38c.592.213,1.3.478,1.61.31s.435-.943.546-1.568a6.62,6.62,0,0,1,.434-1.6c.005-.009.036-.081.04-.091a1.844,1.844,0,0,1,.357-.5,4.1,4.1,0,0,1,2.2-.826c.649-.11,1.409-.245,1.578-.542s-.1-1.013-.319-1.6a4.1,4.1,0,0,1-.383-2.336,4.011,4.011,0,0,1,1.487-1.781c.495-.414,1.111-.923,1.111-1.291s-.624-.864-1.111-1.277A3.946,3.946,0,0,1,106.726,92.114ZM85.21,95.185a10.012,10.012,0,1,1,10.012,9.949A9.98,9.98,0,0,1,85.21,95.185Zm0,0" transform="translate(-81.084 -81.118)" fill="url(#linear-gradient-3)"/>
          </g>
        </g>
      </g>
    </g>
  </g>
</svg>
