<svg xmlns="http://www.w3.org/2000/svg" xmlns:xlink="http://www.w3.org/1999/xlink" width="24.974" height="23.7" viewBox="0 0 24.974 23.7">
  <defs>
    <clipPath id="clip-path">
      <path id="Path_295508" data-name="Path 295508" d="M81,394h24.974v13.476H81Zm0,0" transform="translate(-81 -394)"/>
    </clipPath>
    <clipPath id="clip-path-2">
      <path id="Path_295516" data-name="Path 295516" d="M138,477h1.129v1.765H138Zm0,0" transform="translate(-138 -477)" fill="#e7821c"/>
    </clipPath>
  </defs>
  <g id="Group_65163" data-name="Group 65163" transform="translate(2951 9531.457)">
    <path id="Path_295506" data-name="Path 295506" d="M105.13,323.915l-1.146-1.989a.756.756,0,0,0-.087-.122.8.8,0,0,0-.109-.1.767.767,0,0,0-.267-.132.781.781,0,0,0-.148-.024.753.753,0,0,0-.15,0,.775.775,0,0,0-.282.1L85.081,331.984a.773.773,0,0,0-.122.088.711.711,0,0,0-.1.11.772.772,0,0,0-.132.268.743.743,0,0,0-.024.148.757.757,0,0,0,0,.15.738.738,0,0,0,.034.146.776.776,0,0,0,.062.137l1.146,1.99a2.8,2.8,0,0,1,.25-.129q.128-.058.261-.1c.089-.03.179-.056.27-.078s.184-.038.277-.05a2.637,2.637,0,0,1,.281-.023q.141,0,.281,0c.094.006.187.017.28.032s.184.035.274.06a2.728,2.728,0,0,1,.268.087,2.86,2.86,0,0,1,.5.249q.119.074.231.16c.074.057.146.118.214.182s.134.132.2.2a2.8,2.8,0,0,1,.175.22q.082.115.152.237a2.816,2.816,0,0,1,.129.251c.039.086.073.173.1.262s.056.179.077.271.038.184.05.277a2.888,2.888,0,0,1,.019.563c-.007.094-.017.187-.032.28a2.9,2.9,0,0,1-.257.8q-.062.126-.137.246a2.764,2.764,0,0,1-.16.231q-.086.112-.182.215c-.064.068-.132.134-.2.2a2.763,2.763,0,0,1-.22.175q-.115.083-.236.153l.955,1.658a1.163,1.163,0,0,0,.131.183,1.112,1.112,0,0,0,.164.154,1.141,1.141,0,0,0,.191.119,1.128,1.128,0,0,0,.431.116,1.129,1.129,0,0,0,.224-.007,1.158,1.158,0,0,0,.423-.144l17.2-9.955a1.148,1.148,0,0,0,.57-.92,1.154,1.154,0,0,0-.151-.649l-.955-1.658c-.082.047-.165.09-.25.129s-.172.073-.261.1-.179.056-.271.078-.184.038-.276.05-.186.02-.281.023a2.794,2.794,0,0,1-.281,0c-.094-.007-.187-.017-.279-.032s-.184-.035-.275-.06-.18-.053-.267-.086a2.79,2.79,0,0,1-.258-.112c-.084-.041-.166-.087-.246-.137s-.157-.1-.231-.16-.146-.118-.214-.182-.133-.132-.2-.2a2.777,2.777,0,0,1-.175-.221c-.055-.076-.105-.156-.152-.237s-.09-.165-.128-.251-.073-.173-.1-.262-.056-.179-.077-.271-.038-.184-.05-.277-.02-.187-.023-.281,0-.188.005-.282a2.8,2.8,0,0,1,.032-.28c.016-.093.035-.185.06-.276s.053-.18.086-.268.07-.174.112-.259.087-.166.136-.246a2.806,2.806,0,0,1,.16-.231,2.619,2.619,0,0,1,.182-.215,2.812,2.812,0,0,1,.2-.2q.106-.093.22-.175T105.13,323.915Zm0,0" transform="translate(-3035.177 -9853)" fill="#faa307"/>
    <g id="Group_65161" data-name="Group 65161" transform="translate(-2951 -9521.233)" clip-path="url(#clip-path)">
      <path id="Path_295507" data-name="Path 295507" d="M105.982,398.313v-2.584a.864.864,0,0,0-.017-.168.83.83,0,0,0-.049-.161.839.839,0,0,0-.079-.149.821.821,0,0,0-.107-.131.839.839,0,0,0-.13-.107.851.851,0,0,0-.148-.079.887.887,0,0,0-.161-.049.857.857,0,0,0-.168-.017h-23.2a.852.852,0,0,0-.168.017.886.886,0,0,0-.161.049.851.851,0,0,0-.148.079.837.837,0,0,0-.131.107.847.847,0,0,0-.107.131.916.916,0,0,0-.079.149.872.872,0,0,0-.065.33v2.584c.105,0,.211.006.316.016s.209.026.313.046a3.139,3.139,0,0,1,.307.077,3.063,3.063,0,0,1,.3.107c.1.04.193.086.286.135s.184.1.271.163.173.122.254.189.159.138.234.213.146.153.212.235.13.167.189.255.113.179.163.272a3.129,3.129,0,0,1,.135.287c.04.1.076.2.106.3s.056.2.077.308.036.208.046.314.015.211.015.317,0,.211-.015.316-.026.21-.046.314-.046.207-.077.308a3.158,3.158,0,0,1-.106.3c-.04.1-.085.193-.135.287s-.1.184-.163.272-.121.173-.189.255-.138.16-.212.235-.153.145-.234.213-.166.13-.254.189-.178.113-.271.163a3.086,3.086,0,0,1-.286.136c-.1.041-.2.076-.3.107s-.2.056-.307.077-.208.036-.312.046-.211.016-.316.016v2.153a1.3,1.3,0,0,0,.1.495,1.291,1.291,0,0,0,.939.773,1.289,1.289,0,0,0,.251.025h22.342a1.288,1.288,0,0,0,.251-.025,1.309,1.309,0,0,0,.465-.193,1.3,1.3,0,0,0,.2-.161,1.265,1.265,0,0,0,.16-.2,1.318,1.318,0,0,0,.119-.223,1.3,1.3,0,0,0,.1-.495v-2.153c-.105,0-.211-.006-.316-.016s-.21-.026-.313-.046-.206-.046-.307-.077-.2-.066-.3-.107a3.074,3.074,0,0,1-.286-.136c-.093-.05-.184-.1-.271-.163s-.172-.122-.254-.189-.16-.138-.234-.213-.145-.153-.212-.235a3.122,3.122,0,0,1-.189-.255c-.058-.088-.113-.178-.163-.272s-.095-.189-.135-.287a3.162,3.162,0,0,1-.107-.3c-.03-.1-.056-.2-.077-.308s-.036-.208-.046-.314-.015-.211-.015-.316,0-.212.015-.317.026-.209.046-.314.046-.206.077-.308.066-.2.107-.3.086-.193.135-.287.1-.184.163-.272.121-.173.189-.255.138-.16.212-.235.153-.145.234-.213.166-.13.254-.189.178-.113.271-.163.188-.095.286-.135a3.057,3.057,0,0,1,.3-.107,3.136,3.136,0,0,1,.307-.077c.1-.02.207-.036.313-.046S105.876,398.313,105.982,398.313Zm0,0" transform="translate(-81.054 -394.745)" fill="#ffd100"/>
    </g>
    <path id="Path_295509" data-name="Path 295509" d="M168.9,417.53a1.286,1.286,0,0,1-.1.495,1.242,1.242,0,0,1-.119.223,1.271,1.271,0,0,1-.16.2,1.3,1.3,0,0,1-.2.161,1.283,1.283,0,0,1-.223.12,1.264,1.264,0,0,1-.242.073,1.284,1.284,0,0,1-.5,0,1.263,1.263,0,0,1-.242-.073,1.283,1.283,0,0,1-.223-.12,1.289,1.289,0,0,1-.475-.58,1.328,1.328,0,0,1-.073-.242,1.292,1.292,0,0,1,0-.5,1.29,1.29,0,0,1,.353-.661,1.276,1.276,0,0,1,.2-.161,1.247,1.247,0,0,1,.223-.12,1.292,1.292,0,0,1,.493-.1,1.286,1.286,0,0,1,.251.025,1.272,1.272,0,0,1,.242.073,1.247,1.247,0,0,1,.223.12,1.282,1.282,0,0,1,.356.357,1.241,1.241,0,0,1,.119.223,1.286,1.286,0,0,1,.1.494Zm0,0" transform="translate(-3105.281 -9934.334)" fill="#e7821c"/>
    <path id="Path_295510" data-name="Path 295510" d="M205.441,454.163a1.3,1.3,0,0,1-.1.494,1.323,1.323,0,0,1-.119.224,1.339,1.339,0,0,1-.16.2,1.3,1.3,0,0,1-.66.354,1.281,1.281,0,0,1-.745-.074,1.3,1.3,0,0,1-.223-.119,1.3,1.3,0,0,1-.356-.357,1.239,1.239,0,0,1-.119-.224,1.3,1.3,0,0,1-.1-.494,1.291,1.291,0,0,1,.025-.252,1.275,1.275,0,0,1,.073-.242,1.241,1.241,0,0,1,.119-.224,1.259,1.259,0,0,1,.16-.2,1.237,1.237,0,0,1,.2-.16,1.283,1.283,0,0,1,1.209-.12,1.309,1.309,0,0,1,.418.28,1.281,1.281,0,0,1,.28.419,1.3,1.3,0,0,1,.1.494Zm0,0" transform="translate(-3136.668 -9965.799)" fill="#e7821c"/>
    <path id="Path_295511" data-name="Path 295511" d="M169.274,426.022a.868.868,0,0,1-.113-.138.915.915,0,0,1-.084-.158.909.909,0,0,1-.05-.527.942.942,0,0,1,.052-.171.9.9,0,0,1,.2-.294l5.189-5.136a.891.891,0,0,1,.131-.1.868.868,0,0,1,.148-.077.86.86,0,0,1,.327-.062.834.834,0,0,1,.166.017.848.848,0,0,1,.159.05.87.87,0,0,1,.276.185.874.874,0,0,1,.106.129.858.858,0,0,1,.079.147.868.868,0,0,1,.05.16.885.885,0,0,1,.017.167.849.849,0,0,1-.015.167.865.865,0,0,1-.047.16.833.833,0,0,1-.077.148.858.858,0,0,1-.1.131l-5.123,5.2a.882.882,0,0,1-.137.115.911.911,0,0,1-.156.085.884.884,0,0,1-.17.052.875.875,0,0,1-.178.018.913.913,0,0,1-.348-.068.943.943,0,0,1-.157-.084A.875.875,0,0,1,169.274,426.022Zm0,0" transform="translate(-3107.59 -9937.011)" fill="#e7821c"/>
    <path id="Path_295512" data-name="Path 295512" d="M139.347,396.59a.429.429,0,0,0,.164-.032.433.433,0,0,0,.266-.4v-1.292h-.859v1.292a.425.425,0,0,0,.032.165.435.435,0,0,0,.093.14.421.421,0,0,0,.139.094A.432.432,0,0,0,139.347,396.59Zm0,0" transform="translate(-3081.746 -9915.979)" fill="#e7821c"/>
    <path id="Path_295513" data-name="Path 295513" d="M139.347,419.253a.419.419,0,0,0,.164-.033.433.433,0,0,0,.266-.4v-2.154a.433.433,0,0,0-.126-.3.419.419,0,0,0-.139-.094.43.43,0,0,0-.328,0,.419.419,0,0,0-.139.094.434.434,0,0,0-.093.139.426.426,0,0,0-.032.165v2.154a.424.424,0,0,0,.032.165.437.437,0,0,0,.093.14.425.425,0,0,0,.139.093A.421.421,0,0,0,139.347,419.253Zm0,0" transform="translate(-3081.746 -9934.334)" fill="#e7821c"/>
    <path id="Path_295514" data-name="Path 295514" d="M139.347,449.781a.432.432,0,0,0,.43-.43V447.2a.43.43,0,0,0-.734-.3.43.43,0,0,0-.093.14.422.422,0,0,0-.032.165v2.154a.425.425,0,0,0,.032.165.434.434,0,0,0,.093.139.426.426,0,0,0,.3.126Zm0,0" transform="translate(-3081.746 -9960.555)" fill="#e7821c"/>
    <g id="Group_65162" data-name="Group 65162" transform="translate(-2942.957 -9509.521)" clip-path="url(#clip-path-2)">
      <path id="Path_295515" data-name="Path 295515" d="M139.347,477.3a.432.432,0,0,0-.164.032.42.42,0,0,0-.139.094.428.428,0,0,0-.126.3v1.292h.859v-1.292a.423.423,0,0,0-.033-.165.433.433,0,0,0-.233-.233A.429.429,0,0,0,139.347,477.3Zm0,0" transform="translate(-138.788 -477.255)" fill="#e7821c"/>
    </g>
  </g>
</svg>
