<svg xmlns="http://www.w3.org/2000/svg" width="20" height="25.239" viewBox="0 0 20 25.239">
  <g id="redeem_prizes" data-name="redeem prizes" transform="translate(-136.796 -124.889)">
    <g id="Group_60073" data-name="Group 60073" transform="translate(145.35 125.128)">
      <g id="Group_60070" data-name="Group 60070" transform="translate(0 0.367)">
        <g id="Group_60069" data-name="Group 60069">
          <path id="Path_140919" data-name="Path 140919" d="M221.99,134.163l-.159.424.278-.089Z" transform="translate(-221.775 -133.757)" fill="#d1a119"/>
          <path id="Path_140920" data-name="Path 140920" d="M256.327,145.561l.176-.471-.372.16Z" transform="translate(-252.601 -143.749)" fill="#d1a119"/>
          <g id="Group_60068" data-name="Group 60068">
            <path id="Path_140921" data-name="Path 140921" d="M222.7,131.965c-.089-.024-.174-.051-.257-.082l-.091-.036-.066-.029a2.282,2.282,0,0,1-.262-.139c-.05-.031-.1-.063-.145-.1a1.868,1.868,0,0,1-.219-.186,1.627,1.627,0,0,1-.128-.142,1.383,1.383,0,0,1-.108-.155c-.019-.031-.036-.062-.051-.094a1.1,1.1,0,0,1-.087-.249.9.9,0,0,1,.036-.509.993.993,0,0,1,.2-.319h0a2.157,2.157,0,0,1,2.1-.416,1.777,1.777,0,0,1,1.427,1.3h0a.893.893,0,0,1-.044.4l0,.005,0,.014a1.1,1.1,0,0,1-.445.528,1.611,1.611,0,0,1-.226.123c-.039.018-.08.034-.122.049-.064.023-.131.043-.2.061s-.129.029-.2.04a2.491,2.491,0,0,1-.27.027l-.074,0c-.059,0-.119,0-.18,0a2.933,2.933,0,0,1-.346-.039c-.056-.01-.111-.022-.167-.035Z" transform="translate(-221.267 -129.418)" fill="#d1a119"/>
          </g>
        </g>
      </g>
      <path id="Path_140922" data-name="Path 140922" d="M223.766,141.2l-.066-.029a2.282,2.282,0,0,1-.262-.139q-.076-.046-.145-.1a1.87,1.87,0,0,1-.219-.186,1.632,1.632,0,0,1-.128-.142,1.38,1.38,0,0,1-.108-.155c.12-.331.263-.807.263-.807l1.109.342Z" transform="translate(-222.681 -138.405)" fill="#612115" opacity="0.25"/>
      <path id="Path_140923" data-name="Path 140923" d="M243.665,151.2l.312-.849.588.082-.235.639a2.07,2.07,0,0,1-.2.061c-.063.016-.129.029-.2.04A2.549,2.549,0,0,1,243.665,151.2Z" transform="translate(-241.397 -148.191)" fill="#f5ff71" opacity="0.42"/>
      <path id="Path_140924" data-name="Path 140924" d="M224.058,127.676a1.963,1.963,0,0,1-1.361-1.042.924.924,0,0,1-.015-.675c0-.013.01-.026.015-.038a1.026,1.026,0,0,1,.241-.341,1.492,1.492,0,0,1,.472-.3,1.963,1.963,0,0,1,.294-.092,2.39,2.39,0,0,1,.464-.061h.046a2.673,2.673,0,0,1,.45.03,2.8,2.8,0,0,1,.312.065,2.023,2.023,0,0,1,1.326.962,1.058,1.058,0,0,1,.1.313v.006a.888.888,0,0,1-.018.336.848.848,0,0,1-.031.1c-.012.031-.025.061-.039.091a1.1,1.1,0,0,1-.308.368,1.584,1.584,0,0,1-.449.243,2.377,2.377,0,0,1-.951.124h0A2.782,2.782,0,0,1,224.058,127.676Z" transform="translate(-222.488 -125.128)" fill="#f9eb40"/>
      <path id="Path_140925" data-name="Path 140925" d="M225.4,128.681a1.809,1.809,0,0,1-1.255-.961.852.852,0,0,1-.014-.623c0-.012.009-.024.014-.035a.945.945,0,0,1,.222-.315,1.376,1.376,0,0,1,.435-.273,1.826,1.826,0,0,1,.271-.085,2.206,2.206,0,0,1,.428-.056h.042a2.467,2.467,0,0,1,.415.027,2.6,2.6,0,0,1,.288.06,1.866,1.866,0,0,1,1.223.887.973.973,0,0,1,.09.289v.005a.817.817,0,0,1-.016.31.783.783,0,0,1-.028.092c-.011.028-.023.057-.036.084a1.014,1.014,0,0,1-.284.339,1.464,1.464,0,0,1-.414.224,2.193,2.193,0,0,1-.877.114h0A2.576,2.576,0,0,1,225.4,128.681Z" transform="translate(-223.797 -126.229)" fill="none" stroke="#f2a100" stroke-width="0.685" opacity="0.4"/>
      <path id="Path_140926" data-name="Path 140926" d="M235.959,126.845l-2.678-1.648a2.389,2.389,0,0,1,.464-.061h.046l2.185,1.369v.006A.889.889,0,0,1,235.959,126.845Z" transform="translate(-232.065 -125.134)" fill="#fff" opacity="0.42"/>
      <path id="Path_140927" data-name="Path 140927" d="M224.6,136.231h0L222.7,135.1a.924.924,0,0,1-.015-.675c0-.013.01-.026.015-.038l2.857,1.721A2.377,2.377,0,0,1,224.6,136.231Z" transform="translate(-222.488 -133.594)" fill="#fff" opacity="0.42"/>
      <path id="Path_140928" data-name="Path 140928" d="M228.917,131.544c-.742-.2-1.209-.719-1.043-1.163a.582.582,0,0,1,.11-.181.9.9,0,0,1,.349-.233,1.948,1.948,0,0,1,1.185-.03c.742.2,1.209.719,1.043,1.162a.529.529,0,0,1-.024.055h0a.644.644,0,0,1-.155.194,1.063,1.063,0,0,1-.4.2A2.027,2.027,0,0,1,228.917,131.544Z" transform="translate(-227.175 -129.456)" fill="#f4c500"/>
      <path id="Path_140929" data-name="Path 140929" d="M231.257,132.7l-2-1.354a.9.9,0,0,1,.349-.233l2.049,1.382A1.064,1.064,0,0,1,231.257,132.7Z" transform="translate(-228.447 -130.597)" fill="#c57f2a" opacity="0.38"/>
      <path id="Path_140930" data-name="Path 140930" d="M228.171,130.381c.166-.443.9-.642,1.644-.443s1.209.719,1.043,1.162a.515.515,0,0,1-.024.055c.006-.025.193-.725-.939-1.09A1.467,1.467,0,0,0,228.171,130.381Z" transform="translate(-227.472 -129.456)" fill="#612115" opacity="0.38"/>
    </g>
    <g id="Group_60075" data-name="Group 60075" transform="translate(143.471 126.286)">
      <path id="Path_140933" data-name="Path 140933" d="M206.833,140.415c0,.014,0,.028,0,.042a1.748,1.748,0,0,1-1.149,1.508,2.358,2.358,0,0,1-.919.178c-.06,0-.12,0-.179-.007l-.08-.007a2.344,2.344,0,0,1-.562-.133,2.1,2.1,0,0,1-.642-.377l-.009-.008a1.764,1.764,0,0,1-.366-.44,1.527,1.527,0,0,1-.2-.6,1.449,1.449,0,0,1-.009-.175,1.752,1.752,0,0,1,1.208-1.574,2.39,2.39,0,0,1,.861-.154,2.44,2.44,0,0,1,.381.032l.1.018a2.238,2.238,0,0,1,.71.277,1.913,1.913,0,0,1,.538.483,1.664,1.664,0,0,1,.167.274A1.5,1.5,0,0,1,206.833,140.415Z" transform="translate(-202.719 -138.667)" fill="#f9eb40"/>
      <path id="Path_140934" data-name="Path 140934" d="M208.46,142.279c0,.013,0,.025,0,.038a1.572,1.572,0,0,1-1.033,1.356,2.118,2.118,0,0,1-.826.16,2.213,2.213,0,0,1-.233-.013,1.988,1.988,0,0,1-1.083-.46,1.6,1.6,0,0,1-.337-.4,1.376,1.376,0,0,1-.18-.538,1.342,1.342,0,0,1-.008-.157,1.577,1.577,0,0,1,1.087-1.416,2.09,2.09,0,0,1,.544-.128,2.131,2.131,0,0,1,.23-.011,2.178,2.178,0,0,1,.431.045,1.867,1.867,0,0,1,1.123.683A1.384,1.384,0,0,1,208.46,142.279Z" transform="translate(-204.552 -140.532)" fill="none" stroke="#f2a100" stroke-width="0.742" opacity="0.4"/>
      <path id="Path_140935" data-name="Path 140935" d="M223.4,152c0,.014,0,.028,0,.042a1.748,1.748,0,0,1-1.149,1.508,2.357,2.357,0,0,1-.919.178q-.09,0-.179-.007l2.1-2.385A1.5,1.5,0,0,1,223.4,152Z" transform="translate(-219.289 -150.251)" fill="#fff" opacity="0.29"/>
      <path id="Path_140936" data-name="Path 140936" d="M203.926,140.475l-1.2,1.748a1.521,1.521,0,0,1-.009-.175A1.753,1.753,0,0,1,203.926,140.475Z" transform="translate(-202.718 -140.32)" fill="#fff" opacity="0.42"/>
      <path id="Path_140937" data-name="Path 140937" d="M211.072,139.332l-2.033,3a2.1,2.1,0,0,1-.642-.377l-.009-.008,1.876-2.91.1.018A2.238,2.238,0,0,1,211.072,139.332Z" transform="translate(-207.814 -139.005)" fill="#fff" opacity="0.42"/>
      <path id="Path_140938" data-name="Path 140938" d="M211.779,146.083a1.048,1.048,0,0,1-.089.415h0a1.442,1.442,0,0,1-1.347.784c-.041,0-.082,0-.123,0a1.611,1.611,0,0,1-.563-.147,1.192,1.192,0,0,1-.736-1.063,1.055,1.055,0,0,1,.158-.546h0a1.48,1.48,0,0,1,1.279-.654,1.6,1.6,0,0,1,.833.231,1.325,1.325,0,0,1,.378.345A1.068,1.068,0,0,1,211.779,146.083Z" transform="translate(-208.292 -144.338)" fill="#f4c500"/>
      <path id="Path_140939" data-name="Path 140939" d="M218.1,147.915l-1.349,1.834a1.611,1.611,0,0,1-.563-.147l1.535-2.032A1.326,1.326,0,0,1,218.1,147.915Z" transform="translate(-214.822 -146.808)" fill="#c57f2a" opacity="0.38"/>
      <path id="Path_140940" data-name="Path 140940" d="M213.1,146.5a1.189,1.189,0,0,0-.855-1.436,1.735,1.735,0,0,0-1.756.462,1.479,1.479,0,0,1,1.279-.654,1.33,1.33,0,0,1,1.421,1.214,1.045,1.045,0,0,1-.09.415Z" transform="translate(-209.701 -144.338)" fill="#612115" opacity="0.38"/>
    </g>
    <g id="Group_60081" data-name="Group 60081" transform="translate(141.846 126.536)">
      <g id="Group_60078" data-name="Group 60078" transform="translate(0.305 0)">
        <g id="Group_60077" data-name="Group 60077">
          <path id="Path_140943" data-name="Path 140943" d="M211.614,169.421l.353-.251-.255-.044Z" transform="translate(-209.393 -166.77)" fill="#d1a119"/>
          <path id="Path_140944" data-name="Path 140944" d="M190.2,144.152l-.392.279.364.029Z" transform="translate(-189.794 -143.932)" fill="#d1a119"/>
          <g id="Group_60076" data-name="Group 60076">
            <path id="Path_140945" data-name="Path 140945" d="M192.193,142.171a1.92,1.92,0,0,1,.144.163c.016.02.032.041.047.063l.033.047a1.53,1.53,0,0,1,.117.207,1.377,1.377,0,0,1,.053.129,1.284,1.284,0,0,1,.059.224,1.18,1.18,0,0,1,.016.156,1.048,1.048,0,0,1-.006.157c0,.03-.008.06-.014.09a.958.958,0,0,1-.074.219.948.948,0,0,1-.309.362,1.133,1.133,0,0,1-.322.158h0a1.86,1.86,0,0,1-1.783-.523,1.273,1.273,0,0,1-.334-1.527h0a.957.957,0,0,1,.253-.277l0,0,.012-.009a1.237,1.237,0,0,1,.623-.214,1.6,1.6,0,0,1,.236,0c.039,0,.078.007.117.012.06.008.121.02.181.034s.112.029.167.048a2.032,2.032,0,0,1,.214.087l.056.027c.044.023.088.047.132.073a2.15,2.15,0,0,1,.234.166q.053.045.1.092Z" transform="translate(-189.684 -141.587)" fill="#d1a119"/>
          </g>
        </g>
      </g>
      <path id="Path_140946" data-name="Path 140946" d="M207.456,151.05l.033.047a1.528,1.528,0,0,1,.117.207,1.388,1.388,0,0,1,.053.129,1.287,1.287,0,0,1,.059.224,1.186,1.186,0,0,1,.016.156,1.056,1.056,0,0,1-.006.157c-.273.2-.643.493-.643.493l-.631-.692Z" transform="translate(-204.449 -150.241)" fill="#612115" opacity="0.25"/>
      <path id="Path_140947" data-name="Path 140947" d="M199.187,141.942l-.7.5-.389-.294.529-.38q.09.012.181.034c.056.013.112.029.167.048A2.043,2.043,0,0,1,199.187,141.942Z" transform="translate(-196.939 -141.757)" fill="#f5ff71" opacity="0.42"/>
      <path id="Path_140948" data-name="Path 140948" d="M189.177,144.7a1.361,1.361,0,0,1,.428,1.31.938.938,0,0,1-.364.506l-.033.022a1.17,1.17,0,0,1-.368.157,1.528,1.528,0,0,1-.514.032,1.787,1.787,0,0,1-.268-.048,1.977,1.977,0,0,1-.377-.138l-.035-.017a2.011,2.011,0,0,1-.511-.372,1.392,1.392,0,0,1-.447-1.237.938.938,0,0,1,.1-.27l0,0a.976.976,0,0,1,.278-.3c.026-.018.052-.036.08-.052a1.239,1.239,0,0,1,.432-.15,1.582,1.582,0,0,1,.467,0,1.964,1.964,0,0,1,.773.285h0A1.991,1.991,0,0,1,189.177,144.7Z" transform="translate(-186.667 -143.903)" fill="#f9eb40"/>
      <path id="Path_140949" data-name="Path 140949" d="M190.127,145.852a1.255,1.255,0,0,1,.395,1.208.866.866,0,0,1-.336.466l-.03.02a1.078,1.078,0,0,1-.339.145,1.414,1.414,0,0,1-.474.029,1.648,1.648,0,0,1-.247-.045,1.819,1.819,0,0,1-.348-.128l-.032-.016a1.848,1.848,0,0,1-.292-.185,1.827,1.827,0,0,1-.18-.158,1.283,1.283,0,0,1-.412-1.141.867.867,0,0,1,.094-.249l0,0a.859.859,0,0,1,.184-.223.871.871,0,0,1,.072-.057c.024-.017.048-.033.073-.048a1.142,1.142,0,0,1,.4-.138,1.457,1.457,0,0,1,.431,0,1.812,1.812,0,0,1,.713.263h0A1.843,1.843,0,0,1,190.127,145.852Z" transform="translate(-187.697 -144.995)" fill="none" stroke="#f2a100" stroke-width="0.6" opacity="0.4"/>
      <path id="Path_140950" data-name="Path 140950" d="M188.091,147.412l1.066,2.281a1.975,1.975,0,0,1-.377-.139l-.035-.017-.856-1.879,0,0A.931.931,0,0,1,188.091,147.412Z" transform="translate(-187.765 -146.914)" fill="#fff" opacity="0.42"/>
      <path id="Path_140951" data-name="Path 140951" d="M201.1,144.6h0l.782,1.592a.938.938,0,0,1-.364.506l-.033.022-1.158-2.406A1.964,1.964,0,0,1,201.1,144.6Z" transform="translate(-198.944 -144.082)" fill="#fff" opacity="0.42"/>
      <path id="Path_140952" data-name="Path 140952" d="M192.529,149.276c.439.441.5,1.011.126,1.274a.667.667,0,0,1-.182.09.932.932,0,0,1-.387.034,1.529,1.529,0,0,1-.894-.448c-.439-.441-.5-1.011-.126-1.273.015-.011.032-.022.048-.031h0a.724.724,0,0,1,.223-.082,1.048,1.048,0,0,1,.406.006A1.562,1.562,0,0,1,192.529,149.276Z" transform="translate(-190.402 -148.203)" fill="#f4c500"/>
      <path id="Path_140953" data-name="Path 140953" d="M196.321,148.845l.729,1.8a.932.932,0,0,1-.387.034l-.748-1.835A1.048,1.048,0,0,1,196.321,148.845Z" transform="translate(-194.979 -148.203)" fill="#c57f2a" opacity="0.38"/>
      <path id="Path_140954" data-name="Path 140954" d="M192.655,151.616a1.229,1.229,0,0,1-1.463-.324c-.439-.441-.5-1.011-.126-1.273.016-.011.032-.021.048-.031-.018.016-.546.46.089,1.178A1.3,1.3,0,0,0,192.655,151.616Z" transform="translate(-190.402 -149.269)" fill="#612115" opacity="0.38"/>
    </g>
    <g id="Group_60087" data-name="Group 60087" transform="translate(149.908 126.144)">
      <g id="Group_60084" data-name="Group 60084" transform="translate(0 0)">
        <g id="Group_60083" data-name="Group 60083">
          <path id="Path_140957" data-name="Path 140957" d="M286.565,137.357l-.534-.093.138.232Z" transform="translate(-284.032 -137.242)" fill="#d1a119"/>
          <path id="Path_140958" data-name="Path 140958" d="M278.062,173.627l.593.1-.234-.307Z" transform="translate(-276.87 -170.308)" fill="#d1a119"/>
          <g id="Group_60082" data-name="Group 60082">
            <path id="Path_140959" data-name="Path 140959" d="M266.338,138.406a1.925,1.925,0,0,1,.073-.232c.01-.028.022-.055.034-.083s.018-.04.028-.06a1.8,1.8,0,0,1,.142-.243q.048-.071.1-.136a1.888,1.888,0,0,1,.363-.336,1.734,1.734,0,0,1,.177-.11c.036-.02.072-.038.109-.054a1.692,1.692,0,0,1,.295-.1,1.523,1.523,0,0,1,.624-.022,1.412,1.412,0,0,1,.409.137h0a1.549,1.549,0,0,1,.731,1.78,1.839,1.839,0,0,1-1.433,1.38h0a1.519,1.519,0,0,1-.489,0H267.5l-.018,0a1.4,1.4,0,0,1-.692-.331,1.417,1.417,0,0,1-.174-.184c-.026-.032-.05-.066-.073-.1a1.558,1.558,0,0,1-.1-.167,1.427,1.427,0,0,1-.069-.166,1.6,1.6,0,0,1-.061-.232c0-.021-.007-.042-.011-.064-.008-.051-.013-.1-.016-.157a1.859,1.859,0,0,1,.011-.306c.007-.05.015-.1.025-.149Z" transform="translate(-266.286 -137.005)" fill="#d1a119"/>
          </g>
        </g>
      </g>
      <path id="Path_140960" data-name="Path 140960" d="M267.862,140.246c.009-.02.018-.04.028-.06a1.794,1.794,0,0,1,.142-.243q.048-.071.1-.136a1.88,1.88,0,0,1,.363-.336,1.731,1.731,0,0,1,.177-.11c.417.069,1.012.143,1.012.143l-.3,1Z" transform="translate(-267.702 -139.159)" fill="#612115" opacity="0.25"/>
      <path id="Path_140961" data-name="Path 140961" d="M266.571,162l1.068.181-.038.52-.8-.136a1.521,1.521,0,0,1-.095-.167,1.463,1.463,0,0,1-.069-.166A1.644,1.644,0,0,1,266.571,162Z" transform="translate(-266.542 -159.859)" fill="#f5ff71" opacity="0.42"/>
      <path id="Path_140962" data-name="Path 140962" d="M270.9,139.349a1.865,1.865,0,0,1,1.125-1.295,1.55,1.55,0,0,1,.822-.085l.048.009a1.4,1.4,0,0,1,.852.553,1.45,1.45,0,0,1,.143.246,1.573,1.573,0,0,1,.124.4l.006.04a1.68,1.68,0,0,1,.012.395,1.814,1.814,0,0,1-.046.278,1.872,1.872,0,0,1-1.032,1.256,1.649,1.649,0,0,1-.371.118l-.007,0a1.511,1.511,0,0,1-.411.02c-.042,0-.084-.009-.126-.016s-.077-.015-.115-.025a1.4,1.4,0,0,1-.825-.594,1.573,1.573,0,0,1-.252-.815h0A1.778,1.778,0,0,1,270.9,139.349Z" transform="translate(-270.383 -137.867)" fill="#f9eb40"/>
      <path id="Path_140963" data-name="Path 140963" d="M272.122,140.762a1.72,1.72,0,0,1,1.038-1.194,1.429,1.429,0,0,1,.758-.078l.045.009a1.29,1.29,0,0,1,.786.51,1.342,1.342,0,0,1,.132.227,1.448,1.448,0,0,1,.114.366l.006.037a1.548,1.548,0,0,1,.011.364,1.671,1.671,0,0,1-.042.256,1.726,1.726,0,0,1-.951,1.158,1.522,1.522,0,0,1-.342.109h-.007a1.392,1.392,0,0,1-.379.019c-.039,0-.077-.008-.116-.015s-.071-.014-.106-.023a1.288,1.288,0,0,1-.76-.548,1.449,1.449,0,0,1-.233-.751h0A1.639,1.639,0,0,1,272.122,140.762Z" transform="translate(-271.488 -139.259)" fill="none" stroke="#f2a100" stroke-width="0.709" opacity="0.4"/>
      <path id="Path_140964" data-name="Path 140964" d="M283.863,150.153l1.725-2.505a1.571,1.571,0,0,1,.124.4l.006.04-1.437,2.047-.007,0A1.51,1.51,0,0,1,283.863,150.153Z" transform="translate(-282.083 -146.738)" fill="#fff" opacity="0.42"/>
      <path id="Path_140965" data-name="Path 140965" d="M270.854,139.833h0l1.177-1.779a1.55,1.55,0,0,1,.822-.085l.048.009-1.795,2.669A1.573,1.573,0,0,1,270.854,139.833Z" transform="translate(-270.392 -137.867)" fill="#fff" opacity="0.42"/>
      <path id="Path_140966" data-name="Path 140966" d="M276.7,144.349A1.247,1.247,0,0,1,278,143.318a.835.835,0,0,1,.232.076.875.875,0,0,1,.321.279,1.351,1.351,0,0,1-1.144,2.059c-.023,0-.047-.009-.069-.015h0a.834.834,0,0,1-.253-.115.925.925,0,0,1-.291-.323A1.293,1.293,0,0,1,276.7,144.349Z" transform="translate(-275.605 -142.766)" fill="#f4c500"/>
      <path id="Path_140967" data-name="Path 140967" d="M278.071,146.234l1.438-1.885a.874.874,0,0,1,.321.279l-1.468,1.929A.924.924,0,0,1,278.071,146.234Z" transform="translate(-276.878 -143.721)" fill="#c57f2a" opacity="0.38"/>
      <path id="Path_140968" data-name="Path 140968" d="M284.117,143.456a1.061,1.061,0,0,1,.715,1.383,1.247,1.247,0,0,1-1.306,1.031c-.023,0-.047-.009-.069-.015a1.188,1.188,0,0,0,1.229-.932A1.113,1.113,0,0,0,284.117,143.456Z" transform="translate(-281.717 -142.904)" fill="#612115" opacity="0.38"/>
    </g>
    <g id="Group_60089" data-name="Group 60089" transform="translate(146.462 127.122)">
      <path id="Path_140971" data-name="Path 140971" d="M236.37,150.181c0,.014,0,.028,0,.042a1.748,1.748,0,0,1-1.149,1.508,2.359,2.359,0,0,1-.919.178c-.06,0-.12,0-.179-.007l-.08-.007a2.348,2.348,0,0,1-.562-.133,2.1,2.1,0,0,1-.642-.377l-.009-.008a1.768,1.768,0,0,1-.365-.44,1.527,1.527,0,0,1-.2-.6,1.447,1.447,0,0,1-.009-.175,1.753,1.753,0,0,1,1.208-1.574,2.391,2.391,0,0,1,.861-.154,2.436,2.436,0,0,1,.381.032l.1.018a2.241,2.241,0,0,1,.71.277,1.912,1.912,0,0,1,.538.483,1.654,1.654,0,0,1,.167.274A1.5,1.5,0,0,1,236.37,150.181Z" transform="translate(-232.256 -148.433)" fill="#f9eb40"/>
      <path id="Path_140972" data-name="Path 140972" d="M238,152.045c0,.013,0,.025,0,.038a1.572,1.572,0,0,1-1.034,1.356,2.119,2.119,0,0,1-.826.16,2.213,2.213,0,0,1-.233-.013,1.988,1.988,0,0,1-1.083-.46,1.594,1.594,0,0,1-.337-.4,1.375,1.375,0,0,1-.179-.538,1.361,1.361,0,0,1-.008-.157,1.577,1.577,0,0,1,1.087-1.416,2.1,2.1,0,0,1,.544-.128,2.194,2.194,0,0,1,.661.034,1.866,1.866,0,0,1,1.123.683A1.384,1.384,0,0,1,238,152.045Z" transform="translate(-234.089 -150.298)" fill="none" stroke="#f2a100" stroke-width="0.742" opacity="0.4"/>
      <path id="Path_140973" data-name="Path 140973" d="M252.942,161.765c0,.014,0,.028,0,.042a1.748,1.748,0,0,1-1.149,1.508,2.358,2.358,0,0,1-.919.178c-.06,0-.12,0-.179-.007l2.1-2.385A1.5,1.5,0,0,1,252.942,161.765Z" transform="translate(-248.827 -160.017)" fill="#fff" opacity="0.29"/>
      <path id="Path_140974" data-name="Path 140974" d="M233.463,150.241l-1.2,1.748a1.513,1.513,0,0,1-.009-.175A1.753,1.753,0,0,1,233.463,150.241Z" transform="translate(-232.256 -150.086)" fill="#fff" opacity="0.42"/>
      <path id="Path_140975" data-name="Path 140975" d="M240.609,149.1l-2.033,3a2.1,2.1,0,0,1-.642-.378l-.009-.008,1.876-2.91.1.018A2.241,2.241,0,0,1,240.609,149.1Z" transform="translate(-237.351 -148.771)" fill="#fff" opacity="0.42"/>
      <path id="Path_140976" data-name="Path 140976" d="M241.316,155.85a1.048,1.048,0,0,1-.089.415h0a1.442,1.442,0,0,1-1.347.784c-.041,0-.083,0-.123,0a1.613,1.613,0,0,1-.563-.146,1.192,1.192,0,0,1-.736-1.063,1.056,1.056,0,0,1,.158-.546h0a1.48,1.48,0,0,1,1.279-.654,1.605,1.605,0,0,1,.833.231,1.323,1.323,0,0,1,.378.345A1.069,1.069,0,0,1,241.316,155.85Z" transform="translate(-237.829 -154.105)" fill="#f4c500"/>
      <path id="Path_140977" data-name="Path 140977" d="M247.635,157.681l-1.349,1.834a1.614,1.614,0,0,1-.563-.146l1.535-2.032A1.323,1.323,0,0,1,247.635,157.681Z" transform="translate(-244.359 -156.574)" fill="#c57f2a" opacity="0.38"/>
      <path id="Path_140978" data-name="Path 140978" d="M242.636,156.263a1.189,1.189,0,0,0-.855-1.436,1.735,1.735,0,0,0-1.756.462,1.479,1.479,0,0,1,1.279-.654,1.33,1.33,0,0,1,1.421,1.214,1.044,1.044,0,0,1-.089.415Z" transform="translate(-239.238 -154.104)" fill="#612115" opacity="0.38"/>
    </g>
    <g id="Group_60091" data-name="Group 60091" transform="translate(141.023 128.528)">
      <g id="Group_60090" data-name="Group 60090" transform="translate(0 0)">
        <path id="Path_140981" data-name="Path 140981" d="M181.638,173.812a3.616,3.616,0,0,0-.242-.386,9.339,9.339,0,0,0-1.957-1.978c-1.357-1.045-1-1.616-.13-1.875a3.879,3.879,0,0,1,.608-.123,10.858,10.858,0,0,0,1.019,2A5.484,5.484,0,0,1,181.638,173.812Z" transform="translate(-178.535 -169.058)" fill="#f7961d"/>
        <path id="Path_140982" data-name="Path 140982" d="M276,166.686a7.641,7.641,0,0,0-2.741,2.777h0c-.008-.036-.178-.884,1-2.021a5.491,5.491,0,0,0,1.5-2.472h0C277.844,164.555,277.975,165.463,276,166.686Z" transform="translate(-263.653 -164.867)" fill="#f7961d"/>
      </g>
    </g>
    <path id="Path_140983" data-name="Path 140983" d="M156.215,179.27c-1.111.571-1.739-.489-3.717-.2s-1.545,1.223-6.854,1.141-5.069-1.386-6.42-1.141c-1,.18-1.443.317-1.841.1a1.112,1.112,0,0,1-.178-.123l0,0a2.122,2.122,0,0,1-.248-.256c-.579-.693.628-1.02.483-2.446s.1-3.507,2.655-6.28c2.408-2.61,3.534-3.378,3.938-5.569.025-.136.048-.277.068-.425a3.715,3.715,0,0,0,.031-.4c0-.1,0-.2,0-.293q0-.094-.015-.185a.446.446,0,0,0-.006-.053q0-.035-.009-.069c-.225-1.571-1.437-2.585-1.638-3.606A2.672,2.672,0,0,1,142.4,159c-.022-.855.541-1.079,1.5-.938.06.009.124.02.19.033,1.166.223,3.315,1.005,5.553.619l.077-.014c2.3-.407,2.92-1,3.3-.312a.923.923,0,0,1,.1.321,4.014,4.014,0,0,1-1.648,3.023,2.253,2.253,0,0,0-.859,1.47,2.113,2.113,0,0,0,.167,1.007,3.4,3.4,0,0,0,.214.431,5.231,5.231,0,0,0,.381.558c.821,1.06,3.813,3.629,4.393,6.565s.725,3.1.725,4.4S157.325,178.7,156.215,179.27Z" transform="translate(0 -30.084)" fill="#ffc708"/>
    <path id="Path_140984" data-name="Path 140984" d="M215.216,222.128a29.857,29.857,0,0,0-6.976-.159c.025-.136.048-.277.068-.425a3.715,3.715,0,0,0,.031-.4c.666-.083,1.507-.156,2.436-.238A11.142,11.142,0,0,1,215,221.7,3.389,3.389,0,0,0,215.216,222.128Z" transform="translate(-64.209 -87.567)" fill="#021559" opacity="0.38"/>
    <path id="Path_140985" data-name="Path 140985" d="M141.729,169.145c-2.482,2.779-3.8,4.32-3.6,6.244s-1.648,2.806-.93,3.647a2.122,2.122,0,0,1-.248-.256c-.579-.693.628-1.02.483-2.446s.1-3.507,2.655-6.28,3.669-3.466,4.006-5.994a3.616,3.616,0,0,0,.027-.695q0-.094-.015-.185a.446.446,0,0,0-.006-.053q0-.035-.009-.069c-.225-1.571-1.437-2.585-1.638-3.606A2.672,2.672,0,0,1,142.4,159c-.022-.855.541-1.079,1.5-.938.06.009.124.02.19.033-.347.013-.89.129-.791.744.144.892,1.271,1.861,1.593,4.263S144.211,166.365,141.729,169.145Z" transform="translate(0 -30.084)" fill="#f6f7f9" opacity="0.85"/>
    <path id="Path_140986" data-name="Path 140986" d="M161.422,179.816c-1.111.571-1.739-.489-3.717-.2s-1.545,1.223-6.854,1.141-5.069-1.386-6.42-1.141c-1,.18-1.443.317-1.841.1,1.3-.181,2.161-.829,3.045-.618a36.283,36.283,0,0,0,7.575.217,5.992,5.992,0,0,0,4.809-4.369c.654-2.792-1.363-5.419-2.744-8.1s-1.1-3.688.114-4.7,1.925-1.962,1.21-2.52a2.661,2.661,0,0,0-1.666-.36c2.3-.407,2.92-1,3.3-.312a.924.924,0,0,1,.1.321c2.082-.413,2.212.494.234,1.718a7.641,7.641,0,0,0-2.741,2.777h0a2.912,2.912,0,0,0,.761,2c.821,1.06,3.813,3.629,4.393,6.565s.725,3.1.725,4.4S162.532,179.246,161.422,179.816Z" transform="translate(-5.207 -30.63)" fill="#d03f30" opacity="0.503"/>
    <g id="Group_60092" data-name="Group 60092" transform="translate(143.6 132.799)">
      <path id="Path_140987" data-name="Path 140987" d="M204.227,215.543a.236.236,0,0,1-.236-.162.207.207,0,0,1,.187-.241,21.424,21.424,0,0,1,7.03-.053.2.2,0,0,1,.171.25.249.249,0,0,1-.3.144,21.27,21.27,0,0,0-6.807.058A.287.287,0,0,1,204.227,215.543Z" transform="translate(-203.986 -214.801)" fill="#632b1a"/>
    </g>
    <g id="Group_60093" data-name="Group 60093" transform="translate(143.6 133.17)">
      <path id="Path_140988" data-name="Path 140988" d="M204.227,219.88a.235.235,0,0,1-.236-.162.207.207,0,0,1,.187-.241,21.424,21.424,0,0,1,7.03-.053.2.2,0,0,1,.171.25.248.248,0,0,1-.3.144,21.271,21.271,0,0,0-6.807.058A.287.287,0,0,1,204.227,219.88Z" transform="translate(-203.986 -219.138)" fill="#8e420e"/>
    </g>
    <g id="Group_60094" data-name="Group 60094" transform="translate(143.6 133.541)">
      <path id="Path_140989" data-name="Path 140989" d="M204.227,224.216a.235.235,0,0,1-.236-.162.207.207,0,0,1,.187-.241,21.422,21.422,0,0,1,7.03-.053.2.2,0,0,1,.171.25.248.248,0,0,1-.3.144,21.269,21.269,0,0,0-6.807.058A.287.287,0,0,1,204.227,224.216Z" transform="translate(-203.986 -223.474)" fill="#632b1a"/>
    </g>
    <g id="Group_60097" data-name="Group 60097" transform="translate(148.509 132.656)">
      <g id="Group_60095" data-name="Group 60095" transform="translate(0 0)">
        <path id="Path_140990" data-name="Path 140990" d="M252.758,214.616a.223.223,0,0,1-.045,0,.164.164,0,0,1-.143-.2,1.147,1.147,0,0,0-.065-1.022.148.148,0,0,1,.041-.227.216.216,0,0,1,.267.03,1.37,1.37,0,0,1,.132,1.295A.19.19,0,0,1,252.758,214.616Z" transform="translate(-252.469 -213.133)" fill="#632b1a"/>
      </g>
      <g id="Group_60096" data-name="Group 60096" transform="translate(0.792 0)">
        <path id="Path_140991" data-name="Path 140991" d="M260.581,214.616a.223.223,0,0,1-.045,0,.164.164,0,0,1-.143-.2,1.146,1.146,0,0,0-.065-1.022.148.148,0,0,1,.041-.227.216.216,0,0,1,.267.03,1.37,1.37,0,0,1,.132,1.295A.19.19,0,0,1,260.581,214.616Z" transform="translate(-260.292 -213.133)" fill="#632b1a"/>
      </g>
    </g>
    <g id="Group_60098" data-name="Group 60098" transform="translate(148.714 133.636)">
      <path id="Path_140992" data-name="Path 140992" d="M255.365,229.724a.192.192,0,0,1-.184-.115,4.672,4.672,0,0,1-.234-2.074,2.387,2.387,0,0,0-.154-1.307,1.665,1.665,0,0,1-.192-1.551.21.21,0,0,1,.258-.075.153.153,0,0,1,.089.217,1.463,1.463,0,0,0,.2,1.278,2.63,2.63,0,0,1,.187,1.455,4.437,4.437,0,0,0,.217,1.961.16.16,0,0,1-.128.2A.225.225,0,0,1,255.365,229.724Z" transform="translate(-254.498 -224.586)" fill="#632b1a"/>
    </g>
    <g id="Group_60099" data-name="Group 60099" transform="translate(149.336 133.636)">
      <path id="Path_140993" data-name="Path 140993" d="M262.668,231.192a.207.207,0,0,1-.154-.065,4.91,4.91,0,0,1-1.07-3.243,3.994,3.994,0,0,0-.333-1.677c-.666-1.152-.477-1.486-.365-1.576a.219.219,0,0,1,.273.006.145.145,0,0,1,.014.211c-.013.031-.1.306.426,1.216a4.172,4.172,0,0,1,.371,1.8,4.673,4.673,0,0,0,.993,3.064.147.147,0,0,1-.038.228A.216.216,0,0,1,262.668,231.192Zm-1.656-6.325h0Zm0,0h0Z" transform="translate(-260.632 -224.586)" fill="#632b1a"/>
    </g>
    <g id="Group_60101" data-name="Group 60101" transform="translate(149.07 138.257)">
      <g id="Group_60100" data-name="Group 60100" transform="translate(0 0)">
        <path id="Path_140994" data-name="Path 140994" d="M276.874,296.291a.62.62,0,1,1-.611-.517A.57.57,0,0,1,276.874,296.291Z" transform="translate(-273.865 -294.306)" fill="#300801"/>
        <ellipse id="Ellipse_6012" data-name="Ellipse 6012" cx="0.611" cy="0.517" rx="0.611" ry="0.517" fill="#300801"/>
      </g>
    </g>
    <g id="Group_60102" data-name="Group 60102" transform="translate(148.905 132.656)">
      <path id="Path_140995" data-name="Path 140995" d="M256.669,214.616a.224.224,0,0,1-.045,0,.164.164,0,0,1-.143-.2,1.146,1.146,0,0,0-.065-1.022.148.148,0,0,1,.041-.227.216.216,0,0,1,.267.03,1.37,1.37,0,0,1,.132,1.295A.19.19,0,0,1,256.669,214.616Z" transform="translate(-256.38 -213.133)" fill="#8e420e"/>
    </g>
    <path id="Path_140996" data-name="Path 140996" d="M181.4,174.743a9.339,9.339,0,0,0-1.957-1.978c-1.357-1.045-1-1.616-.13-1.875,0,0-.778.435.083,1.162A5.769,5.769,0,0,1,181.4,174.743Z" transform="translate(-37.512 -41.847)" fill="#f6f7f9" opacity="0.29"/>
  </g>
</svg>
