<svg xmlns="http://www.w3.org/2000/svg" xmlns:xlink="http://www.w3.org/1999/xlink" width="285.36" height="236.061" viewBox="0 0 285.36 236.061">
  <defs>
    <filter id="Accumulate_Coins_Redeem_Exciting_Prizes" x="2.86" y="0" width="281" height="62" filterUnits="userSpaceOnUse">
      <feOffset dy="6" input="SourceAlpha"/>
      <feGaussianBlur stdDeviation="2.5" result="blur"/>
      <feFlood/>
      <feComposite operator="in" in2="blur"/>
      <feComposite in="SourceGraphic"/>
    </filter>
  </defs>
  <g id="Group_63317" data-name="Group 63317" transform="translate(-44.82 -672)">
    <g id="Group_60433" data-name="Group 60433" transform="translate(-67.52 712.364)">
      <g id="Group_60431" data-name="Group 60431">
        <path id="Path_141477" data-name="Path 141477" d="M161.6,156.824a10,10,0,1,1,10-10A10.011,10.011,0,0,1,161.6,156.824Zm0-17a7,7,0,1,0,7,7A7.008,7.008,0,0,0,161.6,139.824Z" fill="#ef9926"/>
        <path id="Path_141478" data-name="Path 141478" d="M378.413,101.755a3.5,3.5,0,1,1,3.5-3.5A3.5,3.5,0,0,1,378.413,101.755Zm0-6a2.5,2.5,0,1,0,2.5,2.5A2.5,2.5,0,0,0,378.413,95.755Z" fill="#ffeb97"/>
        <path id="Path_141479" data-name="Path 141479" d="M195.656,193.735a4.1,4.1,0,1,1,4.1-4.1A4.1,4.1,0,0,1,195.656,193.735Zm0-7a2.9,2.9,0,1,0,2.9,2.9A2.9,2.9,0,0,0,195.656,186.735Z" fill="#ea3f3f"/>
        <circle id="Ellipse_6067" data-name="Ellipse 6067" cx="4.5" cy="4.5" r="4.5" transform="translate(335.533 134.519)" fill="#ffae1f"/>
        <circle id="Ellipse_6068" data-name="Ellipse 6068" cx="3.5" cy="3.5" r="3.5" transform="translate(150.25 85.213)" fill="#ffae1f"/>
        <circle id="Ellipse_6069" data-name="Ellipse 6069" cx="4" cy="4" r="4" transform="translate(301.596 63.036)" fill="#ffd522"/>
        <circle id="Ellipse_6070" data-name="Ellipse 6070" cx="4" cy="4" r="4" transform="translate(113.557 163.74)" fill="#ffd522"/>
        <circle id="Ellipse_6071" data-name="Ellipse 6071" cx="3" cy="3" r="3" transform="translate(378.046 172.413)" fill="#ffd522"/>
        <circle id="Ellipse_6072" data-name="Ellipse 6072" cx="4.5" cy="4.5" r="4.5" transform="translate(174.493 120.94)" fill="#e54242"/>
        <circle id="Ellipse_6073" data-name="Ellipse 6073" cx="1.5" cy="1.5" r="1.5" transform="translate(277.448 43.136)" fill="#e54242"/>
        <circle id="Ellipse_6074" data-name="Ellipse 6074" cx="1.5" cy="1.5" r="1.5" transform="translate(118.833 156.616)" fill="#e54242"/>
        <circle id="Ellipse_6075" data-name="Ellipse 6075" cx="1.5" cy="1.5" r="1.5" transform="translate(190.656 147.324)" fill="#e54242"/>
        <circle id="Ellipse_6076" data-name="Ellipse 6076" cx="1.5" cy="1.5" r="1.5" transform="translate(308.615 130.791)" fill="#ffae1f"/>
        <circle id="Ellipse_6077" data-name="Ellipse 6077" cx="1.5" cy="1.5" r="1.5" transform="translate(193.581 52.078)" fill="#ffc91f"/>
        <circle id="Ellipse_6078" data-name="Ellipse 6078" cx="2.5" cy="2.5" r="2.5" transform="translate(247.945 61.479)" fill="#ef4b4b"/>
        <circle id="Ellipse_6079" data-name="Ellipse 6079" cx="2.5" cy="2.5" r="2.5" transform="translate(389.235 148.824)" fill="#ef4b4b"/>
        <circle id="Ellipse_6080" data-name="Ellipse 6080" cx="2.5" cy="2.5" r="2.5" transform="translate(325.202 117.658)" fill="#e54242"/>
        <path id="Path_141480" data-name="Path 141480" d="M356.054,177.519l-10.215-10.686L335.433,172.5,334,169.861l12.422-6.761,9.758,10.207,16.214-15.063,2.041,2.2Z" fill="#ffae1f"/>
        <path id="Path_141481" data-name="Path 141481" d="M341.966,99.845l-1.321-14.807,14.734-.02L350.85,69.049l16.931-.976L363.171,56.29l3.725-1.457,6.619,16.916-17.456,1.006,4.611,16.256-15.652.021.933,10.458Z" fill="#ef4b4b"/>
        <path id="Path_141482" data-name="Path 141482" d="M179.349,95.171l-2.854-.924,5.015-15.5L167.8,72.706l5.811-14.518-16.361-4.034.718-2.913,19.71,4.86-6.016,15.028,13.54,5.964Z" fill="#ffae1f"/>
        <path id="Path_141483" data-name="Path 141483" d="M109.221,138.131l-8.286-17.437-10.3,15.032-3.3-2.261L101.564,112.7l8.726,18.363,9.184-9.983,8.363,13.9-3.427,2.063-5.609-9.319Z" transform="translate(25 -8)" fill="#ffe669"/>
        <path id="Path_141484" data-name="Path 141484" d="M131.838,96.648c-8.78-5.817-5.945-17.8-5.82-18.307l2.914.716c-.026.1-2.445,10.447,4.563,15.091Z" fill="#ffae1f"/>
        <path id="Path_141485" data-name="Path 141485" d="M382.341,130.3l-2.59-1.513c5.311-9.1,17.435-6.942,17.949-6.845l-.55,2.949C397.042,124.87,386.581,123.039,382.341,130.3Z" fill="#ffae1f"/>
        <path id="Path_141486" data-name="Path 141486" d="M170.746,175.8l-2.812-1.045a15.259,15.259,0,0,1,16.2-9.076l-.321,2.983C173.915,167.6,170.776,175.722,170.746,175.8Z" fill="#ffae1f"/>
        <path id="Path_141487" data-name="Path 141487" d="M309.072,195.7l-2.781-1.123c1.263-3.129,1.379-5.842.344-8.064a9.641,9.641,0,0,0-5.222-4.57l.93-2.852a12.691,12.691,0,0,1,7.011,6.155C310.755,188.249,310.66,191.766,309.072,195.7Z" fill="#cc3232"/>
        <path id="Path_141488" data-name="Path 141488" d="M205.011,66.31l-1.444-2.628c2.946-1.619,4.749-3.639,5.359-6a9.764,9.764,0,0,0-1.152-6.873l2.527-1.617a12.686,12.686,0,0,1,1.539,9.2C211.024,61.6,208.727,64.27,205.011,66.31Z" fill="#cc3232"/>
        <path id="Path_141489" data-name="Path 141489" d="M330.579,160.79c-12.794-2.417-15.851-14.133-15.975-14.631l2.913-.724-1.457.362,1.456-.366c.106.422,2.753,10.359,13.62,12.41Z" fill="#ef4b4b"/>
        <path id="Path_141490" data-name="Path 141490" d="M310.572,83.849c-1.682,1.138,17.382-1.468,25.838-24.159.7-1.874-7.993-8.036-10.105-5.514S330.287,70.5,310.572,83.849Z" fill="#ffae1f"/>
      </g>
      <g id="Group_60432" data-name="Group 60432">
        <path id="Path_141491" data-name="Path 141491" d="M199.773,109.2s.072,59.157,1.418,61.345,49.864,24.426,51.618,23.9l-.3-63.29Z" fill="#e54242"/>
        <path id="Path_141492" data-name="Path 141492" d="M218.164,179.442s4.275,6.428,13.712,6.428V126.177l-13.712-6.253Z" fill="#ffae1f"/>
        <path id="Path_141493" data-name="Path 141493" d="M231.876,136.145v-9.968l-13.711-6.253v12.312C222.69,133.719,227.25,135.056,231.876,136.145Z" fill="#ffae1f" opacity="0.2" style="mix-blend-mode: multiply;isolation: isolate"/>
        <path id="Path_141494" data-name="Path 141494" d="M252.016,131.4l.793,63.048S299.9,171.612,300.353,169.2s1.69-62.359,1.69-62.359Z" fill="#c13838"/>
        <path id="Path_141495" data-name="Path 141495" d="M274.182,183.859s8.278-.964,12.413-6.391l1.427-59.17-14.05,4.277Z" fill="#ef9926"/>
        <path id="Path_141496" data-name="Path 141496" d="M287.611,135.35l.411-17.052-14.05,4.277.06,17.675C278.6,138.727,283.139,137.118,287.611,135.35Z" fill="#ef9926" opacity="0.17" style="mix-blend-mode: multiply;isolation: isolate"/>
        <path id="Path_141497" data-name="Path 141497" d="M195.081,100.88s-.4,13.407.125,15.21,58.63,25.757,59.9,26.248c0,0-.369-16.261-.391-16.9C254.687,124.664,195.081,100.88,195.081,100.88Z" fill="#ef4b4b"/>
        <path id="Path_141498" data-name="Path 141498" d="M254.714,125.44l.391,16.9s49.7-20.194,50.427-22.624c.362-1.213,1.483-16.456-.379-16.408Z" fill="#d33c3c"/>
        <path id="Path_141499" data-name="Path 141499" d="M254.714,125.44l50.439-22.134S252.2,82.895,249.675,82.953c-2.49.058-54.594,17.927-54.594,17.927Z" fill="#e54242"/>
        <path id="Path_141500" data-name="Path 141500" d="M219.862,92.469,278.2,115.132l1.1,17.121s7.708.816,11.617-5.052l-.988-17.217-58.82-21.271S222.891,88.772,219.862,92.469Z" fill="#ffae1f"/>
        <path id="Path_141501" data-name="Path 141501" d="M268.233,89.329s8.268-.106,12.351,4.616l-50.9,21.187-.229,16.521s-11.294-1.236-14.609-6.213l.434-16.24Z" fill="#ffc91f"/>
        <path id="Path_141502" data-name="Path 141502" d="M288.769,70c-21.132-22.537-40.33,26.156-35.7,30.88C259.37,107.311,311.125,93.842,288.769,70ZM254.482,99.667c-.831-1.122,16.423-43.02,29.787-25.452C299.862,94.714,255.782,101.423,254.482,99.667Z" fill="#ffe424"/>
        <path id="Path_141503" data-name="Path 141503" d="M291.041,72.74c-.049.451-.1.9-.161,1.354a34.517,34.517,0,0,1-3.446,10.158,10.065,10.065,0,0,1-1.9,4.123,2.625,2.625,0,0,1-.869,1.036C277.8,96.874,260.941,100,255.9,99.93a30.016,30.016,0,0,1-3.236.283,1.954,1.954,0,0,0,.4.667C259.124,107.06,307.144,94.86,291.041,72.74Z" fill="#ffbb24" opacity="0.18" style="mix-blend-mode: multiply;isolation: isolate"/>
        <path id="Path_141504" data-name="Path 141504" d="M253.216,99.244c3.219-1.415,3.379-29.252-11.513-22.309C225.948,84.28,248.832,101.172,253.216,99.244ZM243.09,79.906c10.074-6.028,10.3,18.07,9.668,18.46C251.769,98.975,231.336,86.939,243.09,79.906Z" fill="#ffe424"/>
        <path id="Path_141505" data-name="Path 141505" d="M240.039,77.838c-.065.232-.13.465-.188.7a18.348,18.348,0,0,0-.31,5.7,5.358,5.358,0,0,0,.125,2.412,1.38,1.38,0,0,0,.224.683C241.8,92.373,249.5,97.252,252,98.214a15.782,15.782,0,0,0,1.542.78,1.027,1.027,0,0,1-.329.25C249,101.1,227.712,85.571,240.039,77.838Z" fill="#ffbb24" opacity="0.18" style="mix-blend-mode: multiply;isolation: isolate"/>
        <path id="Path_141506" data-name="Path 141506" d="M253.391,100.782c4.628-4.723-14.57-53.416-35.7-30.879C195.334,93.745,247.089,107.214,253.391,100.782Zm-31.2-26.665c13.364-17.568,30.618,24.331,29.787,25.453C250.677,101.325,206.6,94.616,222.189,74.117Z" fill="#ffe424"/>
        <path id="Path_141507" data-name="Path 141507" d="M215.417,72.643c.049.451.1.9.161,1.354a34.517,34.517,0,0,0,3.446,10.158,10.078,10.078,0,0,0,1.9,4.123,2.633,2.633,0,0,0,.869,1.036c6.861,7.463,23.719,10.59,28.755,10.519a30.013,30.013,0,0,0,3.237.283,1.96,1.96,0,0,1-.4.666C247.334,106.963,199.315,94.763,215.417,72.643Z" fill="#ffbb24" opacity="0.18" style="mix-blend-mode: multiply;isolation: isolate"/>
        <path id="Path_141508" data-name="Path 141508" d="M266.467,86.947c-9.044-7.455-13.905,11.8-11.935,13.351C257.215,102.412,276.035,94.833,266.467,86.947ZM255.005,99.773c-.367-.382,4.093-16.984,9.974-11.022C271.84,95.708,255.58,100.37,255.005,99.773Z" fill="#ffe424"/>
        <path id="Path_141509" data-name="Path 141509" d="M267.455,87.868c0,.172.007.344.005.517a13.065,13.065,0,0,1-.8,3.989,3.831,3.831,0,0,1-.516,1.644,1,1,0,0,1-.277.432c-2.22,3.141-8.411,5.135-10.309,5.353a11.344,11.344,0,0,1-1.2.263.728.728,0,0,0,.182.232C257.111,102.33,274.587,95.41,267.455,87.868Z" fill="#ffbb24" opacity="0.18" style="mix-blend-mode: multiply;isolation: isolate"/>
        <path id="Path_141510" data-name="Path 141510" d="M223.986,110.628a68.671,68.671,0,0,1,11.675-4.388,1.5,1.5,0,0,0-.8-2.893,73.028,73.028,0,0,0-12.391,4.691c-1.737.842-.217,3.43,1.514,2.59Z" fill="#ffe424" opacity="0.48"/>
        <path id="Path_141511" data-name="Path 141511" d="M218.3,114.244q-.235,3.193-.472,6.387c-.142,1.925,2.858,1.916,3,0q.235-3.193.472-6.387c.142-1.926-2.858-1.917-3,0Z" fill="#ffe424" opacity="0.48"/>
        <path id="Path_141512" data-name="Path 141512" d="M268.755,107.428l13.493,4.521c1.834.615,2.621-2.282.8-2.893l-13.493-4.521c-1.835-.614-2.622,2.282-.8,2.893Z" fill="#ffc91f" opacity="0.45"/>
        <path id="Path_141513" data-name="Path 141513" d="M284.995,114.375q.072,3.19-.113,6.376c-.111,1.928,2.889,1.922,3,0q.186-3.187.113-6.376c-.044-1.927-3.044-1.934-3,0Z" fill="#ffc91f" opacity="0.45"/>
        <path id="Path_141514" data-name="Path 141514" d="M220.894,163.27l.069,7.562a1.5,1.5,0,0,0,3,0l-.069-7.562a1.5,1.5,0,0,0-3,0Z" fill="#ffc91f" opacity="0.45"/>
        <path id="Path_141515" data-name="Path 141515" d="M220.907,145.742q.057,6.188.113,12.374a1.5,1.5,0,0,0,3,0q-.057-6.187-.113-12.374a1.5,1.5,0,0,0-3,0Z" fill="#ffc91f" opacity="0.45"/>
        <path id="Path_141516" data-name="Path 141516" d="M282.4,140.321q-.216,8.918-.163,17.836a1.5,1.5,0,0,0,3,0q-.054-8.919.163-17.836c.047-1.932-2.953-1.931-3,0Z" fill="#ffae1f" opacity="0.51"/>
        <path id="Path_141517" data-name="Path 141517" d="M282.317,163.821a37.539,37.539,0,0,0,.179,7.837c.241,1.889,3.245,1.913,3,0a37.541,37.541,0,0,1-.179-7.837c.157-1.924-2.844-1.914-3,0Z" fill="#ffae1f" opacity="0.51"/>
        <path id="Path_141518" data-name="Path 141518" d="M205.778,102.587q5.869-1.773,11.623-3.885c1.8-.66,1.02-3.561-.8-2.893q-5.754,2.114-11.622,3.885c-1.844.557-1.058,3.453.8,2.893Z" fill="#ef4b4b"/>
        <path id="Path_141519" data-name="Path 141519" d="M202.4,125.872q-.339,10.69-.049,21.379c.052,1.926,3.052,1.934,3,0q-.291-10.692.049-21.379c.061-1.932-2.939-1.929-3,0Z" fill="#ef4b4b"/>
        <path id="Path_141520" data-name="Path 141520" d="M202.553,152.248q-.112,3.625-.041,7.252c.038,1.928,3.039,1.934,3,0q-.072-3.627.041-7.252c.06-1.932-2.94-1.929-3,0Z" fill="#ef4b4b"/>
      </g>
    </g>
    <g transform="matrix(1, 0, 0, 1, 44.82, 672)" filter="url(#Accumulate_Coins_Redeem_Exciting_Prizes)">
      <text id="Accumulate_Coins_Redeem_Exciting_Prizes-2" data-name="Accumulate Coins &amp; 
Redeem Exciting Prizes" transform="translate(143.36 16.5)" fill="#ffc708" font-size="15" font-family="Avenir-Black, Avenir" font-weight="800" letter-spacing="0.01em"><tspan x="-89.67" y="0">ACCUMULATE COINS &amp; </tspan><tspan font-size="20"><tspan x="-132.47" y="25">REDEEM EXCITING PRIZES</tspan></tspan></text>
    </g>
  </g>
</svg>
