<svg width="21" height="25" viewBox="0 0 21 25" fill="none" xmlns="http://www.w3.org/2000/svg">
<path d="M12.0688 0.281933C11.9061 0.156802 11.7187 0.0673929 11.519 0.0195312C11.7225 0.0561531 11.9124 0.146779 12.0688 0.281933Z" fill="#C98C55"/>
<path d="M10.749 0.212988C10.714 0.241478 10.6796 0.26647 10.6491 0.294959C10.6221 0.312427 10.5977 0.333626 10.5766 0.357932C10.5522 0.377708 10.5299 0.399994 10.5101 0.424414C10.4885 0.445007 10.4684 0.467228 10.4501 0.490887C10.4292 0.512411 10.4102 0.535647 10.3932 0.560358L10.3432 0.629837C10.3103 0.674965 10.2808 0.722402 10.2547 0.771783C10.2417 0.796774 10.2292 0.821767 10.2167 0.844259C10.2032 0.867494 10.1915 0.891724 10.1817 0.916735C10.17 0.940323 10.1595 0.964509 10.1503 0.989203C10.1313 1.03019 10.1158 1.07118 10.1003 1.11266C9.92983 1.59249 9.93284 1.99384 9.70042 1.88638C9.41661 1.75301 9.10111 1.70185 8.7897 1.73869C8.47828 1.77553 8.18342 1.8989 7.93856 2.0948C7.30679 2.60962 5.346 2.71358 4.30737 1.71244C4.30737 1.71244 3.62212 0.4629 5.29551 0.1875C6.21468 0.1875 7.68915 1.63697 8.34441 1.64946C8.65421 1.66964 8.96443 1.61685 9.25011 1.49531C9.5358 1.37378 9.789 1.18691 9.98932 0.94972C10.1872 0.652863 10.4462 0.401687 10.749 0.212988Z" fill="#E7831C"/>
<path d="M10.8088 0.175781C10.7895 0.18959 10.7695 0.202268 10.7488 0.213762L10.7553 0.207264C10.7738 0.197767 10.7898 0.185278 10.8088 0.175781Z" fill="#C1A884"/>
<path d="M10.9265 0.113281C10.887 0.131775 10.8495 0.159261 10.8105 0.181753C10.8225 0.174256 10.8326 0.165265 10.8445 0.157767C10.8715 0.141773 10.897 0.126277 10.9265 0.113281Z" fill="#C98C55"/>
<path d="M15.8704 3.63807L15.8294 3.64107C15.4126 3.66006 11.9863 3.77652 12.5516 2.454C12.7089 2.0927 12.7501 1.69149 12.6695 1.30578C12.5889 0.92007 12.3906 0.5689 12.1018 0.300781C12.3776 0.524215 12.6391 0.764593 12.885 1.02052C13.3049 1.42787 15.5156 1.22895 16.0429 2.27007C16.5702 3.31119 15.8704 3.63807 15.8704 3.63807Z" fill="#E7831C"/>
<path d="M20.1327 23.2281C18.5548 23.9778 17.9985 23.7809 17.3287 23.5435C16.659 23.3061 15.7503 23.386 13.6595 24.1753C10.3438 26.0286 6.98747 24.2162 6.23924 23.9383C5.49101 23.6604 4.66031 24.2537 3.55521 24.6081C0.198931 25.0814 0.2774 22.7543 0.672257 21.6902C0.198928 20.661 0 19.9128 0 16.6385C0 11.2704 4.66031 8.30802 5.07416 7.98014C5.39147 7.69857 5.64795 7.35517 5.82789 6.971C6.02559 6.58735 6.09929 6.15179 6.03881 5.72446C6.0049 5.53529 5.93718 5.35379 5.83888 5.18865C5.25429 4.06673 4.74193 2.90863 4.30494 1.72141L4.30145 1.71491C4.74572 2.11579 5.30998 2.35869 5.90652 2.40588C6.50306 2.45306 7.09848 2.30188 7.60025 1.97582C7.86468 1.77393 8.17033 1.63277 8.49548 1.56236C8.82064 1.49196 9.1573 1.49404 9.48156 1.56846C9.73147 1.61845 9.9274 1.59495 10.0978 1.11463C10.1138 1.07364 10.1293 1.03265 10.1478 0.99167C10.1578 0.966679 10.1668 0.94169 10.1793 0.918698C10.1918 0.895707 10.2018 0.868718 10.2143 0.845727C10.2268 0.822735 10.2393 0.798742 10.2523 0.773251C10.2773 0.723269 10.3093 0.678783 10.3408 0.630801C10.3563 0.608809 10.3757 0.583822 10.3907 0.56133C10.4057 0.538838 10.4287 0.514343 10.4477 0.491851C10.4667 0.469359 10.4857 0.44737 10.5077 0.425378L10.5737 0.3594C10.5966 0.336783 10.6209 0.315747 10.6466 0.296427C10.6781 0.267437 10.7126 0.242445 10.7466 0.214456C10.7484 0.211946 10.7506 0.209751 10.7531 0.207958C10.7811 0.188965 10.8101 0.169972 10.8416 0.150979C10.8731 0.131986 10.8956 0.119488 10.9235 0.106493C10.9699 0.0846756 11.0175 0.0654828 11.066 0.0490111C11.094 0.0400144 11.119 0.0335171 11.1445 0.0275193C11.1605 0.0240206 11.1734 0.0210271 11.1859 0.0175284C11.2109 0.0110308 11.2329 0.0085271 11.2554 0.00502837C11.3099 -0.000697321 11.3648 -0.00153613 11.4194 0.00252684C11.4278 0.00200393 11.4362 0.00285035 11.4443 0.00502837L11.5173 0.0150269C11.7171 0.0626888 11.9044 0.152117 12.0671 0.277429C12.0765 0.286113 12.0871 0.293356 12.0986 0.29892C12.3875 0.567035 12.586 0.918294 12.6666 1.30413C12.7472 1.68996 12.7059 2.0913 12.5485 2.45264C11.9832 3.77566 15.4099 3.6587 15.8263 3.63971L15.8677 3.63671C15.5378 4.2028 15.1538 4.73559 14.7212 5.22764C14.5282 5.45307 14.3809 5.71379 14.2873 5.99535C14.2106 6.23134 14.1767 6.47917 14.1874 6.72709C14.1961 6.93352 14.238 7.1372 14.3113 7.33037C14.4579 7.71324 14.7073 8.04824 15.0321 8.29852C20.7415 12.7354 19.5869 19.0801 20.1302 20.621C20.682 22.2025 20.682 22.7128 20.1327 23.2281Z" fill="#EEEEEE"/>
<g style="mix-blend-mode:multiply" opacity="0.3">
<path d="M16.4796 22.813C16.0408 23.1256 15.6417 23.3981 15.2825 23.6307C14.8327 23.7507 14.3039 23.9276 13.6596 24.1705C10.3443 26.0238 6.98754 24.2115 6.23931 23.9336C6.14902 23.8991 6.05458 23.8768 5.95842 23.8671C5.52164 23.5549 5.1156 23.2018 4.74585 22.8125C10.7707 25.576 13.0853 24.076 16.4796 22.813Z" fill="#DDC69E"/>
</g>
<g style="mix-blend-mode:multiply" opacity="0.3">
<path d="M7.00995 22.546C5.82588 22.2716 4.21096 21.5104 3.33778 21.7913C2.44484 22.1039 1.49329 22.2129 0.552793 22.1102C0.582051 21.9674 0.622148 21.827 0.672745 21.6903C0.198917 20.6612 0 19.9124 0 16.6381C0 16.4677 0.00299586 16.2973 0.0124924 16.1328C0.750709 16.5063 1.33982 17.1199 1.68289 17.8727C3.06289 20.3768 3.14186 19.4956 4.56284 20.2503C5.98383 21.005 6.00582 22.3471 7.57525 22.0312C9.14468 21.7153 8.19402 22.8224 7.00995 22.546Z" fill="#CCCCCC"/>
</g>
<g style="mix-blend-mode:multiply" opacity="0.3">
<path d="M7.79316 6.71561C7.79316 6.71561 8.14603 6.59065 7.87863 5.3461C7.61122 4.10156 7.6932 3.1564 8.17852 3.59224C8.66384 4.02808 8.69984 4.17403 8.69184 4.94825C8.73441 5.62204 8.85791 6.28825 9.0597 6.93253C9.0597 6.93253 9.90939 8.42349 9.0657 9.7845C8.222 11.1455 7.65921 10.6927 8.19152 9.80099C8.72382 8.90932 7.60873 7.24192 7.79316 6.71561Z" fill="#CCCCCC"/>
</g>
<g style="mix-blend-mode:multiply" opacity="0.3">
<path d="M11.7935 7.78335C11.7935 7.78335 11.4721 7.82983 11.5036 8.83297C11.5351 9.83611 11.3152 10.5588 10.9703 10.151C10.6254 9.74314 10.6169 9.62468 10.7469 9.02489C10.8173 8.49625 10.8173 7.96062 10.7469 7.43197C10.6123 7.05726 10.5828 6.65285 10.6615 6.26256C10.7403 5.87227 10.9243 5.51097 11.1937 5.21778C12.1314 4.28312 12.5397 4.71546 11.9435 5.33074C11.3472 5.94602 12.0364 7.40099 11.7935 7.78335Z" fill="#CCCCCC"/>
</g>
<g style="mix-blend-mode:multiply" opacity="0.5">
<path d="M16.4672 18.3686C16.4115 18.816 16.3208 19.2584 16.1958 19.6916C16.1858 19.7206 16.1799 19.7521 16.1709 19.7805C16.1316 19.9108 16.0514 20.0249 15.9422 20.1059C15.833 20.1869 15.7006 20.2306 15.5646 20.2304C15.5038 20.2296 15.4433 20.2212 15.3846 20.2054C15.2955 20.1787 15.2134 20.1325 15.1442 20.0702C15.0751 20.0078 15.0206 19.931 14.9848 19.845C14.9286 19.7097 14.9208 19.5591 14.9628 19.4187C15.0327 19.1829 15.0906 18.9437 15.1362 18.7019C15.2262 18.2575 15.2751 17.8058 15.2822 17.3524C15.2889 16.9216 15.2527 16.4911 15.1742 16.0674C15.1039 15.6501 14.9743 15.245 14.7894 14.8643C14.7315 14.7507 14.6662 14.641 14.5939 14.536C14.3951 14.2535 14.1781 13.9844 13.9442 13.7302C13.7007 13.4653 13.4443 13.2129 13.1944 12.9595C13.0645 12.8306 12.935 12.7006 12.8091 12.5682C12.4608 12.2261 12.1457 11.8519 11.8679 11.4506C11.5397 10.9887 11.3481 10.4438 11.3151 9.87815C11.3034 9.52443 11.3559 9.17152 11.4701 8.83652C11.4826 8.79504 11.4956 8.75706 11.5045 8.71657C11.5545 8.55513 11.59 8.38769 11.6305 8.21675C11.6685 8.05181 11.707 7.88487 11.754 7.71393C11.7605 7.69144 11.7674 7.66895 11.7734 7.64595C11.5735 7.65245 11.3681 7.65495 11.1622 7.65495C10.9852 7.65495 10.8053 7.65145 10.6249 7.64846C10.1605 7.63846 9.69369 7.61347 9.23886 7.57898C8.81251 7.5475 8.39916 7.50351 8.00431 7.44903C7.53748 7.38955 7.10464 7.31358 6.72528 7.23111C6.42045 7.16622 6.1209 7.07867 5.8291 6.96921C6.02681 6.58556 6.10051 6.14999 6.04002 5.72266C6.109 5.72798 6.17658 5.74487 6.23995 5.77263C6.41245 5.84484 6.58983 5.90481 6.77076 5.95207C7.21616 6.07228 7.66993 6.15899 8.12827 6.21148C8.54562 6.26846 8.99096 6.30594 9.44229 6.33443C9.77417 6.35693 10.1086 6.36942 10.4419 6.37591C10.8808 6.38541 11.3101 6.38542 11.717 6.37242C12.2478 6.35693 12.7371 6.32543 13.1474 6.27245C13.544 6.26088 13.9337 6.16584 14.291 5.99355C14.2143 6.22954 14.1804 6.47737 14.1911 6.72529C14.1998 6.93172 14.2417 7.13541 14.315 7.32857C14.2395 7.35006 14.1596 7.37056 14.0761 7.39005C13.8517 7.44303 13.6043 7.48652 13.3379 7.52301C13.3577 7.77366 13.4493 8.01329 13.6018 8.21325C13.6333 8.26324 13.6678 8.30872 13.7052 8.3557C13.8816 8.56086 14.0738 8.75187 14.28 8.92699C14.3145 8.95548 14.3495 8.98747 14.384 9.01896C14.5199 9.13892 14.6559 9.25837 14.7884 9.38483C14.8423 9.43481 14.8993 9.49229 14.9588 9.55227C15.1628 9.75657 15.3419 9.98442 15.4921 10.231C15.6392 10.4688 15.7461 10.7292 15.8085 11.0017C15.8182 11.0422 15.8234 11.0836 15.824 11.1252C15.8274 11.2711 15.7802 11.4136 15.6905 11.5287C15.6007 11.6437 15.4739 11.7242 15.3316 11.7565C15.2858 11.7664 15.2391 11.7717 15.1922 11.7725C15.0777 11.772 14.9654 11.7403 14.8676 11.6808C14.7697 11.6212 14.69 11.5361 14.6369 11.4346C14.6109 11.3918 14.5926 11.3448 14.5829 11.2956C14.5795 11.2898 14.5773 11.2833 14.5764 11.2766C14.5177 11.0527 14.41 10.8446 14.261 10.6674C14.1545 10.5368 14.0395 10.4134 13.9167 10.298C13.8167 10.2035 13.7167 10.1086 13.6073 10.0196C13.5883 10.0006 13.5658 9.98511 13.5468 9.96661C13.254 9.7183 12.9806 9.44794 12.7291 9.15791C12.7191 9.14591 12.7101 9.13392 12.7011 9.12192C12.6906 9.15841 12.6801 9.19439 12.6681 9.23088C12.6663 9.23733 12.6642 9.24367 12.6616 9.24987C12.5418 9.59792 12.5497 9.97728 12.6841 10.32C12.8352 10.6595 13.0421 10.9712 13.2964 11.2422C13.5178 11.4951 13.7827 11.7665 14.0856 12.0669C14.1236 12.1048 14.1611 12.1423 14.2026 12.1833C14.4775 12.4582 14.7679 12.7581 15.0488 13.083C15.2559 13.3171 15.4496 13.5627 15.629 13.8187C15.7146 13.9415 15.7928 14.0692 15.8635 14.2011C16.0921 14.6295 16.2603 15.0875 16.3633 15.5621C16.4701 16.0348 16.5294 16.517 16.5402 17.0016C16.5545 17.4585 16.5301 17.9158 16.4672 18.3686Z" fill="#E7831C"/>
</g>
<path d="M15.2387 10.8776C14.8541 11.0193 14.4565 11.1229 14.0516 11.1869C14.0254 11.1443 14.0073 11.0972 13.9982 11.048C13.9945 11.0423 13.9923 11.0357 13.9917 11.029C13.9325 10.8051 13.8247 10.5971 13.6758 10.4197C13.7757 10.4072 13.8757 10.3912 13.9727 10.3697C14.3057 10.3012 14.6228 10.1705 14.9073 9.98438C15.0544 10.2221 15.1611 10.4825 15.2232 10.7551C15.233 10.7952 15.2382 10.8363 15.2387 10.8776Z" fill="#42342D"/>
<path d="M15.2379 10.875C15.2413 11.0209 15.1941 11.1636 15.1044 11.2787C15.0146 11.3938 14.8879 11.4744 14.7455 11.5068C14.6998 11.5164 14.6533 11.5216 14.6066 11.5223C14.492 11.5219 14.3796 11.4902 14.2817 11.4306C14.1837 11.3711 14.1039 11.286 14.0508 11.1844C14.4557 11.1204 14.8533 11.0168 15.2379 10.875Z" fill="#54433D"/>
<path d="M14.9063 9.98784C14.6218 10.1739 14.3047 10.3047 13.9716 10.3732C13.8717 10.3952 13.7762 10.4112 13.6748 10.4232C13.568 10.2928 13.4529 10.1695 13.3304 10.0538C13.2304 9.95886 13.1305 9.86439 13.021 9.77592H13.0685C13.5427 9.76774 14.001 9.60349 14.3725 9.30859C14.5765 9.51326 14.7557 9.74124 14.9063 9.98784Z" fill="#493A33"/>
<path d="M14.3724 9.30496C14.0009 9.59986 13.5426 9.76411 13.0683 9.77229H13.0209C13.0019 9.7533 12.9799 9.73731 12.9609 9.71882C12.6682 9.47052 12.3949 9.20034 12.1432 8.91061C12.1082 8.86612 12.0737 8.82214 12.0432 8.77765C12.1567 8.79065 12.2706 8.79365 12.3841 8.79665C12.7064 8.81782 13.03 8.80727 13.3502 8.76516C13.4671 8.74602 13.5823 8.71744 13.6946 8.67969C13.7296 8.70818 13.7641 8.73967 13.7991 8.77116C13.9345 8.89112 14.0705 9.01107 14.2034 9.13752C14.2559 9.186 14.3124 9.24499 14.3724 9.30496Z" fill="#54433D"/>
<path d="M13.6936 8.68274C13.5813 8.72049 13.4662 8.74907 13.3492 8.76821C13.029 8.81032 12.7054 8.82087 12.3831 8.7997C12.2696 8.7967 12.1557 8.79319 12.0422 8.7807C11.8137 8.48711 11.6481 8.14953 11.5559 7.78906C11.6059 7.80806 11.6559 7.82705 11.7103 7.84254C12.0232 7.92147 12.3444 7.96275 12.667 7.9655C12.7834 7.97443 12.9003 7.97543 13.0169 7.96849C13.0485 8.01581 13.0832 8.06312 13.1208 8.11044C13.2965 8.31587 13.488 8.50723 13.6936 8.68274Z" fill="#42342D"/>
<path d="M13.0165 7.96743C12.8999 7.97437 12.783 7.97337 12.6666 7.96443C12.3439 7.96169 12.0228 7.92041 11.7099 7.84147C11.6564 7.82548 11.606 7.80649 11.5555 7.78799C11.4871 7.52719 11.4701 7.25557 11.5055 6.98828C11.9053 7.13206 12.3325 7.18333 12.755 7.13823V7.16022C12.7409 7.45215 12.8339 7.73919 13.0165 7.96743Z" fill="#493A33"/>
<path d="M12.7559 7.13708C12.3334 7.18217 11.9062 7.13091 11.5063 6.98713V6.98063C11.5179 6.89848 11.5455 6.81941 11.5876 6.74794C11.6297 6.67648 11.6856 6.61403 11.7519 6.56416C11.8182 6.5143 11.8936 6.478 11.974 6.45735C12.0543 6.4367 12.138 6.43211 12.2201 6.44382C12.3828 6.46539 12.5303 6.55033 12.6307 6.68017C12.731 6.81 12.776 6.97422 12.7559 7.13708Z" fill="#54433D"/>
<path d="M15.6095 19.4492C15.6 19.4777 15.594 19.5092 15.5845 19.5377C15.5455 19.668 15.4654 19.7822 15.3561 19.8633C15.2468 19.9444 15.1143 19.988 14.9782 19.9875C14.9174 19.987 14.857 19.9786 14.7983 19.9625C14.7091 19.936 14.6269 19.89 14.5578 19.8277C14.4886 19.7655 14.4342 19.6886 14.3984 19.6027C14.612 19.5991 14.8251 19.5812 15.0362 19.5492C15.2146 19.5217 15.4106 19.4902 15.6095 19.4492Z" fill="#493A33"/>
<path d="M12.5367 7.36722C12.4527 7.56746 12.3858 7.77445 12.3368 7.98599C11.9179 7.93668 11.5222 7.76786 11.1967 7.49967C11.1864 7.49096 11.1769 7.48143 11.1682 7.47118C11.2247 7.25219 11.3008 7.03874 11.3956 6.83341C11.4661 6.68196 11.5938 6.56465 11.7506 6.50721C11.9075 6.44977 12.0807 6.4569 12.2323 6.52703C12.3077 6.56199 12.3753 6.61151 12.4315 6.67273C12.4876 6.73396 12.5311 6.80568 12.5594 6.88378C12.5876 6.96187 12.6002 7.04479 12.5963 7.12776C12.5924 7.21073 12.5722 7.29212 12.5367 7.36722Z" fill="#42342D"/>
<path d="M12.3345 7.99028C12.3155 8.07875 12.2935 8.16722 12.2745 8.25568C12.2211 8.4956 12.1641 8.74201 12.0821 8.99442C12.0791 9.00091 12.0791 9.00691 12.0756 9.01341C11.6742 8.94766 11.2959 8.78139 10.976 8.53008C10.957 8.51409 10.935 8.4986 10.916 8.48011C10.963 8.31916 11.0015 8.15173 11.0425 7.98029C11.0805 7.81635 11.1179 7.64891 11.1654 7.48047C11.1741 7.49072 11.1837 7.50024 11.1939 7.50895C11.5201 7.77543 11.916 7.9425 12.3345 7.99028Z" fill="#54433D"/>
<path d="M12.0982 10.081C11.6535 10.0566 11.2208 9.92783 10.8351 9.70512C10.8001 9.68313 10.7627 9.66063 10.7277 9.63864C10.716 9.28476 10.7685 8.9317 10.8826 8.59652C10.8951 8.55554 10.9081 8.51755 10.9176 8.47656C10.9366 8.49556 10.9586 8.51105 10.9776 8.52655C11.2975 8.77785 11.6757 8.94412 12.0772 9.00987C11.9569 9.35809 11.9643 9.73775 12.0982 10.081Z" fill="#493A33"/>
<path d="M12.7106 11.0046C12.5146 11.0361 12.3107 11.0521 12.1583 11.0801C11.8679 11.1336 11.574 11.1801 11.2806 11.2131C10.952 10.7514 10.7604 10.2063 10.7278 9.64062C10.7628 9.66262 10.8003 9.68461 10.8352 9.7071C11.2209 9.9298 11.6536 10.0586 12.0983 10.083C12.2496 10.4222 12.4565 10.7337 12.7106 11.0046Z" fill="#42342D"/>
<path d="M13.6167 11.9451C13.2536 12.1106 12.8686 12.2234 12.4736 12.2799C12.3881 12.2989 12.3062 12.3144 12.2212 12.3299C11.873 11.9879 11.5578 11.6137 11.28 11.2123C11.5739 11.1773 11.8673 11.1334 12.1577 11.0794C12.3121 11.0509 12.5146 11.0354 12.71 11.0039C12.9309 11.2563 13.1963 11.5282 13.4992 11.8281L13.6167 11.9451Z" fill="#54433D"/>
<path d="M14.4627 12.842C14.4597 12.845 14.4562 12.8515 14.4532 12.8545C14.1685 13.1843 13.7812 13.4089 13.3536 13.4923C13.1107 13.2268 12.8538 12.9744 12.6039 12.7215C12.4744 12.5921 12.345 12.4626 12.2185 12.3302C12.304 12.3142 12.3859 12.2987 12.4709 12.2802C12.866 12.2236 13.2509 12.1109 13.614 11.9453C13.8914 12.2202 14.1818 12.5201 14.4627 12.842Z" fill="#493A33"/>
<path d="M15.2775 13.9535C15.1284 14.1405 14.9438 14.2961 14.7342 14.4114C14.5672 14.5056 14.3876 14.5758 14.2009 14.6198C14.1428 14.5062 14.0774 14.3965 14.005 14.2914C13.8061 14.0092 13.5891 13.7402 13.3552 13.4862C13.7829 13.4029 14.1701 13.1783 14.4548 12.8484C14.4578 12.8454 14.4613 12.8389 14.4643 12.8359C14.6717 13.0701 14.8657 13.3158 15.0456 13.5717C15.1302 13.6944 15.2077 13.8219 15.2775 13.9535Z" fill="#42342D"/>
<path d="M15.7806 15.3219C15.5423 15.5172 15.2676 15.6631 14.9724 15.7513C14.8457 15.7854 14.717 15.8118 14.587 15.8303C14.5163 15.413 14.3865 15.0079 14.2017 14.6272C14.3884 14.5832 14.5679 14.513 14.735 14.4188C14.9445 14.3035 15.1292 14.1479 15.2783 13.9609C15.5076 14.3893 15.6766 14.8473 15.7806 15.3219Z" fill="#54433D"/>
<path d="M15.9567 16.7598C15.558 16.9463 15.1312 17.0658 14.6936 17.1137C14.7003 16.6828 14.6643 16.2524 14.5862 15.8286C14.7161 15.8102 14.8448 15.7838 14.9715 15.7497C15.2667 15.6615 15.5414 15.5156 15.7797 15.3203C15.8867 15.793 15.946 16.2753 15.9567 16.7598Z" fill="#493A33"/>
<path d="M15.9568 16.7617C15.9704 17.2189 15.945 17.6764 15.8808 18.1292C15.6534 18.1957 15.436 18.2462 15.2686 18.2932C15.0317 18.3597 14.7918 18.4196 14.5483 18.4636C14.6382 18.0192 14.6869 17.5675 14.6938 17.1141C15.1313 17.0668 15.558 16.9477 15.9568 16.7617Z" fill="#42342D"/>
<path d="M15.8806 18.125C15.8252 18.5725 15.7345 19.0149 15.6092 19.448C15.4093 19.489 15.2144 19.5205 15.0345 19.548C14.8233 19.58 14.6102 19.5979 14.3967 19.6015C14.3403 19.4661 14.3325 19.3155 14.3747 19.1751C14.4451 18.9394 14.5031 18.7001 14.5486 18.4584C14.792 18.4139 15.032 18.3539 15.2689 18.2879C15.4363 18.242 15.6532 18.1915 15.8806 18.125Z" fill="#54433D"/>
<path d="M14.7238 6.35292C14.6977 6.5032 14.6182 6.63898 14.4999 6.73528C14.1967 6.94485 13.8521 7.087 13.4893 7.15213C13.5402 7.07382 13.5845 6.9914 13.6217 6.90572C13.8269 6.49039 13.999 6.05955 14.1365 5.61719C14.2249 5.62062 14.3115 5.64297 14.3905 5.68272C14.4694 5.72247 14.539 5.77869 14.5944 5.8476C14.6343 5.89532 14.6653 5.94984 14.6858 6.00855C14.7327 6.11695 14.7459 6.23691 14.7238 6.35292Z" fill="#54433D"/>
<path d="M6.18593 5.70729C6.03488 5.82779 5.87554 5.93753 5.7091 6.03567C5.44396 6.20004 5.15825 6.32861 4.8594 6.41803C4.81076 6.33386 4.78258 6.23944 4.77711 6.14239C4.77164 6.04533 4.78904 5.94833 4.82791 5.85923C4.84361 5.82118 4.86374 5.78511 4.88789 5.75177C4.96972 5.63099 5.09113 5.54254 5.23118 5.50167C5.37123 5.46079 5.52116 5.47005 5.65511 5.52785C5.82762 5.60004 6.005 5.65999 6.18593 5.70729Z" fill="#42342D"/>
<path d="M7.5434 5.96644C7.09899 6.33811 6.62955 6.67879 6.13841 6.98606C5.803 6.9159 5.47437 6.81656 5.15626 6.68917C5.03496 6.63775 4.93395 6.54782 4.86886 6.43327C4.86586 6.42677 4.86237 6.42377 4.85938 6.41777C5.15823 6.32834 5.44393 6.19977 5.70906 6.03541C5.87551 5.93727 6.03485 5.82754 6.18589 5.70703C6.63134 5.82703 7.08509 5.91373 7.5434 5.96644Z" fill="#54433D"/>
<path d="M8.85743 6.0878C8.81544 6.13616 8.77019 6.18159 8.72198 6.22375C8.31138 6.58087 7.87557 6.90794 7.41795 7.2024C6.95062 7.14242 6.51828 7.06695 6.13892 6.98448C6.63006 6.6772 7.0995 6.33652 7.54391 5.96484C7.96026 6.02182 8.40759 6.05981 8.85743 6.0878Z" fill="#493A33"/>
<path d="M9.85484 6.13083C9.62536 6.47397 9.34664 6.78149 9.02764 7.0435C8.90469 7.14346 8.78174 7.24343 8.65179 7.3339C8.22544 7.30241 7.81209 7.25793 7.41724 7.20444C7.87487 6.91 8.31066 6.58293 8.72125 6.2258C8.76946 6.18363 8.81471 6.13821 8.8567 6.08984C9.18858 6.11184 9.52346 6.12483 9.85484 6.13083Z" fill="#42342D"/>
<path d="M11.13 6.125C11.0751 6.25131 11.0062 6.37103 10.9245 6.48187C10.6789 6.83277 10.3795 7.14279 10.0374 7.40054C9.57304 7.39104 9.1057 7.36555 8.65137 7.33106C8.78082 7.23959 8.90378 7.14163 9.02724 7.04067C9.34624 6.77866 9.62495 6.47114 9.85444 6.128C10.2933 6.13749 10.7226 6.1375 11.13 6.125Z" fill="#54433D"/>
<path d="M12.561 6.02734C12.5463 6.16512 12.5198 6.3014 12.482 6.4347C12.3985 6.66557 12.2709 6.87795 12.1062 7.05997C12.0189 7.16975 11.9238 7.27314 11.8218 7.36936C11.4219 7.39435 11.0041 7.40734 10.5722 7.40734C10.3953 7.40734 10.2153 7.40434 10.0354 7.40085C10.3775 7.14311 10.6769 6.83309 10.9226 6.48218C11.0043 6.37133 11.0732 6.25161 11.128 6.12531C11.6608 6.10931 12.1506 6.07783 12.561 6.02734Z" fill="#493A33"/>
<path d="M14.1367 5.61096C13.9992 6.05332 13.827 6.48416 13.6219 6.8995C13.5846 6.98518 13.5403 7.0676 13.4894 7.14591C12.9406 7.26534 12.3829 7.34022 11.822 7.36982C11.9241 7.27361 12.0191 7.17021 12.1064 7.06043C12.2711 6.87842 12.3988 6.66603 12.4823 6.43517C12.5201 6.30187 12.5465 6.16559 12.5612 6.02781C12.9589 6.01658 13.3496 5.92083 13.7073 5.74692C13.8278 5.64838 13.9814 5.59973 14.1367 5.61096Z" fill="#42342D"/>
</svg>
