<svg width="54" height="56" viewBox="0 0 54 56" fill="none" xmlns="http://www.w3.org/2000/svg">
<rect x="1" y="25" width="13" height="29" rx="4" fill="#FFC708"/>
<path d="M13 1H52V44C52 49.5228 47.5228 54 42 54H13V1Z" fill="#FFC708"/>
<path d="M18 11.0148L20.2563 13.456L26.5738 8" stroke="#530C54" stroke-width="2"/>
<path d="M18.1484 20.593L20.4047 23.3829L26.7222 17.1475" stroke="#530C54" stroke-width="2"/>
<path d="M18.1484 30.2951L20.4047 32.7363L26.7222 27.2803" stroke="#530C54" stroke-width="2"/>
<path d="M18.1484 39.6486L20.4047 42.0898L26.7222 36.6338" stroke="#530C54" stroke-width="2"/>
<path d="M12.8906 1.5H52.4962V46.4484C52.4962 50.5905 49.1383 53.9484 44.9962 53.9484H12.8906V1.5Z" stroke="#F65008" stroke-width="3"/>
<path d="M11.6747 25.7871H1.00883V48.4979C0.598539 57.4264 14.6417 58.0673 12.302 43.6478" stroke="#F65008" stroke-width="2"/>
<path d="M6.96875 55.7037L11.4026 55.4489L12.0141 54.7864C12.0821 54.4976 12.2078 53.8996 12.167 53.8181C12.1263 53.7365 11.9122 52.561 11.8103 51.9834L11.2497 52.0344L6.96875 55.7037Z" fill="#F65008"/>
<rect x="29.8359" y="10.1328" width="20.2652" height="0.779433" rx="0.389716" fill="#530C54"/>
<rect x="29.8359" y="19.4854" width="20.2652" height="0.779433" rx="0.389716" fill="#530C54"/>
<rect x="29.8359" y="28.8389" width="20.2652" height="0.779433" rx="0.389716" fill="#530C54"/>
<rect x="29.8359" y="38.9717" width="20.2652" height="0.779433" rx="0.389716" fill="#530C54"/>
</svg>
