<svg width="55" height="70" viewBox="0 0 55 70" fill="none" xmlns="http://www.w3.org/2000/svg">
<path d="M24.117 3.12988L23.6797 4.29611L24.4443 4.05131L24.117 3.12988Z" fill="#D1A119"/>
<path d="M33.7734 6.99667L34.2575 5.70117L33.2344 6.14126L33.7734 6.99667Z" fill="#D1A119"/>
<path d="M27.4706 9.01834C27.2258 8.95233 26.992 8.87807 26.7637 8.7928L26.5134 8.6938L26.3319 8.61402C26.0836 8.50234 25.8429 8.37465 25.6113 8.23172C25.4737 8.14646 25.3362 8.05842 25.2124 7.95666C24.9988 7.80185 24.7974 7.63084 24.6101 7.4451C24.4852 7.32192 24.3676 7.19151 24.258 7.05454C24.1494 6.91937 24.0501 6.77689 23.961 6.62817C23.9087 6.54291 23.8619 6.45766 23.8207 6.36965C23.7137 6.15178 23.6334 5.92186 23.5814 5.6848C23.4786 5.21835 23.5131 4.73214 23.6804 4.2848C23.8062 3.95993 23.9929 3.66211 24.2305 3.4074C25.0104 2.73047 25.9535 2.26885 26.9666 2.06817C27.9796 1.8675 29.0274 1.93471 30.0065 2.2632C30.9357 2.41761 31.8005 2.83722 32.4968 3.47157C33.1932 4.10592 33.6913 4.92799 33.9314 5.83882C33.9753 6.20998 33.9339 6.58625 33.8104 6.939V6.95276V6.99125C33.5689 7.59416 33.1397 8.10334 32.5864 8.4435C32.3886 8.57266 32.1807 8.68579 31.9648 8.78181C31.8576 8.83132 31.7448 8.87531 31.6293 8.91657C31.4533 8.97983 31.2689 9.03485 31.0792 9.08436C30.8894 9.13387 30.7244 9.16415 30.5291 9.1944C30.2831 9.23263 30.0352 9.2574 29.7865 9.26865H29.5829C29.4207 9.26865 29.2556 9.26865 29.0878 9.26865C28.7688 9.25177 28.451 9.21594 28.1362 9.16137C27.9822 9.13387 27.8309 9.10085 27.6768 9.0651L27.4706 9.01834Z" fill="#D1A119"/>
<path opacity="0.25" d="M26.5134 8.69148L26.3318 8.61174C26.0836 8.50006 25.8429 8.37234 25.6112 8.22941C25.4719 8.14506 25.3389 8.0534 25.2124 7.95438C24.9988 7.79955 24.7974 7.62851 24.6101 7.44278C24.4852 7.31958 24.3676 7.18918 24.258 7.05222C24.1494 6.91706 24.0501 6.77463 23.9609 6.6259C24.291 5.71549 24.6843 4.40625 24.6843 4.40625L27.7346 5.3469L26.5134 8.69148Z" fill="#612115"/>
<path opacity="0.42" d="M29.7812 9.28046L30.6394 6.94531L32.2567 7.17085L31.6103 8.92843C31.4299 8.99358 31.2463 9.04955 31.0603 9.09618C30.887 9.14018 30.7054 9.17596 30.5101 9.20622C30.2686 9.24366 30.0253 9.26843 29.7812 9.28046Z" fill="#F5FF71"/>
<path d="M27.8621 8.01214C27.0621 7.84862 26.3095 7.50574 25.6611 7.00932C25.0127 6.51289 24.4854 5.87585 24.1188 5.14615C23.8713 4.55465 23.8566 3.89148 24.0775 3.28957C24.0775 3.25382 24.105 3.21805 24.1188 3.18505C24.2731 2.83028 24.4987 2.51104 24.7816 2.24715C25.1585 1.89273 25.599 1.61276 26.0799 1.422C26.3424 1.3166 26.6127 1.232 26.8885 1.16897C27.3074 1.07143 27.7348 1.01522 28.1647 1.00118H28.2912C28.7054 0.993765 29.1194 1.02136 29.5289 1.08369C29.8182 1.12694 30.1047 1.18664 30.3871 1.26248C31.1459 1.42482 31.8624 1.74409 32.4905 2.19977C33.1186 2.65545 33.6444 3.23745 34.0342 3.90842C34.1702 4.17931 34.2629 4.46979 34.3092 4.76933V4.78583C34.3518 5.09422 34.335 5.4079 34.2598 5.70998C34.237 5.80333 34.2085 5.8952 34.1745 5.98504C34.1415 6.07031 34.1057 6.15281 34.0672 6.23533C33.8628 6.63095 33.5735 6.97658 33.2201 7.24751C32.8473 7.53561 32.4302 7.76132 31.9851 7.91586C31.1455 8.20609 30.2554 8.32214 29.3694 8.25692C28.8601 8.22579 28.3551 8.14379 27.8621 8.01214Z" fill="#F9EB40"/>
<path opacity="0.4" d="M27.9386 7.74845C27.2008 7.59783 26.5067 7.2817 25.9088 6.82383C25.3108 6.36597 24.8246 5.77834 24.4868 5.10525C24.2581 4.55942 24.2443 3.94725 24.4483 3.3917C24.4483 3.3587 24.4731 3.32568 24.4868 3.29543C24.6287 2.96775 24.8365 2.67283 25.0974 2.42904C25.4456 2.10588 25.8515 1.85114 26.2939 1.67816C26.5359 1.58099 26.7851 1.50283 27.0392 1.44437C27.4257 1.35467 27.82 1.30308 28.2165 1.29034H28.332C28.7139 1.28292 29.0957 1.30777 29.4734 1.36461C29.7403 1.40462 30.0048 1.45971 30.2656 1.52963C30.9654 1.6793 31.6261 1.97366 32.2054 2.39381C32.7847 2.81396 33.2697 3.3506 33.6294 3.9693C33.7528 4.21973 33.8364 4.48794 33.8769 4.76419V4.77793C33.9169 5.06235 33.9019 5.3518 33.8329 5.6306C33.8125 5.71644 33.7867 5.80096 33.7559 5.88365C33.7256 5.96066 33.6927 6.04042 33.6569 6.11469C33.4683 6.47918 33.2016 6.79752 32.8758 7.04707C32.5319 7.31251 32.1474 7.52056 31.7371 7.66317C30.9627 7.93041 30.1419 8.03714 29.3249 7.97676C28.8564 7.94678 28.392 7.87028 27.9386 7.74845Z" stroke="#F2A100" stroke-width="0.685" stroke-miterlimit="10"/>
<path opacity="0.42" d="M34.2486 5.71032L26.8828 1.17754C27.3017 1.07998 27.7291 1.02379 28.159 1.00977H28.2855L34.2953 4.77515V4.79166C34.338 5.09808 34.3221 5.40982 34.2486 5.71032Z" fill="white"/>
<path opacity="0.42" d="M29.3447 8.25647L24.1188 5.14569C23.8713 4.5542 23.8566 3.89102 24.0775 3.28911C24.0775 3.25336 24.105 3.21758 24.1188 3.18457L31.9769 7.91816C31.1319 8.20969 30.236 8.32483 29.3447 8.25647Z" fill="white"/>
<path d="M28.3203 6.74674C26.2795 6.19664 24.9949 4.76912 25.4515 3.54791C25.5211 3.36486 25.6236 3.19612 25.7541 3.05008C26.0191 2.7638 26.348 2.54421 26.714 2.40921C27.7655 2.04379 28.9047 2.01496 29.9733 2.3267C32.0142 2.8768 33.2987 4.3043 32.8421 5.52276C32.823 5.57439 32.8009 5.62492 32.7761 5.67405C32.6699 5.87789 32.5251 6.05912 32.3497 6.20765C32.0262 6.46695 31.6511 6.65446 31.2495 6.75773C30.2896 7.01523 29.2783 7.01143 28.3203 6.74674Z" fill="#F4C500"/>
<path opacity="0.38" d="M31.2666 6.78782L25.7656 3.06367C26.0306 2.7774 26.3595 2.55785 26.7255 2.42285L32.3612 6.22397C32.0405 6.48743 31.6673 6.67964 31.2666 6.78782Z" fill="#C57F2A"/>
<path opacity="0.38" d="M25.4688 3.54804C25.9253 2.32958 27.9442 1.78225 29.9905 2.3296C32.0369 2.87694 33.3158 4.30719 32.8593 5.52565C32.8402 5.57732 32.8182 5.62781 32.7932 5.67691C32.8097 5.60815 33.3241 3.68283 30.2106 2.6789C29.4319 2.29414 28.5499 2.17087 27.6956 2.32746C26.8413 2.48404 26.0603 2.91212 25.4688 3.54804Z" fill="#612115"/>
<path d="M29.6699 8.99663C29.6699 9.03513 29.6699 9.07366 29.6699 9.11217C29.5979 10.0343 29.2615 10.916 28.7009 11.6517C28.1404 12.3873 27.3796 12.9457 26.5096 13.2599C25.7083 13.5903 24.8488 13.7568 23.9819 13.7495C23.8169 13.7495 23.6519 13.7495 23.4896 13.7302L23.2696 13.7109C22.7412 13.6532 22.222 13.5303 21.7238 13.3451C21.0781 13.1074 20.4801 12.7563 19.958 12.3082L19.9332 12.2862C19.534 11.9403 19.194 11.5315 18.9266 11.076C18.6301 10.5703 18.4427 10.0082 18.3765 9.42572C18.3585 9.26592 18.3503 9.10517 18.3517 8.94438C18.403 7.97147 18.7479 7.03699 19.3411 6.26412C19.9343 5.49125 20.7477 4.91632 21.6743 4.61516C22.4309 4.3295 23.2337 4.18588 24.0425 4.19157C24.3935 4.19345 24.7439 4.22287 25.0904 4.27958L25.3654 4.3291C26.0552 4.46954 26.7157 4.72722 27.3183 5.09096C27.8915 5.4357 28.3937 5.88659 28.798 6.41944C28.9751 6.65527 29.1289 6.90766 29.2573 7.17308C29.5326 7.74135 29.6737 8.36521 29.6699 8.99663Z" fill="#F9EB40"/>
<path opacity="0.4" d="M29.1066 8.99432C29.1066 9.03007 29.1066 9.06306 29.1066 9.09882C29.0418 9.92789 28.7393 10.7207 28.2354 11.3822C27.7314 12.0437 27.0474 12.5459 26.2653 12.8285C25.5451 13.1256 24.7725 13.2752 23.9934 13.2685C23.7793 13.2679 23.5654 13.256 23.3526 13.2328C22.2547 13.1213 21.2163 12.6802 20.3738 11.9676C20.0066 11.6542 19.6934 11.2825 19.4469 10.8674C19.1809 10.4139 19.0123 9.90989 18.9518 9.38761C18.9361 9.24422 18.9287 9.10004 18.9298 8.95579C18.9763 8.08056 19.2869 7.23996 19.8206 6.54472C20.3543 5.84948 21.0861 5.33222 21.9196 5.06112C22.4003 4.87731 22.9036 4.75889 23.4158 4.70904C23.626 4.68757 23.8372 4.6775 24.0484 4.67883C24.4467 4.68057 24.8438 4.72203 25.2339 4.80259C26.4572 5.03368 27.5548 5.70127 28.3227 6.68116C28.831 7.34518 29.1064 8.1581 29.1066 8.99432Z" stroke="#F2A100" stroke-width="0.742" stroke-miterlimit="10"/>
<path opacity="0.29" d="M29.6647 8.99917C29.6647 9.03768 29.6647 9.0762 29.6647 9.11471C29.5927 10.0368 29.2562 10.9185 28.6957 11.6542C28.1352 12.3899 27.3743 12.9483 26.5044 13.2624C25.7031 13.593 24.8435 13.7594 23.9767 13.752C23.8117 13.752 23.6476 13.7455 23.4844 13.7327L29.2604 7.17285C29.5332 7.74264 29.6715 8.36747 29.6647 8.99917Z" fill="white"/>
<path opacity="0.42" d="M21.677 4.61523L18.3764 9.42306C18.3589 9.26323 18.3506 9.10251 18.3516 8.94172C18.404 7.96907 18.7498 7.03511 19.3434 6.26281C19.937 5.49051 20.7505 4.9161 21.677 4.61523Z" fill="white"/>
<path opacity="0.42" d="M27.3198 5.08873L21.7281 13.3401C21.0824 13.1024 20.4844 12.7513 19.9623 12.3032L19.9375 12.2812L25.0974 4.27734L25.3724 4.32683C26.0602 4.46787 26.7189 4.72557 27.3198 5.08873Z" fill="white"/>
<path d="M27.9546 8.98845C27.9517 9.38164 27.8684 9.77012 27.7098 10.1299C27.3637 10.8065 26.8306 11.3695 26.1738 11.7518C25.517 12.1341 24.7641 12.3196 24.0049 12.2863C23.8921 12.2863 23.7794 12.2863 23.6666 12.2863C23.1302 12.2466 22.6054 12.1096 22.1181 11.882C21.5352 11.641 21.0341 11.237 20.6751 10.7184C20.316 10.1998 20.1142 9.58867 20.0938 8.95823C20.0985 8.42732 20.2488 7.90786 20.5283 7.45646C20.9137 6.8826 21.4389 6.41633 22.0544 6.10162C22.6698 5.78691 23.3553 5.63411 24.0462 5.65763C24.8537 5.65519 25.6463 5.87501 26.3373 6.293C26.7422 6.53873 27.0954 6.86105 27.377 7.24191C27.7515 7.74724 27.954 8.35944 27.9546 8.98845Z" fill="#F4C500"/>
<path opacity="0.38" d="M27.3683 7.23305L23.6579 12.2774C23.1215 12.2378 22.5967 12.1008 22.1094 11.8731L26.3314 6.28418C26.7353 6.53026 27.0874 6.85251 27.3683 7.23305Z" fill="#C57F2A"/>
<path opacity="0.38" d="M27.7049 10.1357C27.9114 9.3004 27.7803 8.41737 27.3401 7.67803C26.8999 6.93869 26.186 6.40261 25.3533 6.18604C24.5094 5.93107 23.6114 5.91486 22.7589 6.13916C21.9063 6.36346 21.1326 6.81952 20.5234 7.45677C20.9086 6.88273 21.4338 6.41633 22.0493 6.10159C22.6648 5.78686 23.3504 5.63415 24.0413 5.65794C25.001 5.58866 25.9493 5.90028 26.6809 6.52527C27.4124 7.15026 27.8683 8.0383 27.9497 8.99703C27.9462 9.39044 27.8619 9.77897 27.7022 10.1385L27.7049 10.1357Z" fill="#612115"/>
<path d="M20.8594 12.1678L21.8303 11.4774L21.1289 11.3564L20.8594 12.1678Z" fill="#D1A119"/>
<path d="M15.8516 5.48145L14.7734 6.24885L15.7746 6.32863L15.8516 5.48145Z" fill="#D1A119"/>
<path d="M21.6423 6.48221C21.7827 6.62405 21.915 6.77372 22.0385 6.93052C22.0825 6.98553 22.1265 7.0433 22.1677 7.10381L22.2585 7.23308C22.3804 7.41422 22.4879 7.60458 22.5803 7.80243C22.6348 7.91816 22.6835 8.03657 22.7261 8.15723C22.7986 8.35729 22.8529 8.5635 22.8883 8.77333C22.9125 8.91523 22.9272 9.05858 22.9323 9.20242C22.9377 9.34658 22.9322 9.49092 22.9159 9.63424C22.9159 9.71676 22.8938 9.79926 22.8773 9.88177C22.834 10.09 22.7657 10.2923 22.6738 10.4842C22.4798 10.8829 22.1873 11.2256 21.8239 11.4798C21.5536 11.6708 21.2547 11.8175 20.9382 11.9144C20.0664 12.1256 19.1544 12.1039 18.2937 11.8514C17.4329 11.5989 16.6537 11.1246 16.0342 10.4759C15.4359 9.97762 15.0207 9.29412 14.8543 8.53348C14.6879 7.77284 14.7799 6.97845 15.1155 6.27589C15.2949 5.97851 15.5314 5.7196 15.8114 5.51403L15.8444 5.48927C16.3519 5.1418 16.944 4.93837 17.5579 4.90066C17.774 4.88468 17.991 4.88468 18.207 4.90066C18.3143 4.90066 18.4216 4.91993 18.5288 4.93369C18.6939 4.95569 18.8617 4.98869 19.0267 5.02719C19.1917 5.0657 19.3347 5.10697 19.486 5.15923C19.6866 5.22776 19.8831 5.30763 20.0746 5.39849L20.2286 5.47278C20.3496 5.53604 20.4707 5.60204 20.5917 5.67356C20.8162 5.81125 21.0312 5.96378 21.2353 6.13013C21.3325 6.21265 21.4242 6.29698 21.5104 6.38316L21.6423 6.48221Z" fill="#D1A119"/>
<path opacity="0.25" d="M22.1622 7.10156L22.253 7.23083C22.3749 7.41196 22.4825 7.60232 22.5748 7.80018C22.6293 7.91593 22.678 8.03434 22.7206 8.15498C22.7931 8.35505 22.8474 8.56126 22.8829 8.77108C22.907 8.91298 22.9217 9.05634 22.9269 9.20017C22.9321 9.34433 22.9266 9.48866 22.9104 9.63199C22.1595 10.1821 21.1418 10.988 21.1418 10.988L19.4062 9.08463L22.1622 7.10156Z" fill="#612115"/>
<path opacity="0.42" d="M20.0812 5.38482L18.1559 6.76006L17.0859 5.9514L18.5409 4.90625C18.7059 4.92825 18.8719 4.95942 19.0387 4.99976C19.1928 5.03551 19.3468 5.07953 19.4981 5.13179C19.6971 5.20507 19.8917 5.28954 20.0812 5.38482Z" fill="#F5FF71"/>
<path d="M20.7925 7.06793C21.2917 7.50938 21.6639 8.07609 21.8709 8.7095C22.0778 9.34291 22.1119 10.02 21.9697 10.671C21.8044 11.2355 21.4512 11.7266 20.9685 12.0628L20.8778 12.1233C20.5677 12.3243 20.2253 12.4704 19.8656 12.5551C19.4027 12.6643 18.9247 12.694 18.4519 12.6432C18.2032 12.618 17.9567 12.5738 17.7147 12.5111C17.3571 12.4201 17.0097 12.2929 16.6778 12.1316L16.5815 12.0848C16.062 11.82 15.5877 11.4746 15.176 11.0616C14.7065 10.6398 14.3486 10.1084 14.1341 9.51484C13.9196 8.92124 13.8552 8.28379 13.9466 7.65927C13.9995 7.39905 14.0923 7.14858 14.2216 6.91667C14.4154 6.59071 14.676 6.30948 14.9863 6.09152C15.0578 6.04201 15.1293 5.9925 15.2063 5.94849C15.5733 5.73844 15.9763 5.59855 16.3945 5.53594C16.8203 5.4724 17.2532 5.4724 17.679 5.53594C18.4351 5.64398 19.1598 5.91112 19.8051 6.31979C20.1615 6.53102 20.4927 6.78201 20.7925 7.06793Z" fill="#F9EB40"/>
<path opacity="0.4" d="M20.5764 7.23312C21.0368 7.6401 21.3803 8.16259 21.5713 8.74669C21.7623 9.33078 21.7939 9.95528 21.6628 10.5557C21.5096 11.0756 21.1836 11.5278 20.7387 11.8374L20.6562 11.8924C20.3706 12.0779 20.0551 12.2128 19.7237 12.2912C19.2968 12.3911 18.856 12.4181 18.42 12.371C18.1908 12.3471 17.9636 12.3057 17.7406 12.2472C17.4104 12.1628 17.0897 12.0448 16.7835 11.8952L16.6955 11.8512C16.4125 11.707 16.1436 11.5366 15.8923 11.3423C15.718 11.2084 15.5526 11.0633 15.3973 10.9077C14.9642 10.5187 14.634 10.0285 14.4363 9.48098C14.2386 8.93341 14.1794 8.34543 14.2641 7.76944C14.3145 7.52921 14.4017 7.29822 14.5226 7.08459C14.6554 6.85302 14.8266 6.64561 15.0287 6.47122C15.0919 6.41551 15.158 6.36321 15.2267 6.31447C15.2928 6.26771 15.3588 6.22369 15.4275 6.18243C15.7674 5.98848 16.1405 5.85975 16.5277 5.80287C16.9207 5.7441 17.3202 5.7441 17.7131 5.80287C18.4106 5.90266 19.079 6.1492 19.6742 6.52624C20.0007 6.727 20.3034 6.96415 20.5764 7.23312Z" stroke="#F2A100" stroke-width="0.6" stroke-miterlimit="10"/>
<path opacity="0.42" d="M14.7821 6.24609L17.7141 12.5199C17.3564 12.428 17.009 12.3 16.6772 12.1376L16.5809 12.0908L14.2266 6.92272C14.3715 6.66696 14.5595 6.43807 14.7821 6.24609Z" fill="white"/>
<path opacity="0.42" d="M19.8136 6.30131L21.9645 10.6801C21.7992 11.2445 21.446 11.7356 20.9633 12.0718L20.8726 12.1323L17.6875 5.51465C18.4439 5.62353 19.1686 5.89167 19.8136 6.30131Z" fill="white"/>
<path d="M19.7472 7.82792C20.9546 9.04088 21.1224 10.6086 20.0937 11.332C19.9405 11.4396 19.7717 11.5231 19.5931 11.5796C19.2488 11.6852 18.8861 11.717 18.5287 11.6731C17.5941 11.5495 16.7281 11.1156 16.0698 10.4409C14.8623 9.2279 14.6945 7.66014 15.7232 6.93952C15.7645 6.90926 15.8112 6.87899 15.8552 6.85424C16.0459 6.7458 16.2531 6.66959 16.4686 6.6287C16.8384 6.56135 17.2177 6.56694 17.5853 6.64519C18.4059 6.81987 19.1575 7.23104 19.7472 7.82792Z" fill="#F4C500"/>
<path opacity="0.38" d="M17.5776 6.64192L19.5828 11.5928C19.2384 11.6984 18.8757 11.7302 18.5183 11.6863L16.4609 6.63916C16.8298 6.56727 17.2092 6.56823 17.5776 6.64192Z" fill="#C57F2A"/>
<path opacity="0.38" d="M20.0937 11.3313C19.4186 11.6472 18.658 11.7311 17.9302 11.5699C17.2025 11.4087 16.5484 11.0115 16.0698 10.4401C14.8623 9.22718 14.6945 7.65938 15.7232 6.93875C15.7672 6.9085 15.8112 6.88102 15.8552 6.85352C15.8057 6.89752 14.3535 8.11872 16.1 10.0936C16.5517 10.6928 17.1803 11.1348 17.8971 11.357C18.6139 11.5791 19.3823 11.5701 20.0937 11.3313Z" fill="#612115"/>
<path d="M43.0312 4.11416L41.5625 3.8584L41.9421 4.49649L43.0312 4.11416Z" fill="#D1A119"/>
<path d="M39.3438 12.9268L40.9747 13.2018L40.3311 12.3574L39.3438 12.9268Z" fill="#D1A119"/>
<path d="M36.2111 7.65157C36.2645 7.43485 36.3315 7.2217 36.4118 7.01344C36.4394 6.93642 36.4723 6.86218 36.5054 6.78517C36.5384 6.70816 36.5548 6.67516 36.5823 6.62015C36.6949 6.38751 36.8255 6.164 36.9729 5.95175C37.0609 5.82156 37.1526 5.69687 37.248 5.57768C37.5388 5.22718 37.8745 4.91646 38.2464 4.65353C38.4025 4.54301 38.565 4.44197 38.7332 4.35097C38.8322 4.29596 38.9313 4.24645 39.0331 4.20245C39.2945 4.08601 39.5661 3.99396 39.8444 3.92742C40.4062 3.78894 40.9905 3.76833 41.5607 3.8669C41.9527 3.93416 42.3321 4.06127 42.6856 4.24374C43.5237 4.71356 44.1784 5.45281 44.5434 6.34156C44.9084 7.2303 44.9622 8.21636 44.6963 9.13958C44.4725 10.0836 43.9819 10.9434 43.2831 11.6164C42.5842 12.2894 41.7066 12.7472 40.7548 12.9352C40.3094 13.0078 39.8552 13.0078 39.4099 12.9352H39.4071H39.3576C38.6507 12.8149 37.9916 12.4996 37.4543 12.0248C37.28 11.8707 37.1198 11.7014 36.9757 11.5187C36.9041 11.4307 36.8381 11.3372 36.7749 11.2437C36.6737 11.0965 36.5818 10.943 36.4998 10.7843C36.427 10.6363 36.3636 10.4838 36.31 10.3278C36.2382 10.1196 36.1821 9.90627 36.1422 9.68967C36.1422 9.63191 36.123 9.57412 36.112 9.51361C36.09 9.37333 36.0763 9.23857 36.068 9.08179C36.055 8.80089 36.065 8.51939 36.0983 8.24015C36.1175 8.10262 36.1395 7.96509 36.167 7.83032L36.2111 7.65157Z" fill="#D1A119"/>
<path opacity="0.25" d="M36.5078 6.78869C36.5326 6.73368 36.5574 6.67867 36.5849 6.62367C36.6974 6.39099 36.8279 6.16749 36.9754 5.95527C37.0634 5.82508 37.1551 5.70043 37.2504 5.58124C37.5411 5.23056 37.8768 4.91978 38.2488 4.65705C38.4049 4.54651 38.5675 4.44547 38.7357 4.35449C39.8826 4.54427 41.5191 4.74782 41.5191 4.74782L40.694 7.4983L36.5078 6.78869Z" fill="#612115"/>
<path opacity="0.42" d="M36.1406 9.68652L39.0781 10.1844L38.9736 11.6146L36.7732 11.2405C36.6765 11.0931 36.5892 10.9397 36.5119 10.7812C36.4393 10.633 36.3759 10.4806 36.3221 10.3246C36.246 10.1166 36.1854 9.90338 36.1406 9.68652Z" fill="#F5FF71"/>
<path d="M37.4916 7.87436C37.6847 7.07636 38.0665 6.33638 38.6049 5.71657C39.1434 5.09677 39.8227 4.61525 40.5859 4.3125C41.3044 4.03141 42.0858 3.95059 42.8467 4.0787L42.9788 4.10346C43.9228 4.29923 44.759 4.84201 45.3222 5.62449C45.4752 5.83659 45.6069 6.06319 45.7155 6.30107C45.8778 6.65096 45.9924 7.021 46.0566 7.40129L46.073 7.51129C46.1267 7.87087 46.1379 8.23555 46.1061 8.59774C46.0838 8.85551 46.0415 9.11116 45.9795 9.36237C45.7965 10.1145 45.4463 10.8157 44.9548 11.4138C44.4634 12.012 43.8435 12.4915 43.1411 12.817C42.815 12.965 42.4724 13.074 42.1207 13.1415H42.1014C41.7288 13.2113 41.3485 13.2298 40.971 13.1965C40.8554 13.1965 40.7399 13.1718 40.6244 13.1525C40.5089 13.1333 40.4126 13.1113 40.3081 13.0837C39.3737 12.8427 38.5639 12.2597 38.0389 11.45C37.6058 10.7809 37.3659 10.0051 37.3458 9.20834C37.3328 8.7591 37.3819 8.31021 37.4916 7.87436Z" fill="#F9EB40"/>
<path opacity="0.4" d="M37.8011 7.93239C37.9794 7.19646 38.3318 6.51411 38.8286 5.94264C39.3254 5.37117 39.9521 4.92728 40.6561 4.64832C41.3188 4.38943 42.0394 4.31531 42.7409 4.43382L42.8648 4.45854C43.7357 4.63864 44.5072 5.1393 45.0266 5.86131C45.1677 6.05706 45.2894 6.26615 45.3897 6.48564C45.5384 6.80582 45.6437 7.14437 45.7032 7.49234L45.7197 7.59412C45.7692 7.92549 45.7793 8.26153 45.7499 8.59529C45.7297 8.83263 45.6911 9.06804 45.6344 9.2994C45.4658 9.99274 45.1431 10.6391 44.6902 11.1906C44.2374 11.742 43.6661 12.1843 43.0188 12.4845C42.7181 12.6211 42.4024 12.7218 42.0781 12.7842H42.0589C41.7154 12.8492 41.3646 12.8667 41.0164 12.8365C40.9091 12.8365 40.8046 12.8145 40.6973 12.7952C40.59 12.776 40.5021 12.7567 40.4058 12.732C39.5445 12.5098 38.7983 11.9718 38.3154 11.2247C37.9155 10.6084 37.6937 9.89354 37.6745 9.1591C37.6603 8.74633 37.703 8.33357 37.8011 7.93239Z" stroke="#F2A100" stroke-width="0.709" stroke-miterlimit="10"/>
<path opacity="0.42" d="M40.9531 13.1907L45.6977 6.30078C45.86 6.65065 45.9747 7.02069 46.0387 7.401L46.0552 7.511L42.1028 13.1412H42.0835C41.7107 13.2092 41.3304 13.2259 40.9531 13.1907Z" fill="white"/>
<path opacity="0.42" d="M37.3203 9.20557L40.5576 4.3125C41.2762 4.03141 42.0576 3.95059 42.8185 4.0787L42.9505 4.10346L38.0134 11.4445C37.5808 10.7762 37.341 10.0014 37.3203 9.20557Z" fill="white"/>
<path d="M39.087 8.15194C39.2314 7.32296 39.6755 6.57599 40.3348 6.05312C40.9941 5.53025 41.8225 5.26795 42.6626 5.31619C42.8844 5.35423 43.0994 5.42467 43.3007 5.52524C43.6536 5.70453 43.9569 5.96813 44.1836 6.29264C44.5293 6.85437 44.7192 7.49796 44.7339 8.15736C44.7485 8.81676 44.5874 9.46819 44.2671 10.0447C43.9467 10.6213 43.4787 11.1022 42.9111 11.438C42.3434 11.7739 41.6966 11.9526 41.0371 11.9558C40.9738 11.9558 40.9078 11.9311 40.8473 11.9146C40.5993 11.8488 40.3641 11.7419 40.1514 11.5983C39.8179 11.37 39.5434 11.0654 39.351 10.7099C38.947 9.92004 38.8529 9.00768 39.087 8.15194Z" fill="#F4C500"/>
<path opacity="0.38" d="M39.3438 10.71L43.2989 5.52539C43.6519 5.70458 43.9551 5.9682 44.1818 6.29279L40.1441 11.5985C39.8104 11.3702 39.5361 11.0656 39.3438 10.71Z" fill="#C57F2A"/>
<path opacity="0.38" d="M42.6669 5.31641C43.0544 5.42362 43.4156 5.60976 43.7278 5.86313C44.04 6.11651 44.2964 6.43164 44.481 6.7888C44.6657 7.14596 44.7745 7.53745 44.8008 7.93866C44.827 8.33988 44.77 8.74218 44.6335 9.12034C44.4888 9.95231 44.0423 10.7017 43.3795 11.2249C42.7167 11.7482 41.8842 12.0085 41.0413 11.9561C40.9781 11.9561 40.9121 11.9313 40.8516 11.9148C41.6279 11.9596 42.3947 11.7261 43.0143 11.2563C43.6339 10.7864 44.0656 10.111 44.2319 9.35138C44.5591 8.60874 44.5781 7.76655 44.2846 7.00993C43.9911 6.25331 43.4093 5.64416 42.6669 5.31641Z" fill="#612115"/>
<path d="M37.8937 11.2964C37.8937 11.3349 37.8937 11.3735 37.8937 11.412C37.8217 12.3341 37.4853 13.2158 36.9248 13.9515C36.3642 14.6871 35.6033 15.2455 34.7334 15.5597C33.932 15.8901 33.0726 16.0565 32.2058 16.0492C32.0407 16.0492 31.8757 16.0492 31.7134 16.03L31.4934 16.0108C30.965 15.9529 30.4459 15.83 29.9476 15.6449C29.302 15.4072 28.704 15.056 28.1818 14.608L28.1571 14.586C27.759 14.2397 27.4199 13.831 27.1531 13.3758C26.8566 12.8701 26.6692 12.308 26.6031 11.7255C26.5851 11.5657 26.5768 11.405 26.5783 11.2442C26.6299 10.2714 26.9751 9.33706 27.5682 8.56425C28.1613 7.79145 28.9746 7.21641 29.9009 6.91492C30.6575 6.62932 31.4603 6.48575 32.269 6.49137C32.6201 6.49321 32.9705 6.52263 33.3169 6.57938L33.592 6.62886C34.2817 6.76946 34.9422 7.02717 35.5449 7.39076C36.1181 7.73545 36.6203 8.18634 37.0246 8.71925C37.2018 8.95497 37.3556 9.20738 37.4839 9.47288C37.7582 10.0414 37.8984 10.6652 37.8937 11.2964Z" fill="#F9EB40"/>
<path opacity="0.4" d="M37.3331 11.2939C37.3331 11.3297 37.3331 11.3627 37.3331 11.3984C37.2681 12.2278 36.9652 13.0209 36.4608 13.6824C35.9563 14.3439 35.2717 14.8459 34.4891 15.1281C33.7688 15.4251 32.9963 15.5748 32.2172 15.5681C32.0031 15.5675 31.7892 15.5556 31.5763 15.5324C30.4785 15.4209 29.4401 14.9798 28.5976 14.2672C28.2302 13.954 27.917 13.5822 27.6707 13.167C27.4055 12.7133 27.2379 12.2093 27.1783 11.6872C27.1627 11.5438 27.1553 11.3997 27.1563 11.2554C27.2028 10.3802 27.5134 9.53955 28.0471 8.84431C28.5808 8.14908 29.3126 7.63186 30.1461 7.36076C30.6269 7.17727 31.1301 7.05885 31.6423 7.00868C32.2496 6.94774 32.8626 6.97926 33.4604 7.10219C34.6838 7.33303 35.7815 8.00067 36.5492 8.98076C37.0575 9.64478 37.3329 10.4577 37.3331 11.2939Z" stroke="#F2A100" stroke-width="0.742" stroke-miterlimit="10"/>
<path opacity="0.29" d="M37.8912 11.296C37.8912 11.3346 37.8912 11.3731 37.8912 11.4116C37.8192 12.3337 37.4828 13.2154 36.9223 13.9511C36.3617 14.6868 35.6008 15.2452 34.7309 15.5593C33.9296 15.8898 33.07 16.0562 32.2032 16.0489C32.0382 16.0489 31.8732 16.0488 31.7109 16.0296L37.4869 9.46973C37.7597 10.0395 37.8981 10.6643 37.8912 11.296Z" fill="white"/>
<path opacity="0.42" d="M29.9035 6.91504L26.603 11.7229C26.5854 11.563 26.5772 11.4023 26.5782 11.2415C26.6306 10.2689 26.9764 9.33491 27.5699 8.56261C28.1635 7.79031 28.9771 7.2159 29.9035 6.91504Z" fill="white"/>
<path opacity="0.42" d="M35.5463 7.39326L29.9546 15.6447C29.3088 15.4061 28.7108 15.054 28.1888 14.605L28.1641 14.583L33.3239 6.5791L33.599 6.62862C34.2869 6.77068 34.9455 7.02928 35.5463 7.39326Z" fill="white"/>
<path d="M36.1812 11.2885C36.1783 11.6817 36.095 12.0701 35.9364 12.4299C35.5904 13.1065 35.0572 13.6694 34.4004 14.0517C33.7436 14.434 32.9908 14.6195 32.2315 14.5862C32.1187 14.5862 32.0032 14.5862 31.8932 14.5862C31.357 14.5473 30.8323 14.4113 30.3447 14.1847C29.7618 13.9437 29.2607 13.5397 28.9017 13.0211C28.5426 12.5025 28.3407 11.8914 28.3203 11.2609C28.3252 10.73 28.4755 10.2107 28.7549 9.75919C29.1403 9.18534 29.6655 8.71907 30.281 8.40435C30.8964 8.08964 31.5819 7.93684 32.2728 7.96037C33.0802 7.95863 33.8727 8.1784 34.5639 8.59573C34.9689 8.84135 35.3221 9.16369 35.6036 9.54465C35.9774 10.0493 36.1798 10.6604 36.1812 11.2885Z" fill="#F4C500"/>
<path opacity="0.38" d="M35.5948 9.53306L31.8844 14.5774C31.3482 14.5384 30.8235 14.4024 30.3359 14.1759L34.5579 8.58691C34.9617 8.83201 35.3138 9.15336 35.5948 9.53306Z" fill="#C57F2A"/>
<path opacity="0.38" d="M35.9315 12.4267C36.138 11.5914 36.0069 10.7084 35.5667 9.96904C35.1265 9.22971 34.4126 8.69363 33.5799 8.47705C32.736 8.22208 31.838 8.20587 30.9854 8.43017C30.1329 8.65447 29.3591 9.11053 28.75 9.74778C29.1352 9.17374 29.6604 8.70734 30.2759 8.39261C30.8914 8.07788 31.577 7.92517 32.2679 7.94896C33.2276 7.87967 34.1759 8.1913 34.9075 8.81629C35.639 9.44127 36.0949 10.3293 36.1763 11.288C36.1737 11.6813 36.0904 12.0698 35.9315 12.4295V12.4267Z" fill="#612115"/>
<path d="M20.155 23.4282C19.9556 23.0607 19.7333 22.7061 19.4893 22.3665C17.9769 20.2944 16.1625 18.4606 14.1067 16.9261C10.3743 14.0519 11.3562 12.4813 13.7491 11.769C14.2966 11.6117 14.8559 11.4986 15.4214 11.4307C16.1631 13.3562 17.1024 15.1997 18.2242 16.9316C19.3522 18.9226 20.0125 21.1443 20.155 23.4282Z" fill="#F7961D"/>
<path d="M45.5823 15.3556C42.4506 17.2063 39.8529 19.8381 38.0433 22.9937C38.0212 22.8946 37.5537 20.5622 40.7937 17.435C42.7517 15.5779 44.1763 13.2301 44.9194 10.6358C50.6542 9.49435 51.0145 11.9918 45.5823 15.3556Z" fill="#F7961D"/>
<path d="M53.4038 67.175C50.3481 68.7455 48.6208 65.83 43.1803 66.6249C37.7399 67.4198 38.9309 69.9887 24.3286 69.7632C9.72634 69.5376 10.3865 65.951 6.67057 66.6249C3.9201 67.12 2.70163 67.4968 1.60694 66.8999C1.43314 66.8033 1.26918 66.69 1.11737 66.5616C0.870657 66.3464 0.642477 66.1109 0.435253 65.8575C-1.15727 63.9514 2.16255 63.052 1.76374 59.1298C1.36492 55.2077 2.03878 49.4839 9.06624 41.8569C15.6894 34.6781 18.7864 32.5658 19.8976 26.5395C19.9664 26.1654 20.0296 25.7776 20.0846 25.3705C20.1328 25.0056 20.1613 24.6384 20.1699 24.2704C20.1699 23.9953 20.1699 23.7203 20.1699 23.4645C20.1699 23.2921 20.1561 23.1225 20.1286 22.9556C20.1261 22.9067 20.1205 22.8581 20.1121 22.8098C20.1121 22.7457 20.1039 22.6824 20.0874 22.6201C19.4685 18.2991 16.135 15.5101 15.5821 12.7018C15.486 12.2815 15.4271 11.8535 15.4061 11.4229C15.3455 9.07123 16.8941 8.45511 19.5318 8.84293C19.6968 8.86768 19.8728 8.89795 20.0544 8.93371C23.2614 9.54706 29.1722 11.6979 35.3278 10.6363L35.5395 10.5977C41.8656 9.47829 43.5709 7.84727 44.6161 9.73959C44.7611 10.0146 44.8543 10.3138 44.8911 10.6225C44.7997 12.2579 44.3455 13.8524 43.5615 15.2905C42.7775 16.7286 41.6834 17.9743 40.3584 18.9372C39.0723 19.924 38.2241 21.3755 37.9957 22.9804C37.9202 23.9273 38.0779 24.8783 38.455 25.7501C38.623 26.1586 38.8197 26.5548 39.0436 26.9355C39.3595 27.4692 39.7095 27.9818 40.0916 28.4703C42.3497 31.3858 50.5791 38.4518 52.1744 46.5272C53.7697 54.6026 54.1685 55.0536 54.1685 58.6292C54.1685 62.2048 56.4569 65.6072 53.4038 67.175Z" fill="#FFC708"/>
<path opacity="0.38" d="M39.0857 26.9461C32.729 26.0509 26.2893 25.9041 19.8984 26.5088C19.9672 26.1347 20.0304 25.7469 20.0855 25.3399C20.1337 24.9749 20.1621 24.6076 20.1707 24.2396C22.0025 24.0114 24.3157 23.8106 26.8709 23.5851C30.8495 23.5517 34.7965 24.2935 38.4916 25.7689C38.6616 26.1748 38.8602 26.5683 39.0857 26.9461Z" fill="#021559"/>
<path opacity="0.85" d="M13.577 39.3264C6.75034 46.97 3.1252 51.2085 3.67529 56.5004C4.22539 61.7923 -0.857466 64.2182 1.11737 66.5313C0.870657 66.3162 0.642477 66.0806 0.435253 65.8272C-1.15727 63.9211 2.16255 63.0217 1.76374 59.0996C1.36492 55.1774 2.03878 49.4537 9.06624 41.8266C16.0937 34.1995 19.1577 32.2935 20.0846 25.3403C20.1707 24.7069 20.1956 24.0668 20.1589 23.4287C20.1589 23.2563 20.1451 23.0867 20.1176 22.9198C20.115 22.871 20.1095 22.8223 20.1011 22.7741C20.1011 22.7099 20.0929 22.6466 20.0764 22.5843C19.4575 18.2633 16.1239 15.4743 15.5711 12.6661C15.4863 12.2567 15.4366 11.8408 15.4225 11.4229C15.362 9.07123 16.9106 8.45511 19.5483 8.84293C19.7133 8.86768 19.8893 8.89795 20.0709 8.93371C19.1164 8.96946 17.6229 9.28853 17.8952 10.9801C18.2913 13.4335 21.3911 16.0987 22.2767 22.7053C23.1624 29.312 20.4037 31.6801 13.577 39.3264Z" fill="#F6F7F9"/>
<path opacity="0.503" d="M53.4063 67.1725C50.3505 68.743 48.6232 65.8275 43.1828 66.6224C37.7423 67.4173 38.9333 69.9863 24.331 69.7607C9.72877 69.5352 10.3889 65.9485 6.673 66.6224C3.92253 67.1175 2.70406 67.4943 1.60938 66.8975C5.18499 66.3996 7.55314 64.6173 9.98456 65.1977C16.8896 66.1233 23.8727 66.3234 30.8194 65.7945C33.9462 65.2755 36.857 63.8658 39.203 61.7345C41.549 59.6031 43.2307 56.8405 44.0464 53.7777C45.8452 46.0984 40.2975 38.8729 36.4991 31.4989C32.7007 24.1248 33.4736 21.3551 36.8127 18.5716C40.1518 15.7882 42.1073 13.1753 40.1407 11.6405C38.7632 10.8169 37.1531 10.469 35.5585 10.6503C41.8845 9.53087 43.5898 7.89981 44.635 9.79214C44.7799 10.0671 44.8731 10.3664 44.9101 10.675C50.6365 9.53909 50.9941 12.0338 45.5537 15.4004C42.422 17.251 39.8243 19.8829 38.0146 23.0384C37.9889 25.0713 38.7372 27.0378 40.1078 28.5394C42.3659 31.4549 50.5953 38.5209 52.1906 46.5962C53.7858 54.6716 54.1847 55.1227 54.1847 58.6983C54.1847 62.2739 56.4593 65.6047 53.4063 67.1725Z" fill="#D03F30"/>
<path d="M19.3759 24.1436C19.2339 24.1507 19.0934 24.111 18.9761 24.0305C18.8588 23.95 18.7712 23.8332 18.7268 23.6981C18.7136 23.6203 18.7167 23.5406 18.7359 23.4641C18.7551 23.3876 18.7899 23.3159 18.8383 23.2536C18.8866 23.1912 18.9474 23.1396 19.0168 23.1021C19.0861 23.0645 19.1625 23.0417 19.2411 23.0352C25.6344 21.9222 32.1676 21.873 38.5769 22.8894C38.6555 22.8983 38.7313 22.9239 38.799 22.9646C38.8668 23.0054 38.925 23.0603 38.9696 23.1255C39.0142 23.1908 39.0443 23.2649 39.0577 23.3428C39.0711 23.4207 39.0676 23.5006 39.0473 23.5771C38.9828 23.7332 38.8629 23.86 38.7106 23.9332C38.5583 24.0063 38.3843 24.0205 38.2221 23.9731C32.0132 23.0208 25.6915 23.0747 19.4997 24.1326C19.4588 24.1396 19.4174 24.1432 19.3759 24.1436Z" fill="#632B1A"/>
<path d="M19.3759 25.1642C19.2338 25.1717 19.093 25.1322 18.9757 25.0516C18.8583 24.971 18.7708 24.854 18.7268 24.7186C18.7136 24.6408 18.7167 24.5611 18.7359 24.4846C18.7551 24.4081 18.7899 24.3364 18.8383 24.2741C18.8866 24.2118 18.9474 24.1602 19.0168 24.1226C19.0861 24.085 19.1625 24.0622 19.2411 24.0557C25.6344 22.9428 32.1676 22.8935 38.5769 23.9099C38.6555 23.9187 38.7313 23.9444 38.799 23.9852C38.8668 24.0259 38.925 24.0808 38.9696 24.146C39.0142 24.2113 39.0443 24.2854 39.0577 24.3633C39.0711 24.4412 39.0676 24.5211 39.0473 24.5975C38.9833 24.7541 38.8635 24.8813 38.711 24.9545C38.5586 25.0277 38.3843 25.0416 38.2221 24.9936C32.0132 24.0414 25.6915 24.0953 19.4997 25.1532C19.4588 25.1601 19.4174 25.1638 19.3759 25.1642Z" fill="#8E420E"/>
<path d="M19.3759 26.1818C19.2338 26.1894 19.093 26.1498 18.9757 26.0693C18.8583 25.9887 18.7708 25.8716 18.7268 25.7362C18.7136 25.6585 18.7167 25.5788 18.7359 25.5023C18.7551 25.4258 18.7899 25.3541 18.8383 25.2917C18.8866 25.2294 18.9474 25.1778 19.0168 25.1402C19.0861 25.1026 19.1625 25.0799 19.2411 25.0734C25.6344 23.9603 32.1676 23.911 38.5769 24.9276C38.6555 24.9364 38.7313 24.9621 38.799 25.0028C38.8668 25.0436 38.925 25.0984 38.9696 25.1637C39.0142 25.229 39.0443 25.303 39.0577 25.381C39.0711 25.4589 39.0676 25.5388 39.0473 25.6152C38.9833 25.7718 38.8635 25.899 38.711 25.9722C38.5586 26.0454 38.3843 26.0593 38.2221 26.0113C32.0132 25.059 25.6915 25.1128 19.4997 26.1708C19.4588 26.1777 19.4174 26.1814 19.3759 26.1818Z" fill="#632B1A"/>
<path d="M33.0064 25.7888C32.9653 25.793 32.9238 25.793 32.8827 25.7888C32.8191 25.7823 32.7576 25.7623 32.7023 25.7302C32.647 25.698 32.5991 25.6545 32.5619 25.6025C32.5247 25.5505 32.499 25.4912 32.4865 25.4285C32.474 25.3657 32.475 25.3011 32.4894 25.2388C32.6794 24.7884 32.7621 24.3 32.7311 23.8122C32.7001 23.3244 32.5561 22.8504 32.3106 22.4278C32.2707 22.3818 32.2416 22.3274 32.2255 22.2687C32.2094 22.21 32.2066 22.1485 32.2174 22.0886C32.2282 22.0287 32.2523 21.9719 32.288 21.9226C32.3236 21.8732 32.3699 21.8325 32.4234 21.8034C32.5371 21.7322 32.6716 21.7016 32.8049 21.7166C32.9383 21.7316 33.0626 21.7913 33.1577 21.886C33.5089 22.403 33.7259 22.9992 33.7893 23.621C33.8527 24.2428 33.7604 24.8706 33.5208 25.4478C33.4824 25.5519 33.4118 25.641 33.3194 25.7023C33.2269 25.7637 33.1173 25.794 33.0064 25.7888Z" fill="#632B1A"/>
<path d="M35.1705 25.7888C35.1293 25.793 35.0879 25.793 35.0468 25.7888C34.9832 25.7823 34.9216 25.7623 34.8663 25.7302C34.811 25.698 34.7632 25.6545 34.726 25.6025C34.6889 25.5505 34.6631 25.4912 34.6506 25.4285C34.6381 25.3657 34.6391 25.3011 34.6534 25.2388C34.8437 24.7884 34.9265 24.3001 34.8955 23.8122C34.8645 23.3243 34.7204 22.8504 34.4747 22.4278C34.4347 22.3818 34.4057 22.3274 34.3895 22.2687C34.3734 22.21 34.3707 22.1485 34.3815 22.0886C34.3923 22.0287 34.4164 21.9719 34.4521 21.9226C34.4877 21.8732 34.5339 21.8325 34.5874 21.8034C34.7011 21.7322 34.8356 21.7016 34.969 21.7166C35.1023 21.7316 35.2267 21.7913 35.3218 21.886C35.6729 22.403 35.89 22.9992 35.9534 23.621C36.0168 24.2428 35.9245 24.8706 35.6849 25.4478C35.6464 25.5519 35.5759 25.641 35.4834 25.7023C35.3909 25.7637 35.2813 25.794 35.1705 25.7888Z" fill="#632B1A"/>
<path d="M35.1693 38.5374C35.0628 38.5419 34.9576 38.5141 34.8672 38.4576C34.7769 38.4012 34.7058 38.3187 34.6632 38.2211C34.0212 36.3925 33.8012 34.4424 34.0196 32.5167C34.218 31.3024 34.0712 30.0567 33.596 28.9218C33.1656 28.3082 32.8924 27.5984 32.8003 26.8546C32.7082 26.1108 32.8001 25.3558 33.0679 24.6558C33.1434 24.5439 33.2557 24.462 33.3854 24.4243C33.515 24.3866 33.6537 24.3956 33.7775 24.4495C33.8361 24.4682 33.8899 24.4995 33.9351 24.5412C33.9803 24.5828 34.0158 24.6339 34.0392 24.6908C34.0625 24.7477 34.0731 24.8091 34.0702 24.8705C34.0673 24.9319 34.0509 24.9919 34.0223 25.0464C33.8384 25.6353 33.7924 26.2585 33.8877 26.868C33.9831 27.4775 34.2174 28.0569 34.5724 28.5615C35.1199 29.8197 35.2983 31.2077 35.0867 32.5634C34.8784 34.3833 35.0824 36.2268 35.6836 37.9571C35.6998 38.0165 35.7034 38.0786 35.6941 38.1394C35.6848 38.2003 35.6629 38.2585 35.6297 38.3103C35.5966 38.3622 35.5529 38.4065 35.5015 38.4404C35.4502 38.4743 35.3922 38.497 35.3315 38.5072C35.279 38.5245 35.2245 38.5346 35.1693 38.5374Z" fill="#632B1A"/>
<path d="M40.0821 42.5744C40.0029 42.5757 39.9243 42.5604 39.8514 42.5296C39.7785 42.4989 39.7128 42.4532 39.6585 42.3956C37.6418 39.8702 36.5976 36.7054 36.7155 33.4758C36.7467 31.8902 36.4342 30.3166 35.7996 28.8633C33.9677 25.6947 34.4876 24.7761 34.7957 24.5285C34.9042 24.4458 35.0376 24.4024 35.174 24.4054C35.3104 24.4084 35.4418 24.4576 35.5466 24.545C35.5887 24.5796 35.6232 24.6225 35.6481 24.671C35.673 24.7194 35.6878 24.7725 35.6914 24.8269C35.6951 24.8813 35.6874 24.9358 35.6691 24.9871C35.6508 25.0385 35.6222 25.0855 35.585 25.1254C35.5493 25.2107 35.31 25.967 36.7568 28.4699C37.4607 30.0239 37.8092 31.7152 37.7771 33.4208C37.6601 36.4648 38.628 39.4515 40.5084 41.8482C40.5496 41.8935 40.5801 41.9475 40.5974 42.0062C40.6148 42.0649 40.6186 42.1268 40.6085 42.1872C40.5985 42.2476 40.5748 42.3049 40.5394 42.3548C40.5039 42.4048 40.4576 42.446 40.4039 42.4754C40.3084 42.5387 40.1966 42.5731 40.0821 42.5744Z" fill="#632B1A"/>
<path d="M42.0353 42.574C42.0933 42.9186 42.0442 43.2728 41.8943 43.5885C41.7445 43.9042 41.5013 44.1662 41.1977 44.3391C40.894 44.5121 40.5446 44.5875 40.1966 44.5553C39.8487 44.5231 39.5189 44.3849 39.2522 44.1592C38.9854 43.9334 38.7945 43.6312 38.7051 43.2933C38.6158 42.9555 38.6323 42.5984 38.7526 42.2703C38.8729 41.9422 39.0911 41.659 39.3776 41.459C39.6642 41.2589 40.0053 41.1518 40.3548 41.152C40.7655 41.1207 41.1721 41.2524 41.4866 41.5185C41.8011 41.7846 41.9982 42.1637 42.0353 42.574Z" fill="#300801"/>
<path d="M35.4305 39.9582C36.3587 39.9582 37.1111 39.3216 37.1111 38.5363C37.1111 37.7509 36.3587 37.1143 35.4305 37.1143C34.5024 37.1143 33.75 37.7509 33.75 38.5363C33.75 39.3216 34.5024 39.9582 35.4305 39.9582Z" fill="#300801"/>
<path d="M34.1003 25.7888C34.0591 25.793 34.0176 25.793 33.9765 25.7888C33.9128 25.7823 33.8514 25.7623 33.7961 25.7302C33.7408 25.698 33.6929 25.6545 33.6557 25.6025C33.6185 25.5505 33.5929 25.4912 33.5804 25.4285C33.5678 25.3657 33.5688 25.3011 33.5831 25.2388C33.7733 24.7884 33.8562 24.3001 33.8252 23.8122C33.7942 23.3243 33.6501 22.8504 33.4043 22.4278C33.3644 22.3818 33.3354 22.3274 33.3192 22.2687C33.3031 22.21 33.3003 22.1485 33.3112 22.0886C33.322 22.0287 33.3461 21.9719 33.3818 21.9226C33.4174 21.8732 33.4637 21.8325 33.5172 21.8034C33.6309 21.7322 33.7654 21.7016 33.8987 21.7166C34.0321 21.7316 34.1564 21.7913 34.2515 21.886C34.6027 22.403 34.8197 22.9992 34.8831 23.621C34.9465 24.2428 34.8542 24.8706 34.6146 25.4478C34.5761 25.5519 34.5056 25.641 34.4131 25.7023C34.3206 25.7637 34.2111 25.794 34.1003 25.7888Z" fill="#8E420E"/>
<path opacity="0.29" d="M19.5128 22.3671C18.0003 20.295 16.1859 18.4612 14.1301 16.9267C10.3977 14.0524 11.3797 12.4819 13.7726 11.7695C13.7726 11.7695 11.6327 12.966 14.0008 14.9656C16.5309 16.8322 18.4493 19.4083 19.5128 22.3671Z" fill="#F6F7F9"/>
</svg>
