<svg xmlns="http://www.w3.org/2000/svg" width="55" height="55" viewBox="0 0 55 55">
  <g id="Group_65250" data-name="Group 65250" transform="translate(0 0.413)">
    <circle id="Ellipse_8454" data-name="Ellipse 8454" cx="27.5" cy="27.5" r="27.5" transform="translate(0 -0.413)" fill="#2d943e"/>
    <path id="Path_310015" data-name="Path 310015" d="M471.483,438.192a6.062,6.062,0,0,0-2.884-.049h0l-.023.005a3.926,3.926,0,0,0-.572.175,7.34,7.34,0,0,0-2.426,1.543c-3.57,2.986-7.7,9-9.911,12.446-.662.974-1.218,1.857-1.605,2.576l0,0h0q-.158.293-.277.549a.2.2,0,0,1-.367.009,12.252,12.252,0,0,0-5.865-5.352,3.451,3.451,0,0,0-1.839.068,8.944,8.944,0,0,0-3.295,2.011c-.49.528-.066.992.77,1.612h0q.136.1.284.206h0l.258.183c1,.758,2.056,1.737,2.071,1.75a18.745,18.745,0,0,1,4.18,6.5c.1.262.18.5.258.712v0c.3.84.5,1.291.917,1.333a33.479,33.479,0,0,0,4.668-.593,1.065,1.065,0,0,0,.819-.685c1.175-3.232,7.749-18.274,15.112-23.215a1,1,0,0,0-.272-1.792" transform="translate(-429.208 -424.405)" fill="#fff"/>
  </g>
</svg>
