<svg xmlns="http://www.w3.org/2000/svg" width="40" height="40" viewBox="0 0 40 40">
  <g id="Group_87355" data-name="Group 87355" transform="translate(-50 -698)">
    <g id="Group_65249" data-name="Group 65249" transform="translate(50 698)">
      <circle id="Ellipse_8454" data-name="Ellipse 8454" cx="20" cy="20" r="20" transform="translate(0 0)" fill="#381a70"/>
      <path id="Path_310015" data-name="Path 310015" d="M461.725,438.125a4.041,4.041,0,0,0-1.922-.033h0l-.016,0a2.622,2.622,0,0,0-.382.117,4.895,4.895,0,0,0-1.617,1.029c-2.38,1.99-5.13,6-6.607,8.3-.441.65-.812,1.238-1.07,1.717v0h0q-.105.2-.184.366a.137.137,0,0,1-.245.006,8.168,8.168,0,0,0-3.91-3.568,2.3,2.3,0,0,0-1.226.045,5.964,5.964,0,0,0-2.2,1.341c-.327.352-.044.662.513,1.075h0l.19.138h0l.172.122c.668.505,1.371,1.158,1.381,1.167a12.5,12.5,0,0,1,2.787,4.332c.064.175.12.333.172.474v0c.2.56.332.861.611.888a22.315,22.315,0,0,0,3.112-.4.71.71,0,0,0,.546-.457c.783-2.154,5.166-12.183,10.075-15.477a.668.668,0,0,0-.182-1.194" transform="translate(-432.209 -426.991)" fill="#2d943e"/>
    </g>
  </g>
</svg>
