<svg xmlns="http://www.w3.org/2000/svg" width="40" height="25" viewBox="0 0 40 25">
  <g id="Scorecard" transform="translate(-128.118 -145.595)">
    <rect id="Rectangle_17936" data-name="Rectangle 17936" width="40" height="25" rx="2" transform="translate(128.118 145.595)" fill="#ffc708"/>
    <path id="Rectangle_17937" data-name="Rectangle 17937" d="M0,0H18a2,2,0,0,1,2,2V23a2,2,0,0,1-2,2H0a0,0,0,0,1,0,0V0A0,0,0,0,1,0,0Z" transform="translate(148.118 145.595)" fill="#f7961d"/>
    <g id="Group_60376" data-name="Group 60376" transform="translate(131.118 150.595)">
      <rect id="Rectangle_17938" data-name="Rectangle 17938" width="15" height="15" transform="translate(0 0)" fill="#333"/>
      <rect id="Rectangle_17939" data-name="Rectangle 17939" width="12.802" height="12.802" transform="translate(1 1)"/>
    </g>
    <g id="Group_60377" data-name="Group 60377" transform="translate(150.118 150.595)">
      <rect id="Rectangle_17940" data-name="Rectangle 17940" width="15" height="15" transform="translate(0 0)" fill="#333"/>
      <rect id="Rectangle_17941" data-name="Rectangle 17941" width="12.802" height="12.802" transform="translate(1.099 1.099)"/>
    </g>
    <g id="Group_60378" data-name="Group 60378" transform="translate(133.118 153.594)">
      <path id="Path_141317" data-name="Path 141317" d="M154.617,166.605a.323.323,0,1,1-.319-.376A.351.351,0,0,1,154.617,166.605Z" transform="translate(-147.392 -166.229)" fill="#aaff8c"/>
      <ellipse id="Ellipse_6037" data-name="Ellipse 6037" cx="0.319" cy="0.376" rx="0.319" ry="0.376" transform="translate(6.517 0.908)" fill="#aaff8c"/>
      <path id="Path_141318" data-name="Path 141318" d="M154.306,170a.323.323,0,1,1-.319-.376A.351.351,0,0,1,154.306,170Z" transform="translate(-147.222 -167.812)" fill="#aaff8c"/>
      <ellipse id="Ellipse_6038" data-name="Ellipse 6038" cx="0.319" cy="0.376" rx="0.319" ry="0.376" transform="translate(6.376 2.723)" fill="#aaff8c"/>
      <path id="Path_141319" data-name="Path 141319" d="M154,173.4a.323.323,0,1,1-.319-.376A.351.351,0,0,1,154,173.4Z" transform="translate(-147.053 -169.396)" fill="#aaff8c"/>
      <path id="Path_141320" data-name="Path 141320" d="M153.84,175.1a.323.323,0,1,1-.319-.376A.351.351,0,0,1,153.84,175.1Z" transform="translate(-146.967 -170.188)" fill="#aaff8c"/>
      <path id="Path_141321" data-name="Path 141321" d="M153.685,176.8a.323.323,0,1,1-.319-.376A.351.351,0,0,1,153.685,176.8Z" transform="translate(-146.883 -170.979)" fill="#aaff8c"/>
      <path id="Path_141322" data-name="Path 141322" d="M153.53,178.5a.323.323,0,1,1-.319-.375A.351.351,0,0,1,153.53,178.5Z" transform="translate(-146.798 -171.771)" fill="#aaff8c"/>
      <path id="Path_141323" data-name="Path 141323" d="M153.374,180.2a.323.323,0,1,1-.319-.376A.351.351,0,0,1,153.374,180.2Z" transform="translate(-146.713 -172.563)" fill="#aaff8c"/>
      <ellipse id="Ellipse_6039" data-name="Ellipse 6039" cx="0.319" cy="0.376" rx="0.319" ry="0.376" transform="translate(5.953 8.17)" fill="#aaff8c"/>
      <path id="Path_141324" data-name="Path 141324" d="M156.28,166.605a.323.323,0,1,1-.319-.376A.351.351,0,0,1,156.28,166.605Z" transform="translate(-148.301 -166.229)" fill="#aaff8c"/>
      <path id="Path_141325" data-name="Path 141325" d="M157.943,166.605a.323.323,0,1,1-.319-.376A.351.351,0,0,1,157.943,166.605Z" transform="translate(-149.209 -166.229)" fill="#aaff8c"/>
      <path id="Path_141326" data-name="Path 141326" d="M159.606,166.605a.323.323,0,1,1-.319-.376A.351.351,0,0,1,159.606,166.605Z" transform="translate(-150.118 -166.229)" fill="#aaff8c"/>
      <path id="Path_141327" data-name="Path 141327" d="M161.269,166.605a.323.323,0,1,1-.319-.376A.351.351,0,0,1,161.269,166.605Z" transform="translate(-151.026 -166.229)" fill="#aaff8c"/>
      <path id="Path_141328" data-name="Path 141328" d="M162.932,166.605a.323.323,0,1,1-.319-.376A.351.351,0,0,1,162.932,166.605Z" transform="translate(-151.935 -166.229)" fill="#aaff8c"/>
      <ellipse id="Ellipse_6040" data-name="Ellipse 6040" cx="0.319" cy="0.376" rx="0.319" ry="0.376" transform="translate(5.953 8.17)" fill="#aaff8c"/>
      <path id="Path_141329" data-name="Path 141329" d="M162.937,166.605a.324.324,0,1,1-.319-.376A.351.351,0,0,1,162.937,166.605Z" transform="translate(-151.937 -166.229)" fill="#aaff8c"/>
      <path id="Path_141330" data-name="Path 141330" d="M162.781,168.3a.323.323,0,1,1-.319-.376A.351.351,0,0,1,162.781,168.3Z" transform="translate(-151.852 -167.021)" fill="#aaff8c"/>
      <path id="Path_141331" data-name="Path 141331" d="M162.626,170a.323.323,0,1,1-.319-.376A.351.351,0,0,1,162.626,170Z" transform="translate(-151.767 -167.812)" fill="#aaff8c"/>
      <ellipse id="Ellipse_6041" data-name="Ellipse 6041" cx="0.319" cy="0.376" rx="0.319" ry="0.376" transform="translate(10.15 2.723)" fill="#aaff8c"/>
      <path id="Path_141332" data-name="Path 141332" d="M162.315,173.4a.323.323,0,1,1-.319-.376A.351.351,0,0,1,162.315,173.4Z" transform="translate(-151.598 -169.396)" fill="#aaff8c"/>
      <ellipse id="Ellipse_6042" data-name="Ellipse 6042" cx="0.319" cy="0.376" rx="0.319" ry="0.376" transform="translate(10.009 4.539)" fill="#aaff8c"/>
      <path id="Path_141333" data-name="Path 141333" d="M162,176.8a.324.324,0,1,1-.319-.376A.351.351,0,0,1,162,176.8Z" transform="translate(-151.428 -170.979)" fill="#aaff8c"/>
      <path id="Path_141334" data-name="Path 141334" d="M161.849,178.5a.323.323,0,1,1-.319-.375A.351.351,0,0,1,161.849,178.5Z" transform="translate(-151.343 -171.771)" fill="#aaff8c"/>
      <path id="Path_141335" data-name="Path 141335" d="M161.694,180.2a.323.323,0,1,1-.319-.376A.351.351,0,0,1,161.694,180.2Z" transform="translate(-151.258 -172.563)" fill="#aaff8c"/>
      <path id="Path_141336" data-name="Path 141336" d="M161.539,181.9a.324.324,0,1,1-.319-.376A.351.351,0,0,1,161.539,181.9Z" transform="translate(-151.173 -173.355)" fill="#aaff8c"/>
      <path id="Path_141337" data-name="Path 141337" d="M161.539,181.9a.324.324,0,1,1-.319-.376A.351.351,0,0,1,161.539,181.9Z" transform="translate(-151.173 -173.355)" fill="#aaff8c"/>
      <ellipse id="Ellipse_6043" data-name="Ellipse 6043" cx="0.319" cy="0.376" rx="0.319" ry="0.376" transform="translate(6.707 8.17)" fill="#aaff8c"/>
      <ellipse id="Ellipse_6044" data-name="Ellipse 6044" cx="0.319" cy="0.376" rx="0.319" ry="0.376" transform="translate(7.462 8.17)" fill="#aaff8c"/>
      <ellipse id="Ellipse_6045" data-name="Ellipse 6045" cx="0.319" cy="0.376" rx="0.319" ry="0.376" transform="translate(8.216 8.17)" fill="#aaff8c"/>
      <ellipse id="Ellipse_6046" data-name="Ellipse 6046" cx="0.319" cy="0.376" rx="0.319" ry="0.376" transform="translate(8.971 8.17)" fill="#aaff8c"/>
      <ellipse id="Ellipse_6047" data-name="Ellipse 6047" cx="0.319" cy="0.376" rx="0.319" ry="0.376" transform="translate(9.725 8.17)" fill="#aaff8c"/>
      <path id="Path_141338" data-name="Path 141338" d="M141.5,166.751a.323.323,0,1,1-.319-.376A.351.351,0,0,1,141.5,166.751Z" transform="translate(-140.224 -166.297)" fill="#aaff8c"/>
      <ellipse id="Ellipse_6048" data-name="Ellipse 6048" cx="0.319" cy="0.376" rx="0.319" ry="0.376" transform="translate(0.564 0.986)" fill="#aaff8c"/>
      <path id="Path_141339" data-name="Path 141339" d="M141.185,170.15a.323.323,0,1,1-.319-.376A.351.351,0,0,1,141.185,170.15Z" transform="translate(-140.054 -167.88)" fill="#aaff8c"/>
      <path id="Path_141340" data-name="Path 141340" d="M141.03,171.849a.323.323,0,1,1-.319-.375A.351.351,0,0,1,141.03,171.849Z" transform="translate(-139.969 -168.672)" fill="#aaff8c"/>
      <path id="Path_141341" data-name="Path 141341" d="M140.874,173.549a.323.323,0,1,1-.319-.376A.351.351,0,0,1,140.874,173.549Z" transform="translate(-139.884 -169.464)" fill="#aaff8c"/>
      <ellipse id="Ellipse_6049" data-name="Ellipse 6049" cx="0.319" cy="0.376" rx="0.319" ry="0.376" transform="translate(0.282 4.617)" fill="#aaff8c"/>
      <path id="Path_141342" data-name="Path 141342" d="M140.564,176.949a.323.323,0,1,1-.319-.376A.351.351,0,0,1,140.564,176.949Z" transform="translate(-139.715 -171.048)" fill="#aaff8c"/>
      <ellipse id="Ellipse_6050" data-name="Ellipse 6050" cx="0.319" cy="0.376" rx="0.319" ry="0.376" transform="translate(0.141 6.433)" fill="#aaff8c"/>
      <path id="Path_141343" data-name="Path 141343" d="M140.253,180.348a.323.323,0,1,1-.319-.375A.351.351,0,0,1,140.253,180.348Z" transform="translate(-139.545 -172.631)" fill="#aaff8c"/>
      <path id="Path_141344" data-name="Path 141344" d="M140.1,182.047a.323.323,0,1,1-.319-.376A.351.351,0,0,1,140.1,182.047Z" transform="translate(-139.46 -173.423)" fill="#aaff8c"/>
      <path id="Path_141345" data-name="Path 141345" d="M143.159,166.751a.323.323,0,1,1-.319-.376A.351.351,0,0,1,143.159,166.751Z" transform="translate(-141.132 -166.297)" fill="#aaff8c"/>
      <path id="Path_141346" data-name="Path 141346" d="M144.822,166.751a.323.323,0,1,1-.319-.376A.351.351,0,0,1,144.822,166.751Z" transform="translate(-142.041 -166.297)" fill="#aaff8c"/>
      <path id="Path_141347" data-name="Path 141347" d="M146.485,166.751a.323.323,0,1,1-.319-.376A.351.351,0,0,1,146.485,166.751Z" transform="translate(-142.949 -166.297)" fill="#aaff8c"/>
      <path id="Path_141348" data-name="Path 141348" d="M148.148,166.751a.323.323,0,1,1-.319-.376A.351.351,0,0,1,148.148,166.751Z" transform="translate(-143.858 -166.297)" fill="#aaff8c"/>
      <path id="Path_141349" data-name="Path 141349" d="M149.811,166.751a.323.323,0,1,1-.319-.376A.351.351,0,0,1,149.811,166.751Z" transform="translate(-144.766 -166.297)" fill="#aaff8c"/>
      <path id="Path_141350" data-name="Path 141350" d="M140.1,182.047a.323.323,0,1,1-.319-.376A.351.351,0,0,1,140.1,182.047Z" transform="translate(-139.46 -173.423)" fill="#aaff8c"/>
      <path id="Path_141351" data-name="Path 141351" d="M149.815,166.751a.323.323,0,1,1-.319-.376A.351.351,0,0,1,149.815,166.751Z" transform="translate(-144.769 -166.297)" fill="#aaff8c"/>
      <ellipse id="Ellipse_6051" data-name="Ellipse 6051" cx="0.319" cy="0.376" rx="0.319" ry="0.376" transform="translate(4.338 0.986)" fill="#aaff8c"/>
      <path id="Path_141352" data-name="Path 141352" d="M149.505,170.15a.323.323,0,1,1-.319-.376A.351.351,0,0,1,149.505,170.15Z" transform="translate(-144.599 -167.88)" fill="#aaff8c"/>
      <ellipse id="Ellipse_6052" data-name="Ellipse 6052" cx="0.319" cy="0.376" rx="0.319" ry="0.376" transform="translate(4.197 2.802)" fill="#aaff8c"/>
      <path id="Path_141353" data-name="Path 141353" d="M149.194,173.549a.323.323,0,1,1-.319-.376A.351.351,0,0,1,149.194,173.549Z" transform="translate(-144.429 -169.464)" fill="#aaff8c"/>
      <path id="Path_141354" data-name="Path 141354" d="M149.039,175.249a.323.323,0,1,1-.319-.376A.351.351,0,0,1,149.039,175.249Z" transform="translate(-144.345 -170.256)" fill="#aaff8c"/>
      <path id="Path_141355" data-name="Path 141355" d="M148.883,176.949a.323.323,0,1,1-.319-.376A.351.351,0,0,1,148.883,176.949Z" transform="translate(-144.259 -171.048)" fill="#aaff8c"/>
      <ellipse id="Ellipse_6053" data-name="Ellipse 6053" cx="0.319" cy="0.376" rx="0.319" ry="0.376" transform="translate(3.915 6.433)" fill="#aaff8c"/>
      <path id="Path_141356" data-name="Path 141356" d="M148.573,180.348a.323.323,0,1,1-.319-.375A.351.351,0,0,1,148.573,180.348Z" transform="translate(-144.09 -172.631)" fill="#aaff8c"/>
      <ellipse id="Ellipse_6054" data-name="Ellipse 6054" cx="0.319" cy="0.376" rx="0.319" ry="0.376" transform="translate(3.774 8.248)" fill="#aaff8c"/>
      <ellipse id="Ellipse_6055" data-name="Ellipse 6055" cx="0.319" cy="0.376" rx="0.319" ry="0.376" transform="translate(3.774 8.248)" fill="#aaff8c"/>
      <path id="Path_141357" data-name="Path 141357" d="M141.761,182.047a.323.323,0,1,1-.319-.376A.351.351,0,0,1,141.761,182.047Z" transform="translate(-140.369 -173.423)" fill="#aaff8c"/>
      <path id="Path_141358" data-name="Path 141358" d="M143.424,182.047a.323.323,0,1,1-.319-.376A.351.351,0,0,1,143.424,182.047Z" transform="translate(-141.277 -173.423)" fill="#aaff8c"/>
      <path id="Path_141359" data-name="Path 141359" d="M145.087,182.047a.323.323,0,1,1-.319-.376A.351.351,0,0,1,145.087,182.047Z" transform="translate(-142.186 -173.423)" fill="#aaff8c"/>
      <path id="Path_141360" data-name="Path 141360" d="M146.75,182.047a.323.323,0,1,1-.319-.376A.351.351,0,0,1,146.75,182.047Z" transform="translate(-143.094 -173.423)" fill="#aaff8c"/>
      <path id="Path_141361" data-name="Path 141361" d="M148.413,182.047a.323.323,0,1,1-.319-.376A.351.351,0,0,1,148.413,182.047Z" transform="translate(-144.003 -173.423)" fill="#aaff8c"/>
    </g>
    <g id="Group_60379" data-name="Group 60379" transform="translate(152.118 153.594)">
      <path id="Path_141362" data-name="Path 141362" d="M202.53,166.605a.323.323,0,1,1-.319-.376A.351.351,0,0,1,202.53,166.605Z" transform="translate(-191.533 -166.229)" fill="#aaff8c"/>
      <path id="Path_141363" data-name="Path 141363" d="M202.535,166.605a.323.323,0,1,1-.319-.376A.351.351,0,0,1,202.535,166.605Z" transform="translate(-191.535 -166.229)" fill="#aaff8c"/>
      <path id="Path_141364" data-name="Path 141364" d="M202.379,168.3a.323.323,0,1,1-.319-.376A.351.351,0,0,1,202.379,168.3Z" transform="translate(-191.45 -167.021)" fill="#aaff8c"/>
      <path id="Path_141365" data-name="Path 141365" d="M202.224,170a.323.323,0,1,1-.319-.376A.351.351,0,0,1,202.224,170Z" transform="translate(-191.365 -167.812)" fill="#aaff8c"/>
      <ellipse id="Ellipse_6056" data-name="Ellipse 6056" cx="0.319" cy="0.376" rx="0.319" ry="0.376" transform="translate(10.15 2.723)" fill="#aaff8c"/>
      <path id="Path_141366" data-name="Path 141366" d="M201.913,173.4a.323.323,0,1,1-.319-.376A.351.351,0,0,1,201.913,173.4Z" transform="translate(-191.196 -169.396)" fill="#aaff8c"/>
      <ellipse id="Ellipse_6057" data-name="Ellipse 6057" cx="0.319" cy="0.376" rx="0.319" ry="0.376" transform="translate(10.009 4.539)" fill="#aaff8c"/>
      <path id="Path_141367" data-name="Path 141367" d="M201.6,176.8a.323.323,0,1,1-.319-.376A.351.351,0,0,1,201.6,176.8Z" transform="translate(-191.026 -170.979)" fill="#aaff8c"/>
      <path id="Path_141368" data-name="Path 141368" d="M201.447,178.5a.323.323,0,1,1-.319-.376A.351.351,0,0,1,201.447,178.5Z" transform="translate(-190.941 -171.771)" fill="#aaff8c"/>
      <path id="Path_141369" data-name="Path 141369" d="M201.292,180.2a.323.323,0,1,1-.319-.376A.351.351,0,0,1,201.292,180.2Z" transform="translate(-190.856 -172.563)" fill="#aaff8c"/>
      <ellipse id="Ellipse_6058" data-name="Ellipse 6058" cx="0.319" cy="0.376" rx="0.319" ry="0.376" transform="translate(9.727 8.17)" fill="#aaff8c"/>
      <ellipse id="Ellipse_6059" data-name="Ellipse 6059" cx="0.319" cy="0.376" rx="0.319" ry="0.376" transform="translate(9.727 8.17)" fill="#aaff8c"/>
      <ellipse id="Ellipse_6060" data-name="Ellipse 6060" cx="0.319" cy="0.376" rx="0.319" ry="0.376" transform="translate(9.725 8.17)" fill="#aaff8c"/>
      <path id="Path_141370" data-name="Path 141370" d="M181.094,166.751a.323.323,0,1,1-.319-.376A.351.351,0,0,1,181.094,166.751Z" transform="translate(-179.822 -166.297)" fill="#aaff8c"/>
      <path id="Path_141371" data-name="Path 141371" d="M180.939,168.451a.324.324,0,1,1-.319-.376A.351.351,0,0,1,180.939,168.451Z" transform="translate(-179.737 -167.089)" fill="#aaff8c"/>
      <path id="Path_141372" data-name="Path 141372" d="M180.783,170.15a.323.323,0,1,1-.319-.376A.351.351,0,0,1,180.783,170.15Z" transform="translate(-179.652 -167.88)" fill="#aaff8c"/>
      <path id="Path_141373" data-name="Path 141373" d="M180.628,171.849a.323.323,0,1,1-.319-.376A.351.351,0,0,1,180.628,171.849Z" transform="translate(-179.567 -168.672)" fill="#aaff8c"/>
      <path id="Path_141374" data-name="Path 141374" d="M180.473,173.549a.324.324,0,1,1-.319-.376A.351.351,0,0,1,180.473,173.549Z" transform="translate(-179.482 -169.464)" fill="#aaff8c"/>
      <ellipse id="Ellipse_6061" data-name="Ellipse 6061" cx="0.319" cy="0.376" rx="0.319" ry="0.376" transform="translate(0.282 4.617)" fill="#aaff8c"/>
      <path id="Path_141375" data-name="Path 141375" d="M180.162,176.949a.323.323,0,1,1-.319-.376A.351.351,0,0,1,180.162,176.949Z" transform="translate(-179.313 -171.048)" fill="#aaff8c"/>
      <ellipse id="Ellipse_6062" data-name="Ellipse 6062" cx="0.319" cy="0.376" rx="0.319" ry="0.376" transform="translate(0.141 6.433)" fill="#aaff8c"/>
      <path id="Path_141376" data-name="Path 141376" d="M179.851,180.348a.323.323,0,1,1-.319-.376A.351.351,0,0,1,179.851,180.348Z" transform="translate(-179.143 -172.631)" fill="#aaff8c"/>
      <path id="Path_141377" data-name="Path 141377" d="M179.7,182.047a.323.323,0,1,1-.319-.376A.351.351,0,0,1,179.7,182.047Z" transform="translate(-179.058 -173.423)" fill="#aaff8c"/>
      <path id="Path_141378" data-name="Path 141378" d="M182.757,166.751a.323.323,0,1,1-.319-.376A.351.351,0,0,1,182.757,166.751Z" transform="translate(-180.73 -166.297)" fill="#aaff8c"/>
      <path id="Path_141379" data-name="Path 141379" d="M184.42,166.751a.323.323,0,1,1-.319-.376A.351.351,0,0,1,184.42,166.751Z" transform="translate(-181.639 -166.297)" fill="#aaff8c"/>
      <path id="Path_141380" data-name="Path 141380" d="M186.083,166.751a.323.323,0,1,1-.319-.376A.351.351,0,0,1,186.083,166.751Z" transform="translate(-182.547 -166.297)" fill="#aaff8c"/>
      <path id="Path_141381" data-name="Path 141381" d="M187.746,166.751a.323.323,0,1,1-.319-.376A.351.351,0,0,1,187.746,166.751Z" transform="translate(-183.456 -166.297)" fill="#aaff8c"/>
      <path id="Path_141382" data-name="Path 141382" d="M189.409,166.751a.323.323,0,1,1-.319-.376A.351.351,0,0,1,189.409,166.751Z" transform="translate(-184.364 -166.297)" fill="#aaff8c"/>
      <path id="Path_141383" data-name="Path 141383" d="M179.7,182.047a.323.323,0,1,1-.319-.376A.351.351,0,0,1,179.7,182.047Z" transform="translate(-179.058 -173.423)" fill="#aaff8c"/>
      <path id="Path_141384" data-name="Path 141384" d="M189.413,166.751a.323.323,0,1,1-.319-.376A.351.351,0,0,1,189.413,166.751Z" transform="translate(-184.367 -166.297)" fill="#aaff8c"/>
      <ellipse id="Ellipse_6063" data-name="Ellipse 6063" cx="0.319" cy="0.376" rx="0.319" ry="0.376" transform="translate(4.338 0.986)" fill="#aaff8c"/>
      <path id="Path_141385" data-name="Path 141385" d="M189.1,170.15a.323.323,0,1,1-.319-.376A.351.351,0,0,1,189.1,170.15Z" transform="translate(-184.197 -167.88)" fill="#aaff8c"/>
      <path id="Path_141386" data-name="Path 141386" d="M188.947,171.849a.323.323,0,1,1-.319-.376A.351.351,0,0,1,188.947,171.849Z" transform="translate(-184.112 -168.672)" fill="#aaff8c"/>
      <path id="Path_141387" data-name="Path 141387" d="M188.792,173.549a.323.323,0,1,1-.319-.376A.351.351,0,0,1,188.792,173.549Z" transform="translate(-184.027 -169.464)" fill="#aaff8c"/>
      <path id="Path_141388" data-name="Path 141388" d="M188.637,175.249a.323.323,0,1,1-.319-.376A.351.351,0,0,1,188.637,175.249Z" transform="translate(-183.943 -170.256)" fill="#aaff8c"/>
      <path id="Path_141389" data-name="Path 141389" d="M188.481,176.949a.323.323,0,1,1-.319-.376A.351.351,0,0,1,188.481,176.949Z" transform="translate(-183.857 -171.048)" fill="#aaff8c"/>
      <ellipse id="Ellipse_6064" data-name="Ellipse 6064" cx="0.319" cy="0.376" rx="0.319" ry="0.376" transform="translate(3.915 6.433)" fill="#aaff8c"/>
      <path id="Path_141390" data-name="Path 141390" d="M188.171,180.348a.323.323,0,1,1-.319-.376A.351.351,0,0,1,188.171,180.348Z" transform="translate(-183.688 -172.631)" fill="#aaff8c"/>
      <ellipse id="Ellipse_6065" data-name="Ellipse 6065" cx="0.319" cy="0.376" rx="0.319" ry="0.376" transform="translate(3.774 8.248)" fill="#aaff8c"/>
      <ellipse id="Ellipse_6066" data-name="Ellipse 6066" cx="0.319" cy="0.376" rx="0.319" ry="0.376" transform="translate(3.774 8.248)" fill="#aaff8c"/>
      <path id="Path_141391" data-name="Path 141391" d="M181.359,182.047a.323.323,0,1,1-.319-.376A.351.351,0,0,1,181.359,182.047Z" transform="translate(-179.967 -173.423)" fill="#aaff8c"/>
      <path id="Path_141392" data-name="Path 141392" d="M183.022,182.047a.323.323,0,1,1-.319-.376A.351.351,0,0,1,183.022,182.047Z" transform="translate(-180.875 -173.423)" fill="#aaff8c"/>
      <path id="Path_141393" data-name="Path 141393" d="M184.685,182.047a.323.323,0,1,1-.319-.376A.351.351,0,0,1,184.685,182.047Z" transform="translate(-181.784 -173.423)" fill="#aaff8c"/>
      <path id="Path_141394" data-name="Path 141394" d="M186.348,182.047a.323.323,0,1,1-.319-.376A.351.351,0,0,1,186.348,182.047Z" transform="translate(-182.692 -173.423)" fill="#aaff8c"/>
      <path id="Path_141395" data-name="Path 141395" d="M188.011,182.047a.323.323,0,1,1-.319-.376A.351.351,0,0,1,188.011,182.047Z" transform="translate(-183.601 -173.423)" fill="#aaff8c"/>
    </g>
  </g>
</svg>
