<svg width="58" height="73" viewBox="0 0 58 73" fill="none" xmlns="http://www.w3.org/2000/svg">
<rect x="11" y="1" width="45" height="64" rx="8" fill="#FFC708"/>
<circle cx="16" cy="57" r="15" fill="#FFC708" stroke="#F65008" stroke-width="2"/>
<rect x="21.9766" y="1" width="23.7704" height="5.22061" rx="2.61031" fill="#F65008"/>
<path d="M6 49.067C7.10186 48.8491 8.52759 49.067 9.2508 51.1782L12.0158 59.0386L22.1481 58.0085C22.7941 57.7001 22.9874 57.3918 23.4484 56.5986C23.8897 55.8393 24.2276 53.2212 24.4273 52.0475L9.58684 51.8613" stroke="#530C54" stroke-width="2"/>
<path d="M12.1598 59.0352C11.7276 59.6317 11.2094 61.009 12.5945 61.7454H21.967" stroke="#530C54" stroke-width="2"/>
<circle cx="13.6742" cy="64.5971" r="1.04139" stroke="#530C54"/>
<circle cx="20.4242" cy="64.5941" r="1.04139" stroke="#530C54"/>
<path d="M11.6328 43V7.2996C12.1743 4.9531 14.3403 1.7041 19.7692 1.7041H50.3292C52.9395 1.7041 55.3249 4.53378 55.7581 8.57698C56.1913 12.6202 55.9386 44.0197 55.7581 59.2141C55.7581 61.0378 54.3835 64.9671 50.3292 65.365C46.3544 65.7551 31.6796 65.365 28.5 65.365" stroke="#F65008" stroke-width="3"/>
<rect x="16.9688" y="10.2061" width="16.8559" height="10.8022" rx="2" fill="#530C54"/>
<rect x="35.4062" y="11.3447" width="16.8559" height="2.19377" rx="1.09688" fill="#530C54"/>
<rect x="35.4062" y="26.3682" width="16.8559" height="2.19377" rx="1.09688" fill="#530C54"/>
<rect x="35.4062" y="15.6211" width="8.88615" height="2.19377" rx="1.09688" fill="#530C54"/>
<rect x="35.4062" y="30.6445" width="8.88615" height="2.19377" rx="1.09688" fill="#530C54"/>
<rect x="16.9688" y="24.2021" width="16.8559" height="10.8022" rx="2" fill="#530C54"/>
</svg>
