<svg width="42" height="54" viewBox="0 0 42 54" fill="none" xmlns="http://www.w3.org/2000/svg">
<path d="M9.02344 22V21.5V6.7619C9.02344 4.13198 11.1554 2 13.7853 2H35.2139C37.8438 2 39.9758 4.13198 39.9758 6.7619V47.2381C39.9758 49.868 37.8438 52 35.2139 52H13.7853C11.1554 52 9.02344 49.868 9.02344 47.2381V37.2016" stroke="#FFBD10" stroke-width="2.38095"/>
<path d="M38.5 2.5H10.5L9.5 10.5H39.5L38.5 2.5Z" fill="#FFBD10"/>
<path d="M10.0002 43H40L38.9998 51H10.0002V43Z" fill="#FFBD10"/>
<path d="M0 21.5V23.5H2L5.6 31.09L4.24 33.54C4.09 33.82 4 34.15 4 34.5C4 35.0304 4.21071 35.5391 4.58579 35.9142C4.96086 36.2893 5.46957 36.5 6 36.5H18V34.5H6.42C6.3537 34.5 6.29011 34.4737 6.24322 34.4268C6.19634 34.3799 6.17 34.3163 6.17 34.25C6.17 34.2 6.18 34.16 6.2 34.13L7.1 32.5H14.55C15.3 32.5 15.96 32.08 16.3 31.47L19.88 25C19.95 24.84 20 24.67 20 24.5C20 24.2348 19.8946 23.9804 19.7071 23.7929C19.5196 23.6054 19.2652 23.5 19 23.5H4.21L3.27 21.5" fill="#FFBD10"/>
<rect x="21" y="5" width="8" height="2" rx="1" fill="#3C1D51"/>
<circle cx="25" cy="47" r="2" fill="#3C1D51"/>
</svg>
