<svg width="31" height="31" viewBox="0 0 31 31" fill="none" xmlns="http://www.w3.org/2000/svg">
<path fill-rule="evenodd" clip-rule="evenodd" d="M15.5 31C24.0604 31 31 24.0604 31 15.5C31 6.93959 24.0604 0 15.5 0C6.93959 0 0 6.93959 0 15.5C0 24.0604 6.93959 31 15.5 31ZM21.3849 17.5391C20.9911 17.1405 20.457 16.9167 19.9 16.9167H10.1C9.54305 16.9167 9.0089 17.1405 8.61508 17.5391C8.22125 17.9376 8 18.4781 8 19.0417V19.5481C8 22.1817 10.947 24 15 24C19.053 24 22 22.0818 22 19.5481V19.0417C22 18.4781 21.7788 17.9376 21.3849 17.5391ZM16.6073 7.32351C16.0977 7.10993 15.5516 7 15 7C13.8861 7 12.8178 7.44777 12.0302 8.2448C11.2425 9.04183 10.8 10.1228 10.8 11.25C10.8 12.3772 11.2425 13.4582 12.0302 14.2552C12.8178 15.0522 13.8861 15.5 15 15.5C15.5516 15.5 16.0977 15.3901 16.6073 15.1765C17.1168 14.9629 17.5798 14.6499 17.9698 14.2552C18.3599 13.8606 18.6692 13.392 18.8803 12.8764C19.0914 12.3608 19.2 11.8081 19.2 11.25C19.2 10.6919 19.0914 10.1392 18.8803 9.6236C18.6692 9.10796 18.3599 8.63945 17.9698 8.2448C17.5798 7.85015 17.1168 7.53709 16.6073 7.32351Z" fill="#FDC00F"/>
</svg>
