<svg width="22" height="24" viewBox="0 0 22 24" fill="none" xmlns="http://www.w3.org/2000/svg">
<path d="M12.5763 8.68099C12.5098 8.59959 12.4259 8.53403 12.3309 8.48907C12.2358 8.44411 12.132 8.42087 12.0268 8.42105H3.01648L2.835 7.39138C2.81565 7.2817 2.75827 7.18235 2.67294 7.11077C2.58761 7.0392 2.47979 6.99998 2.36842 7H0.473684C0.348055 7 0.227572 7.04991 0.138739 7.13874C0.0499058 7.22757 0 7.34806 0 7.47368C0 7.59931 0.0499058 7.7198 0.138739 7.80863C0.227572 7.89746 0.348055 7.94737 0.473684 7.94737H1.97112L3.32289 15.6086C3.34225 15.7183 3.39962 15.8177 3.48495 15.8892C3.57028 15.9608 3.6781 16 3.78947 16H11.3684C11.494 16 11.6145 15.9501 11.7034 15.8613C11.7922 15.7724 11.8421 15.6519 11.8421 15.5263C11.8421 15.4007 11.7922 15.2802 11.7034 15.1914C11.6145 15.1025 11.494 15.0526 11.3684 15.0526H4.18678L4.0198 14.1053H11.1742C11.3385 14.1051 11.4976 14.0481 11.6247 13.944C11.7518 13.84 11.8391 13.6952 11.8717 13.5342L12.7243 9.27102C12.7449 9.16785 12.7423 9.0614 12.7167 8.95936C12.6911 8.85732 12.6431 8.76224 12.5763 8.68099Z" fill="#FED500"/>
<path fill-rule="evenodd" clip-rule="evenodd" d="M7 2C7 0.89543 7.89543 0 9 0H20C21.1046 0 22 0.895431 22 2V22C22 23.1046 21.1046 24 20 24H9C7.89543 24 7 23.1046 7 22V17H8.04354V20H21.0435V4H8.04354V7H7V2ZM12.913 2.375C12.913 2.16789 13.0809 2 13.288 2H15.538C15.7451 2 15.913 2.16789 15.913 2.375V2.625C15.913 2.83211 15.7451 3 15.538 3H13.288C13.0809 3 12.913 2.83211 12.913 2.625V2.375ZM14.6086 23C15.1609 23 15.6086 22.5523 15.6086 22C15.6086 21.4477 15.1609 21 14.6086 21C14.0564 21 13.6086 21.4477 13.6086 22C13.6086 22.5523 14.0564 23 14.6086 23Z" fill="#FED500"/>
</svg>
