<svg width="30" height="30" viewBox="0 0 30 30" fill="none" xmlns="http://www.w3.org/2000/svg">
<rect width="14" height="14" fill="#FFA90A"/>
<rect x="16" width="14" height="14" fill="#FDC00F"/>
<rect x="16" y="16" width="14" height="14" fill="#F5500A"/>
<rect y="16" width="14" height="14" fill="#30B88E"/>
<rect x="19" y="20" width="8" height="9" fill="#FDC00F"/>
<path d="M22 20.3333V20C22 19.4477 22.4477 19 23 19V19C23.5523 19 24 19.4477 24 20V20.3333" stroke="black" stroke-width="0.3" stroke-linecap="round"/>
<path d="M8.91069 11.2094C11.2349 10.2233 12.3197 7.53976 11.3336 5.21554C10.3475 2.89131 7.66395 1.80655 5.33973 2.79264C3.0155 3.77874 1.93074 6.46228 2.91683 8.7865C3.90293 11.1107 6.58647 12.1955 8.91069 11.2094Z" fill="#F5B528"/>
<mask id="mask0_1314_707" style="mask-type:luminance" maskUnits="userSpaceOnUse" x="2" y="2" width="10" height="10">
<path d="M8.91143 11.2016C11.2357 10.2155 12.3204 7.53195 11.3343 5.20772C10.3482 2.8835 7.66468 1.79873 5.34046 2.78483C3.01624 3.77092 1.93147 6.45447 2.91756 8.77869C3.90366 11.1029 6.5872 12.1877 8.91143 11.2016Z" fill="white"/>
</mask>
<g mask="url(#mask0_1314_707)">
<path d="M2.72534 1.96875H18.359" stroke="#E0A723" stroke-width="1.18007" stroke-miterlimit="10"/>
<path d="M2.72534 2.28125H18.359" stroke="#E0A723" stroke-width="1.18007" stroke-miterlimit="10"/>
<path d="M2.72534 2.59375H18.359" stroke="#E0A723" stroke-width="1.18007" stroke-miterlimit="10"/>
<path d="M2.72534 2.91016H18.359" stroke="#E0A723" stroke-width="1.18007" stroke-miterlimit="10"/>
<path d="M2.72534 3.23047H18.359" stroke="#E0A723" stroke-width="1.18007" stroke-miterlimit="10"/>
<path d="M2.72534 3.53906H18.359" stroke="#E0A723" stroke-width="1.18007" stroke-miterlimit="10"/>
<path d="M2.72534 3.85156H18.359" stroke="#E0A723" stroke-width="1.18007" stroke-miterlimit="10"/>
<path d="M2.72534 4.17188H18.359" stroke="#E0A723" stroke-width="1.18007" stroke-miterlimit="10"/>
<path d="M2.72534 4.48047H18.359" stroke="#E0A723" stroke-width="1.18007" stroke-miterlimit="10"/>
<path d="M2.72534 4.79297H18.359" stroke="#E0A723" stroke-width="1.18007" stroke-miterlimit="10"/>
<path d="M2.72534 5.11328H18.359" stroke="#E0A723" stroke-width="1.18007" stroke-miterlimit="10"/>
<path d="M2.72534 5.42969H18.359" stroke="#E0A723" stroke-width="1.18007" stroke-miterlimit="10"/>
<path d="M2.72534 5.74219H18.359" stroke="#E0A723" stroke-width="1.18007" stroke-miterlimit="10"/>
<path d="M2.72534 6.05469H18.359" stroke="#E0A723" stroke-width="1.18007" stroke-miterlimit="10"/>
<path d="M2.72534 6.36328H18.359" stroke="#E0A723" stroke-width="1.18007" stroke-miterlimit="10"/>
<path d="M2.72534 6.68359H18.359" stroke="#E0A723" stroke-width="1.18007" stroke-miterlimit="10"/>
<path d="M2.72534 6.99219H18.359" stroke="#E0A723" stroke-width="1.18007" stroke-miterlimit="10"/>
<path d="M2.72534 7.3125H18.359" stroke="#E0A723" stroke-width="1.18007" stroke-miterlimit="10"/>
<path d="M2.72534 7.62891H18.359" stroke="#E0A723" stroke-width="1.18007" stroke-miterlimit="10"/>
<path d="M2.72534 7.94141H18.359" stroke="#E0A723" stroke-width="1.18007" stroke-miterlimit="10"/>
<path d="M2.72534 8.25781H18.359" stroke="#E0A723" stroke-width="1.18007" stroke-miterlimit="10"/>
<path d="M2.72534 8.57812H18.359" stroke="#E0A723" stroke-width="1.18007" stroke-miterlimit="10"/>
<path d="M2.72534 8.89062H18.359" stroke="#E0A723" stroke-width="1.18007" stroke-miterlimit="10"/>
<path d="M2.72534 9.19531H18.359" stroke="#E0A723" stroke-width="1.18007" stroke-miterlimit="10"/>
<path d="M2.72534 9.51562H18.359" stroke="#E0A723" stroke-width="1.18007" stroke-miterlimit="10"/>
<path d="M2.72534 9.83203H18.359" stroke="#E0A723" stroke-width="1.18007" stroke-miterlimit="10"/>
<path d="M2.72534 10.1523H18.359" stroke="#E0A723" stroke-width="1.18007" stroke-miterlimit="10"/>
<path d="M2.72534 10.4609H18.359" stroke="#E0A723" stroke-width="1.18007" stroke-miterlimit="10"/>
<path d="M2.72534 10.7812H18.359" stroke="#E0A723" stroke-width="1.18007" stroke-miterlimit="10"/>
<path d="M2.72534 11.0898H18.359" stroke="#E0A723" stroke-width="1.18007" stroke-miterlimit="10"/>
<path d="M2.72534 11.4023H18.359" stroke="#E0A723" stroke-width="1.18007" stroke-miterlimit="10"/>
<path d="M2.72534 11.7188H18.359" stroke="#E0A723" stroke-width="1.18007" stroke-miterlimit="10"/>
<path d="M2.72534 12.0352H18.359" stroke="#E0A723" stroke-width="1.18007" stroke-miterlimit="10"/>
</g>
<path d="M8.77935 11.2094C11.1036 10.2233 12.1883 7.53976 11.2022 5.21554C10.2161 2.89131 7.5326 1.80655 5.20838 2.79264C2.88416 3.77874 1.79939 6.46228 2.78548 8.7865C3.77158 11.1107 6.45512 12.1955 8.77935 11.2094Z" fill="#F7D320"/>
<path d="M8.48853 10.5341C10.4398 9.70939 11.3532 7.45902 10.5285 5.50771C9.70383 3.55641 7.45346 2.64308 5.50215 3.46775C3.55084 4.29241 2.63752 6.54279 3.46218 8.49409C4.28685 10.4454 6.53722 11.3587 8.48853 10.5341Z" fill="#EB8904"/>
<path d="M10.4937 7.56841C10.8112 5.63573 9.5019 3.81158 7.56922 3.49405C5.63654 3.17652 3.81238 4.48586 3.49486 6.41854C3.17733 8.35122 4.48667 10.1754 6.41935 10.4929C8.35203 10.8104 10.1762 9.50109 10.4937 7.56841Z" fill="#F5B528"/>
<mask id="mask1_1314_707" style="mask-type:luminance" maskUnits="userSpaceOnUse" x="2" y="2" width="10" height="10">
<path d="M8.77983 11.2094C11.1041 10.2233 12.1888 7.53976 11.2027 5.21554C10.2166 2.89131 7.53309 1.80655 5.20887 2.79264C2.88464 3.77874 1.79988 6.46228 2.78597 8.7865C3.77207 11.1107 6.45561 12.1955 8.77983 11.2094Z" fill="white"/>
</mask>
<g mask="url(#mask1_1314_707)">
<g style="mix-blend-mode:screen">
<path d="M13.735 1.46771L13.3142 1.04688L1.44393 12.9172L1.86477 13.338L13.735 1.46771Z" fill="#2E2E2E"/>
</g>
<g style="mix-blend-mode:screen">
<path d="M13.1718 0.900802L12.1265 -0.144531L0.256188 11.7257L1.30152 12.7711L13.1718 0.900802Z" fill="#2E2E2E"/>
</g>
</g>
<path d="M8.49886 8.13251C8.49886 8.32919 8.44969 8.51407 8.35135 8.68714C8.25694 8.86022 8.11534 9.00576 7.92652 9.12377C7.74165 9.24178 7.52137 9.31258 7.26568 9.33618V9.81411H6.88216V9.33618C6.5124 9.30078 6.21345 9.18474 5.98531 8.98806C5.75716 8.79138 5.64308 8.53177 5.64308 8.20921H6.36293C6.37473 8.36262 6.4239 8.49047 6.51044 8.59274C6.59698 8.69108 6.72088 8.75401 6.88216 8.78155V7.48347C6.61861 7.4166 6.40423 7.34973 6.23902 7.28286C6.07381 7.21205 5.9322 7.10191 5.81419 6.95244C5.70012 6.80296 5.64308 6.59842 5.64308 6.3388C5.64308 6.01231 5.75716 5.74286 5.98531 5.53045C6.21345 5.3141 6.5124 5.18823 6.88216 5.15283V4.6749H7.26568V5.15283C7.61184 5.1843 7.88915 5.29444 8.09763 5.48325C8.31005 5.66813 8.43002 5.92381 8.45756 6.25029H7.73771C7.72591 6.12835 7.67871 6.02018 7.5961 5.92578C7.5135 5.82744 7.40336 5.76057 7.26568 5.72516V6.99964C7.52923 7.06258 7.74361 7.12945 7.90882 7.20025C8.07403 7.26712 8.21367 7.3753 8.32775 7.52477C8.44182 7.67032 8.49886 7.87289 8.49886 8.13251ZM6.32753 6.3034C6.32753 6.46467 6.37473 6.59055 6.46913 6.68102C6.56747 6.77149 6.70515 6.84426 6.88216 6.89933V5.70746C6.71302 5.72713 6.57731 5.7881 6.47503 5.89037C6.3767 5.99265 6.32753 6.13032 6.32753 6.3034ZM7.26568 8.78155C7.43876 8.75401 7.57447 8.68518 7.67281 8.57504C7.77115 8.46096 7.82032 8.32526 7.82032 8.16791C7.82032 8.01057 7.77115 7.88863 7.67281 7.80209C7.5784 7.71162 7.44269 7.63885 7.26568 7.58378V8.78155Z" fill="#3D1402"/>
</svg>
