<svg xmlns="http://www.w3.org/2000/svg" width="15" height="8.356" viewBox="0 0 15 8.356">
  <g id="teams_icon_-_my_games" data-name="teams icon - my games" transform="translate(-1749.858 -4253.238)">
    <g id="Group_92534" data-name="Group 92534">
      <g id="Group_92533" data-name="Group 92533">
        <path id="Path_132297" data-name="Path 132297" d="M2039.53,4296.415s.132.8-.4.9l0-.856Z" transform="translate(-281.014 -41.945)" fill="#4d0874"/>
        <path id="Path_132298" data-name="Path 132298" d="M1891.024,4280.035a2.78,2.78,0,0,0,.873,2.706l.517-.591a2.407,2.407,0,0,1-.889-2.115Z" transform="translate(-137.079 -26.033)" fill="#4d0874"/>
        <path id="Path_132299" data-name="Path 132299" d="M1988.167,4352.169H1987.1a1.229,1.229,0,0,1-.2.566.74.74,0,1,0,1.461,0A1.224,1.224,0,0,1,1988.167,4352.169Z" transform="translate(-230.278 -96.107)" fill="#4d0874"/>
        <path id="Path_132300" data-name="Path 132300" d="M1979.642,4291.6l-.965.333.205,1.307a.875.875,0,0,0,1.521,0l.205-1.307Z" transform="translate(-222.287 -37.267)" fill="#4d0874"/>
        <g id="Group_59527" data-name="Group 59527" transform="translate(1756.317 4255.123)">
          <path id="Path_132301" data-name="Path 132301" d="M1976.351,4319.345c-.174-.149-.3.034-.1.346,0,0-.016.1.13.1Z" transform="translate(-1976.149 -4319.292)" fill="#4d0874"/>
          <path id="Path_132302" data-name="Path 132302" d="M2040.684,4319.345c.174-.149.3.034.1.346,0,0,.016.1-.13.1Z" transform="translate(-2038.811 -4319.292)" fill="#4d0874"/>
        </g>
        <path id="Path_132303" data-name="Path 132303" d="M2006.333,4336.855a.2.2,0,0,1-.272,0h-.05l.064.059a.138.138,0,0,0,.243,0l.064-.059Z" transform="translate(-248.842 -81.23)" fill="#4d0874"/>
        <g id="Group_59528" data-name="Group 59528" transform="translate(1756.379 4255.234)">
          <path id="Path_132304" data-name="Path 132304" d="M1978.4,4323.191a.1.1,0,0,0-.076,0s-.041.019-.014.075l.058.159a.093.093,0,0,1,.069,0C1978.453,4323.323,1978.257,4323.229,1978.4,4323.191Z" transform="translate(-1978.299 -4323.183)" fill="#4d0874"/>
          <path id="Path_132305" data-name="Path 132305" d="M2041.937,4323.191a.1.1,0,0,1,.076,0s.041.019.015.075l-.058.159a.092.092,0,0,0-.069,0C2041.883,4323.323,2042.078,4323.229,2041.937,4323.191Z" transform="translate(-2040.084 -4323.183)" fill="#4d0874"/>
        </g>
        <g id="Group_59531" data-name="Group 59531" transform="translate(1756.634 4254.986)">
          <g id="Group_59529" data-name="Group 59529" transform="translate(0.948 0)">
            <path id="Path_132306" data-name="Path 132306" d="M2020.819,4314.5l.112.146-.131-.065-.295.122a.051.051,0,1,1-.034-.1Z" transform="translate(-2020.436 -4314.496)" fill="#4d0874"/>
          </g>
          <g id="Group_59530" data-name="Group 59530" transform="translate(0 0)">
            <path id="Path_132307" data-name="Path 132307" d="M1987.351,4314.5l-.112.146.131-.065.295.122a.051.051,0,1,0,.034-.1Z" transform="translate(-1987.239 -4314.496)" fill="#4d0874"/>
          </g>
        </g>
        <path id="Path_132308" data-name="Path 132308" d="M1990.593,4333.24h-.172a.053.053,0,1,1,0-.106h.172A.053.053,0,0,1,1990.593,4333.24Z" transform="translate(-233.644 -77.616)" fill="#4d0874"/>
        <path id="Path_132309" data-name="Path 132309" d="M2025.121,4333.24h-.172a.053.053,0,0,1,0-.106h.172A.053.053,0,0,1,2025.121,4333.24Z" transform="translate(-267.187 -77.616)" fill="#4d0874"/>
        <path id="Path_132310" data-name="Path 132310" d="M1889.979,4262.76l-.013.059-.506.063a1.058,1.058,0,0,1-.045-.715l.553-.014.1.231Z" transform="translate(-135.53 -8.661)" fill="#4d0874"/>
        <path id="Path_132311" data-name="Path 132311" d="M1898.3,4264.092l.063.111s-.333.06-.361.3c-.012.1.066.166.234.14a.423.423,0,0,0,.163-.552Z" transform="translate(-143.913 -10.544)" fill="#4d0874"/>
        <path id="Path_132312" data-name="Path 132312" d="M1905.936,4253.586c0,.09.156.089.156,0v-.282c0-.087-.156-.09-.156,0Z" transform="translate(-151.623)" fill="#4d0874"/>
        <path id="Path_132313" data-name="Path 132313" d="M1912.58,4346.335h-.54l-.938-.755-.706.755,1.326,1.163.193,3.8h1.4v-4.111Z" transform="translate(-155.955 -89.707)" fill="#4d0874"/>
        <path id="Path_132314" data-name="Path 132314" d="M1970,4264.915a1.4,1.4,0,0,0-.751.026,1.093,1.093,0,0,0-.725.662l-.126-.11a1.261,1.261,0,0,0,.1,1.284h.051a.12.12,0,0,0,.121-.129.536.536,0,0,1,.237-.575.905.905,0,0,1,.194-.065h1.255c.712,0,.511-.82.511-.82a3.914,3.914,0,0,1-.872-.272Z" transform="translate(-212.165 -11.306)" fill="#4d0874"/>
        <path id="Path_132315" data-name="Path 132315" d="M1894.98,4256.035c0,.089.156.088.156,0v-.282c0-.087-.156-.09-.156,0Z" transform="translate(-140.979 -2.379)" fill="#4d0874"/>
        <path id="Path_132316" data-name="Path 132316" d="M1889.989,4258.834c0,.081.143.08.143,0v-.228c0-.08-.143-.082-.143,0Z" transform="translate(-136.131 -5.157)" fill="#4d0874"/>
        <path id="Path_132317" data-name="Path 132317" d="M1900.455,4254.872c0,.089.156.088.156,0v-.282c0-.087-.156-.09-.156,0Z" transform="translate(-146.298 -1.249)" fill="#4d0874"/>
        <path id="Path_132318" data-name="Path 132318" d="M1899.922,4259.4l.182-.257a.227.227,0,0,0,.018-.231l-.078-.158a.107.107,0,0,0-.1-.06h-.2a.048.048,0,0,0-.047.057c.025.135.194.11.194.11l.06.111a.414.414,0,0,0-.15.043c-.224.113-.277.353-.05.389A.51.51,0,0,0,1899.922,4259.4Z" transform="translate(-145.473 -5.296)" fill="#4d0874"/>
        <path id="Path_132319" data-name="Path 132319" d="M2084.642,4280.035a2.779,2.779,0,0,1-.873,2.706l-.517-.591a2.406,2.406,0,0,0,.891-2.115Z" transform="translate(-323.877 -26.033)" fill="#4d0874"/>
        <path id="Path_132320" data-name="Path 132320" d="M2111.254,4262.76l.014.059.505.063a1.059,1.059,0,0,0,.045-.715l-.553-.014-.1.231Z" transform="translate(-350.993 -8.661)" fill="#4d0874"/>
        <path id="Path_132321" data-name="Path 132321" d="M2111.342,4264.092l-.064.111s.333.06.361.3c.012.1-.066.166-.234.14a.423.423,0,0,1-.163-.552Z" transform="translate(-351.018 -10.544)" fill="#4d0874"/>
        <path id="Path_132322" data-name="Path 132322" d="M2113.747,4253.586c0,.09-.156.089-.156,0v-.282c0-.087.156-.09.156,0Z" transform="translate(-353.35)" fill="#4d0874"/>
        <path id="Path_132323" data-name="Path 132323" d="M2013.237,4346.335h.54l.938-.755.706.755-1.326,1.163-.193,3.8h-1.4v-4.111Z" transform="translate(-255.15 -89.707)" fill="#4d0874"/>
        <path id="Path_132324" data-name="Path 132324" d="M2124.708,4256.035c0,.089-.156.088-.156,0v-.282c0-.087.156-.09.156,0Z" transform="translate(-363.998 -2.379)" fill="#4d0874"/>
        <path id="Path_132325" data-name="Path 132325" d="M2130.173,4258.834c0,.081-.142.08-.142,0v-.228c0-.08.142-.082.142,0Z" transform="translate(-369.321 -5.157)" fill="#4d0874"/>
        <path id="Path_132326" data-name="Path 132326" d="M2119.227,4254.872c0,.089-.156.088-.156,0v-.282c0-.087.156-.09.156,0Z" transform="translate(-358.673 -1.249)" fill="#4d0874"/>
        <path id="Path_132327" data-name="Path 132327" d="M2106.722,4259.4l-.182-.257a.227.227,0,0,1-.018-.231l.078-.158a.106.106,0,0,1,.1-.06h.2a.048.048,0,0,1,.048.057c-.025.135-.194.11-.194.11l-.06.111a.414.414,0,0,1,.15.043c.224.113.277.353.05.389A.508.508,0,0,1,2106.722,4259.4Z" transform="translate(-346.461 -5.296)" fill="#4d0874"/>
      </g>
      <g id="Group_59542" data-name="Group 59542" transform="translate(1756.705 4255.234)">
        <path id="Path_132392" data-name="Path 132392" d="M1989.957,4324.288c-.006.019.141.152.378.065C1990.332,4324.2,1990.012,4324.121,1989.957,4324.288Z" transform="translate(-1989.95 -4324.166)" fill="#4d0874"/>
        <path id="Path_132393" data-name="Path 132393" d="M1992.518,4324.287a.113.113,0,0,0,.025.072.364.364,0,0,0,.161.02.114.114,0,0,0,.03-.149.277.277,0,0,0-.172-.034A.116.116,0,0,0,1992.518,4324.287Z" transform="translate(-1992.438 -4324.164)" fill="#4d0874"/>
        <path id="Path_132394" data-name="Path 132394" d="M1990.1,4323.368c-.05-.187-.335-.187-.379-.057C1989.655,4323.156,1990.113,4323.1,1990.1,4323.368Z" transform="translate(-1989.716 -4323.181)" fill="#4d0874"/>
        <path id="Path_132395" data-name="Path 132395" d="M1993.846,4325.839a.024.024,0,1,0,.047,0,.024.024,0,1,0-.047,0Z" transform="translate(-1993.728 -4325.74)" fill="#4d0874"/>
        <path id="Path_132396" data-name="Path 132396" d="M1994.613,4325.872a.056.056,0,1,0,.056-.057A.056.056,0,0,0,1994.613,4325.872Z" transform="translate(-1994.473 -4325.74)" fill="#4d0874"/>
      </g>
      <g id="Group_59543" data-name="Group 59543" transform="translate(1757.62 4255.234)">
        <path id="Path_132397" data-name="Path 132397" d="M2022.176,4324.288c.006.019-.141.152-.378.065C2021.8,4324.2,2022.12,4324.121,2022.176,4324.288Z" transform="translate(-2021.797 -4324.166)" fill="#4d0874"/>
        <path id="Path_132398" data-name="Path 132398" d="M2024.595,4324.287a.112.112,0,0,1-.025.072.363.363,0,0,1-.161.02.114.114,0,0,1-.031-.149.277.277,0,0,1,.172-.034A.115.115,0,0,1,2024.595,4324.287Z" transform="translate(-2024.29 -4324.164)" fill="#4d0874"/>
        <path id="Path_132399" data-name="Path 132399" d="M2021.79,4323.368c.05-.187.335-.187.379-.057C2022.236,4323.156,2021.778,4323.1,2021.79,4323.368Z" transform="translate(-2021.789 -4323.181)" fill="#4d0874"/>
        <path id="Path_132400" data-name="Path 132400" d="M2029.56,4325.839a.024.024,0,1,1-.024-.024A.024.024,0,0,1,2029.56,4325.839Z" transform="translate(-2029.292 -4325.74)" fill="#4d0874"/>
        <path id="Path_132401" data-name="Path 132401" d="M2026.576,4325.872a.056.056,0,0,1-.112,0,.056.056,0,1,1,.112,0Z" transform="translate(-2026.331 -4325.74)" fill="#4d0874"/>
      </g>
      <g id="Group_59550" data-name="Group 59550" transform="translate(1757.138 4255.854)">
        <path id="Path_132424" data-name="Path 132424" d="M2005.338,4345.116a.216.216,0,0,1-.431,0,.2.2,0,0,1,.043-.124.22.22,0,0,1,.345,0A.2.2,0,0,1,2005.338,4345.116Z" transform="translate(-2004.907 -4344.908)" fill="#4d0874"/>
        <path id="Path_132425" data-name="Path 132425" d="M2006.754,4344.992h-.345a.22.22,0,0,1,.345,0Z" transform="translate(-2006.366 -4344.908)" fill="#4d0874"/>
      </g>
    </g>
    <g id="Group_92532" data-name="Group 92532">
      <g id="Group_92531" data-name="Group 92531">
        <path id="Path_132328" data-name="Path 132328" d="M2188.146,4358s.119.725-.364.816l0-.775Z" transform="translate(-425.424 -101.769)" fill="#e8b652"/>
        <path id="Path_132329" data-name="Path 132329" d="M2053.707,4343.16a2.516,2.516,0,0,0,.79,2.45l.468-.535a2.177,2.177,0,0,1-.811-1.915Z" transform="translate(-295.123 -87.355)" fill="#e8b652"/>
        <path id="Path_132330" data-name="Path 132330" d="M2141.65,4408.469h-.967a1.106,1.106,0,0,1-.178.513.67.67,0,1,0,1.323,0A1.114,1.114,0,0,1,2141.65,4408.469Z" transform="translate(-379.496 -150.801)" fill="#e8b652"/>
        <path id="Path_132331" data-name="Path 132331" d="M2133.937,4353.632l-.874.3.186,1.184a.792.792,0,0,0,1.377,0l.186-1.184Z" transform="translate(-372.267 -97.528)" fill="#e8b652"/>
        <g id="Group_59532" data-name="Group 59532" transform="translate(1760.731 4256.818)">
          <path id="Path_132332" data-name="Path 132332" d="M2130.951,4378.755c-.157-.135-.272.03-.089.313,0,0-.014.093.118.093Z" transform="translate(-2130.768 -4378.708)" fill="#e8b652"/>
          <path id="Path_132333" data-name="Path 132333" d="M2189.195,4378.755c.158-.135.273.03.089.313,0,0,.014.093-.118.093Z" transform="translate(-2187.499 -4378.708)" fill="#e8b652"/>
        </g>
        <path id="Path_132334" data-name="Path 132334" d="M2158.1,4394.606a.186.186,0,0,1-.246,0h-.045l.058.053a.125.125,0,0,0,.22,0l.058-.053Z" transform="translate(-396.306 -137.333)" fill="#e8b652"/>
        <g id="Group_59533" data-name="Group 59533" transform="translate(1760.787 4256.92)">
          <path id="Path_132335" data-name="Path 132335" d="M2132.806,4382.236a.086.086,0,0,0-.069,0s-.037.017-.013.067l.052.144a.083.083,0,0,1,.063,0C2132.855,4382.354,2132.678,4382.27,2132.806,4382.236Z" transform="translate(-2132.716 -4382.228)" fill="#e8b652"/>
          <path id="Path_132336" data-name="Path 132336" d="M2190.327,4382.236a.086.086,0,0,1,.069,0s.038.017.013.067l-.052.144a.083.083,0,0,0-.062,0C2190.278,4382.354,2190.455,4382.27,2190.327,4382.236Z" transform="translate(-2188.649 -4382.228)" fill="#e8b652"/>
        </g>
        <g id="Group_59536" data-name="Group 59536" transform="translate(1761.018 4256.695)">
          <g id="Group_59534" data-name="Group 59534" transform="translate(0.858 0)">
            <path id="Path_132337" data-name="Path 132337" d="M2171.209,4374.361l.1.132-.118-.059-.267.109a.045.045,0,1,1-.031-.085Z" transform="translate(-2170.862 -4374.361)" fill="#e8b652"/>
          </g>
          <g id="Group_59535" data-name="Group 59535" transform="translate(0 0)">
            <path id="Path_132338" data-name="Path 132338" d="M2140.9,4374.361l-.1.132.118-.059.267.109a.045.045,0,1,0,.031-.085Z" transform="translate(-2140.801 -4374.361)" fill="#e8b652"/>
          </g>
        </g>
        <path id="Path_132339" data-name="Path 132339" d="M2143.847,4391.328h-.156a.048.048,0,0,1,0-.1h.156A.048.048,0,1,1,2143.847,4391.328Z" transform="translate(-382.545 -134.055)" fill="#e8b652"/>
        <path id="Path_132340" data-name="Path 132340" d="M2175.1,4391.328h-.156a.048.048,0,0,1,0-.1h.156A.048.048,0,1,1,2175.1,4391.328Z" transform="translate(-412.907 -134.055)" fill="#e8b652"/>
        <path id="Path_132341" data-name="Path 132341" d="M2052.759,4327.521l-.018.053-.453.058a.958.958,0,0,1-.041-.647l.5-.013.092.209Z" transform="translate(-293.72 -71.629)" fill="#e8b652"/>
        <path id="Path_132342" data-name="Path 132342" d="M2060.287,4328.73l.058.1s-.3.054-.327.272c-.011.091.06.15.212.127a.384.384,0,0,0,.148-.5Z" transform="translate(-301.305 -73.337)" fill="#e8b652"/>
        <path id="Path_132343" data-name="Path 132343" d="M2067.2,4319.221c0,.081.142.08.142,0v-.255c0-.08-.142-.082-.142,0Z" transform="translate(-308.281 -63.793)" fill="#e8b652"/>
        <path id="Path_132344" data-name="Path 132344" d="M2073.214,4403.191h-.489l-.849-.684-.639.684,1.2,1.052.174,1.362h1.264v-1.641Z" transform="translate(-312.206 -145.009)" fill="#e8b652"/>
        <path id="Path_132345" data-name="Path 132345" d="M2125.2,4329.477a1.267,1.267,0,0,0-.68.023.989.989,0,0,0-.656.6l-.114-.1a1.142,1.142,0,0,0,.094,1.163h.046a.109.109,0,0,0,.109-.117.485.485,0,0,1,.215-.521.812.812,0,0,1,.176-.06h1.137c.644,0,.463-.743.463-.743a3.552,3.552,0,0,1-.789-.246Z" transform="translate(-363.098 -74.028)" fill="#e8b652"/>
        <path id="Path_132346" data-name="Path 132346" d="M2057.285,4321.435c0,.081.142.08.142,0v-.255c0-.079-.142-.081-.142,0Z" transform="translate(-298.651 -65.944)" fill="#e8b652"/>
        <path id="Path_132347" data-name="Path 132347" d="M2052.769,4323.974c0,.074.129.073.129,0v-.206c0-.072-.129-.074-.129,0Z" transform="translate(-294.265 -68.464)" fill="#e8b652"/>
        <path id="Path_132348" data-name="Path 132348" d="M2062.244,4320.384c0,.081.141.08.141,0v-.255c0-.079-.141-.082-.141,0Z" transform="translate(-303.469 -64.923)" fill="#e8b652"/>
        <path id="Path_132349" data-name="Path 132349" d="M2061.759,4324.478l.165-.232a.2.2,0,0,0,.016-.209l-.07-.143a.1.1,0,0,0-.087-.054h-.184a.044.044,0,0,0-.043.051c.022.122.176.1.176.1l.054.1a.393.393,0,0,0-.136.04c-.2.1-.251.319-.046.352A.449.449,0,0,0,2061.759,4324.478Z" transform="translate(-302.72 -68.586)" fill="#e8b652"/>
        <path id="Path_132350" data-name="Path 132350" d="M2228.985,4343.16a2.517,2.517,0,0,1-.79,2.45l-.469-.535a2.177,2.177,0,0,0,.811-1.915Z" transform="translate(-464.228 -87.355)" fill="#e8b652"/>
        <path id="Path_132351" data-name="Path 132351" d="M2253.079,4327.521l.017.053.469.058a.944.944,0,0,0,.024-.647l-.5-.013-.092.209Z" transform="translate(-488.777 -71.629)" fill="#e8b652"/>
        <path id="Path_132352" data-name="Path 132352" d="M2253.163,4328.73l-.058.1s.3.054.327.272c.011.091-.06.15-.212.127a.383.383,0,0,1-.148-.5Z" transform="translate(-488.805 -73.337)" fill="#e8b652"/>
        <path id="Path_132353" data-name="Path 132353" d="M2255.341,4319.221c0,.081-.142.08-.142,0v-.255c0-.08.142-.082.142,0Z" transform="translate(-490.917 -63.793)" fill="#e8b652"/>
        <path id="Path_132354" data-name="Path 132354" d="M2164.342,4403.191h.489l.849-.684.639.684-1.2,1.052-.174,1.362h-1.264v-1.641Z" transform="translate(-402.011 -145.009)" fill="#e8b652"/>
        <path id="Path_132355" data-name="Path 132355" d="M2265.26,4321.435c0,.081-.142.08-.142,0v-.255c0-.079.142-.081.142,0Z" transform="translate(-500.552 -65.944)" fill="#e8b652"/>
        <path id="Path_132356" data-name="Path 132356" d="M2270.2,4323.974c0,.074-.129.073-.129,0v-.206c0-.072.129-.074.129,0Z" transform="translate(-505.365 -68.464)" fill="#e8b652"/>
        <path id="Path_132357" data-name="Path 132357" d="M2260.3,4320.384c0,.081-.142.08-.142,0v-.255c0-.079.142-.082.142,0Z" transform="translate(-495.735 -64.923)" fill="#e8b652"/>
        <path id="Path_132358" data-name="Path 132358" d="M2248.981,4324.478l-.164-.232a.2.2,0,0,1-.017-.209l.07-.143a.1.1,0,0,1,.087-.054h.183a.044.044,0,0,1,.043.051c-.022.122-.175.1-.175.1l-.055.1a.392.392,0,0,1,.136.04c.2.1.251.319.046.352A.452.452,0,0,1,2248.981,4324.478Z" transform="translate(-484.68 -68.586)" fill="#e8b652"/>
        <path id="Path_132359" data-name="Path 132359" d="M2152.788,4414.282l-.32-.1a.363.363,0,1,0,.64,0Z" transform="translate(-391.118 -156.354)" fill="#e8b652"/>
      </g>
      <g id="Group_59544" data-name="Group 59544" transform="translate(1761.099 4256.865)">
        <path id="Path_132402" data-name="Path 132402" d="M2143.855,4381.318c-.005.017.123.133.33.057C2144.183,4381.243,2143.9,4381.173,2143.855,4381.318Z" transform="translate(-2143.849 -4381.212)" fill="#e8b652"/>
        <path id="Path_132403" data-name="Path 132403" d="M2146.1,4381.31a.1.1,0,0,0,.022.063.314.314,0,0,0,.14.018.1.1,0,0,0,.041-.081.1.1,0,0,0-.014-.05.239.239,0,0,0-.15-.029A.1.1,0,0,0,2146.1,4381.31Z" transform="translate(-2146.026 -4381.203)" fill="#e8b652"/>
        <path id="Path_132404" data-name="Path 132404" d="M2143.981,4380.511c-.043-.164-.292-.164-.33-.049C2143.592,4380.325,2143.991,4380.276,2143.981,4380.511Z" transform="translate(-2143.645 -4380.347)" fill="#e8b652"/>
        <path id="Path_132405" data-name="Path 132405" d="M2147.257,4382.669a.02.02,0,0,0,.021.021.021.021,0,1,0-.021-.021Z" transform="translate(-2147.154 -4382.583)" fill="#e8b652"/>
        <path id="Path_132406" data-name="Path 132406" d="M2147.918,4382.7a.049.049,0,0,0,.1,0,.049.049,0,1,0-.1,0Z" transform="translate(-2147.796 -4382.583)" fill="#e8b652"/>
      </g>
      <g id="Group_59545" data-name="Group 59545" transform="translate(1761.897 4256.865)">
        <path id="Path_132407" data-name="Path 132407" d="M2171.969,4381.318c.006.017-.123.133-.33.057C2171.642,4381.243,2171.92,4381.173,2171.969,4381.318Z" transform="translate(-2171.639 -4381.212)" fill="#e8b652"/>
        <path id="Path_132408" data-name="Path 132408" d="M2174.071,4381.31a.1.1,0,0,1-.022.063.312.312,0,0,1-.14.018.1.1,0,0,1-.04-.081.1.1,0,0,1,.014-.05.239.239,0,0,1,.15-.029A.1.1,0,0,1,2174.071,4381.31Z" transform="translate(-2173.804 -4381.203)" fill="#e8b652"/>
        <path id="Path_132409" data-name="Path 132409" d="M2171.633,4380.511c.043-.164.292-.164.33-.049C2172.022,4380.325,2171.623,4380.276,2171.633,4380.511Z" transform="translate(-2171.633 -4380.347)" fill="#e8b652"/>
        <path id="Path_132410" data-name="Path 132410" d="M2178.4,4382.669a.021.021,0,1,1-.021-.021A.021.021,0,0,1,2178.4,4382.669Z" transform="translate(-2178.164 -4382.583)" fill="#e8b652"/>
        <path id="Path_132411" data-name="Path 132411" d="M2175.8,4382.7a.049.049,0,0,1-.1,0,.049.049,0,1,1,.1,0Z" transform="translate(-2175.591 -4382.583)" fill="#e8b652"/>
      </g>
      <g id="Group_59549" data-name="Group 59549" transform="translate(1761.455 4257.438)">
        <path id="Path_132422" data-name="Path 132422" d="M2156.563,4400.559a.216.216,0,0,1-.431,0,.2.2,0,0,1,.043-.124.22.22,0,0,1,.345,0A.2.2,0,0,1,2156.563,4400.559Z" transform="translate(-2156.132 -4400.351)" fill="#e8b652"/>
        <path id="Path_132423" data-name="Path 132423" d="M2157.98,4400.435h-.345a.22.22,0,0,1,.345,0Z" transform="translate(-2157.592 -4400.351)" fill="#e8b652"/>
      </g>
    </g>
    <g id="Group_92530" data-name="Group 92530">
      <g id="Group_92529" data-name="Group 92529">
        <path id="Path_132360" data-name="Path 132360" d="M1885.8,4358s.12.725-.363.816l0-.775Z" transform="translate(-131.705 -101.769)" fill="#e8b652"/>
        <path id="Path_132361" data-name="Path 132361" d="M1751.357,4343.16a2.516,2.516,0,0,0,.79,2.45l.468-.535a2.177,2.177,0,0,1-.81-1.915Z" transform="translate(-1.403 -87.355)" fill="#e8b652"/>
        <path id="Path_132362" data-name="Path 132362" d="M1839.3,4408.469h-.966a1.112,1.112,0,0,1-.178.513.67.67,0,1,0,1.323,0A1.114,1.114,0,0,1,1839.3,4408.469Z" transform="translate(-85.775 -150.801)" fill="#e8b652"/>
        <path id="Path_132363" data-name="Path 132363" d="M1831.586,4353.632l-.874.3.186,1.184a.792.792,0,0,0,1.377,0l.186-1.184Z" transform="translate(-78.546 -97.528)" fill="#e8b652"/>
        <g id="Group_59537" data-name="Group 59537" transform="translate(1752.101 4256.818)">
          <path id="Path_132364" data-name="Path 132364" d="M1828.6,4378.755c-.157-.135-.273.03-.089.313,0,0-.014.093.118.093Z" transform="translate(-1828.419 -4378.708)" fill="#e8b652"/>
          <path id="Path_132365" data-name="Path 132365" d="M1886.846,4378.755c.158-.135.273.03.089.313,0,0,.014.093-.117.093Z" transform="translate(-1885.15 -4378.708)" fill="#e8b652"/>
        </g>
        <path id="Path_132366" data-name="Path 132366" d="M1855.75,4394.606a.185.185,0,0,1-.246,0h-.045l.058.053a.125.125,0,0,0,.22,0l.058-.053Z" transform="translate(-102.586 -137.333)" fill="#e8b652"/>
        <g id="Group_59538" data-name="Group 59538" transform="translate(1752.156 4256.92)">
          <path id="Path_132367" data-name="Path 132367" d="M1830.456,4382.236a.086.086,0,0,0-.069,0s-.037.017-.013.067l.052.144a.083.083,0,0,1,.063,0C1830.5,4382.354,1830.328,4382.27,1830.456,4382.236Z" transform="translate(-1830.366 -4382.228)" fill="#e8b652"/>
          <path id="Path_132368" data-name="Path 132368" d="M1887.978,4382.236a.086.086,0,0,1,.069,0s.038.017.013.067l-.053.144a.083.083,0,0,0-.062,0C1887.929,4382.354,1888.106,4382.27,1887.978,4382.236Z" transform="translate(-1886.3 -4382.228)" fill="#e8b652"/>
        </g>
        <g id="Group_59541" data-name="Group 59541" transform="translate(1752.387 4256.695)">
          <g id="Group_59539" data-name="Group 59539" transform="translate(0.858 0)">
            <path id="Path_132369" data-name="Path 132369" d="M1868.859,4374.361l.1.132-.118-.059-.267.109a.045.045,0,1,1-.031-.085Z" transform="translate(-1868.512 -4374.361)" fill="#e8b652"/>
          </g>
          <g id="Group_59540" data-name="Group 59540" transform="translate(0 0)">
            <path id="Path_132370" data-name="Path 132370" d="M1838.553,4374.361l-.1.132.119-.059.267.109a.045.045,0,1,0,.031-.085Z" transform="translate(-1838.452 -4374.361)" fill="#e8b652"/>
          </g>
        </g>
        <path id="Path_132371" data-name="Path 132371" d="M1841.5,4391.328h-.156a.048.048,0,0,1,0-.1h.156A.048.048,0,1,1,1841.5,4391.328Z" transform="translate(-88.825 -134.055)" fill="#e8b652"/>
        <path id="Path_132372" data-name="Path 132372" d="M1872.752,4391.328h-.156a.048.048,0,1,1,0-.1h.156A.048.048,0,1,1,1872.752,4391.328Z" transform="translate(-119.188 -134.055)" fill="#e8b652"/>
        <path id="Path_132373" data-name="Path 132373" d="M1750.409,4327.521l-.017.053-.453.058a.959.959,0,0,1-.041-.647l.5-.013.092.209Z" transform="translate(0 -71.629)" fill="#e8b652"/>
        <path id="Path_132374" data-name="Path 132374" d="M1757.936,4328.73l.058.1s-.3.054-.328.272c-.011.091.06.15.212.127a.384.384,0,0,0,.148-.5Z" transform="translate(-7.584 -73.337)" fill="#e8b652"/>
        <path id="Path_132375" data-name="Path 132375" d="M1764.849,4319.221c0,.081.142.08.142,0v-.255c0-.08-.142-.082-.142,0Z" transform="translate(-14.563 -63.793)" fill="#e8b652"/>
        <path id="Path_132376" data-name="Path 132376" d="M1770.865,4403.191h-.489l-.849-.684-.639.684,1.2,1.052.174,1.362h1.264v-1.641Z" transform="translate(-18.486 -145.009)" fill="#e8b652"/>
        <path id="Path_132377" data-name="Path 132377" d="M1822.852,4329.477a1.267,1.267,0,0,0-.68.023.989.989,0,0,0-.656.6l-.114-.1a1.141,1.141,0,0,0,.094,1.163h.046a.109.109,0,0,0,.109-.117c-.023-.306.087-.452.215-.521a.808.808,0,0,1,.176-.06h1.137c.644,0,.463-.743.463-.743a3.556,3.556,0,0,1-.789-.246Z" transform="translate(-69.377 -74.028)" fill="#e8b652"/>
        <path id="Path_132378" data-name="Path 132378" d="M1754.935,4321.435c0,.081.141.08.141,0v-.255c0-.079-.141-.081-.141,0Z" transform="translate(-4.932 -65.944)" fill="#e8b652"/>
        <path id="Path_132379" data-name="Path 132379" d="M1750.418,4323.974c0,.074.129.073.129,0v-.206c0-.072-.129-.074-.129,0Z" transform="translate(-0.543 -68.464)" fill="#e8b652"/>
        <path id="Path_132380" data-name="Path 132380" d="M1759.9,4320.384c0,.081.141.08.141,0v-.255c0-.079-.141-.082-.141,0Z" transform="translate(-9.75 -64.923)" fill="#e8b652"/>
        <path id="Path_132381" data-name="Path 132381" d="M1759.409,4324.478l.165-.232a.2.2,0,0,0,.016-.209l-.07-.143a.1.1,0,0,0-.087-.054h-.184a.044.044,0,0,0-.043.051c.022.122.176.1.176.1l.054.1a.393.393,0,0,0-.135.04c-.2.1-.251.319-.046.352A.45.45,0,0,0,1759.409,4324.478Z" transform="translate(-9 -68.586)" fill="#e8b652"/>
        <path id="Path_132382" data-name="Path 132382" d="M1926.634,4343.16a2.517,2.517,0,0,1-.79,2.45l-.468-.535a2.176,2.176,0,0,0,.81-1.915Z" transform="translate(-170.507 -87.355)" fill="#e8b652"/>
        <path id="Path_132383" data-name="Path 132383" d="M1950.73,4327.521l.017.053.467.042a.9.9,0,0,0,.026-.632l-.5-.013-.092.209Z" transform="translate(-195.058 -71.629)" fill="#e8b652"/>
        <path id="Path_132384" data-name="Path 132384" d="M1950.813,4328.73l-.057.1s.3.054.327.272c.011.091-.06.15-.212.127a.383.383,0,0,1-.148-.5Z" transform="translate(-195.085 -73.337)" fill="#e8b652"/>
        <path id="Path_132385" data-name="Path 132385" d="M1952.991,4319.221c0,.081-.141.08-.141,0v-.255c0-.08.141-.082.141,0Z" transform="translate(-197.198 -63.793)" fill="#e8b652"/>
        <path id="Path_132386" data-name="Path 132386" d="M1861.993,4403.191h.489l.849-.684.639.684-1.2,1.052-.174,1.362h-1.264v-1.641Z" transform="translate(-108.292 -145.009)" fill="#e8b652"/>
        <path id="Path_132387" data-name="Path 132387" d="M1962.909,4321.435c0,.081-.141.08-.141,0v-.255c0-.079.141-.081.141,0Z" transform="translate(-206.833 -65.944)" fill="#e8b652"/>
        <path id="Path_132388" data-name="Path 132388" d="M1967.851,4323.974c0,.074-.129.073-.129,0v-.206c0-.072.129-.074.129,0Z" transform="translate(-211.645 -68.464)" fill="#e8b652"/>
        <path id="Path_132389" data-name="Path 132389" d="M1957.951,4320.384c0,.081-.142.08-.142,0v-.255c0-.079.142-.082.142,0Z" transform="translate(-202.015 -64.923)" fill="#e8b652"/>
        <path id="Path_132390" data-name="Path 132390" d="M1946.632,4324.478l-.164-.232a.206.206,0,0,1-.017-.209l.07-.143a.1.1,0,0,1,.087-.054h.184a.044.044,0,0,1,.043.051c-.022.122-.176.1-.176.1l-.054.1a.394.394,0,0,1,.136.04c.2.1.251.319.046.352A.45.45,0,0,1,1946.632,4324.478Z" transform="translate(-190.961 -68.586)" fill="#e8b652"/>
        <path id="Path_132391" data-name="Path 132391" d="M1850.438,4414.282l-.32-.1a.363.363,0,1,0,.64,0Z" transform="translate(-97.398 -156.354)" fill="#e8b652"/>
      </g>
      <g id="Group_59548" data-name="Group 59548" transform="translate(1752.473 4256.879)">
        <g id="Group_59546" data-name="Group 59546" transform="translate(0 0)">
          <path id="Path_132412" data-name="Path 132412" d="M1841.651,4381.756c-.005.016.123.133.33.057C1841.979,4381.681,1841.7,4381.61,1841.651,4381.756Z" transform="translate(-1841.645 -4381.649)" fill="#e8b652"/>
          <path id="Path_132413" data-name="Path 132413" d="M1843.893,4381.746a.1.1,0,0,0,.022.063.313.313,0,0,0,.14.018.1.1,0,0,0,.04-.081.1.1,0,0,0-.014-.05.24.24,0,0,0-.15-.029A.1.1,0,0,0,1843.893,4381.746Z" transform="translate(-1843.823 -4381.64)" fill="#e8b652"/>
          <path id="Path_132414" data-name="Path 132414" d="M1841.778,4380.947c-.044-.163-.292-.163-.33-.049C1841.388,4380.762,1841.787,4380.713,1841.778,4380.947Z" transform="translate(-1841.441 -4380.784)" fill="#e8b652"/>
          <path id="Path_132415" data-name="Path 132415" d="M1845.053,4383.107a.02.02,0,0,0,.02.02.02.02,0,0,0,.021-.02.021.021,0,0,0-.021-.021A.02.02,0,0,0,1845.053,4383.107Z" transform="translate(-1844.95 -4383.02)" fill="#e8b652"/>
          <path id="Path_132416" data-name="Path 132416" d="M1845.713,4383.135a.049.049,0,1,0,.049-.049A.049.049,0,0,0,1845.713,4383.135Z" transform="translate(-1845.591 -4383.02)" fill="#e8b652"/>
        </g>
        <g id="Group_59547" data-name="Group 59547" transform="translate(0.799 0)">
          <path id="Path_132417" data-name="Path 132417" d="M1869.765,4381.756c.005.016-.123.133-.33.057C1869.438,4381.681,1869.716,4381.61,1869.765,4381.756Z" transform="translate(-1869.435 -4381.649)" fill="#e8b652"/>
          <path id="Path_132418" data-name="Path 132418" d="M1871.868,4381.746a.1.1,0,0,1-.022.063.312.312,0,0,1-.14.018.1.1,0,0,1-.04-.081.1.1,0,0,1,.014-.05.24.24,0,0,1,.15-.029A.1.1,0,0,1,1871.868,4381.746Z" transform="translate(-1871.601 -4381.64)" fill="#e8b652"/>
          <path id="Path_132419" data-name="Path 132419" d="M1869.429,4380.947c.043-.163.292-.163.33-.049C1869.818,4380.762,1869.419,4380.713,1869.429,4380.947Z" transform="translate(-1869.429 -4380.784)" fill="#e8b652"/>
          <path id="Path_132420" data-name="Path 132420" d="M1876.194,4383.107a.021.021,0,0,1-.042,0,.021.021,0,1,1,.042,0Z" transform="translate(-1875.961 -4383.02)" fill="#e8b652"/>
          <path id="Path_132421" data-name="Path 132421" d="M1873.6,4383.135a.049.049,0,1,1-.049-.049A.049.049,0,0,1,1873.6,4383.135Z" transform="translate(-1873.386 -4383.02)" fill="#e8b652"/>
        </g>
      </g>
      <g id="Group_59551" data-name="Group 59551" transform="translate(1752.825 4257.461)">
        <path id="Path_132426" data-name="Path 132426" d="M1854.22,4401.409a.216.216,0,0,1-.431,0,.2.2,0,0,1,.043-.124.22.22,0,0,1,.345,0A.2.2,0,0,1,1854.22,4401.409Z" transform="translate(-1853.789 -4401.201)" fill="#e8b652"/>
        <path id="Path_132427" data-name="Path 132427" d="M1855.636,4401.285h-.345a.22.22,0,0,1,.345,0Z" transform="translate(-1855.248 -4401.201)" fill="#e8b652"/>
      </g>
    </g>
  </g>
</svg>
