<svg xmlns="http://www.w3.org/2000/svg" width="29.742" height="31" viewBox="0 0 29.742 31">
  <g id="more_-_terms" data-name="more - terms" transform="translate(0.5 0.5)">
    <path id="Path_35983" data-name="Path 35983" d="M21.443,13.692l.149,0h.013q.42.008.832.053V3.54A3.544,3.544,0,0,0,18.9,0H3.54A3.544,3.544,0,0,0,0,3.54V23.9a3.544,3.544,0,0,0,3.54,3.54H13.794a9.006,9.006,0,0,1,7.649-13.747ZM12.695,5.78H17.94a.879.879,0,0,1,0,1.758H12.695a.879.879,0,0,1,0-1.758Zm0,3.516H17.94a.879.879,0,0,1,0,1.758H12.695a.879.879,0,0,1,0-1.758ZM9.743,21.66H4.5a.879.879,0,0,1,0-1.758H9.743a.879.879,0,0,1,0,1.758Zm0-3.575H4.5a.879.879,0,0,1,0-1.758H9.743a.879.879,0,0,1,0,1.758Zm0-3.516H4.5a.879.879,0,0,1,0-1.758H9.743a.879.879,0,0,1,0,1.758Zm0-3.516H4.5A.879.879,0,1,1,4.5,9.3H9.743a.879.879,0,0,1,0,1.758Zm0-3.516H4.5a.879.879,0,1,1,0-1.758H9.743a.879.879,0,0,1,0,1.758Zm2.073,6.153a.879.879,0,0,1,.879-.879h2.526a.879.879,0,0,1,0,1.758H12.695a.879.879,0,0,1-.879-.879Zm0,0" transform="translate(0 0)" fill="none" stroke="#b72c74" stroke-width="1"/>
    <path id="Path_35984" data-name="Path 35984" d="M253.891,264.863a7.252,7.252,0,0,0-5.073-2.182h-.131a7.3,7.3,0,1,0,5.2,2.183ZM251.8,268.8l-2.787,3.475a.879.879,0,0,1-1.2.162l-2.079-1.506a.879.879,0,0,1,1.031-1.423l1.4,1.015,2.264-2.822a.879.879,0,0,1,1.371,1.1Zm0,0" transform="translate(-227.243 -247.288)" fill="none" stroke="#b72c74" stroke-width="1"/>
  </g>
</svg>
