<svg width="76" height="67" viewBox="0 0 76 67" fill="none" xmlns="http://www.w3.org/2000/svg">
<rect x="2" y="3" width="52" height="62" rx="4" fill="#FFC708"/>
<path d="M53.6438 65.2192H7C4.23858 65.2192 2 62.9806 2 60.2192V6.99999C2 4.23857 4.23858 2 7 2H49.5343C52.2957 2 54.5342 4.23858 54.5342 7V32.274" stroke="#F65008" stroke-width="3"/>
<rect x="7.34375" y="13.5752" width="16.9178" height="1.78082" rx="0.890411" fill="#530C54"/>
<rect x="7.34375" y="24.2607" width="16.9178" height="1.78082" rx="0.890411" fill="#530C54"/>
<rect x="7.34375" y="34.9453" width="16.9178" height="1.78082" rx="0.890411" fill="#530C54"/>
<rect x="7.34375" y="17.1367" width="16.9178" height="1.78082" rx="0.890411" fill="#530C54"/>
<rect x="7.34375" y="27.8223" width="16.9178" height="1.78082" rx="0.890411" fill="#530C54"/>
<rect x="7.34375" y="38.5068" width="16.9178" height="1.78082" rx="0.890411" fill="#530C54"/>
<rect x="7.34375" y="20.6982" width="16.9178" height="1.78082" rx="0.890411" fill="#530C54"/>
<rect x="7.34375" y="31.3838" width="16.9178" height="1.78082" rx="0.890411" fill="#530C54"/>
<rect x="7.34375" y="42.0684" width="16.9178" height="1.78082" rx="0.890411" fill="#530C54"/>
<rect x="31.3828" y="13.5752" width="16.9178" height="1.78082" rx="0.890411" fill="#530C54"/>
<rect x="31.3828" y="24.2607" width="16.9178" height="1.78082" rx="0.890411" fill="#530C54"/>
<rect x="31.3828" y="17.1367" width="16.9178" height="1.78082" rx="0.890411" fill="#530C54"/>
<rect x="31.3828" y="27.8223" width="16.9178" height="1.78082" rx="0.890411" fill="#530C54"/>
<rect x="31.3828" y="20.6982" width="16.9178" height="1.78082" rx="0.890411" fill="#530C54"/>
<rect x="31.3828" y="31.3838" width="16.9178" height="1.78082" rx="0.890411" fill="#530C54"/>
<circle cx="57.6519" cy="48.7466" r="16.7534" fill="#FFC708" stroke="#F65008" stroke-width="3"/>
<path d="M48.3047 48.9565L53.4597 54.5341L67.8937 42.0684" stroke="#530C54" stroke-width="3"/>
</svg>
