<svg id="Trophy" xmlns="http://www.w3.org/2000/svg" xmlns:xlink="http://www.w3.org/1999/xlink" width="23" height="25.958" viewBox="0 0 23 25.958">
  <defs>
    <linearGradient id="linear-gradient" x1="0.5" x2="0.5" y2="1" gradientUnits="objectBoundingBox">
      <stop offset="0" stop-color="#f7d561"/>
      <stop offset="0.552" stop-color="#ed687d"/>
      <stop offset="1" stop-color="#e8318c"/>
    </linearGradient>
  </defs>
  <g id="Group_59562" data-name="Group 59562" transform="translate(11.582 3.419)">
    <path id="Path_133512" data-name="Path 133512" d="M2012.84,1847.373v5.009a.232.232,0,0,1-.233-.233.083.083,0,0,1,0-.012h-.011a.06.06,0,0,1,0,.011.233.233,0,1,1-.456-.1.08.08,0,0,0,0-.011l-.01,0s0,.007,0,.011a.233.233,0,0,1-.426-.189.066.066,0,0,0,.006-.011l-.01-.005a.052.052,0,0,1-.006.01.232.232,0,1,1-.376-.273l.007-.01-.008-.006-.009.009a.233.233,0,1,1-.312-.346l.009-.008-.006-.009-.01.007a.233.233,0,1,1-.233-.4l.011-.005,0-.01-.011,0a.233.233,0,0,1-.144-.443l.011,0,0-.011-.011,0a.233.233,0,1,1-.049-.463h.012v-.011h-.012a.233.233,0,1,1,.049-.463h.011l0-.01-.011,0a.233.233,0,0,1,.144-.443l.011,0a.057.057,0,0,1,0-.01l-.011-.005a.233.233,0,1,1,.233-.4l.01.007.006-.009-.009-.008a.233.233,0,1,1,.312-.346l.009.008.008-.007-.007-.009a.233.233,0,1,1,.376-.274l.006.01.01-.006s0-.007-.005-.011a.233.233,0,0,1,.425-.189s0,.008,0,.011l.01,0a.064.064,0,0,0,0-.011.233.233,0,0,1,.456-.1.082.082,0,0,1,0,.012h.011a.1.1,0,0,1,0-.012A.233.233,0,0,1,2012.84,1847.373Z" transform="translate(-2010.348 -1847.373)" fill="#fed500"/>
    <path id="Path_133513" data-name="Path 133513" d="M2069.749,1850.139a.233.233,0,0,1-.256.208l-.011,0a.037.037,0,0,0,0,.011l.011,0a.233.233,0,1,1-.143.443l-.011,0,0,.01.011.005a.233.233,0,0,1-.233.4l-.011-.007a.032.032,0,0,1-.006.009l.01.008a.233.233,0,1,1-.312.346l-.008-.009-.009.007.008.01a.232.232,0,1,1-.376.273.082.082,0,0,1-.007-.01l-.01.005s0,.007.006.011a.233.233,0,1,1-.426.189.08.08,0,0,0,0-.011l-.01,0s0,.008,0,.011a.233.233,0,1,1-.455.1.086.086,0,0,0,0-.011h-.01v.012a.232.232,0,0,1-.232.233v-5.009a.232.232,0,0,1,.232.233v.012h.01a.041.041,0,0,0,0-.012.233.233,0,1,1,.455.1s0,.007,0,.011l.01,0s0-.008,0-.011a.233.233,0,1,1,.426.189s0,.008-.006.011l.01.006a.1.1,0,0,1,.007-.01.232.232,0,1,1,.376.273l-.008.009.009.007.008-.008a.233.233,0,1,1,.312.346l-.01.008.006.009.01-.006a.233.233,0,1,1,.233.4l-.011.005,0,.01.011,0a.233.233,0,1,1,.143.443l-.011,0a.027.027,0,0,0,0,.01h.011a.233.233,0,1,1,.048.463h-.011v.011h.011A.233.233,0,0,1,2069.749,1850.139Z" transform="translate(-2064.766 -1847.373)" fill="#fed500"/>
    <path id="Path_133514" data-name="Path 133514" d="M2025.552,1860.853a2,2,0,1,1-2-2A2,2,0,0,1,2025.552,1860.853Z" transform="translate(-2021.058 -1858.348)" fill="#fed500"/>
  </g>
  <g id="Group_59563" data-name="Group 59563" transform="translate(5.038)">
    <path id="Path_133516" data-name="Path 133516" d="M1863.411,1769.3v5.01a.233.233,0,0,1-.233-.233.1.1,0,0,1,0-.012h-.011a.081.081,0,0,1,0,.011.233.233,0,1,1-.455-.1.094.094,0,0,1,0-.011l-.01,0,0,.011a.233.233,0,0,1-.426-.189l.006-.011-.009-.005-.007.011a.233.233,0,1,1-.376-.274l.008-.009-.008-.007-.008.008a.233.233,0,1,1-.312-.346l.01-.008-.006-.009-.01.007a.233.233,0,1,1-.233-.4l.011-.006,0-.01-.011,0a.233.233,0,1,1-.144-.443l.011,0a.1.1,0,0,1,0-.01l-.012,0a.233.233,0,1,1-.049-.463h.012v-.011h-.012a.233.233,0,1,1,.049-.463l.012,0a.08.08,0,0,1,0-.01l-.011,0a.233.233,0,0,1,.144-.443l.011,0,0-.009-.011-.005a.233.233,0,1,1,.233-.4l.01.006.006-.009-.01-.007a.233.233,0,0,1,.312-.346l.008.008.008-.007-.008-.009a.233.233,0,1,1,.376-.275l.007.011.009-.005a.08.08,0,0,1-.006-.011.233.233,0,1,1,.426-.189l0,.011.01,0a.069.069,0,0,1,0-.012.233.233,0,0,1,.455-.1s0,.008,0,.012h.011a.1.1,0,0,1,0-.012A.233.233,0,0,1,1863.411,1769.3Z" transform="translate(-1860.919 -1769.296)" fill="#fed500"/>
    <path id="Path_133517" data-name="Path 133517" d="M1920.32,1772.062a.232.232,0,0,1-.256.207l-.011,0,0,.01.012,0a.233.233,0,0,1-.144.443l-.011,0,0,.009.01.006a.233.233,0,1,1-.233.4l-.01-.007-.007.009.01.008a.233.233,0,1,1-.311.346l-.009-.008-.008.006.008.009a.233.233,0,0,1-.376.274l-.007-.011-.01.005.006.011a.233.233,0,1,1-.425.189s0-.007-.005-.011l-.009,0,0,.011a.233.233,0,1,1-.456.1v-.011h-.011a.1.1,0,0,1,0,.012.233.233,0,0,1-.233.233v-5.01a.233.233,0,0,1,.233.233v.012h.01a.083.083,0,0,0,0-.012.233.233,0,0,1,.456.1l0,.012.009,0a.107.107,0,0,1,.005-.011.232.232,0,1,1,.425.189.044.044,0,0,1-.006.011l.01.005.007-.01a.233.233,0,1,1,.376.274l-.008.009.008.007.009-.009a.233.233,0,1,1,.311.346l-.01.007.007.009.01-.007a.233.233,0,1,1,.233.4l-.01.005,0,.01.011,0a.233.233,0,0,1,.144.442l-.012,0,0,.01.011,0a.233.233,0,0,1,.049.463h-.012s0,0,0,.005,0,0,0,.005h.012A.232.232,0,0,1,1920.32,1772.062Z" transform="translate(-1915.338 -1769.296)" fill="#fed500"/>
    <path id="Path_133518" data-name="Path 133518" d="M1876.12,1782.776a2,2,0,1,1-2-2A2,2,0,0,1,1876.12,1782.776Z" transform="translate(-1871.627 -1780.272)" fill="#fed500"/>
  </g>
  <g id="Group_88439" data-name="Group 88439" transform="translate(0 5.291)">
    <path id="Path_133532" data-name="Path 133532" d="M1905.6,1991.292a.53.53,0,1,1-.53-.556.543.543,0,0,1,.53.556Z" transform="translate(-1897.593 -1987.146)" fill="url(#linear-gradient)"/>
    <g id="Group_88505" data-name="Group 88505">
      <path id="Path_133524" data-name="Path 133524" d="M1754.583,1924.554a7.744,7.744,0,0,1-4.539-1.872c-2.427-2.083-3.77-5.637-4.161-8.949l5.849.686a1.385,1.385,0,0,1-.614,1.788.429.429,0,0,1-.627-.255.465.465,0,0,1,.195-.536.805.805,0,0,0,.217-.18l-4-.469a16.341,16.341,0,0,0,1.314,4.017c1.475,3.013,3.639,4.649,6.429,4.863Z" transform="translate(-1745.882 -1913.686)" fill="url(#linear-gradient)"/>
      <path id="Path_133525" data-name="Path 133525" d="M2071,1924.554a7.745,7.745,0,0,0,4.54-1.872c2.427-2.083,3.769-5.637,4.162-8.949l-5.85.686a1.387,1.387,0,0,0,.614,1.788.43.43,0,0,0,.628-.255.468.468,0,0,0-.2-.536.792.792,0,0,1-.217-.18l4-.469a16.349,16.349,0,0,1-1.314,4.017c-1.475,3.013-3.638,4.649-6.429,4.863Z" transform="translate(-2056.7 -1913.686)" fill="url(#linear-gradient)"/>
      <path id="Path_133526" data-name="Path 133526" d="M1971.715,2178.136h-3.51l.72-8.862H1971l.718,8.848Z" transform="translate(-1958.469 -2157.472)" fill="url(#linear-gradient)"/>
      <path id="Path_133527" data-name="Path 133527" d="M2010.051,2178.122h-1.772v-8.848h1.054Z" transform="translate(-1996.788 -2157.472)" fill="url(#linear-gradient)"/>
      <path id="Path_133528" data-name="Path 133528" d="M1947.723,2339.31h-4.75a.529.529,0,0,1-.516-.541v-.553h5.782v.553a.529.529,0,0,1-.516.541Z" transform="translate(-1933.848 -2318.644)" fill="url(#linear-gradient)"/>
      <path id="Path_133529" data-name="Path 133529" d="M1948.239,2315.848h-5.782l1.3-1.077h3.175Z" transform="translate(-1933.848 -2296.278)" fill="url(#linear-gradient)"/>
      <rect id="Rectangle_17858" data-name="Rectangle 17858" width="12.4" height="2.306" transform="translate(5.3)" fill="#f6cb64"/>
      <path id="Path_133530" data-name="Path 133530" d="M1872.831,1962.826v9.252h-1.865c-2.248-1.408-3.889-4.982-4.07-9.252Z" transform="translate(-1861.597 -1960.52)" fill="url(#linear-gradient)"/>
      <path id="Path_133531" data-name="Path 133531" d="M2008.89,1962.826c-.181,4.27-1.823,7.844-4.07,9.252h-2.394v-9.252Z" transform="translate(-1991.191 -1960.52)" fill="url(#linear-gradient)"/>
      <path id="Rectangle_17859" data-name="Rectangle 17859" d="M.811,0H5.358a.811.811,0,0,1,.811.811v0a.811.811,0,0,1-.811.811H.811A.811.811,0,0,1,0,.811v0A.811.811,0,0,1,.811,0Z" transform="translate(8.416 11.558)" fill="url(#linear-gradient)"/>
    </g>
  </g>
</svg>
