<svg xmlns="http://www.w3.org/2000/svg" width="18" height="22" viewBox="0 0 18 22">
  <g id="Wins" transform="translate(-65 -819)">
    <g id="Wins-2" data-name="Wins">
      <g id="Group_62164" data-name="Group 62164">
        <g id="Group_62168" data-name="Group 62168">
          <path id="Path_141185" data-name="Path 141185" d="M297.256,33.053l-6.029,6.958-.238.277h-2.733l-.82-2.784.69-.991.18-.259,2.47-3.2Z" transform="translate(-214.256 785.947)" fill="#55487d"/>
          <path id="Path_141186" data-name="Path 141186" d="M277.721,40.287h-5.462l-6.271-7.234h6.249l2.621,3.46Z" transform="translate(-200.988 785.947)" fill="#55487d"/>
          <path id="Path_141187" data-name="Path 141187" d="M284.509,70.42a7.485,7.485,0,0,1-6.53,7.55h-.014c-.245.024-.491.038-.744.038a7.592,7.592,0,0,1,0-15.172,7.36,7.36,0,0,1,.744.038h.014A7.484,7.484,0,0,1,284.509,70.42Z" transform="translate(-203.428 762.992)" fill="#55487d"/>
          <path id="Path_141190" data-name="Path 141190" d="M297.836,70.42a7.443,7.443,0,0,1-7.289,7.588h-1.505c.253,0,.5-.014.744-.038h.014a7.627,7.627,0,0,0,0-15.1h-.014a7.359,7.359,0,0,0-.744-.038h1.505A7.441,7.441,0,0,1,297.836,70.42Z" transform="translate(-215.249 762.992)" fill="#55487d"/>
        </g>
        <path id="Path_141191" data-name="Path 141191" d="M282.037,74.937l.4.642,1.415-.445.166,5.173-.99.087v.7h4.588V80.35l-1.339-.058.03-7.251-2.136.124Z" transform="translate(-210.916 756.562)" fill="#fff"/>
      </g>
    </g>
    <path id="Path_141192" data-name="Path 141192" d="M293.188,73.04l-.03,7.251,1.339.058v.744h.474v-.759l-1.342-.115.237-7.18Z" transform="translate(-217.796 756.562)" fill="#ccc"/>
  </g>
</svg>
