<svg width="111" height="64" viewBox="0 0 111 64" fill="none" xmlns="http://www.w3.org/2000/svg">
<rect x="3" y="2" width="105" height="22" fill="#FFC708"/>
<path d="M75.5 24.051H106C107.657 24.051 109 22.7079 109 21.051V5C109 3.34315 107.657 2 106 2H5C3.34315 2 2 3.34315 2 5V21.051C2 22.7079 3.34315 24.051 5 24.051H36" stroke="#F65008" stroke-width="3"/>
<rect x="36.9922" y="13.0557" width="37.0069" height="48.4524" rx="1.5" fill="#FFC708" stroke="#F65008" stroke-width="3"/>
<path d="M42.7422 48.5336V12.9199H68.2584V49.1973C63.5071 48.8433 61.7327 53.9163 61.4394 56.497H49.3412C49.5612 54.7273 49.3412 53.4001 46.7016 50.9669C44.8809 49.2885 44.7185 49.6397 42.7422 48.5336Z" stroke="#530C54" stroke-width="3"/>
<path d="M60.9547 31.8209C60.9547 34.8718 58.5035 37.3312 55.4969 37.3312C52.4902 37.3312 50.0391 34.8718 50.0391 31.8209C50.0391 28.7699 52.4902 26.3105 55.4969 26.3105C58.5035 26.3105 60.9547 28.7699 60.9547 31.8209Z" stroke="#530C54" stroke-width="2"/>
<rect x="21.2109" y="11.0303" width="68.5682" height="3.67517" fill="#530C54"/>
</svg>
